<svg width="360" height="345" viewBox="0 0 360 345" fill="none" xmlns="http://www.w3.org/2000/svg">
<g clip-path="url(#clip0_370_81873)">
<rect x="78.5449" y="243.505" width="10" height="22" transform="rotate(-14.3777 78.5449 243.505)" fill="#FCC9BB"/>
<rect x="72.3369" y="219.288" width="10" height="22" transform="rotate(-14.3777 72.3369 219.288)" fill="#FCC9BB"/>
<rect x="66.1294" y="195.071" width="10" height="22" transform="rotate(-14.3777 66.1294 195.071)" fill="#FCC9BB"/>
<rect x="59.9214" y="170.854" width="10" height="22" transform="rotate(-14.3777 59.9214 170.854)" fill="#FCC9BB"/>
<rect x="53.7134" y="146.638" width="10" height="22" transform="rotate(-14.3777 53.7134 146.638)" fill="#FCC9BB"/>
<rect x="76.8311" y="240.848" width="12" height="3" rx="1.5" transform="rotate(-14.3777 76.8311 240.848)" fill="#FF816C"/>
<rect x="70.6235" y="216.631" width="12" height="3" rx="1.5" transform="rotate(-14.3777 70.6235 216.631)" fill="#FF816C"/>
<rect x="64.4155" y="192.413" width="12" height="3" rx="1.5" transform="rotate(-14.3777 64.4155 192.413)" fill="#FF816C"/>
<rect x="58.208" y="168.196" width="12" height="3" rx="1.5" transform="rotate(-14.3777 58.208 168.196)" fill="#FF816C"/>
<rect x="52" y="143.979" width="12" height="3" rx="1.5" transform="rotate(-14.3777 52 143.979)" fill="#FF816C"/>
<rect x="135.513" y="216.251" width="6.26651" height="13.7863" transform="rotate(12.6006 135.513 216.251)" fill="#FCC9BB"/>
<rect x="138.931" y="200.962" width="6.26651" height="13.7863" transform="rotate(12.6006 138.931 200.962)" fill="#FCC9BB"/>
<rect x="142.348" y="185.674" width="6.26651" height="13.7863" transform="rotate(12.6006 142.348 185.674)" fill="#FCC9BB"/>
<rect x="145.767" y="170.384" width="6.26651" height="13.7863" transform="rotate(12.6006 145.767 170.384)" fill="#FCC9BB"/>
<rect x="135.312" y="214.279" width="7.51981" height="1.87995" rx="0.939976" transform="rotate(12.6006 135.312 214.279)" fill="#FF816C"/>
<rect x="138.729" y="198.991" width="7.51981" height="1.87995" rx="0.939976" transform="rotate(12.6006 138.729 198.991)" fill="#FF816C"/>
<rect x="142.147" y="183.701" width="7.51981" height="1.87995" rx="0.939976" transform="rotate(12.6006 142.147 183.701)" fill="#FF816C"/>
<rect x="145.565" y="168.413" width="7.51981" height="1.87995" rx="0.939976" transform="rotate(12.6006 145.565 168.413)" fill="#FF816C"/>
<rect width="7.25925" height="15.9703" transform="matrix(-0.995281 0.0970307 0.0970307 0.995281 108.442 207.426)" fill="#FCC9BB"/>
<rect width="7.25925" height="15.9703" transform="matrix(-0.995281 0.0970307 0.0970307 0.995281 106.681 189.363)" fill="#FCC9BB"/>
<rect width="7.25925" height="15.9703" transform="matrix(-0.995281 0.0970307 0.0970307 0.995281 104.921 171.3)" fill="#FCC9BB"/>
<rect width="7.25925" height="15.9703" transform="matrix(-0.995281 0.0970307 0.0970307 0.995281 103.16 153.237)" fill="#FCC9BB"/>
<rect width="8.7111" height="2.17777" rx="1.08889" transform="matrix(-0.995281 0.0970307 0.0970307 0.995281 108.954 205.188)" fill="#FF816C"/>
<rect width="8.7111" height="2.17777" rx="1.08889" transform="matrix(-0.995281 0.0970307 0.0970307 0.995281 107.194 187.124)" fill="#FF816C"/>
<rect width="8.7111" height="2.17777" rx="1.08889" transform="matrix(-0.995281 0.0970307 0.0970307 0.995281 105.433 169.062)" fill="#FF816C"/>
<rect width="8.7111" height="2.17777" rx="1.08889" transform="matrix(-0.995281 0.0970307 0.0970307 0.995281 103.671 151)" fill="#FF816C"/>
<path d="M189 257H79V295H189V257Z" fill="white"/>
<path d="M79.6175 256.946H74V295.079H79.6175V256.946Z" fill="#FF816C"/>
<path d="M192.051 256.946H186.434V295.079H192.051V256.946Z" fill="#FF816C"/>
<path d="M114.618 256.946H109V295.079H114.618V256.946Z" fill="#FF816C"/>
<path d="M157.305 256.946H151.688V295.079H157.305V256.946Z" fill="#FF816C"/>
<path d="M207 253H58L72.4796 240H191.999L207 253Z" fill="#FCC9BB"/>
<path d="M191 238H74L85.3699 227H179.221L191 238Z" fill="white"/>
<path d="M196.797 235H69.4053C67.5246 235 66 236.525 66 238.405C66 240.286 67.5246 241.811 69.4053 241.811H196.797C198.678 241.811 200.203 240.286 200.203 238.405C200.203 236.525 198.678 235 196.797 235Z" fill="#FF816C"/>
<path d="M181.107 221H84.4053C82.5246 221 81 222.525 81 224.405C81 226.286 82.5246 227.811 84.4053 227.811H181.107C182.988 227.811 184.512 226.286 184.512 224.405C184.512 222.525 182.988 221 181.107 221Z" fill="#FF816C"/>
<path d="M214.121 250.859H51.4053C49.5246 250.859 48 252.384 48 254.265C48 256.145 49.5246 257.67 51.4053 257.67L214.121 257.67C216.001 257.67 217.526 256.145 217.526 254.265C217.526 252.384 216.001 250.859 214.121 250.859Z" fill="#FF816C"/>
<path d="M124 281.42C124 278.658 126.239 276.42 129 276.42H137C139.761 276.42 142 278.658 142 281.42V293.42H124V281.42Z" fill="#FF9578"/>
<path d="M88 272C88 269.239 90.2386 267 93 267H95C97.7614 267 100 269.239 100 272V293H88V272Z" fill="#FF9578"/>
<path d="M166 272C166 269.239 168.239 267 171 267H173C175.761 267 178 269.239 178 272V293H166V272Z" fill="#FF9578"/>
<rect x="116" y="260" width="34" height="10" rx="3" fill="#FCC9BB"/>
<path d="M119.975 266.95C121.066 266.95 121.95 266.066 121.95 264.975C121.95 263.884 121.066 263 119.975 263C118.884 263 118 263.884 118 264.975C118 266.066 118.884 266.95 119.975 266.95Z" fill="#FF816C"/>
<path d="M125.241 266.95C126.331 266.95 127.215 266.066 127.215 264.975C127.215 263.884 126.331 263 125.241 263C124.15 263 123.266 263.884 123.266 264.975C123.266 266.066 124.15 266.95 125.241 266.95Z" fill="#FF816C"/>
<path d="M130.507 266.95C131.598 266.95 132.482 266.066 132.482 264.975C132.482 263.884 131.598 263 130.507 263C129.416 263 128.532 263.884 128.532 264.975C128.532 266.066 129.416 266.95 130.507 266.95Z" fill="#FF816C"/>
<path d="M135.493 266.95C136.583 266.95 137.467 266.066 137.467 264.975C137.467 263.884 136.583 263 135.493 263C134.402 263 133.518 263.884 133.518 264.975C133.518 266.066 134.402 266.95 135.493 266.95Z" fill="#FF816C"/>
<path d="M140.757 266.95C141.848 266.95 142.732 266.066 142.732 264.975C142.732 263.884 141.848 263 140.757 263C139.666 263 138.782 263.884 138.782 264.975C138.782 266.066 139.666 266.95 140.757 266.95Z" fill="#FF816C"/>
<path d="M146.024 266.95C147.115 266.95 147.999 266.066 147.999 264.975C147.999 263.884 147.115 263 146.024 263C144.934 263 144.049 263.884 144.049 264.975C144.049 266.066 144.934 266.95 146.024 266.95Z" fill="#FF816C"/>
<path d="M209.026 300H55.9738C54.3314 300 53 301.468 53 303.279V305.721C53 307.532 54.3314 309 55.9738 309H209.026C210.669 309 212 307.532 212 305.721V303.279C212 301.468 210.669 300 209.026 300Z" fill="#FF9578"/>
<path d="M196.037 293H69.9633C68.3267 293 67 294.371 67 296.063V296.937C67 298.629 68.3267 300 69.9633 300H196.037C197.673 300 199 298.629 199 296.937V296.063C199 294.371 197.673 293 196.037 293Z" fill="#FCC9BB"/>
<path d="M215.414 308H50.5857C49.1577 308 48 309.29 48 310.88V321.12C48 322.711 49.1577 324 50.5857 324H215.414C216.842 324 218 322.711 218 321.12V310.88C218 309.29 216.842 308 215.414 308Z" fill="#FF816C"/>
<path d="M41.6006 206.306C26.1509 203.607 19.9362 197.96 18.8362 182.372C28.2402 183.409 41.6007 185.15 41.6006 206.306Z" fill="#FF9578"/>
<path d="M56.677 227.325C47.5717 225.734 43.9091 222.406 43.2609 213.219C48.8031 213.83 56.677 214.857 56.677 227.325Z" fill="#FF816C"/>
<path d="M16.0223 239.82C17.1511 230.646 20.2896 226.82 29.4319 225.708C29.1015 231.274 28.4745 239.19 16.0223 239.82Z" fill="#FF816C"/>
<path d="M56.4861 278.005C47.4765 275.939 43.993 272.425 43.8262 263.217C49.3289 264.117 57.1384 265.554 56.4861 278.005Z" fill="#FF816C"/>
<path d="M52.096 148C54.3703 153.072 56.6327 165.13 47.4876 172.787C45.0811 167.775 42.6336 155.8 52.096 148Z" fill="#FF9578"/>
<path d="M67.254 152C72.6677 153.26 83.6345 158.759 84.1927 170.673C78.7462 169.554 67.7333 164.253 67.254 152Z" fill="#FF9578"/>
<path d="M109.254 198C114.668 199.26 125.635 204.759 126.193 216.673C120.746 215.554 109.733 210.253 109.254 198Z" fill="#FF9578"/>
<path d="M105.378 154C110.671 155.696 121.156 162.067 120.745 173.987C115.407 172.43 104.861 166.252 105.378 154Z" fill="#FF9578"/>
<path d="M98.1165 191C99.1202 196.467 98.4517 208.717 87.7487 213.981C86.6025 208.54 87.0714 196.327 98.1165 191Z" fill="#FF816C"/>
<path d="M144.225 172.299C141.749 176.168 134.439 183.192 125.005 180.339C127.38 176.406 134.548 169.29 144.225 172.299Z" fill="#FF9578"/>
<path d="M140.459 186.939C139.594 190.948 135.669 199.104 126.886 199.659C127.647 195.628 131.425 187.44 140.459 186.939Z" fill="#FF816C"/>
<path d="M152.791 174.053C156.637 176.564 163.596 183.936 160.658 193.345C156.746 190.935 149.695 183.702 152.791 174.053Z" fill="#FF816C"/>
<path d="M318 135.407C330.976 131.276 360.955 129.11 377.06 153.493C364.191 157.963 334.363 160.602 318 135.407Z" fill="#FF816C"/>
<path d="M302.526 129.887C294.824 134.07 276.137 139.071 263.003 125.61C270.596 121.226 289.13 115.944 302.526 129.887Z" fill="#FF816C"/>
<path d="M304.308 134.677C305.017 147.172 300.089 174.35 274.703 183.108C273.668 170.632 278.14 143.48 304.308 134.677Z" fill="#FF816C"/>
<path d="M361.078 186.413C350.601 184.708 328.997 175.641 326.401 153.011C336.923 154.443 358.589 163.127 361.078 186.413Z" fill="#FF9578"/>
<path d="M311.485 221.215C308.138 211.142 306.154 187.797 325 175.003C328.61 184.99 330.962 208.213 311.485 221.215Z" fill="#FF9578"/>
<path d="M151.32 168.729C153.666 164.78 160.739 157.516 170.263 160.055C168.02 164.065 161.092 171.414 151.32 168.729Z" fill="#FF9578"/>
<path d="M309.405 120.07C298.036 119.343 274.013 111.913 268.878 88.0115C280.266 88.4423 304.315 95.4573 309.405 120.07Z" fill="#FF9578"/>
<path d="M317.643 120.444C310.768 102.295 305.382 59.7989 338.844 35.0067C346.193 52.9763 352.241 95.2213 317.643 120.444Z" fill="#FF9578"/>
<path d="M147.124 167.884C144.385 166.562 139.19 162.309 140.323 155.882C143.096 157.133 148.339 161.286 147.124 167.884Z" fill="#FF816C"/>
<path fill-rule="evenodd" clip-rule="evenodd" d="M199.953 158.811C199.893 158.084 199.823 157.366 199.733 156.648C199.463 154.426 198.863 147.548 202.433 150.668C203.351 151.468 204.244 152.542 205.182 153.67C208.565 157.74 212.531 162.509 220.353 157.655C222.241 156.483 223.973 155.307 225.578 154.216C232.467 149.538 237.046 146.427 241.823 151.924C242.468 152.666 243.159 153.514 243.896 154.418C247.674 159.053 252.631 165.134 258.413 165.609C265.083 166.167 269.173 160.227 271.093 155.821C271.093 155.821 273.403 151.724 273.523 157.695C273.628 162.917 272.18 180.162 269.413 195.321C269.47 195.338 269.526 195.354 269.583 195.371C272.333 196.168 275.293 196.537 277.953 195.391L277.968 195.384C278.455 195.176 279.017 194.936 279.453 195.271C280.003 195.7 279.883 196.687 279.703 197.434C277.699 205.396 273.776 212.491 269.466 218.91C281.452 226.209 291.165 237.023 296.251 249.841C303.841 268.962 300.701 291.507 289.041 308.463C276.251 327.057 253.321 328.516 231.921 328.754C216.581 328.923 200.751 325.359 188.681 316.176C169.271 301.414 163.201 273.518 171.841 251.102C174.66 243.792 178.947 237.089 184.292 231.279C182.815 225.411 179.918 211.16 184.992 205.834C186.909 203.821 189.963 203.873 193.311 204.94C191.634 201.804 190.27 198.42 190.013 194.743C189.953 193.916 190.093 192.849 190.753 192.63C191.336 192.436 191.863 193.044 192.305 193.554C192.318 193.568 192.33 193.583 192.343 193.597C194.263 195.799 197.193 196.427 199.793 195.75C200.704 195.512 201.579 195.131 202.414 194.642C201.592 181.58 200.615 166.741 199.943 158.811H199.953Z" fill="#FC644F" fill-opacity="0.6"/>
<rect x="352.835" y="280.283" width="15.4592" height="34.0102" transform="rotate(-16.9253 352.835 280.283)" fill="#FCC9BB"/>
<rect x="341.585" y="243.31" width="15.4592" height="34.0102" transform="rotate(-16.9253 341.585 243.31)" fill="#FCC9BB"/>
<rect x="330.332" y="206.335" width="15.4592" height="34.0102" transform="rotate(-16.9253 330.332 206.335)" fill="#FCC9BB"/>
<rect x="319.082" y="169.362" width="15.4592" height="34.0102" transform="rotate(-16.9253 319.082 169.362)" fill="#FCC9BB"/>
<rect x="307.831" y="132.388" width="15.4592" height="34.0102" transform="rotate(-16.9253 307.831 132.388)" fill="#FCC9BB"/>
<rect x="350.006" y="276.297" width="18.551" height="4.63776" rx="2.31888" transform="rotate(-16.9253 350.006 276.297)" fill="#FF816C"/>
<rect x="338.755" y="239.323" width="18.551" height="4.63776" rx="2.31888" transform="rotate(-16.9253 338.755 239.323)" fill="#FF816C"/>
<rect x="327.505" y="202.349" width="18.551" height="4.63776" rx="2.31888" transform="rotate(-16.9253 327.505 202.349)" fill="#FF816C"/>
<rect x="316.251" y="165.376" width="18.551" height="4.63776" rx="2.31888" transform="rotate(-16.9253 316.251 165.376)" fill="#FF816C"/>
<rect x="305.001" y="128.401" width="18.551" height="4.63776" rx="2.31888" transform="rotate(-16.9253 305.001 128.401)" fill="#FF816C"/>
<rect x="32" y="311" width="10" height="22" fill="#FCC9BB"/>
<rect x="32" y="286" width="10" height="22" fill="#FCC9BB"/>
<rect x="32" y="261" width="10" height="22" fill="#FCC9BB"/>
<rect x="32" y="236" width="10" height="22" fill="#FCC9BB"/>
<rect x="32" y="211" width="10" height="22" fill="#FCC9BB"/>
<rect x="31" y="308" width="12" height="3" rx="1.5" fill="#FF816C"/>
<rect x="31" y="283" width="12" height="3" rx="1.5" fill="#FF816C"/>
<rect x="31" y="258" width="12" height="3" rx="1.5" fill="#FF816C"/>
<rect x="31" y="233" width="12" height="3" rx="1.5" fill="#FF816C"/>
<rect x="31" y="208" width="12" height="3" rx="1.5" fill="#FF816C"/>
</g>
<defs>
<clipPath id="clip0_370_81873">
<rect width="360" height="345" fill="white"/>
</clipPath>
</defs>
</svg>
