<svg width="360" height="345" viewBox="0 0 360 345" fill="none" xmlns="http://www.w3.org/2000/svg">
<g clip-path="url(#clip0_370_81875)">
<rect x="287" y="12" width="36" height="36" rx="18" fill="#40AF25"/>
<path d="M345.93 85.0749C343.124 85.2778 340.343 85.8079 337.653 86.6892C323.818 91.2146 313.397 104.72 312.763 119.073C312.261 130.393 320.502 141.888 328.502 146.888C341.002 152.888 350.002 151.388 359.889 149.044C367.808 146.446 375.316 141.811 379.89 134.899C387.246 123.786 385.404 108.146 376.972 97.9451C369.595 89.0235 357.565 84.2337 345.93 85.0749Z" fill="#FFF0B0"/>
<path d="M354.025 120.665C354.034 120.911 355.553 122.321 355.219 122.655C353.473 124.402 351.711 125.887 347.034 126.241C344.174 126.456 341.995 124.86 340.858 123.29C339.399 121.28 338.905 117.471 341.68 113.806C345.598 115.603 348.417 119.819 352.335 121.617C353.103 121.969 353.997 119.974 354.029 120.658L354.025 120.665Z" fill="#FFAF22"/>
<path d="M350.167 110.244C350.461 110.248 350.75 110.271 351.045 110.31C355.717 110.919 358.695 116.377 356.637 120.65C355.452 123.103 352.936 124.764 350.263 125.223C347.258 125.736 343.933 124.721 341.991 122.337C340.049 119.953 339.791 116.214 341.682 113.811C342.704 112.513 344.213 111.687 345.754 111.104C347.163 110.573 348.669 110.21 350.167 110.244Z" fill="#FFC931"/>
<path d="M349.154 115.95C349.121 115.666 349.11 115.38 349.136 115.088C349.167 114.707 349.265 114.32 349.505 114.03C349.745 113.74 350.154 113.56 350.511 113.682C350.848 113.793 351.064 114.124 351.24 114.441C351.747 115.374 352.036 116.34 352.309 117.359C352.536 118.196 352.848 119.011 352.684 119.894C352.646 120.104 352.573 120.326 352.414 120.467C352.225 120.635 351.943 120.668 351.697 120.601C351.45 120.535 351.241 120.374 351.058 120.193C350.528 119.679 350.193 119 349.895 118.326C349.556 117.567 349.249 116.768 349.149 115.952L349.154 115.95Z" fill="#FFF0B0"/>
<path d="M344.849 117.416C344.816 117.132 344.805 116.846 344.831 116.553C344.862 116.172 344.96 115.786 345.2 115.496C345.44 115.206 345.849 115.026 346.206 115.147C346.543 115.259 346.759 115.59 346.935 115.906C347.443 116.839 347.732 117.806 348.004 118.825C348.231 119.662 348.543 120.476 348.379 121.36C348.342 121.57 348.268 121.792 348.109 121.933C347.92 122.101 347.638 122.133 347.392 122.067C347.145 122 346.936 121.84 346.753 121.659C346.223 121.145 345.888 120.466 345.59 119.792C345.251 119.033 344.944 118.234 344.844 117.417L344.849 117.416Z" fill="#FFF0B0"/>
<path d="M347.929 132.992C349.44 132.679 350.469 131.829 350.488 131.814C350.72 131.621 350.748 131.273 350.55 131.04C350.358 130.811 350.013 130.776 349.787 130.974C349.664 131.078 346.92 133.317 343.99 130.895C343.756 130.703 343.413 130.735 343.223 130.97C343.033 131.205 343.066 131.551 343.3 131.743C344.985 133.135 346.637 133.264 347.93 132.997L347.929 132.992Z" fill="#FFAF22"/>
<path d="M334.621 117.969C333.135 118.475 331.517 117.67 331.007 116.172C330.497 114.673 331.288 113.049 332.773 112.543C334.259 112.037 335.877 112.842 336.387 114.34C336.897 115.838 336.106 117.463 334.621 117.969Z" fill="#2B110C"/>
<path d="M332.67 115.321C332.451 115.396 332.213 115.277 332.138 115.057C332.063 114.836 332.179 114.597 332.398 114.523C332.616 114.448 332.855 114.567 332.93 114.787C333.005 115.008 332.888 115.247 332.67 115.321Z" fill="white"/>
<path d="M340.71 92.1438C340.71 92.1438 350.697 88.066 361.457 92.8832C361.457 92.8832 372.465 96.2207 377.341 101.507C378.095 102.322 379.366 102.144 379.759 101.124C379.77 101.091 379.782 101.058 379.796 101.03C381.242 97.1861 378.85 92.6917 374.906 91.9624C374.882 91.959 374.851 91.9522 374.827 91.9488C374.827 91.9488 376.377 85.765 370.362 84.9882C370.362 84.9882 371.477 75.1838 362.96 74.6452C362.96 74.6452 359.379 65.612 350.467 70.638C350.467 70.638 350.342 66.6458 346.533 67.2075C346.533 67.2075 344.774 61.2823 339.113 60.7205C333.442 60.1623 320.873 64.3608 318.131 72.8087C318.131 72.8087 317.202 76.4882 317.264 78.1865C317.264 78.1865 313.626 77.1096 311.602 79.796C309.188 83.0032 312.353 86.1804 312.353 86.1804C312.353 86.1804 304.238 90.5298 307.875 101.836C307.875 101.836 300.437 107.634 307.702 116.75C307.702 116.75 307.121 123.489 313.01 124.905C313.809 125.096 314.564 124.498 314.63 123.647C314.989 119.207 317.214 105.8 330.762 96.3531C330.762 96.3531 336.86 93.2113 340.711 92.149L340.71 92.1438Z" fill="#5B4428"/>
<path d="M340.71 92.1438L337.576 85.0308C337.523 84.9098 337.392 84.8445 337.274 84.8848L336.508 85.1457C336.389 85.186 336.327 85.3231 336.371 85.4527L338.855 92.7465L340.715 92.142L340.71 92.1438Z" fill="#725836"/>
<path d="M311.331 92.451C311.692 91.6912 312.401 91.1604 313.22 90.9858C316.991 90.1939 323.728 93.463 323.728 93.463C323.728 93.463 327.205 95.1102 324.472 98.6459L319.031 104.968C319.031 104.968 316.092 109.534 314.131 106.069C309.94 98.0074 310.545 94.1023 311.331 92.451Z" fill="#FFF0B0"/>
<path d="M314.141 93.4216C314.549 93.2712 315.039 93.2779 315.482 93.3299C316.678 93.4725 317.826 93.8109 318.971 94.1563C320.02 94.4708 321.073 94.7836 322.04 95.2647C322.724 95.6049 323.427 96.1355 323.434 96.88C323.436 97.5103 322.937 98.0507 322.47 98.5165C320.872 100.109 319.353 102.021 317.76 103.611C317.168 104.2 316.412 104.962 315.822 104.039C314.674 102.236 313.84 99.8863 313.42 97.7946C313.226 96.8361 313.102 95.8479 313.222 94.8692C313.27 94.4535 313.374 94.0185 313.685 93.716C313.818 93.5839 313.975 93.4898 314.148 93.4251L314.141 93.4216Z" fill="#FFC931"/>
<path d="M250 115.5C250 103.074 260.074 93 272.5 93H281.5C293.926 93 304 103.074 304 115.5C304 119.642 300.642 123 296.5 123H257.5C253.358 123 250 119.642 250 115.5Z" fill="#CEFFC7"/>
<path d="M296 113.5C296 106.044 302.044 100 309.5 100C316.956 100 323 106.044 323 113.5C323 115.985 320.985 118 318.5 118H300.5C298.015 118 296 115.985 296 113.5Z" fill="#CEFFC7"/>
<path d="M348 95.5C348 88.0442 354.044 82 361.5 82C368.956 82 375 88.0442 375 95.5C375 97.9853 372.985 100 370.5 100H352.5C350.015 100 348 97.9853 348 95.5Z" fill="#CEFFC7"/>
<path d="M263 132C263 117.088 275.088 105 290 105H299C313.912 105 326 117.088 326 132C326 136.971 321.971 141 317 141H272C267.029 141 263 136.971 263 132Z" fill="#CEFFC7"/>
<path d="M380.499 200.533C380.499 183.533 346.499 161.033 319.999 154.033C309.166 151.688 287.001 136 282.5 130C279.485 125.98 271.5 109.999 271.5 109.499L273.5 109.499L286 124.499L292 112.5L294 114L288.89 128.866C299.485 139.498 331.665 142.311 348.999 144.533C364.599 146.533 376.499 151.699 380.499 154.033V200.533Z" fill="#40AF25"/>
<path d="M286 124.499C291.21 138.786 329.499 142.033 348.999 144.533C364.599 146.533 376.499 151.699 380.499 154.033V200.533C380.499 183.533 346.499 161.033 319.999 154.033C309.166 151.688 287.001 136 282.5 130C279.485 125.98 271.5 109.999 271.5 109.499L273.5 109.499L286 124.499ZM286 124.499L292 112.5L294 114L288.5 130" stroke="#40AF25" stroke-width="2" stroke-linecap="round" stroke-linejoin="round"/>
<path d="M114.731 172.619C115.198 165.111 118.208 157.968 123.246 152.383C136.432 137.763 159.412 137.716 172.598 152.336C177.669 157.959 180.666 165.145 181.093 172.705L189 313H106L114.731 172.619Z" fill="#CEFFC7"/>
<path d="M124.817 203.408C125.138 198.223 127.212 193.288 130.686 189.424C139.817 179.267 155.768 179.234 164.899 189.392C168.395 193.281 170.461 198.246 170.754 203.468L176.231 300.96H118.769L124.817 203.408Z" fill="#40AF25"/>
<path d="M132.39 236.198C132.596 232.792 133.939 229.545 136.193 226.983C142.29 220.058 153.1 220.036 159.197 226.962C161.466 229.54 162.803 232.807 162.992 236.237L166.654 302.813H128.346L132.39 236.198Z" fill="white"/>
<path d="M47.8453 218.149C48.1919 212.88 50.3889 207.89 54.0337 204.07C62.8851 194.792 77.7234 194.761 86.5749 204.039C90.2434 207.884 92.4301 212.905 92.7464 218.21L98.04 307H42L47.8453 218.149Z" fill="#CEFFC7"/>
<path d="M54.6034 237.47C54.8439 233.81 56.3691 230.342 58.8997 227.687C65.0544 221.229 75.3796 221.207 81.5343 227.665C84.0815 230.338 85.5995 233.827 85.819 237.512L89.5 299.321H50.5388L54.6034 237.47Z" fill="#40AF25"/>
<path d="M59.677 258.269C59.8357 255.829 60.8451 253.516 62.5228 251.737C66.6591 247.352 73.647 247.337 77.7833 251.723C79.472 253.513 80.4767 255.84 80.6215 258.297L83.0963 300.281H56.9443L59.677 258.269Z" fill="white"/>
<path d="M92.8781 266.868C93.078 264.081 94.3096 261.461 96.3237 259.525C100.686 255.33 107.597 255.315 111.959 259.509C113.986 261.458 115.211 264.095 115.394 266.901L118 307H90L92.8781 266.868Z" fill="#40AF25"/>
<path d="M96.2685 275.543C96.4072 273.607 97.2622 271.786 98.6607 270.44C101.694 267.52 106.504 267.51 109.537 270.429C110.944 271.784 111.795 273.616 111.921 275.566L113.734 303.48H94.2671L96.2685 275.543Z" fill="white"/>
<path d="M98.8119 284.939C98.9035 283.648 99.4698 282.433 100.398 281.53C102.438 279.547 105.693 279.539 107.733 281.523C108.667 282.431 109.23 283.654 109.314 284.954L110.533 303.92H97.4661L98.8119 284.939Z" fill="#7DDD6F"/>
<circle cx="87" cy="317" r="28" fill="#CEFFC7"/>
<circle cx="87" cy="317" r="19" fill="white"/>
<circle cx="87" cy="317" r="12" fill="#40AF25"/>
<circle cx="154" cy="317" r="28" fill="#CEFFC7"/>
<circle cx="154" cy="317" r="19" fill="white"/>
<circle cx="154" cy="317" r="12" fill="#40AF25"/>
<circle cx="54" cy="325" r="28" fill="#40AF25"/>
<circle cx="54" cy="325" r="19" fill="#7DDD6F"/>
<circle cx="54" cy="325" r="12" fill="#CEFFC7"/>
<circle cx="187" cy="325" r="28" fill="#40AF25"/>
<circle cx="187" cy="325" r="19" fill="#7DDD6F"/>
<circle cx="187" cy="325" r="12" fill="#CEFFC7"/>
<circle cx="121" cy="325" r="28" fill="white"/>
<circle cx="121" cy="325" r="19" fill="#7DDD6F"/>
<circle cx="121" cy="325" r="12" fill="#CEFFC7"/>
<path fill-rule="evenodd" clip-rule="evenodd" d="M239.835 173.778L240.882 170.965L240.899 170.92C241.494 169.336 242.091 167.743 243.002 166.347C243.922 164.937 245.192 163.718 246.732 163.238C248.202 162.778 249.792 163.028 251.222 163.618C254.392 164.937 256.752 167.886 258.382 171.085C259.477 173.235 260.464 175.975 261.394 178.557L261.394 178.557C261.849 179.819 262.289 181.043 262.722 182.142C262.774 182.271 262.839 182.417 262.908 182.569C263.034 182.851 263.171 183.156 263.248 183.422C264.321 184.502 265.312 185.671 266.202 186.93C270.722 193.308 272.422 201.526 272.542 209.523C272.61 213.904 272.241 218.265 271.737 222.619C284.057 229.971 294.062 241.04 299.251 254.208C306.841 273.462 303.701 296.164 292.041 313.239C279.251 331.963 256.321 333.432 234.921 333.672C231.899 333.706 228.857 333.593 225.828 333.32L225.951 343.34C225.961 344.059 225.961 344.819 225.501 345.449C224.881 346.299 223.611 346.669 222.431 346.939C215.651 348.468 208.301 348.358 201.601 346.649C200.791 346.449 199.951 346.199 199.401 345.689C198.811 345.149 198.641 344.399 198.501 343.7C197.621 339.191 197.311 334.603 197.581 330.044C197.604 329.646 197.614 329.216 197.624 328.767V328.767C197.651 327.611 197.681 326.327 197.948 325.132C195.77 323.906 193.674 322.533 191.681 321.006C172.271 306.131 166.201 278.04 174.841 255.478C177.66 248.116 181.947 241.366 187.292 235.516C185.815 229.607 182.918 215.256 187.992 209.892C191.177 206.521 197.5 208.89 203.093 212.158C203.758 208.339 205.201 204.692 207.662 201.865C207.734 201.782 207.807 201.7 207.88 201.616C208.451 200.967 209.042 200.295 209.192 199.426C209.292 198.836 209.178 198.238 209.066 197.654C209.055 197.595 209.043 197.536 209.032 197.477C207.836 190.666 211.359 183.615 216.594 179.507C217.02 175.754 218.491 171.486 220.462 168.366C221.262 167.097 222.272 165.907 223.572 165.257C224.892 164.598 226.472 164.558 227.812 165.167C229.322 165.847 230.442 167.267 231.172 168.826C231.891 170.362 232.251 172.062 232.606 173.736L232.622 173.815L232.45 173.878C233.551 173.782 234.655 173.726 235.752 173.705C237.112 173.678 238.475 173.701 239.835 173.778ZM239.838 173.779C239.844 173.779 239.85 173.779 239.856 173.78C239.85 173.778 239.846 173.776 239.842 173.775L239.838 173.779Z" fill="#40AF25" fill-opacity="0.7"/>
</g>
<defs>
<clipPath id="clip0_370_81875">
<rect width="360" height="345" fill="white"/>
</clipPath>
</defs>
</svg>
