<svg width="360" height="345" viewBox="0 0 360 345" fill="none" xmlns="http://www.w3.org/2000/svg">
<g clip-path="url(#clip0_370_81871)">
<rect x="49" y="247" width="81" height="12" rx="6" fill="#E8EDED"/>
<rect width="29" height="12" rx="6" transform="matrix(-1 0 0 1 257 92)" fill="#D5D8E0"/>
<rect width="125" height="18" rx="9" transform="matrix(-1 0 0 1 374 165)" fill="white"/>
<rect x="29" y="259" width="81" height="12" rx="6" fill="#E8EDED"/>
<rect width="29" height="12" rx="6" transform="matrix(-1 0 0 1 267 102)" fill="#D5D8E0"/>
<rect width="81" height="18" rx="9" transform="matrix(-1 0 0 1 394 183)" fill="white"/>
<rect width="81" height="18" rx="9" transform="matrix(-1 0 0 1 406 147)" fill="white"/>
<path fill-rule="evenodd" clip-rule="evenodd" d="M139.131 272.213V272.213L139.131 272.213C139.091 271.204 138.241 270.435 135.401 270.895C128.851 271.943 120.401 269.636 117.351 268.188C114.301 266.749 116.191 264.702 118.611 263.124C121.021 261.545 112.611 260.287 112.611 260.287C101.091 261.416 95.9705 256.691 93.7205 253.485C91.9832 251.009 93.3759 250.129 95.0445 249.075C95.5369 248.764 96.0534 248.438 96.5205 248.051C98.2364 246.63 96.8136 245.733 91.3432 242.287L91.3429 242.286C90.2778 241.615 89.0592 240.847 87.6805 239.96C79.2205 234.517 86.8205 229.922 88.9605 229.772C91.1005 229.622 92.4505 225.008 88.9905 223.549C85.5305 222.081 81.9605 218.485 81.0905 214.849C80.4699 212.256 83.1516 211.472 85.7456 210.713C86.7881 210.408 87.8164 210.108 88.6105 209.695C91.3705 208.257 86.8705 204.461 86.8705 204.461C86.8705 204.461 80.2805 197.789 82.1705 193.943C83.6966 190.838 87.4723 191.302 90.9334 191.727C91.7585 191.828 92.5658 191.928 93.3205 191.976C97.2505 192.235 94.0905 186.092 94.0905 186.092C90.7105 177.652 95.4505 169.801 100.321 169.032C105.191 168.263 107.311 181.538 107.311 181.538C107.311 181.538 112.971 196.441 143.601 215.908C152.7 221.691 161.239 227.783 168.758 233.506L168.761 233.498C173.677 237.238 178.154 240.814 182.06 244.031C183.447 242.147 184.938 240.335 186.523 238.602C185.047 232.703 182.144 218.353 187.221 212.992C192.419 207.494 205.977 217.273 211.075 221.303C214.143 220.008 217.304 218.932 220.53 218.096C225.54 216.797 230.7 216.078 235.91 216.018C262.7 215.698 288.87 232.879 298.49 257.27C306.08 276.508 302.94 299.192 291.28 316.252C278.49 334.961 255.56 336.429 234.16 336.669C231.134 336.702 228.09 336.59 225.059 336.316L225.181 346.328C225.191 347.047 225.191 347.806 224.731 348.435C224.111 349.284 222.841 349.654 221.661 349.924C214.881 351.452 207.531 351.342 200.831 349.634C200.021 349.434 199.181 349.185 198.631 348.675C198.041 348.136 197.871 347.387 197.731 346.687C196.851 342.183 196.541 337.598 196.811 333.043C196.835 332.646 196.845 332.216 196.855 331.767V331.767C196.882 330.611 196.912 329.327 197.179 328.132C195.003 326.907 192.91 325.537 190.92 324.013C178.077 314.186 171.074 298.573 170.309 282.6L149.871 283.54C141.041 283.353 138.094 280.539 136.638 279.148C136.539 279.054 136.447 278.966 136.361 278.886C135.001 277.637 137.901 275.27 137.901 275.27C137.901 275.27 139.191 273.532 139.131 272.213Z" fill="#969AA9" fill-opacity="0.8"/>
</g>
<defs>
<clipPath id="clip0_370_81871">
<rect width="360" height="345" fill="white"/>
</clipPath>
</defs>
</svg>
