<svg width="360" height="345" viewBox="0 0 360 345" fill="none" xmlns="http://www.w3.org/2000/svg">
<g clip-path="url(#clip0_370_81874)">
<path d="M334 150C334 140.059 342.059 132 352 132H353C362.941 132 371 140.059 371 150C371 153.314 368.314 156 365 156H340C336.686 156 334 153.314 334 150Z" fill="#CEFFC7"/>
<path d="M234 115.5C234 103.074 244.074 93 256.5 93H258.5C270.926 93 281 103.074 281 115.5C281 119.642 277.642 123 273.5 123H241.5C237.358 123 234 119.642 234 115.5Z" fill="#CEFFC7"/>
<path d="M294 114.5C294 108.701 298.701 104 304.5 104C310.299 104 315 108.701 315 114.5C315 116.433 313.433 118 311.5 118H297.5C295.567 118 294 116.433 294 114.5Z" fill="#CEFFC7"/>
<path d="M251 128C251 113.088 263.088 101 278 101H281C295.912 101 308 113.088 308 128C308 132.971 303.971 137 299 137H260C255.029 137 251 132.971 251 128Z" fill="#CEFFC7"/>
<path d="M304 122C304 113.716 310.716 107 319 107H322C330.284 107 337 113.716 337 122C337 124.761 334.761 127 332 127H309C306.239 127 304 124.761 304 122Z" fill="#CEFFC7"/>
<path d="M114.731 172.619C115.198 165.111 118.208 157.968 123.246 152.383C136.432 137.763 159.412 137.716 172.598 152.336C177.669 157.959 180.666 165.145 181.093 172.705L189 313H106L114.731 172.619Z" fill="#CEFFC7"/>
<path d="M124.816 203.408C125.138 198.223 127.212 193.288 130.686 189.424C139.817 179.267 155.767 179.234 164.899 189.392C168.395 193.281 170.46 198.246 170.754 203.468L176.231 300.96H118.769L124.816 203.408Z" fill="#40AF25"/>
<path d="M132.39 236.198C132.596 232.792 133.939 229.545 136.193 226.983C142.29 220.058 153.1 220.036 159.197 226.962C161.466 229.54 162.803 232.807 162.992 236.237L166.654 302.813H128.346L132.39 236.198Z" fill="white"/>
<path d="M47.8453 218.149C48.1919 212.88 50.3889 207.89 54.0337 204.07C62.8851 194.792 77.7234 194.761 86.5749 204.039C90.2434 207.884 92.4301 212.905 92.7464 218.21L98.04 307H42L47.8453 218.149Z" fill="#CEFFC7"/>
<path d="M54.6031 237.47C54.8437 233.81 56.3688 230.342 58.8995 227.687C65.0542 221.229 75.3794 221.207 81.5341 227.665C84.0813 230.338 85.5992 233.827 85.8187 237.512L89.4997 299.321H50.5386L54.6031 237.47Z" fill="#40AF25"/>
<path d="M59.677 258.269C59.8357 255.829 60.8451 253.516 62.5228 251.737C66.6591 247.352 73.647 247.337 77.7833 251.723C79.472 253.513 80.4767 255.84 80.6215 258.297L83.0963 300.281H56.9443L59.677 258.269Z" fill="white"/>
<path d="M92.8781 266.868C93.078 264.081 94.3096 261.461 96.3237 259.525C100.686 255.33 107.597 255.315 111.959 259.509C113.986 261.458 115.211 264.095 115.394 266.901L118 307H90L92.8781 266.868Z" fill="#40AF25"/>
<path d="M96.2685 275.543C96.4072 273.607 97.2622 271.786 98.6607 270.44C101.694 267.52 106.504 267.51 109.537 270.429C110.944 271.784 111.795 273.616 111.921 275.566L113.734 303.48H94.2671L96.2685 275.543Z" fill="white"/>
<path d="M98.8117 284.939C98.9032 283.648 99.4695 282.433 100.397 281.53C102.437 279.547 105.693 279.539 107.733 281.523C108.667 282.431 109.23 283.654 109.314 284.954L110.532 303.92H97.4658L98.8117 284.939Z" fill="#7DDD6F"/>
<rect x="287" y="12" width="36" height="36" rx="18" fill="#40AF25"/>
<circle cx="87" cy="317" r="28" fill="#CEFFC7"/>
<circle cx="87" cy="317" r="19" fill="white"/>
<circle cx="87" cy="317" r="12" fill="#40AF25"/>
<circle cx="154" cy="317" r="28" fill="#CEFFC7"/>
<circle cx="154" cy="317" r="19" fill="white"/>
<circle cx="154" cy="317" r="12" fill="#40AF25"/>
<circle cx="54" cy="325" r="28" fill="#40AF25"/>
<circle cx="54" cy="325" r="19" fill="#7DDD6F"/>
<circle cx="54" cy="325" r="12" fill="#CEFFC7"/>
<circle cx="187" cy="325" r="28" fill="#40AF25"/>
<circle cx="187" cy="325" r="19" fill="#7DDD6F"/>
<circle cx="187" cy="325" r="12" fill="#CEFFC7"/>
<circle cx="121" cy="325" r="28" fill="white"/>
<circle cx="121" cy="325" r="19" fill="#7DDD6F"/>
<circle cx="121" cy="325" r="12" fill="#CEFFC7"/>
<path d="M374.498 206.533C374.498 189.533 340.498 167.033 313.998 160.033C303.165 157.689 281 142 276.499 136C273.484 131.98 265.499 115.999 265.499 115.499L267.499 115.5L279.999 130.5L285.999 118.5L287.999 120L282.889 134.866C288.796 140.794 301.414 144.291 314.427 146.611L317.998 114H319.998V124.5L326.998 120L327.498 121L319.998 129V147.534C328.459 148.842 336.707 149.727 342.998 150.533C358.598 152.533 370.498 157.7 374.498 160.033V206.533Z" fill="#40AF25"/>
<path d="M279.999 130.5C285.209 144.786 323.498 148.033 342.998 150.533C358.598 152.533 370.498 157.7 374.498 160.033V206.533C374.498 189.533 340.498 167.033 313.998 160.033C303.165 157.689 281 142 276.499 136C273.484 131.98 265.499 115.999 265.499 115.499L267.499 115.5L279.999 130.5ZM279.999 130.5L285.999 118.5L287.999 120L282.499 136M319.998 124.5V114H317.998L313.998 150.533L319.998 153.034V129M319.998 124.5L326.998 120L327.498 121L319.998 129M319.998 124.5V129" stroke="#40AF25" stroke-width="2" stroke-linecap="round" stroke-linejoin="round"/>
<path fill-rule="evenodd" clip-rule="evenodd" d="M239.835 173.778L240.882 170.965L240.899 170.92C241.494 169.336 242.091 167.743 243.002 166.347C243.922 164.937 245.192 163.718 246.732 163.238C248.202 162.778 249.792 163.028 251.222 163.618C254.392 164.937 256.752 167.886 258.382 171.085C259.477 173.235 260.464 175.975 261.394 178.557L261.394 178.557C261.849 179.819 262.289 181.043 262.722 182.142C262.774 182.271 262.839 182.417 262.908 182.569C263.034 182.851 263.171 183.156 263.248 183.422C264.321 184.502 265.312 185.671 266.202 186.93C270.722 193.308 272.422 201.526 272.542 209.523C272.61 213.904 272.241 218.265 271.737 222.619C284.057 229.971 294.062 241.04 299.251 254.208C306.841 273.462 303.701 296.164 292.041 313.239C279.251 331.963 256.321 333.432 234.921 333.672C231.899 333.706 228.857 333.593 225.828 333.32L225.951 343.34C225.961 344.059 225.961 344.819 225.501 345.449C224.881 346.299 223.611 346.669 222.431 346.939C215.651 348.468 208.301 348.358 201.601 346.649C200.791 346.449 199.951 346.199 199.401 345.689C198.811 345.149 198.641 344.399 198.501 343.7C197.621 339.191 197.311 334.603 197.581 330.044C197.604 329.646 197.614 329.216 197.624 328.767V328.767C197.651 327.611 197.681 326.327 197.948 325.132C195.77 323.906 193.674 322.533 191.681 321.006C172.271 306.131 166.201 278.04 174.841 255.478C177.66 248.116 181.947 241.366 187.292 235.516C185.815 229.607 182.918 215.256 187.992 209.892C191.177 206.521 197.5 208.89 203.093 212.158C203.758 208.339 205.201 204.692 207.662 201.865C207.734 201.782 207.807 201.7 207.88 201.616C208.451 200.967 209.042 200.295 209.192 199.426C209.292 198.836 209.178 198.238 209.066 197.654C209.055 197.595 209.043 197.536 209.032 197.477C207.836 190.666 211.359 183.615 216.594 179.507C217.02 175.754 218.491 171.486 220.462 168.366C221.262 167.097 222.272 165.907 223.572 165.257C224.892 164.598 226.472 164.558 227.812 165.167C229.322 165.847 230.442 167.267 231.172 168.826C231.891 170.362 232.251 172.062 232.606 173.736L232.622 173.815L232.45 173.878C233.551 173.782 234.655 173.726 235.752 173.705C237.112 173.678 238.475 173.701 239.835 173.778ZM239.838 173.779C239.844 173.779 239.85 173.779 239.856 173.78C239.85 173.778 239.846 173.776 239.842 173.775L239.838 173.779Z" fill="#40AF25" fill-opacity="0.7"/>
</g>
<defs>
<clipPath id="clip0_370_81874">
<rect width="360" height="345" fill="white"/>
</clipPath>
</defs>
</svg>
