<svg width="100%" height="100%" viewBox="0 0 326 108" fill="none" xmlns="http://www.w3.org/2000/svg">
<path d="M321.155 22.86C319.365 18.55 317.025 14.93 314.045 11.93C308.295 6.15 300.185 2.7 289.095 1.1C283.755 0.44 168.425 0.05 163.005 0C157.585 0.05 42.255 0.44 36.915 1.1C25.825 2.69 17.705 6.14 11.965 11.93C8.98501 14.93 6.64501 18.55 4.85501 22.86C1.30501 31.14 -0.0849915 42.14 0.00500852 53.51C-0.0949915 64.88 1.29501 75.88 4.84501 84.16C6.63501 88.47 8.97501 92.09 11.955 95.09C17.705 100.87 25.815 104.32 36.905 105.92C42.245 106.58 157.575 106.97 162.995 107.02C168.415 106.97 283.745 106.58 289.085 105.92C300.175 104.33 308.295 100.87 314.035 95.09C317.015 92.09 319.355 88.47 321.145 84.16C324.695 75.88 326.085 64.89 325.985 53.51C326.085 42.14 324.695 31.14 321.145 22.86H321.155Z" fill="white"/>
</svg>
