<svg width="100%" height="100%" viewBox="0 0 59 58" fill="none" xmlns="http://www.w3.org/2000/svg">
<path d="M55.3909 12.7786L55.3909 12.7786L55.3952 12.7885C57.2828 17.0929 58.05 22.8924 57.9975 28.9914L57.9974 29L57.9975 29.0086C58.05 35.1095 57.2828 40.907 55.3952 45.2115L55.3952 45.2115L55.3909 45.2214C54.4408 47.4531 53.2128 49.3021 51.6649 50.8237C48.6852 53.7531 44.4191 55.5654 38.3932 56.4129C35.4715 56.7673 32.461 56.9749 29.5 57C26.5391 56.9749 23.5286 56.7673 20.6069 56.4129C14.5791 55.5654 10.3149 53.7531 7.33507 50.8237L6.63402 51.5369L7.33507 50.8237C5.78724 49.3021 4.55918 47.4531 3.60905 45.2214L3.60911 45.2214L3.60478 45.2115C1.71719 40.9071 0.949973 35.1076 1.00252 29.0086L1.00259 29L1.00252 28.9914C0.949973 22.8905 1.71719 17.093 3.60478 12.7885L3.60484 12.7885L3.60905 12.7786C4.55918 10.5469 5.78724 8.69787 7.33507 7.17625C10.3148 4.24692 14.581 2.43456 20.607 1.58705C23.5286 1.23265 26.5391 1.02513 29.5 1.00004C32.4609 1.02513 35.4714 1.23265 38.3931 1.58705C44.4209 2.43455 48.6851 4.24688 51.6649 7.17625C53.2128 8.69787 54.4408 10.5469 55.3909 12.7786Z" fill="current" stroke="current" stroke-width="2"/>
</svg>
