<svg width="70" height="70" viewBox="0 0 70 70" fill="none" xmlns="http://www.w3.org/2000/svg">
<g clip-path="url(#clip0_45_28016)">
<path d="M8.50019 46.5504L51.4452 9.37831C52.077 8.83265 53.0448 8.92266 53.5628 9.58082L61.6918 19.9426C62.1643 20.5446 62.0846 21.4052 61.504 21.9115L18.9689 59.0217C18.3484 59.5617 17.3977 59.4886 16.874 58.8529L8.32941 48.553C7.82846 47.9511 7.90247 47.0623 8.4945 46.5504H8.50019Z" fill="#8D8DFF"/>
<path fill-rule="evenodd" clip-rule="evenodd" d="M17.7078 45.5527L14.4288 41.39L14.878 41.0444L18.157 45.2072L17.7078 45.5527Z" fill="#E7DBFF"/>
<path fill-rule="evenodd" clip-rule="evenodd" d="M11.2233 47.8304L9.43579 45.5522L9.88568 45.2075L11.6732 47.4858L11.2233 47.8304Z" fill="#E7DBFF"/>
<path fill-rule="evenodd" clip-rule="evenodd" d="M13.7229 45.7945L11.9297 43.5163L12.379 43.1709L14.1722 45.4492L13.7229 45.7945Z" fill="#E7DBFF"/>
<path fill-rule="evenodd" clip-rule="evenodd" d="M18.3735 41.6942L16.5803 39.4216L17.0292 39.0757L18.8224 41.3483L18.3735 41.6942Z" fill="#E7DBFF"/>
<path fill-rule="evenodd" clip-rule="evenodd" d="M20.8669 39.6569L19.0795 37.3843L19.5289 37.0391L21.3164 39.3117L20.8669 39.6569Z" fill="#E7DBFF"/>
<path fill-rule="evenodd" clip-rule="evenodd" d="M41.7644 21.549L39.9769 19.2764L40.4264 18.9312L42.2139 21.2038L41.7644 21.549Z" fill="#E7DBFF"/>
<path fill-rule="evenodd" clip-rule="evenodd" d="M44.2635 19.5133L42.4761 17.2407L42.9255 16.8955L44.713 19.1681L44.2635 19.5133Z" fill="#E7DBFF"/>
<path fill-rule="evenodd" clip-rule="evenodd" d="M49.7283 14.8099L47.9408 12.5317L48.3907 12.187L50.1782 14.4653L49.7283 14.8099Z" fill="#E7DBFF"/>
<path fill-rule="evenodd" clip-rule="evenodd" d="M52.2273 12.7682L50.4398 10.4956L50.8893 10.1504L52.6768 12.423L52.2273 12.7682Z" fill="#E7DBFF"/>
<path fill-rule="evenodd" clip-rule="evenodd" d="M25.2443 39.1289L21.9653 34.9661L22.4145 34.6206L25.6935 38.7833L25.2443 39.1289Z" fill="#E7DBFF"/>
<path fill-rule="evenodd" clip-rule="evenodd" d="M40.7736 25.7178L37.5004 21.5495L37.9501 21.2046L41.2233 25.3729L40.7736 25.7178Z" fill="#E7DBFF"/>
<path fill-rule="evenodd" clip-rule="evenodd" d="M48.5159 18.7822L45.2369 14.6195L45.6862 14.2739L48.9651 18.4367L48.5159 18.7822Z" fill="#E7DBFF"/>
<path d="M15.7466 23.4579C15.7466 23.4579 9.39934 18.6652 10.5208 13.7486C10.5208 13.7486 11.517 8.95587 17.8642 7.2289C17.8642 7.2289 20.8529 6.24447 23.2153 8.33708L28.1906 13.8724C28.1906 13.8724 20.4771 18.4233 15.7466 23.4636V23.4579Z" fill="#FF8B85"/>
<path d="M31.9027 18.1699L56.5005 46.2852C56.5005 46.2852 54.2405 47.2696 52.6124 48.3385L28.1912 19.9475C28.1912 19.9475 30.36 17.9224 31.9084 18.1699H31.9027Z" fill="#FFEDA1"/>
<path d="M22.0885 24.6953L46.2877 53.8007L43.7545 57.0015L19.2877 28.1493C19.2877 28.1493 19.7716 25.6179 22.0885 24.6953Z" fill="#FFDC48"/>
<path d="M28.191 19.948L52.6179 48.339L46.2877 53.8011C46.2877 53.8011 29.8931 35.4457 22.0885 24.6958C22.0885 24.6958 25.9082 20.3137 28.1853 19.9424L28.191 19.948Z" fill="#FCE170"/>
<path d="M15.7466 23.4579C15.7466 23.4579 16.4354 25.8317 19.2874 28.1437C19.2874 28.1437 21.2627 24.9767 23.6138 23.4579C23.6138 23.4579 29.3348 18.457 31.9079 18.1644C31.9079 18.1644 32.0559 17.0788 31.3215 16.4993L28.1963 13.8667C28.1963 13.8667 20.5796 18.0913 15.7523 23.4579H15.7466Z" fill="#FFF6E2"/>
<path d="M46.2877 53.801L55.0145 59.2576C55.0145 59.2576 55.5382 58.0763 56.8076 57.8569L52.6179 48.3389L46.2877 53.801Z" fill="#FFF6E2"/>
<path d="M52.6123 48.3389C52.6123 48.3389 55.3049 46.4994 56.5003 46.2856L57.5649 57.8963C57.5649 57.8963 57.6161 57.8513 56.8077 57.8513L52.618 48.3333L52.6123 48.3389Z" fill="#FCF7EE"/>
<path d="M46.288 53.8013L43.7548 57.0021L54.639 60.0116L55.0147 59.2578L46.288 53.8013Z" fill="#FFEDD2"/>
<path d="M54.639 60.0111C54.639 60.0111 54.9806 57.4122 57.565 57.896L59.8535 60.478C59.8535 60.478 60.1495 62.6269 57.7017 62.9925L54.639 60.0055V60.0111Z" fill="#706E7D"/>
</g>
<defs>
<clipPath id="clip0_45_28016">
<rect width="54" height="56" fill="white" transform="translate(8 7)"/>
</clipPath>
</defs>
</svg>
