<svg width="70" height="70" viewBox="0 0 70 70" fill="none" xmlns="http://www.w3.org/2000/svg">
<g clip-path="url(#clip0_45_28017)">
<path d="M19.1863 40.6657C19.1863 40.6657 30.4123 45.2127 44.5965 42.1101L45.7 17.2084L35.3291 14.3369L21.064 16.0644L18.7125 24.3669L18.3081 36.6734L19.1805 40.6657H19.1863Z" fill="#FFE05C"/>
<path d="M41.1524 52.3538L40.1067 58.5417L41.4124 64.2269C41.4124 64.2269 42.5738 64.6198 44.4168 62.4647L48.1839 60.0785L47.8719 41.7749L42.412 43.7509C42.412 43.7509 40.3667 49.3321 41.1467 52.348L41.1524 52.3538Z" fill="#7373F9"/>
<path d="M28.4648 13.7013C28.8288 11.4654 30.1461 8.84811 31.9314 7.4268C34.1212 5.68773 37.3856 5.56062 39.8237 6.92415C42.2619 8.28768 43.8334 10.9916 44.053 13.7822L40.777 13.2449C40.4015 12.2512 39.9508 11.2632 39.2748 10.4485C38.5989 9.63387 37.6571 8.98677 36.5998 8.84811C35.398 8.68633 34.1616 9.2121 33.3065 10.0788C32.4514 10.9454 31.943 12.1067 31.7061 13.2969C30.7932 13.4298 29.3315 13.9209 28.4648 13.7071V13.7013Z" fill="#AED5FF"/>
<path d="M51.3672 42.6647V56.3924C51.3672 56.3924 54.5276 56.7622 55.5213 54.9942C55.5213 54.9942 56.9311 52.348 57.0524 49.1819C57.1737 46.0215 57.2142 42.2256 57.2142 42.2256L51.3672 42.6589V42.6647Z" fill="#FFE05C"/>
<path d="M51.8584 42.9824C51.8584 42.9824 53.3721 43.9704 54.8455 43.5602C56.469 43.1038 57.2143 42.2313 57.2143 42.2313C57.2143 42.2313 57.3587 42.3122 56.8099 41.6478C56.261 40.9834 54.6721 40.29 54.6721 40.29C54.6721 40.29 52.0202 40.9429 51.8584 42.9824Z" fill="#FFE783"/>
<path d="M13.7838 51.1807C13.7838 51.1807 13.3447 58.0445 14.4367 59.0672C15.5286 60.0898 26.356 61.9444 26.356 61.9444C26.356 61.9444 38.2753 64.7755 41.4068 64.2324C41.4068 64.2324 40.5921 55.8548 41.1468 52.3535L13.778 51.1807H13.7838Z" fill="#8D8DFF"/>
<path d="M17.5451 40.5327C17.5451 40.5327 12.9403 41.1914 12.3567 43.6238C12.3567 43.6238 10.9239 49.3494 13.7838 51.1809C13.7838 51.1809 25.316 53.8964 31.1226 54.1911C36.9349 54.4858 39.7024 55.2253 40.7366 53.2493C40.7366 53.2493 41.3548 52.4231 41.5628 50.3316C41.7708 48.2401 41.8864 45.9695 42.6259 45.1144L45.0236 43.774L46.3409 43.1904C46.3409 43.1904 46.8205 42.1562 44.5903 42.1158L19.1802 40.6714C19.1802 40.6714 18.8219 40.5847 17.5393 40.5385L17.5451 40.5327Z" fill="#ABABFF"/>
<path d="M32.8443 47.281C32.7461 47.3041 32.6537 47.333 32.5728 47.385C32.3994 47.5005 32.2954 47.697 32.2088 47.8876C31.6021 49.2512 31.3941 50.7591 31.3595 52.2498C31.3248 53.7404 31.4577 55.2311 31.4981 56.7217C31.5155 57.3803 31.5212 58.0506 31.6946 58.6861C32.0875 60.119 33.139 60.5118 34.5256 60.3674C34.8838 60.3327 35.2536 60.2461 35.5309 60.015C35.9007 59.703 36.022 59.1888 36.0972 58.7034C36.6056 55.4159 35.918 51.9667 36.9176 48.7947C37.0274 48.4539 37.1371 48.0379 36.8945 47.7721C36.7789 47.645 36.5998 47.593 36.4323 47.5468C35.3518 47.2579 34.2194 47.1539 33.1043 47.2406C33.0177 47.2463 32.9252 47.2579 32.8386 47.2752L32.8443 47.281Z" fill="#FFE05C"/>
<path d="M33.6937 55.5546C33.6937 55.5546 32.1568 55.5546 32.1799 56.9528C32.2031 58.351 32.6306 59.0096 33.4915 59.1888C34.3523 59.3679 35.4559 58.8941 35.4328 57.831C35.4097 56.7679 35.115 55.5719 33.6937 55.5488V55.5546Z" fill="#AED5FF"/>
<path d="M15.2512 45.6515C15.2512 45.6515 15.205 45.6747 15.1877 45.6862C14.997 45.8018 14.8583 45.9924 14.7428 46.1831C14.2344 47.0382 14.0899 48.0551 14.0321 49.0488C13.9455 50.5452 14.0379 52.0416 13.9975 53.5381C13.9801 54.1909 13.9397 54.8554 14.0726 55.4967C14.3499 56.8082 15.1703 57.2415 16.4414 57.1953C16.9499 57.178 17.5103 57.0624 17.8107 56.6522C18.0418 56.3287 18.0592 55.9069 18.0649 55.5082C18.0881 53.2781 17.9667 51.0479 18.1343 48.8235C18.1632 48.419 18.2094 48.0031 18.3769 47.6333C18.5907 47.1653 19.0067 46.6684 18.764 46.2178C18.6369 45.9751 18.3538 45.8595 18.0881 45.7787C17.389 45.5649 16.6552 45.4724 15.9214 45.5071C15.6846 45.5187 15.4477 45.5418 15.2397 45.6515H15.2512Z" fill="#FFE05C"/>
<path d="M15.5348 53.0939C15.5348 53.0939 14.541 53.3192 14.5873 54.4054C14.6335 55.4916 15.0379 56.3236 15.8757 56.3467C16.7134 56.3698 17.3432 55.8094 17.3432 54.9832C17.3432 54.157 16.9619 52.7588 15.5348 53.0939Z" fill="#AED5FF"/>
<path d="M52.5459 41.6132C52.9908 40.9545 54.285 40.319 55.0534 40.5328C55.3192 34.5125 55.117 28.625 54.3312 22.6509C54.1059 20.935 53.765 19.167 52.7366 17.7688C51.4886 16.0702 49.426 15.1977 47.4154 14.568C40.6728 12.4476 33.4334 12.2049 26.4424 13.2333C24.1429 13.5742 21.699 14.1346 20.1217 15.8506C18.8217 17.2661 18.3364 19.2305 17.9897 21.1198C16.7938 27.6428 16.7995 33.9462 17.5448 40.5328C17.5737 40.5328 18.0475 40.5906 18.0764 40.5906C18.6946 40.6194 18.5675 40.631 19.1857 40.6657C18.5213 34.0849 18.6022 26.8166 20.035 20.363C20.2835 19.2363 21.1212 18.2426 21.8839 17.6417C22.8719 16.8617 24.2123 16.2608 25.4198 15.9026C30.0708 14.5044 34.8027 14.8511 39.5057 16.0644C41.3604 16.5439 43.3479 17.3817 44.1394 19.1208C44.5381 19.9874 44.5785 20.9754 44.6074 21.9287C44.8327 28.781 44.8154 35.2578 44.5959 42.1043C45.6474 42.1621 45.8265 42.4914 46.1385 42.9998C46.4505 43.5083 46.4794 44.1323 46.5025 44.7274L46.6354 48.5522C46.7105 50.8112 46.7914 53.0761 46.7278 55.3351C46.6527 58.016 46.2194 61.003 44.1163 62.667C44.047 62.7248 43.9892 62.771 43.9314 62.8288C43.2728 63.3372 42.2732 64.0132 41.4181 64.2327C41.4181 64.2327 43.735 64.4985 46.1385 64.1345L46.9531 64.0247C48.4496 63.6723 49.1255 62.9559 50.2984 61.9679C52.2224 60.3386 53.5628 58.1142 54.5277 55.7858C54.0077 56.4907 52.8175 56.2942 52.2513 55.6298C51.685 54.9654 51.5753 54.0294 51.5175 53.157C51.3095 50.0601 51.4251 46.946 51.8526 43.8723C51.9624 43.0865 52.1068 42.2719 52.5517 41.6074L52.5459 41.6132Z" fill="#8D8DFF"/>
</g>
<defs>
<clipPath id="clip0_45_28017">
<rect width="45.2333" height="58.3313" fill="white" transform="translate(12 6)"/>
</clipPath>
</defs>
</svg>
