<svg width="70" height="70" viewBox="0 0 70 70" fill="none" xmlns="http://www.w3.org/2000/svg">
<g clip-path="url(#clip0_45_28018)">
<path d="M59.2705 34.9761C59.2705 34.9761 58.0341 38.2347 58.8257 38.2058C59.623 38.1769 60.9634 35.4556 60.9634 35.4556" fill="#D4D3DD"/>
<path d="M59.7617 35.4507L58.8257 38.2066L55.2089 34.6418L55.7 32.8623L59.7617 35.4507Z" fill="#67CFFD"/>
<path d="M19.8846 51.5637C19.8846 51.5637 18.9948 54.2907 22.9236 57.8786C26.8524 61.4666 31.3012 60.0337 31.3012 60.0337L32.4048 58.676L21.4099 50.5757L19.8846 51.5637Z" fill="#D4D3DD"/>
<path d="M23.5303 41.1523C23.5303 41.1523 20.1966 44.2434 19.5668 46.9011C18.9371 49.5531 19.1104 52.1646 23.7441 56.4747C28.3778 60.7791 33.0692 60.3977 35.6865 59.3404C35.6865 59.3404 38.974 57.6071 40.3491 54.6547L23.5303 41.1581V41.1523Z" fill="#94DEFF"/>
<path d="M50.4424 32.3537C50.4424 32.3537 43.9887 31.9204 41.4234 36.2883C38.8581 40.6562 41.6314 46.5552 43.0181 48.2076C44.4047 49.86 48.8882 57.1629 55.0414 53.5057C55.0414 53.5057 57.9938 51.9862 59.2244 48.508L50.4366 32.3595L50.4424 32.3537Z" fill="#94DEFF"/>
<path d="M49.1019 32.4001C49.0383 32.4117 48.969 32.4232 48.9054 32.4348C46.9295 32.8161 45.8721 34.9076 45.693 36.768C45.5486 38.3107 45.9068 39.8591 46.3806 41.3382C47.0566 43.447 47.9925 45.5039 49.4023 47.214C50.812 48.9242 52.7244 50.2762 54.8968 50.7269C56.0986 50.9811 57.4968 50.8944 58.3519 50.0104C58.8141 49.5367 59.051 48.8896 59.2301 48.254C60.6687 43.1292 58.6408 37.2187 54.3595 34.0468C52.8862 32.9548 50.9623 32.1228 49.0961 32.4059L49.1019 32.4001Z" fill="#5CD1FF"/>
<path d="M50.2747 35.3345C49.3792 36.2011 48.7956 37.4144 48.7668 38.6797C48.7321 40.2628 49.3561 41.7824 50.1361 43.1632C50.8236 44.3765 51.6556 45.5321 52.7765 46.364C53.8973 47.196 55.336 47.6582 56.7053 47.3867C58.9874 46.9302 60.4781 44.4574 60.3856 42.129C60.2874 39.8006 58.9297 37.6918 57.2484 36.074C56.4106 35.2709 55.4631 34.5429 54.348 34.2194C52.8285 33.7745 51.3378 34.3118 50.2805 35.3403L50.2747 35.3345Z" fill="#D4D3DD"/>
<path d="M31.3877 39.8641C31.3877 39.8641 31.4512 33.5145 37.7893 24.7729C37.7893 24.7729 46.6407 13.934 53.4179 14.6562L54.6485 11.4554C54.6485 11.4554 41.1346 10.5136 33.5485 20.2548C33.5485 20.2548 25.7891 32.983 28.0308 39.3037L31.3934 39.8641H31.3877Z" fill="#C5F0FF"/>
<path d="M56.5551 11.4379C58.6697 13.1308 61.2177 14.6907 63.0723 16.6609C64.6496 18.3422 64.6958 21.1617 64.534 23.2994C64.066 29.3544 61.0386 36.9058 61.0386 36.9058L54.9951 32.3184L57.1791 21.439L56.5609 11.4321L56.5551 11.4379Z" fill="#5CD1FF"/>
<path d="M28.025 39.3155H28.0712C28.2503 34.5489 29.4521 29.8055 31.7574 25.6398C34.0626 21.4741 37.4888 17.8977 41.666 15.6098C44.838 13.8707 48.6686 12.8827 52.0832 14.0787C52.9556 14.3791 53.7934 14.8298 54.4173 15.5115C55.3302 16.5053 55.7 17.8862 55.8618 19.2266C56.1969 21.9999 55.7693 24.854 54.6369 27.4078C54.0591 28.7077 53.2965 29.9673 53.1636 31.377C53.0307 32.7925 53.8107 34.4334 55.2089 34.6472C54.556 31.221 56.6995 28.0837 57.7626 24.9811C58.9008 21.6763 59.259 17.9382 58.3173 14.5409C57.2831 10.7854 54.4462 8.98279 50.6272 9.00012C46.6926 9.01746 43.4051 10.5774 40.135 12.5881C37.0035 14.512 34.236 17.1293 32.0116 20.0355C31.0698 21.2661 30.2147 22.5661 29.4694 23.9296C26.829 28.7251 25.4713 34.2138 25.5753 39.6911L28.0308 39.3155H28.025Z" fill="#94DEFF"/>
<path d="M52.0488 34.2715C52.0488 34.2715 50.0382 34.907 50.5582 38.9514C51.084 42.9899 54.9377 47.7218 58.5314 46.4854C58.5314 46.4854 63.1015 43.4753 58.3696 37.2989C58.3696 37.2989 55.2612 32.9368 52.0488 34.2715Z" fill="#D9F1FC"/>
<path d="M25.4659 39.6849C25.4659 39.6849 19.4744 41.6147 25.437 49.7785C28.2911 53.69 33.2137 56.9312 38.2576 55.7584C42.2789 54.8224 41.6895 50.1656 40.0429 47.4386C38.9567 45.6301 37.495 44.0586 35.9812 42.6026C35.9812 42.6026 31.3071 37.9747 25.4659 39.6849Z" fill="#706E7D"/>
<path d="M29.4408 45.0063C29.2559 45.2086 29.0999 45.4686 29.0248 45.8268C28.8746 46.5374 29.0363 47.2885 29.383 47.9298C29.7297 48.5712 30.2439 49.1027 30.8159 49.5534C31.7518 50.2929 32.942 50.8418 34.1149 50.6222C34.3576 50.576 34.6002 50.4951 34.8025 50.3507C34.9296 50.2582 35.0393 50.1369 35.126 50.0098C34.3345 47.3694 31.7056 45.1161 29.4408 45.0121V45.0063Z" fill="#474752"/>
<path d="M35.236 48.0458C35.0165 47.5143 34.6525 47.052 34.2712 46.6187C33.7165 45.989 33.1041 45.3939 32.3703 44.9836C31.469 44.481 30.2384 44.2614 29.5277 44.8912C29.493 44.9201 29.4699 44.9663 29.441 45.001C31.7059 45.105 34.3347 47.3583 35.1263 49.9987C35.1898 49.912 35.2476 49.8195 35.288 49.7271C35.5191 49.1956 35.4556 48.5774 35.236 48.0458Z" fill="#595864"/>
<path d="M28.8975 34.9881L39.124 32.5499C39.124 32.5499 39.9733 32.2033 40.3315 30.9726C40.2853 30.7184 40.2275 30.4469 40.1409 30.158L23.0563 13.0792C23.0563 13.0792 20.9821 10.6988 17.7698 11.733C17.7698 11.733 8.03441 14.2925 8.00552 14.2983C7.65886 14.3908 7.34687 14.4716 7.05221 14.697C6.71133 14.957 6.53222 15.3383 6.41089 15.7427L24.1945 34.0001C24.1945 34.0001 25.5985 35.901 28.8975 34.9939V34.9881Z" fill="#E8F2F7"/>
<path d="M39.1241 32.5498L28.8977 34.988C25.5928 35.8951 24.1946 33.9942 24.1946 33.9942L6.411 15.7368C6.31856 16.0315 6.255 16.3377 6.19145 16.6266C6.0759 17.1812 5.79279 18.2097 6.255 18.6719L23.7093 36.1262C23.7093 36.1262 24.7955 37.9173 27.8115 37.4493L39.6094 34.1676C39.6094 34.1676 40.713 33.2085 40.3316 30.9725C39.9734 32.1974 39.1241 32.5498 39.1241 32.5498Z" fill="#C4C3D1"/>
<path d="M9.18994 16.3721L14.0952 21.2484L25.5581 18.2382L20.7164 13.333L9.18994 16.3721Z" fill="#BCE8FF"/>
<path d="M15.7823 22.5431L17.7988 24.7386L23.0911 23.352L21.0169 21.0352L15.7823 22.5431Z" fill="#CFCFE2"/>
<path d="M23.0909 21.6995L25.1073 23.7737L30.1917 22.4795L28.1175 20.3765L23.0909 21.6995Z" fill="#86D8FF"/>
<path d="M19.7168 26.8995L24.4603 31.8509L35.9462 28.627L31.2028 23.7622L19.7168 26.8995Z" fill="#CCCCDB"/>
<path d="M33.6987 34.5546C33.4098 34.6008 33.1325 34.6933 32.8783 34.8262C32.7743 34.8782 32.6703 34.9417 32.5894 35.0342C32.5374 35.0919 32.4969 35.1728 32.5316 35.2422C32.5605 35.3057 32.6414 35.323 32.7107 35.3346C33.0111 35.375 33.3116 35.3057 33.6062 35.2306C33.8374 35.1728 34.0742 35.115 34.2765 34.9879C34.3862 34.9186 34.5018 34.7915 34.444 34.6702C34.3458 34.4448 33.8951 34.5257 33.6987 34.5546Z" fill="#686867"/>
</g>
<defs>
<clipPath id="clip0_45_28018">
<rect width="58.5913" height="51.3114" fill="white" transform="translate(6 9)"/>
</clipPath>
</defs>
</svg>
