<svg width="70" height="70" viewBox="0 0 70 70" fill="none" xmlns="http://www.w3.org/2000/svg">
<g clip-path="url(#clip0_45_28019)">
<path d="M63.3444 42.1763C63.3444 42.1763 64.2111 44.8976 63.8875 47.2895C63.564 49.6815 60.7618 53.2463 57.2605 54.9334C53.7593 56.6262 49.8362 58.608 41.6435 59.4862C41.6435 59.4862 26.6736 60.4221 19.3186 56.5107C19.3186 56.5107 11.9175 53.021 10.5424 47.2491C10.5424 47.2491 10.0339 42.7136 10.7446 41.0728L63.3444 42.1705V42.1763Z" fill="#FFBE92"/>
<path d="M63.3447 38.4385V42.1766C63.3447 42.1766 62.6456 45.5681 56.4577 49.0636C50.2698 52.5591 38.4949 53.108 38.4949 53.108C38.4949 53.108 27.7138 53.3564 21.5028 50.7102C21.5028 50.7102 11.0106 47.0183 10.7506 41.0789V39.126L63.3504 38.4385H63.3447Z" fill="#B76C4F"/>
<path d="M11.8889 39.2997C11.8889 39.2997 13.9804 43.8062 21.7225 45.5107C21.7225 45.5107 26.9224 46.776 31.1112 46.8222C31.1112 46.8222 20.0239 38.3175 11.8889 39.2997Z" fill="#CC816D"/>
<path d="M46.2487 46.36C46.2487 46.36 59.855 43.2516 62.3741 39.2246L52.1765 40.8308L46.2544 46.36H46.2487Z" fill="#CC816D"/>
<path d="M6.06469 37.2021C6.06469 37.2021 6.02458 38.924 7.44589 39.1262C8.86719 39.3226 10.6063 39.1262 10.6063 39.1262C10.6063 39.1262 12.3165 39.236 13.7089 39.8195C15.1013 40.4088 29.1352 45.811 29.1352 45.811C29.1352 45.811 32.4632 47.3767 33.7458 48.5149C35.0284 49.6531 36.1666 50.3638 36.1666 50.3638C36.1666 50.3638 38.0155 52.0162 40.575 50.8491C40.575 50.8491 41.7132 49.9362 42.9381 48.746C44.1629 47.55 46.9766 45.9265 46.9766 45.9265L54.32 41.8013L6.06469 37.2021Z" fill="#FFC761"/>
<path d="M9.70964 34.436C9.70964 34.436 6.06458 36.6241 6.06458 37.2019C6.69998 37.9946 9.80458 37.6648 12.5507 37.7863L9.70964 34.436Z" fill="#FFD78D"/>
<path d="M17.1986 39.8193L26.2406 43.7886L22.6238 39.8193H17.1986Z" fill="#FFD78D"/>
<path d="M31.1108 45.285L36.1085 48.6996C36.1085 48.6996 37.3334 50.0458 38.9222 49.8956C40.5111 49.7454 41.4009 48.3067 41.4009 48.3067C41.4009 48.3067 43.3941 46.3596 45.3354 45.5103C47.2767 44.661 52.1762 41.8589 52.1762 41.8589L43.4808 38.4385L31.1108 45.285Z" fill="#FFD78D"/>
<path d="M22.6237 39.8193C22.6237 39.8193 17.678 40.5472 14.0496 38.9988C10.4213 37.4504 8.93639 35.3474 8.93639 35.3474C8.93639 35.3474 8.55507 34.0994 8.9595 32.8745L22.6179 39.8193H22.6237Z" fill="#FF8D73"/>
<path d="M22.6233 39.8193C22.6233 39.8193 22.3865 40.5704 22.6233 40.9749C22.8602 41.3793 26.0322 45.1637 33.0174 45.4641C40.0026 45.7703 44.8558 44.5339 47.2304 42.3904C47.2304 42.3904 47.9468 41.8704 47.9411 40.5589L22.6233 39.8193Z" fill="#FF8D73"/>
<path d="M47.9474 40.5644C47.9474 40.5644 48.1785 41.7199 48.7505 41.9222C49.3225 42.1244 55.6375 41.6159 55.6375 41.6159C55.6375 41.6159 62.6978 40.3333 63.9457 37.6005C63.9457 37.6005 64.7777 34.9427 63.888 31.4126L47.9474 40.5644Z" fill="#FF8D73"/>
<path d="M10.1438 29.9629C10.1438 29.9629 7.94825 31.9273 9.4851 34.169C11.022 36.4108 16.5454 37.445 16.5454 37.445L10.1438 29.9629Z" fill="#FF9D8D"/>
<path d="M22.6234 39.8193C22.6234 39.8193 26.0322 42.1882 29.6086 42.5637C33.185 42.9335 42.6546 43.4477 45.3296 40.9286L22.6234 39.8193Z" fill="#FF9D8D"/>
<path d="M47.9474 40.5644C47.9474 40.5644 57.1916 39.2587 60.3 37.6005C63.4084 35.9423 63.8417 32.8801 63.8937 31.4126L47.9532 40.5644H47.9474Z" fill="#FF9D8D"/>
<path d="M10.7449 25.439C10.7449 25.439 10.0747 27.6923 10.1441 29.9629C10.2134 32.2393 13.8649 39.6116 30.1926 41.1254C30.1926 41.1254 49.4842 42.7778 56.8565 37.4045C56.8565 37.4045 61.9524 34.9953 63.8821 31.4073C63.8821 31.4073 64.2519 25.0461 63.1021 23.3359L10.7449 25.439Z" fill="#FFBE92"/>
<path d="M26.3616 11.1333C26.3616 11.1333 11.2704 15.3337 10.7446 25.4388C10.7446 25.4388 15.0779 34.6715 34.8895 34.3884C54.7011 34.1053 63.1076 23.3415 63.1076 23.3415C63.1076 23.3415 61.6632 15.5994 48.1492 11.7919C48.1492 11.7919 41.1929 8.25024 26.3616 11.1333Z" fill="#FFC299"/>
<path d="M38.0263 26.5017C37.6507 26.1666 37.385 25.7738 37.2578 25.3578C37.1423 24.9764 37.5063 24.0867 38.2689 24.572C38.6387 24.8089 38.7196 25.2018 38.6098 25.5426C38.5 25.8835 38.24 26.1897 38.0205 26.5017H38.0263Z" fill="#FFF5F0"/>
<path d="M23.5472 24.0696C23.5646 23.5727 23.6975 23.1163 23.9286 22.7523C24.1423 22.4172 25.0552 22.1168 25.1708 23.0065C25.2285 23.4398 24.9801 23.7518 24.6508 23.8905C24.3214 24.0292 23.9228 24.0349 23.5472 24.0696Z" fill="#FFF5F0"/>
<path d="M32.6876 16.7951C32.7974 16.3791 32.9938 16.0209 33.2596 15.7551C33.5023 15.5125 34.3343 15.4316 34.2649 16.2058C34.2303 16.5813 33.9587 16.8009 33.6583 16.8529C33.3578 16.9049 33.0169 16.8355 32.6934 16.7951H32.6876Z" fill="#FFF5F0"/>
<path d="M51.5282 23.6707C51.0429 23.5378 50.6327 23.3009 50.3322 22.9889C50.0607 22.7 49.9913 21.741 50.8926 21.8334C51.3317 21.8796 51.5744 22.1974 51.6264 22.5498C51.6784 22.9023 51.5802 23.2894 51.5224 23.6707H51.5282Z" fill="#FFF5F0"/>
<path d="M56.6014 17.2577C56.2201 17.4541 55.8041 17.5581 55.3766 17.5697C54.9895 17.5812 54.1575 17.1595 54.741 16.7261C55.0241 16.5182 55.417 16.5355 55.7348 16.6741C56.0526 16.8128 56.3183 17.0497 56.5957 17.2577H56.6014Z" fill="#FFF5F0"/>
<path d="M17.3708 18.2801C17.6135 17.9334 17.9371 17.6388 18.3068 17.4308C18.6477 17.2401 19.5721 17.2228 19.2659 17.8757C19.1157 18.1934 18.7575 18.361 18.4108 18.3899C18.0642 18.4188 17.7175 18.3321 17.3766 18.2743L17.3708 18.2801Z" fill="#FFF5F0"/>
<path d="M25.2632 18.4536C25.4365 18.0665 25.7023 17.7199 26.0258 17.4483C26.3263 17.1999 27.2334 17.0092 27.0485 17.7141C26.9618 18.055 26.6383 18.2861 26.3032 18.3727C25.9681 18.4594 25.6098 18.4421 25.2632 18.4536Z" fill="#FFF5F0"/>
<path d="M23.882 14.6229C24.2055 14.4149 24.5868 14.2589 24.9913 14.1722C25.3668 14.0856 26.2681 14.1953 25.8117 14.5998C25.5864 14.7962 25.1993 14.8598 24.8584 14.8367C24.5175 14.8136 24.1997 14.7096 23.882 14.6229Z" fill="#FFF5F0"/>
<path d="M30.6827 14.2762C31.0063 14.0682 31.3876 13.9122 31.792 13.8256C32.1676 13.7389 33.0689 13.8487 32.6125 14.2531C32.3871 14.4495 32 14.5131 31.6592 14.49C31.3183 14.4669 31.0005 14.3629 30.6827 14.2762Z" fill="#FFF5F0"/>
<path d="M34.0162 12.387C34.4033 12.3003 34.8193 12.2888 35.2353 12.3523C35.6166 12.4101 36.3966 12.8954 35.7958 13.1381C35.5069 13.2594 35.1198 13.1728 34.8193 13.0052C34.5189 12.8377 34.2762 12.6066 34.0162 12.387Z" fill="#FFF5F0"/>
<path d="M50.1763 14.9409C49.818 15.172 49.4136 15.3222 48.9918 15.3742C48.6047 15.4204 47.7381 15.0853 48.2754 14.6C48.5354 14.3631 48.9283 14.3458 49.2634 14.4498C49.5927 14.5538 49.8816 14.7618 50.182 14.9467L50.1763 14.9409Z" fill="#FFF5F0"/>
<path d="M43.2661 14.894C42.9079 15.1194 42.5035 15.2696 42.0817 15.3216C41.6946 15.3678 40.8279 15.0385 41.3595 14.5531C41.6195 14.3163 42.0124 14.2989 42.3475 14.4029C42.6826 14.5069 42.9657 14.7149 43.2661 14.894Z" fill="#FFF5F0"/>
<path d="M41.4865 21.5211C41.0069 21.4113 40.6083 21.2091 40.3252 20.926C40.0652 20.666 40.0305 19.7647 40.926 19.8225C41.3594 19.8514 41.5905 20.1403 41.6309 20.4696C41.6714 20.7989 41.5616 21.1687 41.4865 21.5211Z" fill="#FFF5F0"/>
<path d="M41.4582 12.734C41.2155 13.0055 40.9035 13.2309 40.5569 13.4042C40.2391 13.5602 39.3956 13.6064 39.7191 13.1038C39.8751 12.8611 40.2102 12.7224 40.528 12.6878C40.8458 12.6531 41.152 12.7051 41.4582 12.734Z" fill="#FFF5F0"/>
<path d="M39.072 17.4828C38.5751 17.3846 38.1649 17.1881 37.876 16.9108C37.6103 16.6566 37.5987 15.7495 38.5289 15.7842C38.9796 15.8015 39.2164 16.0904 39.2511 16.4197C39.2858 16.749 39.1587 17.1246 39.0778 17.4828H39.072Z" fill="#FFF5F0"/>
<path d="M31.8381 21.3655C31.6994 20.9438 31.6705 20.5162 31.7572 20.1291C31.8323 19.7767 32.4967 19.1989 32.8607 19.9038C33.0398 20.2447 32.9243 20.5971 32.6989 20.8282C32.4736 21.0593 32.1443 21.2038 31.8381 21.3655Z" fill="#FFF5F0"/>
<path d="M48.0501 19.2108C47.5648 19.153 47.1431 18.997 46.8311 18.7486C46.5422 18.5174 46.4151 17.6277 47.3106 17.5872C47.7439 17.5699 48.0039 17.8299 48.079 18.1477C48.1541 18.4654 48.079 18.8468 48.0501 19.2108Z" fill="#FFF5F0"/>
</g>
<defs>
<clipPath id="clip0_45_28019">
<rect width="58.2966" height="49.5897" fill="white" transform="translate(6 10)"/>
</clipPath>
</defs>
</svg>
