<svg width="70" height="70" viewBox="0 0 70 70" fill="none" xmlns="http://www.w3.org/2000/svg">
<g clip-path="url(#clip0_45_28020)">
<path d="M30.4104 13.8151C30.4104 13.8151 30.2082 12.3765 31.3175 12.2783C32.4268 12.18 41.804 12.6654 41.804 12.6654C41.804 12.6654 44.3924 13.0929 44.427 13.6302L40.8391 18.3217L31.0749 17.8364L30.4104 13.8151Z" fill="#757482"/>
<path d="M30.7168 12.5497C30.7168 12.5497 30.8902 15.1901 33.1261 15.531C35.3621 15.8719 38.1353 15.7332 38.1353 15.7332C38.1353 15.7332 39.7935 15.6639 40.3713 14.9532C40.9491 14.2426 41.4633 13.555 42.6592 12.8328C42.6592 12.8328 44.1326 12.9426 44.433 13.6244L40.8451 18.3158L31.0808 17.8305C31.0808 17.8305 29.596 13.6937 30.7226 12.5439L30.7168 12.5497Z" fill="#59586B"/>
<path d="M22.9919 12.0008C22.9919 12.0008 16.6076 11.631 11.8179 23.5445L7.88913 35.9434C7.88913 35.9434 4.20298 49.2031 11.8179 52.8893C11.8179 52.8893 17.5898 54.975 22.9919 50.4338L26.187 47.3658C26.187 47.3658 28.6425 43.9281 31.8375 43.9281H38.1005C38.1005 43.9281 40.9258 43.9281 43.3813 47.1232C45.8368 50.3182 47.1888 52.2826 47.1888 52.2826C47.1888 52.2826 50.7478 57.8061 56.277 57.0723C61.8063 56.3385 63.2738 49.0934 63.5222 45.1645C63.7707 41.2357 63.7822 29.692 61.1938 22.4526C61.1938 22.4526 57.7503 14.2252 51.4874 13.8554L46.1546 13.3816C46.1546 13.3816 43.4795 13.3816 41.8907 15.0687L40.5156 16.5305C40.3538 16.698 40.1689 16.8367 39.9551 16.9291C39.308 17.218 37.7712 17.7438 35.5988 17.4491C35.5988 17.4491 34.0677 17.4433 32.762 17.0562C31.826 16.7789 31.1038 16.022 30.8149 15.0918L30.422 13.8265C30.422 13.8265 30.0407 12.3937 28.498 12.0008H22.9919Z" fill="#DFE7EA"/>
<path d="M23.3152 18.697C22.7663 18.801 22.1943 19.0089 21.8823 19.4712C21.6339 19.8409 21.5877 20.3089 21.5877 20.7538C21.5877 21.1987 21.6108 21.6551 21.4779 22.0769C21.0908 23.3075 19.7215 22.984 18.7451 23.0186C18.1384 23.0418 17.5029 23.1862 17.0811 23.6195C16.642 24.076 16.538 24.7519 16.5033 25.3875C16.4629 26.0692 16.486 26.751 16.5611 27.427C16.6189 27.9701 16.7633 28.571 17.2313 28.8483C17.8611 29.2181 18.7162 28.7847 19.3748 29.1025C20.0046 29.403 20.149 30.2349 20.1086 30.9283C20.0682 31.6216 19.9353 32.3727 20.2761 32.9793C20.669 33.6727 21.553 33.9211 22.3561 33.9615C22.9743 33.9962 23.5983 33.9442 24.205 33.8113C24.5921 33.7304 24.9907 33.5975 25.2565 33.3029C25.9729 32.494 25.216 31.0843 25.8169 30.1887C26.2502 29.5416 27.1631 29.4838 27.9373 29.5416C28.7115 29.5994 29.5782 29.6918 30.1791 29.2007C30.8319 28.6634 30.8608 27.6985 30.8377 26.855L30.7973 25.4279C30.7857 24.9715 30.7568 24.4688 30.4391 24.1395C29.6937 23.348 28.1395 24.2146 27.348 23.4635C26.9667 23.1053 26.9378 22.5218 26.9378 21.996L26.9262 20.2396C26.9262 19.812 26.9031 19.3383 26.5969 19.0378C26.3947 18.8356 26.1 18.7547 25.8169 18.7027C25.0081 18.5467 24.1703 18.541 23.3614 18.6912L23.3094 18.7027L23.3152 18.697Z" fill="#757482"/>
<path d="M40.8799 24.7696C40.8048 24.7985 40.7239 24.8331 40.6488 24.8736C39.6723 25.3705 39.0657 26.5144 39.1928 27.6006C39.4528 29.877 42.694 31.073 44.1096 29.0682C44.5545 28.4326 44.6816 27.6064 44.5198 26.8438C44.3985 26.2718 44.1211 25.7229 43.6994 25.3127C42.9714 24.6078 41.8158 24.3998 40.8741 24.7696H40.8799Z" fill="#FFE36E"/>
<path d="M45.5825 20.7076C45.5074 20.7365 45.4265 20.7711 45.3514 20.8116C44.375 21.3085 43.7683 22.4524 43.8954 23.5386C44.1554 25.815 47.3967 27.011 48.8122 25.0062C49.2571 24.3706 49.3842 23.5444 49.2224 22.7818C49.1011 22.2098 48.8238 21.6609 48.402 21.2507C47.674 20.5458 46.5185 20.3378 45.5767 20.7076H45.5825Z" fill="#FF9D8A"/>
<path d="M49.8117 25.5089C49.7539 25.532 49.6961 25.5551 49.6383 25.584C48.6504 26.0636 48.0206 27.1844 48.1246 28.2764C48.3557 30.7955 52.1343 31.8875 53.284 29.4031C53.5325 28.86 53.5845 28.236 53.4747 27.6524C53.3649 27.0689 53.0992 26.5084 52.6774 26.0925C51.9494 25.3587 50.7708 25.1334 49.8117 25.5031V25.5089Z" fill="#86D8FF"/>
<path d="M45.0221 29.6168C44.947 29.6456 44.8661 29.6803 44.791 29.7208C43.8145 30.2176 43.2079 31.3616 43.335 32.4478C43.595 34.7242 46.8363 35.9202 48.2518 33.9153C48.6967 33.2798 48.8238 32.4536 48.662 31.6909C48.5407 31.1189 48.2633 30.5701 47.8416 30.1599C47.1136 29.455 45.9581 29.247 45.0163 29.6168H45.0221Z" fill="#9EF57A"/>
</g>
<defs>
<clipPath id="clip0_45_28020">
<rect width="56.6153" height="45.1293" fill="white" transform="translate(7 12)"/>
</clipPath>
</defs>
</svg>
