<svg width="70" height="70" viewBox="0 0 70 70" fill="none" xmlns="http://www.w3.org/2000/svg">
<g clip-path="url(#clip0_45_28021)">
<path d="M21.2857 9.99929L14.8668 11.357C14.8668 11.357 13.4397 11.8539 11.7295 13.7837C11.7295 13.7837 4.18963 20.6995 4.54207 21.4391L12.1339 30.0189C12.1339 30.0189 13.7863 29.9149 13.7863 30.8971L12.9081 47.7159H44.5928L43.4373 30.7931C43.4373 30.7931 43.2235 29.574 45.0146 29.9322L53.0282 21.2715L44.4368 12.7899C44.4368 12.7899 43.5413 11.3917 42.1489 11.1433C42.1489 11.1433 37.8907 9.96462 35.9205 9.99929H21.2857Z" fill="#C5F0FF"/>
<path d="M22.5277 9.24785C22.5277 9.24785 21.1006 9.19585 21.1584 10.9927C21.2104 12.7953 22.6664 17.0708 26.9418 17.741C31.2173 18.4112 34.0137 15.1873 34.8226 14.2166C35.6314 13.246 36.1687 10.5594 35.7123 9.6754C35.7123 9.6754 34.6088 8.22521 33.563 9.56562C33.563 9.56562 32.1648 14.8637 29.1547 14.7309C26.1445 14.598 24.7694 12.8242 24.4228 11.1545C24.4228 11.1545 23.9143 9.0283 22.5392 9.24785H22.5277Z" fill="#9BE5F9"/>
<path d="M23.9718 10.1026C23.9718 10.1026 24.1105 14.1931 28.3282 14.6496C28.3282 14.6496 33.0081 15.4007 33.4241 9.99856C33.4241 9.99856 27.7562 9.53635 23.9776 10.1026H23.9718Z" fill="#D9F1FC"/>
<path d="M52.3855 21.3063L45.283 29.0682C44.8155 29.579 44.8507 30.3721 45.3615 30.8395L45.9583 31.3856C46.4691 31.853 47.2622 31.8179 47.7296 31.307L54.8322 23.5451C55.2996 23.0342 55.2644 22.2412 54.7536 21.7737L54.1568 21.2277C53.646 20.7603 52.853 20.7954 52.3855 21.3063Z" fill="#9BE5F9"/>
<path d="M2.32573 23.5519L9.42828 31.3138C9.89572 31.8247 10.6888 31.8598 11.1996 31.3924L11.7964 30.8463C12.3072 30.3789 12.3424 29.5858 11.8749 29.075L4.77238 21.3131C4.30494 20.8022 3.51189 20.767 3.00105 21.2345L2.40431 21.7805C1.89347 22.248 1.85829 23.041 2.32573 23.5519Z" fill="#9BE5F9"/>
<path d="M13.4275 50.2056L43.5349 50.2056C44.3869 50.2056 45.0776 49.5162 45.0776 48.6658C45.0776 47.8154 44.3869 47.1261 43.5349 47.1261L13.4275 47.1261C12.5756 47.1261 11.8849 47.8154 11.8849 48.6658C11.8849 49.5162 12.5756 50.2056 13.4275 50.2056Z" fill="#9BE5F9"/>
<path d="M58.7822 25.8991C58.7822 25.8991 63.7568 24.5933 67.6163 27.5688L66.4607 29.2443L60.7062 29.851L58.7822 25.8991Z" fill="#FFBFB8"/>
<path d="M51.6874 32.7109L56.7139 26.9737C56.7139 26.9737 57.9446 25.8182 58.7824 25.8991C58.7824 25.8991 59.9783 27.8115 63.5951 28.0484C67.2177 28.2853 67.6164 27.5688 67.6164 27.5688C67.6164 27.5688 68.3733 28.4817 67.9342 29.8394L60.1863 39.5864L58.8228 42.8103L52.9758 41.2214L48.2786 35.334L49.3532 33.3869L51.6874 32.7225V32.7109Z" fill="#FF9D8A"/>
<path d="M40.2421 40.8691C40.2421 40.8691 39.1096 41.0656 37.0124 44.4975L33.6555 49.6627C33.6555 49.6627 32.4364 51.9507 33.436 54.1982C34.4297 56.4457 39.1905 61.8305 43.6509 61.6456C43.6509 61.6456 45.1993 61.6109 46.7882 59.9874C46.7882 59.9874 53.7387 53.7533 54.2471 52.2627L40.2478 40.8749L40.2421 40.8691Z" fill="#757482"/>
<path d="M40.2418 40.8687C40.2418 40.8687 39.196 44.4046 43.3271 47.8885C47.4581 51.3725 49.3532 52.7187 52.2882 52.5684C52.2882 52.5684 53.7673 52.8747 55.0442 51.7018C56.321 50.5289 56.2517 48.8303 56.2517 48.8303C56.2517 48.8303 56.4308 48.0156 57.0317 47.4148C57.6326 46.8139 59.7587 43.7979 59.7587 43.7979C59.7587 43.7979 61.1396 43.1624 60.1863 39.5803L59.4294 40.3371C59.4294 40.3371 59.3081 41.614 58.3952 41.7122C58.3952 41.7122 56.6388 41.9318 54.686 40.3891C54.686 40.3891 51.5314 38.1994 50.7629 36.7319C49.9945 35.2643 49.3185 33.843 50.8843 33.3115C50.8843 33.3115 51.1616 33.2653 51.6873 32.7106C51.6873 32.7106 49.0816 32.3235 48.3825 32.9764L44.1186 37.4078C44.1186 37.4078 43.0844 38.1532 42.5529 38.1763C42.0213 38.1994 40.4787 39.1758 40.236 40.8687H40.2418Z" fill="#FFE05C"/>
</g>
<defs>
<clipPath id="clip0_45_28021">
<rect width="66.0733" height="52.646" fill="white" transform="translate(2 9)"/>
</clipPath>
</defs>
</svg>
