<svg width="70" height="70" viewBox="0 0 70 70" fill="none" xmlns="http://www.w3.org/2000/svg">
<g clip-path="url(#clip0_45_28022)">
<path d="M36.6171 67.0112C36.6171 67.0112 39.4886 66.6876 45.2951 63.7814C45.2951 63.7814 57.9886 57.9691 58.6357 55.6061C58.6357 55.6061 59.8375 49.3084 60.525 37.5566C60.525 37.5566 37.1313 44.3685 36.1028 47.5115L36.6171 67.0112Z" fill="#FFB850"/>
<path d="M47.4501 44.3396C47.4501 44.3396 53.95 43.0686 56.5153 39.7753L58.1041 32.0506L55.4233 26.2036L21.0404 15.5322C21.0404 15.5322 14.841 20.6281 16.5454 21.853L34.0229 28.7284C34.0229 28.7284 47.3173 38.0189 47.4501 44.3454V44.3396Z" fill="#FF7866"/>
<path d="M55.9545 30.519C55.9545 30.519 54.7816 28.6066 51.9448 27.8671C51.9448 27.8671 54.7816 24.4756 54.4118 22.1299C54.4118 22.1299 61.137 24.5334 63.0494 26.2031L55.9545 30.519Z" fill="#FFD092"/>
<path d="M55.9545 30.519C55.9545 30.519 56.9425 31.2585 56.5092 39.769L62.4313 36.4988C62.4313 36.4988 63.4193 35.6957 63.3557 34.7713L63.9739 27.8612C63.9739 27.8612 64.0375 26.3822 63.0495 26.1973C63.0495 26.1973 60.334 27.243 55.9545 30.5132V30.519Z" fill="#FFBF73"/>
<path d="M25.4137 44.3507C25.4137 44.3507 25.5292 44.9805 24.9168 44.8071L16.3485 41.8259C16.3485 41.8259 15.3432 41.4503 14.9503 39.3068C14.9503 39.3068 11.5646 32.9976 14.5632 30.6865C14.5632 30.6865 22.8311 33.8873 25.4252 33.8527L25.4137 44.3507Z" fill="#FF7866"/>
<path d="M37.4317 38.417C37.4317 38.417 36.5881 46.367 37.4317 47.511C37.4317 47.511 39.789 47.4301 43.5964 45.9453L47.4501 44.3391C47.4501 44.3391 47.9239 36.857 47.1381 35.3086L37.4317 38.4228V38.417Z" fill="#FFBF73"/>
<path d="M37.4316 38.4176C37.4316 38.4176 36.9925 45.0099 37.4316 47.5117C37.4316 47.5117 36.253 47.9508 32.1393 46.7779L25.4199 44.3513C25.4199 44.3513 24.7439 43.3229 24.7439 41.0407L24.8595 37.6608L25.1137 35.2515L37.4316 38.4234V38.4176Z" fill="#FFD092"/>
<path d="M34.023 28.728L25.8418 33.4253C25.8418 33.4253 24.8827 34.0839 25.1138 35.251L34.0519 38.1052C34.0519 38.1052 37.1429 38.9892 40.0837 37.8105L47.144 35.3088C47.144 35.3088 46.5432 33.8817 42.4988 31.9693L34.0345 28.728H34.023Z" fill="#FFDAA9"/>
<path d="M14.4133 31.2641C14.4133 31.2641 13.9568 39.2026 15.8057 41.0457L9.12093 37.7351C9.12093 37.7351 7.03519 36.6084 7.12186 34.0836C7.12186 34.0836 6.83875 28.8375 7.13341 27.2197C7.13341 27.2197 13.0902 29.3517 14.4133 31.2641Z" fill="#FFD092"/>
<path d="M31.0816 14.0471C31.0816 14.0471 30.1282 7.63969 24.7377 3.69932C24.7377 3.69932 19.2142 0.359833 16.4063 8.24056C16.4063 8.24056 13.9392 17.5195 17.7409 20.1194C17.7409 20.1194 22.6404 24.1234 27.7305 23.2509C27.7305 23.2509 25.3039 16.3871 31.0758 14.0471H31.0816Z" fill="#FF8B85"/>
<path d="M31.0821 14.0469C31.0821 14.0469 35.2535 14.3704 36.6113 16.3117C36.6113 16.3117 33.5029 19.3219 33.8438 21.3094C33.8438 21.3094 33.6993 23.9613 34.9589 26.2031C34.9589 26.2031 32.3878 26.648 30.7874 25.3884C29.187 24.1289 28.5052 23.4471 27.731 23.2565C27.731 23.2565 25.2062 16.2944 31.0763 14.0527L31.0821 14.0469Z" fill="#FF7E7B"/>
<path d="M36.6165 16.312C36.6165 16.312 44.2026 11.3143 47.5883 11.4126C50.974 11.5108 53.4988 13.3539 53.8859 15.7805C54.273 18.2071 54.6486 18.0049 54.4117 22.1359C54.4117 22.1359 55.1455 25.6834 49.6162 30.0975C49.6162 30.0975 44.9074 31.6979 41.0769 30.0975C41.0769 30.0975 36.6627 28.0464 34.9641 26.2092C34.9641 26.2092 31.3242 20.2986 36.6165 16.3178V16.312Z" fill="#FF8B85"/>
<path d="M36.6165 67.011C36.6165 67.011 19.3644 62.4929 11.8361 55.7157C11.8361 55.7157 11.085 53.2429 10.8655 50.6602C10.8655 50.6602 9.90058 42.6524 9.92947 38.1343L36.1081 47.5172L36.6223 67.0168L36.6165 67.011Z" fill="#FFC25F"/>
<path d="M16.5453 21.853C16.5453 21.853 21.3812 23.5517 23.7096 24.6725L18.3826 27.3707C18.3826 27.3707 14.6329 29.1329 14.4133 31.2706C14.4133 31.2706 6.7637 28.7689 7.13347 27.2263C7.13347 27.2263 6.54415 25.6836 16.5453 21.8588V21.853Z" fill="#FFDAA9"/>
<path d="M23.7096 24.6724C23.7096 24.6724 15.0142 27.8616 14.5577 30.6869C14.5577 30.6869 22.9353 34.4886 25.4197 33.8531L34.0169 28.7283L23.7096 24.6724Z" fill="#FF7D73"/>
<path d="M29.3427 14.7289C29.3427 14.7289 22.4442 10.3667 22.6002 7.03879C22.6002 7.03879 22.9989 5.6926 24.3451 6.64013C24.3451 6.64013 25.1366 7.35656 25.3735 8.06721C25.6104 8.77787 28.2276 13.7004 29.337 14.7289H29.3427Z" fill="#FFABA9"/>
<path d="M37.2697 16.6293C37.2697 16.6293 43.2149 13.9311 45.4393 13.7751C45.4393 13.7751 48.2125 13.4458 48.0334 14.168C47.8543 14.8902 44.7864 15.1618 44.7864 15.1618C44.7864 15.1618 41.1176 15.5258 37.2697 16.6235V16.6293Z" fill="#FFABA9"/>
</g>
<defs>
<clipPath id="clip0_45_28022">
<rect width="56.9735" height="64.0107" fill="white" transform="translate(7 3)"/>
</clipPath>
</defs>
</svg>
