<svg width="70" height="70" viewBox="0 0 70 70" fill="none" xmlns="http://www.w3.org/2000/svg">
<path d="M3.613 34.5095L18.4776 23.8184L38.7408 50.2909L24.542 61.3135C24.542 61.3135 22.3008 63.2356 20.3035 60.644L4.19308 39.0166C4.19308 39.0166 1.95186 36.8426 3.613 34.5095Z" fill="#8DEF67"/>
<path d="M9.55207 33.4291C9.55207 33.4291 10.6068 38.0158 8.28644 39.2221L20.2967 54.8246C20.2967 54.8246 23.8102 54.0491 26.058 55.9514L36.8488 47.8121L19.8419 25.5947L9.55866 33.4225L9.55207 33.4291Z" fill="#7CDE6C"/>
<path d="M16.8558 34.4163L17.9764 35.8281C17.9764 35.8281 16.6449 38.5788 17.4161 40.2756C18.1874 41.9724 19.1696 43.7089 22.8939 42.9069C22.8939 42.9069 26.4074 42.1116 26.8293 43.6625C27.2511 45.2135 25.5636 45.9227 24.5815 46.0619C23.5993 46.2011 22.5709 46.4132 22.5709 46.4132L23.3422 48.7662C23.3422 48.7662 25.3395 49.3693 26.8952 47.9443L28.2333 49.6411L29.9208 48.216L28.6156 46.4132C28.6156 46.4132 30.1911 44.2259 29.5978 42.3634C28.998 40.5009 26.4931 39.0825 23.7772 39.4603C21.0614 39.8381 20.4022 39.679 20.132 39.0229C20.132 39.0229 19.6442 37.9823 21.0482 37.2996C22.4523 36.6169 23.8498 36.4909 23.8498 36.4909L22.5644 33.7999L19.8617 34.8273L18.4708 33.2432L16.8558 34.4163Z" fill="white"/>
<path d="M31.3452 13.9955L51.8391 40.773L66.7432 29.7173C66.7432 29.7173 67.6134 28.4447 66.1038 26.2309L50.0989 5.75014C50.0989 5.75014 47.6599 2.77413 45.4582 4.5836L31.3517 13.9955H31.3452Z" fill="#8DEF67"/>
<path d="M43.4803 8.89844C43.4803 8.89844 46.361 11.5232 49.8348 9.6209L61.476 24.4546C61.476 24.4546 59.2875 26.9335 59.894 30.6452L49.881 38.2078L33.1048 16.2954L43.4803 8.89844Z" fill="#7CDE6C"/>
<path d="M36.1236 20.3517C36.1236 20.3517 37.6463 17.8993 41.608 15.997C45.5697 14.0948 50.7508 16.2423 52.2736 17.8993C52.2736 17.8993 55.2597 20.9615 54.8312 26.1115C54.8312 26.1115 53.4865 32.3419 46.6573 34.0056L36.117 20.3517H36.1236Z" fill="#6BC758"/>
<path d="M3 37.4321V42.9069C3 42.9069 3.12524 43.9741 3.93604 44.9418L19.2554 65.3828C19.2554 65.3828 21.0023 68.0804 23.3885 66.5029L40.3427 53.7903C40.3427 53.7903 40.3559 51.5831 38.7409 50.2906L24.5421 61.3131L19.9344 60.1466L3 37.4321Z" fill="#E2FFD2"/>
<path d="M51.8453 40.7727V44.9418L60.9618 38.5921C60.9618 38.5921 62.3395 37.6708 63.3349 35.742L66.7494 29.7104L51.8453 40.7661V40.7727Z" fill="#E2FFD2"/>
<path d="M18.478 23.8182C18.478 23.8182 17.7595 22.1678 19.269 21.1537L28.9985 14.3334C28.9985 14.3334 29.7368 13.3989 31.3452 13.9954C31.3452 13.9954 50.6461 37.4323 51.8392 40.7729V44.942C51.8392 44.942 51.681 47.7125 50.0396 48.879L43.0325 54.3008C43.0325 54.3008 41.3977 55.6728 39.6575 54.3008L40.343 53.7838C40.343 53.7838 40.231 51.7623 38.7412 50.2842L18.478 23.8182Z" fill="#DFE3E5"/>
</svg>
