<svg width="70" height="70" viewBox="0 0 70 70" fill="none" xmlns="http://www.w3.org/2000/svg">
<g clip-path="url(#clip0_45_28024)">
<path d="M28.7368 23.2436C28.7368 23.2436 26.3907 26.5152 26.1519 28.1481C25.919 29.7809 23.4117 32.1203 19.2627 31.4969C15.1137 30.8734 9.08414 33.5988 7.59765 39.9817C7.59765 39.9817 4.30828 47.1425 13.1556 56.4111C22.0028 65.6796 31.6322 60.6149 31.6322 60.6149C31.6322 60.6149 37.4229 57.4204 37.7393 52.2844C38.0557 47.1484 37.1125 44.5774 40.5571 42.9386C40.5571 42.9386 45.3389 42.2618 47.4224 38.8536C47.4224 38.8536 48.6342 36.0748 47.0463 35.0951C45.4643 34.1154 43.8405 34.8397 43.8405 34.8397C43.8405 34.8397 40.8794 36.1341 37.5065 32.1322L34.8678 29.0268C34.8678 29.0268 33.7694 28.4628 33.9723 25.8383C34.1753 23.2139 34.0559 22.1273 33.1187 21.5989C33.1187 21.5989 30.6412 20.1204 28.7249 23.2377L28.7368 23.2436Z" fill="#FF9D8D"/>
<path d="M31.5367 31.6394L36.3125 36.247C36.3125 36.247 36.9991 37.7255 39.7511 37.3989C42.5032 37.0723 42.2107 37.0723 42.2107 37.0723C42.2107 37.0723 43.4405 36.7339 44.0196 37.4404C44.5986 38.147 41.8107 39.4474 41.8107 39.4474C41.8107 39.4474 35.8051 40.4924 35.4409 42.7605C35.4409 42.7605 34.9574 45.854 35.2917 48.6269C35.626 51.3997 35.0111 53.4482 33.4172 54.3507C33.4172 54.3507 31.1009 55.7164 29.292 55.3601C29.292 55.3601 27.4891 54.9979 27.4294 52.9495C27.4294 52.9495 27.119 50.3607 26.4325 49.565C25.7459 48.7694 21.5133 44.6368 21.5133 44.6368C21.5133 44.6368 18.218 41.6146 19.7403 39.4889C21.2626 37.3633 23.5789 36.9714 23.5789 36.9714C23.5789 36.9714 25.7161 37.0783 26.6533 34.7032C27.5966 32.3282 29.0055 29.5909 31.5367 31.6453V31.6394Z" fill="white"/>
<path d="M31.5364 31.6387L48.2698 16.2959C48.2698 16.2959 51.6845 18.1484 52.4845 20.8382C52.4845 20.8382 39.3091 35.3675 36.3122 36.2462L31.5364 31.6387Z" fill="#FFBE92"/>
<path d="M52.2103 20.1382C52.2103 20.1382 52.2103 21.3732 53.3207 21.2544C54.4311 21.1357 61.3919 12.9952 61.3919 12.9952C61.3919 12.9952 62.1381 11.4396 61.8695 10.3174L52.2103 20.1382Z" fill="#FC7365"/>
<path d="M48.2703 16.2963C48.2703 16.2963 47.7807 12.6328 48.6702 10.9109C49.5597 9.18903 52.485 8.88027 52.485 8.88027L57.6309 7.29493C57.6309 7.29493 59.8517 6.41023 61.2666 7.69275C62.6874 8.96934 61.7561 11.1781 60.8666 12.235C59.9771 13.2919 54.1028 20.892 52.2044 20.138L48.2643 16.2963H48.2703Z" fill="#FF9D8D"/>
<path d="M15.4599 45.9013C15.4599 45.9013 14.7972 46.8751 15.2689 47.4451C15.7405 48.0151 20.8984 52.8246 20.8984 52.8246C20.8984 52.8246 21.7222 54.0537 22.8625 53.2046L23.7818 52.3555C23.7818 52.3555 24.349 51.4411 23.4356 50.6277L18.3732 45.6876C18.3732 45.6876 17.3284 44.3635 16.4091 44.9335L15.4599 45.9073V45.9013Z" fill="#595864"/>
<path d="M30.5756 46.5307C30.5756 46.5307 29.4354 47.4451 29.7518 48.5733C30.0682 49.7014 30.7129 50.1764 31.7158 50.1764C32.7188 50.1764 33.5128 49.2323 33.5128 48.223C33.5128 47.2136 32.5337 45.4857 30.5696 46.5248L30.5756 46.5307Z" fill="#595864"/>
<path d="M29.8469 51.2389C29.8469 51.2389 29.1604 51.6011 29.3514 52.1711C29.5425 52.7411 29.7514 53.1211 30.4021 53.0261C31.0528 52.9311 31.2439 52.4917 31.226 52.0524C31.2081 51.613 30.6708 50.7164 29.8469 51.233V51.2389Z" fill="#595864"/>
</g>
<defs>
<clipPath id="clip0_45_28024">
<rect width="55" height="55" fill="white" transform="translate(7 7)"/>
</clipPath>
</defs>
</svg>
