<svg width="35" height="36" viewBox="0 0 35 36" fill="none" xmlns="http://www.w3.org/2000/svg">
<g clip-path="url(#clip0_588_32764)">
<path d="M0.318902 25.3783L27.5462 1.52923C27.9468 1.17914 28.5603 1.23689 28.8888 1.65916L34.0426 8.30717C34.3422 8.69335 34.2916 9.24554 33.9235 9.57037L6.95609 33.3798C6.56269 33.7263 5.95997 33.6793 5.62793 33.2715L0.210628 26.6632C-0.106976 26.277 -0.060057 25.7068 0.315292 25.3783H0.318902Z" fill="#B6B6FC"/>
<path d="M4.2207 21.9551L6.29956 24.6258" stroke="#E6DCFF" stroke-width="0.360913" stroke-miterlimit="10"/>
<path d="M1.05469 24.6265L2.18795 26.0882" stroke="#E6DCFF" stroke-width="0.360913" stroke-miterlimit="10"/>
<path d="M2.63477 23.3198L3.77164 24.7815" stroke="#E6DCFF" stroke-width="0.360913" stroke-miterlimit="10"/>
<path d="M5.58398 20.6938L6.72086 22.1519" stroke="#E6DCFF" stroke-width="0.360913" stroke-miterlimit="10"/>
<path d="M7.16797 19.3872L8.30123 20.8453" stroke="#E6DCFF" stroke-width="0.360913" stroke-miterlimit="10"/>
<path d="M20.418 7.76807L21.5512 9.22615" stroke="#E6DCFF" stroke-width="0.360913" stroke-miterlimit="10"/>
<path d="M22.002 6.46143L23.1352 7.91951" stroke="#E6DCFF" stroke-width="0.360913" stroke-miterlimit="10"/>
<path d="M25.4668 3.44141L26.6001 4.9031" stroke="#E6DCFF" stroke-width="0.360913" stroke-miterlimit="10"/>
<path d="M27.0508 2.13477L28.184 3.59285" stroke="#E6DCFF" stroke-width="0.360913" stroke-miterlimit="10"/>
<path d="M8.99805 17.8345L11.0769 20.5052" stroke="#E6DCFF" stroke-width="0.360913" stroke-miterlimit="10"/>
<path d="M18.8477 9.22754L20.9229 11.9019" stroke="#E6DCFF" stroke-width="0.360913" stroke-miterlimit="10"/>
<path d="M23.752 4.78125L25.8308 7.452" stroke="#E6DCFF" stroke-width="0.360913" stroke-miterlimit="10"/>
<path d="M4.91303 10.5627C4.91303 10.5627 0.888852 7.48773 1.59985 4.33336C1.59985 4.33336 2.23145 1.25838 6.25563 0.150376C6.25563 0.150376 8.15042 -0.481221 9.64821 0.861375L12.8026 4.41276C12.8026 4.41276 7.91222 7.33254 4.91303 10.5663V10.5627Z" fill="#FFBA8E"/>
<path d="M15.1559 7.16971L30.7509 25.2081C30.7509 25.2081 29.3181 25.8397 28.2859 26.5255L12.8027 8.31019C12.8027 8.31019 14.1778 7.0109 15.1595 7.16971H15.1559Z" fill="#FCE7B9"/>
<path d="M8.93389 11.3564L24.2763 30.0301L22.6702 32.0837L7.1582 13.5725C7.1582 13.5725 7.46498 11.9483 8.93389 11.3564Z" fill="#FFD56F"/>
<path d="M12.8026 8.31025L28.2894 26.5255L24.276 30.03C24.276 30.03 13.8817 18.2534 8.93359 11.3564C8.93359 11.3564 11.3553 8.54484 12.799 8.30664L12.8026 8.31025Z" fill="#F9D998"/>
<path d="M4.91406 10.5623C4.91406 10.5623 5.35077 12.0853 7.15894 13.5687C7.15894 13.5687 8.41131 11.5367 9.90188 10.5623C9.90188 10.5623 13.5291 7.35374 15.1604 7.16607C15.1604 7.16607 15.2542 6.4695 14.7886 6.09776L12.8072 4.40869C12.8072 4.40869 7.97821 7.11915 4.91767 10.5623H4.91406Z" fill="#FFF7E5"/>
<path d="M24.2754 30.0308L29.8082 33.5317C29.8082 33.5317 30.1402 32.7738 30.9451 32.633L28.2887 26.5264L24.2754 30.0308V30.0308Z" fill="#FFF7E5"/>
<path d="M28.2852 26.5253C28.2852 26.5253 29.9923 25.3452 30.7502 25.208L31.4251 32.6573C31.4251 32.6573 31.4576 32.6284 30.9451 32.6284L28.2888 26.5217L28.2852 26.5253Z" fill="#FCF8F0"/>
<path d="M24.276 30.0303L22.6699 32.0839L29.5706 34.0148L29.8088 33.5311L24.276 30.0303Z" fill="#FCEFD6"/>
<path d="M29.5703 34.0157C29.5703 34.0157 29.7869 32.3483 31.4254 32.6586L32.8763 34.3152C32.8763 34.3152 33.0639 35.6939 31.512 35.9285L29.5703 34.0121V34.0157Z" fill="#B3B1B8"/>
</g>
<defs>
<clipPath id="clip0_588_32764">
<rect width="34.2362" height="35.9289" fill="white"/>
</clipPath>
</defs>
</svg>
