<svg width="29" height="37" viewBox="0 0 29 37" fill="none" xmlns="http://www.w3.org/2000/svg">
<g clip-path="url(#clip0_588_32790)">
<path d="M4.49029 21.6919C4.49029 21.6919 11.5028 24.5323 20.3632 22.5942L20.6808 9.2332L14.5742 5.24512L7.39203 6.73208L4.19795 11.5106L3.94531 19.198L4.49029 21.6919Z" fill="#F9D998"/>
<path d="M18.2118 28.9966L17.5586 32.8619L18.3743 36.4133C18.3743 36.4133 19.0997 36.6587 20.251 35.3125L22.6042 33.822L21.904 23.7236L18.9986 23.6226C18.9986 23.6226 17.721 27.109 18.2082 28.9929L18.2118 28.9966Z" fill="#AAAAF2"/>
<path d="M10.2692 4.88849C10.2692 4.88849 10.9838 1.46343 13.1457 0.492572C15.3076 -0.478284 16.8018 0.0955678 18.2671 1.23966C19.7324 2.38376 20.0391 4.74052 20.0391 4.74052L17.9783 4.40487C17.9783 4.40487 17.224 2.00841 15.3076 1.8099C13.3911 1.6114 12.4022 3.71191 12.312 4.58893L10.2656 4.88849H10.2692Z" fill="#C6E8FF"/>
<path d="M24.5938 22.9413V31.5166C24.5938 31.5166 26.5679 31.7476 27.1887 30.6432C27.1887 30.6432 28.0693 28.9902 28.1451 27.0124C28.2209 25.0346 28.2462 22.667 28.2462 22.667L24.5938 22.9377V22.9413Z" fill="#F9D998"/>
<path d="M3.46455 21.6092V10.872C3.46455 10.872 3.64139 6.6241 7.18195 5.44391C7.18195 5.44391 14.6637 3.91364 17.5582 4.34674C20.4527 4.77983 23.1487 5.10105 24.9822 7.07885C24.9822 7.07885 26.9961 8.40701 26.7434 13.4742L26.7651 21.7391C26.7651 21.7391 24.8522 22.0351 24.7909 23.1828C24.7295 24.3305 24.6393 28.5604 24.6393 28.5604C24.6393 28.5604 24.4877 31.4296 25.5163 31.491C25.5163 31.491 26.2851 31.3935 26.5341 31.2023C26.5341 31.2023 26.5341 32.2958 25.9783 32.8119L23.8128 35.0532C23.8128 35.0532 21.0518 36.7964 18.8864 36.3381C18.8864 36.3381 21.4921 34.6887 21.5318 33.5013C21.5318 33.5013 21.7051 27.4452 21.6834 25.6983C21.6834 25.6983 21.7015 24.2042 20.6296 23.6267C20.6296 23.6267 20.9544 23.338 21.4524 23.2622C21.4524 23.2622 21.7412 22.6667 20.3589 22.5909L20.2073 15.4989C20.2073 15.4989 19.9402 11.1102 18.5399 9.1144C18.5399 9.1144 16.2012 6.25958 12.5198 6.4292C12.5198 6.4292 9.08757 6.35341 6.51787 8.72822C6.51787 8.72822 4.63751 10.2224 4.54368 14.0012L4.48593 21.6886C4.48593 21.6886 4.06727 21.4071 3.46094 21.6056L3.46455 21.6092Z" fill="#B6B6FC"/>
<path d="M24.8418 22.9231C24.8418 22.9231 25.9065 23.912 26.7691 23.5005C27.6317 23.0891 27.9962 22.9231 27.9962 22.9231C27.9962 22.9231 28.339 22.7173 27.9962 22.3059C27.6533 21.8945 26.7691 21.7393 26.7691 21.7393C26.7691 21.7393 25.0908 22.0027 24.8418 22.9231Z" fill="#FCE1B1"/>
<path d="M1.11505 28.2603C1.11505 28.2603 0.840753 32.5479 1.52288 33.1867C2.205 33.8255 8.96851 34.9841 8.96851 34.9841C8.96851 34.9841 16.4141 36.7525 18.3703 36.4133C18.3703 36.4133 17.8614 31.18 18.2079 28.9929L1.11144 28.2603H1.11505Z" fill="#B6B6FC"/>
<path d="M3.46522 21.6104C3.46522 21.6104 0.58874 22.0219 0.224218 23.5413C0.224218 23.5413 -0.670846 27.118 1.11567 28.2621C1.11567 28.2621 8.31949 29.9583 11.9467 30.1424C15.5738 30.3265 17.3062 30.7884 17.9523 29.5541C17.9523 29.5541 18.3384 29.038 18.4684 27.7315C18.5983 26.425 18.6705 25.0066 19.1324 24.4725L20.6302 23.6352L21.4531 23.2706C21.4531 23.2706 21.7527 22.6246 20.3595 22.5993L4.4866 21.697C4.4866 21.697 4.19065 21.4588 3.46161 21.614L3.46522 21.6104Z" fill="#CACAFF"/>
<path d="M12.7731 25.8825C12.7731 25.8825 11.9682 27.3045 12.0982 29.6035L12.192 32.1479C12.192 32.1479 12.192 33.9236 13.3505 33.9994C14.5091 34.0752 15.0649 33.9236 15.1154 32.5413C15.1659 31.159 15.2417 29.4555 15.2417 29.4555C15.2417 29.4555 15.1479 27.8458 15.4474 27.1745C15.4474 27.1745 15.9347 26.3156 15.4474 26.0702C14.9602 25.8247 13.4263 25.6768 12.7731 25.8825Z" fill="#FCE1B1"/>
<path d="M13.3715 30.7375C13.3715 30.7375 12.4115 30.7375 12.4259 31.6109C12.4404 32.4843 12.7075 32.8958 13.2452 33.0076C13.783 33.1195 14.4723 32.8236 14.4579 32.1595C14.4434 31.4954 14.2594 30.7483 13.3715 30.7339V30.7375Z" fill="#C6E8FF"/>
<path d="M2.02176 24.7891C2.02176 24.7891 1.23136 25.3161 1.24941 27.348V30.3797C1.24941 30.3797 1.17001 31.8522 2.22387 32.0146H2.75081C2.75081 32.0146 3.74693 32.094 3.78663 31.2242V27.6115C3.78663 27.6115 3.80828 26.2544 4.02844 25.9693C4.24859 25.6842 4.43266 25.1356 4.02844 24.9732C3.62422 24.8108 2.81216 24.6087 2.01815 24.7891H2.02176Z" fill="#FCE1B1"/>
<path d="M2.02842 29.1998C2.02842 29.1998 1.40765 29.3405 1.43652 30.019C1.4654 30.6976 1.71804 31.2173 2.24136 31.2317C2.76468 31.2461 3.15808 30.8961 3.15808 30.38C3.15808 29.8638 2.91988 28.9904 2.02842 29.1998Z" fill="#C6E8FF"/>
</g>
<defs>
<clipPath id="clip0_588_32790">
<rect width="28.245" height="36.4558" fill="white"/>
</clipPath>
</defs>
</svg>
