<svg width="41" height="31" viewBox="0 0 41 31" fill="none" xmlns="http://www.w3.org/2000/svg">
<g clip-path="url(#clip0_588_32805)">
<path d="M26.677 27.3975L38.5877 24.554C38.5877 24.554 39.581 24.1495 39.9935 22.7197C39.9414 22.4193 39.8733 22.1069 39.7732 21.7705L19.8686 1.87389C19.8686 1.87389 17.4536 -0.897537 13.7089 0.30395C13.7089 0.30395 2.3669 3.28364 2.33486 3.29165C1.93036 3.39578 1.56591 3.4919 1.22549 3.75222C0.828999 4.0566 0.620741 4.50115 0.476562 4.96973L21.1942 26.2361C21.1942 26.2361 22.8282 28.4508 26.677 27.3975Z" fill="#E7EEF2"/>
<path d="M38.5874 24.558L26.6766 27.4015C22.8279 28.4548 21.1938 26.2401 21.1938 26.2401L0.476185 4.96973C0.368051 5.31415 0.295962 5.67059 0.223873 6.00301C0.0877044 6.6478 -0.240702 7.84529 0.299967 8.38996L20.6331 28.7231C20.6331 28.7231 21.8987 30.8097 25.4151 30.261L39.1601 26.4403C39.1601 26.4403 40.4457 25.3189 40.0011 22.7197C39.5846 24.1495 38.5954 24.554 38.5954 24.554L38.5874 24.558Z" fill="#D5D4DD"/>
<path d="M3.7168 5.71226L9.42787 11.3913L22.7844 7.88695L17.1414 2.17188L3.7168 5.71226Z" fill="#C6E8FF"/>
<path d="M11.3887 12.8987L13.7396 15.4579L19.9112 13.8399L17.4922 11.1445L11.3887 12.8987Z" fill="#D1D1D4"/>
<path d="M19.9121 11.9169L22.259 14.3359L28.1824 12.826L25.7634 10.375L19.9121 11.9169Z" fill="#9AD7FF"/>
<path d="M15.9824 17.9473L21.4852 23.7345L34.8778 20.0179L29.375 14.3389L15.9824 17.9473Z" fill="#D1D1D4"/>
<path d="M32.2673 26.8937C31.9349 26.9457 31.6105 27.0539 31.3101 27.206C31.1859 27.2701 31.0658 27.3422 30.9737 27.4463C30.9136 27.5144 30.8695 27.6105 30.9056 27.6906C30.9416 27.7627 31.0297 27.7868 31.1098 27.7988C31.4583 27.8428 31.8107 27.7627 32.1511 27.6786C32.4235 27.6145 32.6958 27.5425 32.9321 27.3983C33.0643 27.3182 33.1924 27.166 33.1283 27.0258C33.0122 26.7615 32.4876 26.8576 32.2633 26.8937H32.2673Z" fill="#686867"/>
</g>
<defs>
<clipPath id="clip0_588_32805">
<rect width="40.0896" height="30.3536" fill="white"/>
</clipPath>
</defs>
</svg>
