<svg width="37" height="31" viewBox="0 0 37 31" fill="none" xmlns="http://www.w3.org/2000/svg">
<g clip-path="url(#clip0_588_32815)">
<path d="M35.8204 20.1C35.8204 20.1 36.3618 21.7999 36.1597 23.2941C35.9576 24.7882 34.2072 27.0151 32.02 28.0689C29.8329 29.1228 27.3823 30.3644 22.2645 30.9129C22.2645 30.9129 12.9133 31.4976 8.31887 29.0542C8.31887 29.0542 3.69558 26.8743 2.83661 23.2688C2.83661 23.2688 2.519 20.4356 2.96293 19.4106L35.8204 20.0964V20.1Z" fill="#E5AF7F"/>
<path d="M35.8207 17.7651V20.1002C35.8207 20.1002 35.384 22.2188 31.5186 24.4023C27.6532 26.5858 20.2978 26.9287 20.2978 26.9287C20.2978 26.9287 13.5632 27.0839 9.68339 25.4309C9.68339 25.4309 3.12921 23.1247 2.9668 19.4145V18.1946L35.8243 17.7651H35.8207Z" fill="#C18A6B"/>
<path d="M3.67773 18.3032C3.67773 18.3032 4.98424 21.1184 9.82047 22.183C9.82047 22.183 13.0687 22.9734 15.6853 23.0023C15.6853 23.0023 8.75939 17.6897 3.67773 18.3032Z" fill="#CE997E"/>
<path d="M25.1426 22.7126C25.1426 22.7126 33.6421 20.7709 35.2157 18.2554L28.8455 19.2587L25.1462 22.7126H25.1426Z" fill="#CE997E"/>
<path d="M0.0332307 16.9604C0.0332307 16.9604 0.015185 18.0685 0.903031 18.1948C1.79088 18.3211 2.87722 18.1948 2.87722 18.1948C2.87722 18.1948 3.94553 18.2633 4.81533 18.6279C5.68513 18.9924 14.4517 22.3705 14.4517 22.3705C14.4517 22.3705 16.5306 23.3486 17.3318 24.0596C18.133 24.7706 18.844 25.2145 18.844 25.2145C18.844 25.2145 19.9989 26.2467 21.5978 25.5177C21.5978 25.5177 22.3088 24.9474 23.0739 24.204C23.839 23.4605 25.5967 22.4427 25.5967 22.4427L30.1839 19.8658L0.0332307 16.9604Z" fill="#F7CA72"/>
<path d="M1.7367 15.0557C1.7367 15.0557 -0.280807 16.4668 0.0331868 16.9613C0.347181 17.4557 1.78361 17.0696 3.14065 17.1453L1.7367 15.0557Z" fill="#F9D998"/>
<path d="M6.99414 18.6279L12.6424 21.1074L10.3831 18.6279H6.99414Z" fill="#F9D998"/>
<path d="M15.6855 22.042L18.8074 24.1749C18.8074 24.1749 19.5726 25.0159 20.5651 24.922C21.5576 24.8282 22.1134 23.9295 22.1134 23.9295C22.1134 23.9295 23.3586 22.7133 24.5712 22.1827C25.7839 21.6522 28.8444 19.9017 28.8444 19.9017L23.4127 17.7651L15.6855 22.042Z" fill="#F9D998"/>
<path d="M10.3842 18.6277C10.3842 18.6277 7.29475 19.0825 5.02822 18.1152C2.76168 17.148 1.83414 15.8343 1.83414 15.8343C1.83414 15.8343 1.59594 15.0547 1.84857 14.2896L10.3806 18.6277H10.3842Z" fill="#F4947A"/>
<path d="M10.3841 18.6279C10.3841 18.6279 10.2362 19.0971 10.3841 19.3498C10.5321 19.6024 12.5135 21.9664 16.8769 22.154C21.2404 22.3417 24.2721 21.573 25.7554 20.234C25.7554 20.234 26.2029 19.9092 26.1993 19.0899L10.3841 18.6279Z" fill="#F4947A"/>
<path d="M26.2031 19.0938C26.2031 19.0938 26.3475 19.8156 26.7048 19.942C27.0621 20.0683 31.0069 19.7507 31.0069 19.7507C31.0069 19.7507 35.4172 18.9494 36.1968 17.2423C36.1968 17.2423 36.7165 15.5821 36.1607 13.377L26.2031 19.0938Z" fill="#F4947A"/>
<path d="M2.58846 12.4707C2.58846 12.4707 1.21699 13.6978 2.17702 15.0981C3.13705 16.4985 6.58737 17.1445 6.58737 17.1445L2.58846 12.4707Z" fill="#FFA98F"/>
<path d="M10.3848 18.6279C10.3848 18.6279 12.5142 20.1077 14.7482 20.3423C16.9823 20.5769 22.8976 20.8945 24.5686 19.3209L10.3848 18.6279Z" fill="#FFA98F"/>
<path d="M26.2031 19.0938C26.2031 19.0938 31.9777 18.2781 33.9194 17.2423C35.8612 16.2065 36.1318 14.2937 36.1643 13.377L26.2067 19.0938H26.2031Z" fill="#FFA98F"/>
<path d="M2.96443 9.6438C2.96443 9.6438 2.54577 11.0514 2.58908 12.4697C2.63239 13.8881 4.91336 18.497 15.1128 19.4426C15.1128 19.4426 27.1636 20.4748 31.7689 17.1183C31.7689 17.1183 34.9521 15.6133 36.1576 13.372C36.1576 13.372 36.3886 9.39838 35.6703 8.33008L2.96443 9.6438Z" fill="#E5AF7F"/>
<path d="M12.7184 0.708547C12.7184 0.708547 3.29132 3.33238 2.96289 9.64475C2.96289 9.64475 5.66974 15.4121 18.0454 15.2353C30.4211 15.0584 35.6724 8.33464 35.6724 8.33464C35.6724 8.33464 34.7701 3.4984 26.3284 1.11999C26.3284 1.11999 21.983 -1.09241 12.7184 0.708547Z" fill="#EDB680"/>
<path d="M20.0068 10.3079C19.7722 10.0986 19.6062 9.85315 19.5268 9.59329C19.4546 9.35509 19.682 8.79928 20.1584 9.10245C20.3894 9.25042 20.4399 9.49584 20.3713 9.70878C20.3028 9.92172 20.1404 10.113 20.0032 10.3079H20.0068Z" fill="#F4DBC9"/>
<path d="M10.9609 8.78783C10.9718 8.47745 11.0548 8.19233 11.1991 7.96495C11.3327 7.75562 11.9029 7.56795 11.9751 8.12375C12.0112 8.39444 11.856 8.58933 11.6503 8.67595C11.4446 8.76257 11.1955 8.76618 10.9609 8.78783Z" fill="#F4DBC9"/>
<path d="M16.6719 4.24409C16.7404 3.98424 16.8632 3.76047 17.0292 3.59445C17.1808 3.44287 17.7005 3.39234 17.6572 3.87596C17.6355 4.11056 17.4659 4.2477 17.2782 4.28018C17.0905 4.31267 16.8776 4.26936 16.6755 4.24409H16.6719Z" fill="#F4DBC9"/>
<path d="M28.4415 8.54028C28.1383 8.45727 27.8821 8.30929 27.6944 8.1144C27.5248 7.93395 27.4815 7.33483 28.0445 7.39258C28.3188 7.42145 28.4704 7.61995 28.5028 7.84011C28.5353 8.06026 28.474 8.30208 28.4379 8.54028H28.4415Z" fill="#F4DBC9"/>
<path d="M31.6102 4.53369C31.372 4.6564 31.1121 4.72137 30.8451 4.72859C30.6032 4.73581 30.0835 4.47234 30.4481 4.20165C30.6249 4.07173 30.8703 4.08255 31.0688 4.16917C31.2673 4.25579 31.4333 4.40377 31.6066 4.53369H31.6102Z" fill="#F4DBC9"/>
<path d="M7.10352 5.17193C7.2551 4.95538 7.45721 4.77132 7.68819 4.64139C7.90113 4.52229 8.47859 4.51146 8.28731 4.91929C8.19347 5.1178 7.96971 5.22246 7.75316 5.24051C7.53661 5.25855 7.32006 5.20441 7.10712 5.16832L7.10352 5.17193Z" fill="#F4DBC9"/>
<path d="M12.0332 5.28134C12.1415 5.03953 12.3075 4.82298 12.5096 4.65335C12.6973 4.49816 13.2639 4.37906 13.1484 4.81937C13.0943 5.03231 12.8922 5.17667 12.6828 5.23081C12.4735 5.28495 12.2498 5.27412 12.0332 5.28134Z" fill="#F4DBC9"/>
<path d="M11.1719 2.88866C11.374 2.75873 11.6122 2.66128 11.8648 2.60715C12.0994 2.55301 12.6624 2.62158 12.3773 2.87422C12.2366 2.99693 11.9948 3.03663 11.7818 3.0222C11.5689 3.00776 11.3704 2.9428 11.1719 2.88866Z" fill="#F4DBC9"/>
<path d="M15.4199 2.67235C15.622 2.54242 15.8602 2.44498 16.1129 2.39084C16.3475 2.3367 16.9105 2.40528 16.6254 2.65791C16.4846 2.78062 16.2428 2.82033 16.0299 2.80589C15.8169 2.79145 15.6184 2.72649 15.4199 2.67235Z" fill="#F4DBC9"/>
<path d="M17.502 1.49119C17.7438 1.43705 18.0036 1.42983 18.2635 1.46953C18.5017 1.50562 18.9889 1.80879 18.6136 1.96037C18.4331 2.03616 18.1913 1.98203 18.0036 1.87736C17.8159 1.7727 17.6644 1.62833 17.502 1.49119Z" fill="#F4DBC9"/>
<path d="M27.5969 3.08733C27.3731 3.23169 27.1205 3.32553 26.857 3.35801C26.6152 3.38689 26.0739 3.17756 26.4095 2.87439C26.5719 2.72642 26.8173 2.71559 27.0267 2.78055C27.236 2.84552 27.4128 2.97545 27.6005 3.09094L27.5969 3.08733Z" fill="#F4DBC9"/>
<path d="M23.2802 3.05706C23.0565 3.19781 22.8038 3.29165 22.5404 3.32413C22.2985 3.353 21.7572 3.14728 22.0892 2.84412C22.2516 2.69614 22.497 2.68531 22.7064 2.75028C22.9157 2.81524 23.0926 2.94517 23.2802 3.05706Z" fill="#F4DBC9"/>
<path d="M22.1674 7.198C21.8678 7.12942 21.6188 7.0031 21.442 6.82626C21.2796 6.66385 21.2579 6.10082 21.8173 6.13691C22.088 6.15496 22.2324 6.33542 22.2576 6.54114C22.2829 6.74686 22.2143 6.97784 22.1674 7.198Z" fill="#F4DBC9"/>
<path d="M22.1493 1.70794C21.9977 1.87756 21.8028 2.01832 21.5863 2.12659C21.3878 2.22404 20.8608 2.25291 21.063 1.93892C21.1604 1.78734 21.3697 1.70072 21.5682 1.67906C21.7667 1.65741 21.958 1.68989 22.1493 1.70794Z" fill="#F4DBC9"/>
<path d="M20.6591 4.6735C20.3487 4.61215 20.0925 4.48944 19.912 4.3162C19.746 4.1574 19.7388 3.59077 20.3198 3.61242C20.6014 3.62325 20.7493 3.8037 20.771 4.00942C20.7926 4.21514 20.7132 4.44974 20.6627 4.6735H20.6591Z" fill="#F4DBC9"/>
<path d="M16.1417 7.10042C16.0551 6.83696 16.0371 6.56988 16.0912 6.32807C16.1381 6.10791 16.5532 5.747 16.7805 6.18731C16.8924 6.40025 16.8202 6.62041 16.6795 6.76477C16.5387 6.90914 16.333 6.99937 16.1417 7.10042Z" fill="#F4DBC9"/>
<path d="M26.2686 5.75345C25.9655 5.71735 25.702 5.61991 25.5071 5.46472C25.3266 5.32035 25.2472 4.76455 25.8067 4.73928C26.0773 4.72845 26.2398 4.89086 26.2867 5.08937C26.3336 5.28787 26.2867 5.52607 26.2686 5.75345Z" fill="#F4DBC9"/>
</g>
<defs>
<clipPath id="clip0_588_32815">
<rect width="36.4161" height="30.9771" fill="white"/>
</clipPath>
</defs>
</svg>
