<svg width="38" height="32" viewBox="0 0 38 32" fill="none" xmlns="http://www.w3.org/2000/svg">
<g clip-path="url(#clip0_588_32852)">
<path d="M15.7128 2.11896C15.7128 2.11896 15.5771 1.15335 16.3217 1.08742C17.0662 1.0215 23.3601 1.34724 23.3601 1.34724C23.3601 1.34724 25.0974 1.63421 25.1207 1.99486L22.7125 5.14375L16.1588 4.81801L15.7128 2.11896Z" fill="#95939E"/>
<path d="M15.9182 1.2695C15.9182 1.2695 16.0345 3.04172 17.5353 3.27052C19.036 3.49932 20.8974 3.40625 20.8974 3.40625C20.8974 3.40625 22.0104 3.35972 22.3982 2.88273C22.786 2.40574 23.1311 1.94427 23.9339 1.45952C23.9339 1.45952 24.9228 1.5332 25.1244 1.9908L22.7162 5.13969L16.1625 4.81395C16.1625 4.81395 15.1658 2.03734 15.922 1.26562L15.9182 1.2695Z" fill="#ADACB5"/>
<path d="M10.7337 0.901238C10.7337 0.901238 6.44853 0.653049 3.23372 8.64938L0.596712 16.9714C0.596712 16.9714 -1.87742 25.8713 3.23372 28.3455C3.23372 28.3455 7.10778 29.7454 10.7337 26.6973L12.8782 24.6381C12.8782 24.6381 14.5263 22.3308 16.6708 22.3308H20.8745C20.8745 22.3308 22.7708 22.3308 24.4189 24.4753C26.0671 26.6198 26.9745 27.9383 26.9745 27.9383C26.9745 27.9383 29.3633 31.6456 33.0745 31.1531C36.7857 30.6606 37.7707 25.7977 37.9375 23.1607C38.1042 20.5236 38.112 12.7755 36.3746 7.91644C36.3746 7.91644 34.0634 2.39425 29.8597 2.14606L26.2803 1.82807C26.2803 1.82807 24.4849 1.82807 23.4184 2.96043L22.352 4.09279C22.352 4.09279 21.1615 4.82572 19.1953 4.55814C19.1953 4.55814 16.6592 4.54651 16.1628 3.55763L15.7168 2.12667C15.7168 2.12667 15.4686 1.17269 14.4332 0.908994H10.7375L10.7337 0.901238Z" fill="#EDEDEC"/>
<path d="M10.9471 5.37251C10.9471 5.37251 9.81089 5.65172 9.81089 6.33811V7.26107C9.81089 7.26107 9.65965 8.26933 9.05857 8.28872H7.79436C7.79436 8.28872 6.37891 8.33138 6.37891 9.74683V11.077C6.37891 11.077 6.42156 12.2985 7.15062 12.2985H7.96499C7.96499 12.2985 8.77935 12.3412 8.77935 13.1555V14.4004C8.77935 14.4004 8.58546 15.6219 10.3887 15.6219C10.3887 15.6219 12.4673 15.7925 12.4673 14.6796V13.7799C12.4673 13.7799 12.4246 12.6863 13.4096 12.6863H14.953C14.953 12.6863 15.9807 12.6204 15.9807 11.4841V9.98338C15.9807 9.98338 16.0893 8.80449 15.1431 8.80449H14.0921C14.0921 8.80449 13.3864 8.73856 13.3864 7.9048V6.59794C13.3864 6.59794 13.5376 5.54701 12.634 5.37638C12.634 5.37638 11.905 5.2678 10.9394 5.37638L10.9471 5.37251Z" fill="#95939E"/>
<path d="M22.7366 9.45449C22.7366 9.45449 21.5422 9.95086 21.6081 11.0987C21.674 12.2466 22.3294 12.9679 23.4579 13.0377C24.5864 13.1075 25.2611 12.204 25.2379 11.2461C25.2146 10.2882 24.47 9.00464 22.7366 9.45449Z" fill="#F9D998"/>
<path d="M25.8889 6.73037C25.8889 6.73037 24.6945 7.22674 24.7604 8.37461C24.8264 9.52249 25.4817 10.2438 26.6102 10.3136C27.7387 10.3834 28.4135 9.47983 28.3902 8.52198C28.3669 7.56412 27.6224 6.28052 25.8889 6.73037Z" fill="#F7C1A9"/>
<path d="M28.7307 9.95204C28.7307 9.95204 27.5363 10.4484 27.6022 11.5963C27.6682 12.7442 28.3235 13.4655 29.452 13.5353C30.5805 13.6051 31.2553 12.7015 31.232 11.7437C31.2087 10.7858 30.4642 9.5022 28.7307 9.95204Z" fill="#9AD7FF"/>
<path d="M25.5159 12.7094C25.5159 12.7094 24.3215 13.2057 24.3874 14.3536C24.4533 15.5015 25.1087 16.2228 26.2372 16.2926C27.3657 16.3624 28.0404 15.4588 28.0172 14.501C27.9939 13.5431 27.2493 12.2595 25.5159 12.7094Z" fill="#B3F489"/>
</g>
<defs>
<clipPath id="clip0_588_32852">
<rect width="38" height="30.2906" fill="white" transform="translate(0 0.900391)"/>
</clipPath>
</defs>
</svg>
