<svg width="44" height="35" viewBox="0 0 44 35" fill="none" xmlns="http://www.w3.org/2000/svg">
<g clip-path="url(#clip0_588_32863)">
<path d="M12.7791 0.659188L8.52546 1.55891C8.52546 1.55891 7.57979 1.88818 6.44652 3.16693C6.44652 3.16693 1.45018 7.74979 1.68372 8.23985L6.71453 13.9254C6.71453 13.9254 7.80951 13.8564 7.80951 14.5073L7.22756 25.6524H28.2237L27.458 14.4384C27.458 14.4384 27.3163 13.6306 28.5032 13.8679L33.8135 8.12882L28.1203 2.50841C28.1203 2.50841 27.5269 1.58189 26.6042 1.41726C26.6042 1.41726 23.7825 0.636217 22.477 0.659188H12.7791Z" fill="#C6E8FF"/>
<path d="M13.6019 0.162277C13.6019 0.162277 12.6562 0.12782 12.6945 1.31852C12.7328 2.50922 13.6938 5.34623 16.5269 5.79035C19.3601 6.23447 21.2132 4.0981 21.7492 3.45489C22.2852 2.81168 22.6412 1.03137 22.3388 0.445595C22.3388 0.445595 21.6075 -0.515388 20.9145 0.372852C20.9145 0.372852 19.988 3.8837 17.9933 3.79564C15.9986 3.70758 15.0874 2.53219 14.8577 1.42572C14.8577 1.42572 14.5207 0.01679 13.6095 0.162277H13.6019Z" fill="#E3F5FF"/>
<path d="M14.5586 0.72968C14.5586 0.72968 14.6505 3.44034 17.4454 3.7428C17.4454 3.7428 20.5466 4.24052 20.8222 0.660765C20.8222 0.660765 17.0663 0.354476 14.5624 0.72968H14.5586Z" fill="#9AD7FF"/>
<path d="M33.3885 8.15224L28.682 13.2958C28.3722 13.6343 28.3955 14.1598 28.734 14.4696L29.1295 14.8314C29.468 15.1412 29.9935 15.1178 30.3033 14.7793L35.0098 9.63581C35.3196 9.29729 35.2963 8.77177 34.9577 8.46202L34.5623 8.10017C34.2238 7.79042 33.6983 7.81373 33.3885 8.15224Z" fill="#E3F5FF"/>
<path d="M0.214994 9.64003L4.92156 14.7836C5.23132 15.1221 5.75684 15.1454 6.09535 14.8356L6.49079 14.4738C6.8293 14.164 6.85261 13.6385 6.54286 13.3L1.83629 8.15647C1.52654 7.81796 1.00101 7.79464 0.662502 8.1044L0.267064 8.46624C-0.0714479 8.776 -0.0947604 9.30152 0.214994 9.64003Z" fill="#E3F5FF"/>
<path d="M7.57174 27.3037L27.5227 27.3037C28.0872 27.3037 28.5449 26.8469 28.5449 26.2834C28.5449 25.7199 28.0872 25.2631 27.5227 25.2631L7.57174 25.2631C7.00718 25.2631 6.5495 25.7199 6.5495 26.2834C6.5495 26.8469 7.00718 27.3037 7.57174 27.3037Z" fill="#E3F5FF"/>
<path d="M37.625 11.1949C37.625 11.1949 40.9214 10.3296 43.479 12.3014L42.7132 13.4117L38.8999 13.8137L37.625 11.1949Z" fill="#FFD7C0"/>
<path d="M32.9229 15.709L36.2538 11.9072C36.2538 11.9072 37.0693 11.1415 37.6245 11.1951C37.6245 11.1951 38.417 12.4623 40.8137 12.6193C43.2104 12.7763 43.4785 12.3015 43.4785 12.3015C43.4785 12.3015 43.98 12.9065 43.689 13.8062L38.5548 20.2651L37.6513 22.4014L33.7767 21.3486L30.6641 17.4472L31.3762 16.157L32.9229 15.7167V15.709Z" fill="#FFBA8E"/>
<path d="M25.3394 21.1147C25.3394 21.1147 24.5889 21.2449 23.1992 23.5191L20.9747 26.9419C20.9747 26.9419 20.1669 28.458 20.8292 29.9474C21.4916 31.4367 24.6425 35.005 27.5982 34.8825C27.5982 34.8825 28.6243 34.8595 29.6772 33.7836C29.6772 33.7836 34.283 29.6526 34.6199 28.6648L25.3432 21.1186L25.3394 21.1147Z" fill="#95939E"/>
<path d="M25.34 21.1138C25.34 21.1138 24.647 23.4569 27.3845 25.7656C30.122 28.0743 31.3777 28.9663 33.3227 28.8668C33.3227 28.8668 34.3028 29.0697 35.1489 28.2925C35.9951 27.5153 35.9491 26.3897 35.9491 26.3897C35.9491 26.3897 36.0678 25.8498 36.466 25.4517C36.8642 25.0535 38.2731 23.0549 38.2731 23.0549C38.2731 23.0549 39.1881 22.6338 38.5564 20.2601L38.0549 20.7616C38.0549 20.7616 37.9745 21.6077 37.3695 21.6728C37.3695 21.6728 36.2056 21.8183 34.9116 20.7961C34.9116 20.7961 32.8211 19.345 32.3119 18.3725C31.8027 17.4001 31.3548 16.4582 32.3923 16.106C32.3923 16.106 32.5761 16.0754 32.9245 15.7078C32.9245 15.7078 31.1978 15.4513 30.7345 15.8839L27.909 18.8205C27.909 18.8205 27.2237 19.3144 26.8715 19.3297C26.5192 19.345 25.497 19.992 25.3362 21.1138H25.34Z" fill="#F9D998"/>
</g>
<defs>
<clipPath id="clip0_588_32863">
<rect width="43.7841" height="34.8864" fill="white"/>
</clipPath>
</defs>
</svg>
