<svg width="38" height="38" viewBox="0 0 38 38" fill="none" xmlns="http://www.w3.org/2000/svg">
<g clip-path="url(#clip0_588_32908)">
<path d="M0.36397 18.0143L9.1898 11.7012L21.2211 27.3333L12.7906 33.8421C12.7906 33.8421 11.4599 34.9771 10.274 33.4468L0.708393 20.6757C0.708393 20.6757 -0.622331 19.392 0.36397 18.0143Z" fill="#A5EE79"/>
<path d="M3.89014 17.3757C3.89014 17.3757 4.51636 20.0841 3.13867 20.7965L10.2698 30.0098C10.2698 30.0098 12.3559 29.5519 13.6905 30.6751L20.0976 25.8689L9.99973 12.7495L3.89405 17.3718L3.89014 17.3757Z" fill="#94DD7A"/>
<path d="M8.22656 17.9603L8.89192 18.794C8.89192 18.794 8.10132 20.4183 8.55924 21.4202C9.01717 22.4222 9.60034 23.4476 11.8117 22.974C11.8117 22.974 13.8978 22.5044 14.1483 23.4202C14.3988 24.3361 13.3968 24.7549 12.8136 24.8371C12.2305 24.9192 11.6199 25.0445 11.6199 25.0445L12.0778 26.4339C12.0778 26.4339 13.2637 26.7901 14.1874 25.9486L14.9819 26.9506L15.9839 26.1091L15.209 25.0445C15.209 25.0445 16.1444 23.7529 15.7921 22.6531C15.4399 21.5533 13.9487 20.7157 12.3362 20.9388C10.7236 21.1619 10.3322 21.068 10.1718 20.6805C10.1718 20.6805 9.88214 20.066 10.7158 19.6629C11.5495 19.2598 12.3792 19.1854 12.3792 19.1854L11.616 17.5963L10.0113 18.203L9.18547 17.2676L8.22656 17.9603Z" fill="white"/>
<path d="M16.8301 5.90137L28.9984 21.7135L37.8477 15.1851C37.8477 15.1851 38.3643 14.4337 37.468 13.1264L27.9651 1.03249C27.9651 1.03249 26.517 -0.724854 25.2097 0.34364L16.834 5.90137H16.8301Z" fill="#A5EE79"/>
<path d="M24.0355 2.89209C24.0355 2.89209 25.7458 4.44199 27.8085 3.3187L34.7204 12.078C34.7204 12.078 33.421 13.5418 33.7811 15.7336L27.8359 20.1993L17.875 7.26L24.0355 2.89209Z" fill="#94DD7A"/>
<path d="M19.668 9.65496C19.668 9.65496 20.5721 8.20682 22.9243 7.08353C25.2766 5.96024 28.3529 7.22834 29.257 8.20682C29.257 8.20682 31.03 10.015 30.7756 13.0561C30.7756 13.0561 29.9772 16.7352 25.9224 17.7176L19.6641 9.65496H19.668Z" fill="#82C666"/>
<path d="M0 19.7412V22.9741C0 22.9741 0.074364 23.6042 0.555773 24.1757L9.65166 36.2461C9.65166 36.2461 10.6888 37.8391 12.1057 36.9076L22.1722 29.4007C22.1722 29.4007 22.18 28.0974 21.2211 27.3342L12.7906 33.843L10.0548 33.1541L0 19.7412Z" fill="#F2FFEA"/>
<path d="M29.002 21.7134V24.1753L34.4149 20.4258C34.4149 20.4258 35.2329 19.8817 35.8239 18.7428L37.8513 15.1812L29.002 21.7095V21.7134Z" fill="#F2FFEA"/>
<path d="M9.18936 11.7011C9.18936 11.7011 8.76275 10.7266 9.65903 10.1277L15.4359 6.10034C15.4359 6.10034 15.8743 5.54848 16.8293 5.90073C16.8293 5.90073 28.2892 19.7403 28.9976 21.7129V24.1747C28.9976 24.1747 28.9036 25.8107 27.9291 26.4996L23.7686 29.7011C23.7686 29.7011 22.798 30.5113 21.7647 29.7011L22.1717 29.3958C22.1717 29.3958 22.1052 28.2021 21.2207 27.3293L9.18936 11.7011Z" fill="#EDEDEC"/>
</g>
<defs>
<clipPath id="clip0_588_32908">
<rect width="38" height="37.2016" fill="white"/>
</clipPath>
</defs>
</svg>
