<svg width="100%" height="100%" viewBox="0 0 83 126" fill="none" xmlns="http://www.w3.org/2000/svg">
<g clip-path="url(#clip0_113_24739)">
<path d="M78.65 107.01L78.67 115.68C78.67 116.48 78.67 117.29 78.43 118.05C78.11 119.07 77.37 119.91 76.51 120.55C75.01 121.65 73.16 122.16 71.34 122.59C58.09 125.74 44.31 126.25 30.72 125.35C24.84 124.96 18.96 124.31 13.24 122.91C10.3 122.19 7.38002 121.25 4.80002 119.67C4.22002 119.31 3.63002 118.9 3.31002 118.3C2.97002 117.67 2.96002 116.92 2.97002 116.2C2.98002 112.5 2.66002 108.62 3.04002 104.95C4.41002 105.03 6.08002 106 7.46002 106.43C9.16002 106.96 10.9 107.41 12.64 107.78C16.15 108.52 19.73 108.95 23.31 109.17C30.57 109.62 37.84 109.24 45.09 108.83L78.63 106.94V107.03L78.65 107.01Z" fill="#FFDA40"/>
<path d="M39.2111 84.05C58.3146 84.05 73.8011 81.6368 73.8011 78.66C73.8011 75.6832 58.3146 73.27 39.2111 73.27C20.1076 73.27 4.62109 75.6832 4.62109 78.66C4.62109 81.6368 20.1076 84.05 39.2111 84.05Z" fill="#FFF3C0"/>
<path d="M25.5995 75.4704C25.5995 75.4704 9.96946 76.0404 6.08946 77.8604C6.08946 77.8604 4.63946 74.9704 13.2895 74.4604C13.2895 74.4604 25.4295 72.4604 25.5995 75.4804V75.4704Z" fill="#FFC52F"/>
<path d="M0.190912 77.09C0.880912 76.23 4.21091 74.4 19.9609 73.81C19.9609 73.81 6.26091 75.46 6.15091 77.07C6.15091 77.07 4.54091 79.1 12.0909 79.69C12.0909 79.69 30.5409 81.07 47.5609 80.33C47.5609 80.33 71.7909 79.62 70.5409 77.54C70.5409 77.54 70.6309 76.45 66.6309 75.57C65.1009 75.23 61.8009 74.59 60.2409 74.55L54.2409 73.84L51.8009 74.74L55.0309 72.75C55.0309 72.75 64.8309 73.12 72.5609 75.35C72.5609 75.35 76.4309 76.38 76.7209 77.53V80.53L65.8509 84.04L5.46091 86.5L0.0909119 78.07C-0.0890881 77.89 0.0209119 77.28 0.180912 77.08L0.190912 77.09Z" fill="#FFDA40"/>
<path d="M82.3996 91.2601C82.3996 91.2601 84.1696 89.5401 76.7196 88.5801V90.4501L21.0996 95.1301L24.8996 99.5701L78.9296 98.4501L82.3996 91.2701V91.2601Z" fill="#FFDA40"/>
<path d="M3.04971 104.93C3.04971 104.93 2.67971 102.39 5.94971 101.54L10.7197 107.96L8.01971 107.44C6.65971 107.18 5.36971 106.62 4.24971 105.8L3.04971 104.92V104.93Z" fill="#FFC52F"/>
<path d="M0.000234375 77.7601C0.0502344 80.6901 0.0502344 83.4601 0.0302344 86.3901L0.0102344 89.7401C0.0102344 90.1801 0.0102344 90.6501 0.230234 91.0301C0.450234 91.4101 0.850234 91.6501 1.24023 91.8601C5.10023 93.9301 9.46023 94.8401 13.8002 95.3901C20.6802 96.2701 27.6302 96.3101 34.5602 96.3201C46.0002 96.3201 57.7802 96.4801 68.9502 94.0201C71.2002 93.5201 73.4502 92.9301 75.5102 91.9001C75.9902 91.6601 76.4902 91.3601 76.7402 90.8801C76.9302 90.5001 76.9402 90.0501 76.9402 89.6201C76.9402 85.6901 76.7202 81.5101 76.7302 77.5801C75.4602 79.1601 73.3402 79.7401 71.3502 80.1101C67.5302 80.8301 63.6402 81.1301 59.7602 81.3501C52.5302 81.7601 45.2902 81.9001 38.0502 82.0401C30.8702 82.1801 23.6802 82.3101 16.5002 81.9201C12.1302 81.6801 7.74023 81.2501 3.54023 80.0401C2.26023 79.6701 0.410234 79.1801 -0.00976562 77.7601H0.000234375Z" fill="#FFEEA6"/>
<path d="M6.07086 92.9001C5.91086 92.9801 5.96086 94.1601 5.96086 94.5501C5.96086 95.0601 5.96086 95.5701 5.95086 96.0701L5.92086 99.0001L5.88086 103.69C5.88086 104.72 5.90086 105.85 6.59086 106.62C7.16086 107.25 8.03086 107.46 8.86086 107.64C22.6509 110.67 36.8009 112.06 50.9109 111.79C57.4009 111.66 63.9209 111.18 70.2509 109.75C73.8909 108.93 77.4809 107.78 80.7109 105.92C81.2309 105.62 81.7609 105.28 82.0609 104.76C82.3809 104.2 82.3909 103.52 82.4009 102.88C82.4009 99.0301 82.5509 94.7101 82.5609 90.8701C81.6209 93.9801 74.0409 96.1901 69.1409 96.6201C61.5609 97.3001 53.9409 97.6001 46.3309 97.5501C38.7209 97.5001 31.0309 97.0601 23.4209 96.2701C19.6109 95.8701 15.8209 95.3801 12.0409 94.8001C11.0909 94.6501 10.1509 94.5001 9.21086 94.3501C8.35086 94.2101 7.24086 93.8001 6.38086 93.8601C6.24086 93.8601 6.15086 92.8901 6.09086 92.9201L6.07086 92.9001Z" fill="#FFEEA6"/>
<path d="M33.4805 0.320221C33.7805 -0.159779 39.7205 0.0202208 40.9805 0.0902208C50.2005 0.610221 59.3705 4.43022 65.6305 11.3302C74.0005 20.5602 76.2605 34.0802 74.4305 46.3902C73.3405 53.7002 69.2305 63.5302 64.4005 67.9302C54.5305 76.9202 45.1205 77.2202 37.7905 77.3902C36.3905 64.2402 43.6005 49.1002 42.2005 35.9502L40.1005 16.2302L39.0505 6.37022C38.8805 4.80022 38.6105 3.21022 38.5505 1.64022C38.5205 0.970221 33.3405 0.560221 33.4905 0.320221H33.4805Z" fill="#FFC52F"/>
<path d="M24.9702 75.2701C30.5202 77.3901 36.5802 78.0301 42.3702 76.7301C50.7402 74.8401 58.0102 69.1101 62.5102 61.8001C67.0102 54.4901 68.8502 45.7201 68.5402 37.1501C68.1702 27.0501 64.7002 16.8501 57.7202 9.54006C44.2902 -4.50994 21.5702 -2.34994 9.97023 12.8201C5.07023 19.2301 2.44023 27.2301 1.89023 35.2801C1.11023 46.4601 4.44023 58.1201 11.9802 66.4201C15.5302 70.3201 20.0402 73.3801 24.9702 75.2701Z" fill="#FFDA40"/>
<path d="M27.4405 7.05036C19.1805 9.38036 11.8205 15.3804 8.18047 24.2704C4.36047 33.6004 5.14047 44.5004 9.36047 53.6604C13.7205 63.1204 22.3305 71.1904 32.6805 72.3604C40.7105 73.2704 48.9305 69.8604 54.5805 64.0804C60.2305 58.3004 63.3805 50.3504 64.1005 42.3004C64.9505 32.8204 62.3705 22.8704 56.1705 15.6404C48.4905 6.69036 37.3105 4.25036 27.4405 7.04036V7.05036Z" fill="#FFF3C0"/>
<path d="M31.5404 16.94C30.6604 17.83 31.2804 20.94 31.4904 22.03C27.5504 22.96 24.7804 27.08 24.9004 31.13C25.0204 35.18 27.7004 38.92 31.2604 40.85C32.9104 41.74 34.7804 42.32 36.1504 43.6C37.5204 44.88 38.1704 47.25 36.8604 48.61C35.9804 49.52 34.5504 49.64 33.2904 49.49C30.9204 49.22 28.6404 48.23 26.8204 46.7L24.4304 49.39C24.2204 49.63 24.0004 49.89 23.9804 50.21C23.9604 50.49 24.1004 50.75 24.2504 50.98C25.7704 53.4 28.3704 55.11 31.2004 55.53L31.2604 60.27C32.7404 60.36 34.2304 60.36 35.7104 60.27V56.45C35.7104 56.23 35.7104 56 35.8404 55.82C35.9904 55.59 36.2904 55.5 36.5504 55.42C39.9704 54.4 42.7004 51.33 43.3004 47.81C43.9004 44.29 42.3504 40.49 39.4604 38.39C37.2304 36.78 34.4204 36.18 32.0804 34.75C31.1604 34.19 30.2704 33.44 29.9504 32.41C29.5004 30.96 30.3804 29.33 31.7004 28.6C33.0204 27.87 34.6704 27.93 36.1104 28.4C37.5504 28.87 38.8204 29.73 40.0804 30.58L42.5304 26.9C42.6904 26.66 42.8504 26.4 42.8304 26.12C42.8104 25.86 42.6304 25.64 42.4604 25.44C40.7804 23.58 38.2604 22.52 35.7504 22.61L35.6704 16.77C35.6704 16.59 31.9204 16.54 31.5204 16.92L31.5404 16.94Z" fill="#FFDA40"/>
</g>
<defs>
<clipPath id="clip0_113_24739">
<rect width="82.58" height="125.73" fill="white"/>
</clipPath>
</defs>
</svg>
