<svg width="100%" height="100%" viewBox="0 0 247 288" fill="none" xmlns="http://www.w3.org/2000/svg">
<g clip-path="url(#clip0_113_24736)">
<path d="M200.69 228.45C201.44 228.37 202.19 228.31 202.95 228.27C203.59 228.23 203.95 228.15 204.58 228.06C205.02 228 206.17 227.71 206.58 227.55C208.59 226.75 210.03 225.63 211.47 224.01C211.57 223.9 211.67 223.78 211.77 223.66C212.27 223.06 212.73 222.38 212.85 221.6C212.97 220.82 212.62 219.93 211.9 219.63C211.28 219.37 210.55 219.59 210.01 219.99C209.47 220.39 209.07 220.94 208.62 221.44C207.89 222.26 207.01 222.96 206.05 223.49C205.53 223.78 204.93 224.02 204.35 223.95C204.15 223.93 204.01 223.75 204.04 223.55C204.23 222.34 204.56 221.16 204.76 219.96C204.98 218.65 205.04 217.28 204.59 216.03C204.04 214.5 202.75 213.3 201.27 212.61C199.8 211.92 198.07 211.69 196.55 212.24C194.55 212.97 193.2 214.94 192.72 217.01C192.06 219.84 192.86 222.98 194.79 225.15C194.89 225.26 194.84 225.44 194.69 225.47C192.8 225.91 190.83 225.97 188.92 225.65C188.71 226.15 188.41 228.13 188.81 229.41C188.85 229.55 188.91 229.7 189.03 229.79C189.13 229.86 190.56 229.94 190.68 229.94C192.68 230.05 194.66 229.82 196.58 229.25C197.93 228.85 199.31 228.61 200.7 228.46L200.69 228.45ZM196.44 218.59C196.44 218.59 196.44 218.53 196.44 218.5C196.46 217.86 196.61 217.21 196.96 216.67C197.31 216.13 197.88 215.72 198.52 215.65C199 215.6 199.5 215.75 199.89 216.04C200.28 216.33 200.58 216.74 200.75 217.19C201.02 217.89 201.01 218.68 200.91 219.42C200.76 220.48 200.43 221.5 199.94 222.45C199.84 222.64 199.7 222.9 199.49 222.99C199.28 223.08 198.96 222.91 198.77 222.81C198.01 222.4 197.4 221.76 196.99 221C196.58 220.24 196.42 219.44 196.43 218.61L196.44 218.59Z" fill="#FFAF22"/>
<path d="M95.49 253.88C93.52 255.71 93.82 259.08 93.69 261.34C93.44 265.66 93.72 270 94.53 274.28C94.66 274.95 94.81 275.65 95.35 276.16C95.86 276.64 96.62 276.88 97.36 277.07C103.49 278.69 110.21 278.79 116.41 277.35C117.49 277.1 118.65 276.74 119.22 275.94C119.64 275.35 119.64 274.63 119.63 273.94L119.41 255.37C119.41 254.71 119.37 253.99 118.87 253.47C118.19 252.76 116.93 252.69 115.83 252.68L101.39 252.52C100.05 252.51 98.69 252.49 97.42 252.84C96.6 253.07 95.97 253.43 95.48 253.89L95.49 253.88Z" fill="#FFAF22"/>
<path d="M175.23 252.68C177.2 254.51 176.9 257.88 177.03 260.14C177.28 264.46 177 268.8 176.19 273.08C176.06 273.75 175.91 274.45 175.37 274.96C174.86 275.44 174.1 275.68 173.36 275.87C167.23 277.49 160.51 277.59 154.31 276.15C153.23 275.9 152.07 275.54 151.5 274.74C151.08 274.15 151.08 273.43 151.09 272.74L151.31 254.17C151.31 253.51 151.35 252.79 151.85 252.27C152.53 251.56 153.79 251.49 154.89 251.48L169.33 251.32C170.67 251.31 172.03 251.29 173.3 251.64C174.12 251.87 174.75 252.23 175.24 252.69L175.23 252.68Z" fill="#FFAF22"/>
<path d="M87.4392 262.34C85.2792 264.28 85.6192 267.83 85.4792 270.22C85.2092 274.78 85.5192 279.37 86.3992 283.88C86.5392 284.58 86.7092 285.33 87.2992 285.87C87.8492 286.38 88.6892 286.63 89.4992 286.83C96.1992 288.54 103.549 288.65 110.329 287.12C111.509 286.85 112.779 286.48 113.399 285.63C113.859 285 113.859 284.24 113.849 283.52L113.609 263.9C113.609 263.2 113.569 262.44 113.019 261.89C112.279 261.14 110.899 261.07 109.699 261.05L93.9092 260.88C92.4492 260.86 90.9592 260.85 89.5692 261.22C88.6792 261.46 87.9792 261.84 87.4492 262.33L87.4392 262.34Z" fill="#FFC931"/>
<path d="M170.7 262.34C172.86 264.28 172.52 267.83 172.66 270.22C172.93 274.78 172.62 279.37 171.74 283.88C171.6 284.58 171.43 285.33 170.84 285.87C170.29 286.38 169.45 286.63 168.64 286.83C161.94 288.54 154.59 288.65 147.81 287.12C146.63 286.85 145.36 286.48 144.74 285.63C144.28 285 144.28 284.24 144.29 283.52L144.53 263.9C144.53 263.2 144.57 262.44 145.12 261.89C145.86 261.14 147.24 261.07 148.44 261.05L164.23 260.88C165.69 260.86 167.18 260.85 168.57 261.22C169.46 261.46 170.16 261.84 170.69 262.33L170.7 262.34Z" fill="#FFC931"/>
<path d="M109.19 155.14C114.2 153.84 119.36 153.12 124.57 153.06C151.36 152.74 177.53 169.94 187.15 194.36C194.74 213.62 191.6 236.33 179.94 253.41C167.15 272.14 144.22 273.61 122.82 273.85C107.48 274.02 91.6499 270.43 79.5799 261.18C60.1699 246.31 54.0999 218.21 62.7399 195.63C70.2999 175.88 88.4199 160.53 109.19 155.14Z" fill="#FFF0B0"/>
<path d="M116.199 221.38C116.329 221.81 114.519 225.14 115.299 225.52C119.379 227.51 123.329 229.04 131.689 226.9C136.799 225.59 139.649 221.55 140.699 218.17C142.049 213.84 140.649 206.97 133.639 202.27C127.879 207.68 125.469 216.62 119.709 222.03C118.579 223.09 115.839 220.17 116.189 221.37L116.199 221.38Z" fill="#FFAF22"/>
<path d="M116.739 201.11C116.229 201.29 115.739 201.5 115.249 201.74C107.469 205.54 105.519 216.72 111.639 222.89C115.159 226.43 120.529 227.82 125.459 227.04C130.999 226.16 136.189 222.45 138.159 217.19C140.129 211.93 138.359 205.32 133.639 202.28C131.089 200.64 127.969 200.1 124.939 200C122.169 199.91 119.329 200.17 116.739 201.11Z" fill="#FFC931"/>
<path d="M121.889 210.37C121.779 209.86 121.629 209.36 121.409 208.87C121.129 208.23 120.729 207.62 120.139 207.26C119.549 206.9 118.729 206.83 118.179 207.25C117.659 207.64 117.479 208.34 117.359 208.99C117.029 210.9 117.099 212.74 117.229 214.66C117.329 216.24 117.269 217.83 118.079 219.26C118.269 219.6 118.529 219.94 118.889 220.09C119.319 220.27 119.829 220.16 120.219 219.9C120.609 219.64 120.879 219.24 121.089 218.82C121.709 217.62 121.889 216.25 122.009 214.91C122.149 213.4 122.209 211.84 121.899 210.37H121.889Z" fill="#FFF0B0"/>
<path d="M130.26 210.37C130.15 209.86 130 209.36 129.78 208.87C129.5 208.23 129.1 207.62 128.51 207.26C127.92 206.9 127.1 206.83 126.55 207.25C126.03 207.64 125.85 208.34 125.73 208.99C125.4 210.9 125.47 212.74 125.6 214.66C125.7 216.24 125.64 217.83 126.45 219.26C126.64 219.6 126.9 219.94 127.26 220.09C127.69 220.27 128.2 220.16 128.59 219.9C128.98 219.64 129.25 219.24 129.46 218.82C130.08 217.62 130.26 216.25 130.38 214.91C130.52 213.4 130.58 211.84 130.27 210.37H130.26Z" fill="#FFF0B0"/>
<path d="M75.8906 178.27C75.8906 178.27 69.4306 156.87 75.8906 150.04C82.3506 143.2 101.721 159.98 101.721 159.98C101.721 159.98 85.0106 167.64 75.8906 178.28V178.27Z" fill="#FFF0B0"/>
<path d="M150.59 160.35C150.59 160.35 160.74 150.4 168.03 149.52C169.61 149.33 171.22 149.85 172.34 150.99C174.78 153.47 178.27 160.09 175.66 177.06C175.66 177.06 166.92 166.05 150.59 160.35Z" fill="#FFF0B0"/>
<path d="M168.39 153.69C167.56 153.66 166.68 153.98 165.91 154.34C163.84 155.32 161.97 156.63 160.12 157.94C158.42 159.14 156.71 160.34 155.26 161.79C154.24 162.81 153.3 164.2 153.74 165.53C154.12 166.66 155.35 167.32 156.48 167.87L168.06 173.5C169.49 174.19 171.32 175.1 171.82 173.08C172.78 169.15 172.9 165.06 172.37 161.06C172.13 159.23 171.75 157.39 170.94 155.7C170.6 154.99 170.14 154.27 169.4 153.92C169.08 153.77 168.74 153.7 168.39 153.69Z" fill="#FFC931"/>
<path d="M80.429 153.39C80.969 153.19 81.589 153.07 82.309 153.05C83.739 153.01 85.169 153.29 86.459 153.86C87.999 154.54 89.299 155.6 90.589 156.65L96.079 161.15C96.649 161.62 97.269 162.18 97.279 162.91C97.279 163.71 96.569 164.33 95.909 164.84L83.669 174.24C83.049 174.72 82.259 175.23 81.519 174.97C80.929 174.77 80.639 174.16 80.419 173.6C78.829 169.59 74.169 155.75 80.439 153.4L80.429 153.39Z" fill="#FFC931"/>
<path d="M131.54 240.22C128.7 240.22 126.53 239.08 126.49 239.06C126 238.8 125.82 238.19 126.09 237.7C126.35 237.22 126.96 237.04 127.44 237.3C127.68 237.43 133.48 240.44 137.86 235.02C138.21 234.59 138.84 234.52 139.27 234.87C139.7 235.22 139.77 235.85 139.42 236.28C136.91 239.39 133.97 240.23 131.54 240.23V240.22Z" fill="#FFAF22"/>
<path d="M100.39 205.31C103.279 205.31 105.62 202.969 105.62 200.08C105.62 197.192 103.279 194.85 100.39 194.85C97.5017 194.85 95.1602 197.192 95.1602 200.08C95.1602 202.969 97.5017 205.31 100.39 205.31Z" fill="#2B110C"/>
<path d="M98.729 199C99.1542 199 99.499 198.655 99.499 198.23C99.499 197.805 99.1542 197.46 98.729 197.46C98.3037 197.46 97.959 197.805 97.959 198.23C97.959 198.655 98.3037 199 98.729 199Z" fill="white"/>
<path d="M148.41 205.31C151.298 205.31 153.64 202.969 153.64 200.08C153.64 197.192 151.298 194.85 148.41 194.85C145.521 194.85 143.18 197.192 143.18 200.08C143.18 202.969 145.521 205.31 148.41 205.31Z" fill="#2B110C"/>
<path d="M146.75 199C147.176 199 147.52 198.655 147.52 198.23C147.52 197.805 147.176 197.46 146.75 197.46C146.325 197.46 145.98 197.805 145.98 198.23C145.98 198.655 146.325 199 146.75 199Z" fill="white"/>
<path d="M57.5 41.04L60.01 54.63H67.52V41.04H57.5Z" fill="#FFD25A"/>
<path d="M175.859 99.8901L177.109 106.69H180.859V99.8901H175.859Z" fill="#8DEF67"/>
<path d="M194.311 38.2598V44.5198H201.111L200.031 38.2598H194.311Z" fill="#FFB585"/>
<path d="M101.34 54.6299V62.8999H110.31L108.9 54.6299H101.34Z" fill="#FFD4BB"/>
<path d="M73.4298 90.79L62.5098 96.14L68.8098 108.99L78.9498 102.03L73.4298 90.79Z" fill="#FFB585"/>
<path d="M161.43 70.0298L150.51 75.3898L156.81 88.2398L166.95 81.2798L161.43 70.0298Z" fill="#FF632E"/>
<path d="M1 150.69V157.85L18.89 161.78V156.24L1 150.69Z" fill="#FF632E"/>
<path d="M20.8604 40.71L16.5804 38.98L9.90039 48.73L13.2104 50.07L20.8604 40.71Z" fill="#FF632E"/>
<path d="M169.059 1L162.619 13.52L169.059 18.17L175.859 7.08L169.059 1Z" fill="#FFD25A"/>
<path d="M246.521 142.47L234.721 146.04L246.521 152.84V142.47Z" fill="#FFA417"/>
<path d="M24.7898 88.2399L24.6998 75.8999L14.8398 85.2999L24.7898 88.2399Z" fill="#8DEF67"/>
<path d="M99.0309 15.8098C101.599 15.8098 103.681 13.7279 103.681 11.1598C103.681 8.59164 101.599 6.50977 99.0309 6.50977C96.4627 6.50977 94.3809 8.59164 94.3809 11.1598C94.3809 13.7279 96.4627 15.8098 99.0309 15.8098Z" fill="#FF632E"/>
<path d="M216.181 117.71C217.86 117.71 219.221 116.349 219.221 114.67C219.221 112.991 217.86 111.63 216.181 111.63C214.502 111.63 213.141 112.991 213.141 114.67C213.141 116.349 214.502 117.71 216.181 117.71Z" fill="#FFB585"/>
<path d="M226.309 78.44C228.629 78.44 230.509 76.5596 230.509 74.24C230.509 71.9204 228.629 70.04 226.309 70.04C223.99 70.04 222.109 71.9204 222.109 74.24C222.109 76.5596 223.99 78.44 226.309 78.44Z" fill="#FFD25A"/>
</g>
<defs>
<clipPath id="clip0_113_24736">
<rect width="245.52" height="287.2" fill="white" transform="translate(0.699219 0.708984)"/>
</clipPath>
</defs>
</svg>
