<svg width="100%" height="100%" viewBox="0 0 269 323" fill="none" xmlns="http://www.w3.org/2000/svg">
<g clip-path="url(#clip0_113_24737)">
<path d="M267.82 309.24H0V322.24H267.82V309.24Z" fill="#6BC758"/>
<path d="M267.82 305.38H0V309.24H267.82V305.38Z" fill="#94DD83"/>
<path d="M267.82 292.38H0V305.38H267.82V292.38Z" fill="#6BC758"/>
<path d="M267.82 288.52H0V292.38H267.82V288.52Z" fill="#94DD83"/>
<path d="M267.82 275.51H0V288.51H267.82V275.51Z" fill="#6BC758"/>
<path d="M267.82 271.66H0V275.52H267.82V271.66Z" fill="#94DD83"/>
<path d="M267.82 258.65H0V271.65H267.82V258.65Z" fill="#6BC758"/>
<path d="M81.8398 43.6401L84.3398 57.2401H91.8498V43.6401H81.8398Z" fill="#FFD25A"/>
<path d="M160.92 171.74L162.17 178.54H165.93V171.74H160.92Z" fill="#8DEF67"/>
<path d="M164.9 77.27V83.53H171.7L170.63 77.27H164.9Z" fill="#FFB585"/>
<path d="M135.311 47.9102V56.1702H144.281L142.861 47.9102H135.311Z" fill="#FFD4BB"/>
<path d="M85.4905 101.61L74.5605 106.97L80.8605 119.82L91.0005 112.86L85.4905 101.61Z" fill="#FFB585"/>
<path d="M192.801 131.61L181.881 136.96L188.181 149.81L198.311 142.85L192.801 131.61Z" fill="#FF632E"/>
<path d="M24.5996 130.18V137.34L42.4896 141.28V135.73L24.5996 130.18Z" fill="#FF632E"/>
<path d="M44.5208 48.7901L40.2408 47.0601L33.5508 56.8001L36.8708 58.1501L44.5208 48.7901Z" fill="#FF632E"/>
<path d="M192.049 42.6699L185.609 55.1999L192.049 59.8499L198.839 48.7599L192.049 42.6699Z" fill="#FFD25A"/>
<path d="M135.23 118.3L123.42 121.88L135.23 128.68V118.3Z" fill="#FFA417"/>
<path d="M23.8995 96.6501L23.8095 84.3101L13.9395 93.7101L23.8995 96.6501Z" fill="#8DEF67"/>
<path d="M114.439 9.3C117.007 9.3 119.089 7.21812 119.089 4.65C119.089 2.08188 117.007 0 114.439 0C111.871 0 109.789 2.08188 109.789 4.65C109.789 7.21812 111.871 9.3 114.439 9.3Z" fill="#FF632E"/>
<path d="M214.351 175.98C216.03 175.98 217.391 174.619 217.391 172.94C217.391 171.261 216.03 169.9 214.351 169.9C212.672 169.9 211.311 171.261 211.311 172.94C211.311 174.619 212.672 175.98 214.351 175.98Z" fill="#FFB585"/>
<path d="M223.44 123.35C225.76 123.35 227.64 121.47 227.64 119.15C227.64 116.831 225.76 114.95 223.44 114.95C221.121 114.95 219.24 116.831 219.24 119.15C219.24 121.47 221.121 123.35 223.44 123.35Z" fill="#FFD25A"/>
<path d="M195.57 298.61C199.519 298.61 202.72 297.092 202.72 295.22C202.72 293.348 199.519 291.83 195.57 291.83C191.621 291.83 188.42 293.348 188.42 295.22C188.42 297.092 191.621 298.61 195.57 298.61Z" fill="#45454C"/>
<path opacity="0.45" d="M82.0398 300.75C105.76 300.75 124.99 298.247 124.99 295.16C124.99 292.073 105.76 289.57 82.0398 289.57C58.3192 289.57 39.0898 292.073 39.0898 295.16C39.0898 298.247 58.3192 300.75 82.0398 300.75Z" fill="#45454C"/>
<path d="M195.059 206.47C192.929 206.79 191.449 208.78 191.449 210.93V292.28C191.449 294.43 192.929 296.42 195.059 296.74C195.869 296.86 196.649 296.74 197.329 296.45C197.359 296.44 197.379 296.41 197.379 296.38V206.85C197.379 206.85 197.359 206.79 197.329 206.78C196.649 206.49 195.869 206.36 195.059 206.49V206.47Z" fill="#D4D3DD"/>
<path d="M197.369 206.78V296.42C198.859 295.76 199.909 294.27 199.909 292.55V210.66C199.909 208.93 198.859 207.44 197.369 206.79V206.78Z" fill="#AFAEC1"/>
<path d="M195.679 214.56C200.368 214.56 204.169 210.759 204.169 206.07C204.169 201.381 200.368 197.58 195.679 197.58C190.991 197.58 187.189 201.381 187.189 206.07C187.189 210.759 190.991 214.56 195.679 214.56Z" fill="#D4D3DD"/>
<path d="M191.461 213.62C191.461 213.62 194.211 215.64 199.951 213.46L241.171 202.04L241.221 210.23L254.721 209.82C254.721 209.82 264.131 210.09 264.621 218.4C264.621 218.4 265.921 223.94 260.471 228.05L268.711 229.26L246.971 242.25V237.03L199.841 249.68C199.841 249.68 195.381 251.79 191.391 250.74L191.461 213.62Z" fill="#FFF0B0"/>
<path d="M209.62 231.93C208.89 232.14 208.28 232.05 208.07 231.32C207.86 230.59 208.33 230.19 209.06 229.98L211.13 229.39C212.08 229.12 212.62 229.42 212.89 230.37L213.31 231.84C213.55 232.67 213.55 233.57 213.22 234.17C212.5 235.5 211.28 236.21 209.56 236.7C206.28 237.64 203.54 235.89 202.6 232.61C201.66 229.33 203.06 226.4 206.34 225.46C208.45 224.85 209.9 225.32 210.92 226.13C211.43 226.54 211.67 227.21 211.27 227.75C210.83 228.35 210.04 228.35 209.48 227.93C208.77 227.39 207.97 227.23 206.93 227.52C205.39 227.96 204.36 229.57 205.03 231.9C205.7 234.23 207.57 235.02 209.11 234.58C209.94 234.34 210.78 233.96 211.23 233.28C211.34 233.12 211.34 232.9 211.3 232.74L210.96 231.54L209.62 231.92V231.93Z" fill="#FFAF22"/>
<path d="M218.3 222.03C221.76 221.04 224.44 222.86 225.37 226.09C226.3 229.32 224.98 232.28 221.53 233.27C218.08 234.26 215.4 232.46 214.47 229.22C213.54 225.98 214.85 223.02 218.31 222.03H218.3ZM220.93 231.2C222.87 230.64 223.52 228.8 222.95 226.79C222.37 224.78 220.84 223.55 218.9 224.1C216.96 224.66 216.31 226.52 216.89 228.53C217.47 230.54 219 231.76 220.94 231.2H220.93Z" fill="#FFAF22"/>
<path d="M231.55 219.41L237.48 226.89C237.93 227.46 237.81 228.17 237.19 228.57C236.6 228.98 235.88 228.79 235.43 228.19L234.28 226.66L230.13 227.85L229.98 229.76C229.91 230.51 229.4 231.05 228.67 231.02C227.94 231.01 227.47 230.46 227.55 229.75L228.62 220.26C228.7 219.59 229.07 219.09 229.82 218.88C230.56 218.67 231.15 218.89 231.57 219.42L231.55 219.41ZM230.31 225.59L232.93 224.84L230.67 221.81L230.61 221.83L230.3 225.6L230.31 225.59Z" fill="#FFAF22"/>
<path d="M241.179 227.39C240.219 227.67 239.609 227.32 239.339 226.36L236.979 218.14C236.769 217.41 237.109 216.78 237.839 216.57C238.569 216.36 239.219 216.71 239.429 217.44L241.569 224.89L245.349 223.81C246.059 223.6 246.739 223.88 246.939 224.55C247.139 225.24 246.699 225.82 245.989 226.02L241.189 227.4L241.179 227.39Z" fill="#FFAF22"/>
<path d="M191.1 294.74C191.1 294.74 195.58 296.85 200.2 294.74L200.65 296.21L198.51 297.71L194.39 298L190.85 296.5L191.11 294.74H191.1Z" fill="#45454C"/>
<path d="M27.4909 199.85C23.8009 193.24 16.6009 193.92 15.7309 194.03C14.8609 194.14 13.3009 194.41 13.2009 196.53C13.1009 198.65 15.0809 198.49 15.0809 198.49H17.6709C21.7509 198.88 21.9509 200.53 21.9509 200.53C21.9509 200.53 16.1809 202.74 15.3409 206.95C14.7509 209.91 15.3809 214.21 19.1309 215.94C23.1309 217.78 26.6209 214.15 26.6209 214.15C29.5409 210.84 29.3409 206.96 29.3409 206.96C32.6509 209.49 33.8309 212.06 33.8309 212.06C34.3609 210.74 36.0709 207.48 36.0709 207.48C34.6009 204.81 27.4909 199.86 27.4909 199.86V199.85ZM23.4709 211.1C22.6509 211.78 19.7209 212.54 19.4209 209.82C19.0209 206.07 24.4709 204.97 24.4709 204.97C25.4709 208.17 24.2909 210.42 23.4709 211.1Z" fill="#FFAF22"/>
<path d="M137.781 207.86C136.681 207.82 136.231 207.75 136.231 207.75L134.161 207.37C129.481 196.18 116.911 188.93 116.911 188.93C116.211 186.63 116.521 182.51 116.521 182.51C116.731 177.18 114.401 175.92 114.401 175.92C111.351 174.39 104.481 179.15 104.481 179.15C104.841 172.72 98.6915 176.69 98.6915 176.69C90.8115 181.22 86.6115 190.75 86.6115 190.75L60.9315 190.61C40.9615 191.58 30.8315 214.02 30.8315 214.02C26.5615 220.08 23.6915 248.14 37.8315 266.1C51.9815 284.06 83.4715 283.66 83.4715 283.66C116.421 287.36 128.621 269.32 128.621 269.32C134.791 260.02 135.161 249.47 139.731 239.42C141.071 236.48 142.481 232.74 144.091 229.94C144.801 228.72 145.371 228.7 145.371 228.7L137.791 207.89L137.781 207.86Z" fill="#FFF0B0"/>
<path d="M61.6104 270.44C61.6104 270.44 57.5104 265.94 52.1304 273.5C52.1304 273.5 48.2004 277.6 45.8104 279.26C43.4204 280.92 39.3004 283.89 44.7004 289.91C49.3204 295.06 55.9104 289.91 58.8604 286.96C61.8104 284.01 65.3904 280.33 65.3904 280.33C65.3904 280.33 67.6204 274.67 61.6004 270.44H61.6104Z" fill="#FFAF22"/>
<path d="M105.09 282.28C105.09 282.28 105.95 284.05 108.1 283.66C110.25 283.26 111.74 283 111.74 283C111.74 283 112.98 282.89 113 284.49C113.07 289.57 113.4 291.92 118.09 291.92C125.14 291.92 125.18 290.29 125.14 284.49C125.12 281.62 125.24 278.15 123.35 275.5C122.26 273.98 119.72 273.08 117.86 272.91C112.99 272.46 101.65 272.4 105.09 282.29V282.28Z" fill="#FFAF22"/>
<path d="M138.472 208.15C138.632 208.23 138.782 208.32 138.932 208.42C141.722 210.26 143.752 213.07 145.202 216.07C145.662 217.01 146.062 217.98 146.322 218.99C146.632 220.2 146.712 221.46 146.692 222.71C146.662 224.19 146.502 225.66 146.192 227.1C145.982 228.06 145.342 229.09 144.192 228.74C143.712 228.6 143.322 228.26 142.952 227.92C140.122 225.32 137.742 222.13 136.592 218.46C135.692 215.61 135.562 212.53 136.202 209.61C136.352 208.95 136.612 208.19 137.262 207.97C137.662 207.83 138.092 207.95 138.482 208.14L138.472 208.15Z" fill="#FFC931"/>
<path d="M104.401 179.12C104.361 179.33 104.301 179.54 104.241 179.73C103.161 183.38 102.961 187.29 103.681 191.03C103.921 192.3 104.271 193.62 103.921 194.87C103.471 196.51 101.951 197.59 100.541 198.54L98.2115 200.1C97.5815 200.52 96.7815 200.96 96.1115 200.59C95.6615 200.34 95.4615 199.81 95.3115 199.32C93.1315 192.05 94.8115 181.55 101.881 177.32C102.501 176.95 103.321 176.64 103.931 177.03C104.581 177.45 104.571 178.31 104.401 179.12Z" fill="#FFC931"/>
<path d="M114.111 177.49C113.491 177.49 112.871 177.81 112.421 178.26C111.881 178.79 111.541 179.49 111.251 180.18C110.341 182.31 109.821 184.54 109.451 186.81C109.371 187.28 109.411 187.82 109.751 188.16C110.051 188.46 110.511 188.51 110.941 188.55C112.931 188.73 114.931 188.85 116.941 188.92C116.591 187.3 116.441 185.64 116.491 183.99C116.541 182.57 116.731 181.12 116.391 179.73C116.141 178.73 115.491 177.71 114.481 177.52C114.361 177.5 114.241 177.49 114.121 177.49H114.111Z" fill="#FFC931"/>
<path d="M63.1407 194.08C62.6807 194.08 62.2107 194.1 61.7507 194.11C61.0507 194.13 60.3307 194.15 59.7007 194.45C58.8407 194.87 57.6807 196.41 58.9207 197.1C59.3207 197.33 59.8107 197.34 60.2707 197.34C61.4207 197.35 62.5707 197.35 63.7107 197.35H77.7407C78.3307 197.35 79.0107 197.31 79.3607 196.84C79.7907 196.26 79.4407 195.44 79.0907 194.81C78.9507 194.55 78.7907 194.28 78.5207 194.15C78.3307 194.06 78.1107 194.05 77.9007 194.05C72.9807 193.97 68.0607 193.98 63.1407 194.07V194.08Z" fill="#FED752"/>
<path d="M138.25 213.59C138.25 213.59 136.37 211.93 137.5 216C138.63 220.07 140.23 223.02 141.95 223.67C141.95 223.67 143.01 224.3 142.23 221.23C141.77 219.4 140.99 217.67 140.02 216.06C139.46 215.12 138.8 214.15 138.25 213.59Z" fill="#FFF4C7"/>
<path d="M141.421 212.65C141.421 212.65 139.701 211.13 140.731 214.86C141.761 218.6 143.241 221.3 144.811 221.89C144.811 221.89 145.781 222.47 145.071 219.65C144.641 217.97 143.931 216.39 143.041 214.9C142.521 214.04 141.921 213.14 141.421 212.64V212.65Z" fill="#FFF4C7"/>
<path d="M104.482 274.6C104.482 274.6 100.382 270.1 95.0015 277.66C95.0015 277.66 91.0715 281.76 88.6815 283.42C86.2915 285.08 82.1715 288.05 87.5715 294.07C92.1915 299.22 98.7815 294.07 101.732 291.12C104.682 288.17 108.262 284.49 108.262 284.49C108.262 284.49 110.492 278.83 104.472 274.6H104.482Z" fill="#FFC931"/>
<path d="M59.4109 274.22C59.4109 274.22 53.6509 277.55 55.7009 281.39C57.7509 285.23 62.3609 284.64 63.2609 284.49C64.1609 284.34 66.3309 283.95 66.5909 285.87C66.8509 287.79 65.6609 293.11 71.9909 293.06C80.1909 293 78.3909 288.69 78.7809 285.36C79.1609 282.03 77.1009 274.73 70.8209 273.07C64.5409 271.41 59.4209 274.22 59.4209 274.22H59.4109Z" fill="#FFC931"/>
<path d="M121.412 216.34C123.615 216.34 125.402 214.553 125.402 212.35C125.402 210.146 123.615 208.36 121.412 208.36C119.208 208.36 117.422 210.146 117.422 212.35C117.422 214.553 119.208 216.34 121.412 216.34Z" fill="#2B110C"/>
<path d="M123.631 211.53C123.957 211.53 124.221 211.266 124.221 210.94C124.221 210.614 123.957 210.35 123.631 210.35C123.305 210.35 123.041 210.614 123.041 210.94C123.041 211.266 123.305 211.53 123.631 211.53Z" fill="white"/>
<path fill-rule="evenodd" clip-rule="evenodd" d="M121.424 229.822C121.221 229.44 120.748 229.294 120.365 229.495C119.981 229.697 119.834 230.172 120.036 230.555L120.73 230.19C120.036 230.555 120.036 230.556 120.036 230.556L120.037 230.557L120.038 230.56L120.041 230.565L120.05 230.582C120.057 230.595 120.067 230.613 120.08 230.634C120.104 230.677 120.139 230.736 120.185 230.808C120.277 230.952 120.413 231.15 120.596 231.38C120.961 231.841 121.519 232.437 122.301 232.997C123.881 234.129 126.328 235.075 129.815 234.515C130.243 234.446 130.534 234.044 130.466 233.616C130.397 233.187 129.994 232.896 129.566 232.965C126.513 233.455 124.48 232.626 123.215 231.72C122.574 231.261 122.119 230.774 121.826 230.404C121.68 230.22 121.575 230.067 121.509 229.963C121.476 229.912 121.453 229.873 121.439 229.849C121.432 229.837 121.427 229.828 121.425 229.824C121.424 229.823 121.424 229.822 121.424 229.822C121.424 229.822 121.424 229.822 121.424 229.822Z" fill="#FFAF22"/>
</g>
<defs>
<clipPath id="clip0_113_24737">
<rect width="268.7" height="322.23" fill="white"/>
</clipPath>
</defs>
</svg>
