<svg width="206" height="241" viewBox="0 0 206 241" fill="none" xmlns="http://www.w3.org/2000/svg">
<g clip-path="url(#clip0_518_82158)">
<path d="M37.0619 189.176C37.0619 189.176 31.4819 203.426 18.4119 205.986C18.4119 205.986 12.4419 211.636 34.6019 218.916C34.6019 218.916 53.0419 222.736 61.1219 222.056L67.6619 204.186L37.0619 189.176V189.176Z" fill="#FED752"/>
<path d="M163.502 188.176C163.502 188.176 169.082 202.426 182.152 204.986C182.152 204.986 188.122 210.636 165.962 217.916C165.962 217.916 147.522 221.736 139.442 221.056L132.902 203.186L163.502 188.176Z" fill="#FED752"/>
<path d="M176.002 181.046C176.752 180.966 177.502 180.906 178.262 180.866C178.902 180.826 179.262 180.746 179.892 180.656C180.332 180.596 181.482 180.306 181.892 180.146C183.902 179.346 185.342 178.226 186.782 176.606C186.882 176.496 186.982 176.376 187.082 176.256C187.582 175.656 188.042 174.976 188.162 174.196C188.282 173.416 187.932 172.526 187.212 172.226C186.592 171.966 185.862 172.186 185.322 172.586C184.782 172.986 184.382 173.536 183.932 174.036C183.202 174.856 182.322 175.556 181.362 176.086C180.842 176.376 180.242 176.616 179.662 176.546C179.462 176.526 179.322 176.346 179.352 176.146C179.542 174.936 179.872 173.756 180.072 172.556C180.292 171.246 180.352 169.876 179.902 168.626C179.352 167.096 178.062 165.896 176.582 165.206C175.112 164.516 173.382 164.286 171.862 164.836C169.862 165.566 168.512 167.536 168.032 169.606C167.372 172.436 168.172 175.576 170.102 177.746C170.202 177.856 170.152 178.036 170.002 178.066C168.112 178.506 166.142 178.566 164.232 178.246C164.022 178.746 163.722 180.726 164.122 182.006C164.162 182.146 164.222 182.296 164.342 182.386C164.442 182.456 165.872 182.536 165.992 182.536C167.992 182.646 169.972 182.416 171.892 181.846C173.242 181.446 174.622 181.206 176.012 181.056L176.002 181.046ZM171.752 171.186C171.752 171.186 171.752 171.126 171.752 171.096C171.772 170.456 171.922 169.806 172.272 169.266C172.622 168.726 173.192 168.316 173.832 168.246C174.312 168.196 174.812 168.346 175.202 168.636C175.592 168.926 175.892 169.336 176.062 169.786C176.332 170.486 176.322 171.276 176.222 172.016C176.072 173.076 175.742 174.096 175.252 175.046C175.152 175.236 175.012 175.496 174.802 175.586C174.592 175.676 174.272 175.506 174.082 175.406C173.322 174.996 172.712 174.356 172.302 173.596C171.892 172.836 171.732 172.036 171.742 171.206L171.752 171.186Z" fill="#FFAF22"/>
<path d="M70.8018 206.476C68.8318 208.306 69.1318 211.676 69.0018 213.936C68.7518 218.256 69.0318 222.596 69.8418 226.876C69.9718 227.546 70.1218 228.246 70.6618 228.756C71.1718 229.236 71.9318 229.476 72.6718 229.666C78.8018 231.286 85.5218 231.386 91.7218 229.946C92.8018 229.696 93.9618 229.336 94.5318 228.536C94.9518 227.946 94.9518 227.226 94.9418 226.536L94.7218 207.966C94.7218 207.306 94.6818 206.586 94.1818 206.066C93.5018 205.356 92.2418 205.286 91.1418 205.276L76.7018 205.116C75.3618 205.106 74.0018 205.086 72.7318 205.436C71.9118 205.666 71.2818 206.026 70.7918 206.486L70.8018 206.476Z" fill="#FFAF22"/>
<path d="M150.542 205.266C152.512 207.096 152.212 210.466 152.342 212.726C152.592 217.046 152.312 221.386 151.502 225.666C151.372 226.336 151.222 227.036 150.682 227.546C150.172 228.026 149.412 228.266 148.672 228.456C142.542 230.076 135.822 230.176 129.622 228.736C128.542 228.486 127.382 228.126 126.812 227.326C126.392 226.736 126.392 226.016 126.402 225.326L126.622 206.756C126.622 206.096 126.662 205.376 127.162 204.856C127.842 204.146 129.102 204.076 130.202 204.066L144.642 203.906C145.982 203.896 147.342 203.876 148.612 204.226C149.432 204.456 150.062 204.816 150.552 205.276L150.542 205.266Z" fill="#FFAF22"/>
<path d="M62.7519 214.936C60.5919 216.876 60.9319 220.426 60.7919 222.816C60.5219 227.376 60.8319 231.966 61.7119 236.476C61.8519 237.176 62.0219 237.926 62.6119 238.466C63.1619 238.976 64.0019 239.226 64.8119 239.426C71.5119 241.136 78.8619 241.246 85.6419 239.716C86.8219 239.446 88.0919 239.076 88.7119 238.226C89.1719 237.596 89.1719 236.836 89.1619 236.116L88.9219 216.496C88.9219 215.796 88.8819 215.036 88.3319 214.486C87.5919 213.736 86.2119 213.666 85.0119 213.646L69.2219 213.476C67.7619 213.456 66.2719 213.446 64.8819 213.816C63.9919 214.056 63.2919 214.436 62.7619 214.926L62.7519 214.936Z" fill="#FFC931"/>
<path d="M146.012 214.936C148.172 216.876 147.832 220.426 147.972 222.816C148.242 227.376 147.932 231.966 147.052 236.476C146.912 237.176 146.742 237.926 146.152 238.466C145.602 238.976 144.762 239.226 143.952 239.426C137.252 241.136 129.902 241.246 123.122 239.716C121.942 239.446 120.672 239.076 120.052 238.226C119.592 237.596 119.592 236.836 119.602 236.116L119.842 216.496C119.842 215.796 119.882 215.036 120.432 214.486C121.172 213.736 122.552 213.666 123.752 213.646L139.542 213.476C141.002 213.456 142.492 213.446 143.882 213.816C144.772 214.056 145.472 214.436 146.002 214.926L146.012 214.936Z" fill="#FFC931"/>
<path d="M85.042 108.006C90.052 106.706 95.212 105.986 100.422 105.926C127.212 105.606 153.382 122.806 163.002 147.226C170.592 166.486 167.452 189.196 155.792 206.276C143.002 225.006 120.072 226.476 98.672 226.716C83.332 226.886 67.502 223.296 55.432 214.046C36.022 199.176 29.952 171.076 38.592 148.496C46.142 128.736 64.272 113.386 85.042 108.006Z" fill="#FFF0B0"/>
<path d="M91.5119 173.976C91.6419 174.406 89.8319 177.736 90.6119 178.116C94.6919 180.106 98.6419 181.636 107.002 179.496C112.112 178.186 114.962 174.146 116.012 170.766C117.362 166.436 115.962 159.566 108.952 154.866C103.192 160.276 100.782 169.216 95.0219 174.626C93.8919 175.686 91.1519 172.766 91.5019 173.966L91.5119 173.976Z" fill="#FFAF22"/>
<path d="M92.052 153.706C91.542 153.886 91.0519 154.096 90.5619 154.336C82.7819 158.136 80.8319 169.316 86.9519 175.486C90.4719 179.026 95.8419 180.416 100.772 179.636C106.312 178.756 111.502 175.046 113.472 169.786C115.442 164.526 113.672 157.916 108.952 154.876C106.402 153.236 103.282 152.696 100.252 152.596C97.4819 152.506 94.642 152.766 92.052 153.706V153.706Z" fill="#FFC931"/>
<path d="M97.2118 162.966C97.1018 162.456 96.9519 161.956 96.7319 161.466C96.4519 160.826 96.0518 160.216 95.4618 159.856C94.8718 159.496 94.0518 159.426 93.5018 159.846C92.9818 160.236 92.8018 160.936 92.6818 161.586C92.3518 163.496 92.4219 165.336 92.5519 167.256C92.6519 168.836 92.5918 170.426 93.4018 171.856C93.5918 172.196 93.8518 172.536 94.2118 172.686C94.6418 172.866 95.1518 172.756 95.5418 172.496C95.9318 172.236 96.2019 171.836 96.4119 171.416C97.0319 170.216 97.2118 168.846 97.3318 167.506C97.4718 165.996 97.5318 164.436 97.2218 162.966H97.2118Z" fill="#FFF0B0"/>
<path d="M105.582 162.966C105.472 162.456 105.322 161.956 105.102 161.466C104.822 160.826 104.422 160.216 103.832 159.856C103.242 159.496 102.422 159.426 101.872 159.846C101.352 160.236 101.172 160.936 101.052 161.586C100.722 163.496 100.792 165.336 100.922 167.256C101.022 168.836 100.962 170.426 101.772 171.856C101.962 172.196 102.222 172.536 102.582 172.686C103.012 172.866 103.522 172.756 103.912 172.496C104.302 172.236 104.572 171.836 104.782 171.416C105.402 170.216 105.582 168.846 105.702 167.506C105.842 165.996 105.902 164.436 105.592 162.966H105.582Z" fill="#FFF0B0"/>
<path d="M51.2019 130.856C51.2019 130.856 44.7419 109.456 51.2019 102.626C57.6619 95.7858 77.0319 112.566 77.0319 112.566C77.0319 112.566 60.3219 120.226 51.2019 130.866V130.856Z" fill="#FFF0B0"/>
<path d="M125.902 112.946C125.902 112.946 136.052 102.996 143.342 102.116C144.922 101.926 146.532 102.446 147.652 103.586C150.092 106.066 153.582 112.686 150.972 129.656C150.972 129.656 142.232 118.646 125.902 112.946Z" fill="#FFF0B0"/>
<path d="M143.712 106.286C142.882 106.256 142.002 106.576 141.232 106.936C139.162 107.916 137.292 109.226 135.442 110.536C133.742 111.736 132.032 112.936 130.582 114.386C129.562 115.406 128.622 116.796 129.062 118.126C129.442 119.256 130.672 119.916 131.802 120.466L143.382 126.096C144.812 126.786 146.642 127.696 147.142 125.676C148.102 121.746 148.222 117.656 147.692 113.656C147.452 111.826 147.072 109.986 146.262 108.296C145.922 107.586 145.462 106.866 144.722 106.516C144.402 106.366 144.062 106.296 143.712 106.286V106.286Z" fill="#FFC931"/>
<path d="M55.742 105.986C56.282 105.786 56.902 105.666 57.622 105.646C59.052 105.606 60.482 105.886 61.772 106.456C63.312 107.136 64.612 108.196 65.902 109.246L71.392 113.746C71.962 114.216 72.582 114.776 72.592 115.506C72.592 116.306 71.882 116.926 71.222 117.436L58.982 126.836C58.362 127.316 57.572 127.826 56.832 127.566C56.242 127.366 55.952 126.756 55.732 126.196C54.142 122.186 49.482 108.346 55.752 105.996L55.742 105.986Z" fill="#FFC931"/>
<path d="M106.852 192.816C104.012 192.816 101.842 191.676 101.802 191.656C101.312 191.396 101.132 190.786 101.402 190.296C101.662 189.816 102.272 189.626 102.752 189.896C103.012 190.036 108.792 193.026 113.172 187.616C113.522 187.186 114.152 187.116 114.582 187.466C115.012 187.816 115.082 188.446 114.732 188.876C112.222 191.986 109.282 192.826 106.852 192.826V192.816Z" fill="#FFAF22"/>
<path d="M75.7019 157.896C78.5904 157.896 80.9319 155.554 80.9319 152.666C80.9319 149.777 78.5904 147.436 75.7019 147.436C72.8135 147.436 70.4719 149.777 70.4719 152.666C70.4719 155.554 72.8135 157.896 75.7019 157.896Z" fill="#2B110C"/>
<path d="M74.042 151.596C74.4672 151.596 74.812 151.251 74.812 150.826C74.812 150.401 74.4672 150.056 74.042 150.056C73.6167 150.056 73.272 150.401 73.272 150.826C73.272 151.251 73.6167 151.596 74.042 151.596Z" fill="white"/>
<path d="M123.722 157.896C126.61 157.896 128.952 155.554 128.952 152.666C128.952 149.777 126.61 147.436 123.722 147.436C120.833 147.436 118.492 149.777 118.492 152.666C118.492 155.554 120.833 157.896 123.722 157.896Z" fill="#2B110C"/>
<path d="M122.062 151.596C122.487 151.596 122.832 151.251 122.832 150.826C122.832 150.401 122.487 150.056 122.062 150.056C121.637 150.056 121.292 150.401 121.292 150.826C121.292 151.251 121.637 151.596 122.062 151.596Z" fill="white"/>
<path d="M36.0018 152.396C36.0718 152.506 36.1518 152.606 36.2518 152.706C37.1618 153.516 41.7918 152.976 43.0518 152.986C47.5918 153.006 52.1518 152.666 56.5618 151.556C63.3718 149.846 69.8918 146.146 73.8318 140.346C77.1318 135.496 78.7418 131.736 79.4018 127.406C79.5918 126.136 81.3518 125.856 81.9118 127.016C83.3918 130.086 85.7218 132.516 89.4418 135.826C96.2218 141.826 105.082 145.156 114.052 146.326C122.102 147.376 130.282 146.786 138.312 145.506C139.112 145.376 139.292 144.296 138.572 143.926C135.592 142.386 132.942 140.206 130.872 137.556C130.722 137.366 130.922 137.096 131.152 137.186C136.192 139.156 141.492 140.486 146.872 141.116C147.722 141.216 148.212 140.166 147.592 139.576C140.672 133.106 133.852 126.146 130.852 117.236C130.422 115.946 130.052 114.606 129.242 113.516C128.622 112.686 127.782 112.056 126.902 111.496C124.042 109.666 120.852 108.396 117.542 107.686C108.602 105.776 99.3518 105.316 90.2618 106.316C85.2418 106.866 79.2818 108.356 75.2918 111.446C76.5918 113.186 77.5218 114.316 76.5818 116.286C75.8918 117.736 74.4318 118.566 73.2318 119.636C71.4218 121.246 69.1918 122.616 67.3018 124.126C65.1318 125.856 61.8118 128.246 58.5618 129.486C54.7918 130.926 53.2618 132.446 50.7918 128.736C50.3318 128.046 42.7318 137.526 42.1718 138.306C39.9318 141.386 38.1118 144.776 36.7918 148.356C36.3218 149.646 35.3618 151.376 35.9818 152.416L36.0018 152.396Z" fill="#FED752"/>
<path d="M137.892 129.486C139.762 131.016 141.802 132.346 143.932 133.486C146.792 135.016 149.812 136.216 152.892 137.216C154.452 137.716 156.032 138.166 157.622 138.586C158.402 138.786 159.182 138.986 159.962 139.166C160.742 139.346 161.362 139.106 160.742 138.336C157.162 133.906 156.512 132.266 152.472 129.216C151.552 130.356 149.982 131.446 148.572 131.046C146.482 130.456 144.602 129.296 142.682 128.266C138.712 126.136 134.412 124.476 131.022 121.516C132.772 124.596 135.152 127.256 137.902 129.496L137.892 129.486Z" fill="#FED752"/>
<path d="M72.0318 149.566C71.8418 149.566 71.6618 149.466 71.5818 149.286C71.3318 148.756 70.4318 147.336 69.3518 147.186C69.0818 147.146 68.8918 146.896 68.9318 146.616C68.9718 146.336 69.2218 146.156 69.5018 146.196C71.3318 146.456 72.4518 148.766 72.4918 148.866C72.6118 149.116 72.5018 149.416 72.2518 149.536C72.1818 149.566 72.1118 149.586 72.0418 149.586L72.0318 149.566Z" fill="#2B110C"/>
<path d="M73.7419 148.326C73.5019 148.326 73.2919 148.156 73.2519 147.906C73.1519 147.326 72.6719 145.716 71.6819 145.276C71.4319 145.166 71.3119 144.866 71.4319 144.616C71.5419 144.366 71.8419 144.246 72.0919 144.366C73.7819 145.116 74.2319 147.636 74.2519 147.746C74.3019 148.016 74.1119 148.276 73.8419 148.326C73.8119 148.326 73.7819 148.326 73.7619 148.326H73.7419Z" fill="#2B110C"/>
<path d="M127.472 149.566C127.402 149.566 127.322 149.546 127.262 149.516C127.012 149.396 126.902 149.096 127.022 148.846C127.072 148.746 128.182 146.446 130.012 146.176C130.282 146.136 130.542 146.326 130.582 146.596C130.622 146.866 130.432 147.126 130.162 147.166C129.082 147.316 128.182 148.736 127.932 149.266C127.842 149.446 127.662 149.546 127.482 149.546L127.472 149.566Z" fill="#2B110C"/>
<path d="M125.772 148.326C125.772 148.326 125.712 148.326 125.692 148.326C125.422 148.276 125.232 148.026 125.282 147.746C125.302 147.636 125.742 145.116 127.442 144.366C127.692 144.256 127.992 144.366 128.102 144.616C128.212 144.866 128.102 145.166 127.852 145.276C126.852 145.716 126.382 147.326 126.282 147.906C126.242 148.146 126.032 148.326 125.792 148.326H125.772Z" fill="#2B110C"/>
</g>
<g clip-path="url(#clip1_518_82158)">
<path d="M47.658 33.8392L49.7639 45.2418H56.0651V33.8392H47.658Z" fill="#FFD25A"/>
<path d="M146.967 83.2166L148.015 88.9221H151.162V83.2166H146.967Z" fill="#8DEF67"/>
<path d="M162.447 31.5067V36.7591H168.152L167.246 31.5067H162.447Z" fill="#FFB585"/>
<path d="M84.4414 45.2418V52.1806H91.9676L90.7845 45.2418H84.4414Z" fill="#FFD4BB"/>
<path d="M61.0239 75.5813L51.8616 80.0701L57.1475 90.8518L65.6553 85.0121L61.0239 75.5813Z" fill="#FFB585"/>
<path d="M134.859 58.163L125.697 62.6602L130.983 73.4418L139.491 67.6021L134.859 58.163Z" fill="#FF632E"/>
<path d="M0.252441 125.84V131.847L15.2628 135.145V130.496L0.252441 125.84Z" fill="#FF632E"/>
<path d="M16.9156 33.5623L13.3245 32.1108L7.71973 40.2914L10.4969 41.4157L16.9156 33.5623Z" fill="#FF632E"/>
<path d="M141.261 0.244202L135.858 10.749L141.261 14.6505L146.967 5.34555L141.261 0.244202Z" fill="#FFD25A"/>
<path d="M206.253 118.943L196.352 121.938L206.253 127.644V118.943Z" fill="#FFA417"/>
<path d="M20.2132 73.4418L20.1377 63.0881L11.8647 70.975L20.2132 73.4418Z" fill="#8DEF67"/>
<path d="M82.5031 12.6703C84.6578 12.6703 86.4046 10.9235 86.4046 8.76877C86.4046 6.61402 84.6578 4.86725 82.5031 4.86725C80.3483 4.86725 78.6016 6.61402 78.6016 8.76877C78.6016 10.9235 80.3483 12.6703 82.5031 12.6703Z" fill="#FF632E"/>
<path d="M180.796 98.1682C182.205 98.1682 183.347 97.0263 183.347 95.6176C183.347 94.2089 182.205 93.0669 180.796 93.0669C179.388 93.0669 178.246 94.2089 178.246 95.6176C178.246 97.0263 179.388 98.1682 180.796 98.1682Z" fill="#FFB585"/>
<path d="M189.296 65.2192C191.242 65.2192 192.82 63.6415 192.82 61.6953C192.82 59.7491 191.242 58.1713 189.296 58.1713C187.35 58.1713 185.772 59.7491 185.772 61.6953C185.772 63.6415 187.35 65.2192 189.296 65.2192Z" fill="#FFD25A"/>
</g>
<defs>
<clipPath id="clip0_518_82158">
<rect width="170.5" height="139.81" fill="white" transform="translate(18.0002 100.986)"/>
</clipPath>
<clipPath id="clip1_518_82158">
<rect width="206" height="240.972" fill="white"/>
</clipPath>
</defs>
</svg>
