<svg width="70" height="70" viewBox="0 0 70 70" fill="none" xmlns="http://www.w3.org/2000/svg">
<g clip-path="url(#clip0_45_28016)">
<path d="M8.50007 46.5504L51.445 9.37831C52.0769 8.83265 53.0447 8.92266 53.5627 9.58082L61.6917 19.9426C62.1642 20.5446 62.0845 21.4052 61.5039 21.9115L18.9688 59.0217C18.3483 59.5617 17.3976 59.4886 16.8739 58.8529L8.32929 48.553C7.82834 47.9511 7.90234 47.0623 8.49437 46.5504H8.50007Z" fill="#8D8DFF"/>
<path fill-rule="evenodd" clip-rule="evenodd" d="M17.7076 45.5527L14.4287 41.39L14.8779 41.0444L18.1569 45.2072L17.7076 45.5527Z" fill="#E7DBFF"/>
<path fill-rule="evenodd" clip-rule="evenodd" d="M11.223 47.8304L9.43555 45.5522L9.88543 45.2075L11.6729 47.4858L11.223 47.8304Z" fill="#E7DBFF"/>
<path fill-rule="evenodd" clip-rule="evenodd" d="M13.7224 45.7948L11.9292 43.5165L12.3785 43.1711L14.1717 45.4494L13.7224 45.7948Z" fill="#E7DBFF"/>
<path fill-rule="evenodd" clip-rule="evenodd" d="M18.3732 41.694L16.5801 39.4213L17.029 39.0754L18.8222 41.3481L18.3732 41.694Z" fill="#E7DBFF"/>
<path fill-rule="evenodd" clip-rule="evenodd" d="M20.8666 39.6569L19.0791 37.3843L19.5286 37.0391L21.316 39.3117L20.8666 39.6569Z" fill="#E7DBFF"/>
<path fill-rule="evenodd" clip-rule="evenodd" d="M41.764 21.549L39.9766 19.2764L40.426 18.9312L42.2135 21.2038L41.764 21.549Z" fill="#E7DBFF"/>
<path fill-rule="evenodd" clip-rule="evenodd" d="M44.2631 19.5133L42.4756 17.2407L42.9251 16.8955L44.7125 19.1681L44.2631 19.5133Z" fill="#E7DBFF"/>
<path fill-rule="evenodd" clip-rule="evenodd" d="M49.7279 14.8097L47.9404 12.5314L48.3903 12.1868L50.1778 14.465L49.7279 14.8097Z" fill="#E7DBFF"/>
<path fill-rule="evenodd" clip-rule="evenodd" d="M52.2269 12.7682L50.4395 10.4956L50.8889 10.1504L52.6764 12.423L52.2269 12.7682Z" fill="#E7DBFF"/>
<path fill-rule="evenodd" clip-rule="evenodd" d="M25.2443 39.1286L21.9653 34.9659L22.4145 34.6204L25.6935 38.7831L25.2443 39.1286Z" fill="#E7DBFF"/>
<path fill-rule="evenodd" clip-rule="evenodd" d="M40.7732 25.7178L37.5 21.5495L37.9497 21.2046L41.223 25.3729L40.7732 25.7178Z" fill="#E7DBFF"/>
<path fill-rule="evenodd" clip-rule="evenodd" d="M48.5158 18.7819L45.2368 14.6192L45.686 14.2737L48.965 18.4364L48.5158 18.7819Z" fill="#E7DBFF"/>
<path d="M15.7463 23.4582C15.7463 23.4582 9.3991 18.6654 10.5205 13.7489C10.5205 13.7489 11.5167 8.95611 17.864 7.22914C17.864 7.22914 20.8526 6.24471 23.215 8.33733L28.1904 13.8726C28.1904 13.8726 20.4769 18.4235 15.7463 23.4638V23.4582Z" fill="#FF8B85"/>
<path d="M31.9025 18.1701L56.5002 46.2855C56.5002 46.2855 54.2403 47.2699 52.6122 48.3387L28.1909 19.9477C28.1909 19.9477 30.3598 17.9226 31.9082 18.1701H31.9025Z" fill="#FFEDA1"/>
<path d="M22.0884 24.6956L46.2876 53.8009L43.7544 57.0017L19.2876 28.1495C19.2876 28.1495 19.7715 25.6181 22.0884 24.6956Z" fill="#FFDC48"/>
<path d="M28.1908 19.9483L52.6178 48.3392L46.2876 53.8014C46.2876 53.8014 29.8929 35.446 22.0884 24.696C22.0884 24.696 25.9081 20.3139 28.1852 19.9426L28.1908 19.9483Z" fill="#FCE170"/>
<path d="M15.7466 23.4581C15.7466 23.4581 16.4354 25.832 19.2874 28.144C19.2874 28.144 21.2627 24.9769 23.6138 23.4581C23.6138 23.4581 29.3348 18.4572 31.9079 18.1647C31.9079 18.1647 32.0559 17.079 31.3215 16.4996L28.1963 13.8669C28.1963 13.8669 20.5796 18.0916 15.7523 23.4581H15.7466Z" fill="#FFF6E2"/>
<path d="M46.2876 53.801L55.0144 59.2576C55.0144 59.2576 55.5381 58.0763 56.8075 57.8569L52.6178 48.3389L46.2876 53.801V53.801Z" fill="#FFF6E2"/>
<path d="M52.6123 48.3391C52.6123 48.3391 55.3049 46.4997 56.5003 46.2859L57.5649 57.8965C57.5649 57.8965 57.6161 57.8515 56.8077 57.8515L52.618 48.3335L52.6123 48.3391Z" fill="#FCF7EE"/>
<path d="M46.2876 53.8013L43.7544 57.0021L54.6386 60.0116L55.0144 59.2578L46.2876 53.8013Z" fill="#FFEDD2"/>
<path d="M54.6387 60.0111C54.6387 60.0111 54.9802 57.4122 57.5647 57.896L59.8531 60.478C59.8531 60.478 60.1491 62.6269 57.7013 62.9925L54.6387 60.0055V60.0111Z" fill="#706E7D"/>
</g>
<defs>
<clipPath id="clip0_45_28016">
<rect width="54" height="56" fill="white" transform="translate(8 7)"/>
</clipPath>
</defs>
</svg>
