<svg width="70" height="70" viewBox="0 0 70 70" fill="none" xmlns="http://www.w3.org/2000/svg">
<g clip-path="url(#clip0_45_28017)">
<path d="M19.1858 40.6657C19.1858 40.6657 30.4118 45.2127 44.596 42.1101L45.6995 17.2084L35.3286 14.3369L21.0636 16.0644L18.7121 24.3669L18.3076 36.6734L19.18 40.6657H19.1858Z" fill="#FFE05C"/>
<path d="M41.1522 52.3538L40.1064 58.5417L41.4122 64.2269C41.4122 64.2269 42.5735 64.6198 44.4166 62.4647L48.1836 60.0785L47.8716 41.7749L42.4117 43.7509C42.4117 43.7509 40.3664 49.3321 41.1464 52.348L41.1522 52.3538Z" fill="#7373F9"/>
<path d="M28.4648 13.7013C28.8288 11.4654 30.1461 8.84811 31.9314 7.4268C34.1212 5.68773 37.3856 5.56062 39.8237 6.92415C42.2619 8.28768 43.8334 10.9916 44.053 13.7822L40.777 13.2449C40.4015 12.2512 39.9508 11.2632 39.2748 10.4485C38.5989 9.63387 37.6571 8.98677 36.5998 8.84811C35.398 8.68633 34.1616 9.2121 33.3065 10.0788C32.4514 10.9454 31.943 12.1067 31.7061 13.2969C30.7932 13.4298 29.3315 13.9209 28.4648 13.7071V13.7013Z" fill="#AED5FF"/>
<path d="M51.3667 42.6647V56.3924C51.3667 56.3924 54.5271 56.7622 55.5208 54.9942C55.5208 54.9942 56.9306 52.348 57.0519 49.1819C57.1733 46.0215 57.2137 42.2256 57.2137 42.2256L51.3667 42.6589V42.6647Z" fill="#FFE05C"/>
<path d="M51.8579 42.9822C51.8579 42.9822 53.3717 43.9702 54.845 43.56C56.4685 43.1035 57.2138 42.2311 57.2138 42.2311C57.2138 42.2311 57.3582 42.312 56.8094 41.6475C56.2605 40.9831 54.6716 40.2898 54.6716 40.2898C54.6716 40.2898 52.0197 40.9427 51.8579 42.9822V42.9822Z" fill="#FFE783"/>
<path d="M13.7835 51.1809C13.7835 51.1809 13.3444 58.0448 14.4364 59.0674C15.5284 60.0901 26.3557 61.9447 26.3557 61.9447C26.3557 61.9447 38.275 64.7757 41.4065 64.2326C41.4065 64.2326 40.5919 55.855 41.1465 52.3538L13.7778 51.1809H13.7835Z" fill="#8D8DFF"/>
<path d="M17.5448 40.5327C17.5448 40.5327 12.94 41.1914 12.3565 43.6238C12.3565 43.6238 10.9236 49.3494 13.7836 51.1809C13.7836 51.1809 25.3158 53.8964 31.1223 54.1911C36.9347 54.4858 39.7022 55.2253 40.7364 53.2493C40.7364 53.2493 41.3546 52.4231 41.5626 50.3316C41.7706 48.2401 41.8861 45.9695 42.6257 45.1144L45.0234 43.774L46.3407 43.1904C46.3407 43.1904 46.8202 42.1562 44.5901 42.1158L19.1799 40.6714C19.1799 40.6714 18.8217 40.5847 17.5391 40.5385L17.5448 40.5327Z" fill="#ABABFF"/>
<path d="M32.8441 47.281C32.7459 47.3041 32.6534 47.333 32.5725 47.385C32.3992 47.5005 32.2952 47.697 32.2085 47.8876C31.6019 49.2512 31.3939 50.7591 31.3592 52.2498C31.3246 53.7404 31.4574 55.2311 31.4979 56.7217C31.5152 57.3803 31.521 58.0506 31.6943 58.6861C32.0872 60.119 33.1387 60.5118 34.5254 60.3674C34.8836 60.3327 35.2534 60.2461 35.5307 60.015C35.9005 59.703 36.0218 59.1888 36.0969 58.7034C36.6053 55.4159 35.9178 51.9667 36.9173 48.7947C37.0271 48.4539 37.1369 48.0379 36.8942 47.7721C36.7787 47.645 36.5996 47.593 36.432 47.5468C35.3516 47.2579 34.2192 47.1539 33.1041 47.2406C33.0174 47.2463 32.925 47.2579 32.8383 47.2752L32.8441 47.281Z" fill="#FFE05C"/>
<path d="M33.6937 55.5546C33.6937 55.5546 32.1568 55.5546 32.1799 56.9528C32.2031 58.351 32.6306 59.0096 33.4915 59.1888C34.3523 59.3679 35.4559 58.8941 35.4328 57.831C35.4097 56.7679 35.115 55.5719 33.6937 55.5488V55.5546Z" fill="#AED5FF"/>
<path d="M15.2509 45.6518C15.2509 45.6518 15.2046 45.6749 15.1873 45.6865C14.9966 45.802 14.858 45.9927 14.7424 46.1833C14.234 47.0384 14.0896 48.0553 14.0318 49.0491C13.9451 50.5455 14.0376 52.0419 13.9971 53.5383C13.9798 54.1912 13.9393 54.8556 14.0722 55.4969C14.3495 56.8085 15.17 57.2418 16.4411 57.1956C16.9495 57.1782 17.5099 57.0627 17.8104 56.6525C18.0415 56.3289 18.0588 55.9071 18.0646 55.5085C18.0877 53.2783 17.9664 51.0481 18.1339 48.8237C18.1628 48.4193 18.209 48.0033 18.3766 47.6335C18.5903 47.1655 19.0063 46.6687 18.7637 46.218C18.6366 45.9753 18.3535 45.8598 18.0877 45.7789C17.3886 45.5651 16.6548 45.4727 15.9211 45.5073C15.6842 45.5189 15.4473 45.542 15.2393 45.6518H15.2509Z" fill="#FFE05C"/>
<path d="M15.5345 53.0936C15.5345 53.0936 14.5408 53.319 14.587 54.4052C14.6332 55.4914 15.0377 56.3233 15.8754 56.3464C16.7132 56.3696 17.343 55.8091 17.343 54.9829C17.343 54.1567 16.9616 52.7585 15.5345 53.0936Z" fill="#AED5FF"/>
<path d="M52.5458 41.613C52.9907 40.9543 54.2849 40.3188 55.0533 40.5325C55.3191 34.5122 55.1168 28.6248 54.3311 22.6507C54.1058 20.9347 53.7649 19.1667 52.7365 17.7685C51.4885 16.0699 49.4259 15.1975 47.4152 14.5677C40.6727 12.4473 33.4333 12.2047 26.4423 13.2331C24.1428 13.574 21.6989 14.1344 20.1216 15.8504C18.8216 17.2659 18.3363 19.2303 17.9896 21.1196C16.7936 27.6426 16.7994 33.946 17.5447 40.5325C17.5736 40.5325 18.0474 40.5903 18.0763 40.5903C18.6945 40.6192 18.5674 40.6308 19.1856 40.6654C18.5212 34.0847 18.602 26.8164 20.0349 20.3627C20.2833 19.2361 21.1211 18.2423 21.8838 17.6414C22.8717 16.8615 24.2121 16.2606 25.4197 15.9024C30.0707 14.5042 34.8026 14.8508 39.5056 16.0641C41.3602 16.5437 43.3478 17.3814 44.1393 19.1205C44.538 19.9872 44.5784 20.9752 44.6073 21.9285C44.8326 28.7808 44.8153 35.2575 44.5957 42.1041C45.6473 42.1618 45.8264 42.4912 46.1384 42.9996C46.4504 43.508 46.4793 44.132 46.5024 44.7271L46.6352 48.5519C46.7104 50.811 46.7912 53.0758 46.7277 55.3349C46.6526 58.0157 46.2193 61.0028 44.1162 62.6667C44.0469 62.7245 43.9891 62.7707 43.9313 62.8285C43.2726 63.337 42.2731 64.0129 41.418 64.2325C41.418 64.2325 43.7349 64.4983 46.1384 64.1343L46.953 64.0245C48.4494 63.6721 49.1254 62.9556 50.2983 61.9677C52.2222 60.3384 53.5627 58.114 54.5275 55.7856C54.0075 56.4904 52.8173 56.294 52.2511 55.6296C51.6849 54.9651 51.5751 54.0291 51.5174 53.1567C51.3094 50.0599 51.4249 46.9457 51.8525 43.872C51.9623 43.0863 52.1067 42.2716 52.5516 41.6072L52.5458 41.613Z" fill="#8D8DFF"/>
</g>
<defs>
<clipPath id="clip0_45_28017">
<rect width="45.2333" height="58.3313" fill="white" transform="translate(12 6)"/>
</clipPath>
</defs>
</svg>
