<svg width="70" height="70" viewBox="0 0 70 70" fill="none" xmlns="http://www.w3.org/2000/svg">
<g clip-path="url(#clip0_45_28018)">
<path d="M59.2705 34.9761C59.2705 34.9761 58.0341 38.2347 58.8257 38.2058C59.623 38.1769 60.9634 35.4556 60.9634 35.4556" fill="#D4D3DD"/>
<path d="M59.7618 35.4507L58.8258 38.2066L55.209 34.6418L55.7001 32.8623L59.7618 35.4507Z" fill="#67CFFD"/>
<path d="M19.8848 51.5639C19.8848 51.5639 18.995 54.291 22.9239 57.8789C26.8527 61.4668 31.3015 60.034 31.3015 60.034L32.405 58.6762L21.4101 50.5759L19.8848 51.5639V51.5639Z" fill="#D4D3DD"/>
<path d="M23.5303 41.1526C23.5303 41.1526 20.1966 44.2436 19.5668 46.9014C18.9371 49.5533 19.1104 52.1648 23.7441 56.4749C28.3778 60.7793 33.0692 60.398 35.6865 59.3407C35.6865 59.3407 38.974 57.6074 40.3491 54.655L23.5303 41.1584V41.1526Z" fill="#94DEFF"/>
<path d="M50.4426 32.3534C50.4426 32.3534 43.989 31.9201 41.4237 36.288C38.8584 40.6559 41.6317 46.5549 43.0183 48.2073C44.4049 49.8597 48.8884 57.1627 55.0416 53.5054C55.0416 53.5054 57.994 51.9859 59.2246 48.5078L50.4368 32.3592L50.4426 32.3534Z" fill="#94DEFF"/>
<path d="M49.1019 32.3999C49.0383 32.4114 48.969 32.423 48.9054 32.4345C46.9295 32.8159 45.8721 34.9074 45.693 36.7678C45.5486 38.3104 45.9068 39.8588 46.3806 41.3379C47.0566 43.4468 47.9925 45.5036 49.4023 47.2138C50.812 48.924 52.7244 50.276 54.8968 50.7266C56.0986 50.9808 57.4968 50.8942 58.3519 50.0102C58.8141 49.5364 59.051 48.8893 59.2301 48.2538C60.6687 43.129 58.6408 37.2184 54.3595 34.0465C52.8862 32.9545 50.9623 32.1225 49.0961 32.4057L49.1019 32.3999Z" fill="#5CD1FF"/>
<path d="M50.275 35.3345C49.3794 36.2011 48.7959 37.4144 48.767 38.6797C48.7323 40.2628 49.3563 41.7824 50.1363 43.1632C50.8239 44.3765 51.6558 45.5321 52.7767 46.364C53.8976 47.196 55.3362 47.6582 56.7055 47.3867C58.9877 46.9302 60.4783 44.4574 60.3859 42.129C60.2877 39.8006 58.9299 37.6918 57.2486 36.074C56.4108 35.2709 55.4633 34.5429 54.3482 34.2194C52.8287 33.7745 51.3381 34.3118 50.2808 35.3403L50.275 35.3345Z" fill="#D4D3DD"/>
<path d="M31.3879 39.8641C31.3879 39.8641 31.4515 33.5145 37.7896 24.7729C37.7896 24.7729 46.6409 13.934 53.4181 14.6562L54.6488 11.4554C54.6488 11.4554 41.1348 10.5136 33.5487 20.2548C33.5487 20.2548 25.7893 32.983 28.0311 39.3037L31.3937 39.8641H31.3879Z" fill="#C5F0FF"/>
<path d="M56.5551 11.4379C58.6697 13.1308 61.2177 14.6907 63.0723 16.6609C64.6496 18.3422 64.6958 21.1617 64.534 23.2994C64.066 29.3544 61.0386 36.9058 61.0386 36.9058L54.9951 32.3184L57.1791 21.439L56.5609 11.4321L56.5551 11.4379Z" fill="#5CD1FF"/>
<path d="M28.0251 39.3155H28.0713C28.2504 34.5489 29.4522 29.8055 31.7575 25.6398C34.0628 21.4741 37.4889 17.8977 41.6662 15.6098C44.8381 13.8707 48.6687 12.8827 52.0833 14.0787C52.9557 14.3791 53.7935 14.8298 54.4175 15.5115C55.3303 16.5053 55.7001 17.8862 55.8619 19.2266C56.197 21.9999 55.7694 24.854 54.637 27.4078C54.0592 28.7077 53.2966 29.9673 53.1637 31.377C53.0308 32.7925 53.8108 34.4334 55.209 34.6472C54.5561 31.221 56.6996 28.0837 57.7627 24.9811C58.9009 21.6763 59.2591 17.9382 58.3174 14.5409C57.2832 10.7854 54.4463 8.98279 50.6273 9.00012C46.6927 9.01746 43.4052 10.5774 40.1351 12.5881C37.0036 14.512 34.2361 17.1293 32.0117 20.0355C31.0699 21.2661 30.2148 22.5661 29.4695 23.9296C26.8291 28.7251 25.4714 34.2138 25.5754 39.6911L28.0309 39.3155H28.0251Z" fill="#94DEFF"/>
<path d="M52.0492 34.2717C52.0492 34.2717 50.0386 34.9072 50.5586 38.9516C51.0843 42.9902 54.938 47.7221 58.5317 46.4857C58.5317 46.4857 63.1019 43.4755 58.37 37.2992C58.37 37.2992 55.2616 32.9371 52.0492 34.2717V34.2717Z" fill="#D9F1FC"/>
<path d="M25.4659 39.6849C25.4659 39.6849 19.4744 41.6147 25.437 49.7785C28.2911 53.69 33.2137 56.9312 38.2576 55.7584C42.2789 54.8224 41.6895 50.1656 40.0429 47.4386C38.9567 45.6301 37.495 44.0586 35.9812 42.6027C35.9812 42.6027 31.3071 37.9747 25.4659 39.6849V39.6849Z" fill="#706E7D"/>
<path d="M29.4409 45.0066C29.256 45.2088 29.1 45.4688 29.0249 45.827C28.8747 46.5377 29.0365 47.2888 29.3831 47.9301C29.7298 48.5714 30.244 49.103 30.816 49.5536C31.752 50.2932 32.9422 50.842 34.115 50.6225C34.3577 50.5763 34.6004 50.4954 34.8026 50.3509C34.9297 50.2585 35.0395 50.1372 35.1261 50.01C34.3346 47.3697 31.7057 45.1164 29.4409 45.0124V45.0066Z" fill="#474752"/>
<path d="M35.2364 48.0458C35.0168 47.5143 34.6529 47.052 34.2715 46.6187C33.7169 45.989 33.1044 45.3939 32.3707 44.9836C31.4694 44.481 30.2387 44.2614 29.5281 44.8912C29.4934 44.9201 29.4703 44.9663 29.4414 45.001C31.7062 45.105 34.3351 47.3583 35.1266 49.9987C35.1902 49.912 35.248 49.8195 35.2884 49.7271C35.5195 49.1956 35.456 48.5774 35.2364 48.0458V48.0458Z" fill="#595864"/>
<path d="M28.8978 34.9884L39.1242 32.5502C39.1242 32.5502 39.9736 32.2035 40.3318 30.9729C40.2856 30.7187 40.2278 30.4471 40.1411 30.1582L23.0566 13.0795C23.0566 13.0795 20.9824 10.6991 17.77 11.7333C17.77 11.7333 8.03466 14.2928 8.00577 14.2986C7.65911 14.391 7.34711 14.4719 7.05245 14.6972C6.71157 14.9572 6.53246 15.3385 6.41113 15.743L24.1948 34.0004C24.1948 34.0004 25.5987 35.9012 28.8978 34.9941V34.9884Z" fill="#E8F2F7"/>
<path d="M39.1242 32.5498L28.8978 34.988C25.593 35.8951 24.1948 33.9942 24.1948 33.9942L6.41112 15.7368C6.31868 16.0315 6.25513 16.3377 6.19157 16.6266C6.07602 17.1812 5.79291 18.2097 6.25513 18.6719L23.7094 36.1262C23.7094 36.1262 24.7956 37.9173 27.8116 37.4493L39.6096 34.1676C39.6096 34.1676 40.7131 33.2085 40.3318 30.9725C39.9736 32.1974 39.1242 32.5498 39.1242 32.5498Z" fill="#C4C3D1"/>
<path d="M9.18994 16.3723L14.0952 21.2486L25.5581 18.2385L20.7164 13.3333L9.18994 16.3723Z" fill="#BCE8FF"/>
<path d="M15.7822 22.5434L17.7986 24.7389L23.091 23.3522L21.0168 21.0354L15.7822 22.5434Z" fill="#CFCFE2"/>
<path d="M23.0908 21.6993L25.1072 23.7735L30.1916 22.4793L28.1174 20.3762L23.0908 21.6993Z" fill="#86D8FF"/>
<path d="M19.7168 26.8997L24.4603 31.8512L35.9462 28.6272L31.2028 23.7625L19.7168 26.8997Z" fill="#CCCCDB"/>
<path d="M33.6991 34.5546C33.4102 34.6008 33.1328 34.6933 32.8786 34.8262C32.7746 34.8782 32.6706 34.9417 32.5897 35.0342C32.5377 35.0919 32.4973 35.1728 32.532 35.2422C32.5609 35.3057 32.6417 35.323 32.7111 35.3346C33.0115 35.375 33.312 35.3057 33.6066 35.2306C33.8377 35.1728 34.0746 35.115 34.2768 34.9879C34.3866 34.9186 34.5021 34.7915 34.4444 34.6702C34.3462 34.4448 33.8955 34.5257 33.6991 34.5546V34.5546Z" fill="#686867"/>
</g>
<defs>
<clipPath id="clip0_45_28018">
<rect width="58.5913" height="51.3114" fill="white" transform="translate(6 9)"/>
</clipPath>
</defs>
</svg>
