<svg width="70" height="70" viewBox="0 0 70 70" fill="none" xmlns="http://www.w3.org/2000/svg">
<g clip-path="url(#clip0_45_28021)">
<path d="M21.2859 9.99904L14.8669 11.3568C14.8669 11.3568 13.4399 11.8537 11.7297 13.7834C11.7297 13.7834 4.18982 20.6993 4.54225 21.4388L12.1341 30.0186C12.1341 30.0186 13.7865 29.9146 13.7865 30.8968L12.9083 47.7156H44.593L43.4375 30.7928C43.4375 30.7928 43.2237 29.5738 45.0148 29.932L53.0284 21.2713L44.437 12.7897C44.437 12.7897 43.5415 11.3915 42.149 11.143C42.149 11.143 37.8909 9.96438 35.9207 9.99904H21.2859V9.99904Z" fill="#C5F0FF"/>
<path d="M22.5278 9.24785C22.5278 9.24785 21.1007 9.19585 21.1584 10.9927C21.2104 12.7953 22.6664 17.0708 26.9419 17.741C31.2174 18.4112 34.0137 15.1873 34.8226 14.2166C35.6315 13.246 36.1688 10.5594 35.7124 9.6754C35.7124 9.6754 34.6088 8.22521 33.5631 9.56562C33.5631 9.56562 32.1649 14.8637 29.1547 14.7309C26.1446 14.598 24.7695 12.8242 24.4228 11.1545C24.4228 11.1545 23.9144 9.0283 22.5393 9.24785H22.5278Z" fill="#9BE5F9"/>
<path d="M23.9717 10.1026C23.9717 10.1026 24.1103 14.1931 28.328 14.6496C28.328 14.6496 33.0079 15.4007 33.4239 9.99856C33.4239 9.99856 27.756 9.53635 23.9775 10.1026H23.9717Z" fill="#D9F1FC"/>
<path d="M52.3855 21.306L45.2829 29.068C44.8155 29.5788 44.8506 30.3719 45.3615 30.8393L45.9582 31.3853C46.4691 31.8528 47.2621 31.8176 47.7296 31.3068L54.8321 23.5448C55.2995 23.034 55.2644 22.2409 54.7535 21.7735L54.1568 21.2274C53.6459 20.76 52.8529 20.7952 52.3855 21.306Z" fill="#9BE5F9"/>
<path d="M2.32597 23.5516L9.42852 31.3136C9.89597 31.8244 10.689 31.8596 11.1999 31.3921L11.7966 30.8461C12.3074 30.3787 12.3426 29.5856 11.8752 29.0748L4.77263 21.3128C4.30519 20.802 3.51213 20.7668 3.0013 21.2342L2.40455 21.7803C1.89371 22.2477 1.85853 23.0408 2.32597 23.5516Z" fill="#9BE5F9"/>
<path d="M13.4276 50.2058L43.535 50.2058C44.387 50.2058 45.0776 49.5164 45.0776 48.6661C45.0776 47.8157 44.387 47.1263 43.535 47.1263L13.4276 47.1263C12.5756 47.1263 11.885 47.8157 11.885 48.6661C11.885 49.5164 12.5756 50.2058 13.4276 50.2058Z" fill="#9BE5F9"/>
<path d="M58.7822 25.8991C58.7822 25.8991 63.7568 24.5933 67.6163 27.5688L66.4607 29.2443L60.7062 29.851L58.7822 25.8991V25.8991Z" fill="#FFBFB8"/>
<path d="M51.6876 32.7112L56.7142 26.974C56.7142 26.974 57.9448 25.8184 58.7826 25.8993C58.7826 25.8993 59.9786 27.8117 63.5954 28.0486C67.218 28.2855 67.6166 27.5691 67.6166 27.5691C67.6166 27.5691 68.3735 28.4819 67.9344 29.8397L60.1866 39.5866L58.823 42.8105L52.976 41.2217L48.2788 35.3342L49.3535 33.3872L51.6876 32.7227V32.7112Z" fill="#FF9D8A"/>
<path d="M40.2422 40.8689C40.2422 40.8689 39.1098 41.0653 37.0125 44.4973L33.6557 49.6625C33.6557 49.6625 32.4366 51.9505 33.4362 54.198C34.4299 56.4455 39.1907 61.8303 43.6511 61.6454C43.6511 61.6454 45.1995 61.6107 46.7883 59.9872C46.7883 59.9872 53.7389 53.7531 54.2473 52.2624L40.248 40.8747L40.2422 40.8689Z" fill="#757482"/>
<path d="M40.2422 40.8687C40.2422 40.8687 39.1964 44.4046 43.3274 47.8885C47.4585 51.3725 49.3535 52.7187 52.2886 52.5684C52.2886 52.5684 53.7677 52.8747 55.0445 51.7018C56.3214 50.5289 56.2521 48.8303 56.2521 48.8303C56.2521 48.8303 56.4312 48.0156 57.032 47.4148C57.6329 46.8139 59.7591 43.7979 59.7591 43.7979C59.7591 43.7979 61.14 43.1624 60.1867 39.5803L59.4298 40.3371C59.4298 40.3371 59.3084 41.614 58.3956 41.7122C58.3956 41.7122 56.6392 41.9318 54.6863 40.3891C54.6863 40.3891 51.5317 38.1994 50.7633 36.7319C49.9949 35.2643 49.3189 33.843 50.8846 33.3115C50.8846 33.3115 51.1619 33.2653 51.6877 32.7106C51.6877 32.7106 49.082 32.3235 48.3829 32.9764L44.119 37.4078C44.119 37.4078 43.0848 38.1532 42.5532 38.1763C42.0217 38.1994 40.4791 39.1758 40.2364 40.8687H40.2422Z" fill="#FFE05C"/>
</g>
<defs>
<clipPath id="clip0_45_28021">
<rect width="66.0733" height="52.646" fill="white" transform="translate(2 9)"/>
</clipPath>
</defs>
</svg>
