<svg width="70" height="70" viewBox="0 0 70 70" fill="none" xmlns="http://www.w3.org/2000/svg">
<g clip-path="url(#clip0_45_28022)">
<path d="M36.6172 67.0109C36.6172 67.0109 39.4887 66.6874 45.2953 63.7812C45.2953 63.7812 57.9888 57.9689 58.6359 55.6058C58.6359 55.6058 59.8377 49.3082 60.5252 37.5564C60.5252 37.5564 37.1315 44.3683 36.103 47.5113L36.6172 67.0109Z" fill="#FFB850"/>
<path d="M47.4503 44.3396C47.4503 44.3396 53.9501 43.0686 56.5154 39.7753L58.1043 32.0506L55.4234 26.2036L21.0406 15.5322C21.0406 15.5322 14.8411 20.6281 16.5455 21.853L34.023 28.7284C34.023 28.7284 47.3174 38.0189 47.4503 44.3454V44.3396Z" fill="#FF7866"/>
<path d="M55.9545 30.519C55.9545 30.519 54.7817 28.6066 51.9448 27.8671C51.9448 27.8671 54.7817 24.4756 54.4119 22.1299C54.4119 22.1299 61.1371 24.5334 63.0495 26.2031L55.9545 30.519Z" fill="#FFD092"/>
<path d="M55.9546 30.5192C55.9546 30.5192 56.9426 31.2587 56.5092 39.7692L62.4313 36.4991C62.4313 36.4991 63.4193 35.696 63.3558 34.7716L63.974 27.8615C63.974 27.8615 64.0375 26.3824 63.0496 26.1975C63.0496 26.1975 60.3341 27.2433 55.9546 30.5134V30.5192Z" fill="#FFBF73"/>
<path d="M25.4139 44.3507C25.4139 44.3507 25.5295 44.9805 24.917 44.8071L16.3488 41.8259C16.3488 41.8259 15.3435 41.4503 14.9506 39.3068C14.9506 39.3068 11.5649 32.9976 14.5635 30.6865C14.5635 30.6865 22.8313 33.8873 25.4255 33.8527L25.4139 44.3507V44.3507Z" fill="#FF7866"/>
<path d="M37.432 38.417C37.432 38.417 36.5885 46.367 37.432 47.511C37.432 47.511 39.7893 47.4301 43.5968 45.9453L47.4505 44.3391C47.4505 44.3391 47.9243 36.857 47.1385 35.3086L37.432 38.4228V38.417Z" fill="#FFBF73"/>
<path d="M37.4319 38.4176C37.4319 38.4176 36.9928 45.0099 37.4319 47.5117C37.4319 47.5117 36.2532 47.9508 32.1395 46.7779L25.4201 44.3513C25.4201 44.3513 24.7441 43.3229 24.7441 41.0407L24.8597 37.6608L25.1139 35.2515L37.4319 38.4234V38.4176Z" fill="#FFD092"/>
<path d="M34.0232 28.7283L25.842 33.4255C25.842 33.4255 24.883 34.0842 25.1141 35.2513L34.0521 38.1054C34.0521 38.1054 37.1432 38.9894 40.084 37.8108L47.1443 35.309C47.1443 35.309 46.5434 33.8819 42.499 31.9695L34.0348 28.7283H34.0232Z" fill="#FFDAA9"/>
<path d="M14.4134 31.2643C14.4134 31.2643 13.957 39.2028 15.8058 41.0459L9.12105 37.7353C9.12105 37.7353 7.03532 36.6087 7.12198 34.0838C7.12198 34.0838 6.83888 28.8377 7.13354 27.22C7.13354 27.22 13.0903 29.3519 14.4134 31.2643V31.2643Z" fill="#FFD092"/>
<path d="M31.0814 14.0471C31.0814 14.0471 30.1281 7.63969 24.7376 3.69932C24.7376 3.69932 19.2141 0.359833 16.4062 8.24056C16.4062 8.24056 13.9391 17.5195 17.7408 20.1194C17.7408 20.1194 22.6403 24.1234 27.7304 23.2509C27.7304 23.2509 25.3038 16.3871 31.0757 14.0471H31.0814Z" fill="#FF8B85"/>
<path d="M31.0824 14.0471C31.0824 14.0471 35.2538 14.3707 36.6116 16.312C36.6116 16.312 33.5032 19.3221 33.8441 21.3096C33.8441 21.3096 33.6997 23.9616 34.9592 26.2033C34.9592 26.2033 32.3881 26.6482 30.7877 25.3887C29.1873 24.1291 28.5055 23.4474 27.7313 23.2567C27.7313 23.2567 25.2065 16.2946 31.0766 14.0529L31.0824 14.0471Z" fill="#FF7E7B"/>
<path d="M36.6165 16.312C36.6165 16.312 44.2026 11.3143 47.5883 11.4126C50.974 11.5108 53.4988 13.3539 53.8859 15.7805C54.273 18.2071 54.6486 18.0049 54.4117 22.1359C54.4117 22.1359 55.1455 25.6834 49.6162 30.0975C49.6162 30.0975 44.9074 31.6979 41.0769 30.0975C41.0769 30.0975 36.6627 28.0464 34.9641 26.2092C34.9641 26.2092 31.3242 20.2986 36.6165 16.3178V16.312Z" fill="#FF8B85"/>
<path d="M36.6169 67.011C36.6169 67.011 19.3648 62.4929 11.8365 55.7157C11.8365 55.7157 11.0854 53.2429 10.8658 50.6602C10.8658 50.6602 9.90095 42.6524 9.92984 38.1343L36.1084 47.5172L36.6226 67.0168L36.6169 67.011Z" fill="#FFC25F"/>
<path d="M16.5454 21.853C16.5454 21.853 21.3813 23.5517 23.7097 24.6725L18.3827 27.3707C18.3827 27.3707 14.633 29.1329 14.4134 31.2706C14.4134 31.2706 6.76382 28.7689 7.13359 27.2263C7.13359 27.2263 6.54427 25.6836 16.5454 21.8588V21.853Z" fill="#FFDAA9"/>
<path d="M23.7099 24.6726C23.7099 24.6726 15.0145 27.8619 14.5581 30.6872C14.5581 30.6872 22.9357 34.4889 25.4201 33.8533L34.0173 28.7285L23.7099 24.6726V24.6726Z" fill="#FF7D73"/>
<path d="M29.3428 14.7289C29.3428 14.7289 22.4443 10.3667 22.6003 7.03879C22.6003 7.03879 22.9989 5.6926 24.3451 6.64013C24.3451 6.64013 25.1367 7.35656 25.3735 8.06721C25.6104 8.77787 28.2277 13.7004 29.337 14.7289H29.3428Z" fill="#FFABA9"/>
<path d="M37.27 16.6293C37.27 16.6293 43.2152 13.9311 45.4396 13.7751C45.4396 13.7751 48.2129 13.4458 48.0338 14.168C47.8547 14.8902 44.7868 15.1618 44.7868 15.1618C44.7868 15.1618 41.1179 15.5258 37.27 16.6235V16.6293Z" fill="#FFABA9"/>
</g>
<defs>
<clipPath id="clip0_45_28022">
<rect width="56.9735" height="64.0107" fill="white" transform="translate(7 3)"/>
</clipPath>
</defs>
</svg>
