<svg width="70" height="70" viewBox="0 0 70 70" fill="none" xmlns="http://www.w3.org/2000/svg">
<g clip-path="url(#clip0_45_28024)">
<path d="M28.7369 23.2436C28.7369 23.2436 26.3908 26.5152 26.152 28.1481C25.9192 29.7809 23.4118 32.1203 19.2628 31.4969C15.1138 30.8734 9.08426 33.5988 7.59777 39.9817C7.59777 39.9817 4.3084 47.1425 13.1557 56.4111C22.003 65.6796 31.6323 60.6149 31.6323 60.6149C31.6323 60.6149 37.423 57.4204 37.7394 52.2844C38.0558 47.1484 37.1126 44.5774 40.5572 42.9386C40.5572 42.9386 45.339 42.2618 47.4225 38.8536C47.4225 38.8536 48.6344 36.0748 47.0464 35.0951C45.4644 34.1154 43.8406 34.8397 43.8406 34.8397C43.8406 34.8397 40.8795 36.1341 37.5066 32.1322L34.8679 29.0268C34.8679 29.0268 33.7695 28.4628 33.9725 25.8383C34.1754 23.2139 34.056 22.1273 33.1188 21.5989C33.1188 21.5989 30.6413 20.1204 28.725 23.2377L28.7369 23.2436Z" fill="#FF9D8D"/>
<path d="M31.5369 31.6394L36.3128 36.247C36.3128 36.247 36.9993 37.7255 39.7514 37.3989C42.5035 37.0723 42.211 37.0723 42.211 37.0723C42.211 37.0723 43.4407 36.7339 44.0198 37.4404C44.5989 38.147 41.811 39.4474 41.811 39.4474C41.811 39.4474 35.8053 40.4924 35.4412 42.7605C35.4412 42.7605 34.9576 45.854 35.2919 48.6269C35.6262 51.3997 35.0113 53.4482 33.4174 54.3507C33.4174 54.3507 31.1011 55.7164 29.2923 55.3601C29.2923 55.3601 27.4894 54.9979 27.4297 52.9495C27.4297 52.9495 27.1192 50.3607 26.4327 49.565C25.7462 48.7694 21.5136 44.6368 21.5136 44.6368C21.5136 44.6368 18.2182 41.6146 19.7405 39.4889C21.2628 37.3633 23.5791 36.9714 23.5791 36.9714C23.5791 36.9714 25.7163 37.0783 26.6536 34.7032C27.5968 32.3282 29.0057 29.5909 31.5369 31.6453V31.6394Z" fill="white"/>
<path d="M31.5366 31.6389L48.27 16.2961C48.27 16.2961 51.6848 18.1487 52.4847 20.8384C52.4847 20.8384 39.3093 35.3677 36.3125 36.2465L31.5366 31.6389V31.6389Z" fill="#FFBE92"/>
<path d="M52.2104 20.1384C52.2104 20.1384 52.2104 21.3734 53.3208 21.2547C54.4312 21.1359 61.392 12.9955 61.392 12.9955C61.392 12.9955 62.1383 11.4398 61.8696 10.3176L52.2104 20.1384V20.1384Z" fill="#FC7365"/>
<path d="M48.2706 16.2966C48.2706 16.2966 47.7811 12.6331 48.6706 10.9112C49.5601 9.18927 52.4853 8.88052 52.4853 8.88052L57.6313 7.29518C57.6313 7.29518 59.8521 6.41047 61.2669 7.693C62.6878 8.96958 61.7565 11.1784 60.867 12.2353C59.9775 13.2922 54.1031 20.8923 52.2047 20.1382L48.2647 16.2966H48.2706Z" fill="#FF9D8D"/>
<path d="M15.4601 45.9013C15.4601 45.9013 14.7974 46.8751 15.269 47.4451C15.7407 48.0151 20.8986 52.8246 20.8986 52.8246C20.8986 52.8246 21.7224 54.0537 22.8627 53.2046L23.782 52.3555C23.782 52.3555 24.3491 51.4411 23.4358 50.6277L18.3733 45.6876C18.3733 45.6876 17.3286 44.3635 16.4093 44.9335L15.4601 45.9073V45.9013Z" fill="#595864"/>
<path d="M30.5756 46.531C30.5756 46.531 29.4354 47.4454 29.7518 48.5735C30.0682 49.7017 30.7129 50.1767 31.7158 50.1767C32.7188 50.1767 33.5128 49.2326 33.5128 48.2232C33.5128 47.2138 32.5337 45.486 30.5696 46.525L30.5756 46.531Z" fill="#595864"/>
<path d="M29.8469 51.2392C29.8469 51.2392 29.1604 51.6013 29.3514 52.1714C29.5425 52.7414 29.7514 53.1214 30.4021 53.0264C31.0528 52.9314 31.2439 52.492 31.226 52.0526C31.2081 51.6132 30.6708 50.7166 29.8469 51.2332V51.2392Z" fill="#595864"/>
</g>
<defs>
<clipPath id="clip0_45_28024">
<rect width="55" height="55" fill="white" transform="translate(7 7)"/>
</clipPath>
</defs>
</svg>
