<svg width="48" height="48" viewBox="0 0 48 48" fill="none" xmlns="http://www.w3.org/2000/svg">
<circle cx="24" cy="24" r="24" fill="white"/>
<mask id="mask0_2276_131718" style="mask-type:alpha" maskUnits="userSpaceOnUse" x="9" y="9" width="30" height="30">
<rect x="9" y="9" width="30" height="30" fill="#D9D9D9"/>
</mask>
<g mask="url(#mask0_2276_131718)">
<path d="M17.25 12.75C18.5625 12.75 19.8125 13.0258 21 13.5775C22.1875 14.13 23.1875 14.8958 24 15.875C24.8125 14.8958 25.8125 14.13 27 13.5775C28.1875 13.0258 29.4375 12.75 30.75 12.75C33.0833 12.75 35.0417 13.5417 36.625 15.125C38.2083 16.7083 39 18.6667 39 21C39 21.7917 38.8958 22.5729 38.6875 23.3438C38.4792 24.1146 38.1875 24.875 37.8125 25.625C37.5833 25.2292 37.3125 24.875 37 24.5625C36.6875 24.25 36.3229 24 35.9062 23.8125C36.0938 23.3333 36.2396 22.8646 36.3438 22.4062C36.4479 21.9479 36.5 21.4792 36.5 21C36.5 19.375 35.9479 18.0104 34.8438 16.9062C33.7396 15.8021 32.375 15.25 30.75 15.25C29.0625 15.25 27.7658 15.7133 26.86 16.64C25.9533 17.5675 25 18.6042 24 19.75C23 18.5833 22.0471 17.5417 21.1413 16.625C20.2346 15.7083 18.9375 15.25 17.25 15.25C15.625 15.25 14.2604 15.8021 13.1562 16.9062C12.0521 18.0104 11.5 19.375 11.5 21C11.5 21.4792 11.5521 21.9479 11.6562 22.4062C11.7604 22.8646 11.9062 23.3333 12.0938 23.8125C11.6771 24 11.3125 24.25 11 24.5625C10.6875 24.875 10.4167 25.2292 10.1875 25.625C9.8125 24.875 9.52083 24.1146 9.3125 23.3438C9.10417 22.5729 9 21.7917 9 21C9 18.6667 9.79167 16.7083 11.375 15.125C12.9583 13.5417 14.9167 12.75 17.25 12.75ZM10.25 36.5C9.89583 36.5 9.59917 36.38 9.36 36.14C9.12 35.9008 9 35.6042 9 35.25V34.5312C9 33.6146 9.45833 32.8804 10.375 32.3288C11.2917 31.7763 12.5 31.5 14 31.5C14.2708 31.5 14.5262 31.5104 14.7662 31.5312C15.0054 31.5521 15.2396 31.5833 15.4688 31.625C15.1771 32.0417 14.9633 32.4896 14.8275 32.9688C14.6925 33.4479 14.625 33.9583 14.625 34.5V36.5H10.25ZM17.75 36.5C17.3958 36.5 17.0988 36.38 16.8588 36.14C16.6196 35.9008 16.5 35.6042 16.5 35.25V34.5C16.5 33.1458 17.1929 32.0467 18.5788 31.2025C19.9637 30.3592 21.7708 29.9375 24 29.9375C26.25 29.9375 28.0625 30.3592 29.4375 31.2025C30.8125 32.0467 31.5 33.1458 31.5 34.5V35.25C31.5 35.6042 31.38 35.9008 31.14 36.14C30.9008 36.38 30.6042 36.5 30.25 36.5H17.75ZM33.375 36.5V34.5C33.375 33.9583 33.3021 33.4479 33.1562 32.9688C33.0104 32.4896 32.8021 32.0417 32.5312 31.625C32.7604 31.5833 32.995 31.5521 33.235 31.5312C33.4742 31.5104 33.7292 31.5 34 31.5C35.5 31.5 36.7083 31.7763 37.625 32.3288C38.5417 32.8804 39 33.6146 39 34.5312V35.25C39 35.6042 38.88 35.9008 38.64 36.14C38.4008 36.38 38.1042 36.5 37.75 36.5H33.375ZM24 32.4375C22.8125 32.4375 21.75 32.5987 20.8125 32.9212C19.875 33.2446 19.3229 33.6042 19.1562 34H28.8438C28.6562 33.5833 28.0992 33.2188 27.1725 32.9062C26.245 32.5938 25.1875 32.4375 24 32.4375ZM14 30.25C13.3125 30.25 12.7242 30.0054 12.235 29.5163C11.745 29.0263 11.5 28.4375 11.5 27.75C11.5 27.0625 11.745 26.4738 12.235 25.9837C12.7242 25.4946 13.3125 25.25 14 25.25C14.6875 25.25 15.2758 25.4946 15.765 25.9837C16.255 26.4738 16.5 27.0625 16.5 27.75C16.5 28.4375 16.255 29.0263 15.765 29.5163C15.2758 30.0054 14.6875 30.25 14 30.25ZM34 30.25C33.3125 30.25 32.7237 30.0054 32.2337 29.5163C31.7446 29.0263 31.5 28.4375 31.5 27.75C31.5 27.0625 31.7446 26.4738 32.2337 25.9837C32.7237 25.4946 33.3125 25.25 34 25.25C34.6875 25.25 35.2763 25.4946 35.7663 25.9837C36.2554 26.4738 36.5 27.0625 36.5 27.75C36.5 28.4375 36.2554 29.0263 35.7663 29.5163C35.2763 30.0054 34.6875 30.25 34 30.25ZM24 29C22.9583 29 22.0729 28.6354 21.3438 27.9062C20.6146 27.1771 20.25 26.2917 20.25 25.25C20.25 24.2083 20.6146 23.3229 21.3438 22.5938C22.0729 21.8646 22.9583 21.5 24 21.5C25.0417 21.5 25.9271 21.8646 26.6562 22.5938C27.3854 23.3229 27.75 24.2083 27.75 25.25C27.75 26.2917 27.3854 27.1771 26.6562 27.9062C25.9271 28.6354 25.0417 29 24 29ZM24 24C23.6458 24 23.3492 24.1196 23.11 24.3587C22.87 24.5987 22.75 24.8958 22.75 25.25C22.75 25.6042 22.87 25.9008 23.11 26.14C23.3492 26.38 23.6458 26.5 24 26.5C24.3542 26.5 24.6513 26.38 24.8913 26.14C25.1304 25.9008 25.25 25.6042 25.25 25.25C25.25 24.8958 25.1304 24.5987 24.8913 24.3587C24.6513 24.1196 24.3542 24 24 24Z" fill="#FFB384"/>
</g>
</svg>
