<svg width="48" height="48" viewBox="0 0 48 48" fill="none" xmlns="http://www.w3.org/2000/svg">
<circle cx="24" cy="24" r="24" fill="white"/>
<mask id="mask0_2276_131716" style="mask-type:alpha" maskUnits="userSpaceOnUse" x="9" y="9" width="30" height="30">
<rect x="9" y="9" width="30" height="30" fill="#D9D9D9"/>
</mask>
<g mask="url(#mask0_2276_131716)">
<path d="M26.5 21.2512C26.1458 21.2512 25.8492 21.1312 25.61 20.8912C25.37 20.652 25.25 20.3554 25.25 20.0012C25.25 19.647 25.37 19.35 25.61 19.11C25.8492 18.8708 26.1458 18.7512 26.5 18.7512H35.25C35.6042 18.7512 35.9008 18.8708 36.14 19.11C36.38 19.35 36.5 19.647 36.5 20.0012C36.5 20.3554 36.38 20.652 36.14 20.8912C35.9008 21.1312 35.6042 21.2512 35.25 21.2512H26.5ZM26.5 31.2512C26.1458 31.2512 25.8492 31.1312 25.61 30.8912C25.37 30.652 25.25 30.3554 25.25 30.0012C25.25 29.647 25.37 29.35 25.61 29.11C25.8492 28.8708 26.1458 28.7512 26.5 28.7512H35.25C35.6042 28.7512 35.9008 28.8708 36.14 29.11C36.38 29.35 36.5 29.647 36.5 30.0012C36.5 30.3554 36.38 30.652 36.14 30.8912C35.9008 31.1312 35.6042 31.2512 35.25 31.2512H26.5ZM15.0625 22.8762L12.375 20.1887C12.1458 19.9595 12.0312 19.6679 12.0312 19.3137C12.0312 18.9595 12.1458 18.6679 12.375 18.4387C12.6042 18.2095 12.8958 18.095 13.25 18.095C13.6042 18.095 13.8958 18.2095 14.125 18.4387L15.9063 20.22L20.3438 15.7825C20.5938 15.5325 20.8854 15.4125 21.2187 15.4225C21.5521 15.4333 21.8438 15.5637 22.0938 15.8137C22.3229 16.0637 22.4375 16.3554 22.4375 16.6887C22.4375 17.022 22.3229 17.3137 22.0938 17.5637L16.8125 22.8762C16.5625 23.1262 16.2708 23.2512 15.9375 23.2512C15.6042 23.2512 15.3125 23.1262 15.0625 22.8762ZM15.0625 32.8762L12.375 30.1887C12.1458 29.9595 12.0312 29.6679 12.0312 29.3137C12.0312 28.9595 12.1458 28.6679 12.375 28.4387C12.6042 28.2095 12.8958 28.095 13.25 28.095C13.6042 28.095 13.8958 28.2095 14.125 28.4387L15.9063 30.2199L20.3438 25.7825C20.5938 25.5325 20.8854 25.4125 21.2187 25.4225C21.5521 25.4333 21.8438 25.5637 22.0938 25.8137C22.3229 26.0637 22.4375 26.3554 22.4375 26.6887C22.4375 27.022 22.3229 27.3137 22.0938 27.5637L16.8125 32.8762C16.5625 33.1262 16.2708 33.2512 15.9375 33.2512C15.6042 33.2512 15.3125 33.1262 15.0625 32.8762Z" fill="#A8CAFC"/>
</g>
</svg>
