<svg width="48" height="48" viewBox="0 0 48 48" fill="none" xmlns="http://www.w3.org/2000/svg">
<circle cx="24" cy="24" r="24" fill="white"/>
<mask id="mask0_2276_131717" style="mask-type:alpha" maskUnits="userSpaceOnUse" x="9" y="9" width="30" height="30">
<rect x="9" y="9" width="30" height="30" fill="#D9D9D9"/>
</mask>
<g mask="url(#mask0_2276_131717)">
<path d="M13.6865 33.6875C13.4157 33.4167 13.2803 33.1042 13.2803 32.75C13.2803 32.3958 13.4157 32.0833 13.6865 31.8125L21.249 24.25C21.374 24.125 21.5094 24.0363 21.6553 23.9838C21.8011 23.9321 21.9574 23.9062 22.124 23.9062C22.2907 23.9062 22.4469 23.9321 22.5928 23.9838C22.7386 24.0363 22.874 24.125 22.999 24.25L27.124 28.375L35.124 19.375C35.3532 19.1042 35.6503 18.9687 36.0153 18.9687C36.3794 18.9687 36.6865 19.0937 36.9365 19.3438C37.1657 19.5729 37.2857 19.8492 37.2965 20.1725C37.3065 20.495 37.1969 20.7812 36.9678 21.0312L27.999 31.125C27.874 31.2708 27.7336 31.38 27.5778 31.4525C27.4211 31.5258 27.2594 31.5625 27.0928 31.5625C26.9261 31.5625 26.7649 31.5312 26.609 31.4688C26.4524 31.4062 26.3115 31.3125 26.1865 31.1875L22.124 27.125L15.5615 33.6875C15.2907 33.9583 14.9782 34.0938 14.624 34.0938C14.2699 34.0938 13.9574 33.9583 13.6865 33.6875ZM13.999 25.625C13.8949 25.625 13.7907 25.5988 13.6865 25.5463C13.5824 25.4946 13.499 25.4062 13.4365 25.2812L12.8115 23.9375L11.4678 23.3125C11.3428 23.25 11.2544 23.1667 11.2028 23.0625C11.1503 22.9583 11.124 22.8542 11.124 22.75C11.124 22.6458 11.1503 22.5417 11.2028 22.4375C11.2544 22.3333 11.3428 22.25 11.4678 22.1875L12.8115 21.5625L13.4365 20.2188C13.499 20.0938 13.5824 20.005 13.6865 19.9525C13.7907 19.9008 13.8949 19.875 13.999 19.875C14.1032 19.875 14.2074 19.9008 14.3115 19.9525C14.4157 20.005 14.499 20.0938 14.5615 20.2188L15.1865 21.5625L16.5303 22.1875C16.7594 22.2917 16.874 22.4792 16.874 22.75C16.874 23.0208 16.7594 23.2083 16.5303 23.3125L15.1865 23.9375L14.5615 25.2812C14.499 25.4062 14.4157 25.4946 14.3115 25.5463C14.2074 25.5988 14.1032 25.625 13.999 25.625ZM27.749 23.125C27.6449 23.125 27.5407 23.0988 27.4365 23.0463C27.3324 22.9946 27.249 22.9062 27.1865 22.7812L26.5615 21.4375L25.2178 20.8125C25.0928 20.75 25.0044 20.6667 24.9528 20.5625C24.9003 20.4583 24.874 20.3542 24.874 20.25C24.874 20.1458 24.9003 20.0417 24.9528 19.9375C25.0044 19.8333 25.0928 19.75 25.2178 19.6875L26.5615 19.0625L27.1865 17.7187C27.249 17.5937 27.3324 17.505 27.4365 17.4525C27.5407 17.4008 27.6449 17.375 27.749 17.375C27.8532 17.375 27.9574 17.4008 28.0615 17.4525C28.1657 17.505 28.249 17.5937 28.3115 17.7187L28.9365 19.0625L30.2803 19.6875C30.4053 19.75 30.494 19.8333 30.5465 19.9375C30.5982 20.0417 30.624 20.1458 30.624 20.25C30.624 20.3542 30.5982 20.4583 30.5465 20.5625C30.494 20.6667 30.4053 20.75 30.2803 20.8125L28.9365 21.4375L28.3115 22.7812C28.249 22.9062 28.1657 22.9946 28.0615 23.0463C27.9574 23.0988 27.8532 23.125 27.749 23.125ZM19.624 19.375C19.5199 19.375 19.4157 19.3438 19.3115 19.2813C19.2074 19.2188 19.124 19.125 19.0615 19L18.249 17.25L16.499 16.4375C16.374 16.375 16.2803 16.2917 16.2178 16.1875C16.1553 16.0833 16.124 15.9792 16.124 15.875C16.124 15.7708 16.1553 15.6667 16.2178 15.5625C16.2803 15.4583 16.374 15.375 16.499 15.3125L18.249 14.5L19.0615 12.75C19.124 12.625 19.2074 12.5313 19.3115 12.4688C19.4157 12.4063 19.5199 12.375 19.624 12.375C19.7282 12.375 19.8324 12.4063 19.9365 12.4688C20.0407 12.5313 20.124 12.625 20.1865 12.75L20.999 14.5L22.749 15.3125C22.874 15.375 22.9678 15.4583 23.0303 15.5625C23.0928 15.6667 23.124 15.7708 23.124 15.875C23.124 15.9792 23.0928 16.0833 23.0303 16.1875C22.9678 16.2917 22.874 16.375 22.749 16.4375L20.999 17.25L20.1865 19C20.124 19.125 20.0407 19.2188 19.9365 19.2813C19.8324 19.3438 19.7282 19.375 19.624 19.375Z" fill="#FDD752"/>
</g>
</svg>
