<svg width="48" height="48" viewBox="0 0 48 48" fill="none" xmlns="http://www.w3.org/2000/svg">
<circle cx="24" cy="24" r="24" fill="white"/>
<mask id="mask0_2276_131715" style="mask-type:alpha" maskUnits="userSpaceOnUse" x="9" y="9" width="30" height="30">
<rect x="9" y="9" width="30" height="30" fill="#D9D9D9"/>
</mask>
<g mask="url(#mask0_2276_131715)">
<path d="M26.5 25.25C25.4583 25.25 24.5729 24.8854 23.8438 24.1562C23.1146 23.4271 22.75 22.5417 22.75 21.5C22.75 20.4583 23.1146 19.5729 23.8438 18.8438C24.5729 18.1146 25.4583 17.75 26.5 17.75C27.5417 17.75 28.4271 18.1146 29.1562 18.8438C29.8854 19.5729 30.25 20.4583 30.25 21.5C30.25 22.5417 29.8854 23.4271 29.1562 24.1562C28.4271 24.8854 27.5417 25.25 26.5 25.25ZM17.75 29C17.0625 29 16.4742 28.755 15.985 28.265C15.495 27.7758 15.25 27.1875 15.25 26.5V16.5C15.25 15.8125 15.495 15.2242 15.985 14.735C16.4742 14.245 17.0625 14 17.75 14H35.25C35.9375 14 36.5263 14.245 37.0163 14.735C37.5054 15.2242 37.75 15.8125 37.75 16.5V26.5C37.75 27.1875 37.5054 27.7758 37.0163 28.265C36.5263 28.755 35.9375 29 35.25 29H17.75ZM20.25 26.5H32.75C32.75 25.8125 32.9946 25.2238 33.4837 24.7337C33.9737 24.2446 34.5625 24 35.25 24V19C34.5625 19 33.9737 18.755 33.4837 18.265C32.9946 17.7758 32.75 17.1875 32.75 16.5H20.25C20.25 17.1875 20.005 17.7758 19.515 18.265C19.0258 18.755 18.4375 19 17.75 19V24C18.4375 24 19.0258 24.2446 19.515 24.7337C20.005 25.2238 20.25 25.8125 20.25 26.5ZM12.75 34C12.0625 34 11.4742 33.7554 10.985 33.2663C10.495 32.7763 10.25 32.1875 10.25 31.5V19C10.25 18.6458 10.37 18.3488 10.61 18.1088C10.8492 17.8696 11.1458 17.75 11.5 17.75C11.8542 17.75 12.1513 17.8696 12.3913 18.1088C12.6304 18.3488 12.75 18.6458 12.75 19V31.5H32.75C33.1042 31.5 33.4008 31.62 33.64 31.86C33.88 32.0992 34 32.3958 34 32.75C34 33.1042 33.88 33.4008 33.64 33.64C33.4008 33.88 33.1042 34 32.75 34H12.75Z" fill="#98E27D"/>
</g>
</svg>
