<svg width="34" height="48" viewBox="0 0 34 48" fill="none" xmlns="http://www.w3.org/2000/svg">
<g clip-path="url(#clip0_2101_118282)">
<path d="M33.8182 0H0V48H33.8182V0Z" fill="black"/>
<path d="M17.1382 16.2378C18.0737 16.2378 19.2465 15.6053 19.9449 14.762C20.5773 13.9977 21.0385 12.9304 21.0385 11.8631C21.0385 11.7181 21.0254 11.5732 20.999 11.4546C19.958 11.4941 18.7062 12.153 17.9551 13.0358C17.3622 13.7078 16.8219 14.762 16.8219 15.8425C16.8219 16.0006 16.8483 16.1587 16.8615 16.2115C16.9273 16.2246 17.0328 16.2378 17.1382 16.2378ZM13.8439 32.1819C15.1221 32.1819 15.6887 31.3254 17.2831 31.3254C18.9039 31.3254 19.2597 32.1555 20.6828 32.1555C22.0795 32.1555 23.0151 30.8642 23.8979 29.5992C24.8862 28.1497 25.2947 26.7266 25.321 26.6607C25.2288 26.6344 22.5539 25.5407 22.5539 22.4705C22.5539 19.8087 24.6622 18.6096 24.7808 18.5174C23.384 16.5145 21.2625 16.4618 20.6828 16.4618C19.1147 16.4618 17.8365 17.4106 17.0328 17.4106C16.1631 17.4106 15.0167 16.5145 13.6595 16.5145C11.0768 16.5145 8.45459 18.6492 8.45459 22.6813C8.45459 25.1849 9.42968 27.8335 10.6288 29.5465C11.6566 30.9959 12.5526 32.1819 13.8439 32.1819Z" fill="white"/>
</g>
<defs>
<clipPath id="clip0_2101_118282">
<rect width="33.8182" height="48" fill="white"/>
</clipPath>
</defs>
</svg>
