<svg width="10" height="24" viewBox="0 0 10 24" fill="none" xmlns="http://www.w3.org/2000/svg">
<mask id="mask0_2826_134835" style="mask-type:alpha" maskUnits="userSpaceOnUse" x="0" y="0" width="10" height="24">
<rect width="10" height="24" fill="#D9D9D9"/>
</mask>
<g mask="url(#mask0_2826_134835)">
<path d="M2.35645 4.31348L9.29345 11.2505C9.39079 11.3478 9.46012 11.4485 9.50145 11.5525C9.54345 11.6565 9.56445 11.7642 9.56445 11.8755C9.56445 11.9868 9.54345 12.0945 9.50145 12.1985C9.46012 12.3025 9.39079 12.4032 9.29345 12.5005L2.33545 19.4585C2.12679 19.6672 1.87312 19.7715 1.57445 19.7715C1.27579 19.7715 1.02245 19.6602 0.814453 19.4375C0.591786 19.2295 0.487453 18.9728 0.501453 18.6675C0.515453 18.3615 0.626786 18.1045 0.835453 17.8965L6.85645 11.8755L0.814453 5.83348C0.619786 5.63948 0.522453 5.38615 0.522453 5.07348C0.522453 4.76082 0.619786 4.50748 0.814453 4.31348C1.02245 4.10482 1.27945 4.00048 1.58545 4.00048C1.89079 4.00048 2.14779 4.10482 2.35645 4.31348Z" fill="#DBDEE1"/>
</g>
</svg>
