<svg width="48" height="48" viewBox="0 0 48 48" fill="none" xmlns="http://www.w3.org/2000/svg">
<mask id="mask0_376_84633" style="mask-type:alpha" maskUnits="userSpaceOnUse" x="0" y="0" width="48" height="48">
<rect width="48" height="48" fill="#D9D9D9"/>
</mask>
<g mask="url(#mask0_376_84633)">
<path d="M23.0411 33.6738L14.319 24.7417C14.1912 24.6332 14.1061 24.5192 14.0636 24.3998C14.0212 24.2803 14 24.1445 14 23.9922C14 23.8399 14.0212 23.704 14.0636 23.5846C14.1061 23.4651 14.1912 23.3512 14.319 23.2427L23.0733 14.3106C23.265 14.115 23.5048 14.0117 23.7926 14.0008C24.0799 13.9898 24.3301 14.0931 24.5433 14.3106C24.7559 14.5281 24.8622 14.7834 24.8622 15.0765C24.8622 15.3702 24.7559 15.6255 24.5433 15.8424L17.61 22.9164H32.9457C33.2437 22.9164 33.4939 23.0197 33.6964 23.2263C33.8988 23.4328 34 23.6881 34 23.9922C34 24.2963 33.8988 24.5516 33.6964 24.7581C33.4939 24.9646 33.2437 25.0679 32.9457 25.0679H17.61L24.5747 32.174C24.7664 32.3696 24.8622 32.6142 24.8622 32.9078C24.8622 33.201 24.7559 33.4563 24.5433 33.6738C24.3301 33.8913 24.0799 34 23.7926 34C23.5048 34 23.2543 33.8913 23.0411 33.6738Z" fill="#2E3234"/>
</g>
</svg>
