<svg width="48" height="48" viewBox="0 0 48 48" fill="none" xmlns="http://www.w3.org/2000/svg">
<mask id="mask0_2226_46964" style="mask-type:alpha" maskUnits="userSpaceOnUse" x="0" y="0" width="48" height="48">
<rect width="48" height="48" fill="#D9D9D9"/>
</mask>
<g mask="url(#mask0_2226_46964)">
</g>
<g clip-path="url(#clip0_2226_46964)">
<path d="M32.9452 27.5121C32.1452 26.7261 31.3262 25.9121 31.3262 22.0721C31.3238 20.2205 30.6658 18.4296 29.4688 17.017C28.2718 15.6044 26.6132 14.6613 24.7872 14.3551L24.7412 14.3491C24.8958 14.1236 24.9858 13.8601 25.0015 13.5872C25.0172 13.3142 24.958 13.0422 24.8303 12.8004C24.7026 12.5587 24.5113 12.3564 24.277 12.2155C24.0427 12.0746 23.7743 12.0004 23.5009 12.001C23.2275 12.0015 22.9595 12.0768 22.7258 12.2186C22.492 12.3605 22.3015 12.5635 22.1748 12.8058C22.0481 13.048 21.99 13.3203 22.0068 13.5932C22.0236 13.8661 22.1147 14.1292 22.2702 14.3541L22.2672 14.3491C18.5142 14.9721 15.6882 18.1921 15.6832 22.0721V22.0731C15.6832 25.9131 14.8612 26.7281 14.0642 27.5131C13.5864 27.9342 13.2481 28.4908 13.0945 29.1089C12.9409 29.727 12.9792 30.3773 13.2043 30.9731C13.4294 31.5689 13.8306 32.082 14.3545 32.4441C14.8785 32.8062 15.5003 33.0001 16.1372 33.0001H20.5042C20.5042 33.7957 20.8203 34.5588 21.3829 35.1214C21.9455 35.684 22.7085 36.0001 23.5042 36.0001C24.2998 36.0001 25.0629 35.684 25.6255 35.1214C26.1881 34.5588 26.5042 33.7957 26.5042 33.0001H30.8742C31.5107 33 32.1321 32.8063 32.6558 32.4446C33.1795 32.0828 33.5807 31.5702 33.806 30.975C34.0313 30.3797 34.0701 29.73 33.9173 29.1121C33.7644 28.4943 33.4271 27.9376 32.9502 27.5161L32.9472 27.5131L32.9452 27.5121ZM23.5042 34.1251C23.206 34.1246 22.9202 34.0059 22.7093 33.795C22.4984 33.5841 22.3797 33.2983 22.3792 33.0001H24.6302C24.6297 33.2985 24.5108 33.5845 24.2998 33.7953C24.0887 34.0062 23.8026 34.1248 23.5042 34.1251ZM30.8642 30.7491H16.1382C15.9638 30.7481 15.7936 30.6957 15.6489 30.5984C15.5041 30.5011 15.3913 30.3633 15.3246 30.2021C15.2579 30.041 15.2402 29.8638 15.2737 29.6926C15.3073 29.5215 15.3906 29.3641 15.5132 29.2401C16.8532 27.9001 17.9312 26.6281 17.9312 22.0701C17.9312 20.5923 18.5182 19.175 19.5632 18.1301C20.6082 17.0851 22.0254 16.4981 23.5032 16.4981C24.981 16.4981 26.3982 17.0851 27.4432 18.1301C28.4881 19.175 29.0752 20.5923 29.0752 22.0701C29.0752 26.6481 30.1642 27.9101 31.4932 29.2401C31.6158 29.3641 31.6991 29.5215 31.7327 29.6926C31.7662 29.8638 31.7485 30.041 31.6818 30.2021C31.6151 30.3633 31.5023 30.5011 31.3575 30.5984C31.2128 30.6957 31.0426 30.7481 30.8682 30.7491H30.8642Z" fill="white"/>
</g>
<defs>
<clipPath id="clip0_2226_46964">
<rect width="21" height="24" fill="white" transform="translate(13 12)"/>
</clipPath>
</defs>
</svg>
