<svg width="26" height="26" viewBox="0 0 26 26" fill="none" xmlns="http://www.w3.org/2000/svg">
<path d="M11.785 7.80463L12.0243 7.79813H21.7748C22.8538 7.79804 23.892 8.21079 24.6764 8.95175C25.4608 9.6927 25.9321 10.7057 25.9935 11.783L26 12.0236V21.7746C26.0001 22.8539 25.5872 23.8923 24.846 24.6768C24.1048 25.4613 23.0915 25.9324 22.014 25.9935L21.7748 26H12.0243C10.945 26.0001 9.90667 25.5871 9.12221 24.8459C8.33774 24.1047 7.86664 23.0913 7.80554 22.0138L7.79904 21.7759V12.0249C7.79897 10.9456 8.21188 9.90717 8.95307 9.12266C9.69426 8.33816 10.7075 7.86703 11.785 7.80593V7.80463ZM21.7748 9.74833H12.0243C11.4533 9.74835 10.9032 9.96307 10.4832 10.3499C10.0632 10.7367 9.80393 11.2673 9.75694 11.8363L9.74914 12.0236V21.7746C9.74919 22.3458 9.96408 22.8961 10.3511 23.3161C10.7382 23.7362 11.2691 23.9953 11.8384 24.042L12.0243 24.0498H21.7748C22.346 24.0498 22.8962 23.8348 23.3163 23.4478C23.7363 23.0607 23.9954 22.5298 24.0421 21.9605L24.0499 21.7746V12.0236C24.0499 11.4201 23.8102 10.8414 23.3835 10.4147C22.9569 9.98804 22.3782 9.74833 21.7748 9.74833ZM17.6562 2.90183L17.7238 3.13195L18.6247 6.4967H16.6057L15.8413 3.6364C15.764 3.34763 15.6306 3.07691 15.4487 2.83972C15.2668 2.60252 15.0399 2.4035 14.7811 2.25402C14.5222 2.10454 14.2365 2.00754 13.9401 1.96856C13.6438 1.92958 13.3426 1.94938 13.0539 2.02684L3.63622 4.5517C3.08646 4.69913 2.61192 5.04728 2.30626 5.52746C2.0006 6.00763 1.88602 6.58494 1.98513 7.14546L2.02674 7.33788L4.55147 16.756C4.66989 17.1986 4.91916 17.5951 5.26664 17.8937C5.61412 18.1922 6.04364 18.3789 6.49897 18.4293V20.3873C5.6537 20.3369 4.84303 20.0339 4.17197 19.5174C3.50092 19.0009 3.00041 18.2949 2.73527 17.4906L2.66767 17.2618L0.144236 7.84233C-0.135275 6.80011 -0.00548542 5.69044 0.506991 4.74086C1.01947 3.79128 1.8758 3.07375 2.90038 2.73541L3.13179 2.6678L12.5495 0.144243C13.5917 -0.135282 14.7013 -0.00548571 15.6508 0.507016C16.6003 1.01952 17.3178 1.87719 17.6562 2.90183Z" fill="current"/>
</svg>
