<svg width="48" height="48" viewBox="0 0 48 48" fill="none" xmlns="http://www.w3.org/2000/svg">
<path d="M4 12H44M20 22V32M28 22V32M8 12H40L36.84 40.44C36.7317 41.4188 36.2661 42.3232 35.5325 42.98C34.7989 43.6369 33.8487 44.0001 32.864 44H15.136C14.1513 44.0001 13.2011 43.6369 12.4675 42.98C11.7339 42.3232 11.2683 41.4188 11.16 40.44L8 12ZM14.69 6.294C15.0135 5.60794 15.5254 5.02799 16.166 4.62182C16.8066 4.21565 17.5495 3.99999 18.308 4H29.692C30.4509 3.99961 31.1942 4.21509 31.8351 4.62129C32.4761 5.02748 32.9883 5.60763 33.312 6.294L36 12H12L14.69 6.294V6.294Z" stroke="#FF6F42" stroke-width="4" stroke-linecap="round" stroke-linejoin="round"/>
</svg>
