<svg width="40" height="40" viewBox="0 0 40 40" fill="none" xmlns="http://www.w3.org/2000/svg">
<mask id="mask0_2340_72620" style="mask-type:alpha" maskUnits="userSpaceOnUse" x="0" y="0" width="40" height="40">
<rect width="40" height="40" fill="#D9D9D9"/>
</mask>
<g mask="url(#mask0_2340_72620)">
<path d="M21.1701 20.0029L26.9024 14.2706L26.9026 14.2708L26.9076 14.2649C27.0387 14.1119 27.1072 13.915 27.0994 13.7137C27.0916 13.5123 27.0082 13.3213 26.8657 13.1789C26.7232 13.0364 26.5322 12.9529 26.3309 12.9451C26.1295 12.9374 25.9327 13.0058 25.7796 13.1369L25.7794 13.1367L25.774 13.1422L20.0417 18.8744L14.3094 13.1352L14.3094 13.1352C14.1588 12.9846 13.9546 12.9 13.7417 12.9C13.5287 12.9 13.3245 12.9846 13.174 13.1352C13.0234 13.2857 12.9388 13.4899 12.9388 13.7029C12.9388 13.9158 13.0234 14.12 13.174 14.2706L13.174 14.2706L18.9132 20.0029L13.1766 25.7325C13.0943 25.8037 13.0273 25.8911 12.9799 25.9891C12.9318 26.0884 12.9049 26.1965 12.9006 26.3067C12.8963 26.4168 12.9149 26.5267 12.9551 26.6294C12.9953 26.732 13.0564 26.8253 13.1343 26.9032C13.2123 26.9812 13.3055 27.0422 13.4082 27.0824L13.4447 26.9893L13.4082 27.0824C13.5108 27.1226 13.6207 27.1412 13.7309 27.1369C13.8411 27.1327 13.9492 27.1057 14.0484 27.0577C14.1465 27.0103 14.2338 26.9433 14.305 26.861L20.0416 21.1312L25.774 26.8636L25.7738 26.8638L25.7796 26.8688C25.9327 26.9999 26.1295 27.0684 26.3309 27.0606C26.5322 27.0528 26.7232 26.9693 26.8657 26.8269C27.0082 26.6844 27.0916 26.4934 27.0994 26.2921C27.1072 26.0907 27.0387 25.8939 26.9076 25.7408L26.9079 25.7406L26.9024 25.7352L21.1701 20.0029Z" fill="#2E3234" stroke="#2E3234" stroke-width="0.2"/>
</g>
</svg>
