<svg width="52" height="40" viewBox="0 0 52 40" fill="none" xmlns="http://www.w3.org/2000/svg">
<rect x="0.880615" y="15.3086" width="44" height="26" rx="6" transform="rotate(-20 0.880615 15.3086)" fill="#FF6F42"/>
<path d="M21.1135 16.3694C21.0098 16.0844 21.0193 15.8319 21.1422 15.6119C21.2732 15.389 21.4812 15.2257 21.7662 15.1219C22.0513 15.0182 22.3115 15.0111 22.547 15.1006C22.7906 15.1872 22.9643 15.373 23.0681 15.658L24.4687 19.506C24.5724 19.7911 24.5588 20.0451 24.4278 20.268C24.3049 20.4879 24.101 20.6498 23.8159 20.7535C23.5309 20.8573 23.2666 20.8659 23.0229 20.7793C22.7875 20.6898 22.6178 20.5025 22.5141 20.2174L21.1135 16.3694ZM18.2361 24.8457C17.9917 24.9347 17.7852 24.9499 17.6163 24.8915C17.4475 24.833 17.3186 24.6816 17.2297 24.4373C17.1408 24.193 17.1422 23.9942 17.2339 23.8409C17.3257 23.6876 17.4938 23.5665 17.7381 23.4775L23.956 21.2144C24.1515 21.1433 24.3203 21.1003 24.4625 21.0854C24.6017 21.0624 24.7212 21.0742 24.8212 21.1208C24.9293 21.1645 25.0193 21.247 25.0912 21.3684C25.1682 21.4788 25.2423 21.6316 25.3134 21.8271L25.767 23.0731C25.9122 23.4722 25.9341 23.7732 25.8328 23.9761C25.7366 24.1679 25.4889 24.3364 25.0899 24.4816L20.0813 26.3046C20.0243 26.3254 20.0062 26.3642 20.0269 26.4212L20.1959 26.8855C20.2137 26.9343 20.2511 26.9484 20.3081 26.9276L25.8419 24.9135C26.0862 24.8245 26.2928 24.8093 26.4617 24.8677C26.6416 24.9314 26.776 25.0853 26.865 25.3297C26.9539 25.574 26.9484 25.7743 26.8485 25.9305C26.7567 26.0838 26.5887 26.205 26.3443 26.2939L19.9309 28.6282C19.5319 28.7734 19.2324 28.7994 19.0324 28.7062C18.8355 28.6211 18.6643 28.379 18.5191 27.98L18.0433 26.6728C17.8981 26.2738 17.8695 25.9798 17.9576 25.791C18.0538 25.5992 18.3014 25.4307 18.7005 25.2854L23.7212 23.458C23.7864 23.4343 23.8086 23.3939 23.7878 23.3369L23.6544 22.9705C23.6337 22.9134 23.5907 22.8968 23.5256 22.9205L18.2361 24.8457ZM17.7584 20.7586C17.6363 21.2089 17.4551 21.6484 17.2145 22.0772C16.9711 22.4978 16.688 22.8729 16.3652 23.2025C16.1624 23.4054 15.9344 23.5392 15.6812 23.6037C15.4361 23.6652 15.2099 23.6138 15.0025 23.4495C14.784 23.28 14.6703 23.0816 14.6614 22.8543C14.6524 22.6269 14.7404 22.3874 14.9255 22.1356C15.3777 21.5283 15.7044 20.9436 15.9057 20.3816C16.104 19.8114 16.1068 19.2616 15.9141 18.7322L15.7762 18.3535C15.6695 18.0603 15.6821 17.816 15.8138 17.6205C15.9426 17.4168 16.1536 17.2616 16.4467 17.1549C16.7399 17.0482 17.0013 17.0315 17.2309 17.1047C17.4574 17.1698 17.6241 17.3489 17.7308 17.6421L17.8686 18.0208C18.0643 18.5583 18.4057 18.9643 18.893 19.2389C19.3774 19.5053 19.9805 19.7054 20.7025 19.8392C20.9972 19.8888 21.2157 20.0075 21.3579 20.1956C21.5001 20.3836 21.542 20.6128 21.4836 20.883C21.4304 21.1422 21.286 21.3285 21.0506 21.4418C20.8233 21.5522 20.5668 21.5949 20.2809 21.5698C19.4183 21.5056 18.5775 21.2352 17.7584 20.7586Z" fill="white"/>
<path d="M36.1862 21.3698C36.3878 21.9236 36.2035 22.3042 35.6335 22.5117C35.0634 22.7192 34.6776 22.5461 34.476 21.9923L31.128 12.7936C30.9264 12.2398 31.1107 11.8592 31.6807 11.6517C32.2508 11.4442 32.6366 11.6173 32.8382 12.1711L33.7319 14.6266L34.4038 14.382L33.4701 11.8167C33.3693 11.5398 33.367 11.3054 33.4632 11.1136C33.5646 10.9107 33.7537 10.7588 34.0306 10.6581C34.3075 10.5573 34.5459 10.5535 34.7459 10.6467C34.951 10.7289 35.104 10.9084 35.2047 11.1853L38.7173 20.8359C38.8181 21.1128 38.8163 21.3487 38.7119 21.5434C38.6187 21.7434 38.4336 21.8937 38.1567 21.9945C37.8798 22.0953 37.6374 22.1006 37.4293 22.0103C37.2323 21.9252 37.0834 21.7442 36.9826 21.4673L35.0085 16.0434L34.3366 16.2879L36.1862 21.3698ZM32.0994 19.1497C32.3401 19.0252 32.554 18.9796 32.7414 19.0129C32.9339 19.035 33.0965 19.1649 33.2291 19.4026C33.3506 19.635 33.381 19.8453 33.3203 20.0334C33.2648 20.2104 33.1427 20.3563 32.9539 20.4711C32.5764 20.7008 32.2155 20.8875 31.8712 21.0312C31.5351 21.172 31.1634 21.3165 30.7562 21.4647L28.3008 22.3584C28.0565 22.4473 27.844 22.4463 27.6633 22.3552C27.4826 22.2642 27.3478 22.0966 27.2589 21.8522C27.0751 21.3473 27.2357 21.003 27.7406 20.8192L28.1437 20.6724C27.9652 20.3593 27.7885 20.0132 27.6136 19.6341C27.4439 19.244 27.2924 18.8656 27.159 18.4992L26.6744 17.1676C26.5795 16.907 26.5787 16.6767 26.672 16.4768C26.7652 16.2768 26.9421 16.1294 27.2027 16.0346C27.4633 15.9397 27.6895 15.9404 27.8813 16.0366C28.0731 16.1328 28.2165 16.3112 28.3113 16.5718L28.8315 18.0011C28.9679 18.3757 29.1053 18.7407 29.2439 19.0961C29.3877 19.4404 29.5381 19.7776 29.6951 20.1078L30.2571 19.9032C30.1733 19.5464 30.0718 19.1914 29.9524 18.8382C29.8383 18.4739 29.7131 18.1045 29.5767 17.7299L29.0565 16.3006C28.9616 16.04 28.9568 15.8112 29.0419 15.6142C29.1351 15.4143 29.312 15.2669 29.5726 15.172C29.8332 15.0772 30.0594 15.0778 30.2512 15.174C30.443 15.2702 30.5864 15.4486 30.6812 15.7092L31.1659 17.0408C31.2963 17.3991 31.4204 17.7782 31.5383 18.178C31.6561 18.5778 31.7499 18.9495 31.8196 19.293C31.8603 19.2782 31.9036 19.2578 31.9495 19.2319C31.9954 19.206 32.0454 19.1786 32.0994 19.1497ZM26.1709 15.8983C25.9103 15.9931 25.6885 16.0047 25.5056 15.9329C25.3227 15.8611 25.1838 15.6949 25.0889 15.4343C24.9941 15.1737 24.9937 14.9572 25.0876 14.7846C25.1787 14.6039 25.3545 14.4661 25.6151 14.3713L29.683 12.8907C29.9436 12.7958 30.1669 12.7883 30.3527 12.8683C30.5357 12.94 30.6745 13.1062 30.7694 13.3668C30.8642 13.6274 30.8647 13.844 30.7707 14.0166C30.6767 14.1891 30.4994 14.3228 30.2388 14.4177L26.1709 15.8983Z" fill="white"/>
</svg>
