<svg width="100%" height="100%" viewBox="0 0 48 48" fill="none" xmlns="http://www.w3.org/2000/svg">
<g clip-path="url(#clip0_152_46261)">
<path d="M18.2353 3.44719C20.0519 2.97582 21.9229 2.71475 23.812 2.693C33.5259 2.57697 43.0149 8.81356 46.503 17.6681C49.2551 24.6516 48.1166 32.8861 43.8887 39.0792C39.2512 45.8705 30.9369 46.4035 23.1775 46.4905C17.6153 46.5522 11.8754 45.2505 7.49896 41.8965C0.461035 36.5047 -1.7399 26.3159 1.3929 18.1286C4.1341 10.9674 10.7043 5.40156 18.2353 3.44719Z" fill="#EAEAEC"/>
<path d="M20.7763 27.4653C20.8234 27.6212 20.1671 28.8286 20.4499 28.9664C21.9293 29.688 23.3616 30.2427 26.3928 29.4668C28.2457 28.9918 29.2791 27.5269 29.6598 26.3014C30.1493 24.7313 29.6417 22.2403 27.0999 20.5361C25.0113 22.4978 24.1375 25.7393 22.049 27.701C21.6392 28.0853 20.6457 27.0265 20.7726 27.4616L20.7763 27.4653Z" fill="#A6A9AD"/>
<path d="M20.9721 20.1156C20.7871 20.1808 20.6095 20.257 20.4318 20.344C17.6108 21.7219 16.9038 25.7756 19.1228 28.0128C20.3992 29.2964 22.3463 29.8004 24.1339 29.5176C26.1426 29.1985 28.0245 27.8533 28.7388 25.9461C29.4531 24.0388 28.8113 21.6421 27.0999 20.5398C26.1753 19.9451 25.044 19.7494 23.9453 19.7131C22.9409 19.6805 21.9112 19.7747 20.9721 20.1156Z" fill="#DBDEE1"/>
<path d="M22.8442 23.4731C22.8043 23.2882 22.7499 23.1069 22.6701 22.9292C22.5686 22.6972 22.4236 22.476 22.2096 22.3455C21.9957 22.2149 21.6984 22.1895 21.4989 22.3418C21.3104 22.4832 21.2451 22.7371 21.2016 22.9727C21.082 23.6653 21.1073 24.3325 21.1545 25.0286C21.1907 25.6015 21.169 26.1781 21.4627 26.6966C21.5316 26.8198 21.6259 26.9431 21.7564 26.9975C21.9123 27.0628 22.0972 27.0229 22.2386 26.9286C22.38 26.8343 22.4779 26.6893 22.5541 26.537C22.7789 26.1019 22.8442 25.6052 22.8877 25.1193C22.9384 24.5718 22.9602 24.0061 22.8478 23.4731H22.8442Z" fill="#EAEAEC"/>
<path d="M25.8754 23.4731C25.8355 23.2882 25.7811 23.1069 25.7014 22.9292C25.5998 22.6972 25.4548 22.476 25.2409 22.3455C25.0269 22.2149 24.7296 22.1895 24.5302 22.3418C24.3416 22.4832 24.2764 22.7371 24.2329 22.9727C24.1132 23.6653 24.1386 24.3325 24.1857 25.0286C24.222 25.6015 24.2002 26.1781 24.4939 26.6966C24.5628 26.8198 24.6571 26.9431 24.7876 26.9975C24.9436 27.0628 25.1285 27.0229 25.2699 26.9286C25.4113 26.8343 25.5092 26.6893 25.5853 26.537C25.8101 26.1019 25.8754 25.6052 25.9189 25.1193C25.9697 24.5718 25.9914 24.0061 25.879 23.4731H25.8754Z" fill="#EAEAEC"/>
<path d="M6.16018 11.8303C6.16018 11.8303 3.81784 4.07082 6.16018 1.59431C8.50253 -0.885824 15.5259 5.19848 15.5259 5.19848C15.5259 5.19848 9.46703 7.97594 6.16018 11.8339V11.8303Z" fill="#EAEAEC"/>
<path d="M33.2461 5.33629C33.2461 5.33629 36.9264 1.7285 39.5697 1.40941C40.1426 1.34052 40.7264 1.52907 41.1325 1.94243C42.0172 2.84165 43.2827 5.24202 42.3363 11.3952C42.3363 11.3952 39.1672 7.40307 33.2461 5.33629Z" fill="#EAEAEC"/>
<path d="M39.7039 2.92161C39.4029 2.91073 39.0838 3.02676 38.8046 3.15729C38.0541 3.51263 37.376 3.98763 36.7052 4.46262C36.0888 4.89774 35.4688 5.33285 34.943 5.8586C34.5732 6.22845 34.2323 6.73245 34.3919 7.2147C34.5297 7.62443 34.9757 7.86374 35.3854 8.06317L39.5842 10.1046C40.1027 10.3548 40.7663 10.6847 40.9476 9.95227C41.2956 8.52729 41.3392 7.04428 41.147 5.59391C41.06 4.93037 40.9222 4.2632 40.6285 3.65042C40.5052 3.39298 40.3384 3.13191 40.0701 3.005C39.954 2.95061 39.8308 2.92523 39.7039 2.92161Z" fill="#CFCFCF"/>
<path d="M7.80804 2.81214C8.00384 2.73963 8.22865 2.69611 8.48972 2.68886C9.00822 2.67436 9.52673 2.77588 9.99448 2.98256C10.5529 3.22913 11.0242 3.61347 11.492 3.9942L13.4826 5.62586C13.6893 5.79628 13.9141 5.99933 13.9177 6.26402C13.9177 6.5541 13.6603 6.77891 13.421 6.96383L8.98284 10.3722C8.75804 10.5462 8.47159 10.7312 8.20327 10.6369C7.98934 10.5644 7.88419 10.3432 7.80442 10.1401C7.22789 8.68614 5.53821 3.66786 7.81167 2.81577L7.80804 2.81214Z" fill="#CFCFCF"/>
<path d="M15.0448 21.6345C16.0921 21.6345 16.9412 20.7855 16.9412 19.7382C16.9412 18.6908 16.0921 17.8418 15.0448 17.8418C13.9975 17.8418 13.1484 18.6908 13.1484 19.7382C13.1484 20.7855 13.9975 21.6345 15.0448 21.6345Z" fill="#2B110C"/>
<path d="M14.4433 19.3504C14.5975 19.3504 14.7225 19.2254 14.7225 19.0712C14.7225 18.917 14.5975 18.792 14.4433 18.792C14.2891 18.792 14.1641 18.917 14.1641 19.0712C14.1641 19.2254 14.2891 19.3504 14.4433 19.3504Z" fill="white"/>
<path d="M32.4569 21.6345C33.5042 21.6345 34.3533 20.7855 34.3533 19.7382C34.3533 18.6908 33.5042 17.8418 32.4569 17.8418C31.4096 17.8418 30.5605 18.6908 30.5605 19.7382C30.5605 20.7855 31.4096 21.6345 32.4569 21.6345Z" fill="#2B110C"/>
<path d="M31.8534 19.3504C32.0076 19.3504 32.1326 19.2254 32.1326 19.0712C32.1326 18.917 32.0076 18.792 31.8534 18.792C31.6992 18.792 31.5742 18.917 31.5742 19.0712C31.5742 19.2254 31.6992 19.3504 31.8534 19.3504Z" fill="white"/>
<path fill-rule="evenodd" clip-rule="evenodd" d="M29.3635 32.4804C29.3993 32.6774 29.2686 32.8662 29.0716 32.902C27.4716 33.1929 25.4979 33.5077 24.7107 33.6288C24.5128 33.6593 24.3277 33.5235 24.2972 33.3256C24.2668 33.1277 24.4026 32.9425 24.6005 32.9121C25.3846 32.7914 27.3511 32.4778 28.9419 32.1885C29.1389 32.1527 29.3276 32.2834 29.3635 32.4804Z" fill="#A6A9AD"/>
<path fill-rule="evenodd" clip-rule="evenodd" d="M29.3688 31.1426C29.5426 31.2419 29.603 31.4634 29.5037 31.6373C29.4116 31.7984 29.3204 32.0762 29.35 32.3576C29.3773 32.6164 29.5076 32.9054 29.9127 33.1368C30.0865 33.2362 30.1469 33.4577 30.0476 33.6315C29.9482 33.8054 29.7267 33.8658 29.5529 33.7665C28.9426 33.4178 28.6802 32.9211 28.6288 32.4335C28.5799 31.9686 28.7244 31.5394 28.8741 31.2775C28.9734 31.1036 29.1949 31.0432 29.3688 31.1426Z" fill="#A6A9AD"/>
</g>
<defs>
<clipPath id="clip0_152_46261">
<rect width="48" height="48" fill="white"/>
</clipPath>
</defs>
</svg>
