<svg width="48" height="48" viewBox="0 0 48 48" fill="none" xmlns="http://www.w3.org/2000/svg">
<mask id="mask0_1939_114721" style="mask-type:alpha" maskUnits="userSpaceOnUse" x="0" y="0" width="48" height="48">
<rect width="48" height="48" fill="#D9D9D9"/>
</mask>
<g mask="url(#mask0_1939_114721)">
<path d="M17.0498 44.6496C15.4498 44.6496 14.0331 44.1746 12.7998 43.2246C11.5665 42.2746 10.6998 41.0496 10.1998 39.5496C9.66647 40.4163 9.01647 41.0913 8.2498 41.5746C7.48314 42.0579 6.56647 42.2996 5.4998 42.2996C3.93314 42.2996 2.63314 41.7496 1.5998 40.6496C0.566471 39.5496 0.0498047 38.2496 0.0498047 36.7496C0.0498047 35.1163 0.558138 33.8246 1.5748 32.8746C2.59147 31.9246 3.88314 31.4329 5.4498 31.3996C4.8498 30.7329 4.38314 29.9579 4.0498 29.0746C3.71647 28.1913 3.5498 27.2996 3.5498 26.3996C3.5498 25.1329 3.8748 23.9496 4.5248 22.8496C5.1748 21.7496 6.0998 20.8663 7.2998 20.1996C7.46647 20.6329 7.6748 21.0996 7.9248 21.5996C8.1748 22.0996 8.43314 22.5329 8.6998 22.8996C8.03314 23.3329 7.50814 23.8663 7.1248 24.4996C6.74147 25.1329 6.5498 25.7996 6.5498 26.4996C6.5498 28.4996 7.35814 29.7579 8.9748 30.2746C10.5915 30.7913 12.1498 31.1996 13.6498 31.4996L14.1998 32.4496C13.7998 33.6163 13.4748 34.5746 13.2248 35.3246C12.9748 36.0746 12.8498 36.7663 12.8498 37.3996C12.8498 38.5329 13.2748 39.5246 14.1248 40.3746C14.9748 41.2246 15.9665 41.6496 17.0998 41.6496C18.2998 41.6496 19.3165 41.1913 20.1498 40.2746C20.9831 39.3579 21.6748 38.2413 22.2248 36.9246C22.7748 35.6079 23.2165 34.2163 23.5498 32.7496C23.8831 31.2829 24.1498 29.9829 24.3498 28.8496C24.4165 28.4163 24.6248 28.0829 24.9748 27.8496C25.3248 27.6163 25.6998 27.5496 26.0998 27.6496C26.5331 27.7829 26.8498 28.0413 27.0498 28.4246C27.2498 28.8079 27.2998 29.2329 27.1998 29.6996C26.8998 31.1663 26.5415 32.7746 26.1248 34.5246C25.7081 36.2746 25.1248 37.8996 24.3748 39.3996C23.6248 40.8996 22.6665 42.1496 21.4998 43.1496C20.3331 44.1496 18.8498 44.6496 17.0498 44.6496ZM5.5498 39.2996C6.2498 39.2996 6.84147 39.0579 7.3248 38.5746C7.80814 38.0913 8.0498 37.4996 8.0498 36.7996C8.0498 36.0996 7.80814 35.5079 7.3248 35.0246C6.84147 34.5413 6.2498 34.2996 5.5498 34.2996C4.8498 34.2996 4.25814 34.5413 3.7748 35.0246C3.29147 35.5079 3.0498 36.0996 3.0498 36.7996C3.0498 37.4996 3.29147 38.0913 3.7748 38.5746C4.25814 39.0579 4.8498 39.2996 5.5498 39.2996ZM21.6498 28.6996C21.3165 29.0329 20.9081 29.1746 20.4248 29.1246C19.9415 29.0746 19.5165 28.8829 19.1498 28.5496C16.5498 26.1829 14.4581 24.0579 12.8748 22.1746C11.2915 20.2913 10.4998 18.2496 10.4998 16.0496C10.4998 14.0496 11.1998 12.3496 12.5998 10.9496C13.9998 9.54961 15.6998 8.84961 17.6998 8.84961C17.9998 8.84961 18.2831 8.85794 18.5498 8.87461C18.8165 8.89128 19.0831 8.93294 19.3498 8.99961C19.0498 8.43294 18.8331 7.94961 18.6998 7.54961C18.5665 7.14961 18.4998 6.74961 18.4998 6.34961C18.4998 4.81628 19.0331 3.51628 20.0998 2.44961C21.1665 1.38294 22.4665 0.849609 23.9998 0.849609C25.5331 0.849609 26.8331 1.38294 27.8998 2.44961C28.9665 3.51628 29.4998 4.81628 29.4998 6.34961C29.4998 6.71628 29.4415 7.10794 29.3248 7.52461C29.2081 7.94128 28.9831 8.43294 28.6498 8.99961C28.9165 8.93294 29.1831 8.89128 29.4498 8.87461C29.7165 8.85794 29.9998 8.84961 30.2998 8.84961C32.1998 8.84961 33.8081 9.45794 35.1248 10.6746C36.4415 11.8913 37.1998 13.3996 37.3998 15.1996C36.9331 15.1663 36.4331 15.1579 35.8998 15.1746C35.3665 15.1913 34.8665 15.2329 34.3998 15.2996C34.2331 14.2996 33.7831 13.4746 33.0498 12.8246C32.3165 12.1746 31.3998 11.8496 30.2998 11.8496C29.0665 11.8496 28.0915 12.1913 27.3748 12.8746C26.6581 13.5579 25.6998 14.5996 24.4998 15.9996H23.4498C22.2165 14.5329 21.2415 13.4746 20.5248 12.8246C19.8081 12.1746 18.8665 11.8496 17.6998 11.8496C16.4998 11.8496 15.4998 12.2496 14.6998 13.0496C13.8998 13.8496 13.4998 14.8496 13.4998 16.0496C13.4998 17.5496 14.1998 19.1163 15.5998 20.7496C16.9998 22.3829 18.9331 24.2996 21.3998 26.4996C21.7665 26.7996 21.9748 27.1663 22.0248 27.5996C22.0748 28.0329 21.9498 28.3996 21.6498 28.6996ZM23.9998 8.84961C24.6998 8.84961 25.2915 8.60794 25.7748 8.12461C26.2581 7.64128 26.4998 7.04961 26.4998 6.34961C26.4998 5.64961 26.2581 5.05794 25.7748 4.57461C25.2915 4.09128 24.6998 3.84961 23.9998 3.84961C23.2998 3.84961 22.7081 4.09128 22.2248 4.57461C21.7415 5.05794 21.4998 5.64961 21.4998 6.34961C21.4998 7.04961 21.7415 7.64128 22.2248 8.12461C22.7081 8.60794 23.2998 8.84961 23.9998 8.84961ZM30.8998 44.6996C30.1665 44.6996 29.4415 44.5829 28.7248 44.3496C28.0081 44.1163 27.3165 43.7663 26.6498 43.2996C26.9165 42.8996 27.1831 42.4496 27.4498 41.9496C27.7165 41.4496 27.9331 40.9829 28.0998 40.5496C28.5665 40.9163 29.0415 41.1913 29.5248 41.3746C30.0081 41.5579 30.4998 41.6496 30.9998 41.6496C32.1665 41.6496 33.1581 41.2246 33.9748 40.3746C34.7915 39.5246 35.1998 38.5329 35.1998 37.3996C35.1998 36.7329 35.0665 36.0246 34.7998 35.2746C34.5331 34.5246 34.2165 33.5829 33.8498 32.4496L34.3998 31.4996C35.9331 31.2329 37.4998 30.8413 39.0998 30.3246C40.6998 29.8079 41.4998 28.5496 41.4998 26.5496C41.4998 25.0829 40.9665 23.9913 39.8998 23.2746C38.8331 22.5579 37.6498 22.1996 36.3498 22.1996C35.0831 22.1996 33.6248 22.4163 31.9748 22.8496C30.3248 23.2829 28.4331 23.8329 26.2998 24.4996C25.8665 24.6329 25.4581 24.6163 25.0748 24.4496C24.6915 24.2829 24.4498 23.9829 24.3498 23.5496C24.2498 23.1496 24.3165 22.7663 24.5498 22.3996C24.7831 22.0329 25.1331 21.7663 25.5998 21.5996C27.7665 20.8996 29.7248 20.3246 31.4748 19.8746C33.2248 19.4246 34.8498 19.1996 36.3498 19.1996C38.4831 19.1996 40.3748 19.8413 42.0248 21.1246C43.6748 22.4079 44.4998 24.1996 44.4998 26.4996C44.4998 27.3996 44.3331 28.2829 43.9998 29.1496C43.6665 30.0163 43.1998 30.7829 42.5998 31.4496C44.1331 31.4829 45.4165 31.9829 46.4498 32.9496C47.4831 33.9163 47.9998 35.1996 47.9998 36.7996C47.9998 38.2996 47.4831 39.5996 46.4498 40.6996C45.4165 41.7996 44.1165 42.3496 42.5498 42.3496C41.5165 42.3496 40.5998 42.1079 39.7998 41.6246C38.9998 41.1413 38.3498 40.4663 37.8498 39.5996C37.3165 41.0996 36.4331 42.3246 35.1998 43.2746C33.9665 44.2246 32.5331 44.6996 30.8998 44.6996ZM42.5498 39.3496C43.2165 39.3496 43.7915 39.1079 44.2748 38.6246C44.7581 38.1413 44.9998 37.5496 44.9998 36.8496C44.9998 36.1829 44.7498 35.5913 44.2498 35.0746C43.7498 34.5579 43.1665 34.2996 42.4998 34.2996C41.8331 34.2996 41.2498 34.5496 40.7498 35.0496C40.2498 35.5496 39.9998 36.1329 39.9998 36.7996C39.9998 37.4663 40.2581 38.0579 40.7748 38.5746C41.2915 39.0913 41.8831 39.3496 42.5498 39.3496Z" fill="#FFDA40"/>
</g>
</svg>
