<svg width="16" height="16" viewBox="0 0 16 16" fill="none" xmlns="http://www.w3.org/2000/svg">
<mask id="mask0_2032_113012" style="mask-type:alpha" maskUnits="userSpaceOnUse" x="0" y="0" width="16" height="16">
<rect width="16" height="16" fill="#D9D9D9"/>
</mask>
<g mask="url(#mask0_2032_113012)">
<path d="M10.6489 11.1575C10.8562 11.1779 11.0427 11.0987 11.204 10.9374L13.604 8.53738C13.6797 8.46177 13.7358 8.37733 13.7694 8.28387L13.7696 8.28339C13.8012 8.19409 13.8167 8.09938 13.8167 8C13.8167 7.90062 13.8012 7.80591 13.7696 7.7166L13.7694 7.71613C13.7358 7.62267 13.6797 7.53823 13.604 7.46262L11.204 5.06262C11.0619 4.92045 10.8832 4.85 10.6753 4.85C10.465 4.85 10.2857 4.92754 10.1444 5.08081C9.99392 5.23203 9.91667 5.41516 9.91667 5.62533C9.91667 5.83584 9.99449 6.01925 10.146 6.17071L11.2086 7.23333H6.66667C6.45265 7.23333 6.26856 7.30669 6.12129 7.45396C5.97365 7.6016 5.9 7.78587 5.9 8C5.9 8.21407 5.97361 8.39815 6.12129 8.54538C6.26852 8.69305 6.4526 8.76667 6.66667 8.76667H11.2086L10.146 9.82929C10.0038 9.97147 9.93333 10.1501 9.93333 10.358C9.93333 10.566 10.0033 10.7527 10.1403 10.9146L10.1401 10.9148L10.146 10.9207C10.2846 11.0593 10.4535 11.1388 10.6489 11.1575ZM10.6489 11.1575L10.6587 11.058M10.6489 11.1575C10.649 11.1575 10.6491 11.1575 10.6492 11.1575L10.6587 11.058M10.6587 11.058C10.4862 11.0416 10.3389 10.9722 10.2167 10.85V6.1C10.0833 5.96667 10.0167 5.80844 10.0167 5.62533C10.0167 5.44178 10.0833 5.28333 10.2167 5.15C10.3389 5.01667 10.4918 4.95 10.6753 4.95C10.8584 4.95 11.0111 5.01111 11.1333 5.13333L13.5333 7.53333C13.6 7.6 13.6473 7.67222 13.6753 7.75C13.7029 7.82778 13.7167 7.91111 13.7167 8C13.7167 8.08889 13.7029 8.17222 13.6753 8.25C13.6473 8.32778 13.6 8.4 13.5333 8.46667L11.1333 10.8667C10.9889 11.0111 10.8307 11.0749 10.6587 11.058ZM2.32056 13.6793L2.32068 13.6794C2.60062 13.9589 2.93996 14.1 3.33333 14.1H7.33333C7.54746 14.1 7.73173 14.0264 7.87938 13.8787C8.02665 13.7314 8.1 13.5474 8.1 13.3333C8.1 13.1193 8.02665 12.9352 7.87938 12.788C7.73173 12.6403 7.54746 12.5667 7.33333 12.5667H3.43333V3.43333H7.33333C7.54746 3.43333 7.73173 3.35969 7.87938 3.21204C8.02665 3.06477 8.1 2.88069 8.1 2.66667C8.1 2.45265 8.02666 2.26841 7.8795 2.12075L7.87925 2.1205C7.73159 1.97334 7.54735 1.9 7.33333 1.9H3.33333C2.93996 1.9 2.60062 2.04111 2.32068 2.32056L2.32056 2.32068C2.04111 2.60062 1.9 2.93996 1.9 3.33333V12.6667C1.9 13.06 2.04111 13.3994 2.32056 13.6793Z" fill="#A6A9AD" stroke="#A6A9AD" stroke-width="0.2" stroke-linejoin="round"/>
</g>
</svg>
