<svg width="48" height="48" viewBox="0 0 48 48" fill="none" xmlns="http://www.w3.org/2000/svg">
<path d="M31.5737 32.6146L31.5734 32.6148L31.5793 32.6207C31.9624 33.0038 32.4259 33.2219 32.9662 33.2735C33.5176 33.3277 34.0205 33.1209 34.4707 32.6707L41.6707 25.4707C41.8797 25.2618 42.0304 25.0329 42.1201 24.7839L42.1203 24.7834C42.207 24.5385 42.25 24.2772 42.25 24C42.25 23.7228 42.207 23.4615 42.1203 23.2166L42.1201 23.2161C42.0304 22.9671 41.8797 22.7382 41.6707 22.5293L34.4707 15.3293C34.0841 14.9427 33.6001 14.75 33.026 14.75C32.4485 14.75 31.9635 14.9609 31.5778 15.3808C31.1606 15.7987 30.95 16.2987 30.95 16.876C30.95 17.4527 31.1612 17.9526 31.5793 18.3707L35.1086 21.9H21C20.4082 21.9 19.9077 22.1009 19.5053 22.5033C19.1016 22.9069 18.9 23.4081 18.9 24C18.9 24.5919 19.1017 25.0925 19.5054 25.4948C19.9077 25.8984 20.4082 26.1 21 26.1H35.1086L31.5793 29.6293C31.1927 30.0159 31 30.4999 31 31.074C31 31.6491 31.1922 32.1638 31.5737 32.6146ZM8.10323 40.8967L8.10335 40.8968C8.90595 41.698 9.8733 42.1 11 42.1H23C23.5919 42.1 24.0931 41.8984 24.4967 41.4947C24.8991 41.0923 25.1 40.5918 25.1 40C25.1 39.4082 24.8991 38.9077 24.4967 38.5053C24.0931 38.1016 23.5919 37.9 23 37.9H11.1V10.1H23C23.5919 10.1 24.0931 9.89835 24.4967 9.49471C24.8991 9.09233 25.1 8.5918 25.1 8C25.1 7.40821 24.8991 6.90708 24.4968 6.50341L24.4966 6.50317C24.0929 6.1009 23.5918 5.9 23 5.9H11C9.8733 5.9 8.90595 6.30199 8.10335 7.10323L8.10323 7.10335C7.30199 7.90595 6.9 8.8733 6.9 10V38C6.9 39.1267 7.30199 40.0941 8.10323 40.8967Z" fill="#FF6F42" stroke="#FF6F42" stroke-width="0.2" stroke-linejoin="round"/>
</svg>
