<svg width="176" height="51" viewBox="0 0 176 51" fill="none" xmlns="http://www.w3.org/2000/svg">
<path d="M10.0744 27.0612C8.65387 24.4917 5.72851 24.6472 5.37226 24.6743C5.016 24.7013 4.38119 24.7833 4.317 25.5882C4.25269 26.3947 5.05684 26.363 5.05684 26.363L6.1087 26.3999C7.76045 26.6068 7.81876 27.2391 7.81876 27.2391C7.81876 27.2391 5.45213 27.9991 5.06263 29.5855C4.78796 30.7031 4.99433 32.3495 6.49313 33.0608C8.09368 33.819 9.55174 32.4869 9.55174 32.4869C10.7726 31.2715 10.7411 29.7886 10.7411 29.7886C12.0524 30.7982 12.5033 31.7973 12.5033 31.7973C12.732 31.3015 13.4646 30.0862 13.4646 30.0862C12.9011 29.0489 10.0759 27.0629 10.0759 27.0629L10.0744 27.0612ZM8.31002 31.2851C7.97024 31.5328 6.77099 31.7796 6.68423 30.7381C6.56428 29.3062 8.78731 28.967 8.78731 28.967C9.15538 30.2003 8.6498 31.0374 8.31002 31.2851V31.2851Z" fill="#FFC52F"/>
<path d="M31.2255 26.1151C30.461 25.5673 29.6544 25.0826 28.8478 24.5978L22.7867 20.9538C21.0132 19.8884 18.7144 20.4309 17.6043 22.1768L11.7586 31.3789C10.952 32.6479 10.127 33.9654 9.89453 35.4512C9.64231 37.0538 10.2387 38.5172 11.5576 39.4381C13.3297 40.6756 15.2227 41.7711 17.0473 42.9324L20.0122 44.8201C22.1272 46.1666 24.3105 47.5407 26.7749 48.0044C29.8265 48.5785 33.1277 47.6077 35.3846 45.4743C37.6414 43.3409 38.98 40.4023 38.578 37.3231C38.2641 34.9178 36.8874 32.4035 35.4568 30.4436C34.3599 28.9407 33.1041 27.5417 31.6262 26.412C31.4935 26.3108 31.3595 26.2123 31.2242 26.1151H31.2255ZM30.4006 36.0804C30.4006 36.0804 29.4285 41.0933 24.8675 39.1885L20.8924 36.7399V36.7294C20.8228 36.6913 20.7558 36.6532 20.6914 36.6164L20.497 36.4968C19.3042 35.7165 19.743 35.1096 19.743 35.1096C19.8572 34.5842 22.3033 30.8863 22.3033 30.8863L23.3883 29.0537L23.4277 29.0747L27.4133 31.5851C27.4133 31.5851 31.0508 33.3809 30.4019 36.0817L30.4006 36.0804Z" fill="#FFC52F"/>
<path d="M32.2969 10.0524L41.1627 15.7602C41.1627 15.7602 47.928 20.3409 45.0052 26.6727C44.9447 26.8054 44.883 26.9367 44.8265 27.0707C44.347 28.1992 41.0366 35.0065 31.426 33.4721C30.2542 33.2856 29.1021 32.5762 28.0801 31.9733L19.1578 26.4678C17.5237 25.5036 16.6461 23.696 17.6577 22.0907C18.7296 20.3895 20.9615 19.8536 22.6889 20.8848L30.0677 25.2894C30.0677 25.2894 34.7364 28.7903 36.4783 24.6076C36.4783 24.6076 38.0757 22.2733 35.0766 20.3764C33.1994 19.1888 29.0969 16.5944 26.2883 14.8183C24.7133 13.8226 24.2929 11.7103 25.3674 10.1877C25.3674 10.1877 27.4417 6.92595 32.2983 10.0524H32.2969Z" fill="#FFC52F"/>
<path d="M34.4976 5.11092C34.3963 4.88082 34.3946 4.61873 34.4956 4.38718L35.0318 3.14719C35.2523 2.63828 34.9508 2.02271 34.4823 2.02436L28.5403 2.04195C28.0026 2.04224 27.5663 2.47902 27.5679 3.0181L27.5934 11.1816C27.5957 11.6881 28.0439 12.0934 28.5626 12.0221C28.9915 11.964 29.2992 11.5763 29.2968 11.1432L29.2844 7.49182L34.4987 7.47349C34.9672 7.47184 35.2645 6.85446 35.0409 6.34633L34.4963 5.11089L34.4976 5.11092Z" fill="#FF8752"/>
<path d="M55.49 24.236C56.3007 24.236 56.9727 24.428 57.506 24.812C58.0393 25.1747 58.4447 25.6867 58.722 26.348L66.402 44.972C66.7007 45.676 66.7007 46.3373 66.402 46.956C66.1033 47.5533 65.5807 47.9693 64.834 48.204C64.1087 48.4387 63.4367 48.3853 62.818 48.044C62.2207 47.7027 61.7727 47.1587 61.474 46.412L60.034 42.636H50.914L49.506 46.412C49.2073 47.1587 48.7487 47.7027 48.13 48.044C47.5327 48.3853 46.8607 48.4387 46.114 48.204C45.3673 47.9693 44.8447 47.5533 44.546 46.956C44.2687 46.3373 44.2793 45.676 44.578 44.972L52.258 26.348C52.5353 25.6867 52.9407 25.1747 53.474 24.812C54.0073 24.428 54.6793 24.236 55.49 24.236ZM52.61 38.156H58.37L55.554 30.7H55.426L52.61 38.156Z" fill="#FFC52F"/>
<path d="M70.454 27.98C70.454 26.764 70.6993 25.836 71.19 25.196C71.702 24.556 72.566 24.236 73.782 24.236C74.5927 24.236 75.2433 24.3747 75.734 24.652C76.2247 24.908 76.6513 25.324 77.014 25.9L85.302 40.46H85.398V26.988C85.398 26.1773 85.6327 25.516 86.102 25.004C86.5713 24.492 87.2113 24.236 88.022 24.236C88.8327 24.236 89.4727 24.492 89.942 25.004C90.4113 25.516 90.646 26.1773 90.646 26.988V44.716C90.646 45.868 90.4113 46.764 89.942 47.404C89.494 48.0227 88.694 48.332 87.542 48.332C86.7313 48.332 86.038 48.1933 85.462 47.916C84.886 47.66 84.406 47.2227 84.022 46.604L75.798 32.748H75.702V45.58C75.702 46.3907 75.4673 47.052 74.998 47.564C74.5287 48.076 73.8887 48.332 73.078 48.332C72.2673 48.332 71.6273 48.076 71.158 47.564C70.6887 47.052 70.454 46.3907 70.454 45.58V27.98Z" fill="#FFC52F"/>
<path d="M96.079 26.956C96.079 26.1453 96.3243 25.4947 96.815 25.004C97.3057 24.492 97.9563 24.236 98.767 24.236C99.5777 24.236 100.228 24.492 100.719 25.004C101.231 25.4947 101.487 26.1453 101.487 26.956V33.932L110.799 25.004C111.332 24.5133 111.962 24.268 112.687 24.268C113.412 24.2467 114.02 24.492 114.511 25.004C115.002 25.516 115.226 26.1027 115.183 26.764C115.162 27.404 114.874 27.9907 114.319 28.524L107.759 34.86L115.535 44.204C115.983 44.6733 116.196 45.2493 116.175 45.932C116.154 46.6147 115.855 47.212 115.279 47.724C114.98 47.98 114.66 48.1507 114.319 48.236C113.999 48.3213 113.668 48.3427 113.327 48.3C112.986 48.2573 112.655 48.1613 112.335 48.012C112.036 47.8627 111.78 47.66 111.567 47.404L104.047 38.476L101.487 40.972V45.644C101.487 46.4547 101.231 47.1053 100.719 47.596C100.228 48.0867 99.5777 48.332 98.767 48.332C97.9563 48.332 97.3057 48.0867 96.815 47.596C96.3243 47.1053 96.079 46.4547 96.079 45.644V26.956Z" fill="#FFC52F"/>
<path d="M120.52 26.924C120.52 26.1133 120.766 25.4627 121.256 24.972C121.747 24.4813 122.398 24.236 123.208 24.236C124.019 24.236 124.67 24.4813 125.16 24.972C125.672 25.4627 125.928 26.1133 125.928 26.924V45.644C125.928 46.4547 125.672 47.1053 125.16 47.596C124.67 48.0867 124.019 48.332 123.208 48.332C122.398 48.332 121.747 48.0867 121.256 47.596C120.766 47.1053 120.52 46.4547 120.52 45.644V26.924Z" fill="#FFC52F"/>
<path d="M136.893 43.66H141.244C142.247 43.66 143.111 43.468 143.837 43.084C144.562 42.7 145.149 42.1773 145.597 41.516C146.066 40.8333 146.407 40.044 146.621 39.148C146.855 38.252 146.973 37.3027 146.973 36.3C146.973 35.2973 146.855 34.348 146.621 33.452C146.407 32.556 146.066 31.7773 145.597 31.116C145.149 30.4333 144.562 29.9 143.837 29.516C143.111 29.132 142.247 28.94 141.244 28.94H136.893V43.66ZM131.517 27.596C131.517 25.484 132.562 24.428 134.653 24.428H141.085C142.557 24.428 143.965 24.6093 145.309 24.972C146.674 25.3347 147.879 25.9747 148.924 26.892C149.97 27.788 150.802 29.004 151.421 30.54C152.039 32.0547 152.349 33.9747 152.349 36.3C152.349 38.1773 152.092 39.852 151.58 41.324C151.068 42.7747 150.322 44.012 149.34 45.036C148.38 46.0387 147.197 46.8067 145.789 47.34C144.381 47.8733 142.781 48.14 140.989 48.14H134.653C132.562 48.14 131.517 47.084 131.517 44.972V27.596Z" fill="#FFC52F"/>
<path d="M172.449 43.308C173.238 43.308 173.899 43.5107 174.433 43.916C174.966 44.3213 175.233 44.9187 175.233 45.708C175.233 46.5187 174.966 47.1267 174.433 47.532C173.899 47.9373 173.238 48.14 172.449 48.14H157.793C157.11 48.14 156.566 47.948 156.161 47.564C155.755 47.18 155.553 46.6467 155.553 45.964C155.553 45.644 155.627 45.356 155.777 45.1C155.926 44.844 156.097 44.5667 156.289 44.268L166.753 29.26H158.657C157.889 29.26 157.238 29.0573 156.705 28.652C156.171 28.2467 155.905 27.6493 155.905 26.86C155.905 26.0493 156.171 25.4413 156.705 25.036C157.238 24.6307 157.889 24.428 158.657 24.428H171.841C172.523 24.428 173.067 24.62 173.473 25.004C173.878 25.388 174.081 25.9213 174.081 26.604C174.081 26.9027 174.006 27.1907 173.857 27.468C173.707 27.7453 173.537 28.0227 173.345 28.3L162.817 43.308H172.449Z" fill="#FFC52F"/>
</svg>
