<svg width="292" height="293" viewBox="0 0 292 293" fill="none" xmlns="http://www.w3.org/2000/svg">
<g clip-path="url(#clip0_803_38994)">
<path d="M79.7383 61.5151L82.2483 75.1051H89.7583V61.5151H79.7383Z" fill="#FFD56F"/>
<path d="M198.098 120.365L199.348 127.165H203.098V120.365H198.098Z" fill="#A5EE79"/>
<path d="M216.547 58.7349V64.9949H223.347L222.267 58.7349H216.547Z" fill="#FFBA8E"/>
<path d="M123.578 75.105V83.375H132.548L131.138 75.105H123.578Z" fill="#FFD7C0"/>
<path d="M95.67 111.265L84.75 116.615L91.05 129.465L101.19 122.505L95.67 111.265Z" fill="#FFBA8E"/>
<path d="M183.67 90.5049L172.75 95.8649L179.05 108.715L189.19 101.755L183.67 90.5049Z" fill="#FF6F42"/>
<path d="M23.2383 171.165V178.325L41.1283 182.255V176.715L23.2383 171.165Z" fill="#FF6F42"/>
<path d="M43.0967 61.1851L38.8167 59.4551L32.1367 69.2051L35.4467 70.5451L43.0967 61.1851Z" fill="#FF6F42"/>
<path d="M191.299 21.4751L184.859 33.9951L191.299 38.6451L198.099 27.5551L191.299 21.4751Z" fill="#FFD56F"/>
<path d="M268.757 162.945L256.957 166.515L268.757 173.315V162.945Z" fill="#FFAA42"/>
<path d="M47.0281 108.715L46.9381 96.375L37.0781 105.775L47.0281 108.715Z" fill="#A5EE79"/>
<path d="M121.267 36.2849C123.835 36.2849 125.917 34.203 125.917 31.6349C125.917 29.0667 123.835 26.9849 121.267 26.9849C118.699 26.9849 116.617 29.0667 116.617 31.6349C116.617 34.203 118.699 36.2849 121.267 36.2849Z" fill="#FF6F42"/>
<path d="M238.419 138.185C240.098 138.185 241.459 136.824 241.459 135.145C241.459 133.466 240.098 132.105 238.419 132.105C236.74 132.105 235.379 133.466 235.379 135.145C235.379 136.824 236.74 138.185 238.419 138.185Z" fill="#FFBA8E"/>
<path d="M248.548 98.9151C250.867 98.9151 252.748 97.0347 252.748 94.7151C252.748 92.3955 250.867 90.5151 248.548 90.5151C246.228 90.5151 244.348 92.3955 244.348 94.7151C244.348 97.0347 246.228 98.9151 248.548 98.9151Z" fill="#FFD56F"/>
<path d="M135.428 236.255C135.428 236.255 133.718 240.785 134.828 240.735C135.938 240.685 137.778 236.915 137.778 236.915" fill="#D5D4DD"/>
<path d="M136.117 236.915L134.827 240.745L129.797 235.815L130.467 233.345L136.117 236.915Z" fill="#82CEF9"/>
<path d="M80.8566 259.425C80.8566 259.425 79.6266 263.215 85.0966 268.165C90.5666 273.125 96.7266 271.115 96.7266 271.115L98.2566 269.225L82.9666 258.035L80.8566 259.415V259.425Z" fill="#D5D4DD"/>
<path d="M85.8783 244.975C85.8783 244.975 81.2683 249.275 80.4083 252.965C79.5483 256.645 79.7983 260.265 86.2383 266.225C92.6883 272.175 99.1883 271.625 102.808 270.155C102.808 270.155 107.358 267.735 109.258 263.635L85.8783 244.975Z" fill="#C6E8FF"/>
<path d="M123.178 232.655C123.178 232.655 114.228 232.085 110.688 238.145C107.148 244.215 111.018 252.385 112.948 254.675C114.878 256.965 121.128 267.075 129.648 261.975C129.648 261.975 133.738 259.855 135.428 255.025L123.178 232.665V232.655Z" fill="#C6E8FF"/>
<path d="M121.307 232.725C121.217 232.735 121.127 232.755 121.037 232.775C118.297 233.315 116.837 236.215 116.607 238.795C116.417 240.935 116.917 243.085 117.587 245.135C118.537 248.055 119.847 250.905 121.807 253.275C123.767 255.645 126.427 257.505 129.437 258.125C131.107 258.465 133.047 258.345 134.227 257.115C134.867 256.455 135.187 255.555 135.437 254.675C137.407 247.565 134.577 239.365 128.627 234.995C126.577 233.485 123.907 232.345 121.317 232.735L121.307 232.725Z" fill="#9AD7FF"/>
<path d="M122.949 236.795C121.709 238.005 120.899 239.685 120.869 241.445C120.829 243.635 121.699 245.745 122.789 247.655C123.749 249.335 124.909 250.935 126.459 252.085C128.009 253.235 130.019 253.875 131.909 253.495C135.079 252.855 137.129 249.415 136.989 246.185C136.849 242.955 134.949 240.035 132.619 237.795C131.459 236.685 130.129 235.675 128.589 235.235C126.479 234.625 124.419 235.375 122.949 236.805V236.795Z" fill="#D5D4DD"/>
<path d="M96.7783 243.155C96.7783 243.155 96.8383 234.345 105.588 222.195C105.588 222.195 117.818 207.125 127.228 208.095L128.918 203.655C128.918 203.655 110.168 202.405 99.6883 215.945C99.6883 215.945 88.9783 233.635 92.1083 242.395L96.7783 243.155Z" fill="#E6F6FF"/>
<path d="M131.568 203.625C134.508 205.965 138.048 208.125 140.628 210.845C142.828 213.165 142.898 217.085 142.678 220.045C142.048 228.445 137.888 238.935 137.888 238.935L129.488 232.605L132.468 217.505L131.568 203.635V203.625Z" fill="#9AD7FF"/>
<path d="M92.1082 242.405H92.1782C92.4082 235.795 94.0582 229.205 97.2382 223.415C100.418 217.625 105.158 212.655 110.938 209.455C115.328 207.025 120.638 205.645 125.378 207.285C126.588 207.705 127.748 208.325 128.618 209.265C129.888 210.645 130.408 212.555 130.638 214.415C131.108 218.255 130.528 222.225 128.968 225.765C128.178 227.565 127.118 229.315 126.938 231.285C126.758 233.245 127.848 235.525 129.788 235.815C128.868 231.065 131.828 226.705 133.288 222.395C134.848 217.805 135.338 212.615 134.018 207.915C132.558 202.715 128.618 200.225 123.328 200.265C117.868 200.305 113.308 202.485 108.788 205.285C104.268 208.085 100.628 211.605 97.5482 215.655C96.2482 217.365 95.0682 219.175 94.0382 221.065C90.3882 227.725 88.5282 235.355 88.6982 242.935L92.0982 242.405H92.1082Z" fill="#C6E8FF"/>
<path d="M125.409 235.305C125.409 235.305 122.619 236.195 123.359 241.795C124.099 247.395 129.469 253.945 134.449 252.215C134.449 252.215 140.779 248.015 134.189 239.475C134.189 239.475 129.859 233.435 125.409 235.305Z" fill="#E7EEF2"/>
<path d="M88.56 242.935C88.56 242.935 80.26 245.635 88.56 256.935C92.54 262.345 99.38 266.825 106.37 265.175C111.94 263.865 111.11 257.405 108.82 253.625C107.3 251.125 105.27 248.945 103.17 246.935C103.17 246.935 96.67 240.535 88.57 242.935H88.56Z" fill="#706E7C"/>
<path d="M94.0972 250.295C93.8372 250.575 93.6272 250.935 93.5272 251.435C93.3172 252.425 93.5472 253.465 94.0272 254.355C94.5072 255.235 95.2272 255.975 96.0172 256.595C97.3172 257.615 98.9772 258.375 100.597 258.065C100.937 257.995 101.267 257.885 101.547 257.685C101.727 257.555 101.867 257.395 101.997 257.205C100.897 253.545 97.2372 250.435 94.0872 250.295H94.0972Z" fill="#474751"/>
<path d="M102.149 254.485C101.839 253.745 101.339 253.115 100.809 252.515C100.039 251.645 99.1894 250.815 98.1694 250.255C96.9194 249.565 95.2094 249.265 94.2294 250.145C94.1794 250.185 94.1494 250.255 94.1094 250.305C97.2494 250.435 100.909 253.555 102.019 257.215C102.099 257.095 102.189 256.965 102.239 256.835C102.559 256.105 102.469 255.235 102.159 254.505L102.149 254.485Z" fill="#595863"/>
<path d="M93.2994 236.345L107.479 232.965C107.479 232.965 108.659 232.485 109.159 230.785C109.099 230.425 109.019 230.055 108.899 229.655L85.1994 205.965C85.1994 205.965 82.3194 202.665 77.8594 204.095C77.8594 204.095 64.3594 207.645 64.3194 207.655C63.8394 207.785 63.3994 207.895 62.9994 208.205C62.5294 208.565 62.2794 209.095 62.1094 209.655L86.7794 234.975C86.7794 234.975 88.7294 237.615 93.3094 236.355L93.2994 236.345Z" fill="#E7EEF2"/>
<path d="M107.488 232.965L93.3077 236.345C88.7277 237.605 86.7777 234.965 86.7777 234.965L62.1077 209.645C61.9777 210.055 61.8877 210.475 61.8077 210.875C61.6477 211.645 61.2577 213.075 61.8977 213.715L86.1077 237.925C86.1077 237.925 87.6077 240.415 91.7977 239.755L108.158 235.205C108.158 235.205 109.688 233.875 109.158 230.775C108.668 232.475 107.478 232.955 107.478 232.955L107.488 232.965Z" fill="#D5D4DD"/>
<path d="M65.957 210.525L72.767 217.285L88.667 213.115L81.947 206.315L65.957 210.525Z" fill="#C6E8FF"/>
<path d="M75.1094 219.085L77.8994 222.135L85.2494 220.205L82.3694 216.995L75.1094 219.085Z" fill="#D1D1D4"/>
<path d="M85.2461 217.915L88.0461 220.795L95.0961 219.005L92.2161 216.075L85.2461 217.915Z" fill="#9AD7FF"/>
<path d="M80.5664 225.095L87.1264 231.985L103.066 227.555L96.5164 220.795L80.5664 225.095Z" fill="#D1D1D4"/>
<path d="M99.9588 235.745C99.5588 235.805 99.1788 235.935 98.8188 236.115C98.6688 236.195 98.5288 236.275 98.4188 236.405C98.3488 236.485 98.2888 236.595 98.3388 236.695C98.3788 236.785 98.4888 236.815 98.5888 236.825C98.9988 236.875 99.4188 236.785 99.8288 236.685C100.149 236.605 100.479 236.525 100.759 236.355C100.919 236.255 101.069 236.075 100.999 235.915C100.859 235.605 100.239 235.715 99.9688 235.755L99.9588 235.745Z" fill="#686867"/>
<path d="M68.8477 124.585V141.465C68.8477 141.465 115.508 181.245 193.518 198.735V180.775C193.518 180.775 110.568 156.415 68.8477 124.585Z" fill="#FFEDC1"/>
<path d="M70.5292 127.095H67.6992V199.945H70.5292V127.095Z" fill="#706E7C"/>
<path d="M194.939 181.285H192.109V265.555H194.939V181.285Z" fill="#706E7C"/>
<path d="M87.9688 141.675V150.555L91.1087 152.425V148.985L95.4387 151.665V149.395L91.2287 146.705V145.475L95.8988 147.995V145.715L87.9688 141.675Z" fill="#FFAA42"/>
<path d="M98.707 147.465V156.865L101.447 158.675L102.147 149.805L98.707 147.465Z" fill="#FFAA42"/>
<path d="M121.27 159.965V169.365L124.01 171.175L124.71 162.305L121.27 159.965Z" fill="#FFAA42"/>
<path d="M104.889 151.615L104.539 160.665L107.579 162.525L108.219 157.445L113.419 166.035L116.749 167.315L117.739 158.155L114.119 156.105L113.769 160.255L108.919 153.075L104.889 151.615Z" fill="#FFAA42"/>
<path d="M142.317 171.175L139.167 170.525C139.167 170.525 136.077 167.375 134.787 167.315C134.787 167.315 132.797 167.025 134.207 168.365C135.307 169.415 139.347 171.835 141.037 172.825C141.847 173.295 142.477 174.055 142.667 174.975C142.737 175.295 142.747 175.655 142.667 176.015C142.337 177.505 140.917 178.235 137.877 177.185C135.267 176.275 130.567 173.725 128.647 171.245C128.177 170.645 127.957 169.885 127.957 169.125L131.187 170.005C131.187 170.005 132.857 172.695 134.437 173.095C134.437 173.095 136.187 173.915 137.177 173.505C137.947 173.185 135.967 171.955 135.047 171.425C134.747 171.245 134.447 171.055 134.177 170.835L131.047 168.385C130.677 168.095 130.347 167.745 130.087 167.345C129.887 167.045 129.667 166.675 129.537 166.305C129.327 165.745 129.587 165.135 130.127 164.885C130.877 164.535 132.327 164.265 134.677 165.325C138.417 167.015 141.857 169.425 142.327 171.175H142.317Z" fill="#FFAA42"/>
<path d="M146 171.095V180.335L150.73 182.205V178.115L156.63 180.575V184.835L162.29 187.055L162.64 176.655L157.62 174.385L157.39 178.065L151.2 175.665L151.08 172.685L146 171.095Z" fill="#FFAA42"/>
</g>
<defs>
<clipPath id="clip0_803_38994">
<rect width="245.52" height="250.05" fill="white" transform="translate(23.2383 21.4751)"/>
</clipPath>
</defs>
</svg>
