<svg width="48" height="48" viewBox="0 0 48 48" fill="none" xmlns="http://www.w3.org/2000/svg">
<path fill-rule="evenodd" clip-rule="evenodd" d="M24 0C10.7455 0 0 10.7455 0 24C0 37.2545 10.7455 48 24 48C37.2545 48 48 37.2545 48 24C48 10.7455 37.2545 0 24 0ZM26.1818 32.7273C26.1818 33.3059 25.9519 33.8609 25.5428 34.2701C25.1336 34.6792 24.5787 34.9091 24 34.9091C23.4213 34.9091 22.8664 34.6792 22.4572 34.2701C22.0481 33.8609 21.8182 33.3059 21.8182 32.7273V26.1818H15.2727C14.6941 26.1818 14.1391 25.9519 13.7299 25.5428C13.3208 25.1336 13.0909 24.5787 13.0909 24C13.0909 23.4213 13.3208 22.8664 13.7299 22.4572C14.1391 22.0481 14.6941 21.8182 15.2727 21.8182H21.8182V15.2727C21.8182 14.6941 22.0481 14.1391 22.4572 13.7299C22.8664 13.3208 23.4213 13.0909 24 13.0909C24.5787 13.0909 25.1336 13.3208 25.5428 13.7299C25.9519 14.1391 26.1818 14.6941 26.1818 15.2727V21.8182H32.7273C33.3059 21.8182 33.8609 22.0481 34.2701 22.4572C34.6792 22.8664 34.9091 23.4213 34.9091 24C34.9091 24.5787 34.6792 25.1336 34.2701 25.5428C33.8609 25.9519 33.3059 26.1818 32.7273 26.1818H26.1818V32.7273Z" fill="current"/>
</svg>
