<svg width="48" height="48" viewBox="0 0 48 48" fill="none" xmlns="http://www.w3.org/2000/svg">
<mask id="mask0_2148_14243" style="mask-type:alpha" maskUnits="userSpaceOnUse" x="0" y="0" width="48" height="48">
<rect width="48" height="48" fill="#D9D9D9"/>
</mask>
<g mask="url(#mask0_2148_14243)">
</g>
<path d="M25.8204 34H22.1804C21.9523 34 21.7311 33.9221 21.5534 33.7792C21.3757 33.6362 21.2522 33.4368 21.2034 33.214L20.7964 31.33C20.2534 31.0921 19.7386 30.7946 19.2614 30.443L17.4244 31.028C17.2069 31.0973 16.9723 31.0902 16.7595 31.0078C16.5467 30.9254 16.3684 30.7727 16.2544 30.575L14.4304 27.424C14.3175 27.2261 14.2752 26.9958 14.3102 26.7708C14.3453 26.5457 14.4557 26.3392 14.6234 26.185L16.0484 24.885C15.9836 24.2961 15.9836 23.7019 16.0484 23.113L14.6234 21.816C14.4554 21.6618 14.3449 21.4551 14.3098 21.2298C14.2748 21.0045 14.3173 20.774 14.4304 20.576L16.2504 17.423C16.3644 17.2253 16.5427 17.0726 16.7555 16.9902C16.9683 16.9078 17.2029 16.9007 17.4204 16.97L19.2574 17.555C19.5014 17.375 19.7554 17.207 20.0174 17.055C20.2704 16.913 20.5304 16.784 20.7964 16.669L21.2044 14.787C21.2529 14.5642 21.3762 14.3647 21.5537 14.2215C21.7312 14.0784 21.9523 14.0002 22.1804 14H25.8204C26.0484 14.0002 26.2695 14.0784 26.447 14.2215C26.6245 14.3647 26.7478 14.5642 26.7964 14.787L27.2084 16.67C27.751 16.9079 28.2655 17.2054 28.7424 17.557L30.5804 16.972C30.7977 16.9029 31.0321 16.9102 31.2447 16.9926C31.4573 17.075 31.6354 17.2275 31.7494 17.425L33.5694 20.578C33.8014 20.985 33.7214 21.5 33.3764 21.817L31.9514 23.117C32.0162 23.7059 32.0162 24.3001 31.9514 24.889L33.3764 26.189C33.7214 26.507 33.8014 27.021 33.5694 27.428L31.7494 30.581C31.6353 30.7787 31.4571 30.9314 31.2443 31.0138C31.0314 31.0962 30.7968 31.1033 30.5794 31.034L28.7424 30.449C28.2655 30.8003 27.751 31.0975 27.2084 31.335L26.7964 33.214C26.7476 33.4366 26.6243 33.6359 26.4468 33.7788C26.2693 33.9218 26.0483 33.9998 25.8204 34ZM19.6204 28.229L20.4404 28.829C20.6254 28.965 20.8174 29.09 21.0174 29.204C21.2054 29.313 21.3974 29.411 21.5964 29.5L22.5294 29.909L22.9864 32H25.0164L25.4734 29.908L26.4064 29.499C26.8134 29.319 27.2004 29.096 27.5594 28.833L28.3794 28.233L30.4214 28.883L31.4364 27.125L29.8534 25.682L29.9654 24.67C30.0154 24.227 30.0154 23.78 29.9654 23.338L29.8534 22.326L31.4374 20.88L30.4214 19.121L28.3804 19.771L27.5594 19.171C27.2002 18.9067 26.8136 18.6817 26.4064 18.5L25.4734 18.091L25.0164 16H22.9864L22.5264 18.092L21.5964 18.5C21.1886 18.6786 20.8019 18.902 20.4434 19.166L19.6224 19.766L17.5824 19.116L16.5654 20.88L18.1484 22.321L18.0364 23.334C17.9864 23.777 17.9864 24.224 18.0364 24.666L18.1484 25.678L16.5654 27.121L17.5804 28.879L19.6204 28.229ZM23.9964 28C22.9355 28 21.9181 27.5786 21.1679 26.8284C20.4178 26.0783 19.9964 25.0609 19.9964 24C19.9964 22.9391 20.4178 21.9217 21.1679 21.1716C21.9181 20.4214 22.9355 20 23.9964 20C25.0572 20 26.0747 20.4214 26.8248 21.1716C27.5749 21.9217 27.9964 22.9391 27.9964 24C27.9964 25.0609 27.5749 26.0783 26.8248 26.8284C26.0747 27.5786 25.0572 28 23.9964 28ZM23.9964 22C23.6047 22.0004 23.2218 22.1158 22.8952 22.3318C22.5685 22.5479 22.3124 22.855 22.1588 23.2153C22.0051 23.5755 21.9606 23.9729 22.0307 24.3583C22.1009 24.7436 22.2826 25.0998 22.5534 25.3828C22.8242 25.6657 23.1721 25.863 23.5539 25.95C23.9358 26.037 24.3348 26.01 24.7014 25.8724C25.0681 25.7347 25.3862 25.4924 25.6164 25.1756C25.8466 24.8587 25.9787 24.4812 25.9964 24.09V24.49V24C25.9964 23.4696 25.7857 22.9609 25.4106 22.5858C25.0355 22.2107 24.5268 22 23.9964 22Z" fill="#A6A9AD"/>
</svg>
