<svg width="16" height="16" viewBox="0 0 16 16" fill="none" xmlns="http://www.w3.org/2000/svg">
<mask id="mask0_2032_113007" style="mask-type:alpha" maskUnits="userSpaceOnUse" x="0" y="0" width="16" height="16">
<rect width="16" height="16" fill="#D9D9D9"/>
</mask>
<g mask="url(#mask0_2032_113007)">
<path d="M7.7433 0.55C7.82641 0.516667 7.91241 0.5 8.0013 0.5C8.09019 0.5 8.17641 0.516667 8.25997 0.55C8.34308 0.583333 8.41241 0.627778 8.46797 0.683333L10.2013 2.41667C10.3346 2.55 10.4013 2.71111 10.4013 2.9C10.4013 3.08889 10.3346 3.24444 10.2013 3.36667C10.068 3.48889 9.90975 3.55 9.72664 3.55C9.54308 3.55 9.39019 3.48889 9.26797 3.36667L8.76797 2.86667V3.00809M7.7433 0.55L7.70625 0.457118C7.70622 0.45713 7.70619 0.457141 7.70616 0.457152M7.7433 0.55C7.65975 0.583333 7.59019 0.627778 7.53464 0.683333L5.8013 2.41667C5.67908 2.53889 5.61797 2.69156 5.61797 2.87467C5.61797 3.05822 5.67908 3.21667 5.8013 3.35C5.93464 3.48333 6.09308 3.55 6.27664 3.55C6.45975 3.55 6.61241 3.48889 6.73464 3.36667L7.23464 2.86667M7.7433 0.55L7.23464 2.86667M7.70616 0.457152C7.80099 0.419131 7.89959 0.4 8.0013 0.4C8.10304 0.4 8.20182 0.41914 8.29702 0.457118L8.29719 0.457187C8.3911 0.49485 8.47232 0.546268 8.53868 0.612623L10.272 2.34596C10.4241 2.49808 10.5013 2.68464 10.5013 2.9C10.5013 3.11552 10.4239 3.29829 10.2689 3.44038C10.1168 3.57974 9.93442 3.65 9.72664 3.65C9.51838 3.65 9.33948 3.5796 9.19726 3.43738L8.76797 3.00809M7.70616 0.457152C7.61185 0.494787 7.53035 0.546196 7.46392 0.612623L5.73059 2.34596C5.58841 2.48813 5.51797 2.66678 5.51797 2.87467C5.51797 3.08283 5.58818 3.2655 5.72759 3.41757L5.72752 3.41764L5.73059 3.42071C5.88211 3.57222 6.06576 3.65 6.27664 3.65C6.48452 3.65 6.66317 3.57955 6.80535 3.43738L7.23464 3.00809M7.70616 0.457152L7.23464 2.86667M8.76797 3.00809L8.66797 2.90809V9.55C8.66797 9.73889 8.60419 9.89711 8.47664 10.0247C8.34864 10.1527 8.19019 10.2167 8.0013 10.2167C7.81241 10.2167 7.65419 10.1527 7.52664 10.0247M8.76797 3.00809V9.55C8.76797 9.76402 8.69462 9.94811 8.54735 10.0954C8.3997 10.243 8.21543 10.3167 8.0013 10.3167C7.78723 10.3167 7.60315 10.2431 7.45592 10.0954M7.45592 10.0954C7.45597 10.0954 7.45601 10.0955 7.45605 10.0955L7.52664 10.0247M7.45592 10.0954C7.45588 10.0953 7.45584 10.0953 7.4558 10.0953L7.52664 10.0247M7.45592 10.0954C7.30825 9.94815 7.23464 9.76407 7.23464 9.55V3.00809M7.52664 10.0247C7.39864 9.89711 7.33464 9.73889 7.33464 9.55V2.90809L7.23464 3.00809M7.23464 3.00809V2.86667M5.8808 5.00408L5.88056 5.00383C5.73289 4.85668 5.54865 4.78333 5.33464 4.78333H4.0013C3.60793 4.78333 3.26877 4.92445 2.98926 5.20396C2.70934 5.48388 2.56797 5.82324 2.56797 6.21667V13.55C2.56797 13.9434 2.70934 14.2828 2.98926 14.5627C3.26877 14.8422 3.60793 14.9833 4.0013 14.9833H12.0013C12.3947 14.9833 12.734 14.8422 13.014 14.5628L13.0141 14.5627C13.2935 14.2827 13.4346 13.9434 13.4346 13.55V6.21667C13.4346 5.8233 13.2935 5.48395 13.0141 5.20402L13.014 5.2039C12.734 4.92444 12.3947 4.78333 12.0013 4.78333H10.668C10.4539 4.78333 10.2699 4.85669 10.1226 5.00396C9.97495 5.1516 9.9013 5.33588 9.9013 5.55C9.9013 5.76407 9.97492 5.94815 10.1226 6.09538C10.2698 6.24305 10.4539 6.31667 10.668 6.31667H11.9013V13.45H4.1013V6.31667H5.33464C5.54876 6.31667 5.73304 6.24302 5.88068 6.09538C6.02795 5.94811 6.1013 5.76402 6.1013 5.55C6.1013 5.33598 6.02796 5.15175 5.8808 5.00408Z" fill="#FFC52F" stroke="#FFC52F" stroke-width="0.2" stroke-linejoin="round"/>
</g>
</svg>
