<svg width="16" height="16" viewBox="0 0 16 16" fill="none" xmlns="http://www.w3.org/2000/svg">
<mask id="mask0_2101_115252" style="mask-type:alpha" maskUnits="userSpaceOnUse" x="0" y="0" width="16" height="16">
<rect width="16" height="16" fill="#D9D9D9"/>
</mask>
<g mask="url(#mask0_2101_115252)">
<path fill-rule="evenodd" clip-rule="evenodd" d="M5.17767 3.82553C4.8262 3.47406 4.8262 2.90421 5.17767 2.55274L7.36524 0.365166C7.46805 0.262363 7.58953 0.189629 7.71877 0.146964C7.7668 0.131083 7.81661 0.119136 7.86784 0.111505C8.14044 0.0707463 8.42817 0.1553 8.63803 0.365166L10.8256 2.55274C11.1771 2.90421 11.1771 3.47406 10.8256 3.82553C10.4741 4.17701 9.90429 4.17701 9.55282 3.82553L8.90156 3.17428V9.00164C8.90156 9.49869 8.49862 9.90164 8.00156 9.90164C7.50451 9.90164 7.10156 9.49869 7.10156 9.00164L7.10156 3.17443L6.45046 3.82553C6.09899 4.17701 5.52914 4.17701 5.17767 3.82553ZM2.10156 14.0016C2.10156 14.4987 2.50451 14.9016 3.00156 14.9016H13.0016C13.4986 14.9016 13.9016 14.4987 13.9016 14.0016V6.00164C13.9016 5.50458 13.4986 5.10164 13.0016 5.10164H11.0016C10.5045 5.10164 10.1016 5.50458 10.1016 6.00164C10.1016 6.49869 10.5045 6.90164 11.0016 6.90164H12.1016V13.1016H3.90156L3.90156 6.90164H5.00156C5.49862 6.90164 5.90156 6.49869 5.90156 6.00164C5.90156 5.50458 5.49862 5.10164 5.00156 5.10164H3.00156C2.50451 5.10164 2.10156 5.50458 2.10156 6.00164V14.0016Z" fill="#FFC52F"/>
</g>
</svg>
