<svg width="70" height="70" viewBox="0 0 70 70" fill="none" xmlns="http://www.w3.org/2000/svg">
<circle cx="35" cy="35" r="32.5" fill="white" stroke="#FFF6D2" stroke-width="5"/>
<path d="M18.6718 35.9999C17.307 33.5311 14.4964 33.6805 14.1541 33.7065C13.8118 33.7325 13.2019 33.8113 13.1402 34.5846C13.0784 35.3595 13.851 35.3291 13.851 35.3291L14.8616 35.3645C16.4486 35.5632 16.5046 36.1708 16.5046 36.1708C16.5046 36.1708 14.2308 36.901 13.8566 38.4252C13.5927 39.4989 13.791 41.0808 15.231 41.7641C16.7688 42.4927 18.1697 41.2128 18.1697 41.2128C19.3426 40.045 19.3123 38.6203 19.3123 38.6203C20.5723 39.5903 21.0055 40.5502 21.0055 40.5502C21.2252 40.0739 21.929 38.9062 21.929 38.9062C21.3877 37.9096 18.6733 36.0015 18.6733 36.0015L18.6718 35.9999ZM16.9766 40.0581C16.6502 40.2961 15.498 40.5333 15.4146 39.5326C15.2993 38.1568 17.4352 37.8309 17.4352 37.8309C17.7888 39.0159 17.3031 39.8201 16.9766 40.0581Z" fill="#FFC52F"/>
<path d="M38.9962 35.0908C38.2616 34.5645 37.4867 34.0988 36.7117 33.6331L30.8883 30.1319C29.1844 29.1083 26.9756 29.6296 25.9091 31.307L20.2927 40.1482C19.5177 41.3674 18.7251 42.6333 18.5017 44.0608C18.2594 45.6006 18.8324 47.0066 20.0995 47.8914C21.8022 49.0803 23.6209 50.1329 25.374 51.2486L28.2226 53.0623C30.2547 54.356 32.3523 55.6762 34.7201 56.1217C37.652 56.6733 40.8238 55.7406 42.9921 53.6909C45.1604 51.6412 46.4466 48.8178 46.0603 45.8593C45.7587 43.5484 44.436 41.1327 43.0615 39.2496C42.0076 37.8057 40.801 36.4615 39.3811 35.3761C39.2537 35.2789 39.1249 35.1842 38.9949 35.0908H38.9962ZM38.2036 44.6654C38.2036 44.6654 37.2696 49.4817 32.8875 47.6516L29.0683 45.299V45.2889C29.0014 45.2523 28.937 45.2157 28.8751 45.1803L28.6884 45.0655C27.5423 44.3158 27.9639 43.7326 27.9639 43.7326C28.0737 43.2278 30.4238 39.6749 30.4238 39.6749L31.4663 37.9142L31.5042 37.9344L35.3335 40.3463C35.3335 40.3463 38.8283 42.0717 38.2048 44.6666L38.2036 44.6654Z" fill="#FFC52F"/>
<path d="M40.0282 19.6579L48.5463 25.1418C48.5463 25.1418 55.0463 29.5429 52.2381 35.6264C52.18 35.7538 52.1207 35.8801 52.0664 36.0088C51.6058 37.093 48.4252 43.6333 39.1914 42.1592C38.0656 41.9799 36.9587 41.2984 35.9768 40.7191L27.4044 35.4295C25.8343 34.5031 24.9912 32.7664 25.963 31.2241C26.9929 29.5896 29.1373 29.0746 30.797 30.0654L37.8864 34.2973C37.8864 34.2973 42.372 37.6609 44.0456 33.6423C44.0456 33.6423 45.5803 31.3995 42.6989 29.577C40.8953 28.436 36.9537 25.9433 34.2552 24.2369C32.7419 23.2802 32.338 21.2507 33.3705 19.7879C33.3705 19.7879 35.3634 16.654 40.0295 19.6579H40.0282Z" fill="#FFC52F"/>
<path d="M42.1389 14.9103C42.0414 14.6892 42.0399 14.4374 42.1369 14.2149L42.6521 13.0236C42.8639 12.5346 42.5742 11.9432 42.1241 11.9448L36.4151 11.9617C35.8985 11.962 35.4793 12.3816 35.4809 12.8996L35.5054 20.743C35.5075 21.2296 35.9382 21.619 36.4366 21.5505C36.8486 21.4947 37.1443 21.1222 37.142 20.706L37.1301 17.1978L42.1399 17.1802C42.59 17.1786 42.8756 16.5855 42.6608 16.0973L42.1376 14.9103L42.1389 14.9103Z" fill="#FF8752"/>
</svg>
