<svg width="240" height="136" viewBox="0 0 240 136" fill="none" xmlns="http://www.w3.org/2000/svg">
<g clip-path="url(#clip0_152_44585)">
<path d="M63.0685 92.6443L154.963 12.1516C156.315 10.97 158.386 11.1649 159.494 12.5901L176.889 35.0277C177.9 36.3311 177.729 38.1948 176.487 39.2911L85.4696 119.65C84.1418 120.819 82.1076 120.661 80.9869 119.284L62.7031 96.9808C61.6311 95.6774 61.7895 93.7528 63.0563 92.6443H63.0685Z" fill="#8D8DFF"/>
<path fill-rule="evenodd" clip-rule="evenodd" d="M82.7717 90.4849L75.7554 81.4709L76.7166 80.7227L83.7329 89.7367L82.7717 90.4849Z" fill="#E7DBFF"/>
<path fill-rule="evenodd" clip-rule="evenodd" d="M68.8971 95.418L65.0723 90.4846L66.0349 89.7383L69.8598 94.6716L68.8971 95.418Z" fill="#E7DBFF"/>
<path fill-rule="evenodd" clip-rule="evenodd" d="M74.2457 91.0093L70.4087 86.076L71.3702 85.3281L75.2073 90.2615L74.2457 91.0093Z" fill="#E7DBFF"/>
<path fill-rule="evenodd" clip-rule="evenodd" d="M84.1989 82.1291L80.3618 77.208L81.3224 76.459L85.1595 81.3801L84.1989 82.1291Z" fill="#E7DBFF"/>
<path fill-rule="evenodd" clip-rule="evenodd" d="M89.5334 77.7195L85.7085 72.7983L86.6703 72.0508L90.4951 76.972L89.5334 77.7195Z" fill="#E7DBFF"/>
<path fill-rule="evenodd" clip-rule="evenodd" d="M134.25 38.5066L130.425 33.5854L131.387 32.8379L135.212 37.7591L134.25 38.5066Z" fill="#E7DBFF"/>
<path fill-rule="evenodd" clip-rule="evenodd" d="M139.597 34.0984L135.772 29.1772L136.734 28.4297L140.559 33.3509L139.597 34.0984Z" fill="#E7DBFF"/>
<path fill-rule="evenodd" clip-rule="evenodd" d="M151.291 23.9141L147.466 18.9807L148.428 18.2344L152.253 23.1677L151.291 23.9141Z" fill="#E7DBFF"/>
<path fill-rule="evenodd" clip-rule="evenodd" d="M156.637 19.4929L152.812 14.5717L153.774 13.8242L157.599 18.7454L156.637 19.4929Z" fill="#E7DBFF"/>
<path fill-rule="evenodd" clip-rule="evenodd" d="M98.9001 76.5747L91.8838 67.5607L92.845 66.8125L99.8613 75.8265L98.9001 76.5747Z" fill="#E7DBFF"/>
<path fill-rule="evenodd" clip-rule="evenodd" d="M132.13 47.5327L125.126 38.5065L126.088 37.7598L133.092 46.786L132.13 47.5327Z" fill="#E7DBFF"/>
<path fill-rule="evenodd" clip-rule="evenodd" d="M148.698 32.5142L141.682 23.5002L142.643 22.752L149.659 31.766L148.698 32.5142Z" fill="#E7DBFF"/>
<path d="M78.5759 42.6415C78.5759 42.6415 64.994 32.2632 67.3936 21.6169C67.3936 21.6169 69.5253 11.2386 83.1073 7.49899C83.1073 7.49899 89.5024 5.36729 94.5575 9.89867L105.204 21.8849C105.204 21.8849 88.6984 31.7394 78.5759 42.6537V42.6415Z" fill="#FF8B85"/>
<path d="M113.145 31.1919L165.78 92.0731C165.78 92.0731 160.944 94.2048 157.46 96.5192L105.203 35.0411C105.203 35.0411 109.844 30.6559 113.157 31.1919H113.145Z" fill="#FFEDA1"/>
<path d="M92.1445 45.3223L143.926 108.347L138.506 115.278L86.1514 52.8015C86.1514 52.8015 87.1868 47.32 92.1445 45.3223Z" fill="#FFDC48"/>
<path d="M105.202 35.0395L157.471 96.5176L143.926 108.345C143.926 108.345 108.844 68.5985 92.144 45.3204C92.144 45.3204 100.318 35.8313 105.19 35.0273L105.202 35.0395Z" fill="#FCE170"/>
<path d="M78.5742 42.6418C78.5742 42.6418 80.0481 47.7823 86.1509 52.7887C86.1509 52.7887 90.3777 45.9307 95.4085 42.6418C95.4085 42.6418 107.651 31.8128 113.156 31.1794C113.156 31.1794 113.473 28.8285 111.902 27.5738L105.214 21.873C105.214 21.873 88.916 31.0211 78.5864 42.6418H78.5742Z" fill="#FFF6E2"/>
<path d="M143.927 108.345L162.601 120.161C162.601 120.161 163.722 117.603 166.438 117.128L157.473 96.5176L143.927 108.345Z" fill="#FFF6E2"/>
<path d="M157.461 96.5184C157.461 96.5184 163.223 92.5351 165.781 92.0723L168.058 117.214C168.058 117.214 168.168 117.117 166.438 117.117L157.473 96.5062L157.461 96.5184Z" fill="#FCF7EE"/>
<path d="M143.928 108.346L138.508 115.277L161.798 121.794L162.602 120.161L143.928 108.346Z" fill="#FFEDD2"/>
<path d="M161.796 121.794C161.796 121.794 162.527 116.166 168.057 117.214L172.954 122.805C172.954 122.805 173.588 127.458 168.35 128.25L161.796 121.782V121.794Z" fill="#706E7D"/>
</g>
<defs>
<clipPath id="clip0_152_44585">
<rect width="115.55" height="121.263" fill="white" transform="translate(62 7)"/>
</clipPath>
</defs>
</svg>
