<svg width="240" height="136" viewBox="0 0 240 136" fill="none" xmlns="http://www.w3.org/2000/svg">
<g clip-path="url(#clip0_152_44589)">
<path d="M87.8473 79.609C87.8473 79.609 111.037 89.0019 140.338 82.5928L142.618 31.1525L121.194 25.2207L91.7263 28.7893L86.8687 45.9401L86.0332 71.3619L87.8354 79.609H87.8473Z" fill="#FFE05C"/>
<path d="M133.228 103.756L131.068 116.538L133.765 128.282C133.765 128.282 136.164 129.094 139.971 124.642L147.753 119.713L147.109 81.9023L135.83 85.9841C135.83 85.9841 131.605 97.5135 133.216 103.744L133.228 103.756Z" fill="#7373F9"/>
<path d="M107.019 23.9089C107.77 19.29 110.492 13.8834 114.18 10.9474C118.703 7.35493 125.446 7.09236 130.483 9.90904C135.52 12.7257 138.766 18.3114 139.219 24.076L132.452 22.9661C131.676 20.9132 130.746 18.8723 129.349 17.1895C127.953 15.5066 126.007 14.1699 123.823 13.8834C121.341 13.5493 118.787 14.6353 117.02 16.4256C115.254 18.2159 114.203 20.6148 113.714 23.0735C111.828 23.348 108.809 24.3625 107.019 23.9209V23.9089Z" fill="#AED5FF"/>
<path d="M154.326 83.7391V112.097C154.326 112.097 160.854 112.861 162.907 109.209C162.907 109.209 165.819 103.742 166.07 97.2019C166.32 90.6734 166.404 82.832 166.404 82.832L154.326 83.7272V83.7391Z" fill="#FFE05C"/>
<path d="M155.342 84.3958C155.342 84.3958 158.469 86.4367 161.512 85.5893C164.866 84.6464 166.406 82.8442 166.406 82.8442C166.406 82.8442 166.704 83.0113 165.57 81.6387C164.436 80.2662 161.154 78.834 161.154 78.834C161.154 78.834 155.676 80.1827 155.342 84.3958Z" fill="#FFE783"/>
<path d="M76.6876 101.332C76.6876 101.332 75.7805 115.511 78.0362 117.623C80.292 119.736 102.658 123.567 102.658 123.567C102.658 123.567 127.28 129.415 133.749 128.293C133.749 128.293 132.066 110.988 133.212 103.755L76.6756 101.332H76.6876Z" fill="#8D8DFF"/>
<path d="M84.4592 79.3359C84.4592 79.3359 74.9469 80.6965 73.7415 85.7212C73.7415 85.7212 70.7816 97.5489 76.6894 101.332C76.6894 101.332 100.512 106.942 112.507 107.551C124.513 108.159 130.23 109.687 132.367 105.605C132.367 105.605 133.644 103.898 134.073 99.5779C134.503 95.2574 134.742 90.5669 136.27 88.8005L141.223 86.0315L143.944 84.8261C143.944 84.8261 144.934 82.6897 140.327 82.6062L87.8368 79.6224C87.8368 79.6224 87.0969 79.4434 84.4473 79.3479L84.4592 79.3359Z" fill="#ABABFF"/>
<path d="M116.064 93.2756C115.862 93.3233 115.671 93.383 115.504 93.4904C115.145 93.7291 114.931 94.1349 114.752 94.5288C113.498 97.3455 113.069 100.461 112.997 103.54C112.926 106.619 113.2 109.698 113.284 112.778C113.319 114.138 113.331 115.523 113.689 116.835C114.501 119.795 116.673 120.607 119.538 120.309C120.278 120.237 121.041 120.058 121.614 119.581C122.378 118.936 122.629 117.874 122.784 116.871C123.834 110.08 122.414 102.955 124.479 96.4026C124.705 95.6984 124.932 94.8391 124.431 94.2901C124.192 94.0275 123.822 93.9201 123.476 93.8246C121.244 93.2278 118.905 93.013 116.602 93.192C116.423 93.204 116.232 93.2278 116.053 93.2636L116.064 93.2756Z" fill="#FFE05C"/>
<path d="M117.817 110.367C117.817 110.367 114.642 110.367 114.69 113.256C114.738 116.144 115.621 117.505 117.399 117.875C119.178 118.245 121.457 117.266 121.409 115.07C121.362 112.874 120.753 110.403 117.817 110.355V110.367Z" fill="#AED5FF"/>
<path d="M79.7212 89.9107C79.7212 89.9107 79.6257 89.9585 79.5899 89.9823C79.196 90.221 78.9096 90.6149 78.6709 91.0087C77.6206 92.7751 77.3222 94.8757 77.2029 96.9286C77.0238 100.02 77.2148 103.111 77.1312 106.202C77.0954 107.551 77.0119 108.923 77.2864 110.248C77.8593 112.957 79.5541 113.853 82.1798 113.757C83.2301 113.721 84.3878 113.483 85.0084 112.635C85.4858 111.967 85.5216 111.096 85.5336 110.272C85.5813 105.665 85.3307 101.058 85.6768 96.4631C85.7365 95.6276 85.8319 94.7683 86.1781 94.0045C86.6197 93.0377 87.479 92.0113 86.9777 91.0804C86.7151 90.5791 86.1303 90.3404 85.5813 90.1733C84.1372 89.7317 82.6214 89.5407 81.1056 89.6123C80.6163 89.6362 80.127 89.6839 79.6973 89.9107H79.7212Z" fill="#FFE05C"/>
<path d="M80.3073 105.283C80.3073 105.283 78.2544 105.748 78.3499 107.992C78.4454 110.236 79.2808 111.955 81.0114 112.002C82.742 112.05 84.043 110.892 84.043 109.186C84.043 107.479 83.2552 104.591 80.3073 105.283Z" fill="#AED5FF"/>
<path d="M156.763 81.5681C157.682 80.2075 160.356 78.8947 161.943 79.3363C162.492 66.8999 162.074 54.738 160.451 42.3971C159.986 38.8524 159.281 35.2002 157.157 32.3119C154.579 28.803 150.318 27.0008 146.165 25.6999C132.236 21.3197 117.282 20.8184 102.84 22.9429C98.0901 23.647 93.0416 24.8047 89.7833 28.3495C87.0979 31.2736 86.0953 35.3315 85.3792 39.2343C82.9087 52.709 82.9206 65.7302 84.4602 79.3363C84.5199 79.3363 85.4986 79.4556 85.5582 79.4556C86.8353 79.5153 86.5727 79.5392 87.8498 79.6108C86.4773 66.0167 86.6443 51.0023 89.6043 37.6708C90.1175 35.3434 91.8481 33.2906 93.4235 32.0494C95.4644 30.4381 98.2333 29.1969 100.728 28.4569C110.336 25.5686 120.11 26.2847 129.826 28.7911C133.657 29.7817 137.762 31.5123 139.398 35.1047C140.221 36.895 140.305 38.9359 140.364 40.9052C140.83 55.0602 140.794 68.4395 140.34 82.5826C142.513 82.702 142.883 83.3823 143.527 84.4326C144.172 85.4828 144.231 86.7718 144.279 88.0012L144.554 95.9022C144.709 100.569 144.876 105.247 144.744 109.914C144.589 115.452 143.694 121.622 139.35 125.06C139.207 125.179 139.087 125.275 138.968 125.394C137.607 126.444 135.542 127.841 133.776 128.294C133.776 128.294 138.562 128.843 143.527 128.091L145.21 127.864C148.301 127.136 149.698 125.656 152.12 123.616C156.095 120.25 158.864 115.655 160.857 110.845C159.783 112.301 157.324 111.895 156.154 110.523C154.985 109.15 154.758 107.217 154.639 105.414C154.209 99.0173 154.448 92.5842 155.331 86.2348C155.558 84.6116 155.856 82.9287 156.775 81.5562L156.763 81.5681Z" fill="#8D8DFF"/>
</g>
<defs>
<clipPath id="clip0_152_44589">
<rect width="93.44" height="120.497" fill="white" transform="translate(73 8)"/>
</clipPath>
</defs>
</svg>
