<svg width="240" height="136" viewBox="0 0 240 136" fill="none" xmlns="http://www.w3.org/2000/svg">
<g clip-path="url(#clip0_152_44586)">
<path d="M170.995 69.1035C170.995 69.1035 168.372 76.016 170.052 75.9547C171.743 75.8934 174.586 70.1208 174.586 70.1208" fill="#D4D3DD"/>
<path d="M172.04 70.1099L170.055 75.9561L162.382 68.394L163.424 64.6191L172.04 70.1099Z" fill="#67CFFD"/>
<path d="M87.4466 104.291C87.4466 104.291 85.5592 110.076 93.8934 117.687C102.228 125.298 111.665 122.259 111.665 122.259L114.006 119.378L90.6822 102.195L87.4466 104.291Z" fill="#D4D3DD"/>
<path d="M95.1795 82.207C95.1795 82.207 88.1077 88.7641 86.7717 94.4019C85.4358 100.028 85.8035 105.567 95.633 114.71C105.462 123.841 115.414 123.032 120.967 120.79C120.967 120.79 127.94 117.113 130.857 110.85L95.1795 82.2193V82.207Z" fill="#94DEFF"/>
<path d="M152.27 63.5389C152.27 63.5389 138.579 62.6197 133.138 71.8853C127.696 81.151 133.579 93.6646 136.52 97.1699C139.462 100.675 148.973 116.167 162.026 108.409C162.026 108.409 168.288 105.185 170.899 97.8072L152.257 63.5511L152.27 63.5389Z" fill="#94DEFF"/>
<path d="M149.426 63.6374C149.291 63.6619 149.144 63.6864 149.01 63.7109C144.818 64.5198 142.575 68.9565 142.195 72.903C141.889 76.1754 142.649 79.4601 143.654 82.5977C145.088 87.0712 147.073 91.4344 150.064 95.0622C153.054 98.6901 157.111 101.558 161.719 102.514C164.269 103.053 167.235 102.869 169.048 100.994C170.029 99.9892 170.531 98.6165 170.911 97.2683C173.963 86.3971 169.661 73.859 160.579 67.1304C157.454 64.814 153.373 63.0491 149.414 63.6496L149.426 63.6374Z" fill="#5CD1FF"/>
<path d="M151.915 69.8634C150.015 71.7018 148.778 74.2756 148.716 76.9597C148.643 80.3179 149.966 83.5413 151.621 86.4705C153.08 89.0443 154.844 91.4955 157.222 93.2604C159.6 95.0253 162.652 96.0058 165.556 95.4298C170.398 94.4615 173.56 89.2159 173.363 84.2766C173.155 79.3374 170.275 74.8639 166.708 71.4322C164.931 69.7285 162.921 68.1843 160.556 67.4979C157.332 66.5542 154.17 67.694 151.927 69.8756L151.915 69.8634Z" fill="#D4D3DD"/>
<path d="M111.85 79.4724C111.85 79.4724 111.984 66.0028 125.429 47.4592C125.429 47.4592 144.206 24.4666 158.582 25.9986L161.193 19.2087C161.193 19.2087 132.526 17.2109 116.433 37.8749C116.433 37.8749 99.9733 64.8753 104.729 78.2835L111.862 79.4724H111.85Z" fill="#C5F0FF"/>
<path d="M165.238 19.1724C169.724 22.7635 175.129 26.0726 179.063 30.252C182.409 33.8186 182.507 39.7996 182.164 44.3344C181.171 57.1789 174.749 73.1977 174.749 73.1977L161.929 63.4663L166.562 40.3879L165.25 19.1602L165.238 19.1724Z" fill="#5CD1FF"/>
<path d="M104.718 78.3085H104.816C105.196 68.1971 107.745 58.1348 112.636 49.2981C117.526 40.4614 124.794 32.8748 133.655 28.0213C140.384 24.3322 148.51 22.2364 155.753 24.7735C157.604 25.4108 159.381 26.3668 160.704 27.813C162.641 29.9211 163.425 32.8503 163.768 35.6937C164.479 41.5767 163.572 47.6312 161.17 53.0485C159.945 55.8061 158.327 58.478 158.045 61.4685C157.763 64.4712 159.418 67.952 162.384 68.4055C160.999 61.1376 165.546 54.4825 167.801 47.9009C170.215 40.8903 170.975 32.9606 168.977 25.7539C166.784 17.7874 160.766 13.9635 152.664 14.0003C144.318 14.037 137.344 17.3462 130.407 21.6114C123.764 25.6927 117.894 31.2447 113.175 37.4096C111.177 40.0202 109.363 42.7778 107.782 45.6703C102.181 55.8429 99.3009 67.4863 99.5216 79.1051L104.73 78.3085H104.718Z" fill="#94DEFF"/>
<path d="M155.679 67.6089C155.679 67.6089 151.414 68.957 152.517 77.5364C153.632 86.1034 161.807 96.1413 169.431 93.5184C169.431 93.5184 179.125 87.133 169.088 74.0311C169.088 74.0311 162.494 64.7777 155.679 67.6089Z" fill="#D9F1FC"/>
<path d="M99.288 79.0936C99.288 79.0936 86.5784 83.1872 99.2268 100.505C105.281 108.803 115.724 115.678 126.423 113.19C134.954 111.205 133.703 101.326 130.21 95.5414C127.906 91.7052 124.805 88.3715 121.594 85.283C121.594 85.283 111.679 75.4658 99.288 79.0936Z" fill="#706E7D"/>
<path d="M107.718 90.3809C107.326 90.8098 106.995 91.3614 106.836 92.1212C106.517 93.6288 106.86 95.222 107.596 96.5825C108.331 97.9429 109.422 99.0705 110.635 100.026C112.621 101.595 115.146 102.76 117.634 102.294C118.148 102.196 118.663 102.024 119.092 101.718C119.362 101.522 119.595 101.264 119.778 100.995C118.099 95.3936 112.523 90.6137 107.718 90.3931V90.3809Z" fill="#474752"/>
<path d="M120.01 96.8278C119.545 95.7002 118.772 94.7197 117.963 93.8005C116.787 92.4646 115.488 91.2022 113.931 90.332C112.019 89.2657 109.409 88.8 107.901 90.1359C107.828 90.1972 107.779 90.2952 107.717 90.3688C112.522 90.5894 118.098 95.3693 119.777 100.97C119.912 100.787 120.035 100.59 120.121 100.394C120.611 99.2668 120.476 97.9554 120.01 96.8278Z" fill="#595864"/>
<path d="M106.569 69.1277L128.262 63.9555C128.262 63.9555 130.064 63.2202 130.824 60.6096C130.726 60.0703 130.603 59.4943 130.419 58.8815L94.1777 22.6522C94.1777 22.6522 89.7778 17.6026 82.9633 19.7965C82.9633 19.7965 62.3117 25.226 62.2504 25.2382C61.515 25.4343 60.8532 25.6059 60.2281 26.0839C59.505 26.6354 59.1251 27.4444 58.8677 28.3023L96.5922 67.0318C96.5922 67.0318 99.5705 71.0641 106.569 69.1399V69.1277Z" fill="#E8F2F7"/>
<path d="M128.26 63.9565L106.566 69.1286C99.5559 71.0529 96.5899 67.0206 96.5899 67.0206L58.8653 28.291C58.6692 28.9161 58.5344 29.5657 58.3996 30.1785C58.1545 31.3551 57.5539 33.5367 58.5344 34.5172L95.5604 71.5431C95.5604 71.5431 97.8645 75.3425 104.262 74.3498L129.289 67.3883C129.289 67.3883 131.63 65.3537 130.821 60.6106C130.062 63.2089 128.26 63.9565 128.26 63.9565Z" fill="#C4C3D1"/>
<path d="M64.7617 29.6401L75.1672 39.9843L99.4835 33.5989L89.2128 23.1934L64.7617 29.6401Z" fill="#BCE8FF"/>
<path d="M78.7432 42.7282L83.0206 47.3855L94.2472 44.444L89.8473 39.5293L78.7432 42.7282Z" fill="#CFCFE2"/>
<path d="M94.2515 40.9395L98.5289 45.3394L109.314 42.5941L104.914 38.1328L94.2515 40.9395Z" fill="#86D8FF"/>
<path d="M87.0913 51.9696L97.1536 62.4731L121.519 55.6342L111.457 45.3145L87.0913 51.9696Z" fill="#CCCCDB"/>
<path d="M116.75 68.2095C116.137 68.3076 115.549 68.5037 115.009 68.7856C114.789 68.8959 114.568 69.0307 114.397 69.2268C114.286 69.3494 114.2 69.521 114.274 69.668C114.335 69.8028 114.507 69.8396 114.654 69.8641C115.291 69.9499 115.929 69.8028 116.554 69.6435C117.044 69.521 117.546 69.3984 117.975 69.1288C118.208 68.9817 118.453 68.712 118.331 68.4547C118.122 67.9767 117.166 68.1483 116.75 68.2095Z" fill="#686867"/>
</g>
<defs>
<clipPath id="clip0_152_44586">
<rect width="124.29" height="108.847" fill="white" transform="translate(58 14)"/>
</clipPath>
</defs>
</svg>
