<svg width="100%" height="100%" viewBox="0 0 240 136" fill="none" xmlns="http://www.w3.org/2000/svg">
<g clip-path="url(#clip0_152_44590)">
<path d="M179.586 83.2247C179.586 83.2247 181.423 88.9948 180.737 94.0666C180.051 99.1384 174.109 106.697 166.685 110.274C159.262 113.864 150.943 118.066 133.572 119.928C133.572 119.928 101.83 121.913 86.2348 113.619C86.2348 113.619 70.5417 106.219 67.626 93.9808C67.626 93.9808 66.5479 84.364 68.0547 80.8848L179.586 83.2124V83.2247Z" fill="#FFBE92"/>
<path d="M179.589 75.2969V83.2231C179.589 83.2231 178.106 90.4143 164.986 97.826C151.865 105.238 126.898 106.402 126.898 106.402C126.898 106.402 104.038 106.928 90.8689 101.317C90.8689 101.317 68.6216 93.4892 68.0703 80.8955V76.7547L179.601 75.2969H179.589Z" fill="#B76C4F"/>
<path d="M70.4834 77.1225C70.4834 77.1225 74.9182 86.6781 91.3342 90.2921C91.3342 90.2921 102.36 92.975 111.242 93.073C111.242 93.073 87.7324 75.0399 70.4834 77.1225Z" fill="#CC816D"/>
<path d="M143.335 92.0926C143.335 92.0926 172.186 85.5017 177.527 76.9629L155.905 80.3686L143.348 92.0926H143.335Z" fill="#CC816D"/>
<path d="M58.1331 72.6758C58.1331 72.6758 58.048 76.3267 61.0617 76.7555C64.0754 77.172 67.7629 76.7555 67.7629 76.7555C67.7629 76.7555 71.3891 76.9882 74.3415 78.2256C77.2939 79.4751 107.051 90.9296 107.051 90.9296C107.051 90.9296 114.107 94.2495 116.827 96.6629C119.547 99.0763 121.96 100.583 121.96 100.583C121.96 100.583 125.88 104.087 131.307 101.612C131.307 101.612 133.721 99.6766 136.318 97.153C138.915 94.617 144.881 91.1746 144.881 91.1746L160.452 82.4276L58.1331 72.6758Z" fill="#FFC761"/>
<path d="M65.8617 66.8105C65.8617 66.8105 58.1328 71.45 58.1328 72.6751C59.4801 74.356 66.063 73.6567 71.8857 73.9144L65.8617 66.8105Z" fill="#FFD78D"/>
<path d="M81.7393 78.2246L100.912 86.6409L93.2427 78.2246H81.7393Z" fill="#FFD78D"/>
<path d="M111.24 89.814L121.837 97.0542C121.837 97.0542 124.434 99.9086 127.803 99.5901C131.172 99.2716 133.058 96.2211 133.058 96.2211C133.058 96.2211 137.285 92.0926 141.401 90.2918C145.517 88.4909 155.906 82.5493 155.906 82.5493L137.469 75.2969L111.24 89.814Z" fill="#FFD78D"/>
<path d="M93.2428 78.2254C93.2428 78.2254 82.7561 79.769 75.0627 76.4858C67.3692 73.2026 64.2208 68.7433 64.2208 68.7433C64.2208 68.7433 63.4122 66.0972 64.2698 63.5L93.2305 78.2254H93.2428Z" fill="#FF8D73"/>
<path d="M93.2447 78.2246C93.2447 78.2246 92.7424 79.8172 93.2447 80.6748C93.747 81.5323 100.473 89.5565 115.284 90.1936C130.095 90.8429 140.386 88.2212 145.421 83.6762C145.421 83.6762 146.94 82.5736 146.927 79.7927L93.2447 78.2246Z" fill="#FF8D73"/>
<path d="M146.941 79.8056C146.941 79.8056 147.431 82.2557 148.644 82.6845C149.857 83.1133 163.247 82.0352 163.247 82.0352C163.247 82.0352 178.218 79.3155 180.864 73.5209C180.864 73.5209 182.628 67.8856 180.741 60.4004L146.941 79.8056Z" fill="#FF8D73"/>
<path d="M66.7843 57.3262C66.7843 57.3262 62.129 61.4914 65.3877 66.2447C68.6464 70.998 80.3581 73.1909 80.3581 73.1909L66.7843 57.3262Z" fill="#FF9D8D"/>
<path d="M93.2456 78.2246C93.2456 78.2246 100.474 83.2474 108.057 84.0437C115.64 84.8278 135.719 85.9181 141.391 80.5768L93.2456 78.2246Z" fill="#FF9D8D"/>
<path d="M146.941 79.8056C146.941 79.8056 166.543 77.0369 173.133 73.5209C179.724 70.005 180.643 63.5121 180.753 60.4004L146.954 79.8056H146.941Z" fill="#FF9D8D"/>
<path d="M68.0577 47.7327C68.0577 47.7327 66.6366 52.5105 66.7836 57.325C66.9306 62.1518 74.6731 77.7838 109.294 80.9935C109.294 80.9935 150.199 84.4972 165.831 73.104C165.831 73.104 176.636 67.9954 180.728 60.3877C180.728 60.3877 181.512 46.8997 179.074 43.2734L68.0577 47.7327Z" fill="#FFBE92"/>
<path d="M101.168 17.4007C101.168 17.4007 69.1695 26.307 68.0547 47.7335C68.0547 47.7335 77.2427 67.3102 119.251 66.7099C161.258 66.1096 179.083 43.2865 179.083 43.2865C179.083 43.2865 176.02 26.8705 147.366 18.7973C147.366 18.7973 132.616 11.2876 101.168 17.4007Z" fill="#FFC299"/>
<path d="M125.904 49.9871C125.108 49.2766 124.545 48.4435 124.275 47.5615C124.03 46.7529 124.802 44.8663 126.419 45.8954C127.203 46.3977 127.374 47.2307 127.142 47.9535C126.909 48.6763 126.358 49.3256 125.892 49.9871H125.904Z" fill="#FFF5F0"/>
<path d="M95.2041 44.83C95.2409 43.7764 95.5226 42.8086 96.0127 42.0368C96.4659 41.3263 98.4015 40.6892 98.6466 42.5758C98.7691 43.4946 98.2423 44.1562 97.544 44.4502C96.8457 44.7442 96.0004 44.7565 95.2041 44.83Z" fill="#FFF5F0"/>
<path d="M114.584 29.4076C114.817 28.5256 115.234 27.766 115.797 27.2025C116.312 26.6879 118.076 26.5164 117.929 28.158C117.855 28.9543 117.28 29.4199 116.643 29.5301C116.006 29.6404 115.283 29.4934 114.597 29.4076H114.584Z" fill="#FFF5F0"/>
<path d="M154.532 43.9852C153.503 43.7034 152.633 43.2011 151.996 42.5396C151.42 41.927 151.273 39.8934 153.184 40.0894C154.116 40.1874 154.63 40.8612 154.74 41.6085C154.851 42.3558 154.642 43.1766 154.52 43.9852H154.532Z" fill="#FFF5F0"/>
<path d="M165.289 30.3863C164.48 30.8028 163.598 31.0233 162.692 31.0478C161.871 31.0723 160.107 30.178 161.344 29.2592C161.944 28.8182 162.777 28.8549 163.451 29.1489C164.125 29.443 164.688 29.9452 165.276 30.3863H165.289Z" fill="#FFF5F0"/>
<path d="M82.1084 32.5552C82.6229 31.8202 83.309 31.1954 84.093 30.7543C84.8158 30.3501 86.7759 30.3133 86.1266 31.6977C85.8081 32.3714 85.0486 32.7267 84.3135 32.788C83.5785 32.8492 82.8434 32.6655 82.1206 32.543L82.1084 32.5552Z" fill="#FFF5F0"/>
<path d="M98.8413 32.9235C99.2088 32.1027 99.7724 31.3677 100.458 30.7919C101.095 30.2651 103.019 29.8608 102.627 31.3554C102.443 32.0782 101.757 32.5682 101.046 32.752C100.336 32.9358 99.5764 32.899 98.8413 32.9235Z" fill="#FFF5F0"/>
<path d="M95.9126 24.8014C96.5986 24.3604 97.4072 24.0296 98.2647 23.8458C99.061 23.6621 100.972 23.8948 100.004 24.7524C99.5266 25.1689 98.7058 25.3037 97.983 25.2547C97.2602 25.2057 96.5864 24.9852 95.9126 24.8014Z" fill="#FFF5F0"/>
<path d="M110.332 24.0651C111.018 23.624 111.827 23.2933 112.684 23.1095C113.48 22.9258 115.392 23.1585 114.424 24.0161C113.946 24.4326 113.125 24.5674 112.402 24.5184C111.68 24.4693 111.006 24.2488 110.332 24.0651Z" fill="#FFF5F0"/>
<path d="M117.404 20.0594C118.225 19.8757 119.107 19.8512 119.989 19.9859C120.797 20.1084 122.451 21.1375 121.177 21.652C120.564 21.9093 119.744 21.7255 119.107 21.3702C118.47 21.015 117.955 20.5249 117.404 20.0594Z" fill="#FFF5F0"/>
<path d="M151.667 25.4746C150.907 25.9646 150.05 26.2831 149.155 26.3934C148.335 26.4914 146.497 25.7808 147.636 24.7518C148.188 24.2495 149.021 24.2127 149.731 24.4333C150.43 24.6538 151.042 25.0948 151.679 25.4868L151.667 25.4746Z" fill="#FFF5F0"/>
<path d="M137.014 25.3769C136.254 25.8547 135.397 26.1732 134.502 26.2835C133.682 26.3815 131.844 25.6832 132.971 24.6541C133.522 24.1518 134.355 24.1151 135.066 24.3356C135.777 24.5561 136.377 24.9971 137.014 25.3769Z" fill="#FFF5F0"/>
<path d="M133.244 39.4277C132.228 39.1949 131.382 38.7661 130.782 38.1658C130.231 37.6146 130.157 35.7034 132.056 35.8259C132.975 35.8872 133.465 36.4997 133.551 37.198C133.636 37.8963 133.404 38.6804 133.244 39.4277Z" fill="#FFF5F0"/>
<path d="M133.184 20.7943C132.669 21.3701 132.008 21.8478 131.273 22.2154C130.599 22.5461 128.81 22.6441 129.496 21.5783C129.827 21.0638 130.538 20.7698 131.211 20.6963C131.885 20.6228 132.534 20.733 133.184 20.7943Z" fill="#FFF5F0"/>
<path d="M128.124 30.8655C127.07 30.6572 126.201 30.2407 125.588 29.6527C125.024 29.1136 125 27.1903 126.972 27.2638C127.928 27.3005 128.43 27.9131 128.504 28.6114C128.577 29.3096 128.308 30.1059 128.136 30.8655H128.124Z" fill="#FFF5F0"/>
<path d="M112.786 39.0975C112.492 38.2032 112.431 37.2967 112.614 36.4759C112.774 35.7286 114.182 34.5035 114.954 35.9981C115.334 36.7209 115.089 37.4682 114.611 37.9582C114.133 38.4482 113.435 38.7545 112.786 39.0975Z" fill="#FFF5F0"/>
<path d="M147.161 34.5282C146.132 34.4057 145.238 34.0749 144.576 33.5481C143.964 33.0581 143.694 31.1715 145.593 31.0857C146.512 31.049 147.063 31.6003 147.222 32.274C147.382 32.9478 147.222 33.7564 147.161 34.5282Z" fill="#FFF5F0"/>
</g>
<defs>
<clipPath id="clip0_152_44590">
<rect width="123.61" height="105.148" fill="white" transform="translate(58 15)"/>
</clipPath>
</defs>
</svg>
