<svg width="100%" height="100%" viewBox="0 0 240 136" fill="none" xmlns="http://www.w3.org/2000/svg">
<g clip-path="url(#clip0_152_44587)">
<path d="M109.055 20.1883C109.055 20.1883 108.588 16.8665 111.149 16.6397C113.711 16.4129 135.362 17.5335 135.362 17.5335C135.362 17.5335 141.339 18.5207 141.419 19.7614L133.135 30.5939L110.589 29.4733L109.055 20.1883Z" fill="#757482"/>
<path d="M109.759 17.2672C109.759 17.2672 110.159 23.3639 115.322 24.151C120.485 24.9381 126.888 24.6179 126.888 24.6179C126.888 24.6179 130.717 24.4578 132.051 22.8169C133.385 21.176 134.572 19.5885 137.334 17.9209C137.334 17.9209 140.736 18.1744 141.429 19.7486L133.145 30.5812L110.599 29.4605C110.599 29.4605 107.171 19.9087 109.772 17.2539L109.759 17.2672Z" fill="#59586B"/>
<path d="M91.924 15.999C91.924 15.999 77.1826 15.1452 66.1233 42.6535L57.0517 71.2824C57.0517 71.2824 48.5404 101.899 66.1233 110.41C66.1233 110.41 79.4505 115.226 91.924 104.741L99.3013 97.6568C99.3013 97.6568 104.971 89.7191 112.348 89.7191H126.81C126.81 89.7191 133.333 89.7191 139.003 97.0965C144.673 104.474 147.794 109.01 147.794 109.01C147.794 109.01 156.012 121.763 168.779 120.069C181.546 118.375 184.935 101.646 185.508 92.574C186.082 83.5024 186.109 56.8479 180.132 40.1321C180.132 40.1321 172.181 21.1351 157.72 20.2813L145.406 19.1874C145.406 19.1874 139.23 19.1874 135.561 23.0829L132.386 26.458C132.012 26.8449 131.586 27.1651 131.092 27.3785C129.598 28.0456 126.049 29.2596 121.033 28.5792C121.033 28.5792 117.498 28.5658 114.483 27.672C112.322 27.0317 110.654 25.2841 109.987 23.1362L109.08 20.2146C109.08 20.2146 108.199 16.9062 104.638 15.999H91.924Z" fill="#DFE7EA"/>
<path d="M92.6686 31.4607C91.4012 31.7008 90.0805 32.1811 89.3601 33.2483C88.7864 34.1021 88.6797 35.1827 88.6797 36.2099C88.6797 37.2371 88.7331 38.2911 88.4262 39.2649C87.5324 42.1065 84.3707 41.3594 82.1161 41.4394C80.7154 41.4928 79.2479 41.8263 78.2741 42.8269C77.2602 43.8808 77.02 45.4416 76.94 46.9091C76.8466 48.4833 76.9 50.0575 77.0734 51.6183C77.2068 52.8723 77.5403 54.2597 78.6209 54.9001C80.075 55.7539 82.0494 54.7533 83.5703 55.4871C85.0244 56.1808 85.3579 58.1018 85.2645 59.7027C85.1711 61.3036 84.8643 63.0379 85.6514 64.4386C86.5586 66.0395 88.5997 66.6131 90.454 66.7065C91.8815 66.7866 93.3222 66.6665 94.723 66.3597C95.6168 66.1729 96.5373 65.8661 97.151 65.1857C98.8052 63.318 97.0576 60.0629 98.445 57.9951C99.4456 56.501 101.553 56.3676 103.341 56.501C105.129 56.6344 107.13 56.8478 108.517 55.7139C110.025 54.4732 110.091 52.2453 110.038 50.2976L109.945 47.0025C109.918 45.9486 109.851 44.7879 109.118 44.0275C107.397 42.1998 103.808 44.2009 101.98 42.4667C101.1 41.6395 101.033 40.2921 101.033 39.0781L101.006 35.0226C101.006 34.0354 100.953 32.9415 100.246 32.2478C99.7791 31.7808 99.0987 31.5941 98.445 31.474C96.5774 31.1138 94.643 31.1005 92.7753 31.4473L92.6552 31.474L92.6686 31.4607Z" fill="#757482"/>
<path d="M133.227 45.4826C133.054 45.5493 132.867 45.6293 132.693 45.7227C130.439 46.87 129.038 49.5114 129.332 52.0195C129.932 57.2756 137.416 60.0372 140.685 55.408C141.712 53.9405 142.005 52.0328 141.632 50.2718C141.352 48.9511 140.711 47.6838 139.737 46.7366C138.056 45.109 135.388 44.6288 133.214 45.4826H133.227Z" fill="#FFE36E"/>
<path d="M144.087 36.1037C143.914 36.1704 143.727 36.2504 143.554 36.3438C141.299 37.4911 139.899 40.1325 140.192 42.6405C140.792 47.8967 148.276 50.6582 151.545 46.0291C152.572 44.5616 152.866 42.6539 152.492 40.8929C152.212 39.5722 151.572 38.3049 150.598 37.3577C148.917 35.7301 146.249 35.2499 144.074 36.1037H144.087Z" fill="#FF9D8A"/>
<path d="M153.85 47.1889C153.717 47.2423 153.584 47.2956 153.45 47.3624C151.169 48.4696 149.715 51.0577 149.955 53.5791C150.489 59.3956 159.213 61.9169 161.868 56.1805C162.442 54.9265 162.562 53.4857 162.308 52.1383C162.055 50.7909 161.441 49.4968 160.467 48.5363C158.787 46.8421 156.065 46.3218 153.85 47.1756V47.1889Z" fill="#86D8FF"/>
<path d="M142.79 56.674C142.616 56.7407 142.429 56.8207 142.256 56.9141C140.001 58.0614 138.601 60.7028 138.894 63.2109C139.494 68.4671 146.979 71.2286 150.247 66.5994C151.274 65.1319 151.568 63.2242 151.194 61.4632C150.914 60.1425 150.274 58.8752 149.3 57.928C147.619 56.3004 144.951 55.8202 142.776 56.674H142.79Z" fill="#9EF57A"/>
</g>
<defs>
<clipPath id="clip0_152_44587">
<rect width="130.724" height="104.203" fill="white" transform="translate(55 16)"/>
</clipPath>
</defs>
</svg>
