<svg width="240" height="136" viewBox="0 0 240 136" fill="none" xmlns="http://www.w3.org/2000/svg">
<g clip-path="url(#clip0_152_44591)">
<path d="M90.314 14.1403L76.5615 17.0492C76.5615 17.0492 73.504 18.1138 69.84 22.2482C69.84 22.2482 53.6861 37.0652 54.4412 38.6496L70.7065 57.0316C70.7065 57.0316 74.2467 56.8088 74.2467 58.9131L72.3652 94.9468H140.249L137.773 58.6903C137.773 58.6903 137.315 56.0785 141.152 56.8459L158.321 38.2906L139.914 20.1191C139.914 20.1191 137.996 17.1235 135.013 16.5912C135.013 16.5912 125.89 14.066 121.669 14.1403H90.314Z" fill="#C5F0FF"/>
<path d="M92.9764 12.5314C92.9764 12.5314 89.9189 12.42 90.0427 16.2697C90.1541 20.1318 93.2735 29.2919 102.434 30.7278C111.594 32.1637 117.585 25.2565 119.318 23.1769C121.051 21.0973 122.202 15.3413 121.224 13.4474C121.224 13.4474 118.86 10.3404 116.619 13.2123C116.619 13.2123 113.624 24.5633 107.175 24.2786C100.725 23.9939 97.7793 20.1937 97.0366 16.6163C97.0366 16.6163 95.9472 12.0611 93.0012 12.5314H92.9764Z" fill="#9BE5F9"/>
<path d="M96.0688 14.3634C96.0688 14.3634 96.3659 23.1274 105.402 24.1053C105.402 24.1053 115.429 25.7145 116.32 14.1406C116.32 14.1406 104.177 13.1503 96.0812 14.3634H96.0688Z" fill="#D9F1FC"/>
<path d="M156.946 38.3671L141.729 54.9968C140.727 56.0913 140.803 57.7904 141.897 58.7919L143.176 59.9617C144.27 60.9632 145.969 60.8879 146.971 59.7934L162.188 43.1637C163.189 42.0692 163.114 40.3701 162.019 39.3687L160.741 38.1988C159.646 37.1973 157.947 37.2727 156.946 38.3671Z" fill="#9BE5F9"/>
<path d="M49.6943 43.1777L64.9113 59.8074C65.9128 60.9018 67.6118 60.9772 68.7063 59.9757L69.9848 58.8058C71.0793 57.8044 71.1546 56.1053 70.1532 55.0108L54.9362 38.3811C53.9347 37.2866 52.2356 37.2113 51.1411 38.2127L49.8626 39.3826C48.7682 40.3841 48.6928 42.0832 49.6943 43.1777Z" fill="#9BE5F9"/>
<path d="M73.4818 100.283L137.986 100.283C139.811 100.283 141.291 98.8063 141.291 96.9844C141.291 95.1624 139.811 93.6855 137.986 93.6855L73.4818 93.6855C71.6565 93.6855 70.1768 95.1624 70.1768 96.9844C70.1768 98.8063 71.6565 100.283 73.4818 100.283Z" fill="#9BE5F9"/>
<path d="M170.651 48.2069C170.651 48.2069 181.309 45.4094 189.578 51.7843L187.102 55.3741L174.773 56.6738L170.651 48.2069Z" fill="#FFBFB8"/>
<path d="M155.452 62.8002L166.221 50.5084C166.221 50.5084 168.858 48.0327 170.653 48.206C170.653 48.206 173.215 52.3032 180.964 52.8107C188.725 53.3183 189.58 51.7833 189.58 51.7833C189.58 51.7833 191.201 53.7391 190.26 56.6481L173.661 77.5305L170.74 84.4377L158.213 81.0336L148.149 68.42L150.451 64.2484L155.452 62.8249V62.8002Z" fill="#FF9D8A"/>
<path d="M130.926 80.2793C130.926 80.2793 128.5 80.7002 124.007 88.053L116.815 99.1193C116.815 99.1193 114.203 104.021 116.344 108.836C118.474 113.652 128.673 125.188 138.23 124.792C138.23 124.792 141.547 124.718 144.951 121.24C144.951 121.24 159.842 107.883 160.932 104.69L130.939 80.2917L130.926 80.2793Z" fill="#757482"/>
<path d="M130.929 80.2791C130.929 80.2791 128.688 87.8547 137.539 95.3189C146.39 102.783 150.45 105.667 156.738 105.345C156.738 105.345 159.907 106.002 162.642 103.489C165.378 100.976 165.23 97.3366 165.23 97.3366C165.23 97.3366 165.613 95.5913 166.901 94.3039C168.188 93.0165 172.743 86.555 172.743 86.555C172.743 86.555 175.702 85.1934 173.659 77.5187L172.038 79.1403C172.038 79.1403 171.778 81.8759 169.822 82.0864C169.822 82.0864 166.059 82.5568 161.875 79.2517C161.875 79.2517 155.116 74.5603 153.47 71.4161C151.824 68.272 150.375 65.2269 153.73 64.0881C153.73 64.0881 154.324 63.9891 155.451 62.8007C155.451 62.8007 149.868 61.9714 148.37 63.3701L139.235 72.8644C139.235 72.8644 137.019 74.4612 135.88 74.5108C134.741 74.5603 131.436 76.6522 130.917 80.2791H130.929Z" fill="#FFE05C"/>
</g>
<defs>
<clipPath id="clip0_152_44591">
<rect width="141.56" height="112.792" fill="white" transform="translate(49 12)"/>
</clipPath>
</defs>
</svg>
