<svg width="100%" height="100%" viewBox="0 0 240 136" fill="none" xmlns="http://www.w3.org/2000/svg">
<g clip-path="url(#clip0_152_44588)">
<path d="M122.668 135.44C122.668 135.44 128.744 134.755 141.03 128.606C141.03 128.606 167.888 116.308 169.258 111.308C169.258 111.308 171.8 97.9827 173.255 73.1172C173.255 73.1172 123.756 87.5304 121.58 94.1807L122.668 135.44Z" fill="#FFB850"/>
<path d="M145.592 87.4691C145.592 87.4691 159.345 84.7796 164.773 77.8114L168.135 61.4667L162.462 49.0951L89.7116 26.5156C89.7116 26.5156 76.5943 37.298 80.2007 39.8897L117.181 54.4374C117.181 54.4374 145.311 74.095 145.592 87.4813V87.4691Z" fill="#FF7866"/>
<path d="M163.583 58.2272C163.583 58.2272 161.101 54.1807 155.099 52.6159C155.099 52.6159 161.101 45.4399 160.319 40.4766C160.319 40.4766 174.548 45.5621 178.595 49.0951L163.583 58.2272Z" fill="#FFD092"/>
<path d="M163.583 58.2282C163.583 58.2282 165.673 59.793 164.756 77.8003L177.287 70.881C177.287 70.881 179.377 69.1818 179.243 67.2258L180.551 52.6048C180.551 52.6048 180.685 49.4752 178.595 49.084C178.595 49.084 172.849 51.2967 163.583 58.216V58.2282Z" fill="#FFBF73"/>
<path d="M98.9629 87.494C98.9629 87.494 99.2074 88.8265 97.9115 88.4598L79.782 82.1517C79.782 82.1517 77.6548 81.3571 76.8235 76.8216C76.8235 76.8216 69.6597 63.472 76.0045 58.582C76.0045 58.582 93.4983 65.3546 98.9873 65.2813L98.9629 87.494Z" fill="#FF7866"/>
<path d="M124.39 74.9383C124.39 74.9383 122.606 91.7598 124.39 94.1804C124.39 94.1804 129.378 94.0092 137.434 90.8674L145.588 87.4689C145.588 87.4689 146.591 71.6376 144.928 68.3613L124.39 74.9506V74.9383Z" fill="#FFBF73"/>
<path d="M124.392 74.9395C124.392 74.9395 123.463 88.8881 124.392 94.1815C124.392 94.1815 121.898 95.1106 113.194 92.629L98.9767 87.4945C98.9767 87.4945 97.5464 85.3184 97.5464 80.4896L97.7909 73.338L98.3288 68.2402L124.392 74.9517V74.9395Z" fill="#FFD092"/>
<path d="M117.177 54.4375L99.8664 64.3764C99.8664 64.3764 97.837 65.77 98.326 68.2394L117.238 74.2786C117.238 74.2786 123.778 76.149 130.001 73.6551L144.94 68.3617C144.94 68.3617 143.668 65.3421 135.111 61.2957L117.201 54.4375H117.177Z" fill="#FFDAA9"/>
<path d="M75.687 59.8035C75.687 59.8035 74.7212 76.6006 78.6332 80.5003L64.489 73.4955C64.489 73.4955 60.0758 71.1116 60.2591 65.7693C60.2591 65.7693 59.6601 54.6691 60.2836 51.2461C60.2836 51.2461 72.8875 55.7571 75.687 59.8035Z" fill="#FFD092"/>
<path d="M110.956 23.374C110.956 23.374 108.938 9.81651 97.5326 1.47911C97.5326 1.47911 85.8456 -5.5869 79.9043 11.0879C79.9043 11.0879 74.6842 30.7211 82.7282 36.2224C82.7282 36.2224 93.095 44.6942 103.865 42.8483C103.865 42.8483 98.7307 28.3251 110.943 23.374H110.956Z" fill="#FF8B85"/>
<path d="M110.954 23.375C110.954 23.375 119.78 24.0596 122.653 28.1672C122.653 28.1672 116.076 34.5364 116.798 38.7417C116.798 38.7417 116.492 44.353 119.157 49.0962C119.157 49.0962 113.717 50.0376 110.331 47.3725C106.944 44.7075 105.502 43.265 103.864 42.8615C103.864 42.8615 98.5213 28.1305 110.942 23.3872L110.954 23.375Z" fill="#FF7E7B"/>
<path d="M122.667 28.1666C122.667 28.1666 138.718 17.5921 145.882 17.7999C153.046 18.0077 158.388 21.9075 159.207 27.0419C160.026 32.1764 160.821 31.7485 160.32 40.4894C160.32 40.4894 161.872 47.9955 150.173 57.3353C150.173 57.3353 140.21 60.7216 132.104 57.3353C132.104 57.3353 122.765 52.9955 119.17 49.1079C119.17 49.1079 111.469 36.6018 122.667 28.1789V28.1666Z" fill="#FF8B85"/>
<path d="M122.669 135.44C122.669 135.44 86.1658 125.88 70.2367 111.54C70.2367 111.54 68.6475 106.308 68.183 100.843C68.183 100.843 66.1414 83.8997 66.2025 74.3398L121.594 94.1931L122.682 135.452L122.669 135.44Z" fill="#FFC25F"/>
<path d="M80.1973 39.8906C80.1973 39.8906 90.4295 43.4847 95.3562 45.8564L84.0848 51.5654C84.0848 51.5654 76.1508 55.294 75.6863 59.8173C75.6863 59.8173 59.5005 54.5239 60.2828 51.2598C60.2828 51.2598 59.0359 47.9957 80.1973 39.9028V39.8906Z" fill="#FFDAA9"/>
<path d="M95.3574 45.8555C95.3574 45.8555 76.9589 52.6036 75.9932 58.5816C75.9932 58.5816 93.7193 66.6256 98.976 65.2809L117.167 54.4374L95.3574 45.8555Z" fill="#FF7D73"/>
<path d="M107.274 24.8162C107.274 24.8162 92.6779 15.5863 93.008 8.54478C93.008 8.54478 93.8515 5.69637 96.6999 7.70126C96.6999 7.70126 98.3747 9.21715 98.8759 10.7208C99.3771 12.2245 104.915 22.6401 107.262 24.8162H107.274Z" fill="#FFABA9"/>
<path d="M124.051 28.8383C124.051 28.8383 136.63 23.1292 141.337 22.7992C141.337 22.7992 147.205 22.1023 146.826 23.6305C146.447 25.1586 139.955 25.7331 139.955 25.7331C139.955 25.7331 132.192 26.5033 124.051 28.8261V28.8383Z" fill="#FFABA9"/>
</g>
<defs>
<clipPath id="clip0_152_44588">
<rect width="120.55" height="135.44" fill="white" transform="translate(60)"/>
</clipPath>
</defs>
</svg>
