<svg width="240" height="136" viewBox="0 0 240 136" fill="none" xmlns="http://www.w3.org/2000/svg">
<g clip-path="url(#clip0_152_44592)">
<path d="M62.1352 66.1903L89.6625 46.5L127.188 95.2557L100.893 115.556C100.893 115.556 96.7427 119.096 93.0439 114.323L63.2094 74.4912C63.2094 74.4912 59.059 70.4872 62.1352 66.1903Z" fill="#8DEF67"/>
<path d="M73.1355 64.2004C73.1355 64.2004 75.0887 72.6478 70.7917 74.8695L93.0333 103.605C93.0333 103.605 99.5398 102.177 103.702 105.681L123.686 90.6901L92.191 49.7715L73.1477 64.1882L73.1355 64.2004Z" fill="#7CDE6C"/>
<path d="M86.6599 66.0201L88.7351 68.6202C88.7351 68.6202 86.2693 73.6862 87.6975 76.8112C89.1258 79.9363 90.9446 83.1346 97.8417 81.6575C97.8417 81.6575 104.348 80.1926 105.129 83.0491C105.911 85.9056 102.786 87.2118 100.967 87.4682C99.1479 87.7245 97.2436 88.1151 97.2436 88.1151L98.6718 92.4487C98.6718 92.4487 102.371 93.5596 105.252 90.935L107.73 94.0601L110.855 91.4355L108.438 88.1151C108.438 88.1151 111.355 84.0868 110.256 80.6565C109.146 77.2263 104.507 74.6139 99.4775 75.3098C94.4481 76.0056 93.2274 75.7126 92.7269 74.5041C92.7269 74.5041 91.8236 72.5875 94.4237 71.3302C97.0238 70.0729 99.6118 69.8409 99.6118 69.8409L97.2314 64.8848L92.2264 66.7769L89.6507 63.8594L86.6599 66.0201Z" fill="white"/>
<path d="M113.492 28.4091L151.444 77.7263L179.045 57.3647C179.045 57.3647 180.656 55.0209 177.861 50.9437L148.222 13.2233C148.222 13.2233 143.705 7.74227 139.628 11.0748L113.504 28.4091H113.492Z" fill="#8DEF67"/>
<path d="M135.963 19.0215C135.963 19.0215 141.298 23.8555 147.731 20.3521L169.289 47.6719C169.289 47.6719 165.236 52.2374 166.359 59.0734L147.816 73.0019L116.749 32.6448L135.963 19.0215Z" fill="#7CDE6C"/>
<path d="M122.343 40.1151C122.343 40.1151 125.162 35.5984 132.499 32.0949C139.835 28.5914 149.43 32.5466 152.25 35.5984C152.25 35.5984 157.78 41.2381 156.987 50.7232C156.987 50.7232 154.496 62.198 141.85 65.262L122.33 40.1151H122.343Z" fill="#6BC758"/>
<path d="M61 71.5742V81.6574C61 81.6574 61.2319 83.6228 62.7334 85.405L91.103 123.052C91.103 123.052 94.3379 128.02 98.757 125.115L130.154 101.702C130.154 101.702 130.178 97.6367 127.188 95.2562L100.893 115.557L92.3604 113.408L61 71.5742Z" fill="#E2FFD2"/>
<path d="M151.456 77.7254V85.4038L168.338 73.7092C168.338 73.7092 170.889 72.0124 172.733 68.4601L179.056 57.3516L151.456 77.7132V77.7254Z" fill="#E2FFD2"/>
<path d="M89.66 46.5006C89.66 46.5006 88.3294 43.461 91.1249 41.5933L109.143 29.0321C109.143 29.0321 110.51 27.3109 113.488 28.4095C113.488 28.4095 149.231 71.5743 151.441 77.7267V85.4051C151.441 85.4051 151.148 90.5077 148.108 92.6562L135.132 102.642C135.132 102.642 132.105 105.169 128.882 102.642L130.151 101.69C130.151 101.69 129.944 97.9663 127.185 95.2441L89.66 46.5006Z" fill="#DFE3E5"/>
</g>
<defs>
<clipPath id="clip0_152_44592">
<rect width="118.52" height="116.03" fill="white" transform="translate(61 10)"/>
</clipPath>
</defs>
</svg>
