<svg width="240" height="136" viewBox="0 0 240 136" fill="none" xmlns="http://www.w3.org/2000/svg">
<g clip-path="url(#clip0_152_44593)">
<path d="M108.222 45.2338C108.222 45.2338 103.448 51.9268 102.962 55.2672C102.489 58.6076 97.3868 63.3935 88.9447 62.1181C80.5025 60.8427 68.2341 66.4181 65.2095 79.4761C65.2095 79.4761 58.5165 94.1254 76.5183 113.087C94.5201 132.048 114.113 121.687 114.113 121.687C114.113 121.687 125.896 115.152 126.54 104.645C127.183 94.1375 125.264 88.8779 132.273 85.5253C132.273 85.5253 142.003 84.1405 146.242 77.1682C146.242 77.1682 148.708 71.4834 145.477 69.4792C142.258 67.4749 138.954 68.9568 138.954 68.9568C138.954 68.9568 132.929 71.6049 126.066 63.4178L120.697 57.065C120.697 57.065 118.462 55.911 118.875 50.542C119.288 45.1731 119.045 42.9502 117.138 41.8691C117.138 41.8691 112.097 38.8445 108.198 45.2217L108.222 45.2338Z" fill="#FF9D8D"/>
<path d="M113.919 62.4083L123.637 71.8344C123.637 71.8344 125.034 74.859 130.634 74.1909C136.233 73.5228 135.638 73.5228 135.638 73.5228C135.638 73.5228 138.14 72.8304 139.319 74.2759C140.497 75.7214 134.824 78.3816 134.824 78.3816C134.824 78.3816 122.604 80.5194 121.863 85.1596C121.863 85.1596 120.88 91.4882 121.56 97.1608C122.24 102.833 120.989 107.024 117.746 108.87C117.746 108.87 113.033 111.664 109.352 110.935C109.352 110.935 105.684 110.194 105.562 106.004C105.562 106.004 104.931 100.708 103.534 99.08C102.137 97.4523 93.5245 88.998 93.5245 88.998C93.5245 88.998 86.8194 82.8152 89.9169 78.4666C93.0144 74.118 97.7274 73.3163 97.7274 73.3163C97.7274 73.3163 102.076 73.5349 103.983 68.6762C105.902 63.8174 108.769 58.2176 113.919 62.4205V62.4083Z" fill="white"/>
<path d="M113.92 62.4092L147.968 31.0215C147.968 31.0215 154.916 34.8113 156.544 40.3139C156.544 40.3139 129.736 70.0375 123.638 71.8353L113.92 62.4092Z" fill="#FFBE92"/>
<path d="M155.985 38.8801C155.985 38.8801 155.985 41.4067 158.244 41.1638C160.504 40.9208 174.667 24.2673 174.667 24.2673C174.667 24.2673 176.185 21.0848 175.639 18.7891L155.985 38.8801Z" fill="#FC7365"/>
<path d="M147.968 31.0212C147.968 31.0212 146.971 23.5265 148.781 20.0039C150.591 16.4813 156.543 15.8496 156.543 15.8496L167.014 12.6064C167.014 12.6064 171.533 10.7965 174.411 13.4203C177.302 16.0319 175.408 20.5505 173.598 22.7127C171.788 24.8748 159.835 40.423 155.972 38.8803L147.955 31.0212H147.968Z" fill="#FF9D8D"/>
<path d="M81.2085 91.5859C81.2085 91.5859 79.8602 93.578 80.8198 94.7441C81.7794 95.9103 92.2744 105.749 92.2744 105.749C92.2744 105.749 93.9507 108.264 96.2708 106.527L98.1414 104.79C98.1414 104.79 99.2954 102.919 97.4369 101.255L87.1363 91.1486C87.1363 91.1486 85.0105 88.4399 83.1399 89.606L81.2085 91.5981V91.5859Z" fill="#595864"/>
<path d="M111.963 92.8743C111.963 92.8743 109.643 94.7449 110.286 97.0528C110.93 99.3608 112.242 100.333 114.283 100.333C116.324 100.333 117.939 98.4012 117.939 96.3362C117.939 94.2712 115.947 90.7364 111.951 92.8621L111.963 92.8743Z" fill="#595864"/>
<path d="M110.484 102.507C110.484 102.507 109.087 103.248 109.476 104.414C109.864 105.58 110.29 106.357 111.614 106.163C112.938 105.969 113.326 105.07 113.29 104.171C113.253 103.272 112.16 101.438 110.484 102.495V102.507Z" fill="#595864"/>
</g>
<defs>
<clipPath id="clip0_152_44593">
<rect width="111.91" height="112.517" fill="white" transform="translate(64 12)"/>
</clipPath>
</defs>
</svg>
