<svg width="250" height="240" viewBox="0 0 250 240" fill="none" xmlns="http://www.w3.org/2000/svg">
<g clip-path="url(#clip0_376_84353)">
<g clip-path="url(#clip1_376_84353)">
<path d="M231.21 119.35H226.33C223.4 98.63 214.11 79.96 200.51 65.35C202.92 55.75 208.28 53.63 208.28 53.63C212.55 51.62 212.05 47.86 212.05 47.86C211.55 43.84 205.27 41.58 205.27 41.58C193.67 38.76 184.05 43.93 178.84 47.77C163.78 38.71 146.16 33.5 127.32 33.5C75.6099 33.5 33.0599 72.76 27.8599 123.1C26.6499 123.74 25.2699 124.06 23.9399 123.76C22.0899 123.34 20.5199 121.49 20.8599 119.62C21.1499 117.97 22.6599 116.87 23.9799 115.83C25.2999 114.79 26.6399 113.35 26.3899 111.69C26.1299 110.02 24.2299 108.99 22.5499 109.21C20.8699 109.43 19.4699 110.57 18.3599 111.84C14.0299 116.84 12.1499 127.04 19.0899 130.72C20.8499 131.65 22.8399 132.07 24.8199 132.29C25.6599 132.38 26.5499 132.42 27.3299 132.11C27.3299 132.57 27.3099 133.04 27.3099 133.5C27.3099 172.98 50.1899 207.12 83.4199 223.37C83.3699 223.46 83.3099 223.54 83.2799 223.63L78.8999 233.6C77.8199 236.05 80.1699 238.6 83.5099 238.6H92.9399C94.9399 238.6 96.7299 237.65 97.4699 236.21L100.68 229.91C109.16 232.25 118.1 233.5 127.32 233.5C136.54 233.5 145.48 232.24 153.96 229.91L157.17 236.21C157.9 237.65 159.7 238.6 161.7 238.6H171.13C174.47 238.6 176.82 236.05 175.74 233.6L171.36 223.63C171.32 223.54 171.26 223.46 171.22 223.37C198.25 210.15 218.43 185.09 225.02 154.95H231.22C234.09 154.95 236.44 152.6 236.44 149.73V124.57C236.44 121.7 234.09 119.35 231.22 119.35H231.21Z" fill="#FFF3C0"/>
<path d="M171.13 240.1H161.7C159.13 240.1 156.83 238.84 155.83 236.89L153.18 231.67C136.35 236.09 118.29 236.09 101.47 231.67L98.8201 236.89C97.8301 238.84 95.5301 240.1 92.9501 240.1H83.5201C81.1701 240.1 79.0301 239.04 77.9201 237.34C77.0501 236.01 76.9101 234.42 77.5401 232.99L81.4601 224.06C65.2101 215.82 51.4701 203.36 41.6501 187.95C31.3601 171.79 25.8901 153.09 25.8201 133.85C25.4201 133.85 25.0301 133.82 24.6601 133.78C22.0801 133.5 20.0901 132.95 18.3901 132.05C15.6101 130.58 13.8201 128.09 13.2201 124.85C12.3701 120.33 14.0201 114.58 17.2301 110.87C18.8301 109.02 20.5601 107.96 22.3601 107.73C24.6901 107.42 27.4701 108.86 27.8701 111.47C28.1601 113.37 27.1601 115.23 24.9101 117.02L24.6801 117.2C23.6201 118.04 22.5201 118.9 22.3401 119.89C22.1701 120.87 23.1101 122.04 24.2801 122.3C25.0701 122.48 25.8401 122.33 26.4701 122.09C29.2101 97.59 40.8001 74.96 59.1501 58.31C77.8401 41.34 102.05 32 127.32 32C145.45 32 163.21 36.83 178.75 45.98C184.01 42.3 193.85 37.27 205.61 40.13L205.76 40.18C206.49 40.44 212.92 42.89 213.52 47.68C213.55 47.87 214.11 52.55 208.9 55C208.65 55.11 204.39 56.99 202.15 64.95C215.76 79.8 224.54 98.05 227.6 117.86H231.19C234.9 117.86 237.91 120.87 237.91 124.58V149.74C237.91 153.45 234.9 156.46 231.19 156.46H226.19C219.48 185.45 199.78 210.56 173.17 224.07L177.09 233C177.72 234.43 177.58 236.02 176.71 237.35C175.6 239.05 173.45 240.11 171.11 240.11L171.13 240.1ZM154.75 228.13L158.51 235.52C158.99 236.46 160.27 237.09 161.7 237.09H171.13C172.45 237.09 173.67 236.54 174.22 235.69C174.54 235.2 174.59 234.7 174.36 234.19L169.9 224.09L169.13 222.71L170.55 222.01C197.37 208.89 217.18 183.69 223.54 154.62L223.8 153.44H231.21C233.26 153.44 234.93 151.77 234.93 149.72V124.56C234.93 122.51 233.26 120.84 231.21 120.84H225.02L224.84 119.55C222.01 99.58 213.22 81.19 199.41 66.37L198.85 65.77L199.05 64.98C201.62 54.75 207.47 52.33 207.72 52.23C210.75 50.8 210.58 48.31 210.55 48.03C210.24 45.54 206.38 43.59 204.82 43.01C193.65 40.33 184.3 45.59 179.71 48.97L178.9 49.56L178.04 49.04C162.77 39.84 145.23 34.98 127.31 34.98C102.79 34.98 79.2901 44.05 61.1401 60.51C43.1201 76.86 31.8301 99.14 29.3401 123.23L29.2601 124.02L28.5501 124.4C26.9001 125.28 25.1801 125.56 23.6001 125.2C20.8501 124.58 18.9101 121.9 19.3701 119.33C19.7501 117.21 21.4501 115.87 22.8101 114.8L23.0401 114.62C23.9601 113.89 25.0401 112.82 24.8901 111.88C24.7701 111.14 23.7001 110.53 22.7301 110.66C21.6801 110.79 20.5901 111.51 19.4901 112.79C16.8801 115.81 15.4801 120.63 16.1601 124.25C16.6001 126.59 17.8201 128.31 19.7901 129.36C21.1401 130.08 22.7901 130.52 24.9801 130.76C25.5901 130.83 26.2901 130.87 26.7801 130.68L28.8601 129.86L28.8201 132.57C28.8201 132.87 28.8201 133.17 28.8201 133.47C28.8201 152.26 34.1301 170.54 44.1801 186.31C53.9601 201.67 67.7601 214.01 84.0901 222L85.5001 222.69L84.6601 224.22L80.2801 234.18C80.0601 234.69 80.1101 235.19 80.4201 235.68C80.9701 236.53 82.1901 237.08 83.5101 237.08H92.9401C94.3701 237.08 95.6501 236.45 96.1301 235.51L99.8901 228.12L101.07 228.45C118.11 233.15 136.51 233.15 153.56 228.45L154.74 228.12L154.75 228.13Z" fill="#FFEEA6"/>
<path d="M127.32 223.26C176.893 223.26 217.08 183.073 217.08 133.5C217.08 83.9272 176.893 43.7402 127.32 43.7402C77.747 43.7402 37.5601 83.9272 37.5601 133.5C37.5601 183.073 77.747 223.26 127.32 223.26Z" fill="#FFFAE6"/>
<path d="M84.6603 199.07C94.7782 199.07 102.98 191.445 102.98 182.04C102.98 172.634 94.7782 165.01 84.6603 165.01C74.5425 165.01 66.3403 172.634 66.3403 182.04C66.3403 191.445 74.5425 199.07 84.6603 199.07Z" fill="#FFDA40"/>
<path d="M84.6605 195.42C92.6079 195.42 99.0505 189.43 99.0505 182.04C99.0505 174.651 92.6079 168.66 84.6605 168.66C76.7131 168.66 70.2705 174.651 70.2705 182.04C70.2705 189.43 76.7131 195.42 84.6605 195.42Z" fill="#FFEEA6"/>
<path d="M170.62 199.15C170.88 202.67 170.81 204.71 170.72 205.73C170.66 206.37 170.43 206.98 170.04 207.49C168.75 209.17 166.19 210.94 166.19 210.94C166.19 210.94 157.09 217.6 139.75 215.63C130.23 214.55 125.47 210.53 123.98 209.04C123.6 208.66 123.38 208.17 123.34 207.64C123.15 205.13 123.44 199.65 123.44 199.65L170.61 199.15H170.62Z" fill="#FFC52F"/>
<path d="M130.38 191.61C128.66 192.25 127.03 193.14 125.75 194.42C124.13 196.03 123.13 198.35 123.54 200.58C124.03 203.23 126.33 205.19 128.74 206.48C134.04 209.33 140.3 209.96 146.34 209.74C152.58 209.5 158.86 208.38 164.45 205.66C167.83 204.02 172.44 200.55 169.88 196.37C169.03 194.99 167.65 194 166.21 193.21C159.68 189.59 151.81 189.35 144.32 189.56C140.08 189.68 135.79 189.93 131.73 191.16C131.28 191.3 130.83 191.45 130.38 191.61V191.61Z" fill="#FFDA40"/>
<path d="M133.16 192.95C131.73 193.49 130.37 194.22 129.3 195.29C127.95 196.63 127.12 198.56 127.46 200.41C127.87 202.61 129.79 204.24 131.79 205.31C136.2 207.68 141.42 208.21 146.45 208.02C151.64 207.82 156.88 206.89 161.54 204.63C164.35 203.26 168.2 200.38 166.06 196.91C165.35 195.76 164.2 194.94 163.01 194.28C157.57 191.27 151.02 191.07 144.78 191.25C141.25 191.35 137.67 191.56 134.29 192.58C133.91 192.69 133.54 192.82 133.17 192.96L133.16 192.95Z" fill="#FFEEA6"/>
<path d="M177.09 191.48C177.35 195 177.28 197.04 177.19 198.06C177.13 198.7 176.9 199.31 176.51 199.82C175.22 201.5 172.66 203.27 172.66 203.27C172.66 203.27 163.56 209.93 146.22 207.96C136.7 206.88 131.94 202.86 130.45 201.37C130.07 200.99 129.85 200.5 129.81 199.97C129.62 197.46 129.91 191.98 129.91 191.98L177.08 191.48H177.09Z" fill="#FFC52F"/>
<path d="M136.86 183.95C135.14 184.59 133.51 185.48 132.23 186.76C130.61 188.37 129.61 190.69 130.02 192.92C130.51 195.57 132.81 197.53 135.22 198.82C140.52 201.67 146.78 202.3 152.82 202.08C159.06 201.84 165.34 200.72 170.93 198C174.31 196.36 178.92 192.89 176.36 188.71C175.51 187.33 174.13 186.34 172.69 185.55C166.16 181.93 158.29 181.69 150.8 181.9C146.56 182.02 142.27 182.27 138.21 183.5C137.76 183.64 137.31 183.79 136.86 183.95V183.95Z" fill="#FFDA40"/>
<path d="M139.64 185.28C138.21 185.82 136.85 186.55 135.78 187.62C134.43 188.96 133.6 190.89 133.94 192.74C134.35 194.94 136.27 196.57 138.27 197.64C142.68 200.01 147.9 200.54 152.93 200.35C158.12 200.15 163.36 199.22 168.02 196.96C170.83 195.59 174.68 192.71 172.54 189.24C171.83 188.09 170.68 187.27 169.49 186.61C164.05 183.6 157.5 183.4 151.26 183.58C147.73 183.68 144.15 183.89 140.77 184.91C140.39 185.02 140.02 185.15 139.65 185.29L139.64 185.28Z" fill="#FFEEA6"/>
<path d="M174.73 182.301C174.99 185.821 174.92 187.861 174.83 188.881C174.77 189.521 174.54 190.131 174.15 190.641C172.86 192.321 170.3 194.091 170.3 194.091C170.3 194.091 161.2 200.751 143.86 198.781C134.34 197.701 129.58 193.681 128.09 192.191C127.71 191.811 127.49 191.321 127.45 190.791C127.26 188.281 127.55 182.801 127.55 182.801L174.72 182.301H174.73Z" fill="#FFC52F"/>
<path d="M134.49 174.761C132.77 175.401 131.14 176.291 129.86 177.571C128.24 179.181 127.24 181.501 127.65 183.731C128.14 186.381 130.44 188.341 132.85 189.631C138.15 192.481 144.41 193.111 150.45 192.891C156.69 192.651 162.97 191.531 168.56 188.811C171.94 187.171 176.55 183.701 173.99 179.521C173.14 178.141 171.76 177.151 170.32 176.361C163.79 172.741 155.92 172.501 148.43 172.711C144.19 172.831 139.9 173.081 135.84 174.311C135.39 174.451 134.94 174.601 134.49 174.761V174.761Z" fill="#FFDA40"/>
<path d="M137.28 176.101C135.85 176.641 134.49 177.371 133.42 178.441C132.07 179.781 131.24 181.711 131.58 183.561C131.99 185.761 133.91 187.391 135.91 188.461C140.32 190.831 145.54 191.361 150.57 191.171C155.76 190.971 161 190.041 165.66 187.781C168.47 186.411 172.32 183.531 170.18 180.061C169.47 178.911 168.32 178.091 167.13 177.431C161.69 174.421 155.14 174.221 148.9 174.401C145.37 174.501 141.79 174.711 138.41 175.731C138.03 175.841 137.66 175.971 137.29 176.111L137.28 176.101Z" fill="#FFEEA6"/>
<path d="M129.76 202.379C130.01 205.739 129.94 207.699 129.86 208.669C129.81 209.279 129.59 209.859 129.21 210.349C127.98 211.959 125.53 213.649 125.53 213.649C125.53 213.649 116.83 220.019 100.25 218.129C91.1404 217.089 86.6004 213.259 85.1704 211.829C84.8104 211.469 84.6003 210.999 84.5603 210.489C84.3803 208.089 84.6604 202.849 84.6604 202.849L129.76 202.379V202.379Z" fill="#FFC52F"/>
<path d="M91.2902 195.17C89.6502 195.79 88.0902 196.63 86.8602 197.86C85.3102 199.4 84.3602 201.62 84.7502 203.75C85.2202 206.28 87.4202 208.15 89.7202 209.39C94.7902 212.12 100.77 212.72 106.55 212.5C112.51 212.27 118.52 211.2 123.87 208.6C127.1 207.03 131.51 203.71 129.06 199.72C128.25 198.4 126.93 197.45 125.56 196.7C119.32 193.24 111.79 193.01 104.63 193.21C100.57 193.33 96.4702 193.57 92.5902 194.74C92.1602 194.87 91.7302 195.01 91.3002 195.17H91.2902Z" fill="#FFDA40"/>
<path d="M93.9502 196.449C92.5802 196.959 91.2802 197.669 90.2602 198.679C88.9702 199.959 88.1702 201.809 88.5002 203.579C88.8902 205.679 90.7302 207.239 92.6402 208.269C96.8602 210.539 101.85 211.039 106.65 210.859C111.62 210.669 116.62 209.779 121.08 207.619C123.77 206.309 127.44 203.559 125.4 200.239C124.72 199.139 123.62 198.359 122.48 197.729C117.28 194.859 111.01 194.659 105.04 194.829C101.66 194.929 98.2402 195.129 95.0102 196.099C94.6502 196.209 94.2902 196.329 93.9402 196.459L93.9502 196.449Z" fill="#FFEEA6"/>
<path d="M120.79 194.891C121.04 198.171 120.97 200.081 120.88 201.031C120.83 201.631 120.61 202.191 120.25 202.671C119.05 204.241 116.66 205.891 116.66 205.891C116.66 205.891 108.18 212.111 92.0002 210.261C83.1202 209.251 78.6902 205.511 77.2902 204.111C76.9402 203.761 76.7302 203.301 76.7002 202.801C76.5302 200.461 76.7902 195.351 76.7902 195.351L120.79 194.891V194.891Z" fill="#FFC52F"/>
<path d="M83.2605 187.861C81.6605 188.461 80.1405 189.291 78.9405 190.481C77.4305 191.981 76.5005 194.151 76.8805 196.231C77.3405 198.701 79.4905 200.531 81.7305 201.731C86.6705 204.391 92.5105 204.981 98.1405 204.771C103.96 204.551 109.82 203.501 115.03 200.961C118.18 199.431 122.48 196.191 120.09 192.291C119.3 191.001 118.01 190.081 116.67 189.341C110.58 185.971 103.24 185.741 96.2505 185.941C92.2905 186.051 88.2905 186.291 84.5105 187.431C84.0905 187.561 83.6705 187.701 83.2505 187.851L83.2605 187.861Z" fill="#FFDA40"/>
<path d="M85.86 189.111C84.52 189.611 83.26 190.301 82.26 191.291C81 192.541 80.23 194.341 80.55 196.071C80.93 198.121 82.72 199.641 84.59 200.641C88.71 202.851 93.57 203.341 98.26 203.161C103.11 202.981 107.99 202.111 112.33 200.001C114.96 198.731 118.54 196.041 116.55 192.801C115.89 191.731 114.82 190.961 113.7 190.351C108.63 187.551 102.52 187.361 96.69 187.521C93.39 187.611 90.06 187.811 86.91 188.761C86.56 188.871 86.21 188.981 85.86 189.111V189.111Z" fill="#FFEEA6"/>
<path d="M126.29 187.279C126.54 190.639 126.47 192.599 126.39 193.569C126.34 194.179 126.12 194.759 125.74 195.249C124.51 196.859 122.06 198.549 122.06 198.549C122.06 198.549 113.36 204.919 96.7801 203.029C87.6701 201.989 83.1301 198.159 81.7001 196.729C81.3401 196.369 81.1301 195.899 81.0901 195.389C80.9101 192.989 81.1901 187.749 81.1901 187.749L126.29 187.279V187.279Z" fill="#FFC52F"/>
<path d="M87.8102 180.07C86.1702 180.69 84.6102 181.53 83.3802 182.76C81.8302 184.3 80.8802 186.52 81.2702 188.65C81.7402 191.18 83.9402 193.05 86.2402 194.29C91.3102 197.02 97.2902 197.62 103.07 197.4C109.03 197.17 115.04 196.1 120.39 193.5C123.62 191.93 128.03 188.61 125.58 184.62C124.77 183.3 123.45 182.35 122.08 181.6C115.84 178.14 108.31 177.91 101.15 178.11C97.0902 178.23 92.9902 178.47 89.1102 179.64C88.6802 179.77 88.2502 179.91 87.8202 180.07H87.8102Z" fill="#FFDA40"/>
<path d="M90.4702 181.349C89.1002 181.859 87.8002 182.569 86.7802 183.579C85.4902 184.859 84.6902 186.709 85.0202 188.479C85.4102 190.579 87.2502 192.139 89.1602 193.169C93.3802 195.439 98.3702 195.939 103.17 195.759C108.14 195.569 113.14 194.679 117.6 192.519C120.29 191.209 123.96 188.459 121.92 185.139C121.24 184.039 120.14 183.259 119 182.629C113.8 179.759 107.53 179.559 101.56 179.729C98.1802 179.829 94.7602 180.029 91.5302 180.999C91.1702 181.109 90.8102 181.229 90.4602 181.359L90.4702 181.349Z" fill="#FFEEA6"/>
<path d="M193.17 189.079C191.49 192.149 189.38 194.529 189.38 194.529C187.48 196.669 184.77 198.139 181.93 198.459C179.33 198.759 176.69 198.299 174.24 197.429C173.09 197.019 171.98 196.529 170.93 195.919C168.62 194.589 166.59 192.799 165.02 190.639C162.22 186.809 160.46 181.509 162.7 176.999C163.52 175.349 164.48 173.759 165.57 172.279L193.18 189.069L193.17 189.079Z" fill="#FFC52F"/>
<path d="M193.175 189.094C196.871 183.017 193.687 174.33 186.061 169.692C178.436 165.054 169.258 166.221 165.561 172.298C161.865 178.376 165.05 187.063 172.675 191.701C180.3 196.339 189.478 195.172 193.175 189.094Z" fill="#FFDA40"/>
<path d="M189.706 186.986C192.476 182.432 190.093 175.926 184.383 172.453C178.674 168.98 171.8 169.856 169.03 174.41C166.261 178.963 168.644 185.47 174.353 188.942C180.063 192.415 186.937 191.539 189.706 186.986Z" fill="#FFEEA6"/>
</g>
</g>
<defs>
<clipPath id="clip0_376_84353">
<rect width="250" height="240" fill="white"/>
</clipPath>
<clipPath id="clip1_376_84353">
<rect width="224.92" height="208.1" fill="white" transform="translate(13 32)"/>
</clipPath>
</defs>
</svg>
