<svg width="250" height="240" viewBox="0 0 250 240" fill="none" xmlns="http://www.w3.org/2000/svg">
<g clip-path="url(#clip0_376_84356)">
<g clip-path="url(#clip1_376_84356)">
<path d="M231.21 119.35H226.33C223.4 98.63 214.11 79.96 200.51 65.35C202.92 55.75 208.28 53.63 208.28 53.63C212.55 51.62 212.05 47.86 212.05 47.86C211.55 43.84 205.27 41.58 205.27 41.58C193.67 38.76 184.05 43.93 178.84 47.77C163.78 38.71 146.16 33.5 127.32 33.5C75.6099 33.5 33.0599 72.76 27.8599 123.1C26.6499 123.74 25.2699 124.06 23.9399 123.76C22.0899 123.34 20.5199 121.49 20.8599 119.62C21.1499 117.97 22.6599 116.87 23.9799 115.83C25.2999 114.79 26.6399 113.35 26.3899 111.69C26.1299 110.02 24.2299 108.99 22.5499 109.21C20.8699 109.43 19.4699 110.57 18.3599 111.84C14.0299 116.84 12.1499 127.04 19.0899 130.72C20.8499 131.65 22.8399 132.07 24.8199 132.29C25.6599 132.38 26.5499 132.42 27.3299 132.11C27.3299 132.57 27.3099 133.04 27.3099 133.5C27.3099 172.98 50.1899 207.12 83.4199 223.37C83.3699 223.46 83.3099 223.54 83.2799 223.63L78.8999 233.6C77.8199 236.05 80.1699 238.6 83.5099 238.6H92.9399C94.9399 238.6 96.7299 237.65 97.4699 236.21L100.68 229.91C109.16 232.25 118.1 233.5 127.32 233.5C136.54 233.5 145.48 232.24 153.96 229.91L157.17 236.21C157.9 237.65 159.7 238.6 161.7 238.6H171.13C174.47 238.6 176.82 236.05 175.74 233.6L171.36 223.63C171.32 223.54 171.26 223.46 171.22 223.37C198.25 210.15 218.43 185.09 225.02 154.95H231.22C234.09 154.95 236.44 152.6 236.44 149.73V124.57C236.44 121.7 234.09 119.35 231.22 119.35H231.21Z" fill="#FFF3C0"/>
<path d="M171.13 240.1H161.7C159.13 240.1 156.83 238.84 155.83 236.89L153.18 231.67C136.35 236.09 118.3 236.09 101.47 231.67L98.8199 236.89C97.8299 238.84 95.5299 240.1 92.9499 240.1H83.5199C81.1699 240.1 79.0299 239.04 77.9199 237.34C77.0499 236.01 76.9099 234.42 77.5399 232.99L81.4599 224.06C65.2099 215.82 51.4699 203.36 41.6499 187.95C31.3599 171.79 25.8899 153.09 25.8199 133.85C25.4199 133.85 25.0299 133.82 24.6599 133.78C22.0799 133.5 20.0899 132.95 18.3899 132.05C15.6099 130.58 13.8199 128.09 13.2199 124.84C12.3699 120.32 14.0199 114.57 17.2299 110.86C18.8299 109.01 20.5599 107.95 22.3599 107.72C24.7099 107.41 27.4699 108.85 27.8699 111.47C28.1599 113.37 27.1599 115.23 24.9099 117.02L24.6799 117.2C23.6199 118.04 22.5199 118.9 22.3399 119.89C22.1699 120.87 23.1099 122.04 24.2799 122.31C25.0699 122.49 25.8399 122.34 26.4699 122.1C29.2099 97.6 40.7999 74.97 59.1499 58.32C77.8399 41.34 102.05 32 127.32 32C145.45 32 163.21 36.83 178.75 45.98C184.01 42.3 193.85 37.27 205.61 40.13L205.76 40.18C206.49 40.44 212.92 42.89 213.52 47.68C213.55 47.87 214.11 52.55 208.9 55C208.65 55.11 204.39 56.99 202.15 64.95C215.76 79.8 224.54 98.05 227.6 117.86H231.19C234.9 117.86 237.91 120.87 237.91 124.58V149.74C237.91 153.45 234.9 156.46 231.19 156.46H226.19C219.48 185.45 199.78 210.56 173.17 224.07L177.09 233C177.72 234.43 177.58 236.02 176.71 237.35C175.6 239.05 173.45 240.11 171.11 240.11L171.13 240.1ZM154.75 228.13L158.51 235.52C158.99 236.46 160.27 237.09 161.7 237.09H171.13C172.45 237.09 173.67 236.54 174.22 235.69C174.54 235.2 174.59 234.7 174.36 234.19L169.9 224.09L169.13 222.71L170.55 222.01C197.37 208.89 217.18 183.69 223.54 154.62L223.8 153.44H231.21C233.26 153.44 234.93 151.77 234.93 149.72V124.56C234.93 122.51 233.26 120.84 231.21 120.84H225.02L224.84 119.55C222.01 99.58 213.22 81.19 199.41 66.37L198.85 65.77L199.05 64.98C201.62 54.75 207.47 52.33 207.72 52.23C210.75 50.8 210.58 48.31 210.55 48.03C210.24 45.54 206.38 43.59 204.82 43.01C193.65 40.33 184.3 45.59 179.71 48.97L178.9 49.56L178.04 49.04C162.77 39.84 145.23 34.98 127.31 34.98C102.79 34.98 79.2899 44.05 61.1399 60.51C43.1199 76.86 31.8299 99.14 29.3399 123.23L29.2599 124.02L28.5499 124.4C26.8999 125.28 25.1799 125.56 23.5999 125.2C20.8499 124.58 18.9099 121.9 19.3699 119.33C19.7499 117.21 21.4399 115.88 22.8099 114.8L23.0399 114.62C23.9599 113.89 25.0399 112.82 24.8899 111.88C24.7799 111.14 23.6999 110.54 22.7299 110.66C21.6799 110.79 20.5899 111.51 19.4899 112.79C16.8799 115.81 15.4799 120.63 16.1599 124.25C16.5999 126.59 17.8199 128.31 19.7899 129.36C21.1399 130.08 22.7899 130.52 24.9799 130.76C25.5899 130.83 26.2899 130.87 26.7799 130.68L28.8599 129.86L28.8199 132.52C28.8199 132.84 28.8099 133.16 28.8099 133.48C28.8099 152.27 34.1199 170.55 44.1699 186.32C53.9499 201.68 67.7499 214.02 84.0799 222.01L85.4899 222.7L84.6499 224.23L80.2699 234.19C80.0499 234.7 80.0999 235.2 80.4099 235.69C80.9599 236.54 82.1799 237.09 83.4999 237.09H92.9299C94.3599 237.09 95.6399 236.46 96.1199 235.52L99.8799 228.13L101.06 228.46C118.11 233.16 136.5 233.16 153.55 228.46L154.73 228.13H154.75Z" fill="#FFEEA6"/>
<path d="M127.32 223.26C176.893 223.26 217.08 183.073 217.08 133.5C217.08 83.9272 176.893 43.7402 127.32 43.7402C77.7467 43.7402 37.5598 83.9272 37.5598 133.5C37.5598 183.073 77.7467 223.26 127.32 223.26Z" fill="#FFFAE6"/>
<path d="M170.38 200.039C170.63 203.389 170.56 205.349 170.48 206.319C170.43 206.929 170.21 207.509 169.83 207.989C168.6 209.589 166.16 211.279 166.16 211.279C166.16 211.279 157.48 217.639 140.94 215.749C131.86 214.719 127.32 210.889 125.9 209.459C125.54 209.099 125.33 208.629 125.29 208.119C125.11 205.729 125.39 200.499 125.39 200.499L170.38 200.029V200.039Z" fill="#FFC52F"/>
<path d="M132 192.859C130.36 193.469 128.81 194.319 127.58 195.539C126.04 197.079 125.08 199.289 125.48 201.419C125.95 203.939 128.14 205.809 130.44 207.049C135.49 209.769 141.46 210.369 147.22 210.159C153.17 209.939 159.16 208.859 164.5 206.269C167.72 204.699 172.12 201.389 169.68 197.409C168.87 196.089 167.55 195.149 166.18 194.389C159.95 190.939 152.45 190.709 145.3 190.909C141.25 191.029 137.16 191.259 133.29 192.439C132.86 192.569 132.43 192.709 132.01 192.869L132 192.859Z" fill="#FFDA40"/>
<path d="M134.66 194.13C133.29 194.64 132 195.34 130.98 196.36C129.7 197.64 128.9 199.48 129.23 201.24C129.62 203.34 131.45 204.89 133.36 205.92C137.57 208.18 142.54 208.68 147.34 208.5C152.29 208.31 157.29 207.42 161.73 205.27C164.41 203.97 168.08 201.22 166.04 197.9C165.37 196.8 164.27 196.02 163.13 195.39C157.94 192.52 151.69 192.33 145.74 192.5C142.37 192.6 138.96 192.79 135.74 193.77C135.38 193.88 135.02 194 134.67 194.13H134.66Z" fill="#FFEEA6"/>
<path d="M176.56 192.731C176.81 196.081 176.74 198.041 176.66 199.011C176.61 199.621 176.39 200.201 176.01 200.681C174.78 202.281 172.34 203.971 172.34 203.971C172.34 203.971 163.66 210.331 147.12 208.441C138.04 207.411 133.5 203.581 132.08 202.151C131.72 201.791 131.51 201.321 131.47 200.811C131.29 198.421 131.57 193.191 131.57 193.191L176.56 192.721V192.731Z" fill="#FFC52F"/>
<path d="M138.18 185.541C136.54 186.151 134.99 187.001 133.76 188.221C132.22 189.761 131.26 191.971 131.66 194.101C132.13 196.621 134.32 198.491 136.62 199.731C141.67 202.451 147.64 203.051 153.4 202.841C159.35 202.621 165.34 201.541 170.68 198.951C173.9 197.381 178.3 194.071 175.86 190.091C175.05 188.771 173.73 187.831 172.36 187.071C166.13 183.621 158.63 183.391 151.48 183.591C147.43 183.711 143.34 183.941 139.47 185.121C139.04 185.251 138.61 185.391 138.19 185.551L138.18 185.541Z" fill="#FFDA40"/>
<path d="M140.83 186.821C139.46 187.331 138.17 188.031 137.15 189.051C135.87 190.331 135.07 192.171 135.4 193.931C135.79 196.031 137.62 197.581 139.53 198.611C143.74 200.871 148.71 201.371 153.51 201.191C158.46 201.001 163.46 200.111 167.9 197.961C170.58 196.661 174.25 193.911 172.21 190.591C171.54 189.491 170.44 188.711 169.3 188.081C164.11 185.211 157.86 185.021 151.91 185.191C148.54 185.291 145.13 185.481 141.91 186.461C141.55 186.571 141.19 186.691 140.84 186.821H140.83Z" fill="#FFEEA6"/>
<path d="M131.41 203.121C131.65 206.331 131.58 208.191 131.5 209.121C131.45 209.701 131.24 210.261 130.88 210.721C129.7 212.251 127.37 213.871 127.37 213.871C127.37 213.871 119.07 219.951 103.26 218.151C94.5699 217.161 90.2398 213.501 88.8798 212.141C88.5398 211.801 88.3399 211.351 88.2999 210.861C88.1299 208.571 88.3899 203.571 88.3899 203.571L131.41 203.121V203.121Z" fill="#FFC52F"/>
<path d="M94.7199 196.251C93.1499 196.841 91.6698 197.651 90.4898 198.811C89.0198 200.281 88.0999 202.401 88.4799 204.431C88.9299 206.841 91.0299 208.631 93.2199 209.811C98.0499 212.411 103.76 212.991 109.27 212.781C114.96 212.571 120.69 211.541 125.79 209.061C128.87 207.561 133.08 204.401 130.74 200.591C129.97 199.331 128.7 198.431 127.4 197.711C121.45 194.411 114.27 194.191 107.44 194.381C103.57 194.491 99.6599 194.721 95.9599 195.841C95.5499 195.961 95.1399 196.101 94.7299 196.251H94.7199Z" fill="#FFDA40"/>
<path d="M97.2498 197.47C95.9398 197.96 94.7098 198.63 93.7298 199.6C92.4998 200.82 91.7398 202.58 92.0498 204.27C92.4198 206.28 94.1698 207.76 95.9998 208.74C100.03 210.9 104.78 211.38 109.37 211.21C114.11 211.03 118.88 210.18 123.13 208.12C125.7 206.87 129.2 204.24 127.25 201.08C126.61 200.03 125.55 199.28 124.47 198.68C119.51 195.94 113.53 195.75 107.84 195.92C104.62 196.01 101.36 196.2 98.2798 197.13C97.9398 197.23 97.5898 197.35 97.2598 197.47H97.2498Z" fill="#FFEEA6"/>
<path d="M106.85 197.23C108.53 200.3 110.64 202.68 110.64 202.68C112.54 204.82 115.25 206.29 118.09 206.61C120.69 206.91 123.33 206.45 125.78 205.58C126.93 205.17 128.04 204.68 129.09 204.07C131.4 202.74 133.43 200.95 135 198.79C137.8 194.96 139.56 189.66 137.32 185.15C136.5 183.5 135.54 181.91 134.45 180.43L106.84 197.22L106.85 197.23Z" fill="#FFC52F"/>
<path d="M127.346 199.831C134.971 195.193 138.155 186.507 134.459 180.429C130.762 174.352 121.584 173.185 113.959 177.823C106.334 182.461 103.149 191.147 106.846 197.225C110.542 203.302 119.72 204.469 127.346 199.831Z" fill="#FFDA40"/>
<path d="M125.667 197.072C131.376 193.6 133.76 187.093 130.99 182.54C128.22 177.986 121.347 177.11 115.637 180.583C109.928 184.056 107.545 190.562 110.314 195.116C113.084 199.669 119.958 200.545 125.667 197.072Z" fill="#FFEEA6"/>
</g>
</g>
<defs>
<clipPath id="clip0_376_84356">
<rect width="250" height="240" fill="white"/>
</clipPath>
<clipPath id="clip1_376_84356">
<rect width="224.93" height="208.1" fill="white" transform="translate(13 32)"/>
</clipPath>
</defs>
</svg>
