<svg width="100%" height="100%" viewBox="0 0 226 209" fill="none" xmlns="http://www.w3.org/2000/svg">
<g clip-path="url(#clip0_113_24985)">
<path d="M219.132 87.35H214.252C211.322 66.63 202.032 47.96 188.432 33.35C190.842 23.75 196.202 21.63 196.202 21.63C200.472 19.62 199.972 15.86 199.972 15.86C199.472 11.84 193.192 9.58 193.192 9.58C181.592 6.76 171.972 11.93 166.762 15.77C151.702 6.71 134.082 1.5 115.242 1.5C63.5323 1.5 20.9823 40.76 15.7823 91.1C14.5723 91.74 13.1923 92.06 11.8623 91.76C10.0123 91.34 8.4423 89.49 8.7823 87.62C9.0723 85.97 10.5823 84.87 11.9023 83.83C13.2223 82.79 14.5623 81.35 14.3123 79.69C14.0523 78.02 12.1523 76.99 10.4723 77.21C8.7923 77.43 7.3923 78.57 6.2823 79.84C1.9523 84.84 0.0723038 95.04 7.0123 98.72C8.7723 99.65 10.7623 100.07 12.7423 100.29C13.5823 100.38 14.4723 100.42 15.2523 100.11C15.2523 100.57 15.2323 101.04 15.2323 101.5C15.2323 140.98 38.1123 175.12 71.3423 191.37C71.2923 191.46 71.2323 191.54 71.2023 191.63L66.8223 201.6C65.7423 204.05 68.0923 206.6 71.4323 206.6H80.8623C82.8623 206.6 84.6523 205.65 85.3923 204.21L88.6023 197.91C97.0823 200.25 106.022 201.5 115.242 201.5C124.462 201.5 133.402 200.24 141.882 197.91L145.092 204.21C145.822 205.65 147.622 206.6 149.622 206.6H159.052C162.392 206.6 164.742 204.05 163.662 201.6L159.282 191.63C159.242 191.54 159.182 191.46 159.142 191.37C186.172 178.15 206.352 153.09 212.942 122.95H219.142C222.012 122.95 224.362 120.6 224.362 117.73V92.57C224.362 89.7 222.012 87.35 219.142 87.35H219.132Z" fill="#FFF3C0"/>
<path d="M159.052 208.1H149.622C147.052 208.1 144.752 206.84 143.752 204.89L141.102 199.67C124.272 204.09 106.222 204.09 89.3915 199.67L86.7415 204.89C85.7515 206.84 83.4515 208.1 80.8715 208.1H71.4415C69.0915 208.1 66.9515 207.04 65.8415 205.34C64.9715 204.01 64.8315 202.42 65.4615 200.99L69.3815 192.06C53.1315 183.82 39.3915 171.36 29.5715 155.95C19.2815 139.79 13.8115 121.09 13.7415 101.85C13.3415 101.85 12.9515 101.82 12.5815 101.78C10.0015 101.5 8.01153 100.95 6.31153 100.05C3.53153 98.58 1.74153 96.09 1.14153 92.84C0.291527 88.32 1.94153 82.57 5.15153 78.86C6.75153 77.01 8.48153 75.95 10.2815 75.72C12.6315 75.41 15.3915 76.85 15.7915 79.47C16.0815 81.37 15.0815 83.23 12.8315 85.02L12.6015 85.2C11.5415 86.04 10.4415 86.9 10.2615 87.89C10.0915 88.87 11.0315 90.04 12.2015 90.31C12.9915 90.49 13.7615 90.34 14.3915 90.1C17.1315 65.6 28.7215 42.97 47.0715 26.32C65.7615 9.34 89.9715 0 115.242 0C133.372 0 151.132 4.83 166.672 13.98C171.932 10.3 181.772 5.27 193.532 8.13L193.682 8.18C194.412 8.44 200.842 10.89 201.442 15.68C201.472 15.87 202.032 20.55 196.822 23C196.572 23.11 192.312 24.99 190.072 32.95C203.682 47.8 212.462 66.05 215.522 85.86H219.112C222.822 85.86 225.832 88.87 225.832 92.58V117.74C225.832 121.45 222.822 124.46 219.112 124.46H214.112C207.402 153.45 187.702 178.56 161.092 192.07L165.012 201C165.642 202.43 165.502 204.02 164.632 205.35C163.522 207.05 161.372 208.11 159.032 208.11L159.052 208.1ZM142.672 196.13L146.432 203.52C146.912 204.46 148.192 205.09 149.622 205.09H159.052C160.372 205.09 161.592 204.54 162.142 203.69C162.462 203.2 162.512 202.7 162.282 202.19L157.822 192.09L157.052 190.71L158.472 190.01C185.292 176.89 205.102 151.69 211.462 122.62L211.722 121.44H219.132C221.182 121.44 222.852 119.77 222.852 117.72V92.56C222.852 90.51 221.182 88.84 219.132 88.84H212.942L212.762 87.55C209.932 67.58 201.142 49.19 187.332 34.37L186.772 33.77L186.972 32.98C189.542 22.75 195.392 20.33 195.642 20.23C198.672 18.8 198.502 16.31 198.472 16.03C198.162 13.54 194.302 11.59 192.742 11.01C181.572 8.33 172.222 13.59 167.632 16.97L166.822 17.56L165.962 17.04C150.692 7.84 133.152 2.98 115.232 2.98C90.7115 2.98 67.2115 12.05 49.0615 28.51C31.0415 44.86 19.7515 67.14 17.2615 91.23L17.1815 92.02L16.4715 92.4C14.8215 93.28 13.1015 93.56 11.5215 93.2C8.77153 92.58 6.83153 89.9 7.29153 87.33C7.67153 85.21 9.36153 83.88 10.7315 82.8L10.9615 82.62C11.8815 81.89 12.9615 80.82 12.8115 79.88C12.7015 79.14 11.6215 78.54 10.6515 78.66C9.60153 78.79 8.51153 79.51 7.41153 80.79C4.80153 83.81 3.40153 88.63 4.08153 92.25C4.52153 94.59 5.74153 96.31 7.71153 97.36C9.06153 98.08 10.7115 98.52 12.9015 98.76C13.5115 98.83 14.2115 98.87 14.7015 98.68L16.7815 97.86L16.7415 100.52C16.7415 100.84 16.7315 101.16 16.7315 101.48C16.7315 120.27 22.0415 138.55 32.0915 154.32C41.8715 169.68 55.6715 182.02 72.0015 190.01L73.4115 190.7L72.5715 192.23L68.1915 202.19C67.9715 202.7 68.0215 203.2 68.3315 203.69C68.8815 204.54 70.1015 205.09 71.4215 205.09H80.8515C82.2815 205.09 83.5615 204.46 84.0415 203.52L87.8015 196.13L88.9815 196.46C106.032 201.16 124.422 201.16 141.472 196.46L142.652 196.13H142.672Z" fill="#FFEEA6"/>
<path d="M115.242 191.26C164.816 191.26 205.002 151.073 205.002 101.5C205.002 51.9272 164.816 11.7402 115.242 11.7402C65.6693 11.7402 25.4824 51.9272 25.4824 101.5C25.4824 151.073 65.6693 191.26 115.242 191.26Z" fill="#FFFAE6"/>
<path d="M158.301 168.04C158.551 171.39 158.481 173.35 158.401 174.32C158.351 174.93 158.131 175.51 157.751 175.99C156.521 177.59 154.081 179.28 154.081 179.28C154.081 179.28 145.401 185.64 128.861 183.75C119.781 182.72 115.241 178.89 113.821 177.46C113.461 177.1 113.251 176.63 113.211 176.12C113.031 173.73 113.311 168.5 113.311 168.5L158.301 168.03V168.04Z" fill="#FFC52F"/>
<path d="M119.921 160.86C118.281 161.47 116.731 162.32 115.501 163.54C113.961 165.08 113.001 167.29 113.401 169.42C113.871 171.94 116.061 173.81 118.361 175.05C123.411 177.77 129.381 178.37 135.141 178.16C141.091 177.94 147.081 176.86 152.421 174.27C155.641 172.7 160.041 169.39 157.601 165.41C156.791 164.09 155.471 163.15 154.101 162.39C147.871 158.94 140.371 158.71 133.221 158.91C129.171 159.03 125.081 159.26 121.211 160.44C120.781 160.57 120.351 160.71 119.931 160.87L119.921 160.86Z" fill="#FFDA40"/>
<path d="M122.581 162.13C121.211 162.64 119.921 163.34 118.901 164.36C117.621 165.64 116.821 167.48 117.151 169.24C117.541 171.34 119.371 172.89 121.281 173.92C125.491 176.18 130.461 176.68 135.261 176.5C140.211 176.31 145.211 175.42 149.651 173.27C152.331 171.97 156.001 169.22 153.961 165.9C153.291 164.8 152.191 164.02 151.051 163.39C145.861 160.52 139.611 160.33 133.661 160.5C130.291 160.6 126.881 160.79 123.661 161.77C123.301 161.88 122.941 162 122.591 162.13H122.581Z" fill="#FFEEA6"/>
<path d="M164.482 160.73C164.732 164.08 164.662 166.04 164.582 167.01C164.532 167.62 164.312 168.2 163.932 168.68C162.702 170.28 160.262 171.97 160.262 171.97C160.262 171.97 151.582 178.33 135.042 176.44C125.962 175.41 121.422 171.58 120.002 170.15C119.642 169.79 119.432 169.32 119.392 168.81C119.212 166.42 119.492 161.19 119.492 161.19L164.482 160.72V160.73Z" fill="#FFC52F"/>
<path d="M126.103 153.54C124.463 154.15 122.913 155 121.683 156.22C120.143 157.76 119.183 159.97 119.583 162.1C120.053 164.62 122.243 166.49 124.543 167.73C129.593 170.45 135.563 171.05 141.323 170.84C147.273 170.62 153.263 169.54 158.603 166.95C161.823 165.38 166.223 162.07 163.783 158.09C162.973 156.77 161.653 155.83 160.283 155.07C154.053 151.62 146.553 151.39 139.403 151.59C135.353 151.71 131.263 151.94 127.393 153.12C126.963 153.25 126.533 153.39 126.113 153.55L126.103 153.54Z" fill="#FFDA40"/>
<path d="M128.752 154.82C127.382 155.33 126.092 156.03 125.072 157.05C123.792 158.33 122.992 160.17 123.322 161.93C123.712 164.03 125.542 165.58 127.452 166.61C131.662 168.87 136.632 169.37 141.432 169.19C146.382 169 151.382 168.11 155.822 165.96C158.502 164.66 162.172 161.91 160.132 158.59C159.462 157.49 158.362 156.71 157.222 156.08C152.032 153.21 145.782 153.02 139.832 153.19C136.462 153.29 133.052 153.48 129.832 154.46C129.472 154.57 129.112 154.69 128.762 154.82H128.752Z" fill="#FFEEA6"/>
<path d="M119.332 171.12C119.572 174.33 119.502 176.19 119.422 177.12C119.372 177.7 119.162 178.26 118.802 178.72C117.622 180.25 115.292 181.87 115.292 181.87C115.292 181.87 106.992 187.95 91.1817 186.15C82.4917 185.16 78.1617 181.5 76.8017 180.14C76.4617 179.8 76.2617 179.35 76.2217 178.86C76.0517 176.57 76.3117 171.57 76.3117 171.57L119.332 171.12Z" fill="#FFC52F"/>
<path d="M82.6422 164.25C81.0722 164.84 79.5922 165.65 78.4122 166.81C76.9422 168.28 76.0222 170.4 76.4022 172.43C76.8522 174.84 78.9522 176.63 81.1422 177.81C85.9722 180.41 91.6822 180.99 97.1922 180.78C102.882 180.57 108.612 179.54 113.712 177.06C116.792 175.56 121.002 172.4 118.662 168.59C117.892 167.33 116.622 166.43 115.322 165.71C109.372 162.41 102.192 162.19 95.3622 162.38C91.4922 162.49 87.5822 162.72 83.8822 163.84C83.4722 163.96 83.0622 164.1 82.6522 164.25H82.6422Z" fill="#FFDA40"/>
<path d="M85.1716 165.47C83.8616 165.96 82.6316 166.63 81.6516 167.6C80.4216 168.82 79.6616 170.58 79.9716 172.27C80.3416 174.28 82.0916 175.76 83.9216 176.74C87.9516 178.9 92.7016 179.38 97.2916 179.21C102.032 179.03 106.802 178.18 111.052 176.12C113.622 174.87 117.122 172.24 115.172 169.08C114.532 168.03 113.472 167.28 112.392 166.68C107.432 163.94 101.452 163.75 95.7616 163.92C92.5416 164.01 89.2816 164.2 86.2016 165.13C85.8616 165.23 85.5116 165.35 85.1816 165.47H85.1716Z" fill="#FFEEA6"/>
<path d="M94.7717 165.23C96.4517 168.3 98.5617 170.68 98.5617 170.68C100.462 172.82 103.172 174.29 106.012 174.61C108.612 174.91 111.252 174.45 113.702 173.58C114.852 173.17 115.962 172.68 117.012 172.07C119.322 170.74 121.352 168.95 122.922 166.79C125.722 162.96 127.482 157.66 125.242 153.15C124.422 151.5 123.462 149.91 122.372 148.43L94.7617 165.22L94.7717 165.23Z" fill="#FFC52F"/>
<path d="M115.267 167.833C122.893 163.195 126.077 154.508 122.381 148.431C118.684 142.353 109.506 141.186 101.881 145.824C94.2556 150.462 91.0709 159.149 94.7675 165.226C98.4642 171.304 107.642 172.471 115.267 167.833Z" fill="#FFDA40"/>
<path d="M113.588 165.073C119.298 161.6 121.681 155.094 118.911 150.54C116.142 145.987 109.268 145.111 103.559 148.584C97.8491 152.056 95.4659 158.563 98.2355 163.116C101.005 167.67 107.879 168.546 113.588 165.073Z" fill="#FFEEA6"/>
</g>
<defs>
<clipPath id="clip0_113_24985">
<rect width="224.93" height="208.1" fill="white" transform="translate(0.921875)"/>
</clipPath>
</defs>
</svg>
