<svg width="250" height="240" viewBox="0 0 250 240" fill="none" xmlns="http://www.w3.org/2000/svg">
<g clip-path="url(#clip0_376_84355)">
<g clip-path="url(#clip1_376_84355)">
<path d="M231.21 119.35H226.33C223.4 98.63 214.11 79.96 200.51 65.35C202.92 55.75 208.28 53.63 208.28 53.63C212.55 51.62 212.05 47.86 212.05 47.86C211.55 43.84 205.27 41.58 205.27 41.58C193.67 38.76 184.05 43.93 178.84 47.77C163.78 38.71 146.16 33.5 127.32 33.5C75.6099 33.5 33.0599 72.76 27.8599 123.1C26.6499 123.74 25.2699 124.06 23.9399 123.76C22.0899 123.34 20.5199 121.49 20.8599 119.62C21.1499 117.97 22.6599 116.87 23.9799 115.83C25.2999 114.79 26.6399 113.35 26.3899 111.69C26.1299 110.02 24.2299 108.99 22.5499 109.21C20.8699 109.43 19.4699 110.57 18.3599 111.84C14.0299 116.84 12.1499 127.04 19.0899 130.72C20.8499 131.65 22.8399 132.07 24.8199 132.29C25.6599 132.38 26.5499 132.42 27.3299 132.11C27.3299 132.57 27.3099 133.04 27.3099 133.5C27.3099 172.98 50.1899 207.12 83.4199 223.37C83.3699 223.46 83.3099 223.54 83.2799 223.63L78.8999 233.6C77.8199 236.05 80.1699 238.6 83.5099 238.6H92.9399C94.9399 238.6 96.7299 237.65 97.4699 236.21L100.68 229.91C109.16 232.25 118.1 233.5 127.32 233.5C136.54 233.5 145.48 232.24 153.96 229.91L157.17 236.21C157.9 237.65 159.7 238.6 161.7 238.6H171.13C174.47 238.6 176.82 236.05 175.74 233.6L171.36 223.63C171.32 223.54 171.26 223.46 171.22 223.37C198.25 210.15 218.43 185.09 225.02 154.95H231.22C234.09 154.95 236.44 152.6 236.44 149.73V124.57C236.44 121.7 234.09 119.35 231.22 119.35H231.21Z" fill="#FFF3C0"/>
<path d="M171.13 240.1H161.7C159.13 240.1 156.83 238.84 155.83 236.89L153.18 231.67C136.35 236.09 118.29 236.09 101.47 231.67L98.8201 236.89C97.8301 238.84 95.5301 240.1 92.9501 240.1H83.5201C81.1701 240.1 79.0301 239.04 77.9201 237.34C77.0501 236.01 76.9101 234.42 77.5401 232.99L81.4601 224.06C65.2101 215.82 51.4701 203.36 41.6501 187.95C31.3601 171.79 25.8901 153.09 25.8201 133.85C25.4201 133.85 25.0301 133.82 24.6601 133.78C22.0801 133.5 20.0901 132.95 18.3901 132.05C15.6101 130.58 13.8201 128.09 13.2201 124.85C12.3701 120.33 14.0201 114.58 17.2301 110.87C18.8301 109.02 20.5601 107.96 22.3601 107.73C24.6901 107.43 27.4701 108.86 27.8701 111.47C28.1601 113.37 27.1601 115.23 24.9101 117.02L24.6801 117.2C23.6201 118.04 22.5101 118.9 22.3401 119.89C22.1701 120.87 23.1101 122.04 24.2801 122.3C25.0701 122.48 25.8401 122.33 26.4701 122.09C29.2101 97.59 40.7901 74.96 59.1501 58.31C77.8401 41.34 102.05 32 127.32 32C145.45 32 163.21 36.83 178.75 45.98C184.01 42.3 193.85 37.28 205.61 40.13L205.76 40.18C206.49 40.44 212.92 42.89 213.52 47.68C213.54 47.87 214.11 52.55 208.9 55C208.65 55.11 204.39 56.99 202.15 64.95C215.76 79.8 224.54 98.05 227.6 117.86H231.19C234.9 117.86 237.91 120.87 237.91 124.58V149.74C237.91 153.45 234.9 156.46 231.19 156.46H226.19C219.48 185.45 199.78 210.56 173.17 224.07L177.09 233C177.72 234.43 177.58 236.02 176.71 237.35C175.6 239.05 173.45 240.11 171.11 240.11L171.13 240.1ZM154.75 228.13L158.51 235.52C158.99 236.46 160.27 237.09 161.7 237.09H171.13C172.45 237.09 173.67 236.54 174.22 235.69C174.54 235.2 174.59 234.7 174.36 234.19L169.9 224.09L169.13 222.71L170.55 222.01C197.37 208.89 217.18 183.69 223.54 154.62L223.8 153.44H231.2C233.25 153.44 234.92 151.77 234.92 149.72V124.56C234.92 122.51 233.25 120.84 231.2 120.84H225.01L224.83 119.55C222 99.58 213.21 81.19 199.4 66.37L198.84 65.77L199.04 64.98C201.61 54.75 207.46 52.33 207.71 52.23C210.74 50.8 210.57 48.31 210.54 48.03C210.23 45.54 206.37 43.59 204.81 43.01C193.64 40.33 184.29 45.59 179.71 48.97L178.9 49.56L178.04 49.04C162.77 39.84 145.23 34.98 127.31 34.98C102.79 34.98 79.2901 44.05 61.1401 60.51C43.1201 76.86 31.8301 99.14 29.3401 123.23L29.2601 124.02L28.5501 124.4C26.9001 125.28 25.1901 125.56 23.6001 125.2C20.8501 124.58 18.9101 121.9 19.3701 119.33C19.7501 117.21 21.4501 115.87 22.8101 114.8L23.0401 114.62C23.9601 113.89 25.0401 112.82 24.8901 111.88C24.7801 111.14 23.7101 110.54 22.7301 110.66C21.6801 110.79 20.5901 111.51 19.4901 112.79C16.8801 115.81 15.4801 120.63 16.1601 124.26C16.6001 126.6 17.8201 128.32 19.7901 129.37C21.1401 130.09 22.7901 130.53 24.9801 130.77C25.5901 130.84 26.2901 130.88 26.7801 130.69L28.8601 129.87L28.8201 132.54C28.8201 132.85 28.8101 133.17 28.8101 133.49C28.8101 152.28 34.1201 170.56 44.1701 186.33C53.9501 201.69 67.7501 214.03 84.0801 222.02L85.4901 222.71L84.6501 224.23L80.2701 234.19C80.0501 234.7 80.0901 235.2 80.4101 235.69C80.9601 236.54 82.1801 237.09 83.5001 237.09H92.9301C94.3601 237.09 95.6401 236.46 96.1201 235.52L99.8801 228.13L101.06 228.46C118.1 233.16 136.51 233.16 153.55 228.46L154.73 228.13H154.75Z" fill="#FFEEA6"/>
<path d="M127.32 223.26C176.893 223.26 217.08 183.073 217.08 133.5C217.08 83.9272 176.893 43.7402 127.32 43.7402C77.747 43.7402 37.5601 83.9272 37.5601 133.5C37.5601 183.073 77.747 223.26 127.32 223.26Z" fill="#FFFAE6"/>
<path d="M186.84 161.85C196.809 161.85 204.89 154.332 204.89 145.06C204.89 135.787 196.809 128.27 186.84 128.27C176.871 128.27 168.79 135.787 168.79 145.06C168.79 154.332 176.871 161.85 186.84 161.85Z" fill="#FFDA40"/>
<path d="M186.84 158.239C194.672 158.239 201.02 152.338 201.02 145.059C201.02 137.78 194.672 131.879 186.84 131.879C179.009 131.879 172.66 137.78 172.66 145.059C172.66 152.338 179.009 158.239 186.84 158.239Z" fill="#FFEEA6"/>
<path d="M177.5 182.85C189.954 182.85 200.05 173.462 200.05 161.88C200.05 150.299 189.954 140.91 177.5 140.91C165.046 140.91 154.95 150.299 154.95 161.88C154.95 173.462 165.046 182.85 177.5 182.85Z" fill="#FFDA40"/>
<path d="M177.5 178.35C187.281 178.35 195.21 170.976 195.21 161.88C195.21 152.784 187.281 145.41 177.5 145.41C167.719 145.41 159.79 152.784 159.79 161.88C159.79 170.976 167.719 178.35 177.5 178.35Z" fill="#FFEEA6"/>
<path d="M80.7602 184.53C92.9657 184.53 102.86 175.329 102.86 163.98C102.86 152.63 92.9657 143.43 80.7602 143.43C68.5547 143.43 58.6602 152.63 58.6602 163.98C58.6602 175.329 68.5547 184.53 80.7602 184.53Z" fill="#FFDA40"/>
<path d="M80.7604 180.12C90.3481 180.12 98.1204 172.894 98.1204 163.98C98.1204 155.066 90.3481 147.84 80.7604 147.84C71.1727 147.84 63.4004 155.066 63.4004 163.98C63.4004 172.894 71.1727 180.12 80.7604 180.12Z" fill="#FFEEA6"/>
<path d="M166.52 196.52C166.78 200.04 166.71 202.08 166.62 203.1C166.56 203.74 166.33 204.35 165.94 204.86C164.65 206.54 162.09 208.31 162.09 208.31C162.09 208.31 152.99 214.97 135.65 213C126.13 211.92 121.37 207.9 119.88 206.41C119.5 206.03 119.28 205.54 119.24 205.01C119.05 202.5 119.34 197.02 119.34 197.02L166.51 196.52H166.52Z" fill="#FFC52F"/>
<path d="M126.29 188.989C124.57 189.629 122.94 190.519 121.66 191.799C120.04 193.409 119.04 195.729 119.45 197.959C119.94 200.609 122.24 202.569 124.65 203.859C129.95 206.709 136.21 207.339 142.25 207.119C148.49 206.879 154.77 205.759 160.36 203.039C163.74 201.399 168.35 197.929 165.79 193.749C164.94 192.369 163.56 191.379 162.12 190.589C155.59 186.969 147.72 186.729 140.23 186.939C135.99 187.059 131.7 187.309 127.64 188.539C127.19 188.679 126.74 188.829 126.29 188.989V188.989Z" fill="#FFDA40"/>
<path d="M129.07 190.32C127.64 190.86 126.28 191.59 125.21 192.66C123.86 194 123.03 195.93 123.37 197.78C123.78 199.98 125.7 201.61 127.7 202.68C132.11 205.05 137.33 205.58 142.36 205.39C147.55 205.19 152.79 204.26 157.45 202C160.26 200.63 164.11 197.75 161.97 194.28C161.26 193.13 160.11 192.31 158.92 191.65C153.48 188.64 146.93 188.44 140.69 188.62C137.16 188.72 133.58 188.93 130.2 189.95C129.82 190.06 129.45 190.19 129.08 190.33L129.07 190.32Z" fill="#FFEEA6"/>
<path d="M175.8 188.221C176.06 191.741 175.99 193.781 175.9 194.801C175.84 195.441 175.61 196.051 175.22 196.561C173.93 198.241 171.37 200.011 171.37 200.011C171.37 200.011 162.27 206.671 144.93 204.701C135.41 203.621 130.65 199.601 129.16 198.111C128.78 197.731 128.56 197.241 128.52 196.711C128.33 194.201 128.62 188.721 128.62 188.721L175.79 188.221H175.8Z" fill="#FFC52F"/>
<path d="M135.56 180.69C133.84 181.33 132.21 182.22 130.93 183.5C129.31 185.11 128.31 187.43 128.72 189.66C129.21 192.31 131.51 194.27 133.92 195.56C139.22 198.41 145.48 199.04 151.52 198.82C157.76 198.58 164.04 197.46 169.63 194.74C173.01 193.1 177.62 189.63 175.06 185.45C174.21 184.07 172.83 183.08 171.39 182.29C164.86 178.67 156.99 178.43 149.5 178.64C145.26 178.76 140.97 179.01 136.91 180.24C136.46 180.38 136.01 180.53 135.56 180.69V180.69Z" fill="#FFDA40"/>
<path d="M138.34 182.03C136.91 182.57 135.55 183.3 134.48 184.37C133.13 185.71 132.3 187.64 132.64 189.49C133.05 191.69 134.97 193.32 136.97 194.39C141.38 196.76 146.6 197.29 151.63 197.1C156.82 196.9 162.06 195.97 166.72 193.71C169.53 192.34 173.38 189.46 171.24 185.99C170.53 184.84 169.38 184.02 168.19 183.36C162.75 180.35 156.2 180.15 149.96 180.33C146.43 180.43 142.85 180.64 139.47 181.66C139.09 181.77 138.72 181.9 138.35 182.04L138.34 182.03Z" fill="#FFEEA6"/>
<path d="M172.67 178.451C172.93 181.971 172.86 184.011 172.77 185.031C172.71 185.671 172.48 186.281 172.09 186.791C170.8 188.471 168.24 190.241 168.24 190.241C168.24 190.241 159.14 196.901 141.8 194.931C132.28 193.851 127.52 189.831 126.03 188.341C125.65 187.961 125.43 187.471 125.39 186.941C125.2 184.431 125.49 178.951 125.49 178.951L172.66 178.451H172.67Z" fill="#FFC52F"/>
<path d="M132.44 170.921C130.72 171.561 129.09 172.451 127.81 173.731C126.19 175.341 125.19 177.661 125.6 179.891C126.09 182.541 128.39 184.501 130.8 185.791C136.1 188.641 142.36 189.271 148.4 189.051C154.64 188.811 160.92 187.691 166.51 184.971C169.89 183.331 174.5 179.861 171.94 175.681C171.09 174.301 169.71 173.311 168.27 172.521C161.74 168.901 153.87 168.661 146.38 168.871C142.14 168.991 137.85 169.241 133.79 170.471C133.34 170.611 132.89 170.761 132.44 170.921V170.921Z" fill="#FFDA40"/>
<path d="M135.22 172.251C133.79 172.791 132.43 173.521 131.36 174.591C130.01 175.931 129.18 177.861 129.52 179.711C129.93 181.911 131.85 183.541 133.85 184.611C138.26 186.981 143.48 187.511 148.51 187.321C153.7 187.121 158.94 186.191 163.6 183.931C166.41 182.561 170.26 179.681 168.12 176.211C167.41 175.061 166.26 174.241 165.07 173.581C159.63 170.571 153.08 170.371 146.84 170.551C143.31 170.651 139.73 170.861 136.35 171.881C135.97 171.991 135.6 172.121 135.23 172.261L135.22 172.251Z" fill="#FFEEA6"/>
<path d="M177.79 169.031C178.05 172.551 177.98 174.591 177.89 175.611C177.83 176.251 177.6 176.861 177.21 177.371C175.92 179.051 173.36 180.821 173.36 180.821C173.36 180.821 164.26 187.481 146.92 185.511C137.4 184.431 132.64 180.411 131.15 178.921C130.77 178.541 130.55 178.051 130.51 177.521C130.32 175.011 130.61 169.531 130.61 169.531L177.78 169.031H177.79Z" fill="#FFC52F"/>
<path d="M137.55 161.501C135.83 162.141 134.2 163.031 132.92 164.311C131.3 165.921 130.3 168.241 130.71 170.471C131.2 173.121 133.5 175.081 135.91 176.371C141.21 179.221 147.47 179.851 153.51 179.631C159.75 179.391 166.03 178.271 171.62 175.551C175 173.911 179.61 170.441 177.05 166.261C176.2 164.881 174.82 163.891 173.38 163.101C166.85 159.481 158.98 159.241 151.49 159.451C147.25 159.571 142.96 159.821 138.9 161.051C138.45 161.191 138 161.341 137.55 161.501V161.501Z" fill="#FFDA40"/>
<path d="M140.33 162.831C138.9 163.371 137.54 164.101 136.47 165.171C135.12 166.511 134.29 168.441 134.63 170.291C135.04 172.491 136.96 174.121 138.96 175.191C143.37 177.561 148.59 178.091 153.62 177.901C158.81 177.701 164.05 176.771 168.71 174.511C171.52 173.141 175.37 170.261 173.23 166.791C172.52 165.641 171.37 164.821 170.18 164.161C164.74 161.151 158.19 160.951 151.95 161.131C148.42 161.231 144.84 161.441 141.46 162.461C141.08 162.571 140.71 162.701 140.34 162.841L140.33 162.831Z" fill="#FFEEA6"/>
<path d="M171.26 159.82C171.52 163.34 171.45 165.38 171.36 166.4C171.3 167.04 171.07 167.65 170.68 168.16C169.39 169.84 166.83 171.61 166.83 171.61C166.83 171.61 157.73 178.27 140.39 176.3C130.87 175.22 126.11 171.2 124.62 169.71C124.24 169.33 124.02 168.84 123.98 168.31C123.79 165.8 124.08 160.32 124.08 160.32L171.25 159.82H171.26Z" fill="#FFC52F"/>
<path d="M131.03 152.28C129.31 152.92 127.68 153.81 126.4 155.09C124.78 156.7 123.78 159.02 124.19 161.25C124.68 163.9 126.98 165.86 129.39 167.15C134.69 170 140.95 170.63 146.99 170.41C153.23 170.17 159.51 169.05 165.1 166.33C168.48 164.69 173.09 161.22 170.53 157.04C169.68 155.66 168.3 154.67 166.86 153.88C160.33 150.26 152.46 150.02 144.97 150.23C140.73 150.35 136.44 150.6 132.38 151.83C131.93 151.97 131.48 152.12 131.03 152.28V152.28Z" fill="#FFDA40"/>
<path d="M133.81 153.62C132.38 154.16 131.02 154.89 129.95 155.96C128.6 157.3 127.77 159.23 128.11 161.08C128.52 163.28 130.44 164.91 132.44 165.98C136.85 168.35 142.07 168.88 147.1 168.69C152.29 168.49 157.53 167.56 162.19 165.3C165 163.93 168.85 161.05 166.71 157.58C166 156.43 164.85 155.61 163.66 154.95C158.22 151.94 151.67 151.74 145.43 151.92C141.9 152.02 138.32 152.23 134.94 153.25C134.56 153.36 134.19 153.49 133.82 153.63L133.81 153.62Z" fill="#FFEEA6"/>
<path d="M167.62 150.961C167.87 154.231 167.8 156.131 167.71 157.071C167.66 157.661 167.44 158.231 167.08 158.701C165.88 160.261 163.5 161.911 163.5 161.911C163.5 161.911 155.05 168.101 138.93 166.271C130.08 165.261 125.66 161.531 124.27 160.141C123.92 159.791 123.72 159.331 123.68 158.841C123.51 156.511 123.77 151.421 123.77 151.421L167.61 150.961H167.62Z" fill="#FFC52F"/>
<path d="M130.22 143.96C128.62 144.56 127.11 145.38 125.91 146.57C124.41 148.07 123.48 150.23 123.86 152.29C124.31 154.75 126.46 156.57 128.69 157.77C133.62 160.42 139.43 161.01 145.04 160.8C150.84 160.58 156.68 159.54 161.87 157.01C165.01 155.48 169.3 152.26 166.91 148.38C166.12 147.09 164.84 146.18 163.5 145.44C157.43 142.08 150.12 141.85 143.16 142.05C139.22 142.16 135.23 142.4 131.46 143.54C131.04 143.67 130.62 143.81 130.21 143.96H130.22Z" fill="#FFDA40"/>
<path d="M132.81 145.201C131.48 145.701 130.22 146.381 129.22 147.371C127.97 148.621 127.19 150.411 127.51 152.131C127.89 154.171 129.67 155.691 131.53 156.691C135.63 158.891 140.48 159.381 145.15 159.211C149.98 159.031 154.84 158.161 159.17 156.061C161.79 154.791 165.36 152.111 163.37 148.881C162.71 147.811 161.64 147.051 160.53 146.441C155.48 143.651 149.38 143.461 143.58 143.621C140.3 143.711 136.97 143.911 133.83 144.861C133.48 144.971 133.13 145.081 132.79 145.211L132.81 145.201Z" fill="#FFEEA6"/>
<path d="M129.76 200.76C130.01 204.12 129.94 206.08 129.86 207.05C129.81 207.66 129.59 208.24 129.21 208.73C127.98 210.34 125.53 212.03 125.53 212.03C125.53 212.03 116.83 218.4 100.25 216.51C91.1404 215.47 86.6004 211.64 85.1704 210.21C84.8104 209.85 84.6003 209.38 84.5603 208.87C84.3803 206.47 84.6604 201.23 84.6604 201.23L129.76 200.76V200.76Z" fill="#FFC52F"/>
<path d="M91.2902 193.551C89.6502 194.171 88.0902 195.011 86.8602 196.241C85.3102 197.781 84.3602 200.001 84.7502 202.131C85.2202 204.661 87.4202 206.531 89.7202 207.771C94.7902 210.501 100.77 211.101 106.55 210.881C112.51 210.651 118.52 209.581 123.87 206.981C127.1 205.411 131.51 202.091 129.06 198.101C128.25 196.781 126.93 195.831 125.56 195.081C119.32 191.621 111.79 191.391 104.63 191.591C100.57 191.711 96.4702 191.951 92.5902 193.121C92.1602 193.251 91.7302 193.391 91.3002 193.551H91.2902Z" fill="#FFDA40"/>
<path d="M93.9502 194.83C92.5802 195.34 91.2802 196.05 90.2602 197.06C88.9702 198.34 88.1702 200.19 88.5002 201.96C88.8902 204.06 90.7302 205.62 92.6402 206.65C96.8602 208.92 101.85 209.42 106.65 209.24C111.62 209.05 116.62 208.16 121.08 206C123.77 204.69 127.44 201.94 125.4 198.62C124.72 197.52 123.62 196.74 122.48 196.11C117.28 193.24 111.01 193.04 105.04 193.21C101.66 193.31 98.2402 193.51 95.0102 194.48C94.6502 194.59 94.2902 194.71 93.9402 194.84L93.9502 194.83Z" fill="#FFEEA6"/>
<path d="M127.05 190.91C127.3 194.27 127.23 196.23 127.15 197.2C127.1 197.81 126.88 198.39 126.5 198.88C125.27 200.49 122.82 202.18 122.82 202.18C122.82 202.18 114.12 208.55 97.5399 206.66C88.4299 205.62 83.8899 201.79 82.4599 200.36C82.0999 200 81.8899 199.53 81.8499 199.02C81.6699 196.62 81.9499 191.38 81.9499 191.38L127.05 190.91V190.91Z" fill="#FFC52F"/>
<path d="M88.5699 183.711C86.9299 184.331 85.3699 185.171 84.1399 186.401C82.5899 187.941 81.6399 190.161 82.0299 192.291C82.4999 194.821 84.6999 196.691 86.9999 197.931C92.0699 200.661 98.0499 201.261 103.83 201.041C109.79 200.811 115.8 199.741 121.15 197.141C124.38 195.571 128.79 192.251 126.34 188.261C125.53 186.941 124.21 185.991 122.84 185.241C116.6 181.781 109.07 181.551 101.91 181.751C97.8499 181.871 93.7499 182.111 89.8699 183.281C89.4399 183.411 89.0099 183.551 88.5799 183.711H88.5699Z" fill="#FFDA40"/>
<path d="M91.23 184.99C89.86 185.5 88.56 186.21 87.54 187.22C86.25 188.5 85.45 190.35 85.78 192.12C86.17 194.22 88.01 195.78 89.92 196.81C94.14 199.08 99.13 199.58 103.93 199.4C108.9 199.21 113.9 198.32 118.36 196.16C121.05 194.85 124.72 192.1 122.68 188.78C122 187.68 120.9 186.9 119.76 186.27C114.56 183.4 108.29 183.2 102.32 183.37C98.94 183.47 95.52 183.67 92.29 184.64C91.93 184.75 91.57 184.87 91.22 185L91.23 184.99Z" fill="#FFEEA6"/>
<path d="M121.56 181.568C121.81 184.928 121.74 186.888 121.66 187.858C121.61 188.468 121.39 189.048 121.01 189.538C119.78 191.148 117.33 192.838 117.33 192.838C117.33 192.838 108.63 199.208 92.0502 197.318C82.9402 196.278 78.4002 192.448 76.9702 191.018C76.6102 190.658 76.4002 190.188 76.3602 189.678C76.1802 187.278 76.4602 182.038 76.4602 182.038L121.56 181.568V181.568Z" fill="#FFC52F"/>
<path d="M83.0802 174.359C81.4402 174.979 79.8802 175.819 78.6502 177.049C77.1002 178.589 76.1502 180.809 76.5402 182.939C77.0102 185.469 79.2102 187.339 81.5102 188.579C86.5802 191.309 92.5602 191.909 98.3402 191.689C104.3 191.459 110.31 190.389 115.66 187.789C118.89 186.219 123.3 182.899 120.85 178.909C120.04 177.589 118.72 176.639 117.35 175.889C111.11 172.429 103.58 172.199 96.4202 172.399C92.3602 172.519 88.2602 172.759 84.3802 173.929C83.9502 174.059 83.5202 174.199 83.0902 174.359H83.0802Z" fill="#FFDA40"/>
<path d="M85.7402 175.638C84.3702 176.148 83.0702 176.858 82.0502 177.868C80.7602 179.148 79.9602 180.998 80.2902 182.768C80.6802 184.868 82.5202 186.428 84.4302 187.458C88.6502 189.728 93.6402 190.228 98.4402 190.048C103.41 189.858 108.41 188.968 112.87 186.808C115.56 185.498 119.23 182.748 117.19 179.428C116.51 178.328 115.41 177.548 114.27 176.918C109.07 174.048 102.8 173.848 96.8302 174.018C93.4502 174.118 90.0302 174.318 86.8002 175.288C86.4402 175.398 86.0802 175.518 85.7302 175.648L85.7402 175.638Z" fill="#FFEEA6"/>
<path d="M130.35 173.51C130.6 176.87 130.53 178.83 130.45 179.8C130.4 180.41 130.18 180.99 129.8 181.48C128.57 183.09 126.12 184.78 126.12 184.78C126.12 184.78 117.42 191.15 100.84 189.26C91.7302 188.22 87.1902 184.39 85.7602 182.96C85.4002 182.6 85.1902 182.13 85.1502 181.62C84.9702 179.22 85.2502 173.98 85.2502 173.98L130.35 173.51V173.51Z" fill="#FFC52F"/>
<path d="M91.88 166.31C90.24 166.93 88.68 167.77 87.45 169C85.9 170.54 84.95 172.76 85.34 174.89C85.81 177.42 88.01 179.29 90.31 180.53C95.38 183.26 101.36 183.86 107.14 183.64C113.1 183.41 119.11 182.34 124.46 179.74C127.69 178.17 132.1 174.85 129.65 170.86C128.84 169.54 127.52 168.59 126.15 167.84C119.91 164.38 112.38 164.15 105.22 164.35C101.16 164.47 97.06 164.71 93.18 165.88C92.75 166.01 92.32 166.15 91.89 166.31H91.88Z" fill="#FFDA40"/>
<path d="M94.54 167.59C93.17 168.1 91.87 168.81 90.85 169.82C89.56 171.1 88.76 172.95 89.09 174.72C89.48 176.82 91.32 178.38 93.23 179.41C97.45 181.68 102.44 182.18 107.24 182C112.21 181.81 117.21 180.92 121.67 178.76C124.36 177.45 128.03 174.7 125.99 171.38C125.31 170.28 124.21 169.5 123.07 168.87C117.87 166 111.6 165.8 105.63 165.97C102.25 166.07 98.83 166.27 95.6 167.24C95.24 167.35 94.88 167.47 94.53 167.6L94.54 167.59Z" fill="#FFEEA6"/>
<path d="M128.14 163.709C128.39 167.069 128.32 169.029 128.24 169.999C128.19 170.609 127.97 171.189 127.59 171.679C126.36 173.289 123.91 174.979 123.91 174.979C123.91 174.979 115.21 181.349 98.6302 179.459C89.5202 178.419 84.9802 174.589 83.5502 173.159C83.1902 172.799 82.9802 172.329 82.9402 171.819C82.7602 169.419 83.0402 164.179 83.0402 164.179L128.14 163.709V163.709Z" fill="#FFC52F"/>
<path d="M89.6603 156.5C88.0203 157.12 86.4603 157.96 85.2303 159.19C83.6803 160.73 82.7303 162.95 83.1203 165.08C83.5903 167.61 85.7903 169.48 88.0903 170.72C93.1603 173.45 99.1403 174.05 104.92 173.83C110.88 173.6 116.89 172.53 122.24 169.93C125.47 168.36 129.88 165.04 127.43 161.05C126.62 159.73 125.3 158.78 123.93 158.03C117.69 154.57 110.16 154.34 103 154.54C98.9403 154.66 94.8403 154.9 90.9603 156.07C90.5303 156.2 90.1003 156.34 89.6703 156.5H89.6603Z" fill="#FFDA40"/>
<path d="M92.3203 157.779C90.9503 158.289 89.6503 158.999 88.6303 160.009C87.3403 161.289 86.5403 163.139 86.8703 164.909C87.2603 167.009 89.1003 168.569 91.0103 169.599C95.2303 171.869 100.22 172.369 105.02 172.189C109.99 171.999 114.99 171.109 119.45 168.949C122.14 167.639 125.81 164.889 123.77 161.569C123.09 160.469 121.99 159.689 120.85 159.059C115.65 156.189 109.38 155.989 103.41 156.159C100.03 156.259 96.6103 156.459 93.3803 157.429C93.0203 157.539 92.6603 157.659 92.3103 157.789L92.3203 157.779Z" fill="#FFEEA6"/>
<path d="M123.53 154.34C123.78 157.7 123.71 159.66 123.63 160.63C123.58 161.24 123.36 161.82 122.98 162.31C121.75 163.92 119.3 165.61 119.3 165.61C119.3 165.61 110.6 171.98 94.0204 170.09C84.9104 169.05 80.3704 165.22 78.9404 163.79C78.5804 163.43 78.3704 162.96 78.3304 162.45C78.1504 160.05 78.4304 154.81 78.4304 154.81L123.53 154.34V154.34Z" fill="#FFC52F"/>
<path d="M85.0602 147.14C83.4202 147.76 81.8602 148.6 80.6302 149.83C79.0802 151.37 78.1302 153.59 78.5202 155.72C78.9902 158.25 81.1902 160.12 83.4902 161.36C88.5602 164.09 94.5402 164.69 100.32 164.47C106.28 164.24 112.29 163.17 117.64 160.57C120.87 159 125.28 155.68 122.83 151.69C122.02 150.37 120.7 149.42 119.33 148.67C113.09 145.21 105.56 144.98 98.4002 145.18C94.3402 145.3 90.2402 145.54 86.3602 146.71C85.9302 146.84 85.5002 146.98 85.0702 147.14H85.0602Z" fill="#FFDA40"/>
<path d="M87.7202 148.42C86.3502 148.93 85.0502 149.64 84.0302 150.65C82.7402 151.93 81.9402 153.78 82.2702 155.55C82.6602 157.65 84.5002 159.21 86.4102 160.24C90.6302 162.51 95.6202 163.01 100.42 162.83C105.39 162.64 110.39 161.75 114.85 159.59C117.54 158.28 121.21 155.53 119.17 152.21C118.49 151.11 117.39 150.33 116.25 149.7C111.05 146.83 104.78 146.63 98.8102 146.8C95.4302 146.9 92.0102 147.1 88.7802 148.07C88.4202 148.18 88.0602 148.3 87.7102 148.43L87.7202 148.42Z" fill="#FFEEA6"/>
<path d="M86.4701 180.28C84.7901 183.35 82.6801 185.73 82.6801 185.73C80.7801 187.87 78.0701 189.34 75.2301 189.66C72.6301 189.96 69.9901 189.5 67.5401 188.63C66.3901 188.22 65.2801 187.73 64.2301 187.12C61.9201 185.79 59.8901 184 58.3201 181.84C55.5201 178.01 53.7601 172.71 56.0001 168.2C56.8201 166.55 57.7801 164.96 58.8701 163.48L86.4801 180.27L86.4701 180.28Z" fill="#FFC52F"/>
<path d="M86.4691 180.288C90.1657 174.21 86.981 165.523 79.3558 160.885C71.7307 156.247 62.5525 157.414 58.8559 163.492C55.1593 169.569 58.344 178.256 65.9692 182.894C73.5944 187.532 82.7725 186.365 86.4691 180.288Z" fill="#FFDA40"/>
<path d="M83.0006 178.179C85.7702 173.626 83.387 167.119 77.6775 163.646C71.9681 160.174 65.0945 161.05 62.3249 165.603C59.5553 170.156 61.9385 176.663 67.6479 180.136C73.3574 183.608 80.231 182.732 83.0006 178.179Z" fill="#FFEEA6"/>
<path d="M78.2898 166.319C76.5198 169.539 74.3098 172.039 74.3098 172.039C72.3098 174.289 69.4698 175.829 66.4898 176.169C63.7598 176.479 60.9898 175.999 58.4198 175.089C57.2198 174.659 56.0498 174.139 54.9398 173.509C52.5198 172.109 50.3898 170.229 48.7398 167.969C45.8098 163.949 43.9598 158.389 46.3098 153.649C47.1698 151.919 48.1698 150.239 49.3198 148.699L78.2898 166.319V166.319Z" fill="#FFC52F"/>
<path d="M78.281 166.324C82.1613 159.945 78.8195 150.827 70.8168 145.96C62.8142 141.092 53.1811 142.318 49.3008 148.697C45.4205 155.076 48.7623 164.194 56.765 169.062C64.7676 173.929 74.4007 172.704 78.281 166.324Z" fill="#FFDA40"/>
<path d="M74.6415 164.111C77.5488 159.331 75.0478 152.502 69.0552 148.857C63.0627 145.212 55.8479 146.132 52.9405 150.912C50.0332 155.692 52.5342 162.521 58.5267 166.166C64.5193 169.811 71.7341 168.891 74.6415 164.111Z" fill="#FFEEA6"/>
<path d="M91.2802 152.501C89.6002 155.571 87.4902 157.951 87.4902 157.951C85.5902 160.091 82.8802 161.561 80.0402 161.881C77.4402 162.181 74.8002 161.721 72.3502 160.851C71.2002 160.441 70.0902 159.951 69.0402 159.341C66.7302 158.011 64.7002 156.221 63.1302 154.061C60.3302 150.231 58.5702 144.931 60.8102 140.421C61.6302 138.771 62.5902 137.181 63.6802 135.701L91.2902 152.491L91.2802 152.501Z" fill="#FFC52F"/>
<path d="M91.2831 152.506C94.9797 146.429 91.795 137.742 84.1698 133.104C76.5446 128.466 67.3665 129.633 63.6699 135.711C59.9733 141.788 63.158 150.475 70.7832 155.113C78.4083 159.751 87.5865 158.584 91.2831 152.506Z" fill="#FFDA40"/>
<path d="M87.8145 150.398C90.5841 145.844 88.2009 139.338 82.4915 135.865C76.782 132.392 69.9084 133.268 67.1388 137.822C64.3692 142.375 66.7524 148.882 72.4619 152.354C78.1713 155.827 85.0449 154.951 87.8145 150.398Z" fill="#FFEEA6"/>
<path d="M210.19 134.04C208.51 137.11 206.4 139.49 206.4 139.49C204.5 141.63 201.79 143.1 198.95 143.42C196.35 143.72 193.71 143.26 191.26 142.39C190.11 141.98 189 141.49 187.95 140.88C185.64 139.55 183.61 137.76 182.04 135.6C179.24 131.77 177.48 126.47 179.72 121.96C180.54 120.31 181.5 118.72 182.59 117.24L210.2 134.03L210.19 134.04Z" fill="#FFC52F"/>
<path d="M210.192 134.036C213.888 127.958 210.704 119.271 203.078 114.633C195.453 109.995 186.275 111.162 182.579 117.24C178.882 123.317 182.067 132.004 189.692 136.642C197.317 141.28 206.495 140.113 210.192 134.036Z" fill="#FFDA40"/>
<path d="M206.723 131.927C209.493 127.374 207.11 120.867 201.4 117.394C195.691 113.922 188.817 114.798 186.048 119.351C183.278 123.904 185.661 130.411 191.371 133.884C197.08 137.356 203.954 136.48 206.723 131.927Z" fill="#FFEEA6"/>
<path d="M122.39 147.961C122.61 150.891 122.55 152.591 122.47 153.441C122.42 153.971 122.23 154.481 121.9 154.901C120.82 156.301 118.69 157.781 118.69 157.781C118.69 157.781 111.11 163.331 96.6703 161.681C88.7403 160.781 84.7803 157.441 83.5303 156.191C83.2203 155.881 83.0303 155.471 83.0003 155.021C82.8403 152.931 83.0803 148.371 83.0803 148.371L122.36 147.961H122.39Z" fill="#FFC52F"/>
<path d="M88.8802 141.69C87.4502 142.23 86.0902 142.96 85.0202 144.03C83.6702 145.37 82.8402 147.31 83.1802 149.16C83.5902 151.36 85.5102 153 87.5102 154.07C91.9202 156.44 97.1402 156.97 102.16 156.78C107.35 156.58 112.59 155.65 117.25 153.38C120.06 152.01 123.91 149.12 121.77 145.64C121.06 144.49 119.91 143.67 118.72 143.01C113.28 140 106.73 139.79 100.49 139.97C96.9602 140.07 93.3802 140.28 90.0102 141.3C89.6302 141.41 89.2602 141.54 88.8902 141.68L88.8802 141.69Z" fill="#FFDA40"/>
<path d="M91.2002 142.801C90.0102 143.251 88.8802 143.861 87.9902 144.751C86.8702 145.871 86.1702 147.471 86.4602 149.011C86.8002 150.841 88.4002 152.201 90.0602 153.091C93.7402 155.061 98.0802 155.501 102.27 155.341C106.6 155.181 110.96 154.401 114.84 152.521C117.18 151.381 120.38 148.981 118.6 146.091C118.01 145.131 117.05 144.451 116.06 143.901C111.53 141.401 106.07 141.231 100.87 141.381C97.9302 141.461 94.9502 141.641 92.1402 142.491C91.8302 142.581 91.5102 142.691 91.2102 142.801H91.2002Z" fill="#FFEEA6"/>
<path d="M125.82 139.951C126.04 142.881 125.98 144.581 125.9 145.431C125.85 145.961 125.66 146.471 125.33 146.891C124.25 148.291 122.12 149.771 122.12 149.771C122.12 149.771 114.54 155.321 100.1 153.671C92.17 152.771 88.21 149.431 86.96 148.181C86.65 147.871 86.46 147.461 86.43 147.011C86.27 144.921 86.51 140.361 86.51 140.361L125.79 139.951H125.82Z" fill="#FFC52F"/>
<path d="M92.3099 133.681C90.8799 134.221 89.5199 134.951 88.4499 136.021C87.0999 137.361 86.2699 139.301 86.6099 141.151C87.0199 143.351 88.9399 144.991 90.9399 146.061C95.3499 148.431 100.57 148.961 105.59 148.771C110.78 148.571 116.02 147.641 120.68 145.371C123.49 144.001 127.34 141.111 125.2 137.631C124.49 136.481 123.34 135.661 122.15 135.001C116.71 131.991 110.16 131.781 103.92 131.961C100.39 132.061 96.8099 132.271 93.4399 133.291C93.0599 133.401 92.6899 133.531 92.3199 133.671L92.3099 133.681Z" fill="#FFDA40"/>
<path d="M94.6201 134.791C93.4301 135.241 92.3001 135.851 91.4101 136.741C90.2901 137.861 89.5901 139.461 89.8801 141.001C90.2201 142.831 91.8201 144.191 93.4801 145.081C97.1601 147.051 101.5 147.491 105.69 147.331C110.02 147.171 114.38 146.391 118.26 144.511C120.6 143.371 123.8 140.971 122.02 138.081C121.43 137.121 120.47 136.441 119.48 135.891C114.95 133.391 109.49 133.221 104.29 133.371C101.35 133.451 98.3701 133.631 95.5601 134.481C95.2501 134.571 94.9301 134.681 94.6301 134.791H94.6201Z" fill="#FFEEA6"/>
<path d="M121.22 132.281C121.44 135.211 121.38 136.911 121.3 137.761C121.25 138.291 121.06 138.801 120.73 139.221C119.65 140.621 117.52 142.101 117.52 142.101C117.52 142.101 109.94 147.651 95.4999 146.001C87.5699 145.101 83.6099 141.761 82.3599 140.511C82.0499 140.201 81.8599 139.791 81.8299 139.341C81.6699 137.251 81.9099 132.691 81.9099 132.691L121.19 132.281H121.22Z" fill="#FFC52F"/>
<path d="M87.7098 126.011C86.2798 126.551 84.9198 127.281 83.8498 128.351C82.4998 129.691 81.6698 131.631 82.0098 133.481C82.4198 135.681 84.3398 137.321 86.3398 138.391C90.7498 140.761 95.9698 141.291 100.99 141.101C106.18 140.901 111.42 139.971 116.08 137.701C118.89 136.331 122.74 133.441 120.6 129.961C119.89 128.811 118.74 127.991 117.55 127.331C112.11 124.321 105.56 124.111 99.3198 124.291C95.7898 124.391 92.2098 124.601 88.8398 125.621C88.4598 125.731 88.0898 125.861 87.7198 126.001L87.7098 126.011Z" fill="#FFDA40"/>
<path d="M90.02 127.121C88.83 127.571 87.7 128.181 86.81 129.071C85.69 130.191 84.99 131.791 85.28 133.331C85.62 135.161 87.22 136.521 88.88 137.411C92.56 139.381 96.9 139.821 101.09 139.661C105.42 139.501 109.78 138.721 113.66 136.841C116 135.701 119.2 133.301 117.42 130.411C116.83 129.451 115.87 128.771 114.88 128.221C110.35 125.721 104.89 125.551 99.69 125.701C96.75 125.781 93.77 125.961 90.96 126.811C90.65 126.901 90.33 127.011 90.03 127.121H90.02Z" fill="#FFEEA6"/>
<path d="M128.38 126.471C128.6 129.401 128.54 131.101 128.46 131.951C128.41 132.481 128.22 132.991 127.89 133.411C126.81 134.811 124.68 136.291 124.68 136.291C124.68 136.291 117.1 141.841 102.66 140.191C94.7301 139.291 90.7701 135.951 89.5201 134.701C89.2101 134.391 89.0201 133.981 88.9901 133.531C88.8301 131.441 89.0701 126.881 89.0701 126.881L128.35 126.471H128.38Z" fill="#FFC52F"/>
<path d="M94.87 120.19C93.44 120.73 92.08 121.46 91.01 122.53C89.66 123.87 88.83 125.81 89.17 127.66C89.58 129.86 91.5 131.5 93.5 132.57C97.91 134.94 103.13 135.47 108.15 135.28C113.34 135.08 118.58 134.15 123.24 131.88C126.05 130.51 129.9 127.62 127.76 124.14C127.05 122.99 125.9 122.17 124.71 121.51C119.27 118.5 112.72 118.29 106.48 118.47C102.95 118.57 99.37 118.78 96 119.8C95.62 119.91 95.25 120.04 94.88 120.18L94.87 120.19Z" fill="#FFDA40"/>
<path d="M97.1801 121.311C95.9901 121.761 94.8601 122.371 93.9701 123.261C92.8501 124.381 92.1501 125.981 92.4401 127.521C92.7801 129.351 94.3801 130.711 96.0401 131.601C99.7201 133.571 104.06 134.011 108.25 133.851C112.58 133.691 116.94 132.911 120.82 131.031C123.16 129.891 126.36 127.491 124.58 124.601C123.99 123.641 123.03 122.961 122.04 122.411C117.51 119.911 112.05 119.741 106.85 119.891C103.91 119.971 100.93 120.151 98.1201 121.001C97.8101 121.091 97.4901 121.201 97.1901 121.311H97.1801Z" fill="#FFEEA6"/>
<path d="M122.98 119.532C123.18 122.202 123.12 123.762 123.06 124.532C123.02 125.022 122.84 125.482 122.54 125.862C121.56 127.142 119.61 128.482 119.61 128.482C119.61 128.482 112.7 133.542 99.5203 132.042C92.2803 131.222 88.6703 128.172 87.5403 127.032C87.2503 126.742 87.0903 126.372 87.0603 125.962C86.9203 124.052 87.1403 119.892 87.1403 119.892L122.98 119.512V119.532Z" fill="#FFC52F"/>
<path d="M92.4104 113.801C91.1004 114.291 89.8704 114.961 88.8904 115.941C87.6604 117.171 86.9004 118.931 87.2104 120.621C87.5804 122.631 89.3304 124.121 91.1604 125.101C95.1904 127.271 99.9404 127.751 104.53 127.571C109.27 127.391 114.04 126.541 118.29 124.471C120.86 123.221 124.36 120.591 122.41 117.411C121.76 116.361 120.71 115.611 119.62 115.011C114.66 112.261 108.68 112.081 102.99 112.241C99.7704 112.331 96.5104 112.521 93.4204 113.461C93.0804 113.561 92.7304 113.681 92.4004 113.801H92.4104Z" fill="#FFDA40"/>
<path d="M94.5203 114.821C93.4303 115.231 92.4003 115.791 91.5903 116.601C90.5703 117.621 89.9303 119.081 90.1903 120.491C90.5003 122.161 91.9603 123.401 93.4803 124.221C96.8303 126.021 100.8 126.421 104.62 126.281C108.57 126.131 112.55 125.421 116.08 123.701C118.22 122.661 121.14 120.471 119.51 117.831C118.97 116.961 118.1 116.331 117.19 115.831C113.06 113.551 108.08 113.391 103.33 113.531C100.64 113.611 97.9303 113.761 95.3603 114.541C95.0703 114.631 94.7903 114.721 94.5103 114.831L94.5203 114.821Z" fill="#FFEEA6"/>
<path d="M120.69 111.139C120.9 113.949 120.84 115.579 120.77 116.389C120.73 116.899 120.54 117.379 120.23 117.789C119.2 119.129 117.16 120.539 117.16 120.539C117.16 120.539 109.9 125.859 96.07 124.279C88.47 123.409 84.68 120.209 83.49 119.019C83.19 118.719 83.02 118.329 82.98 117.899C82.83 115.899 83.06 111.529 83.06 111.529L120.69 111.139V111.139Z" fill="#FFC52F"/>
<path d="M88.5901 105.129C87.2201 105.639 85.9201 106.349 84.8901 107.369C83.6001 108.659 82.8001 110.509 83.1301 112.279C83.5201 114.389 85.3601 115.949 87.2801 116.989C91.5101 119.259 96.5001 119.769 101.32 119.589C106.3 119.399 111.31 118.509 115.77 116.339C118.47 115.029 122.15 112.259 120.1 108.929C119.42 107.829 118.32 107.039 117.18 106.409C111.97 103.519 105.69 103.329 99.7201 103.499C96.3301 103.599 92.9101 103.799 89.6801 104.779C89.3201 104.889 88.9601 105.009 88.6101 105.139L88.5901 105.129Z" fill="#FFDA40"/>
<path d="M90.8101 106.199C89.6701 106.629 88.5801 107.209 87.7301 108.059C86.6601 109.129 85.9901 110.669 86.2601 112.139C86.5901 113.889 88.1201 115.189 89.7101 116.049C93.2301 117.939 97.3901 118.359 101.4 118.209C105.54 118.049 109.72 117.309 113.44 115.499C115.69 114.409 118.75 112.109 117.05 109.339C116.49 108.419 115.57 107.769 114.61 107.239C110.27 104.839 105.04 104.679 100.06 104.819C97.2401 104.899 94.3901 105.069 91.6901 105.879C91.3901 105.969 91.0901 106.069 90.8001 106.179L90.8101 106.199Z" fill="#FFEEA6"/>
<path d="M124.99 103.17C125.2 105.98 125.14 107.61 125.07 108.42C125.03 108.93 124.84 109.41 124.53 109.82C123.5 111.16 121.46 112.57 121.46 112.57C121.46 112.57 114.2 117.89 100.37 116.31C92.7703 115.44 88.9803 112.24 87.7903 111.05C87.4903 110.75 87.3203 110.36 87.2803 109.93C87.1303 107.93 87.3603 103.56 87.3603 103.56L124.99 103.17V103.17Z" fill="#FFC52F"/>
<path d="M92.8904 97.1607C91.5204 97.6707 90.2204 98.3807 89.1904 99.4007C87.9004 100.691 87.1004 102.541 87.4304 104.311C87.8204 106.421 89.6604 107.981 91.5804 109.021C95.8104 111.291 100.8 111.801 105.62 111.621C110.6 111.431 115.61 110.541 120.07 108.371C122.77 107.061 126.45 104.291 124.4 100.961C123.72 99.8607 122.62 99.0707 121.48 98.4407C116.27 95.5507 109.99 95.3607 104.02 95.5307C100.63 95.6307 97.2104 95.8307 93.9804 96.8107C93.6204 96.9207 93.2604 97.0407 92.9104 97.1707L92.8904 97.1607Z" fill="#FFDA40"/>
<path d="M95.1104 98.2307C93.9704 98.6607 92.8804 99.2407 92.0304 100.091C90.9604 101.161 90.2904 102.701 90.5604 104.171C90.8904 105.921 92.4204 107.221 94.0104 108.081C97.5304 109.971 101.69 110.391 105.7 110.241C109.84 110.081 114.02 109.341 117.74 107.531C119.99 106.441 123.05 104.141 121.35 101.371C120.79 100.451 119.87 99.8007 118.91 99.2707C114.57 96.8707 109.34 96.7107 104.36 96.8507C101.54 96.9307 98.6904 97.1007 95.9904 97.9107C95.6904 98.0007 95.3904 98.1007 95.1004 98.2107L95.1104 98.2307Z" fill="#FFEEA6"/>
<path d="M126.62 95.6191C126.83 98.4291 126.77 100.059 126.7 100.869C126.66 101.379 126.47 101.859 126.16 102.269C125.13 103.609 123.09 105.019 123.09 105.019C123.09 105.019 115.83 110.339 102 108.759C94.4002 107.889 90.6102 104.689 89.4202 103.499C89.1202 103.199 88.9502 102.809 88.9102 102.379C88.7602 100.379 88.9902 96.0091 88.9902 96.0091L126.62 95.6191V95.6191Z" fill="#FFC52F"/>
<path d="M94.5202 89.6099C93.1502 90.1199 91.8502 90.8299 90.8202 91.8499C89.5302 93.1399 88.7302 94.9899 89.0602 96.7599C89.4502 98.8699 91.2902 100.43 93.2102 101.47C97.4402 103.74 102.43 104.25 107.25 104.07C112.23 103.88 117.24 102.99 121.7 100.82C124.4 99.5099 128.08 96.7399 126.03 93.4099C125.35 92.3099 124.25 91.5199 123.11 90.8899C117.9 87.9999 111.62 87.8099 105.65 87.9799C102.26 88.0799 98.8402 88.2799 95.6102 89.2599C95.2502 89.3699 94.8902 89.4899 94.5402 89.6199L94.5202 89.6099Z" fill="#FFDA40"/>
<path d="M96.7402 90.6702C95.6002 91.1002 94.5102 91.6802 93.6602 92.5302C92.5902 93.6002 91.9202 95.1402 92.1902 96.6102C92.5202 98.3602 94.0502 99.6602 95.6402 100.52C99.1602 102.41 103.32 102.83 107.33 102.68C111.47 102.52 115.65 101.78 119.37 99.9702C121.62 98.8802 124.68 96.5802 122.98 93.8102C122.42 92.8902 121.5 92.2402 120.54 91.7102C116.2 89.3102 110.97 89.1502 105.99 89.2902C103.17 89.3702 100.32 89.5402 97.6202 90.3502C97.3202 90.4402 97.0202 90.5402 96.7302 90.6502L96.7402 90.6702Z" fill="#FFEEA6"/>
<path d="M168.72 143.359C168.94 146.289 168.88 147.989 168.8 148.839C168.75 149.369 168.56 149.879 168.23 150.299C167.15 151.699 165.02 153.179 165.02 153.179C165.02 153.179 157.44 158.729 143 157.079C135.07 156.179 131.11 152.839 129.86 151.589C129.55 151.279 129.36 150.869 129.33 150.419C129.17 148.329 129.41 143.769 129.41 143.769L168.69 143.359H168.72Z" fill="#FFC52F"/>
<path d="M135.21 137.079C133.78 137.619 132.42 138.349 131.35 139.419C130 140.759 129.17 142.699 129.51 144.549C129.92 146.749 131.84 148.389 133.84 149.459C138.25 151.829 143.47 152.359 148.49 152.169C153.68 151.969 158.92 151.039 163.58 148.769C166.39 147.399 170.24 144.509 168.1 141.029C167.39 139.879 166.24 139.059 165.05 138.399C159.61 135.389 153.06 135.179 146.82 135.359C143.29 135.459 139.71 135.669 136.34 136.689C135.96 136.799 135.59 136.929 135.22 137.069L135.21 137.079Z" fill="#FFDA40"/>
<path d="M137.53 138.199C136.34 138.649 135.21 139.259 134.32 140.149C133.2 141.269 132.5 142.869 132.79 144.409C133.13 146.239 134.73 147.599 136.39 148.489C140.07 150.459 144.41 150.899 148.6 150.739C152.93 150.579 157.29 149.799 161.17 147.919C163.51 146.779 166.71 144.379 164.93 141.489C164.34 140.529 163.38 139.849 162.39 139.299C157.86 136.799 152.4 136.629 147.2 136.779C144.26 136.859 141.28 137.039 138.47 137.889C138.16 137.979 137.84 138.089 137.54 138.199H137.53Z" fill="#FFEEA6"/>
<path d="M166 134.721C166.22 137.651 166.16 139.351 166.08 140.201C166.03 140.731 165.84 141.241 165.51 141.661C164.43 143.061 162.3 144.541 162.3 144.541C162.3 144.541 154.72 150.091 140.28 148.441C132.35 147.541 128.39 144.201 127.14 142.951C126.83 142.641 126.64 142.231 126.61 141.781C126.45 139.691 126.69 135.131 126.69 135.131L165.97 134.721H166Z" fill="#FFC52F"/>
<path d="M132.49 128.45C131.06 128.99 129.7 129.72 128.63 130.79C127.28 132.13 126.45 134.07 126.79 135.92C127.2 138.12 129.12 139.76 131.12 140.83C135.53 143.2 140.75 143.73 145.77 143.54C150.96 143.34 156.2 142.41 160.86 140.14C163.67 138.77 167.52 135.88 165.38 132.4C164.67 131.25 163.52 130.43 162.33 129.77C156.89 126.76 150.34 126.55 144.1 126.73C140.57 126.83 136.99 127.04 133.62 128.06C133.24 128.17 132.87 128.3 132.5 128.44L132.49 128.45Z" fill="#FFDA40"/>
<path d="M134.81 129.561C133.62 130.011 132.49 130.621 131.6 131.511C130.48 132.631 129.78 134.231 130.07 135.771C130.41 137.601 132.01 138.961 133.67 139.851C137.35 141.821 141.69 142.261 145.88 142.101C150.21 141.941 154.57 141.161 158.45 139.281C160.79 138.141 163.99 135.741 162.21 132.851C161.62 131.891 160.66 131.211 159.67 130.661C155.14 128.161 149.68 127.991 144.48 128.141C141.54 128.221 138.56 128.401 135.75 129.251C135.44 129.341 135.12 129.451 134.82 129.561H134.81Z" fill="#FFEEA6"/>
<path d="M172.84 128.861C173.06 131.791 173 133.491 172.92 134.341C172.87 134.871 172.68 135.381 172.35 135.801C171.27 137.201 169.14 138.681 169.14 138.681C169.14 138.681 161.56 144.231 147.12 142.581C139.19 141.681 135.23 138.341 133.98 137.091C133.67 136.781 133.48 136.371 133.45 135.921C133.29 133.831 133.53 129.271 133.53 129.271L172.81 128.861H172.84Z" fill="#FFC52F"/>
<path d="M139.33 122.591C137.9 123.131 136.54 123.861 135.47 124.931C134.12 126.271 133.29 128.211 133.63 130.061C134.04 132.261 135.96 133.901 137.96 134.971C142.37 137.341 147.59 137.871 152.61 137.681C157.8 137.481 163.04 136.551 167.7 134.281C170.51 132.911 174.36 130.021 172.22 126.541C171.51 125.391 170.36 124.571 169.17 123.911C163.73 120.901 157.18 120.691 150.94 120.871C147.41 120.971 143.83 121.181 140.46 122.201C140.08 122.311 139.71 122.441 139.34 122.581L139.33 122.591Z" fill="#FFDA40"/>
<path d="M141.64 123.701C140.45 124.151 139.32 124.761 138.43 125.651C137.31 126.771 136.61 128.371 136.9 129.911C137.24 131.741 138.84 133.101 140.5 133.991C144.18 135.961 148.52 136.401 152.71 136.241C157.04 136.081 161.4 135.301 165.28 133.421C167.62 132.281 170.82 129.881 169.04 126.991C168.45 126.031 167.49 125.351 166.5 124.801C161.97 122.301 156.51 122.131 151.31 122.281C148.37 122.361 145.39 122.541 142.58 123.391C142.27 123.481 141.95 123.591 141.65 123.701H141.64Z" fill="#FFEEA6"/>
<path d="M169.78 120.711C170 123.641 169.94 125.341 169.86 126.191C169.81 126.721 169.62 127.231 169.29 127.651C168.21 129.051 166.08 130.531 166.08 130.531C166.08 130.531 158.5 136.081 144.06 134.431C136.13 133.531 132.17 130.191 130.92 128.941C130.61 128.631 130.42 128.221 130.39 127.771C130.23 125.681 130.47 121.121 130.47 121.121L169.75 120.711H169.78Z" fill="#FFC52F"/>
<path d="M136.27 114.44C134.84 114.98 133.48 115.71 132.41 116.78C131.06 118.12 130.23 120.06 130.57 121.91C130.98 124.11 132.9 125.75 134.9 126.82C139.31 129.19 144.53 129.72 149.55 129.53C154.74 129.33 159.98 128.4 164.64 126.13C167.45 124.76 171.3 121.87 169.16 118.39C168.45 117.24 167.3 116.42 166.11 115.76C160.67 112.75 154.12 112.54 147.88 112.72C144.35 112.82 140.77 113.03 137.4 114.05C137.02 114.16 136.65 114.29 136.28 114.43L136.27 114.44Z" fill="#FFDA40"/>
<path d="M138.58 115.551C137.39 116.001 136.26 116.611 135.37 117.501C134.25 118.621 133.55 120.221 133.84 121.761C134.18 123.591 135.78 124.951 137.44 125.841C141.12 127.811 145.46 128.251 149.65 128.091C153.98 127.931 158.34 127.151 162.22 125.271C164.56 124.131 167.76 121.731 165.98 118.841C165.39 117.881 164.43 117.201 163.44 116.651C158.91 114.151 153.45 113.981 148.25 114.131C145.31 114.211 142.33 114.391 139.52 115.241C139.21 115.331 138.89 115.441 138.59 115.551H138.58Z" fill="#FFEEA6"/>
<path d="M169.36 114.549C169.56 117.219 169.5 118.779 169.44 119.549C169.4 120.039 169.22 120.499 168.92 120.879C167.94 122.159 165.99 123.499 165.99 123.499C165.99 123.499 159.08 128.559 145.9 127.059C138.66 126.239 135.05 123.189 133.92 122.049C133.63 121.759 133.47 121.389 133.44 120.979C133.3 119.069 133.52 114.909 133.52 114.909L169.36 114.529V114.549Z" fill="#FFC52F"/>
<path d="M138.78 108.83C137.47 109.32 136.24 109.99 135.26 110.97C134.03 112.2 133.27 113.96 133.58 115.65C133.95 117.66 135.7 119.15 137.53 120.13C141.56 122.3 146.31 122.78 150.9 122.6C155.64 122.42 160.41 121.57 164.66 119.5C167.23 118.25 170.73 115.62 168.78 112.44C168.13 111.39 167.08 110.64 165.99 110.04C161.03 107.29 155.05 107.11 149.36 107.27C146.14 107.36 142.88 107.55 139.79 108.49C139.45 108.59 139.1 108.71 138.77 108.83H138.78Z" fill="#FFDA40"/>
<path d="M140.9 109.85C139.81 110.26 138.78 110.82 137.97 111.63C136.95 112.65 136.31 114.11 136.57 115.52C136.88 117.19 138.34 118.43 139.86 119.25C143.21 121.05 147.18 121.45 151 121.31C154.95 121.16 158.93 120.45 162.46 118.73C164.6 117.69 167.52 115.5 165.89 112.86C165.35 111.99 164.48 111.36 163.57 110.86C159.44 108.58 154.46 108.42 149.71 108.56C147.02 108.64 144.31 108.79 141.74 109.57C141.45 109.66 141.17 109.75 140.89 109.86L140.9 109.85Z" fill="#FFEEA6"/>
<path d="M175.2 107.75C175.4 110.42 175.34 111.98 175.28 112.75C175.24 113.24 175.06 113.7 174.76 114.08C173.78 115.36 171.83 116.7 171.83 116.7C171.83 116.7 164.92 121.76 151.74 120.26C144.5 119.44 140.89 116.39 139.76 115.25C139.47 114.96 139.31 114.59 139.28 114.18C139.14 112.27 139.36 108.11 139.36 108.11L175.2 107.73V107.75Z" fill="#FFC52F"/>
<path d="M144.62 102.02C143.31 102.51 142.08 103.18 141.1 104.16C139.87 105.39 139.11 107.15 139.42 108.84C139.79 110.85 141.54 112.34 143.37 113.32C147.4 115.49 152.15 115.97 156.74 115.79C161.48 115.61 166.25 114.76 170.5 112.69C173.07 111.44 176.57 108.81 174.62 105.63C173.97 104.58 172.92 103.83 171.83 103.23C166.87 100.48 160.89 100.3 155.2 100.46C151.98 100.55 148.72 100.74 145.63 101.68C145.29 101.78 144.94 101.9 144.61 102.02H144.62Z" fill="#FFDA40"/>
<path d="M146.74 103.04C145.65 103.45 144.62 104.01 143.81 104.82C142.79 105.84 142.15 107.3 142.41 108.71C142.72 110.38 144.18 111.62 145.7 112.44C149.05 114.24 153.02 114.64 156.84 114.5C160.79 114.35 164.77 113.64 168.3 111.92C170.44 110.88 173.36 108.69 171.73 106.05C171.19 105.18 170.32 104.55 169.41 104.05C165.28 101.77 160.3 101.61 155.55 101.75C152.86 101.83 150.15 101.98 147.58 102.76C147.29 102.85 147.01 102.94 146.73 103.05L146.74 103.04Z" fill="#FFEEA6"/>
<path d="M169.74 101.881C169.94 104.551 169.88 106.111 169.82 106.881C169.78 107.371 169.6 107.831 169.3 108.211C168.32 109.491 166.37 110.831 166.37 110.831C166.37 110.831 159.46 115.891 146.28 114.391C139.04 113.571 135.43 110.521 134.3 109.381C134.01 109.091 133.85 108.721 133.82 108.311C133.68 106.401 133.9 102.241 133.9 102.241L169.74 101.861V101.881Z" fill="#FFC52F"/>
<path d="M139.17 96.1504C137.86 96.6404 136.63 97.3104 135.65 98.2904C134.42 99.5204 133.66 101.28 133.97 102.97C134.34 104.98 136.09 106.47 137.92 107.45C141.95 109.62 146.7 110.1 151.29 109.92C156.03 109.74 160.8 108.89 165.05 106.82C167.62 105.57 171.12 102.94 169.17 99.7604C168.52 98.7104 167.47 97.9604 166.38 97.3604C161.42 94.6104 155.44 94.4304 149.75 94.5904C146.53 94.6804 143.27 94.8704 140.18 95.8104C139.84 95.9104 139.49 96.0304 139.16 96.1504H139.17Z" fill="#FFDA40"/>
<path d="M141.28 97.1705C140.19 97.5805 139.16 98.1405 138.35 98.9505C137.33 99.9705 136.69 101.43 136.95 102.84C137.26 104.51 138.72 105.75 140.24 106.57C143.59 108.37 147.56 108.77 151.38 108.63C155.33 108.48 159.31 107.77 162.84 106.05C164.98 105.01 167.9 102.82 166.27 100.18C165.73 99.3105 164.86 98.6805 163.95 98.1805C159.82 95.9005 154.84 95.7405 150.09 95.8805C147.4 95.9605 144.69 96.1105 142.12 96.8905C141.83 96.9805 141.55 97.0705 141.27 97.1805L141.28 97.1705Z" fill="#FFEEA6"/>
<path d="M164.28 95.0688C164.48 97.7388 164.42 99.2988 164.36 100.069C164.32 100.559 164.14 101.019 163.84 101.399C162.86 102.679 160.91 104.019 160.91 104.019C160.91 104.019 154 109.079 140.82 107.579C133.58 106.759 129.97 103.709 128.84 102.569C128.55 102.279 128.39 101.909 128.36 101.499C128.22 99.5888 128.44 95.4288 128.44 95.4288L164.28 95.0488V95.0688Z" fill="#FFC52F"/>
<path d="M133.71 89.3496C132.4 89.8396 131.17 90.5096 130.19 91.4896C128.96 92.7196 128.2 94.4796 128.51 96.1696C128.88 98.1796 130.63 99.6696 132.46 100.65C136.49 102.82 141.24 103.3 145.83 103.12C150.57 102.94 155.34 102.09 159.59 100.02C162.16 98.7696 165.66 96.1396 163.71 92.9596C163.06 91.9096 162.01 91.1596 160.92 90.5596C155.96 87.8096 149.98 87.6296 144.29 87.7896C141.07 87.8796 137.81 88.0696 134.72 89.0096C134.38 89.1096 134.03 89.2296 133.7 89.3496H133.71Z" fill="#FFDA40"/>
<path d="M135.82 90.3599C134.73 90.7699 133.7 91.3299 132.89 92.1399C131.87 93.1599 131.23 94.6199 131.49 96.0299C131.8 97.6999 133.26 98.9399 134.78 99.7599C138.13 101.56 142.1 101.96 145.92 101.82C149.87 101.67 153.85 100.96 157.38 99.2399C159.52 98.1999 162.44 96.0099 160.81 93.3699C160.27 92.4999 159.4 91.8699 158.49 91.3699C154.36 89.0899 149.38 88.9299 144.63 89.0699C141.94 89.1499 139.23 89.2999 136.66 90.0799C136.37 90.1699 136.09 90.2599 135.81 90.3699L135.82 90.3599Z" fill="#FFEEA6"/>
<path d="M119.5 88.8208C119.7 91.4908 119.64 93.0508 119.58 93.8208C119.54 94.3108 119.36 94.7708 119.06 95.1508C118.08 96.4308 116.13 97.7708 116.13 97.7708C116.13 97.7708 109.22 102.831 96.0403 101.331C88.8003 100.511 85.1903 97.4608 84.0603 96.3208C83.7703 96.0308 83.6103 95.6608 83.5803 95.2508C83.4403 93.3408 83.6603 89.1808 83.6603 89.1808L119.5 88.8008V88.8208Z" fill="#FFC52F"/>
<path d="M88.9202 83.0899C87.6102 83.5799 86.3802 84.2499 85.4002 85.2299C84.1702 86.4599 83.4102 88.2199 83.7202 89.9099C84.0902 91.9199 85.8402 93.4099 87.6702 94.3899C91.7002 96.5599 96.4502 97.0399 101.04 96.8599C105.78 96.6799 110.55 95.8299 114.8 93.7599C117.37 92.5099 120.87 89.8799 118.92 86.6999C118.27 85.6499 117.22 84.8999 116.13 84.2999C111.17 81.5499 105.19 81.3699 99.5002 81.5299C96.2802 81.6199 93.0202 81.8099 89.9302 82.7499C89.5902 82.8499 89.2402 82.9699 88.9102 83.0899H88.9202Z" fill="#FFDA40"/>
<path d="M91.0404 84.1099C89.9504 84.5199 88.9204 85.0799 88.1104 85.8899C87.0904 86.9099 86.4504 88.3699 86.7104 89.7799C87.0204 91.4499 88.4804 92.6899 90.0004 93.5099C93.3504 95.3099 97.3204 95.7099 101.14 95.5699C105.09 95.4199 109.07 94.7099 112.6 92.9899C114.74 91.9499 117.66 89.7599 116.03 87.1199C115.49 86.2499 114.62 85.6199 113.71 85.1199C109.58 82.8399 104.6 82.6799 99.8504 82.8199C97.1604 82.8999 94.4503 83.0499 91.8803 83.8299C91.5903 83.9199 91.3104 84.0099 91.0304 84.1199L91.0404 84.1099Z" fill="#FFEEA6"/>
</g>
</g>
<defs>
<clipPath id="clip0_376_84355">
<rect width="250" height="240" fill="white"/>
</clipPath>
<clipPath id="clip1_376_84355">
<rect width="224.92" height="208.1" fill="white" transform="translate(13 32)"/>
</clipPath>
</defs>
</svg>
