<svg width="100%" height="100%" viewBox="0 0 226 209" fill="none" xmlns="http://www.w3.org/2000/svg">
<g clip-path="url(#clip0_113_24987)">
<path d="M218.984 87.35H214.104C211.174 66.63 201.884 47.96 188.284 33.35C190.694 23.75 196.054 21.63 196.054 21.63C200.324 19.62 199.824 15.86 199.824 15.86C199.324 11.84 193.044 9.58 193.044 9.58C181.444 6.76 171.824 11.93 166.614 15.77C151.554 6.71 133.934 1.5 115.094 1.5C63.3839 1.5 20.8339 40.76 15.6339 91.1C14.4239 91.74 13.0439 92.06 11.7139 91.76C9.86387 91.34 8.29387 89.49 8.63387 87.62C8.92387 85.97 10.4339 84.87 11.7539 83.83C13.0739 82.79 14.4139 81.35 14.1639 79.69C13.9039 78.02 12.0039 76.99 10.3239 77.21C8.64387 77.43 7.24387 78.57 6.13387 79.84C1.80387 84.84 -0.0761337 95.04 6.86387 98.72C8.62387 99.65 10.6139 100.07 12.5939 100.29C13.4339 100.38 14.3239 100.42 15.1039 100.11C15.1039 100.57 15.0839 101.04 15.0839 101.5C15.0839 140.98 37.9639 175.12 71.1939 191.37C71.1439 191.46 71.0839 191.54 71.0539 191.63L66.6739 201.6C65.5939 204.05 67.9439 206.6 71.2839 206.6H80.7139C82.7139 206.6 84.5039 205.65 85.2439 204.21L88.4539 197.91C96.9339 200.25 105.874 201.5 115.094 201.5C124.314 201.5 133.254 200.24 141.734 197.91L144.944 204.21C145.674 205.65 147.474 206.6 149.474 206.6H158.904C162.244 206.6 164.594 204.05 163.514 201.6L159.134 191.63C159.094 191.54 159.034 191.46 158.994 191.37C186.024 178.15 206.204 153.09 212.794 122.95H218.994C221.864 122.95 224.214 120.6 224.214 117.73V92.57C224.214 89.7 221.864 87.35 218.994 87.35H218.984Z" fill="#FFF3C0"/>
<path d="M158.903 208.1H149.473C146.903 208.1 144.603 206.84 143.603 204.89L140.953 199.67C124.123 204.09 106.063 204.09 89.2431 199.67L86.5931 204.89C85.6031 206.84 83.3031 208.1 80.7231 208.1H71.2931C68.9431 208.1 66.8031 207.04 65.6931 205.34C64.8231 204.01 64.6831 202.42 65.3131 200.99L69.2331 192.06C52.9831 183.82 39.2431 171.36 29.4231 155.95C19.1331 139.79 13.6631 121.09 13.5931 101.85C13.1931 101.85 12.8031 101.82 12.4331 101.78C9.85309 101.5 7.86309 100.95 6.16309 100.05C3.38309 98.58 1.59309 96.09 0.993089 92.85C0.143089 88.33 1.79309 82.58 5.00309 78.87C6.60309 77.02 8.33309 75.96 10.1331 75.73C12.4631 75.42 15.2431 76.86 15.6431 79.47C15.9331 81.37 14.9331 83.23 12.6831 85.02L12.4531 85.2C11.3931 86.04 10.2931 86.9 10.1131 87.89C9.94309 88.87 10.8831 90.04 12.0531 90.3C12.8431 90.48 13.6131 90.33 14.2431 90.09C16.9831 65.59 28.5731 42.96 46.9231 26.31C65.6131 9.34 89.8231 0 115.093 0C133.223 0 150.983 4.83 166.523 13.98C171.783 10.3 181.623 5.27 193.383 8.13L193.533 8.18C194.263 8.44 200.693 10.89 201.293 15.68C201.323 15.87 201.883 20.55 196.673 23C196.423 23.11 192.163 24.99 189.923 32.95C203.533 47.8 212.313 66.05 215.373 85.86H218.963C222.673 85.86 225.683 88.87 225.683 92.58V117.74C225.683 121.45 222.673 124.46 218.963 124.46H213.963C207.253 153.45 187.553 178.56 160.943 192.07L164.863 201C165.493 202.43 165.353 204.02 164.483 205.35C163.373 207.05 161.223 208.11 158.883 208.11L158.903 208.1ZM142.523 196.13L146.283 203.52C146.763 204.46 148.043 205.09 149.473 205.09H158.903C160.223 205.09 161.443 204.54 161.993 203.69C162.313 203.2 162.363 202.7 162.133 202.19L157.673 192.09L156.903 190.71L158.323 190.01C185.143 176.89 204.953 151.69 211.313 122.62L211.573 121.44H218.983C221.033 121.44 222.703 119.77 222.703 117.72V92.56C222.703 90.51 221.033 88.84 218.983 88.84H212.793L212.613 87.55C209.783 67.58 200.993 49.19 187.183 34.37L186.623 33.77L186.823 32.98C189.393 22.75 195.243 20.33 195.493 20.23C198.523 18.8 198.353 16.31 198.323 16.03C198.013 13.54 194.153 11.59 192.593 11.01C181.423 8.33 172.073 13.59 167.483 16.97L166.673 17.56L165.813 17.04C150.543 7.84 133.003 2.98 115.083 2.98C90.5631 2.98 67.0631 12.05 48.9131 28.51C30.8931 44.86 19.6031 67.14 17.1131 91.23L17.0331 92.02L16.3231 92.4C14.6731 93.28 12.9531 93.56 11.3731 93.2C8.62309 92.58 6.68309 89.9 7.14309 87.33C7.52309 85.21 9.22309 83.87 10.5831 82.8L10.8131 82.62C11.7331 81.89 12.8131 80.82 12.6631 79.88C12.5431 79.14 11.4731 78.53 10.5031 78.66C9.45309 78.79 8.36309 79.51 7.26309 80.79C4.65309 83.81 3.25309 88.63 3.93309 92.25C4.37309 94.59 5.59309 96.31 7.56309 97.36C8.91309 98.08 10.5631 98.52 12.7531 98.76C13.3631 98.83 14.0631 98.87 14.5531 98.68L16.6331 97.86L16.5931 100.57C16.5931 100.87 16.5931 101.17 16.5931 101.47C16.5931 120.26 21.9031 138.54 31.9531 154.31C41.7331 169.67 55.5331 182.01 71.8631 190L73.2731 190.69L72.4331 192.22L68.0531 202.18C67.8331 202.69 67.8831 203.19 68.1931 203.68C68.7431 204.53 69.9631 205.08 71.2831 205.08H80.7131C82.1431 205.08 83.4231 204.45 83.9031 203.51L87.6631 196.12L88.8431 196.45C105.883 201.15 124.283 201.15 141.333 196.45L142.513 196.12L142.523 196.13Z" fill="#FFEEA6"/>
<path d="M115.094 191.26C164.667 191.26 204.854 151.073 204.854 101.5C204.854 51.9272 164.667 11.7402 115.094 11.7402C65.5209 11.7402 25.334 51.9272 25.334 101.5C25.334 151.073 65.5209 191.26 115.094 191.26Z" fill="#FFFAE6"/>
<path d="M72.4333 167.07C82.5511 167.07 90.7533 159.445 90.7533 150.04C90.7533 140.634 82.5511 133.01 72.4333 133.01C62.3154 133.01 54.1133 140.634 54.1133 150.04C54.1133 159.445 62.3154 167.07 72.4333 167.07Z" fill="#FFDA40"/>
<path d="M72.433 163.42C80.3804 163.42 86.823 157.429 86.823 150.04C86.823 142.65 80.3804 136.66 72.433 136.66C64.4856 136.66 58.043 142.65 58.043 150.04C58.043 157.429 64.4856 163.42 72.433 163.42Z" fill="#FFEEA6"/>
<path d="M158.393 167.15C158.653 170.67 158.583 172.71 158.493 173.73C158.433 174.37 158.203 174.98 157.813 175.49C156.523 177.17 153.963 178.94 153.963 178.94C153.963 178.94 144.863 185.6 127.523 183.63C118.003 182.55 113.243 178.53 111.753 177.04C111.373 176.66 111.153 176.17 111.113 175.64C110.923 173.13 111.213 167.65 111.213 167.65L158.383 167.15H158.393Z" fill="#FFC52F"/>
<path d="M118.153 159.61C116.433 160.25 114.803 161.14 113.523 162.42C111.903 164.03 110.903 166.35 111.313 168.58C111.803 171.23 114.103 173.19 116.513 174.48C121.813 177.33 128.073 177.96 134.113 177.74C140.353 177.5 146.633 176.38 152.223 173.66C155.603 172.02 160.213 168.55 157.653 164.37C156.803 162.99 155.423 162 153.983 161.21C147.453 157.59 139.583 157.35 132.093 157.56C127.853 157.68 123.563 157.93 119.503 159.16C119.053 159.3 118.603 159.45 118.153 159.61Z" fill="#FFDA40"/>
<path d="M120.932 160.95C119.502 161.49 118.142 162.22 117.072 163.29C115.722 164.63 114.892 166.56 115.232 168.41C115.642 170.61 117.562 172.24 119.562 173.31C123.972 175.68 129.192 176.21 134.222 176.02C139.412 175.82 144.652 174.89 149.312 172.63C152.122 171.26 155.972 168.38 153.832 164.91C153.122 163.76 151.972 162.94 150.782 162.28C145.342 159.27 138.792 159.07 132.552 159.25C129.022 159.35 125.442 159.56 122.062 160.58C121.682 160.69 121.312 160.82 120.942 160.96L120.932 160.95Z" fill="#FFEEA6"/>
<path d="M164.862 159.48C165.122 163 165.052 165.04 164.962 166.06C164.902 166.7 164.672 167.31 164.282 167.82C162.992 169.5 160.432 171.27 160.432 171.27C160.432 171.27 151.332 177.93 133.992 175.96C124.472 174.88 119.712 170.86 118.222 169.37C117.842 168.99 117.622 168.5 117.582 167.97C117.392 165.46 117.682 159.98 117.682 159.98L164.852 159.48H164.862Z" fill="#FFC52F"/>
<path d="M124.631 151.95C122.911 152.59 121.281 153.48 120.001 154.76C118.381 156.37 117.381 158.69 117.791 160.92C118.281 163.57 120.581 165.53 122.991 166.82C128.291 169.67 134.551 170.3 140.591 170.08C146.831 169.84 153.111 168.72 158.701 166C162.081 164.36 166.691 160.89 164.131 156.71C163.281 155.33 161.901 154.34 160.461 153.55C153.931 149.93 146.061 149.69 138.571 149.9C134.331 150.02 130.041 150.27 125.981 151.5C125.531 151.64 125.081 151.79 124.631 151.95Z" fill="#FFDA40"/>
<path d="M127.413 153.28C125.983 153.82 124.623 154.55 123.553 155.62C122.203 156.96 121.373 158.89 121.713 160.74C122.123 162.94 124.043 164.57 126.043 165.64C130.453 168.01 135.673 168.54 140.703 168.35C145.893 168.15 151.133 167.22 155.793 164.96C158.603 163.59 162.453 160.71 160.313 157.24C159.603 156.09 158.453 155.27 157.263 154.61C151.823 151.6 145.273 151.4 139.033 151.58C135.503 151.68 131.923 151.89 128.543 152.91C128.163 153.02 127.793 153.15 127.423 153.29L127.413 153.28Z" fill="#FFEEA6"/>
<path d="M162.503 150.3C162.763 153.82 162.693 155.86 162.603 156.88C162.543 157.52 162.313 158.13 161.923 158.64C160.633 160.32 158.073 162.09 158.073 162.09C158.073 162.09 148.973 168.75 131.633 166.78C122.113 165.7 117.353 161.68 115.863 160.19C115.483 159.81 115.263 159.32 115.223 158.79C115.033 156.28 115.323 150.8 115.323 150.8L162.493 150.3H162.503Z" fill="#FFC52F"/>
<path d="M122.262 142.76C120.542 143.4 118.912 144.29 117.632 145.57C116.012 147.18 115.012 149.5 115.422 151.73C115.912 154.38 118.212 156.34 120.622 157.63C125.922 160.48 132.182 161.11 138.222 160.89C144.462 160.65 150.742 159.53 156.332 156.81C159.712 155.17 164.322 151.7 161.762 147.52C160.912 146.14 159.532 145.15 158.092 144.36C151.562 140.74 143.692 140.5 136.202 140.71C131.962 140.83 127.672 141.08 123.612 142.31C123.162 142.45 122.712 142.6 122.262 142.76Z" fill="#FFDA40"/>
<path d="M125.054 144.1C123.624 144.64 122.264 145.37 121.194 146.44C119.844 147.78 119.014 149.71 119.354 151.56C119.764 153.76 121.684 155.39 123.684 156.46C128.094 158.83 133.314 159.36 138.344 159.17C143.534 158.97 148.774 158.04 153.434 155.78C156.244 154.41 160.094 151.53 157.954 148.06C157.244 146.91 156.094 146.09 154.904 145.43C149.464 142.42 142.914 142.22 136.674 142.4C133.144 142.5 129.564 142.71 126.184 143.73C125.804 143.84 125.434 143.97 125.064 144.11L125.054 144.1Z" fill="#FFEEA6"/>
<path d="M117.534 170.38C117.784 173.74 117.714 175.7 117.634 176.67C117.584 177.28 117.364 177.86 116.984 178.35C115.754 179.96 113.304 181.65 113.304 181.65C113.304 181.65 104.604 188.02 88.0238 186.13C78.9138 185.09 74.3738 181.26 72.9438 179.83C72.5838 179.47 72.3738 179 72.3338 178.49C72.1538 176.09 72.4338 170.85 72.4338 170.85L117.534 170.38Z" fill="#FFC52F"/>
<path d="M79.0631 163.17C77.4231 163.79 75.8631 164.63 74.6331 165.86C73.0831 167.4 72.1331 169.62 72.5231 171.75C72.9931 174.28 75.1931 176.15 77.4931 177.39C82.5631 180.12 88.5431 180.72 94.3231 180.5C100.283 180.27 106.293 179.2 111.643 176.6C114.873 175.03 119.283 171.71 116.833 167.72C116.023 166.4 114.703 165.45 113.333 164.7C107.093 161.24 99.5631 161.01 92.4031 161.21C88.3431 161.33 84.2431 161.57 80.3631 162.74C79.9331 162.87 79.5031 163.01 79.0731 163.17H79.0631Z" fill="#FFDA40"/>
<path d="M81.7236 164.45C80.3536 164.96 79.0536 165.67 78.0336 166.68C76.7436 167.96 75.9436 169.81 76.2736 171.58C76.6636 173.68 78.5036 175.24 80.4136 176.27C84.6336 178.54 89.6236 179.04 94.4236 178.86C99.3936 178.67 104.394 177.78 108.854 175.62C111.544 174.31 115.214 171.56 113.174 168.24C112.494 167.14 111.394 166.36 110.254 165.73C105.054 162.86 98.7836 162.66 92.8136 162.83C89.4336 162.93 86.0136 163.13 82.7836 164.1C82.4236 164.21 82.0636 164.33 81.7136 164.46L81.7236 164.45Z" fill="#FFEEA6"/>
<path d="M108.564 162.89C108.814 166.17 108.744 168.08 108.654 169.03C108.604 169.63 108.384 170.19 108.024 170.67C106.824 172.24 104.434 173.89 104.434 173.89C104.434 173.89 95.9537 180.11 79.7737 178.26C70.8937 177.25 66.4637 173.51 65.0637 172.11C64.7137 171.76 64.5037 171.3 64.4737 170.8C64.3037 168.46 64.5637 163.35 64.5637 163.35L108.564 162.89Z" fill="#FFC52F"/>
<path d="M71.0334 155.86C69.4334 156.46 67.9134 157.29 66.7134 158.48C65.2034 159.98 64.2734 162.15 64.6534 164.23C65.1134 166.7 67.2634 168.53 69.5034 169.73C74.4434 172.39 80.2834 172.98 85.9134 172.77C91.7334 172.55 97.5934 171.5 102.803 168.96C105.953 167.43 110.253 164.19 107.863 160.29C107.073 159 105.783 158.08 104.443 157.34C98.3534 153.97 91.0134 153.74 84.0234 153.94C80.0634 154.05 76.0634 154.29 72.2834 155.43C71.8634 155.56 71.4434 155.7 71.0234 155.85L71.0334 155.86Z" fill="#FFDA40"/>
<path d="M73.6344 157.11C72.2944 157.61 71.0344 158.3 70.0344 159.29C68.7744 160.54 68.0044 162.34 68.3244 164.07C68.7044 166.12 70.4944 167.64 72.3644 168.64C76.4844 170.85 81.3444 171.34 86.0344 171.16C90.8844 170.98 95.7644 170.11 100.104 168C102.734 166.73 106.314 164.04 104.324 160.8C103.664 159.73 102.594 158.96 101.474 158.35C96.4044 155.55 90.2944 155.36 84.4644 155.52C81.1644 155.61 77.8344 155.81 74.6844 156.76C74.3344 156.87 73.9844 156.98 73.6344 157.11Z" fill="#FFEEA6"/>
<path d="M114.063 155.28C114.313 158.64 114.243 160.6 114.163 161.57C114.113 162.18 113.893 162.76 113.513 163.25C112.283 164.86 109.833 166.55 109.833 166.55C109.833 166.55 101.133 172.92 84.5531 171.03C75.4431 169.99 70.9031 166.16 69.4731 164.73C69.1131 164.37 68.9031 163.9 68.8631 163.39C68.6831 160.99 68.9631 155.75 68.9631 155.75L114.063 155.28Z" fill="#FFC52F"/>
<path d="M75.5826 148.07C73.9426 148.69 72.3826 149.53 71.1526 150.76C69.6026 152.3 68.6526 154.52 69.0426 156.65C69.5126 159.18 71.7126 161.05 74.0126 162.29C79.0826 165.02 85.0626 165.62 90.8426 165.4C96.8026 165.17 102.813 164.1 108.163 161.5C111.393 159.93 115.803 156.61 113.353 152.62C112.543 151.3 111.223 150.35 109.853 149.6C103.613 146.14 96.0826 145.91 88.9226 146.11C84.8626 146.23 80.7626 146.47 76.8826 147.64C76.4526 147.77 76.0226 147.91 75.5926 148.07H75.5826Z" fill="#FFDA40"/>
<path d="M78.2432 149.35C76.8732 149.86 75.5732 150.57 74.5532 151.58C73.2632 152.86 72.4632 154.71 72.7932 156.48C73.1832 158.58 75.0232 160.14 76.9332 161.17C81.1532 163.44 86.1432 163.94 90.9432 163.76C95.9132 163.57 100.913 162.68 105.373 160.52C108.063 159.21 111.733 156.46 109.693 153.14C109.013 152.04 107.913 151.26 106.773 150.63C101.573 147.76 95.3032 147.56 89.3332 147.73C85.9532 147.83 82.5332 148.03 79.3032 149C78.9432 149.11 78.5832 149.23 78.2332 149.36L78.2432 149.35Z" fill="#FFEEA6"/>
<path d="M180.942 157.08C179.262 160.15 177.152 162.53 177.152 162.53C175.252 164.67 172.542 166.14 169.702 166.46C167.102 166.76 164.462 166.3 162.012 165.43C160.862 165.02 159.752 164.53 158.702 163.92C156.392 162.59 154.362 160.8 152.792 158.64C149.992 154.81 148.232 149.51 150.472 145C151.292 143.35 152.252 141.76 153.342 140.28L180.952 157.07L180.942 157.08Z" fill="#FFC52F"/>
<path d="M180.947 157.095C184.644 151.017 181.459 142.331 173.834 137.693C166.209 133.055 157.031 134.221 153.334 140.299C149.637 146.376 152.822 155.063 160.447 159.701C168.072 164.339 177.251 163.172 180.947 157.095Z" fill="#FFDA40"/>
<path d="M177.478 154.985C180.247 150.432 177.864 143.925 172.155 140.453C166.445 136.98 159.572 137.856 156.802 142.409C154.032 146.963 156.416 153.469 162.125 156.942C167.834 160.415 174.708 159.539 177.478 154.985Z" fill="#FFEEA6"/>
</g>
<defs>
<clipPath id="clip0_113_24987">
<rect width="224.92" height="208.1" fill="white" transform="translate(0.773438)"/>
</clipPath>
</defs>
</svg>
