<svg width="250" height="240" viewBox="0 0 250 240" fill="none" xmlns="http://www.w3.org/2000/svg">
<g clip-path="url(#clip0_376_84360)">
<g clip-path="url(#clip1_376_84360)">
<path d="M231.21 119.35H226.33C223.4 98.63 214.11 79.96 200.51 65.35C202.92 55.75 208.28 53.63 208.28 53.63C212.55 51.62 212.05 47.86 212.05 47.86C211.55 43.84 205.27 41.58 205.27 41.58C193.67 38.76 184.05 43.93 178.84 47.77C163.78 38.71 146.16 33.5 127.32 33.5C75.6099 33.5 33.0599 72.76 27.8599 123.1C26.6499 123.74 25.2699 124.06 23.9399 123.76C22.0899 123.34 20.5199 121.49 20.8599 119.62C21.1499 117.97 22.6599 116.87 23.9799 115.83C25.2999 114.79 26.6399 113.35 26.3899 111.69C26.1299 110.02 24.2299 108.99 22.5499 109.21C20.8699 109.43 19.4699 110.57 18.3599 111.84C14.0299 116.84 12.1499 127.04 19.0899 130.72C20.8499 131.65 22.8399 132.07 24.8199 132.29C25.6599 132.38 26.5499 132.42 27.3299 132.11C27.3299 132.57 27.3099 133.04 27.3099 133.5C27.3099 172.98 50.1899 207.12 83.4199 223.37C83.3699 223.46 83.3099 223.54 83.2799 223.63L78.8999 233.6C77.8199 236.05 80.1699 238.6 83.5099 238.6H92.9399C94.9399 238.6 96.7299 237.65 97.4699 236.21L100.68 229.91C109.16 232.25 118.1 233.5 127.32 233.5C136.54 233.5 145.48 232.24 153.96 229.91L157.17 236.21C157.9 237.65 159.7 238.6 161.7 238.6H171.13C174.47 238.6 176.82 236.05 175.74 233.6L171.36 223.63C171.32 223.54 171.26 223.46 171.22 223.37C198.25 210.15 218.43 185.09 225.02 154.95H231.22C234.09 154.95 236.44 152.6 236.44 149.73V124.57C236.44 121.7 234.09 119.35 231.22 119.35H231.21Z" fill="#FFF3C0"/>
<path d="M171.13 240.1H161.7C159.13 240.1 156.83 238.84 155.83 236.89L153.18 231.67C136.35 236.09 118.29 236.09 101.47 231.67L98.8199 236.89C97.8299 238.84 95.5299 240.1 92.9499 240.1H83.5199C81.1699 240.1 79.0299 239.04 77.9199 237.34C77.0499 236.01 76.9099 234.42 77.5399 232.99L81.4599 224.06C65.2099 215.82 51.4699 203.36 41.6499 187.95C31.3599 171.79 25.8899 153.09 25.8199 133.85C25.4199 133.85 25.0299 133.82 24.6599 133.78C22.0799 133.5 20.0899 132.95 18.3899 132.05C15.6099 130.58 13.8199 128.09 13.2199 124.85C12.3699 120.33 14.0199 114.58 17.2299 110.87C18.8299 109.02 20.5599 107.96 22.3599 107.73C24.6899 107.42 27.4699 108.86 27.8699 111.47C28.1599 113.37 27.1599 115.23 24.9099 117.02L24.6799 117.2C23.6199 118.04 22.5199 118.9 22.3399 119.89C22.1699 120.87 23.1099 122.04 24.2799 122.3C25.0699 122.48 25.8399 122.33 26.4699 122.09C29.2099 97.59 40.7999 74.96 59.1499 58.31C77.8399 41.34 102.05 32 127.32 32C145.45 32 163.21 36.83 178.75 45.98C184.01 42.3 193.85 37.27 205.61 40.13L205.76 40.18C206.49 40.44 212.92 42.89 213.52 47.68C213.55 47.87 214.11 52.55 208.9 55C208.65 55.11 204.39 56.99 202.15 64.95C215.76 79.8 224.54 98.05 227.6 117.86H231.19C234.9 117.86 237.91 120.87 237.91 124.58V149.74C237.91 153.45 234.9 156.46 231.19 156.46H226.19C219.48 185.45 199.78 210.56 173.17 224.07L177.09 233C177.72 234.43 177.58 236.02 176.71 237.35C175.6 239.05 173.45 240.11 171.11 240.11L171.13 240.1ZM154.75 228.13L158.51 235.52C158.99 236.46 160.27 237.09 161.7 237.09H171.13C172.45 237.09 173.67 236.54 174.22 235.69C174.54 235.2 174.59 234.7 174.36 234.19L169.9 224.09L169.13 222.71L170.55 222.01C197.37 208.89 217.18 183.69 223.54 154.62L223.8 153.44H231.2C233.25 153.44 234.92 151.77 234.92 149.72V124.56C234.92 122.51 233.25 120.84 231.2 120.84H225.01L224.83 119.55C222 99.58 213.21 81.19 199.4 66.37L198.84 65.77L199.04 64.98C201.61 54.75 207.46 52.33 207.71 52.23C210.74 50.8 210.57 48.31 210.54 48.03C210.23 45.54 206.37 43.59 204.81 43.01C193.64 40.33 184.29 45.59 179.7 48.97L178.89 49.56L178.03 49.04C162.76 39.84 145.22 34.98 127.3 34.98C102.78 34.98 79.2799 44.05 61.1299 60.51C43.1099 76.86 31.8199 99.14 29.3299 123.23L29.2499 124.02L28.5399 124.4C26.8899 125.28 25.1699 125.56 23.5899 125.2C20.8399 124.58 18.8999 121.9 19.3599 119.33C19.7399 117.21 21.4399 115.87 22.7999 114.8L23.0299 114.62C23.9499 113.89 25.0299 112.82 24.8799 111.88C24.7599 111.14 23.6899 110.53 22.7199 110.66C21.6699 110.79 20.5799 111.51 19.4799 112.79C16.8699 115.81 15.4699 120.63 16.1499 124.25C16.5899 126.59 17.8099 128.31 19.7799 129.36C21.1299 130.08 22.7799 130.52 24.9699 130.76C25.5799 130.83 26.2799 130.87 26.7699 130.68L28.8499 129.86L28.8099 132.57C28.8099 132.87 28.8099 133.17 28.8099 133.47C28.8099 152.26 34.1199 170.54 44.1699 186.31C53.9499 201.67 67.7499 214.01 84.0799 222L85.4999 222.7L84.6499 224.22L80.2699 234.18C80.0499 234.69 80.0999 235.19 80.4099 235.68C80.9599 236.53 82.1799 237.08 83.4999 237.08H92.9299C94.3599 237.08 95.6399 236.45 96.1199 235.51L99.8799 228.12L101.06 228.45C118.1 233.15 136.5 233.15 153.55 228.45L154.73 228.12L154.75 228.13Z" fill="#FFEEA6"/>
<path d="M127.32 223.26C176.893 223.26 217.08 183.073 217.08 133.5C217.08 83.9272 176.893 43.7402 127.32 43.7402C77.747 43.7402 37.5601 83.9272 37.5601 133.5C37.5601 183.073 77.747 223.26 127.32 223.26Z" fill="#FFFAE6"/>
<path d="M170.62 199.15C170.88 202.67 170.81 204.71 170.72 205.73C170.66 206.37 170.43 206.98 170.04 207.49C168.75 209.17 166.19 210.94 166.19 210.94C166.19 210.94 157.09 217.6 139.75 215.63C130.23 214.55 125.47 210.53 123.98 209.04C123.6 208.66 123.38 208.17 123.34 207.64C123.15 205.13 123.44 199.65 123.44 199.65L170.61 199.15H170.62Z" fill="#FFC52F"/>
<path d="M130.38 191.61C128.66 192.25 127.03 193.14 125.75 194.42C124.13 196.03 123.13 198.35 123.54 200.58C124.03 203.23 126.33 205.19 128.74 206.48C134.04 209.33 140.3 209.96 146.34 209.74C152.58 209.5 158.86 208.38 164.45 205.66C167.83 204.02 172.44 200.55 169.88 196.37C169.03 194.99 167.65 194 166.21 193.21C159.68 189.59 151.81 189.35 144.32 189.56C140.08 189.68 135.79 189.93 131.73 191.16C131.28 191.3 130.83 191.45 130.38 191.61V191.61Z" fill="#FFDA40"/>
<path d="M133.16 192.95C131.73 193.49 130.37 194.22 129.3 195.29C127.95 196.63 127.12 198.56 127.46 200.41C127.87 202.61 129.79 204.24 131.79 205.31C136.2 207.68 141.42 208.21 146.45 208.02C151.64 207.82 156.88 206.89 161.54 204.63C164.35 203.26 168.2 200.38 166.06 196.91C165.35 195.76 164.2 194.94 163.01 194.28C157.57 191.27 151.02 191.07 144.78 191.25C141.25 191.35 137.67 191.56 134.29 192.58C133.91 192.69 133.54 192.82 133.17 192.96L133.16 192.95Z" fill="#FFEEA6"/>
<path d="M181.2 193.682C181.46 197.092 181.38 199.082 181.3 200.062C181.25 200.682 181.02 201.272 180.64 201.762C179.39 203.392 176.91 205.112 176.91 205.112C176.91 205.112 168.09 211.572 151.26 209.662C142.02 208.612 137.41 204.722 135.96 203.272C135.59 202.902 135.38 202.432 135.34 201.912C135.16 199.482 135.44 194.162 135.44 194.162L181.2 193.682Z" fill="#FFC52F"/>
<path d="M142.17 186.371C140.5 187.001 138.92 187.851 137.67 189.101C136.1 190.661 135.13 192.921 135.53 195.081C136 197.651 138.24 199.551 140.57 200.801C145.71 203.571 151.78 204.181 157.64 203.961C163.69 203.731 169.79 202.641 175.21 200.001C178.49 198.411 182.96 195.041 180.47 190.991C179.65 189.651 178.3 188.691 176.91 187.921C170.58 184.411 162.94 184.171 155.67 184.381C151.55 184.501 147.39 184.741 143.46 185.931C143.02 186.061 142.58 186.211 142.15 186.371H142.17Z" fill="#FFDA40"/>
<path d="M144.87 187.671C143.48 188.191 142.16 188.901 141.13 189.941C139.82 191.241 139.01 193.111 139.35 194.911C139.75 197.041 141.61 198.621 143.55 199.671C147.83 201.971 152.89 202.481 157.77 202.301C162.81 202.111 167.89 201.201 172.41 199.011C175.14 197.681 178.87 194.891 176.79 191.521C176.1 190.401 174.99 189.611 173.83 188.971C168.55 186.051 162.2 185.861 156.14 186.031C152.71 186.131 149.24 186.331 145.97 187.321C145.6 187.431 145.24 187.551 144.88 187.691L144.87 187.671Z" fill="#FFEEA6"/>
<path d="M129.76 202.379C130.01 205.739 129.94 207.699 129.86 208.669C129.81 209.279 129.59 209.859 129.21 210.349C127.98 211.959 125.53 213.649 125.53 213.649C125.53 213.649 116.83 220.019 100.25 218.129C91.1399 217.089 86.5999 213.259 85.1699 211.829C84.8099 211.469 84.5999 210.999 84.5599 210.489C84.3799 208.089 84.6599 202.849 84.6599 202.849L129.76 202.379V202.379Z" fill="#FFC52F"/>
<path d="M91.2897 195.17C89.6497 195.79 88.0897 196.63 86.8597 197.86C85.3097 199.4 84.3597 201.62 84.7497 203.75C85.2197 206.28 87.4197 208.15 89.7197 209.39C94.7897 212.12 100.77 212.72 106.55 212.5C112.51 212.27 118.52 211.2 123.87 208.6C127.1 207.03 131.51 203.71 129.06 199.72C128.25 198.4 126.93 197.45 125.56 196.7C119.32 193.24 111.79 193.01 104.63 193.21C100.57 193.33 96.4697 193.57 92.5897 194.74C92.1597 194.87 91.7297 195.01 91.2997 195.17H91.2897Z" fill="#FFDA40"/>
<path d="M93.9497 196.449C92.5797 196.959 91.2797 197.669 90.2597 198.679C88.9697 199.959 88.1697 201.809 88.4997 203.579C88.8897 205.679 90.7297 207.239 92.6397 208.269C96.8597 210.539 101.85 211.039 106.65 210.859C111.62 210.669 116.62 209.779 121.08 207.619C123.77 206.309 127.44 203.559 125.4 200.239C124.72 199.139 123.62 198.359 122.48 197.729C117.28 194.859 111.01 194.659 105.04 194.829C101.66 194.929 98.2397 195.129 95.0097 196.099C94.6497 196.209 94.2897 196.329 93.9397 196.459L93.9497 196.449Z" fill="#FFEEA6"/>
<path d="M120.79 194.891C121.04 198.171 120.97 200.081 120.88 201.031C120.83 201.631 120.61 202.191 120.25 202.671C119.05 204.241 116.66 205.891 116.66 205.891C116.66 205.891 108.18 212.111 91.9998 210.261C83.1198 209.251 78.6898 205.511 77.2898 204.111C76.9398 203.761 76.7298 203.301 76.6998 202.801C76.5298 200.461 76.7898 195.351 76.7898 195.351L120.79 194.891V194.891Z" fill="#FFC52F"/>
<path d="M83.26 187.861C81.66 188.461 80.14 189.291 78.94 190.481C77.43 191.981 76.5 194.151 76.88 196.231C77.34 198.701 79.49 200.531 81.73 201.731C86.67 204.391 92.51 204.981 98.14 204.771C103.96 204.551 109.82 203.501 115.03 200.961C118.18 199.431 122.48 196.191 120.09 192.291C119.3 191.001 118.01 190.081 116.67 189.341C110.58 185.971 103.24 185.741 96.25 185.941C92.29 186.051 88.29 186.291 84.51 187.431C84.09 187.561 83.67 187.701 83.25 187.851L83.26 187.861Z" fill="#FFDA40"/>
<path d="M85.8595 189.111C84.5195 189.611 83.2595 190.301 82.2595 191.291C80.9995 192.541 80.2295 194.341 80.5495 196.071C80.9295 198.121 82.7195 199.641 84.5895 200.641C88.7095 202.851 93.5695 203.341 98.2595 203.161C103.11 202.981 107.99 202.111 112.33 200.001C114.96 198.731 118.54 196.041 116.55 192.801C115.89 191.731 114.82 190.961 113.7 190.351C108.63 187.551 102.52 187.361 96.6895 187.521C93.3895 187.611 90.0595 187.811 86.9095 188.761C86.5595 188.871 86.2095 188.981 85.8595 189.111V189.111Z" fill="#FFEEA6"/>
<path d="M133.27 193.861C131.59 196.931 129.48 199.311 129.48 199.311C127.58 201.451 124.87 202.921 122.03 203.241C119.43 203.541 116.79 203.081 114.34 202.211C113.19 201.801 112.08 201.311 111.03 200.701C108.72 199.371 106.69 197.581 105.12 195.421C102.32 191.591 100.56 186.291 102.8 181.781C103.62 180.131 104.58 178.541 105.67 177.061L133.28 193.851L133.27 193.861Z" fill="#FFC52F"/>
<path d="M133.277 193.862C136.973 187.784 133.789 179.098 126.163 174.46C118.538 169.822 109.36 170.989 105.664 177.066C101.967 183.144 105.152 191.83 112.777 196.468C120.402 201.106 129.58 199.939 133.277 193.862Z" fill="#FFDA40"/>
<path d="M129.808 191.753C132.578 187.2 130.195 180.693 124.485 177.221C118.776 173.748 111.902 174.624 109.132 179.177C106.363 183.731 108.746 190.237 114.456 193.71C120.165 197.183 127.039 196.307 129.808 191.753Z" fill="#FFEEA6"/>
</g>
</g>
<defs>
<clipPath id="clip0_376_84360">
<rect width="250" height="240" fill="white"/>
</clipPath>
<clipPath id="clip1_376_84360">
<rect width="224.92" height="208.1" fill="white" transform="translate(13 32)"/>
</clipPath>
</defs>
</svg>
