<svg width="250" height="240" viewBox="0 0 250 240" fill="none" xmlns="http://www.w3.org/2000/svg">
<g clip-path="url(#clip0_376_84361)">
<g clip-path="url(#clip1_376_84361)">
<path d="M231.21 119.35H226.33C223.4 98.63 214.11 79.96 200.51 65.35C202.92 55.75 208.28 53.63 208.28 53.63C212.55 51.62 212.05 47.86 212.05 47.86C211.55 43.84 205.27 41.58 205.27 41.58C193.67 38.76 184.05 43.93 178.84 47.77C163.78 38.71 146.16 33.5 127.32 33.5C75.6099 33.5 33.0599 72.76 27.8599 123.1C26.6499 123.74 25.2699 124.06 23.9399 123.76C22.0899 123.34 20.5199 121.49 20.8599 119.62C21.1499 117.97 22.6599 116.87 23.9799 115.83C25.2999 114.79 26.6399 113.35 26.3899 111.69C26.1299 110.02 24.2299 108.99 22.5499 109.21C20.8699 109.43 19.4699 110.57 18.3599 111.84C14.0299 116.84 12.1499 127.04 19.0899 130.72C20.8499 131.65 22.8399 132.07 24.8199 132.29C25.6599 132.38 26.5499 132.42 27.3299 132.11C27.3299 132.57 27.3099 133.04 27.3099 133.5C27.3099 172.98 50.1899 207.12 83.4199 223.37C83.3699 223.46 83.3099 223.54 83.2799 223.63L78.8999 233.6C77.8199 236.05 80.1699 238.6 83.5099 238.6H92.9399C94.9399 238.6 96.7299 237.65 97.4699 236.21L100.68 229.91C109.16 232.25 118.1 233.5 127.32 233.5C136.54 233.5 145.48 232.24 153.96 229.91L157.17 236.21C157.9 237.65 159.7 238.6 161.7 238.6H171.13C174.47 238.6 176.82 236.05 175.74 233.6L171.36 223.63C171.32 223.54 171.26 223.46 171.22 223.37C198.25 210.15 218.43 185.09 225.02 154.95H231.22C234.09 154.95 236.44 152.6 236.44 149.73V124.57C236.44 121.7 234.09 119.35 231.22 119.35H231.21Z" fill="#FFF3C0"/>
<path d="M171.13 240.1H161.7C159.13 240.1 156.83 238.84 155.83 236.89L153.18 231.67C136.35 236.09 118.3 236.09 101.47 231.67L98.8201 236.89C97.8301 238.84 95.5301 240.1 92.9501 240.1H83.5201C81.1701 240.1 79.0301 239.04 77.9201 237.34C77.0501 236.01 76.9101 234.42 77.5401 232.99L81.4601 224.06C65.2101 215.82 51.4701 203.36 41.6501 187.95C31.3601 171.79 25.8901 153.09 25.8201 133.85C25.4201 133.85 25.0301 133.82 24.6601 133.78C22.0801 133.5 20.0901 132.95 18.3901 132.05C15.6101 130.58 13.8201 128.09 13.2201 124.84C12.3701 120.32 14.0201 114.57 17.2301 110.86C18.8301 109.01 20.5601 107.95 22.3601 107.72C24.7101 107.41 27.4701 108.85 27.8701 111.47C28.1601 113.37 27.1601 115.23 24.9101 117.02L24.6801 117.2C23.6201 118.04 22.5201 118.9 22.3401 119.89C22.1701 120.87 23.1101 122.04 24.2801 122.31C25.0701 122.49 25.8401 122.34 26.4701 122.1C29.2101 97.6 40.8001 74.97 59.1501 58.32C77.8401 41.34 102.05 32 127.32 32C145.45 32 163.21 36.83 178.75 45.98C184.01 42.3 193.85 37.27 205.61 40.13L205.76 40.18C206.49 40.44 212.92 42.89 213.52 47.68C213.55 47.87 214.11 52.55 208.9 55C208.65 55.11 204.39 56.99 202.15 64.95C215.76 79.8 224.54 98.05 227.6 117.86H231.19C234.9 117.86 237.91 120.87 237.91 124.58V149.74C237.91 153.45 234.9 156.46 231.19 156.46H226.19C219.48 185.45 199.78 210.56 173.17 224.07L177.09 233C177.72 234.43 177.58 236.02 176.71 237.35C175.6 239.05 173.45 240.11 171.11 240.11L171.13 240.1ZM154.75 228.13L158.51 235.52C158.99 236.46 160.27 237.09 161.7 237.09H171.13C172.45 237.09 173.67 236.54 174.22 235.69C174.54 235.2 174.59 234.7 174.36 234.19L169.9 224.09L169.13 222.71L170.55 222.01C197.37 208.89 217.18 183.69 223.54 154.62L223.8 153.44H231.21C233.26 153.44 234.93 151.77 234.93 149.72V124.56C234.93 122.51 233.26 120.84 231.21 120.84H225.02L224.84 119.55C222.01 99.58 213.22 81.19 199.41 66.37L198.85 65.77L199.05 64.98C201.62 54.75 207.47 52.33 207.72 52.23C210.75 50.8 210.58 48.31 210.55 48.03C210.24 45.54 206.38 43.59 204.82 43.01C193.65 40.33 184.3 45.59 179.71 48.97L178.9 49.56L178.04 49.04C162.77 39.84 145.23 34.98 127.31 34.98C102.79 34.98 79.2901 44.05 61.1401 60.51C43.1201 76.86 31.8301 99.14 29.3401 123.23L29.2601 124.02L28.5501 124.4C26.9001 125.28 25.1801 125.56 23.6001 125.2C20.8501 124.58 18.9101 121.9 19.3701 119.33C19.7501 117.21 21.4401 115.88 22.8101 114.8L23.0401 114.62C23.9601 113.89 25.0401 112.82 24.8901 111.88C24.7801 111.14 23.7001 110.54 22.7301 110.66C21.6801 110.79 20.5901 111.51 19.4901 112.79C16.8801 115.81 15.4801 120.63 16.1601 124.25C16.6001 126.59 17.8201 128.31 19.7901 129.36C21.1401 130.08 22.7901 130.52 24.9801 130.76C25.5901 130.83 26.2901 130.87 26.7801 130.68L28.8601 129.86L28.8201 132.52C28.8201 132.84 28.8101 133.16 28.8101 133.48C28.8101 152.27 34.1201 170.55 44.1701 186.32C53.9501 201.68 67.7501 214.02 84.0801 222.01L85.4901 222.7L84.6501 224.23L80.2701 234.19C80.0501 234.7 80.1001 235.2 80.4101 235.69C80.9601 236.54 82.1801 237.09 83.5001 237.09H92.9301C94.3601 237.09 95.6401 236.46 96.1201 235.52L99.8801 228.13L101.06 228.46C118.11 233.16 136.5 233.16 153.55 228.46L154.73 228.13H154.75Z" fill="#FFEEA6"/>
<path d="M127.32 223.26C176.893 223.26 217.08 183.073 217.08 133.5C217.08 83.9272 176.893 43.7402 127.32 43.7402C77.747 43.7402 37.5601 83.9272 37.5601 133.5C37.5601 183.073 77.747 223.26 127.32 223.26Z" fill="#FFFAE6"/>
<path d="M172.85 188.17C183.968 188.17 192.98 179.789 192.98 169.45C192.98 159.112 183.968 150.73 172.85 150.73C161.733 150.73 152.72 159.112 152.72 169.45C152.72 179.789 161.733 188.17 172.85 188.17Z" fill="#FFDA40"/>
<path d="M172.85 184.15C181.582 184.15 188.66 177.569 188.66 169.45C188.66 161.331 181.582 154.75 172.85 154.75C164.118 154.75 157.04 161.331 157.04 169.45C157.04 177.569 164.118 184.15 172.85 184.15Z" fill="#FFEEA6"/>
<path d="M166.52 196.52C166.78 200.04 166.71 202.08 166.62 203.1C166.56 203.74 166.33 204.35 165.94 204.86C164.65 206.54 162.09 208.31 162.09 208.31C162.09 208.31 152.99 214.97 135.65 213C126.13 211.92 121.37 207.9 119.88 206.41C119.5 206.03 119.28 205.54 119.24 205.01C119.05 202.5 119.34 197.02 119.34 197.02L166.51 196.52H166.52Z" fill="#FFC52F"/>
<path d="M126.29 188.989C124.57 189.629 122.94 190.519 121.66 191.799C120.04 193.409 119.04 195.729 119.45 197.959C119.94 200.609 122.24 202.569 124.65 203.859C129.95 206.709 136.21 207.339 142.25 207.119C148.49 206.879 154.77 205.759 160.36 203.039C163.74 201.399 168.35 197.929 165.79 193.749C164.94 192.369 163.56 191.379 162.12 190.589C155.59 186.969 147.72 186.729 140.23 186.939C135.99 187.059 131.7 187.309 127.64 188.539C127.19 188.679 126.74 188.829 126.29 188.989V188.989Z" fill="#FFDA40"/>
<path d="M129.07 190.32C127.64 190.86 126.28 191.59 125.21 192.66C123.86 194 123.03 195.93 123.37 197.78C123.78 199.98 125.7 201.61 127.7 202.68C132.11 205.05 137.33 205.58 142.36 205.39C147.55 205.19 152.79 204.26 157.45 202C160.26 200.63 164.11 197.75 161.97 194.28C161.26 193.13 160.11 192.31 158.92 191.65C153.48 188.64 146.93 188.44 140.69 188.62C137.16 188.72 133.58 188.93 130.2 189.95C129.82 190.06 129.45 190.19 129.08 190.33L129.07 190.32Z" fill="#FFEEA6"/>
<path d="M172.42 188.211C172.68 191.731 172.61 193.771 172.52 194.791C172.46 195.431 172.23 196.041 171.84 196.551C170.55 198.231 167.99 200.001 167.99 200.001C167.99 200.001 158.89 206.661 141.55 204.691C132.03 203.611 127.27 199.591 125.78 198.101C125.4 197.721 125.18 197.231 125.14 196.701C124.95 194.191 125.24 188.711 125.24 188.711L172.41 188.211H172.42Z" fill="#FFC52F"/>
<path d="M132.18 180.68C130.46 181.32 128.83 182.21 127.55 183.49C125.93 185.1 124.93 187.42 125.34 189.65C125.83 192.3 128.13 194.26 130.54 195.55C135.84 198.4 142.1 199.03 148.14 198.81C154.38 198.57 160.66 197.45 166.25 194.73C169.63 193.09 174.24 189.62 171.68 185.44C170.83 184.06 169.45 183.07 168.01 182.28C161.48 178.66 153.61 178.42 146.12 178.63C141.88 178.75 137.59 179 133.53 180.23C133.08 180.37 132.63 180.52 132.18 180.68V180.68Z" fill="#FFDA40"/>
<path d="M134.96 182.021C133.53 182.561 132.17 183.291 131.1 184.361C129.75 185.701 128.92 187.631 129.26 189.481C129.67 191.681 131.59 193.311 133.59 194.381C138 196.751 143.22 197.281 148.25 197.091C153.44 196.891 158.68 195.961 163.34 193.701C166.15 192.331 170 189.451 167.86 185.981C167.15 184.831 166 184.011 164.81 183.351C159.37 180.341 152.82 180.141 146.58 180.321C143.05 180.421 139.47 180.631 136.09 181.651C135.71 181.761 135.34 181.891 134.97 182.031L134.96 182.021Z" fill="#FFEEA6"/>
<path d="M176.8 180.221C177.06 183.741 176.99 185.781 176.9 186.801C176.84 187.441 176.61 188.051 176.22 188.561C174.93 190.241 172.37 192.011 172.37 192.011C172.37 192.011 163.27 198.671 145.93 196.701C136.41 195.621 131.65 191.601 130.16 190.111C129.78 189.731 129.56 189.241 129.52 188.711C129.33 186.201 129.62 180.721 129.62 180.721L176.79 180.221H176.8Z" fill="#FFC52F"/>
<path d="M136.56 172.69C134.84 173.33 133.21 174.22 131.93 175.5C130.31 177.11 129.31 179.43 129.72 181.66C130.21 184.31 132.51 186.27 134.92 187.56C140.22 190.41 146.48 191.04 152.52 190.82C158.76 190.58 165.04 189.46 170.63 186.74C174.01 185.1 178.62 181.63 176.06 177.45C175.21 176.07 173.83 175.08 172.39 174.29C165.86 170.67 157.99 170.43 150.5 170.64C146.26 170.76 141.97 171.01 137.91 172.24C137.46 172.38 137.01 172.53 136.56 172.69V172.69Z" fill="#FFDA40"/>
<path d="M139.34 174.03C137.91 174.57 136.55 175.3 135.48 176.37C134.13 177.71 133.3 179.64 133.64 181.49C134.05 183.69 135.97 185.32 137.97 186.39C142.38 188.76 147.6 189.29 152.63 189.1C157.82 188.9 163.06 187.97 167.72 185.71C170.53 184.34 174.38 181.46 172.24 177.99C171.53 176.84 170.38 176.02 169.19 175.36C163.75 172.35 157.2 172.15 150.96 172.33C147.43 172.43 143.85 172.64 140.47 173.66C140.09 173.77 139.72 173.9 139.35 174.04L139.34 174.03Z" fill="#FFEEA6"/>
<path d="M172.67 172.451C172.93 175.971 172.86 178.011 172.77 179.031C172.71 179.671 172.48 180.281 172.09 180.791C170.8 182.471 168.24 184.241 168.24 184.241C168.24 184.241 159.14 190.901 141.8 188.931C132.28 187.851 127.52 183.831 126.03 182.341C125.65 181.961 125.43 181.471 125.39 180.941C125.2 178.431 125.49 172.951 125.49 172.951L172.66 172.451H172.67Z" fill="#FFC52F"/>
<path d="M132.44 164.921C130.72 165.561 129.09 166.451 127.81 167.731C126.19 169.341 125.19 171.661 125.6 173.891C126.09 176.541 128.39 178.501 130.8 179.791C136.1 182.641 142.36 183.271 148.4 183.051C154.64 182.811 160.92 181.691 166.51 178.971C169.89 177.331 174.5 173.861 171.94 169.681C171.09 168.301 169.71 167.311 168.27 166.521C161.74 162.901 153.87 162.661 146.38 162.871C142.14 162.991 137.85 163.241 133.79 164.471C133.34 164.611 132.89 164.761 132.44 164.921V164.921Z" fill="#FFDA40"/>
<path d="M135.22 166.251C133.79 166.791 132.43 167.521 131.36 168.591C130.01 169.931 129.18 171.861 129.52 173.711C129.93 175.911 131.85 177.541 133.85 178.611C138.26 180.981 143.48 181.511 148.51 181.321C153.7 181.121 158.94 180.191 163.6 177.931C166.41 176.561 170.26 173.681 168.12 170.211C167.41 169.061 166.26 168.241 165.07 167.581C159.63 164.571 153.08 164.371 146.84 164.551C143.31 164.651 139.73 164.861 136.35 165.881C135.97 165.991 135.6 166.121 135.23 166.261L135.22 166.251Z" fill="#FFEEA6"/>
<path d="M178.79 164.031C179.05 167.551 178.98 169.591 178.89 170.611C178.83 171.251 178.6 171.861 178.21 172.371C176.92 174.051 174.36 175.821 174.36 175.821C174.36 175.821 165.26 182.481 147.92 180.511C138.4 179.431 133.64 175.411 132.15 173.921C131.77 173.541 131.55 173.051 131.51 172.521C131.32 170.011 131.61 164.531 131.61 164.531L178.78 164.031H178.79Z" fill="#FFC52F"/>
<path d="M138.55 156.501C136.83 157.141 135.2 158.031 133.92 159.311C132.3 160.921 131.3 163.241 131.71 165.471C132.2 168.121 134.5 170.081 136.91 171.371C142.21 174.221 148.47 174.851 154.51 174.631C160.75 174.391 167.03 173.271 172.62 170.551C176 168.911 180.61 165.441 178.05 161.261C177.2 159.881 175.82 158.891 174.38 158.101C167.85 154.481 159.98 154.241 152.49 154.451C148.25 154.571 143.96 154.821 139.9 156.051C139.45 156.191 139 156.341 138.55 156.501V156.501Z" fill="#FFDA40"/>
<path d="M141.33 157.831C139.9 158.371 138.54 159.101 137.47 160.171C136.12 161.511 135.29 163.441 135.63 165.291C136.04 167.491 137.96 169.121 139.96 170.191C144.37 172.561 149.59 173.091 154.62 172.901C159.81 172.701 165.05 171.771 169.71 169.511C172.52 168.141 176.37 165.261 174.23 161.791C173.52 160.641 172.37 159.821 171.18 159.161C165.74 156.151 159.19 155.951 152.95 156.131C149.42 156.231 145.84 156.441 142.46 157.461C142.08 157.571 141.71 157.701 141.34 157.841L141.33 157.831Z" fill="#FFEEA6"/>
<path d="M129.76 200.76C130.01 204.12 129.94 206.08 129.86 207.05C129.81 207.66 129.59 208.24 129.21 208.73C127.98 210.34 125.53 212.03 125.53 212.03C125.53 212.03 116.83 218.4 100.25 216.51C91.1404 215.47 86.6004 211.64 85.1704 210.21C84.8104 209.85 84.6003 209.38 84.5603 208.87C84.3803 206.47 84.6604 201.23 84.6604 201.23L129.76 200.76V200.76Z" fill="#FFC52F"/>
<path d="M91.2902 193.551C89.6502 194.171 88.0902 195.011 86.8602 196.241C85.3102 197.781 84.3602 200.001 84.7502 202.131C85.2202 204.661 87.4202 206.531 89.7202 207.771C94.7902 210.501 100.77 211.101 106.55 210.881C112.51 210.651 118.52 209.581 123.87 206.981C127.1 205.411 131.51 202.091 129.06 198.101C128.25 196.781 126.93 195.831 125.56 195.081C119.32 191.621 111.79 191.391 104.63 191.591C100.57 191.711 96.4702 191.951 92.5902 193.121C92.1602 193.251 91.7302 193.391 91.3002 193.551H91.2902Z" fill="#FFDA40"/>
<path d="M93.9502 194.83C92.5802 195.34 91.2802 196.05 90.2602 197.06C88.9702 198.34 88.1702 200.19 88.5002 201.96C88.8902 204.06 90.7302 205.62 92.6402 206.65C96.8602 208.92 101.85 209.42 106.65 209.24C111.62 209.05 116.62 208.16 121.08 206C123.77 204.69 127.44 201.94 125.4 198.62C124.72 197.52 123.62 196.74 122.48 196.11C117.28 193.24 111.01 193.04 105.04 193.21C101.66 193.31 98.2402 193.51 95.0102 194.48C94.6502 194.59 94.2902 194.71 93.9402 194.84L93.9502 194.83Z" fill="#FFEEA6"/>
<path d="M123.55 192.08C123.8 195.36 123.73 197.27 123.64 198.22C123.59 198.82 123.37 199.38 123.01 199.86C121.81 201.43 119.42 203.08 119.42 203.08C119.42 203.08 110.94 209.3 94.76 207.45C85.88 206.44 81.45 202.7 80.05 201.3C79.7 200.95 79.49 200.49 79.46 199.99C79.29 197.65 79.55 192.54 79.55 192.54L123.55 192.08V192.08Z" fill="#FFC52F"/>
<path d="M86.0202 185.05C84.4202 185.65 82.9002 186.48 81.7002 187.67C80.1902 189.17 79.2602 191.34 79.6402 193.42C80.1002 195.89 82.2502 197.72 84.4902 198.92C89.4302 201.58 95.2702 202.17 100.9 201.96C106.72 201.74 112.58 200.69 117.79 198.15C120.94 196.62 125.24 193.38 122.85 189.48C122.06 188.19 120.77 187.27 119.43 186.53C113.34 183.16 106 182.93 99.0102 183.13C95.0502 183.24 91.0502 183.48 87.2702 184.62C86.8502 184.75 86.4302 184.89 86.0102 185.04L86.0202 185.05Z" fill="#FFDA40"/>
<path d="M88.61 186.301C87.27 186.801 86.01 187.491 85.01 188.481C83.75 189.731 82.98 191.531 83.3 193.261C83.68 195.311 85.47 196.831 87.34 197.831C91.46 200.041 96.32 200.531 101.01 200.351C105.86 200.171 110.74 199.301 115.08 197.191C117.71 195.921 121.29 193.231 119.3 189.991C118.64 188.921 117.57 188.151 116.45 187.541C111.38 184.741 105.27 184.551 99.44 184.711C96.14 184.801 92.81 185.001 89.66 185.951C89.31 186.061 88.96 186.171 88.61 186.301V186.301Z" fill="#FFEEA6"/>
<path d="M129.05 184.91C129.3 188.27 129.23 190.23 129.15 191.2C129.1 191.81 128.88 192.39 128.5 192.88C127.27 194.49 124.82 196.18 124.82 196.18C124.82 196.18 116.12 202.55 99.5399 200.66C90.4299 199.62 85.8899 195.79 84.4599 194.36C84.0999 194 83.8899 193.53 83.8499 193.02C83.6699 190.62 83.9499 185.38 83.9499 185.38L129.05 184.91V184.91Z" fill="#FFC52F"/>
<path d="M90.5699 177.711C88.9299 178.331 87.3699 179.171 86.1399 180.401C84.5899 181.941 83.6399 184.161 84.0299 186.291C84.4999 188.821 86.6999 190.691 88.9999 191.931C94.0699 194.661 100.05 195.261 105.83 195.041C111.79 194.811 117.8 193.741 123.15 191.141C126.38 189.571 130.79 186.251 128.34 182.261C127.53 180.941 126.21 179.991 124.84 179.241C118.6 175.781 111.07 175.551 103.91 175.751C99.8499 175.871 95.7499 176.111 91.8699 177.281C91.4399 177.411 91.0099 177.551 90.5799 177.711H90.5699Z" fill="#FFDA40"/>
<path d="M93.23 178.99C91.86 179.5 90.56 180.21 89.54 181.22C88.25 182.5 87.45 184.35 87.78 186.12C88.17 188.22 90.01 189.78 91.92 190.81C96.14 193.08 101.13 193.58 105.93 193.4C110.9 193.21 115.9 192.32 120.36 190.16C123.05 188.85 126.72 186.1 124.68 182.78C124 181.68 122.9 180.9 121.76 180.27C116.56 177.4 110.29 177.2 104.32 177.37C100.94 177.47 97.52 177.67 94.29 178.64C93.93 178.75 93.57 178.87 93.22 179L93.23 178.99Z" fill="#FFEEA6"/>
<path d="M121.56 176.568C121.81 179.928 121.74 181.888 121.66 182.858C121.61 183.468 121.39 184.048 121.01 184.538C119.78 186.148 117.33 187.838 117.33 187.838C117.33 187.838 108.63 194.208 92.0502 192.318C82.9402 191.278 78.4002 187.448 76.9702 186.018C76.6102 185.658 76.4002 185.188 76.3602 184.678C76.1802 182.278 76.4602 177.038 76.4602 177.038L121.56 176.568V176.568Z" fill="#FFC52F"/>
<path d="M83.0802 169.359C81.4402 169.979 79.8802 170.819 78.6502 172.049C77.1002 173.589 76.1502 175.809 76.5402 177.939C77.0102 180.469 79.2102 182.339 81.5102 183.579C86.5802 186.309 92.5602 186.909 98.3402 186.689C104.3 186.459 110.31 185.389 115.66 182.789C118.89 181.219 123.3 177.899 120.85 173.909C120.04 172.589 118.72 171.639 117.35 170.889C111.11 167.429 103.58 167.199 96.4202 167.399C92.3602 167.519 88.2602 167.759 84.3802 168.929C83.9502 169.059 83.5202 169.199 83.0902 169.359H83.0802Z" fill="#FFDA40"/>
<path d="M85.7402 170.638C84.3702 171.148 83.0702 171.858 82.0502 172.868C80.7602 174.148 79.9602 175.998 80.2902 177.768C80.6802 179.868 82.5202 181.428 84.4302 182.458C88.6502 184.728 93.6402 185.228 98.4402 185.048C103.41 184.858 108.41 183.968 112.87 181.808C115.56 180.498 119.23 177.748 117.19 174.428C116.51 173.328 115.41 172.548 114.27 171.918C109.07 169.048 102.8 168.848 96.8302 169.018C93.4502 169.118 90.0302 169.318 86.8002 170.288C86.4402 170.398 86.0802 170.518 85.7302 170.648L85.7402 170.638Z" fill="#FFEEA6"/>
<path d="M130.36 171.44C130.6 174.61 130.53 176.45 130.45 177.37C130.4 177.95 130.19 178.49 129.84 178.95C128.68 180.46 126.37 182.06 126.37 182.06C126.37 182.06 118.17 188.06 102.55 186.28C93.9701 185.3 89.6901 181.69 88.3401 180.34C88.0001 180 87.8001 179.56 87.7701 179.08C87.6001 176.82 87.8601 171.88 87.8601 171.88L130.36 171.43V171.44Z" fill="#FFC52F"/>
<path d="M94.1099 164.659C92.5599 165.239 91.0899 166.039 89.9399 167.189C88.4799 168.639 87.5799 170.729 87.9499 172.739C88.3899 175.119 90.4699 176.889 92.6299 178.049C97.3999 180.619 103.04 181.189 108.48 180.979C114.1 180.769 119.76 179.749 124.8 177.299C127.84 175.819 132 172.689 129.69 168.929C128.93 167.679 127.68 166.799 126.39 166.079C120.51 162.819 113.42 162.599 106.67 162.789C102.85 162.899 98.9799 163.119 95.3299 164.229C94.9199 164.349 94.5199 164.489 94.1199 164.639L94.1099 164.659Z" fill="#FFDA40"/>
<path d="M96.6103 165.859C95.3203 166.339 94.1002 167.009 93.1302 167.969C91.9202 169.179 91.1603 170.919 91.4703 172.579C91.8403 174.559 93.5703 176.029 95.3703 176.999C99.3503 179.129 104.04 179.609 108.58 179.439C113.26 179.259 117.98 178.419 122.17 176.379C124.71 175.149 128.17 172.549 126.24 169.419C125.6 168.379 124.56 167.649 123.49 167.049C118.59 164.339 112.69 164.159 107.06 164.319C103.88 164.409 100.66 164.599 97.6103 165.519C97.2703 165.619 96.9303 165.739 96.6003 165.859H96.6103Z" fill="#FFEEA6"/>
<path d="M86.4701 180.28C84.7901 183.35 82.6801 185.73 82.6801 185.73C80.7801 187.87 78.0701 189.34 75.2301 189.66C72.6301 189.96 69.9901 189.5 67.5401 188.63C66.3901 188.22 65.2801 187.73 64.2301 187.12C61.9201 185.79 59.8901 184 58.3201 181.84C55.5201 178.01 53.7601 172.71 56.0001 168.2C56.8201 166.55 57.7801 164.96 58.8701 163.48L86.4801 180.27L86.4701 180.28Z" fill="#FFC52F"/>
<path d="M86.4691 180.288C90.1657 174.21 86.981 165.523 79.3558 160.885C71.7307 156.247 62.5525 157.414 58.8559 163.492C55.1593 169.569 58.344 178.256 65.9692 182.894C73.5944 187.532 82.7725 186.365 86.4691 180.288Z" fill="#FFDA40"/>
<path d="M83.0006 178.179C85.7702 173.626 83.387 167.119 77.6775 163.646C71.9681 160.174 65.0945 161.05 62.3249 165.603C59.5553 170.156 61.9385 176.663 67.6479 180.136C73.3574 183.608 80.231 182.732 83.0006 178.179Z" fill="#FFEEA6"/>
<path d="M101.9 168.391C103.77 171.811 106.12 174.461 106.12 174.461C108.24 176.841 111.25 178.481 114.41 178.841C117.3 179.171 120.24 178.661 122.97 177.701C124.24 177.251 125.48 176.701 126.66 176.021C129.23 174.541 131.49 172.541 133.24 170.151C136.35 165.891 138.31 159.991 135.82 154.971C134.91 153.141 133.84 151.361 132.63 149.721L101.91 168.401L101.9 168.391Z" fill="#FFC52F"/>
<path d="M124.707 171.291C133.191 166.131 136.735 156.466 132.622 149.704C128.509 142.943 118.298 141.644 109.814 146.805C101.33 151.965 97.7862 161.63 101.899 168.392C106.012 175.153 116.223 176.451 124.707 171.291Z" fill="#FFDA40"/>
<path d="M122.842 168.224C129.193 164.361 131.843 157.121 128.761 152.054C125.678 146.986 118.031 146.009 111.679 149.872C105.328 153.736 102.678 160.975 105.761 166.043C108.843 171.111 116.491 172.087 122.842 168.224Z" fill="#FFEEA6"/>
</g>
</g>
<defs>
<clipPath id="clip0_376_84361">
<rect width="250" height="240" fill="white"/>
</clipPath>
<clipPath id="clip1_376_84361">
<rect width="224.93" height="208.1" fill="white" transform="translate(13 32)"/>
</clipPath>
</defs>
</svg>
