<svg width="250" height="240" viewBox="0 0 250 240" fill="none" xmlns="http://www.w3.org/2000/svg">
<g clip-path="url(#clip0_376_84358)">
<g clip-path="url(#clip1_376_84358)">
<path d="M231.21 119.35H226.33C223.4 98.63 214.11 79.96 200.51 65.35C202.92 55.75 208.28 53.63 208.28 53.63C212.55 51.62 212.05 47.86 212.05 47.86C211.55 43.84 205.27 41.58 205.27 41.58C193.67 38.76 184.05 43.93 178.84 47.77C163.78 38.71 146.16 33.5 127.32 33.5C75.6099 33.5 33.0599 72.76 27.8599 123.1C26.6499 123.74 25.2699 124.06 23.9399 123.76C22.0899 123.34 20.5199 121.49 20.8599 119.62C21.1499 117.97 22.6599 116.87 23.9799 115.83C25.2999 114.79 26.6399 113.35 26.3899 111.69C26.1299 110.02 24.2299 108.99 22.5499 109.21C20.8699 109.43 19.4699 110.57 18.3599 111.84C14.0299 116.84 12.1499 127.04 19.0899 130.72C20.8499 131.65 22.8399 132.07 24.8199 132.29C25.6599 132.38 26.5499 132.42 27.3299 132.11C27.3299 132.57 27.3099 133.04 27.3099 133.5C27.3099 172.98 50.1899 207.12 83.4199 223.37C83.3699 223.46 83.3099 223.54 83.2799 223.63L78.8999 233.6C77.8199 236.05 80.1699 238.6 83.5099 238.6H92.9399C94.9399 238.6 96.7299 237.65 97.4699 236.21L100.68 229.91C109.16 232.25 118.1 233.5 127.32 233.5C136.54 233.5 145.48 232.24 153.96 229.91L157.17 236.21C157.9 237.65 159.7 238.6 161.7 238.6H171.13C174.47 238.6 176.82 236.05 175.74 233.6L171.36 223.63C171.32 223.54 171.26 223.46 171.22 223.37C198.25 210.15 218.43 185.09 225.02 154.95H231.22C234.09 154.95 236.44 152.6 236.44 149.73V124.57C236.44 121.7 234.09 119.35 231.22 119.35H231.21Z" fill="#FFF3C0"/>
<path d="M171.13 240.1H161.7C159.13 240.1 156.83 238.84 155.83 236.89L153.18 231.67C136.35 236.09 118.29 236.09 101.47 231.67L98.8199 236.89C97.8299 238.84 95.5199 240.1 92.9499 240.1H83.5199C81.1699 240.1 79.0299 239.04 77.9199 237.34C77.0499 236.01 76.9099 234.42 77.5399 232.99L81.4599 224.06C65.2099 215.82 51.4699 203.36 41.6499 187.95C31.3599 171.79 25.8899 153.09 25.8199 133.85C25.4199 133.85 25.0299 133.82 24.6599 133.78C22.0799 133.5 20.0899 132.95 18.3899 132.05C15.6099 130.58 13.8199 128.09 13.2199 124.85C12.3699 120.33 14.0199 114.58 17.2299 110.87C18.8299 109.02 20.5599 107.96 22.3599 107.73C24.6899 107.43 27.4699 108.86 27.8699 111.47C28.1599 113.37 27.1599 115.23 24.9099 117.02L24.6799 117.2C23.6199 118.04 22.5099 118.9 22.3399 119.89C22.1699 120.87 23.1099 122.04 24.2799 122.3C25.0699 122.48 25.8399 122.33 26.4699 122.09C29.2099 97.59 40.7899 74.96 59.1499 58.31C77.8399 41.34 102.05 32 127.32 32C145.45 32 163.21 36.83 178.75 45.98C184.01 42.3 193.85 37.27 205.61 40.13L205.76 40.18C206.49 40.44 212.92 42.89 213.52 47.68C213.54 47.87 214.11 52.55 208.9 55C208.65 55.11 204.39 56.99 202.15 64.95C215.76 79.8 224.54 98.05 227.6 117.86H231.19C234.9 117.86 237.91 120.87 237.91 124.58V149.74C237.91 153.45 234.9 156.46 231.19 156.46H226.19C219.48 185.45 199.78 210.56 173.17 224.07L177.09 233C177.72 234.43 177.58 236.02 176.71 237.35C175.6 239.05 173.45 240.11 171.11 240.11L171.13 240.1ZM154.75 228.13L158.51 235.52C158.99 236.46 160.27 237.09 161.7 237.09H171.13C172.45 237.09 173.67 236.54 174.22 235.69C174.54 235.2 174.59 234.7 174.36 234.19L169.9 224.09L169.14 222.71L170.55 222.02C197.37 208.9 217.18 183.7 223.54 154.63L223.8 153.45H231.2C233.25 153.45 234.92 151.78 234.92 149.73V124.57C234.92 122.52 233.25 120.85 231.2 120.85H225.01L224.83 119.56C222 99.59 213.21 81.2 199.4 66.38L198.84 65.78L199.04 64.99C201.61 54.76 207.46 52.34 207.71 52.24C210.74 50.81 210.57 48.32 210.54 48.04C210.23 45.55 206.37 43.6 204.81 43.02C193.63 40.34 184.29 45.6 179.71 48.98L178.9 49.57L178.04 49.05C162.77 39.85 145.23 34.99 127.31 34.99C102.79 34.99 79.2899 44.06 61.1399 60.52C43.1199 76.87 31.8299 99.15 29.3399 123.24L29.2599 124.03L28.5499 124.41C26.8999 125.29 25.1799 125.57 23.5999 125.21C20.8499 124.59 18.9099 121.91 19.3699 119.34C19.7499 117.22 21.4499 115.88 22.8099 114.81L23.0399 114.63C23.9599 113.9 25.0399 112.83 24.8899 111.89C24.7799 111.15 23.7099 110.55 22.7299 110.67C21.6799 110.8 20.5899 111.52 19.4899 112.8C16.8799 115.82 15.4799 120.64 16.1599 124.27C16.5999 126.61 17.8199 128.33 19.7899 129.38C21.1399 130.1 22.7899 130.54 24.9799 130.78C25.5899 130.85 26.2899 130.89 26.7799 130.7L28.8599 129.88L28.8199 132.55C28.8199 132.86 28.8099 133.18 28.8099 133.5C28.8099 152.29 34.1199 170.57 44.1699 186.34C53.9499 201.7 67.7499 214.04 84.0799 222.03L85.4899 222.72L84.6499 224.24L80.2699 234.2C80.0499 234.71 80.0899 235.21 80.4099 235.7C80.9599 236.55 82.1799 237.1 83.4999 237.1H92.9299C94.3599 237.1 95.6399 236.47 96.1199 235.53L99.8799 228.14L101.06 228.47C118.1 233.17 136.5 233.17 153.55 228.47L154.73 228.14L154.75 228.13Z" fill="#FFEEA6"/>
<path d="M127.32 223.26C176.893 223.26 217.08 183.073 217.08 133.5C217.08 83.9272 176.893 43.7402 127.32 43.7402C77.7467 43.7402 37.5598 83.9272 37.5598 133.5C37.5598 183.073 77.7467 223.26 127.32 223.26Z" fill="#FFFAE6"/>
<path d="M191.92 167.17C201.889 167.17 209.97 159.653 209.97 150.38C209.97 141.107 201.889 133.59 191.92 133.59C181.951 133.59 173.87 141.107 173.87 150.38C173.87 159.653 181.951 167.17 191.92 167.17Z" fill="#FFDA40"/>
<path d="M191.92 163.559C199.751 163.559 206.1 157.658 206.1 150.379C206.1 143.1 199.751 137.199 191.92 137.199C184.089 137.199 177.74 143.1 177.74 150.379C177.74 157.658 184.089 163.559 191.92 163.559Z" fill="#FFEEA6"/>
<path d="M177.5 182.85C189.954 182.85 200.05 173.462 200.05 161.88C200.05 150.299 189.954 140.91 177.5 140.91C165.046 140.91 154.95 150.299 154.95 161.88C154.95 173.462 165.046 182.85 177.5 182.85Z" fill="#FFDA40"/>
<path d="M177.5 178.35C187.281 178.35 195.21 170.976 195.21 161.88C195.21 152.784 187.281 145.41 177.5 145.41C167.719 145.41 159.79 152.784 159.79 161.88C159.79 170.976 167.719 178.35 177.5 178.35Z" fill="#FFEEA6"/>
<path d="M80.7599 184.53C92.9654 184.53 102.86 175.329 102.86 163.98C102.86 152.63 92.9654 143.43 80.7599 143.43C68.5544 143.43 58.6599 152.63 58.6599 163.98C58.6599 175.329 68.5544 184.53 80.7599 184.53Z" fill="#FFDA40"/>
<path d="M80.7599 180.12C90.3476 180.12 98.1199 172.894 98.1199 163.98C98.1199 155.066 90.3476 147.84 80.7599 147.84C71.1722 147.84 63.3999 155.066 63.3999 163.98C63.3999 172.894 71.1722 180.12 80.7599 180.12Z" fill="#FFEEA6"/>
<path d="M166.52 196.52C166.78 200.04 166.71 202.08 166.62 203.1C166.56 203.74 166.33 204.35 165.94 204.86C164.65 206.54 162.09 208.31 162.09 208.31C162.09 208.31 152.99 214.97 135.65 213C126.13 211.92 121.37 207.9 119.88 206.41C119.5 206.03 119.28 205.54 119.24 205.01C119.05 202.5 119.34 197.02 119.34 197.02L166.51 196.52H166.52Z" fill="#FFC52F"/>
<path d="M126.29 188.989C124.57 189.629 122.94 190.519 121.66 191.799C120.04 193.409 119.04 195.729 119.45 197.959C119.94 200.609 122.24 202.569 124.65 203.859C129.95 206.709 136.21 207.339 142.25 207.119C148.49 206.879 154.77 205.759 160.36 203.039C163.74 201.399 168.35 197.929 165.79 193.749C164.94 192.369 163.56 191.379 162.12 190.589C155.59 186.969 147.72 186.729 140.23 186.939C135.99 187.059 131.7 187.309 127.64 188.539C127.19 188.679 126.74 188.829 126.29 188.989V188.989Z" fill="#FFDA40"/>
<path d="M129.07 190.32C127.64 190.86 126.28 191.59 125.21 192.66C123.86 194 123.03 195.93 123.37 197.78C123.78 199.98 125.7 201.61 127.7 202.68C132.11 205.05 137.33 205.58 142.36 205.39C147.55 205.19 152.79 204.26 157.45 202C160.26 200.63 164.11 197.75 161.97 194.28C161.26 193.13 160.11 192.31 158.92 191.65C153.48 188.64 146.93 188.44 140.69 188.62C137.16 188.72 133.58 188.93 130.2 189.95C129.82 190.06 129.45 190.19 129.08 190.33L129.07 190.32Z" fill="#FFEEA6"/>
<path d="M172.42 187.211C172.68 190.731 172.61 192.771 172.52 193.791C172.46 194.431 172.23 195.041 171.84 195.551C170.55 197.231 167.99 199.001 167.99 199.001C167.99 199.001 158.89 205.661 141.55 203.691C132.03 202.611 127.27 198.591 125.78 197.101C125.4 196.721 125.18 196.231 125.14 195.701C124.95 193.191 125.24 187.711 125.24 187.711L172.41 187.211H172.42Z" fill="#FFC52F"/>
<path d="M132.18 179.68C130.46 180.32 128.83 181.21 127.55 182.49C125.93 184.1 124.93 186.42 125.34 188.65C125.83 191.3 128.13 193.26 130.54 194.55C135.84 197.4 142.1 198.03 148.14 197.81C154.38 197.57 160.66 196.45 166.25 193.73C169.63 192.09 174.24 188.62 171.68 184.44C170.83 183.06 169.45 182.07 168.01 181.28C161.48 177.66 153.61 177.42 146.12 177.63C141.88 177.75 137.59 178 133.53 179.23C133.08 179.37 132.63 179.52 132.18 179.68V179.68Z" fill="#FFDA40"/>
<path d="M134.96 181.021C133.53 181.561 132.17 182.291 131.1 183.361C129.75 184.701 128.92 186.631 129.26 188.481C129.67 190.681 131.59 192.311 133.59 193.381C138 195.751 143.22 196.281 148.25 196.091C153.44 195.891 158.68 194.961 163.34 192.701C166.15 191.331 170 188.451 167.86 184.981C167.15 183.831 166 183.011 164.81 182.351C159.37 179.341 152.82 179.141 146.58 179.321C143.05 179.421 139.47 179.631 136.09 180.651C135.71 180.761 135.34 180.891 134.97 181.031L134.96 181.021Z" fill="#FFEEA6"/>
<path d="M172.67 178.451C172.93 181.971 172.86 184.011 172.77 185.031C172.71 185.671 172.48 186.281 172.09 186.791C170.8 188.471 168.24 190.241 168.24 190.241C168.24 190.241 159.14 196.901 141.8 194.931C132.28 193.851 127.52 189.831 126.03 188.341C125.65 187.961 125.43 187.471 125.39 186.941C125.2 184.431 125.49 178.951 125.49 178.951L172.66 178.451H172.67Z" fill="#FFC52F"/>
<path d="M132.44 170.921C130.72 171.561 129.09 172.451 127.81 173.731C126.19 175.341 125.19 177.661 125.6 179.891C126.09 182.541 128.39 184.501 130.8 185.791C136.1 188.641 142.36 189.271 148.4 189.051C154.64 188.811 160.92 187.691 166.51 184.971C169.89 183.331 174.5 179.861 171.94 175.681C171.09 174.301 169.71 173.311 168.27 172.521C161.74 168.901 153.87 168.661 146.38 168.871C142.14 168.991 137.85 169.241 133.79 170.471C133.34 170.611 132.89 170.761 132.44 170.921V170.921Z" fill="#FFDA40"/>
<path d="M135.22 172.251C133.79 172.791 132.43 173.521 131.36 174.591C130.01 175.931 129.18 177.861 129.52 179.711C129.93 181.911 131.85 183.541 133.85 184.611C138.26 186.981 143.48 187.511 148.51 187.321C153.7 187.121 158.94 186.191 163.6 183.931C166.41 182.561 170.26 179.681 168.12 176.211C167.41 175.061 166.26 174.241 165.07 173.581C159.63 170.571 153.08 170.371 146.84 170.551C143.31 170.651 139.73 170.861 136.35 171.881C135.97 171.991 135.6 172.121 135.23 172.261L135.22 172.251Z" fill="#FFEEA6"/>
<path d="M176.79 170.031C177.05 173.551 176.98 175.591 176.89 176.611C176.83 177.251 176.6 177.861 176.21 178.371C174.92 180.051 172.36 181.821 172.36 181.821C172.36 181.821 163.26 188.481 145.92 186.511C136.4 185.431 131.64 181.411 130.15 179.921C129.77 179.541 129.55 179.051 129.51 178.521C129.32 176.011 129.61 170.531 129.61 170.531L176.78 170.031H176.79Z" fill="#FFC52F"/>
<path d="M136.55 162.501C134.83 163.141 133.2 164.031 131.92 165.311C130.3 166.921 129.3 169.241 129.71 171.471C130.2 174.121 132.5 176.081 134.91 177.371C140.21 180.221 146.47 180.851 152.51 180.631C158.75 180.391 165.03 179.271 170.62 176.551C174 174.911 178.61 171.441 176.05 167.261C175.2 165.881 173.82 164.891 172.38 164.101C165.85 160.481 157.98 160.241 150.49 160.451C146.25 160.571 141.96 160.821 137.9 162.051C137.45 162.191 137 162.341 136.55 162.501V162.501Z" fill="#FFDA40"/>
<path d="M139.33 163.831C137.9 164.371 136.54 165.101 135.47 166.171C134.12 167.511 133.29 169.441 133.63 171.291C134.04 173.491 135.96 175.121 137.96 176.191C142.37 178.561 147.59 179.091 152.62 178.901C157.81 178.701 163.05 177.771 167.71 175.511C170.52 174.141 174.37 171.261 172.23 167.791C171.52 166.641 170.37 165.821 169.18 165.161C163.74 162.151 157.19 161.951 150.95 162.131C147.42 162.231 143.84 162.441 140.46 163.461C140.08 163.571 139.71 163.701 139.34 163.841L139.33 163.831Z" fill="#FFEEA6"/>
<path d="M171.26 161.82C171.52 165.34 171.45 167.38 171.36 168.4C171.3 169.04 171.07 169.65 170.68 170.16C169.39 171.84 166.83 173.61 166.83 173.61C166.83 173.61 157.73 180.27 140.39 178.3C130.87 177.22 126.11 173.2 124.62 171.71C124.24 171.33 124.02 170.84 123.98 170.31C123.79 167.8 124.08 162.32 124.08 162.32L171.25 161.82H171.26Z" fill="#FFC52F"/>
<path d="M131.03 154.28C129.31 154.92 127.68 155.81 126.4 157.09C124.78 158.7 123.78 161.02 124.19 163.25C124.68 165.9 126.98 167.86 129.39 169.15C134.69 172 140.95 172.63 146.99 172.41C153.23 172.17 159.51 171.05 165.1 168.33C168.48 166.69 173.09 163.22 170.53 159.04C169.68 157.66 168.3 156.67 166.86 155.88C160.33 152.26 152.46 152.02 144.97 152.23C140.73 152.35 136.44 152.6 132.38 153.83C131.93 153.97 131.48 154.12 131.03 154.28V154.28Z" fill="#FFDA40"/>
<path d="M133.81 155.62C132.38 156.16 131.02 156.89 129.95 157.96C128.6 159.3 127.77 161.23 128.11 163.08C128.52 165.28 130.44 166.91 132.44 167.98C136.85 170.35 142.07 170.88 147.1 170.69C152.29 170.49 157.53 169.56 162.19 167.3C165 165.93 168.85 163.05 166.71 159.58C166 158.43 164.85 157.61 163.66 156.95C158.22 153.94 151.67 153.74 145.43 153.92C141.9 154.02 138.32 154.23 134.94 155.25C134.56 155.36 134.19 155.49 133.82 155.63L133.81 155.62Z" fill="#FFEEA6"/>
<path d="M167.62 153.961C167.87 157.231 167.8 159.131 167.71 160.071C167.66 160.661 167.44 161.231 167.08 161.701C165.88 163.261 163.5 164.911 163.5 164.911C163.5 164.911 155.05 171.101 138.93 169.271C130.08 168.261 125.66 164.531 124.27 163.141C123.92 162.791 123.72 162.331 123.68 161.841C123.51 159.511 123.77 154.421 123.77 154.421L167.61 153.961H167.62Z" fill="#FFC52F"/>
<path d="M130.22 146.96C128.62 147.56 127.11 148.38 125.91 149.57C124.41 151.07 123.48 153.23 123.86 155.29C124.31 157.75 126.46 159.57 128.69 160.77C133.62 163.42 139.43 164.01 145.04 163.8C150.84 163.58 156.68 162.54 161.87 160.01C165.01 158.48 169.3 155.26 166.91 151.38C166.12 150.09 164.84 149.18 163.5 148.44C157.43 145.08 150.12 144.85 143.16 145.05C139.22 145.16 135.23 145.4 131.46 146.54C131.04 146.67 130.62 146.81 130.21 146.96H130.22Z" fill="#FFDA40"/>
<path d="M132.81 148.201C131.48 148.701 130.22 149.381 129.22 150.371C127.97 151.621 127.19 153.411 127.51 155.131C127.89 157.171 129.67 158.691 131.53 159.691C135.63 161.891 140.48 162.381 145.15 162.211C149.98 162.031 154.84 161.161 159.17 159.061C161.79 157.791 165.36 155.111 163.37 151.881C162.71 150.811 161.64 150.051 160.53 149.441C155.48 146.651 149.38 146.461 143.58 146.621C140.3 146.711 136.97 146.911 133.83 147.861C133.48 147.971 133.13 148.081 132.79 148.211L132.81 148.201Z" fill="#FFEEA6"/>
<path d="M129.76 200.76C130.01 204.12 129.94 206.08 129.86 207.05C129.81 207.66 129.59 208.24 129.21 208.73C127.98 210.34 125.53 212.03 125.53 212.03C125.53 212.03 116.83 218.4 100.25 216.51C91.1399 215.47 86.5999 211.64 85.1699 210.21C84.8099 209.85 84.5999 209.38 84.5599 208.87C84.3799 206.47 84.6599 201.23 84.6599 201.23L129.76 200.76V200.76Z" fill="#FFC52F"/>
<path d="M91.2899 193.551C89.6499 194.171 88.0899 195.011 86.8599 196.241C85.3099 197.781 84.3599 200.001 84.7499 202.131C85.2199 204.661 87.4199 206.531 89.7199 207.771C94.7899 210.501 100.77 211.101 106.55 210.881C112.51 210.651 118.52 209.581 123.87 206.981C127.1 205.411 131.51 202.091 129.06 198.101C128.25 196.781 126.93 195.831 125.56 195.081C119.32 191.621 111.79 191.391 104.63 191.591C100.57 191.711 96.4699 191.951 92.5899 193.121C92.1599 193.251 91.7299 193.391 91.2999 193.551H91.2899Z" fill="#FFDA40"/>
<path d="M93.9499 194.83C92.5799 195.34 91.2799 196.05 90.2599 197.06C88.9699 198.34 88.1699 200.19 88.4999 201.96C88.8899 204.06 90.7299 205.62 92.6399 206.65C96.8599 208.92 101.85 209.42 106.65 209.24C111.62 209.05 116.62 208.16 121.08 206C123.77 204.69 127.44 201.94 125.4 198.62C124.72 197.52 123.62 196.74 122.48 196.11C117.28 193.24 111.01 193.04 105.04 193.21C101.66 193.31 98.2399 193.51 95.0099 194.48C94.6499 194.59 94.2899 194.71 93.9399 194.84L93.9499 194.83Z" fill="#FFEEA6"/>
<path d="M123.55 193.08C123.8 196.36 123.73 198.27 123.64 199.22C123.59 199.82 123.37 200.38 123.01 200.86C121.81 202.43 119.42 204.08 119.42 204.08C119.42 204.08 110.94 210.3 94.76 208.45C85.88 207.44 81.45 203.7 80.05 202.3C79.7 201.95 79.49 201.49 79.46 200.99C79.29 198.65 79.55 193.54 79.55 193.54L123.55 193.08V193.08Z" fill="#FFC52F"/>
<path d="M86.02 186.05C84.42 186.65 82.9 187.48 81.7 188.67C80.19 190.17 79.26 192.34 79.64 194.42C80.1 196.89 82.25 198.72 84.49 199.92C89.43 202.58 95.27 203.17 100.9 202.96C106.72 202.74 112.58 201.69 117.79 199.15C120.94 197.62 125.24 194.38 122.85 190.48C122.06 189.19 120.77 188.27 119.43 187.53C113.34 184.16 106 183.93 99.01 184.13C95.05 184.24 91.05 184.48 87.27 185.62C86.85 185.75 86.43 185.89 86.01 186.04L86.02 186.05Z" fill="#FFDA40"/>
<path d="M88.61 187.301C87.27 187.801 86.01 188.491 85.01 189.481C83.75 190.731 82.98 192.531 83.3 194.261C83.68 196.311 85.47 197.831 87.34 198.831C91.46 201.041 96.32 201.531 101.01 201.351C105.86 201.171 110.74 200.301 115.08 198.191C117.71 196.921 121.29 194.231 119.3 190.991C118.64 189.921 117.57 189.151 116.45 188.541C111.38 185.741 105.27 185.551 99.44 185.711C96.14 185.801 92.81 186.001 89.66 186.951C89.31 187.061 88.96 187.171 88.61 187.301V187.301Z" fill="#FFEEA6"/>
<path d="M120.56 183.568C120.81 186.928 120.74 188.888 120.66 189.858C120.61 190.468 120.39 191.048 120.01 191.538C118.78 193.148 116.33 194.838 116.33 194.838C116.33 194.838 107.63 201.208 91.0499 199.318C81.9399 198.278 77.3999 194.448 75.9699 193.018C75.6099 192.658 75.3999 192.188 75.3599 191.678C75.1799 189.278 75.4599 184.038 75.4599 184.038L120.56 183.568V183.568Z" fill="#FFC52F"/>
<path d="M82.08 176.359C80.44 176.979 78.88 177.819 77.65 179.049C76.1 180.589 75.15 182.809 75.54 184.939C76.01 187.469 78.21 189.339 80.51 190.579C85.58 193.309 91.5599 193.909 97.3399 193.689C103.3 193.459 109.31 192.389 114.66 189.789C117.89 188.219 122.3 184.899 119.85 180.909C119.04 179.589 117.72 178.639 116.35 177.889C110.11 174.429 102.58 174.199 95.42 174.399C91.36 174.519 87.2599 174.759 83.3799 175.929C82.9499 176.059 82.5199 176.199 82.0899 176.359H82.08Z" fill="#FFDA40"/>
<path d="M84.74 177.638C83.37 178.148 82.07 178.858 81.05 179.868C79.76 181.148 78.96 182.998 79.29 184.768C79.68 186.868 81.52 188.428 83.43 189.458C87.65 191.728 92.64 192.228 97.44 192.048C102.41 191.858 107.41 190.968 111.87 188.808C114.56 187.498 118.23 184.748 116.19 181.428C115.51 180.328 114.41 179.548 113.27 178.918C108.07 176.048 101.8 175.848 95.83 176.018C92.45 176.118 89.03 176.318 85.8 177.288C85.44 177.398 85.08 177.518 84.73 177.648L84.74 177.638Z" fill="#FFEEA6"/>
<path d="M130.35 177.51C130.6 180.87 130.53 182.83 130.45 183.8C130.4 184.41 130.18 184.99 129.8 185.48C128.57 187.09 126.12 188.78 126.12 188.78C126.12 188.78 117.42 195.15 100.84 193.26C91.7299 192.22 87.19 188.39 85.76 186.96C85.4 186.6 85.19 186.13 85.15 185.62C84.97 183.22 85.2499 177.98 85.2499 177.98L130.35 177.51V177.51Z" fill="#FFC52F"/>
<path d="M91.88 170.31C90.24 170.93 88.68 171.77 87.45 173C85.9 174.54 84.95 176.76 85.34 178.89C85.81 181.42 88.01 183.29 90.31 184.53C95.38 187.26 101.36 187.86 107.14 187.64C113.1 187.41 119.11 186.34 124.46 183.74C127.69 182.17 132.1 178.85 129.65 174.86C128.84 173.54 127.52 172.59 126.15 171.84C119.91 168.38 112.38 168.15 105.22 168.35C101.16 168.47 97.06 168.71 93.18 169.88C92.75 170.01 92.32 170.15 91.89 170.31H91.88Z" fill="#FFDA40"/>
<path d="M94.54 171.59C93.17 172.1 91.87 172.81 90.85 173.82C89.56 175.1 88.76 176.95 89.09 178.72C89.48 180.82 91.32 182.38 93.23 183.41C97.45 185.68 102.44 186.18 107.24 186C112.21 185.81 117.21 184.92 121.67 182.76C124.36 181.45 128.03 178.7 125.99 175.38C125.31 174.28 124.21 173.5 123.07 172.87C117.87 170 111.6 169.8 105.63 169.97C102.25 170.07 98.83 170.27 95.6 171.24C95.24 171.35 94.88 171.47 94.53 171.6L94.54 171.59Z" fill="#FFEEA6"/>
<path d="M128.14 167.709C128.39 171.069 128.32 173.029 128.24 173.999C128.19 174.609 127.97 175.189 127.59 175.679C126.36 177.289 123.91 178.979 123.91 178.979C123.91 178.979 115.21 185.349 98.63 183.459C89.52 182.419 84.98 178.589 83.55 177.159C83.19 176.799 82.98 176.329 82.94 175.819C82.76 173.419 83.04 168.179 83.04 168.179L128.14 167.709V167.709Z" fill="#FFC52F"/>
<path d="M89.66 160.5C88.02 161.12 86.46 161.96 85.23 163.19C83.68 164.73 82.73 166.95 83.12 169.08C83.59 171.61 85.79 173.48 88.09 174.72C93.16 177.45 99.14 178.05 104.92 177.83C110.88 177.6 116.89 176.53 122.24 173.93C125.47 172.36 129.88 169.04 127.43 165.05C126.62 163.73 125.3 162.78 123.93 162.03C117.69 158.57 110.16 158.34 103 158.54C98.94 158.66 94.84 158.9 90.96 160.07C90.53 160.2 90.1 160.34 89.67 160.5H89.66Z" fill="#FFDA40"/>
<path d="M92.3201 161.779C90.9501 162.289 89.6501 162.999 88.6301 164.009C87.3401 165.289 86.5401 167.139 86.8701 168.909C87.2601 171.009 89.1001 172.569 91.0101 173.599C95.2301 175.869 100.22 176.369 105.02 176.189C109.99 175.999 114.99 175.109 119.45 172.949C122.14 171.639 125.81 168.889 123.77 165.569C123.09 164.469 121.99 163.689 120.85 163.059C115.65 160.189 109.38 159.989 103.41 160.159C100.03 160.259 96.6101 160.459 93.3801 161.429C93.0201 161.539 92.6601 161.659 92.3101 161.789L92.3201 161.779Z" fill="#FFEEA6"/>
<path d="M123.53 158.34C123.78 161.7 123.71 163.66 123.63 164.63C123.58 165.24 123.36 165.82 122.98 166.31C121.75 167.92 119.3 169.61 119.3 169.61C119.3 169.61 110.6 175.98 94.0199 174.09C84.9099 173.05 80.3699 169.22 78.9399 167.79C78.5799 167.43 78.3699 166.96 78.3299 166.45C78.1499 164.05 78.4299 158.81 78.4299 158.81L123.53 158.34V158.34Z" fill="#FFC52F"/>
<path d="M85.0599 151.14C83.4199 151.76 81.8599 152.6 80.6299 153.83C79.0799 155.37 78.1299 157.59 78.5199 159.72C78.9899 162.25 81.1899 164.12 83.4899 165.36C88.5599 168.09 94.5399 168.69 100.32 168.47C106.28 168.24 112.29 167.17 117.64 164.57C120.87 163 125.28 159.68 122.83 155.69C122.02 154.37 120.7 153.42 119.33 152.67C113.09 149.21 105.56 148.98 98.3999 149.18C94.3399 149.3 90.2399 149.54 86.3599 150.71C85.9299 150.84 85.4999 150.98 85.0699 151.14H85.0599Z" fill="#FFDA40"/>
<path d="M87.72 152.42C86.35 152.93 85.05 153.64 84.03 154.65C82.74 155.93 81.94 157.78 82.27 159.55C82.66 161.65 84.5 163.21 86.41 164.24C90.63 166.51 95.62 167.01 100.42 166.83C105.39 166.64 110.39 165.75 114.85 163.59C117.54 162.28 121.21 159.53 119.17 156.21C118.49 155.11 117.39 154.33 116.25 153.7C111.05 150.83 104.78 150.63 98.81 150.8C95.43 150.9 92.01 151.1 88.78 152.07C88.42 152.18 88.06 152.3 87.71 152.43L87.72 152.42Z" fill="#FFEEA6"/>
<path d="M86.4699 180.28C84.7899 183.35 82.6799 185.73 82.6799 185.73C80.7799 187.87 78.0699 189.34 75.2299 189.66C72.6299 189.96 69.9899 189.5 67.5399 188.63C66.3899 188.22 65.2799 187.73 64.2299 187.12C61.9199 185.79 59.8899 184 58.3199 181.84C55.5199 178.01 53.7599 172.71 55.9999 168.2C56.8199 166.55 57.7799 164.96 58.8699 163.48L86.4799 180.27L86.4699 180.28Z" fill="#FFC52F"/>
<path d="M86.4689 180.288C90.1655 174.21 86.9808 165.523 79.3556 160.885C71.7304 156.247 62.5523 157.414 58.8557 163.492C55.1591 169.569 58.3438 178.256 65.9689 182.894C73.5941 187.532 82.7722 186.365 86.4689 180.288Z" fill="#FFDA40"/>
<path d="M83.0001 178.179C85.7697 173.626 83.3865 167.119 77.677 163.646C71.9676 160.174 65.094 161.05 62.3244 165.603C59.5548 170.156 61.938 176.663 67.6474 180.136C73.3569 183.608 80.2305 182.732 83.0001 178.179Z" fill="#FFEEA6"/>
<path d="M78.29 166.319C76.52 169.539 74.31 172.039 74.31 172.039C72.31 174.289 69.47 175.829 66.49 176.169C63.76 176.479 60.99 175.999 58.42 175.089C57.22 174.659 56.05 174.139 54.94 173.509C52.52 172.109 50.39 170.229 48.74 167.969C45.81 163.949 43.96 158.389 46.31 153.649C47.17 151.919 48.17 150.239 49.32 148.699L78.29 166.319V166.319Z" fill="#FFC52F"/>
<path d="M78.281 166.324C82.1613 159.945 78.8195 150.827 70.8168 145.96C62.8142 141.092 53.1811 142.318 49.3008 148.697C45.4205 155.076 48.7623 164.194 56.765 169.062C64.7676 173.929 74.4007 172.704 78.281 166.324Z" fill="#FFDA40"/>
<path d="M74.6415 164.111C77.5488 159.331 75.0478 152.502 69.0552 148.857C63.0627 145.212 55.8479 146.132 52.9405 150.912C50.0332 155.692 52.5342 162.521 58.5267 166.166C64.5193 169.811 71.7341 168.891 74.6415 164.111Z" fill="#FFEEA6"/>
<path d="M122.39 150.961C122.61 153.891 122.55 155.591 122.47 156.441C122.42 156.971 122.23 157.481 121.9 157.901C120.82 159.301 118.69 160.781 118.69 160.781C118.69 160.781 111.11 166.331 96.6698 164.681C88.7398 163.781 84.7798 160.441 83.5298 159.191C83.2198 158.881 83.0298 158.471 82.9998 158.021C82.8398 155.931 83.0798 151.371 83.0798 151.371L122.36 150.961H122.39Z" fill="#FFC52F"/>
<path d="M88.8797 144.69C87.4497 145.23 86.0897 145.96 85.0197 147.03C83.6697 148.37 82.8397 150.31 83.1797 152.16C83.5897 154.36 85.5097 156 87.5097 157.07C91.9197 159.44 97.1397 159.97 102.16 159.78C107.35 159.58 112.59 158.65 117.25 156.38C120.06 155.01 123.91 152.12 121.77 148.64C121.06 147.49 119.91 146.67 118.72 146.01C113.28 143 106.73 142.79 100.49 142.97C96.9597 143.07 93.3797 143.28 90.0097 144.3C89.6297 144.41 89.2597 144.54 88.8897 144.68L88.8797 144.69Z" fill="#FFDA40"/>
<path d="M91.1999 145.801C90.0099 146.251 88.8799 146.861 87.9899 147.751C86.8699 148.871 86.1699 150.471 86.4599 152.011C86.7999 153.841 88.3999 155.201 90.0599 156.091C93.7399 158.061 98.0799 158.501 102.27 158.341C106.6 158.181 110.96 157.401 114.84 155.521C117.18 154.381 120.38 151.981 118.6 149.091C118.01 148.131 117.05 147.451 116.06 146.901C111.53 144.401 106.07 144.231 100.87 144.381C97.9299 144.461 94.9499 144.641 92.1399 145.491C91.8299 145.581 91.5099 145.691 91.2099 145.801H91.1999Z" fill="#FFEEA6"/>
<path d="M125.82 143.951C126.04 146.881 125.98 148.581 125.9 149.431C125.85 149.961 125.66 150.471 125.33 150.891C124.25 152.291 122.12 153.771 122.12 153.771C122.12 153.771 114.54 159.321 100.1 157.671C92.17 156.771 88.21 153.431 86.96 152.181C86.65 151.871 86.46 151.461 86.43 151.011C86.27 148.921 86.51 144.361 86.51 144.361L125.79 143.951H125.82Z" fill="#FFC52F"/>
<path d="M92.3099 137.681C90.8799 138.221 89.5199 138.951 88.4499 140.021C87.0999 141.361 86.2699 143.301 86.6099 145.151C87.0199 147.351 88.9399 148.991 90.9399 150.061C95.3499 152.431 100.57 152.961 105.59 152.771C110.78 152.571 116.02 151.641 120.68 149.371C123.49 148.001 127.34 145.111 125.2 141.631C124.49 140.481 123.34 139.661 122.15 139.001C116.71 135.991 110.16 135.781 103.92 135.961C100.39 136.061 96.8099 136.271 93.4399 137.291C93.0599 137.401 92.6899 137.531 92.3199 137.671L92.3099 137.681Z" fill="#FFDA40"/>
<path d="M94.6201 138.791C93.4301 139.241 92.3001 139.851 91.4101 140.741C90.2901 141.861 89.5901 143.461 89.8801 145.001C90.2201 146.831 91.8201 148.191 93.4801 149.081C97.1601 151.051 101.5 151.491 105.69 151.331C110.02 151.171 114.38 150.391 118.26 148.511C120.6 147.371 123.8 144.971 122.02 142.081C121.43 141.121 120.47 140.441 119.48 139.891C114.95 137.391 109.49 137.221 104.29 137.371C101.35 137.451 98.3701 137.631 95.5601 138.481C95.2501 138.571 94.9301 138.681 94.6301 138.791H94.6201Z" fill="#FFEEA6"/>
<path d="M121.22 136.281C121.44 139.211 121.38 140.911 121.3 141.761C121.25 142.291 121.06 142.801 120.73 143.221C119.65 144.621 117.52 146.101 117.52 146.101C117.52 146.101 109.94 151.651 95.4999 150.001C87.5699 149.101 83.6099 145.761 82.3599 144.511C82.0499 144.201 81.8599 143.791 81.8299 143.341C81.6699 141.251 81.9099 136.691 81.9099 136.691L121.19 136.281H121.22Z" fill="#FFC52F"/>
<path d="M87.7098 130.011C86.2798 130.551 84.9198 131.281 83.8498 132.351C82.4998 133.691 81.6698 135.631 82.0098 137.481C82.4198 139.681 84.3398 141.321 86.3398 142.391C90.7498 144.761 95.9698 145.291 100.99 145.101C106.18 144.901 111.42 143.971 116.08 141.701C118.89 140.331 122.74 137.441 120.6 133.961C119.89 132.811 118.74 131.991 117.55 131.331C112.11 128.321 105.56 128.111 99.3198 128.291C95.7898 128.391 92.2098 128.601 88.8398 129.621C88.4598 129.731 88.0898 129.861 87.7198 130.001L87.7098 130.011Z" fill="#FFDA40"/>
<path d="M90.02 131.121C88.83 131.571 87.7 132.181 86.81 133.071C85.69 134.191 84.99 135.791 85.28 137.331C85.62 139.161 87.22 140.521 88.88 141.411C92.56 143.381 96.9 143.821 101.09 143.661C105.42 143.501 109.78 142.721 113.66 140.841C116 139.701 119.2 137.301 117.42 134.411C116.83 133.451 115.87 132.771 114.88 132.221C110.35 129.721 104.89 129.551 99.69 129.701C96.75 129.781 93.77 129.961 90.96 130.811C90.65 130.901 90.33 131.011 90.03 131.121H90.02Z" fill="#FFEEA6"/>
<path d="M168.72 147.359C168.94 150.289 168.88 151.989 168.8 152.839C168.75 153.369 168.56 153.879 168.23 154.299C167.15 155.699 165.02 157.179 165.02 157.179C165.02 157.179 157.44 162.729 143 161.079C135.07 160.179 131.11 156.839 129.86 155.589C129.55 155.279 129.36 154.869 129.33 154.419C129.17 152.329 129.41 147.769 129.41 147.769L168.69 147.359H168.72Z" fill="#FFC52F"/>
<path d="M135.21 141.079C133.78 141.619 132.42 142.349 131.35 143.419C130 144.759 129.17 146.699 129.51 148.549C129.92 150.749 131.84 152.389 133.84 153.459C138.25 155.829 143.47 156.359 148.49 156.169C153.68 155.969 158.92 155.039 163.58 152.769C166.39 151.399 170.24 148.509 168.1 145.029C167.39 143.879 166.24 143.059 165.05 142.399C159.61 139.389 153.06 139.179 146.82 139.359C143.29 139.459 139.71 139.669 136.34 140.689C135.96 140.799 135.59 140.929 135.22 141.069L135.21 141.079Z" fill="#FFDA40"/>
<path d="M137.53 142.199C136.34 142.649 135.21 143.259 134.32 144.149C133.2 145.269 132.5 146.869 132.79 148.409C133.13 150.239 134.73 151.599 136.39 152.489C140.07 154.459 144.41 154.899 148.6 154.739C152.93 154.579 157.29 153.799 161.17 151.919C163.51 150.779 166.71 148.379 164.93 145.489C164.34 144.529 163.38 143.849 162.39 143.299C157.86 140.799 152.4 140.629 147.2 140.779C144.26 140.859 141.28 141.039 138.47 141.889C138.16 141.979 137.84 142.089 137.54 142.199H137.53Z" fill="#FFEEA6"/>
<path d="M166 139.721C166.22 142.651 166.16 144.351 166.08 145.201C166.03 145.731 165.84 146.241 165.51 146.661C164.43 148.061 162.3 149.541 162.3 149.541C162.3 149.541 154.72 155.091 140.28 153.441C132.35 152.541 128.39 149.201 127.14 147.951C126.83 147.641 126.64 147.231 126.61 146.781C126.45 144.691 126.69 140.131 126.69 140.131L165.97 139.721H166Z" fill="#FFC52F"/>
<path d="M132.49 133.45C131.06 133.99 129.7 134.72 128.63 135.79C127.28 137.13 126.45 139.07 126.79 140.92C127.2 143.12 129.12 144.76 131.12 145.83C135.53 148.2 140.75 148.73 145.77 148.54C150.96 148.34 156.2 147.41 160.86 145.14C163.67 143.77 167.52 140.88 165.38 137.4C164.67 136.25 163.52 135.43 162.33 134.77C156.89 131.76 150.34 131.55 144.1 131.73C140.57 131.83 136.99 132.04 133.62 133.06C133.24 133.17 132.87 133.3 132.5 133.44L132.49 133.45Z" fill="#FFDA40"/>
<path d="M134.81 134.561C133.62 135.011 132.49 135.621 131.6 136.511C130.48 137.631 129.78 139.231 130.07 140.771C130.41 142.601 132.01 143.961 133.67 144.851C137.35 146.821 141.69 147.261 145.88 147.101C150.21 146.941 154.57 146.161 158.45 144.281C160.79 143.141 163.99 140.741 162.21 137.851C161.62 136.891 160.66 136.211 159.67 135.661C155.14 133.161 149.68 132.991 144.48 133.141C141.54 133.221 138.56 133.401 135.75 134.251C135.44 134.341 135.12 134.451 134.82 134.561H134.81Z" fill="#FFEEA6"/>
<path d="M170.98 150.549C172.85 153.969 175.2 156.619 175.2 156.619C177.32 158.999 180.33 160.639 183.49 160.999C186.38 161.329 189.32 160.819 192.05 159.859C193.32 159.409 194.56 158.859 195.74 158.179C198.31 156.699 200.57 154.699 202.32 152.309C205.43 148.049 207.39 142.149 204.9 137.129C203.99 135.299 202.92 133.519 201.71 131.879L170.99 150.559L170.98 150.549Z" fill="#FFC52F"/>
<path d="M193.786 153.449C202.27 148.289 205.813 138.624 201.701 131.862C197.588 125.101 187.376 123.803 178.892 128.963C170.408 134.123 166.865 143.788 170.978 150.55C175.09 157.311 185.302 158.61 193.786 153.449Z" fill="#FFDA40"/>
<path d="M191.92 150.382C198.271 146.519 200.921 139.28 197.839 134.212C194.756 129.144 187.109 128.168 180.758 132.031C174.407 135.894 171.757 143.134 174.839 148.201C177.922 153.269 185.569 154.246 191.92 150.382Z" fill="#FFEEA6"/>
</g>
</g>
<defs>
<clipPath id="clip0_376_84358">
<rect width="250" height="240" fill="white"/>
</clipPath>
<clipPath id="clip1_376_84358">
<rect width="224.93" height="208.1" fill="white" transform="translate(13 32)"/>
</clipPath>
</defs>
</svg>
