<svg width="250" height="240" viewBox="0 0 250 240" fill="none" xmlns="http://www.w3.org/2000/svg">
<g clip-path="url(#clip0_376_84357)">
<g clip-path="url(#clip1_376_84357)">
<path d="M231.21 119.35H226.33C223.4 98.63 214.11 79.96 200.51 65.35C202.92 55.75 208.28 53.63 208.28 53.63C212.55 51.62 212.05 47.86 212.05 47.86C211.55 43.84 205.27 41.58 205.27 41.58C193.67 38.76 184.05 43.93 178.84 47.77C163.78 38.71 146.16 33.5 127.32 33.5C75.6099 33.5 33.0599 72.76 27.8599 123.1C26.6499 123.74 25.2699 124.06 23.9399 123.76C22.0899 123.34 20.5199 121.49 20.8599 119.62C21.1499 117.97 22.6599 116.87 23.9799 115.83C25.2999 114.79 26.6399 113.35 26.3899 111.69C26.1299 110.02 24.2299 108.99 22.5499 109.21C20.8699 109.43 19.4699 110.57 18.3599 111.84C14.0299 116.84 12.1499 127.04 19.0899 130.72C20.8499 131.65 22.8399 132.07 24.8199 132.29C25.6599 132.38 26.5499 132.42 27.3299 132.11C27.3299 132.57 27.3099 133.04 27.3099 133.5C27.3099 172.98 50.1899 207.12 83.4199 223.37C83.3699 223.46 83.3099 223.54 83.2799 223.63L78.8999 233.6C77.8199 236.05 80.1699 238.6 83.5099 238.6H92.9399C94.9399 238.6 96.7299 237.65 97.4699 236.21L100.68 229.91C109.16 232.25 118.1 233.5 127.32 233.5C136.54 233.5 145.48 232.24 153.96 229.91L157.17 236.21C157.9 237.65 159.7 238.6 161.7 238.6H171.13C174.47 238.6 176.82 236.05 175.74 233.6L171.36 223.63C171.32 223.54 171.26 223.46 171.22 223.37C198.25 210.15 218.43 185.09 225.02 154.95H231.22C234.09 154.95 236.44 152.6 236.44 149.73V124.57C236.44 121.7 234.09 119.35 231.22 119.35H231.21Z" fill="#FFF3C0"/>
<path d="M171.13 240.1H161.7C159.13 240.1 156.83 238.84 155.83 236.89L153.18 231.67C136.35 236.09 118.29 236.09 101.47 231.67L98.8201 236.89C97.8301 238.84 95.5301 240.1 92.9501 240.1H83.5201C81.1701 240.1 79.0301 239.04 77.9201 237.34C77.0501 236.01 76.9101 234.42 77.5401 232.99L81.4601 224.06C65.2101 215.82 51.4701 203.36 41.6501 187.95C31.3601 171.79 25.8901 153.09 25.8201 133.85C25.4201 133.85 25.0301 133.82 24.6601 133.78C22.0801 133.5 20.0901 132.95 18.3901 132.05C15.6101 130.58 13.8201 128.09 13.2201 124.85C12.3701 120.33 14.0201 114.58 17.2301 110.87C18.8301 109.02 20.5601 107.96 22.3601 107.73C24.7001 107.42 27.4701 108.86 27.8701 111.47C28.1601 113.37 27.1701 115.23 24.9101 117.02L24.6801 117.2C23.6101 118.04 22.5101 118.9 22.3401 119.9C22.1701 120.88 23.1101 122.05 24.2801 122.31C25.0701 122.49 25.8401 122.34 26.4701 122.1C29.2101 97.6 40.8001 74.97 59.1501 58.32C77.8401 41.34 102.05 32 127.32 32C145.45 32 163.21 36.83 178.75 45.98C184.01 42.3 193.85 37.27 205.61 40.13L205.76 40.18C206.49 40.44 212.92 42.89 213.52 47.68C213.55 47.87 214.11 52.55 208.9 55C208.65 55.11 204.39 56.99 202.15 64.95C215.76 79.8 224.54 98.05 227.6 117.86H231.19C234.9 117.86 237.91 120.87 237.91 124.58V149.74C237.91 153.45 234.9 156.46 231.19 156.46H226.19C219.48 185.45 199.78 210.56 173.17 224.07L177.09 233C177.72 234.43 177.58 236.02 176.71 237.35C175.6 239.05 173.45 240.11 171.11 240.11L171.13 240.1ZM154.75 228.13L158.51 235.52C158.99 236.46 160.27 237.09 161.7 237.09H171.13C172.45 237.09 173.67 236.54 174.22 235.69C174.54 235.2 174.59 234.7 174.36 234.19L169.9 224.09L169.13 222.71L170.55 222.01C197.37 208.89 217.18 183.69 223.54 154.62L223.8 153.44H231.2C233.25 153.44 234.92 151.77 234.92 149.72V124.56C234.92 122.51 233.25 120.84 231.2 120.84H225.01L224.83 119.55C222 99.58 213.21 81.19 199.4 66.37L198.84 65.77L199.04 64.98C201.61 54.75 207.46 52.33 207.71 52.23C210.74 50.8 210.57 48.31 210.54 48.03C210.23 45.54 206.37 43.59 204.81 43.01C193.63 40.33 184.29 45.59 179.7 48.97L178.89 49.56L178.03 49.04C162.76 39.84 145.22 34.98 127.3 34.98C102.78 34.98 79.2801 44.05 61.1301 60.51C43.1101 76.86 31.8201 99.14 29.3301 123.23L29.2501 124.02L28.5401 124.4C26.8901 125.28 25.1801 125.56 23.5901 125.2C20.8401 124.58 18.9001 121.9 19.3601 119.33C19.7401 117.21 21.4401 115.87 22.8001 114.8L23.0201 114.62C23.9401 113.89 25.0201 112.82 24.8701 111.88C24.7601 111.14 23.6801 110.54 22.7101 110.66C21.6601 110.79 20.5701 111.51 19.4701 112.79C16.8601 115.81 15.4601 120.63 16.1401 124.26C16.5801 126.6 17.8001 128.32 19.7701 129.37C21.1201 130.09 22.7701 130.53 24.9601 130.77C25.5701 130.84 26.2701 130.88 26.7601 130.69L28.8401 129.87L28.8001 132.49C28.8001 132.82 28.7901 133.15 28.7901 133.49C28.7901 152.28 34.1001 170.56 44.1501 186.33C53.9301 201.69 67.7301 214.03 84.0601 222.02L85.4801 222.72L84.6301 224.24L80.2501 234.2C80.0301 234.71 80.0801 235.21 80.3901 235.7C80.9401 236.55 82.1601 237.1 83.4801 237.1H92.9101C94.3401 237.1 95.6201 236.47 96.1001 235.53L99.8601 228.14L101.04 228.47C118.08 233.17 136.48 233.17 153.53 228.47L154.71 228.14L154.75 228.13Z" fill="#FFEEA6"/>
<path d="M127.32 223.26C176.893 223.26 217.08 183.073 217.08 133.5C217.08 83.9272 176.893 43.7402 127.32 43.7402C77.747 43.7402 37.5601 83.9272 37.5601 133.5C37.5601 183.073 77.747 223.26 127.32 223.26Z" fill="#FFFAE6"/>
<path d="M174.68 196.991C185.798 196.991 194.81 188.61 194.81 178.271C194.81 167.932 185.798 159.551 174.68 159.551C163.563 159.551 154.55 167.932 154.55 178.271C154.55 188.61 163.563 196.991 174.68 196.991Z" fill="#FFDA40"/>
<path d="M174.68 192.97C183.412 192.97 190.49 186.389 190.49 178.27C190.49 170.152 183.412 163.57 174.68 163.57C165.948 163.57 158.87 170.152 158.87 178.27C158.87 186.389 165.948 192.97 174.68 192.97Z" fill="#FFEEA6"/>
<path d="M83.6603 198.07C93.7782 198.07 101.98 190.445 101.98 181.04C101.98 171.634 93.7782 164.01 83.6603 164.01C73.5425 164.01 65.3403 171.634 65.3403 181.04C65.3403 190.445 73.5425 198.07 83.6603 198.07Z" fill="#FFDA40"/>
<path d="M83.6605 194.42C91.6079 194.42 98.0505 188.43 98.0505 181.04C98.0505 173.651 91.6079 167.66 83.6605 167.66C75.7131 167.66 69.2705 173.651 69.2705 181.04C69.2705 188.43 75.7131 194.42 83.6605 194.42Z" fill="#FFEEA6"/>
<path d="M166.52 196.52C166.78 200.04 166.71 202.08 166.62 203.1C166.56 203.74 166.33 204.35 165.94 204.86C164.65 206.54 162.09 208.31 162.09 208.31C162.09 208.31 152.99 214.97 135.65 213C126.13 211.92 121.37 207.9 119.88 206.41C119.5 206.03 119.28 205.54 119.24 205.01C119.05 202.5 119.34 197.02 119.34 197.02L166.51 196.52H166.52Z" fill="#FFC52F"/>
<path d="M126.29 188.989C124.57 189.629 122.94 190.519 121.66 191.799C120.04 193.409 119.04 195.729 119.45 197.959C119.94 200.609 122.24 202.569 124.65 203.859C129.95 206.709 136.21 207.339 142.25 207.119C148.49 206.879 154.77 205.759 160.36 203.039C163.74 201.399 168.35 197.929 165.79 193.749C164.94 192.369 163.56 191.379 162.12 190.589C155.59 186.969 147.72 186.729 140.23 186.939C135.99 187.059 131.7 187.309 127.64 188.539C127.19 188.679 126.74 188.829 126.29 188.989V188.989Z" fill="#FFDA40"/>
<path d="M129.07 190.32C127.64 190.86 126.28 191.59 125.21 192.66C123.86 194 123.03 195.93 123.37 197.78C123.78 199.98 125.7 201.61 127.7 202.68C132.11 205.05 137.33 205.58 142.36 205.39C147.55 205.19 152.79 204.26 157.45 202C160.26 200.63 164.11 197.75 161.97 194.28C161.26 193.13 160.11 192.31 158.92 191.65C153.48 188.64 146.93 188.44 140.69 188.62C137.16 188.72 133.58 188.93 130.2 189.95C129.82 190.06 129.45 190.19 129.08 190.33L129.07 190.32Z" fill="#FFEEA6"/>
<path d="M172.42 189.211C172.68 192.731 172.61 194.771 172.52 195.791C172.46 196.431 172.23 197.041 171.84 197.551C170.55 199.231 167.99 201.001 167.99 201.001C167.99 201.001 158.89 207.661 141.55 205.691C132.03 204.611 127.27 200.591 125.78 199.101C125.4 198.721 125.18 198.231 125.14 197.701C124.95 195.191 125.24 189.711 125.24 189.711L172.41 189.211H172.42Z" fill="#FFC52F"/>
<path d="M132.18 181.68C130.46 182.32 128.83 183.21 127.55 184.49C125.93 186.1 124.93 188.42 125.34 190.65C125.83 193.3 128.13 195.26 130.54 196.55C135.84 199.4 142.1 200.03 148.14 199.81C154.38 199.57 160.66 198.45 166.25 195.73C169.63 194.09 174.24 190.62 171.68 186.44C170.83 185.06 169.45 184.07 168.01 183.28C161.48 179.66 153.61 179.42 146.12 179.63C141.88 179.75 137.59 180 133.53 181.23C133.08 181.37 132.63 181.52 132.18 181.68V181.68Z" fill="#FFDA40"/>
<path d="M134.96 183.021C133.53 183.561 132.17 184.291 131.1 185.361C129.75 186.701 128.92 188.631 129.26 190.481C129.67 192.681 131.59 194.311 133.59 195.381C138 197.751 143.22 198.281 148.25 198.091C153.44 197.891 158.68 196.961 163.34 194.701C166.15 193.331 170 190.451 167.86 186.981C167.15 185.831 166 185.011 164.81 184.351C159.37 181.341 152.82 181.141 146.58 181.321C143.05 181.421 139.47 181.631 136.09 182.651C135.71 182.761 135.34 182.891 134.97 183.031L134.96 183.021Z" fill="#FFEEA6"/>
<path d="M177.8 182.221C178.06 185.741 177.99 187.781 177.9 188.801C177.84 189.441 177.61 190.051 177.22 190.561C175.93 192.241 173.37 194.011 173.37 194.011C173.37 194.011 164.27 200.671 146.93 198.701C137.41 197.621 132.65 193.601 131.16 192.111C130.78 191.731 130.56 191.241 130.52 190.711C130.33 188.201 130.62 182.721 130.62 182.721L177.79 182.221H177.8Z" fill="#FFC52F"/>
<path d="M137.56 174.69C135.84 175.33 134.21 176.22 132.93 177.5C131.31 179.11 130.31 181.43 130.72 183.66C131.21 186.31 133.51 188.27 135.92 189.56C141.22 192.41 147.48 193.04 153.52 192.82C159.76 192.58 166.04 191.46 171.63 188.74C175.01 187.1 179.62 183.63 177.06 179.45C176.21 178.07 174.83 177.08 173.39 176.29C166.86 172.67 158.99 172.43 151.5 172.64C147.26 172.76 142.97 173.01 138.91 174.24C138.46 174.38 138.01 174.53 137.56 174.69V174.69Z" fill="#FFDA40"/>
<path d="M140.34 176.03C138.91 176.57 137.55 177.3 136.48 178.37C135.13 179.71 134.3 181.64 134.64 183.49C135.05 185.69 136.97 187.32 138.97 188.39C143.38 190.76 148.6 191.29 153.63 191.1C158.82 190.9 164.06 189.97 168.72 187.71C171.53 186.34 175.38 183.46 173.24 179.99C172.53 178.84 171.38 178.02 170.19 177.36C164.75 174.35 158.2 174.15 151.96 174.33C148.43 174.43 144.85 174.64 141.47 175.66C141.09 175.77 140.72 175.9 140.35 176.04L140.34 176.03Z" fill="#FFEEA6"/>
<path d="M172.67 173.451C172.93 176.971 172.86 179.011 172.77 180.031C172.71 180.671 172.48 181.281 172.09 181.791C170.8 183.471 168.24 185.241 168.24 185.241C168.24 185.241 159.14 191.901 141.8 189.931C132.28 188.851 127.52 184.831 126.03 183.341C125.65 182.961 125.43 182.471 125.39 181.941C125.2 179.431 125.49 173.951 125.49 173.951L172.66 173.451H172.67Z" fill="#FFC52F"/>
<path d="M132.44 165.921C130.72 166.561 129.09 167.451 127.81 168.731C126.19 170.341 125.19 172.661 125.6 174.891C126.09 177.541 128.39 179.501 130.8 180.791C136.1 183.641 142.36 184.271 148.4 184.051C154.64 183.811 160.92 182.691 166.51 179.971C169.89 178.331 174.5 174.861 171.94 170.681C171.09 169.301 169.71 168.311 168.27 167.521C161.74 163.901 153.87 163.661 146.38 163.871C142.14 163.991 137.85 164.241 133.79 165.471C133.34 165.611 132.89 165.761 132.44 165.921V165.921Z" fill="#FFDA40"/>
<path d="M135.22 167.251C133.79 167.791 132.43 168.521 131.36 169.591C130.01 170.931 129.18 172.861 129.52 174.711C129.93 176.911 131.85 178.541 133.85 179.611C138.26 181.981 143.48 182.511 148.51 182.321C153.7 182.121 158.94 181.191 163.6 178.931C166.41 177.561 170.26 174.681 168.12 171.211C167.41 170.061 166.26 169.241 165.07 168.581C159.63 165.571 153.08 165.371 146.84 165.551C143.31 165.651 139.73 165.861 136.35 166.881C135.97 166.991 135.6 167.121 135.23 167.261L135.22 167.251Z" fill="#FFEEA6"/>
<path d="M129.76 200.76C130.01 204.12 129.94 206.08 129.86 207.05C129.81 207.66 129.59 208.24 129.21 208.73C127.98 210.34 125.53 212.03 125.53 212.03C125.53 212.03 116.83 218.4 100.25 216.51C91.1404 215.47 86.6004 211.64 85.1704 210.21C84.8104 209.85 84.6003 209.38 84.5603 208.87C84.3803 206.47 84.6604 201.23 84.6604 201.23L129.76 200.76V200.76Z" fill="#FFC52F"/>
<path d="M91.2902 193.551C89.6502 194.171 88.0902 195.011 86.8602 196.241C85.3102 197.781 84.3602 200.001 84.7502 202.131C85.2202 204.661 87.4202 206.531 89.7202 207.771C94.7902 210.501 100.77 211.101 106.55 210.881C112.51 210.651 118.52 209.581 123.87 206.981C127.1 205.411 131.51 202.091 129.06 198.101C128.25 196.781 126.93 195.831 125.56 195.081C119.32 191.621 111.79 191.391 104.63 191.591C100.57 191.711 96.4702 191.951 92.5902 193.121C92.1602 193.251 91.7302 193.391 91.3002 193.551H91.2902Z" fill="#FFDA40"/>
<path d="M93.9502 194.83C92.5802 195.34 91.2802 196.05 90.2602 197.06C88.9702 198.34 88.1702 200.19 88.5002 201.96C88.8902 204.06 90.7302 205.62 92.6402 206.65C96.8602 208.92 101.85 209.42 106.65 209.24C111.62 209.05 116.62 208.16 121.08 206C123.77 204.69 127.44 201.94 125.4 198.62C124.72 197.52 123.62 196.74 122.48 196.11C117.28 193.24 111.01 193.04 105.04 193.21C101.66 193.31 98.2402 193.51 95.0102 194.48C94.6502 194.59 94.2902 194.71 93.9402 194.84L93.9502 194.83Z" fill="#FFEEA6"/>
<path d="M123.55 195.08C123.8 198.36 123.73 200.27 123.64 201.22C123.59 201.82 123.37 202.38 123.01 202.86C121.81 204.43 119.42 206.08 119.42 206.08C119.42 206.08 110.94 212.3 94.76 210.45C85.88 209.44 81.45 205.7 80.05 204.3C79.7 203.95 79.49 203.49 79.46 202.99C79.29 200.65 79.55 195.54 79.55 195.54L123.55 195.08V195.08Z" fill="#FFC52F"/>
<path d="M86.0202 188.05C84.4202 188.65 82.9002 189.48 81.7002 190.67C80.1902 192.17 79.2602 194.34 79.6402 196.42C80.1002 198.89 82.2502 200.72 84.4902 201.92C89.4302 204.58 95.2702 205.17 100.9 204.96C106.72 204.74 112.58 203.69 117.79 201.15C120.94 199.62 125.24 196.38 122.85 192.48C122.06 191.19 120.77 190.27 119.43 189.53C113.34 186.16 106 185.93 99.0102 186.13C95.0502 186.24 91.0502 186.48 87.2702 187.62C86.8502 187.75 86.4302 187.89 86.0102 188.04L86.0202 188.05Z" fill="#FFDA40"/>
<path d="M88.61 189.301C87.27 189.801 86.01 190.491 85.01 191.481C83.75 192.731 82.98 194.531 83.3 196.261C83.68 198.311 85.47 199.831 87.34 200.831C91.46 203.041 96.32 203.531 101.01 203.351C105.86 203.171 110.74 202.301 115.08 200.191C117.71 198.921 121.29 196.231 119.3 192.991C118.64 191.921 117.57 191.151 116.45 190.541C111.38 187.741 105.27 187.551 99.44 187.711C96.14 187.801 92.81 188.001 89.66 188.951C89.31 189.061 88.96 189.171 88.61 189.301V189.301Z" fill="#FFEEA6"/>
<path d="M129.05 186.91C129.3 190.27 129.23 192.23 129.15 193.2C129.1 193.81 128.88 194.39 128.5 194.88C127.27 196.49 124.82 198.18 124.82 198.18C124.82 198.18 116.12 204.55 99.5399 202.66C90.4299 201.62 85.8899 197.79 84.4599 196.36C84.0999 196 83.8899 195.53 83.8499 195.02C83.6699 192.62 83.9499 187.38 83.9499 187.38L129.05 186.91V186.91Z" fill="#FFC52F"/>
<path d="M90.5699 179.711C88.9299 180.331 87.3699 181.171 86.1399 182.401C84.5899 183.941 83.6399 186.161 84.0299 188.291C84.4999 190.821 86.6999 192.691 88.9999 193.931C94.0699 196.661 100.05 197.261 105.83 197.041C111.79 196.811 117.8 195.741 123.15 193.141C126.38 191.571 130.79 188.251 128.34 184.261C127.53 182.941 126.21 181.991 124.84 181.241C118.6 177.781 111.07 177.551 103.91 177.751C99.8499 177.871 95.7499 178.111 91.8699 179.281C91.4399 179.411 91.0099 179.551 90.5799 179.711H90.5699Z" fill="#FFDA40"/>
<path d="M93.23 180.99C91.86 181.5 90.56 182.21 89.54 183.22C88.25 184.5 87.45 186.35 87.78 188.12C88.17 190.22 90.01 191.78 91.92 192.81C96.14 195.08 101.13 195.58 105.93 195.4C110.9 195.21 115.9 194.32 120.36 192.16C123.05 190.85 126.72 188.1 124.68 184.78C124 183.68 122.9 182.9 121.76 182.27C116.56 179.4 110.29 179.2 104.32 179.37C100.94 179.47 97.52 179.67 94.29 180.64C93.93 180.75 93.57 180.87 93.22 181L93.23 180.99Z" fill="#FFEEA6"/>
<path d="M97.8599 181.75C99.7299 185.17 102.08 187.82 102.08 187.82C104.2 190.2 107.21 191.84 110.37 192.2C113.26 192.53 116.2 192.02 118.93 191.06C120.2 190.61 121.44 190.06 122.62 189.38C125.19 187.9 127.45 185.9 129.2 183.51C132.31 179.25 134.27 173.35 131.78 168.33C130.87 166.5 129.8 164.72 128.59 163.08L97.8699 181.76L97.8599 181.75Z" fill="#FFC52F"/>
<path d="M120.668 184.654C129.152 179.494 132.696 169.829 128.583 163.068C124.47 156.306 114.259 155.008 105.775 160.168C97.2907 165.328 93.7472 174.993 97.8599 181.755C101.973 188.516 112.184 189.815 120.668 184.654Z" fill="#FFDA40"/>
<path d="M118.803 181.588C125.154 177.724 127.804 170.485 124.721 165.417C121.639 160.349 113.992 159.373 107.64 163.236C101.289 167.099 98.6394 174.339 101.722 179.406C104.804 184.474 112.452 185.451 118.803 181.588Z" fill="#FFEEA6"/>
</g>
</g>
<defs>
<clipPath id="clip0_376_84357">
<rect width="250" height="240" fill="white"/>
</clipPath>
<clipPath id="clip1_376_84357">
<rect width="224.92" height="208.1" fill="white" transform="translate(13 32)"/>
</clipPath>
</defs>
</svg>
