<svg width="250" height="240" viewBox="0 0 250 240" fill="none" xmlns="http://www.w3.org/2000/svg">
<g clip-path="url(#clip0_376_84352)">
<g clip-path="url(#clip1_376_84352)">
<path d="M231.21 119.35H226.33C223.4 98.63 214.11 79.96 200.51 65.35C202.92 55.75 208.28 53.63 208.28 53.63C212.55 51.62 212.05 47.86 212.05 47.86C211.55 43.84 205.27 41.58 205.27 41.58C193.67 38.76 184.05 43.93 178.84 47.77C163.78 38.71 146.16 33.5 127.32 33.5C75.6099 33.5 33.0599 72.76 27.8599 123.1C26.6499 123.74 25.2699 124.06 23.9399 123.76C22.0899 123.34 20.5199 121.49 20.8599 119.62C21.1499 117.97 22.6599 116.87 23.9799 115.83C25.2999 114.79 26.6399 113.35 26.3899 111.69C26.1299 110.02 24.2299 108.99 22.5499 109.21C20.8699 109.43 19.4699 110.57 18.3599 111.84C14.0299 116.84 12.1499 127.04 19.0899 130.72C20.8499 131.65 22.8399 132.07 24.8199 132.29C25.6599 132.38 26.5499 132.42 27.3299 132.11C27.3299 132.57 27.3099 133.04 27.3099 133.5C27.3099 172.98 50.1899 207.12 83.4199 223.37C83.3699 223.46 83.3099 223.54 83.2799 223.63L78.8999 233.6C77.8199 236.05 80.1699 238.6 83.5099 238.6H92.9399C94.9399 238.6 96.7299 237.65 97.4699 236.21L100.68 229.91C109.16 232.25 118.1 233.5 127.32 233.5C136.54 233.5 145.48 232.24 153.96 229.91L157.17 236.21C157.9 237.65 159.7 238.6 161.7 238.6H171.13C174.47 238.6 176.82 236.05 175.74 233.6L171.36 223.63C171.32 223.54 171.26 223.46 171.22 223.37C198.25 210.15 218.43 185.09 225.02 154.95H231.22C234.09 154.95 236.44 152.6 236.44 149.73V124.57C236.44 121.7 234.09 119.35 231.22 119.35H231.21Z" fill="#FFF3C0"/>
<path d="M171.13 240.1H161.7C159.13 240.1 156.83 238.84 155.83 236.89L153.18 231.67C136.35 236.09 118.29 236.09 101.47 231.67L98.8199 236.89C97.8299 238.84 95.5299 240.1 92.9499 240.1H83.5199C81.1699 240.1 79.0299 239.04 77.9199 237.34C77.0499 236.01 76.9099 234.42 77.5399 232.99L81.4599 224.06C65.2099 215.82 51.4699 203.36 41.6499 187.95C31.3599 171.79 25.8899 153.09 25.8199 133.85C25.4199 133.85 25.0299 133.82 24.6599 133.78C22.0799 133.5 20.0899 132.95 18.3899 132.05C15.6099 130.58 13.8199 128.09 13.2199 124.85C12.3699 120.33 14.0199 114.58 17.2299 110.87C18.8299 109.02 20.5599 107.96 22.3599 107.73C24.6899 107.42 27.4699 108.86 27.8699 111.47C28.1599 113.37 27.1599 115.23 24.9099 117.02L24.6799 117.2C23.6199 118.04 22.5199 118.9 22.3399 119.89C22.1699 120.87 23.1099 122.04 24.2799 122.3C25.0699 122.48 25.8399 122.33 26.4699 122.09C29.2099 97.59 40.7999 74.96 59.1499 58.31C77.8399 41.34 102.05 32 127.32 32C145.45 32 163.21 36.83 178.75 45.98C184.01 42.3 193.85 37.27 205.61 40.13L205.76 40.18C206.49 40.44 212.92 42.89 213.52 47.68C213.55 47.87 214.11 52.55 208.9 55C208.65 55.11 204.39 56.99 202.15 64.95C215.76 79.8 224.54 98.05 227.6 117.86H231.19C234.9 117.86 237.91 120.87 237.91 124.58V149.74C237.91 153.45 234.9 156.46 231.19 156.46H226.19C219.48 185.45 199.78 210.56 173.17 224.07L177.09 233C177.72 234.43 177.58 236.02 176.71 237.35C175.6 239.05 173.45 240.11 171.11 240.11L171.13 240.1ZM154.75 228.13L158.51 235.52C158.99 236.46 160.27 237.09 161.7 237.09H171.13C172.45 237.09 173.67 236.54 174.22 235.69C174.54 235.2 174.59 234.7 174.36 234.19L169.9 224.09L169.13 222.71L170.55 222.01C197.37 208.89 217.18 183.69 223.54 154.62L223.8 153.44H231.21C233.26 153.44 234.93 151.77 234.93 149.72V124.56C234.93 122.51 233.26 120.84 231.21 120.84H225.02L224.84 119.55C222.01 99.58 213.22 81.19 199.41 66.37L198.85 65.77L199.05 64.98C201.62 54.75 207.47 52.33 207.72 52.23C210.75 50.8 210.58 48.31 210.55 48.03C210.24 45.54 206.38 43.59 204.82 43.01C193.64 40.33 184.3 45.59 179.71 48.97L178.9 49.56L178.04 49.04C162.77 39.84 145.23 34.98 127.31 34.98C102.79 34.98 79.2899 44.05 61.1399 60.51C43.1199 76.86 31.8299 99.14 29.3399 123.23L29.2599 124.02L28.5499 124.4C26.8999 125.28 25.1799 125.56 23.5999 125.2C20.8499 124.58 18.9099 121.9 19.3699 119.33C19.7499 117.21 21.4499 115.87 22.8099 114.8L23.0399 114.62C23.9599 113.89 25.0399 112.82 24.8899 111.88C24.7699 111.14 23.6999 110.53 22.7299 110.66C21.6799 110.79 20.5899 111.51 19.4899 112.79C16.8799 115.81 15.4799 120.63 16.1599 124.25C16.5999 126.59 17.8199 128.31 19.7899 129.36C21.1399 130.08 22.7899 130.52 24.9799 130.76C25.5899 130.83 26.2899 130.87 26.7799 130.68L28.8599 129.86L28.8199 132.57C28.8199 132.87 28.8199 133.17 28.8199 133.47C28.8199 152.26 34.1299 170.54 44.1799 186.31C53.9599 201.67 67.7599 214.01 84.0899 222L85.4999 222.69L84.6599 224.22L80.2799 234.18C80.0599 234.69 80.1099 235.19 80.4199 235.68C80.9699 236.53 82.1899 237.08 83.5099 237.08H92.9399C94.3699 237.08 95.6499 236.45 96.1299 235.51L99.8899 228.12L101.07 228.45C118.11 233.15 136.51 233.15 153.56 228.45L154.74 228.12L154.75 228.13Z" fill="#FFEEA6"/>
<path d="M127.32 223.26C176.893 223.26 217.08 183.073 217.08 133.5C217.08 83.9272 176.893 43.7402 127.32 43.7402C77.7467 43.7402 37.5598 83.9272 37.5598 133.5C37.5598 183.073 77.7467 223.26 127.32 223.26Z" fill="#FFFAE6"/>
</g>
</g>
<defs>
<clipPath id="clip0_376_84352">
<rect width="250" height="240" fill="white"/>
</clipPath>
<clipPath id="clip1_376_84352">
<rect width="224.92" height="208.1" fill="white" transform="translate(13 32)"/>
</clipPath>
</defs>
</svg>
