<svg width="100%" height="100%" viewBox="0 0 225 209" fill="none" xmlns="http://www.w3.org/2000/svg">
<g clip-path="url(#clip0_113_24984)">
<path d="M218.21 87.35H213.33C210.4 66.63 201.11 47.96 187.51 33.35C189.92 23.75 195.28 21.63 195.28 21.63C199.55 19.62 199.05 15.86 199.05 15.86C198.55 11.84 192.27 9.58 192.27 9.58C180.67 6.76 171.05 11.93 165.84 15.77C150.78 6.71 133.16 1.5 114.32 1.5C62.6104 1.5 20.0604 40.76 14.8604 91.1C13.6504 91.74 12.2704 92.06 10.9404 91.76C9.09043 91.34 7.52043 89.49 7.86043 87.62C8.15043 85.97 9.66043 84.87 10.9804 83.83C12.3004 82.79 13.6404 81.35 13.3904 79.69C13.1304 78.02 11.2304 76.99 9.55043 77.21C7.87043 77.43 6.47043 78.57 5.36043 79.84C1.03043 84.84 -0.849571 95.04 6.09043 98.72C7.85043 99.65 9.84043 100.07 11.8204 100.29C12.6604 100.38 13.5504 100.42 14.3304 100.11C14.3304 100.57 14.3104 101.04 14.3104 101.5C14.3104 140.98 37.1904 175.12 70.4204 191.37C70.3704 191.46 70.3104 191.54 70.2804 191.63L65.9004 201.6C64.8204 204.05 67.1704 206.6 70.5104 206.6H79.9404C81.9404 206.6 83.7304 205.65 84.4704 204.21L87.6804 197.91C96.1604 200.25 105.1 201.5 114.32 201.5C123.54 201.5 132.48 200.24 140.96 197.91L144.17 204.21C144.9 205.65 146.7 206.6 148.7 206.6H158.13C161.47 206.6 163.82 204.05 162.74 201.6L158.36 191.63C158.32 191.54 158.26 191.46 158.22 191.37C185.25 178.15 205.43 153.09 212.02 122.95H218.22C221.09 122.95 223.44 120.6 223.44 117.73V92.57C223.44 89.7 221.09 87.35 218.22 87.35H218.21Z" fill="#FFF3C0"/>
<path d="M158.13 208.1H148.7C146.13 208.1 143.83 206.84 142.83 204.89L140.18 199.67C123.35 204.09 105.29 204.09 88.4697 199.67L85.8196 204.89C84.8296 206.84 82.5296 208.1 79.9496 208.1H70.5196C68.1696 208.1 66.0296 207.04 64.9196 205.34C64.0496 204.01 63.9096 202.42 64.5396 200.99L68.4596 192.06C52.2096 183.82 38.4697 171.36 28.6497 155.95C18.3597 139.79 12.8897 121.09 12.8197 101.85C12.4197 101.85 12.0297 101.82 11.6597 101.78C9.07965 101.5 7.08965 100.95 5.38965 100.05C2.60965 98.58 0.819652 96.09 0.219652 92.85C-0.630348 88.33 1.01965 82.58 4.22965 78.87C5.82965 77.02 7.55965 75.96 9.35965 75.73C11.6897 75.42 14.4697 76.86 14.8697 79.47C15.1597 81.37 14.1597 83.23 11.9097 85.02L11.6797 85.2C10.6197 86.04 9.51965 86.9 9.33965 87.89C9.16965 88.87 10.1097 90.04 11.2797 90.3C12.0697 90.48 12.8397 90.33 13.4697 90.09C16.2097 65.59 27.7997 42.96 46.1497 26.31C64.8397 9.34 89.0496 0 114.32 0C132.45 0 150.21 4.83 165.75 13.98C171.01 10.3 180.85 5.27 192.61 8.13L192.76 8.18C193.49 8.44 199.92 10.89 200.52 15.68C200.55 15.87 201.11 20.55 195.9 23C195.65 23.11 191.39 24.99 189.15 32.95C202.76 47.8 211.54 66.05 214.6 85.86H218.19C221.9 85.86 224.91 88.87 224.91 92.58V117.74C224.91 121.45 221.9 124.46 218.19 124.46H213.19C206.48 153.45 186.78 178.56 160.17 192.07L164.09 201C164.72 202.43 164.58 204.02 163.71 205.35C162.6 207.05 160.45 208.11 158.11 208.11L158.13 208.1ZM141.75 196.13L145.51 203.52C145.99 204.46 147.27 205.09 148.7 205.09H158.13C159.45 205.09 160.67 204.54 161.22 203.69C161.54 203.2 161.59 202.7 161.36 202.19L156.9 192.09L156.13 190.71L157.55 190.01C184.37 176.89 204.18 151.69 210.54 122.62L210.8 121.44H218.21C220.26 121.44 221.93 119.77 221.93 117.72V92.56C221.93 90.51 220.26 88.84 218.21 88.84H212.02L211.84 87.55C209.01 67.58 200.22 49.19 186.41 34.37L185.85 33.77L186.05 32.98C188.62 22.75 194.47 20.33 194.72 20.23C197.75 18.8 197.58 16.31 197.55 16.03C197.24 13.54 193.38 11.59 191.82 11.01C180.64 8.33 171.3 13.59 166.71 16.97L165.9 17.56L165.04 17.04C149.77 7.84 132.23 2.98 114.31 2.98C89.7896 2.98 66.2897 12.05 48.1397 28.51C30.1197 44.86 18.8297 67.14 16.3397 91.23L16.2597 92.02L15.5497 92.4C13.8997 93.28 12.1797 93.56 10.5997 93.2C7.84965 92.58 5.90965 89.9 6.36965 87.33C6.74965 85.21 8.44965 83.87 9.80965 82.8L10.0397 82.62C10.9597 81.89 12.0397 80.82 11.8897 79.88C11.7697 79.14 10.6997 78.53 9.72965 78.66C8.67965 78.79 7.58965 79.51 6.48965 80.79C3.87965 83.81 2.47965 88.63 3.15965 92.25C3.59965 94.59 4.81965 96.31 6.78965 97.36C8.13965 98.08 9.78965 98.52 11.9797 98.76C12.5897 98.83 13.2897 98.87 13.7797 98.68L15.8597 97.86L15.8197 100.57C15.8197 100.87 15.8197 101.17 15.8197 101.47C15.8197 120.26 21.1297 138.54 31.1797 154.31C40.9597 169.67 54.7596 182.01 71.0896 190L72.4996 190.69L71.6597 192.22L67.2796 202.18C67.0596 202.69 67.1096 203.19 67.4196 203.68C67.9696 204.53 69.1897 205.08 70.5097 205.08H79.9397C81.3697 205.08 82.6496 204.45 83.1296 203.51L86.8896 196.12L88.0696 196.45C105.11 201.15 123.51 201.15 140.56 196.45L141.74 196.12L141.75 196.13Z" fill="#FFEEA6"/>
<path d="M114.321 191.26C163.894 191.26 204.081 151.073 204.081 101.5C204.081 51.9272 163.894 11.7402 114.321 11.7402C64.7475 11.7402 24.5605 51.9272 24.5605 101.5C24.5605 151.073 64.7475 191.26 114.321 191.26Z" fill="#FFFAE6"/>
</g>
<defs>
<clipPath id="clip0_113_24984">
<rect width="224.92" height="208.1" fill="white"/>
</clipPath>
</defs>
</svg>
