<svg width="100%" height="100%" viewBox="0 0 225 209" fill="none" xmlns="http://www.w3.org/2000/svg">
<g clip-path="url(#clip0_113_24990)">
<path d="M218.21 87.35H213.33C210.4 66.63 201.11 47.96 187.51 33.35C189.92 23.75 195.28 21.63 195.28 21.63C199.55 19.62 199.05 15.86 199.05 15.86C198.55 11.84 192.27 9.58 192.27 9.58C180.67 6.76 171.05 11.93 165.84 15.77C150.78 6.71 133.16 1.5 114.32 1.5C62.6104 1.5 20.0604 40.76 14.8604 91.1C13.6504 91.74 12.2704 92.06 10.9404 91.76C9.09043 91.34 7.52043 89.49 7.86043 87.62C8.15043 85.97 9.66043 84.87 10.9804 83.83C12.3004 82.79 13.6404 81.35 13.3904 79.69C13.1304 78.02 11.2304 76.99 9.55043 77.21C7.87043 77.43 6.47043 78.57 5.36043 79.84C1.03043 84.84 -0.849571 95.04 6.09043 98.72C7.85043 99.65 9.84043 100.07 11.8204 100.29C12.6604 100.38 13.5504 100.42 14.3304 100.11C14.3304 100.57 14.3104 101.04 14.3104 101.5C14.3104 140.98 37.1904 175.12 70.4204 191.37C70.3704 191.46 70.3104 191.54 70.2804 191.63L65.9004 201.6C64.8204 204.05 67.1704 206.6 70.5104 206.6H79.9404C81.9404 206.6 83.7304 205.65 84.4704 204.21L87.6804 197.91C96.1604 200.25 105.1 201.5 114.32 201.5C123.54 201.5 132.48 200.24 140.96 197.91L144.17 204.21C144.9 205.65 146.7 206.6 148.7 206.6H158.13C161.47 206.6 163.82 204.05 162.74 201.6L158.36 191.63C158.32 191.54 158.26 191.46 158.22 191.37C185.25 178.15 205.43 153.09 212.02 122.95H218.22C221.09 122.95 223.44 120.6 223.44 117.73V92.57C223.44 89.7 221.09 87.35 218.22 87.35H218.21Z" fill="#FFF3C0"/>
<path d="M158.13 208.1H148.7C146.13 208.1 143.83 206.84 142.83 204.89L140.18 199.67C123.35 204.09 105.29 204.09 88.4697 199.67L85.8196 204.89C84.8297 206.84 82.5296 208.1 79.9496 208.1H70.5196C68.1696 208.1 66.0296 207.04 64.9196 205.34C64.0496 204.01 63.9096 202.42 64.5396 200.99L68.4596 192.06C52.2096 183.82 38.4697 171.36 28.6497 155.95C18.3596 139.79 12.8897 121.09 12.8197 101.85C12.4197 101.85 12.0297 101.82 11.6597 101.78C9.07965 101.5 7.08965 100.95 5.38965 100.05C2.60965 98.58 0.819652 96.09 0.219652 92.85C-0.630348 88.33 1.01965 82.58 4.22965 78.87C5.82965 77.02 7.55965 75.96 9.35965 75.73C11.6897 75.42 14.4697 76.86 14.8697 79.47C15.1597 81.37 14.1597 83.23 11.9097 85.02L11.6797 85.2C10.6197 86.04 9.51965 86.9 9.33965 87.89C9.16965 88.87 10.1097 90.04 11.2797 90.3C12.0697 90.48 12.8397 90.33 13.4697 90.09C16.2097 65.59 27.7997 42.96 46.1497 26.31C64.8397 9.34 89.0497 0 114.32 0C132.45 0 150.21 4.83 165.75 13.98C171.01 10.3 180.85 5.27 192.61 8.13L192.76 8.18C193.49 8.44 199.92 10.89 200.52 15.68C200.55 15.87 201.11 20.55 195.9 23C195.65 23.11 191.39 24.99 189.15 32.95C202.76 47.8 211.54 66.05 214.6 85.86H218.19C221.9 85.86 224.91 88.87 224.91 92.58V117.74C224.91 121.45 221.9 124.46 218.19 124.46H213.19C206.48 153.45 186.78 178.56 160.17 192.07L164.09 201C164.72 202.43 164.58 204.02 163.71 205.35C162.6 207.05 160.45 208.11 158.11 208.11L158.13 208.1ZM141.75 196.13L145.51 203.52C145.99 204.46 147.27 205.09 148.7 205.09H158.13C159.45 205.09 160.67 204.54 161.22 203.69C161.54 203.2 161.59 202.7 161.36 202.19L156.9 192.09L156.13 190.71L157.55 190.01C184.37 176.89 204.18 151.69 210.54 122.62L210.8 121.44H218.21C220.26 121.44 221.93 119.77 221.93 117.72V92.56C221.93 90.51 220.26 88.84 218.21 88.84H212.02L211.84 87.55C209.01 67.58 200.22 49.19 186.41 34.37L185.85 33.77L186.05 32.98C188.62 22.75 194.47 20.33 194.72 20.23C197.75 18.8 197.58 16.31 197.55 16.03C197.24 13.54 193.38 11.59 191.82 11.01C180.64 8.33 171.3 13.59 166.71 16.97L165.9 17.56L165.04 17.04C149.77 7.84 132.23 2.98 114.31 2.98C89.7896 2.98 66.2896 12.05 48.1397 28.51C30.1197 44.86 18.8297 67.14 16.3397 91.23L16.2597 92.02L15.5497 92.4C13.8997 93.28 12.1797 93.56 10.5997 93.2C7.84965 92.58 5.90965 89.9 6.36965 87.33C6.74965 85.21 8.44965 83.87 9.80965 82.8L10.0397 82.62C10.9597 81.89 12.0397 80.82 11.8897 79.88C11.7697 79.14 10.6997 78.53 9.72965 78.66C8.67965 78.79 7.58965 79.51 6.48965 80.79C3.87965 83.81 2.47965 88.63 3.15965 92.25C3.59965 94.59 4.81965 96.31 6.78965 97.36C8.13965 98.08 9.78965 98.52 11.9797 98.76C12.5897 98.83 13.2897 98.87 13.7797 98.68L15.8597 97.86L15.8197 100.57C15.8197 100.87 15.8197 101.17 15.8197 101.47C15.8197 120.26 21.1297 138.54 31.1797 154.31C40.9597 169.67 54.7596 182.01 71.0896 190L72.4996 190.69L71.6597 192.22L67.2796 202.18C67.0596 202.69 67.1096 203.19 67.4196 203.68C67.9697 204.53 69.1897 205.08 70.5097 205.08H79.9397C81.3697 205.08 82.6496 204.45 83.1296 203.51L86.8896 196.12L88.0696 196.45C105.11 201.15 123.51 201.15 140.56 196.45L141.74 196.12L141.75 196.13Z" fill="#FFEEA6"/>
<path d="M115.03 191.26C164.603 191.26 204.79 151.073 204.79 101.5C204.79 51.9272 164.603 11.7402 115.03 11.7402C65.4564 11.7402 25.2695 51.9272 25.2695 101.5C25.2695 151.073 65.4564 191.26 115.03 191.26Z" fill="#FFFAE6"/>
<path d="M178.919 135.17C188.888 135.17 196.969 127.653 196.969 118.38C196.969 109.107 188.888 101.59 178.919 101.59C168.95 101.59 160.869 109.107 160.869 118.38C160.869 127.653 168.95 135.17 178.919 135.17Z" fill="#FFDA40"/>
<path d="M178.918 131.56C186.75 131.56 193.098 125.659 193.098 118.38C193.098 111.101 186.75 105.2 178.918 105.2C171.087 105.2 164.738 111.101 164.738 118.38C164.738 125.659 171.087 131.56 178.918 131.56Z" fill="#FFEEA6"/>
<path d="M159.849 156.17C170.966 156.17 179.979 147.789 179.979 137.45C179.979 127.111 170.966 118.73 159.849 118.73C148.731 118.73 139.719 127.111 139.719 137.45C139.719 147.789 148.731 156.17 159.849 156.17Z" fill="#FFDA40"/>
<path d="M159.849 152.15C168.581 152.15 175.659 145.569 175.659 137.45C175.659 129.331 168.581 122.75 159.849 122.75C151.117 122.75 144.039 129.331 144.039 137.45C144.039 145.569 151.117 152.15 159.849 152.15Z" fill="#FFEEA6"/>
<path d="M153.52 164.52C153.78 168.04 153.71 170.08 153.62 171.1C153.56 171.74 153.33 172.35 152.94 172.86C151.65 174.54 149.09 176.31 149.09 176.31C149.09 176.31 139.99 182.97 122.65 181C113.13 179.92 108.37 175.9 106.88 174.41C106.5 174.03 106.28 173.54 106.24 173.01C106.05 170.5 106.34 165.02 106.34 165.02L153.51 164.52H153.52Z" fill="#FFC52F"/>
<path d="M113.289 156.99C111.569 157.63 109.939 158.52 108.659 159.8C107.039 161.41 106.039 163.73 106.449 165.96C106.939 168.61 109.239 170.57 111.649 171.86C116.949 174.71 123.209 175.34 129.249 175.12C135.489 174.88 141.769 173.76 147.359 171.04C150.739 169.4 155.349 165.93 152.789 161.75C151.939 160.37 150.559 159.38 149.119 158.59C142.589 154.97 134.719 154.73 127.229 154.94C122.989 155.06 118.699 155.31 114.639 156.54C114.189 156.68 113.739 156.83 113.289 156.99Z" fill="#FFDA40"/>
<path d="M116.071 158.32C114.641 158.86 113.281 159.59 112.211 160.66C110.861 162 110.031 163.93 110.371 165.78C110.781 167.98 112.701 169.61 114.701 170.68C119.111 173.05 124.331 173.58 129.361 173.39C134.551 173.19 139.791 172.26 144.451 170C147.261 168.63 151.111 165.75 148.971 162.28C148.261 161.13 147.111 160.31 145.921 159.65C140.481 156.64 133.931 156.44 127.691 156.62C124.161 156.72 120.581 156.93 117.201 157.95C116.821 158.06 116.451 158.19 116.081 158.33L116.071 158.32Z" fill="#FFEEA6"/>
<path d="M163.8 157.22C164.06 160.74 163.99 162.78 163.9 163.8C163.84 164.44 163.61 165.05 163.22 165.56C161.93 167.24 159.37 169.01 159.37 169.01C159.37 169.01 150.27 175.67 132.93 173.7C123.41 172.62 118.65 168.6 117.16 167.11C116.78 166.73 116.56 166.24 116.52 165.71C116.33 163.2 116.62 157.72 116.62 157.72L163.79 157.22H163.8Z" fill="#FFC52F"/>
<path d="M123.559 149.69C121.839 150.33 120.209 151.22 118.929 152.5C117.309 154.11 116.309 156.43 116.719 158.66C117.209 161.31 119.509 163.27 121.919 164.56C127.219 167.41 133.479 168.04 139.519 167.82C145.759 167.58 152.039 166.46 157.629 163.74C161.009 162.1 165.619 158.63 163.059 154.45C162.209 153.07 160.829 152.08 159.389 151.29C152.859 147.67 144.989 147.43 137.499 147.64C133.259 147.76 128.969 148.01 124.909 149.24C124.459 149.38 124.009 149.53 123.559 149.69Z" fill="#FFDA40"/>
<path d="M126.339 151.03C124.909 151.57 123.549 152.3 122.479 153.37C121.129 154.71 120.299 156.64 120.639 158.49C121.049 160.69 122.969 162.32 124.969 163.39C129.379 165.76 134.599 166.29 139.629 166.1C144.819 165.9 150.059 164.97 154.719 162.71C157.529 161.34 161.379 158.46 159.239 154.99C158.529 153.84 157.379 153.02 156.189 152.36C150.749 149.35 144.199 149.15 137.959 149.33C134.429 149.43 130.849 149.64 127.469 150.66C127.089 150.77 126.719 150.9 126.349 151.04L126.339 151.03Z" fill="#FFEEA6"/>
<path d="M159.669 149.45C159.929 152.97 159.859 155.01 159.769 156.03C159.709 156.67 159.479 157.28 159.089 157.79C157.799 159.47 155.239 161.24 155.239 161.24C155.239 161.24 146.139 167.9 128.799 165.93C119.279 164.85 114.519 160.83 113.029 159.34C112.649 158.96 112.429 158.47 112.389 157.94C112.199 155.43 112.489 149.95 112.489 149.95L159.659 149.45H159.669Z" fill="#FFC52F"/>
<path d="M119.438 141.92C117.718 142.56 116.088 143.45 114.808 144.73C113.188 146.34 112.188 148.66 112.598 150.89C113.088 153.54 115.388 155.5 117.798 156.79C123.098 159.64 129.358 160.27 135.398 160.05C141.638 159.81 147.918 158.69 153.508 155.97C156.888 154.33 161.498 150.86 158.938 146.68C158.088 145.3 156.708 144.31 155.268 143.52C148.738 139.9 140.868 139.66 133.378 139.87C129.138 139.99 124.848 140.24 120.788 141.47C120.338 141.61 119.888 141.76 119.438 141.92Z" fill="#FFDA40"/>
<path d="M122.22 143.25C120.79 143.79 119.43 144.52 118.36 145.59C117.01 146.93 116.18 148.86 116.52 150.71C116.93 152.91 118.85 154.54 120.85 155.61C125.26 157.98 130.48 158.51 135.51 158.32C140.7 158.12 145.94 157.19 150.6 154.93C153.41 153.56 157.26 150.68 155.12 147.21C154.41 146.06 153.26 145.24 152.07 144.58C146.63 141.57 140.08 141.37 133.84 141.55C130.31 141.65 126.73 141.86 123.35 142.88C122.97 142.99 122.6 143.12 122.23 143.26L122.22 143.25Z" fill="#FFEEA6"/>
<path d="M163.79 139.03C164.05 142.55 163.98 144.59 163.89 145.61C163.83 146.25 163.6 146.86 163.21 147.37C161.92 149.05 159.36 150.82 159.36 150.82C159.36 150.82 150.26 157.48 132.92 155.51C123.4 154.43 118.64 150.41 117.15 148.92C116.77 148.54 116.55 148.05 116.51 147.52C116.32 145.01 116.61 139.53 116.61 139.53L163.78 139.03H163.79Z" fill="#FFC52F"/>
<path d="M123.549 131.5C121.829 132.14 120.199 133.03 118.919 134.31C117.299 135.92 116.299 138.24 116.709 140.47C117.199 143.12 119.499 145.08 121.909 146.37C127.209 149.22 133.469 149.85 139.509 149.63C145.749 149.39 152.029 148.27 157.619 145.55C160.999 143.91 165.609 140.44 163.049 136.26C162.199 134.88 160.819 133.89 159.379 133.1C152.849 129.48 144.979 129.24 137.489 129.45C133.249 129.57 128.959 129.82 124.899 131.05C124.449 131.19 123.999 131.34 123.549 131.5Z" fill="#FFDA40"/>
<path d="M126.329 132.83C124.899 133.37 123.539 134.1 122.469 135.17C121.119 136.51 120.289 138.44 120.629 140.29C121.039 142.49 122.959 144.12 124.959 145.19C129.369 147.56 134.589 148.09 139.619 147.9C144.809 147.7 150.049 146.77 154.709 144.51C157.519 143.14 161.369 140.26 159.229 136.79C158.519 135.64 157.369 134.82 156.179 134.16C150.739 131.15 144.189 130.95 137.949 131.13C134.419 131.23 130.839 131.44 127.459 132.46C127.079 132.57 126.709 132.7 126.339 132.84L126.329 132.83Z" fill="#FFEEA6"/>
<path d="M158.261 129.82C158.521 133.34 158.451 135.38 158.361 136.4C158.301 137.04 158.071 137.65 157.681 138.16C156.391 139.84 153.831 141.61 153.831 141.61C153.831 141.61 144.731 148.27 127.391 146.3C117.871 145.22 113.111 141.2 111.621 139.71C111.241 139.33 111.021 138.84 110.981 138.31C110.791 135.8 111.081 130.32 111.081 130.32L158.251 129.82H158.261Z" fill="#FFC52F"/>
<path d="M118.03 122.28C116.31 122.92 114.68 123.81 113.4 125.09C111.78 126.7 110.78 129.02 111.19 131.25C111.68 133.9 113.98 135.86 116.39 137.15C121.69 140 127.95 140.63 133.99 140.41C140.23 140.17 146.51 139.05 152.1 136.33C155.48 134.69 160.09 131.22 157.53 127.04C156.68 125.66 155.3 124.67 153.86 123.88C147.33 120.26 139.46 120.02 131.97 120.23C127.73 120.35 123.44 120.6 119.38 121.83C118.93 121.97 118.48 122.12 118.03 122.28Z" fill="#FFDA40"/>
<path d="M120.811 123.62C119.381 124.16 118.021 124.89 116.951 125.96C115.601 127.3 114.771 129.23 115.111 131.08C115.521 133.28 117.441 134.91 119.441 135.98C123.851 138.35 129.071 138.88 134.101 138.69C139.291 138.49 144.531 137.56 149.191 135.3C152.001 133.93 155.851 131.05 153.711 127.58C153.001 126.43 151.851 125.61 150.661 124.95C145.221 121.94 138.671 121.74 132.431 121.92C128.901 122.02 125.321 122.23 121.941 123.25C121.561 123.36 121.191 123.49 120.821 123.63L120.811 123.62Z" fill="#FFEEA6"/>
<path d="M116.76 168.76C117.01 172.12 116.94 174.08 116.86 175.05C116.81 175.66 116.59 176.24 116.21 176.73C114.98 178.34 112.53 180.03 112.53 180.03C112.53 180.03 103.83 186.4 87.2504 184.51C78.1404 183.47 73.6004 179.64 72.1704 178.21C71.8104 177.85 71.6003 177.38 71.5603 176.87C71.3803 174.47 71.6604 169.23 71.6604 169.23L116.76 168.76Z" fill="#FFC52F"/>
<path d="M78.2897 161.55C76.6497 162.17 75.0897 163.01 73.8597 164.24C72.3097 165.78 71.3597 168 71.7497 170.13C72.2197 172.66 74.4197 174.53 76.7197 175.77C81.7897 178.5 87.7697 179.1 93.5497 178.88C99.5097 178.65 105.52 177.58 110.87 174.98C114.1 173.41 118.51 170.09 116.06 166.1C115.25 164.78 113.93 163.83 112.56 163.08C106.32 159.62 98.7897 159.39 91.6297 159.59C87.5697 159.71 83.4697 159.95 79.5897 161.12C79.1597 161.25 78.7297 161.39 78.2997 161.55H78.2897Z" fill="#FFDA40"/>
<path d="M80.9502 162.83C79.5802 163.34 78.2802 164.05 77.2602 165.06C75.9702 166.34 75.1702 168.19 75.5002 169.96C75.8902 172.06 77.7302 173.62 79.6402 174.65C83.8602 176.92 88.8502 177.42 93.6502 177.24C98.6202 177.05 103.62 176.16 108.08 174C110.77 172.69 114.44 169.94 112.4 166.62C111.72 165.52 110.62 164.74 109.48 164.11C104.28 161.24 98.0102 161.04 92.0402 161.21C88.6602 161.31 85.2402 161.51 82.0102 162.48C81.6502 162.59 81.2902 162.71 80.9402 162.84L80.9502 162.83Z" fill="#FFEEA6"/>
<path d="M110.55 159.08C110.8 162.36 110.73 164.27 110.64 165.22C110.59 165.82 110.37 166.38 110.01 166.86C108.81 168.43 106.42 170.08 106.42 170.08C106.42 170.08 97.94 176.3 81.76 174.45C72.88 173.44 68.45 169.7 67.05 168.3C66.7 167.95 66.49 167.49 66.46 166.99C66.29 164.65 66.55 159.54 66.55 159.54L110.55 159.08Z" fill="#FFC52F"/>
<path d="M73.0197 152.05C71.4197 152.65 69.8997 153.48 68.6997 154.67C67.1897 156.17 66.2597 158.34 66.6397 160.42C67.0997 162.89 69.2497 164.72 71.4897 165.92C76.4297 168.58 82.2697 169.17 87.8997 168.96C93.7197 168.74 99.5797 167.69 104.79 165.15C107.94 163.62 112.24 160.38 109.85 156.48C109.06 155.19 107.77 154.27 106.43 153.53C100.34 150.16 92.9997 149.93 86.0097 150.13C82.0497 150.24 78.0497 150.48 74.2697 151.62C73.8497 151.75 73.4297 151.89 73.0097 152.04L73.0197 152.05Z" fill="#FFDA40"/>
<path d="M75.609 153.3C74.269 153.8 73.009 154.49 72.009 155.48C70.749 156.73 69.979 158.53 70.299 160.26C70.679 162.31 72.469 163.83 74.339 164.83C78.459 167.04 83.319 167.53 88.009 167.35C92.859 167.17 97.739 166.3 102.079 164.19C104.709 162.92 108.289 160.23 106.299 156.99C105.639 155.92 104.569 155.15 103.449 154.54C98.379 151.74 92.269 151.55 86.439 151.71C83.139 151.8 79.809 152 76.659 152.95C76.309 153.06 75.959 153.17 75.609 153.3Z" fill="#FFEEA6"/>
<path d="M116.049 150.91C116.299 154.27 116.229 156.23 116.149 157.2C116.099 157.81 115.879 158.39 115.499 158.88C114.269 160.49 111.819 162.18 111.819 162.18C111.819 162.18 103.119 168.55 86.5394 166.66C77.4294 165.62 72.8894 161.79 71.4594 160.36C71.0994 160 70.8894 159.53 70.8494 159.02C70.6694 156.62 70.9494 151.38 70.9494 151.38L116.049 150.91Z" fill="#FFC52F"/>
<path d="M77.569 143.71C75.929 144.33 74.369 145.17 73.139 146.4C71.589 147.94 70.639 150.16 71.029 152.29C71.499 154.82 73.699 156.69 75.999 157.93C81.069 160.66 87.049 161.26 92.829 161.04C98.789 160.81 104.799 159.74 110.149 157.14C113.379 155.57 117.789 152.25 115.339 148.26C114.529 146.94 113.209 145.99 111.839 145.24C105.599 141.78 98.069 141.55 90.909 141.75C86.849 141.87 82.749 142.11 78.869 143.28C78.439 143.41 78.009 143.55 77.579 143.71H77.569Z" fill="#FFDA40"/>
<path d="M80.2295 144.99C78.8595 145.5 77.5595 146.21 76.5395 147.22C75.2495 148.5 74.4495 150.35 74.7795 152.12C75.1695 154.22 77.0095 155.78 78.9195 156.81C83.1395 159.08 88.1295 159.58 92.9295 159.4C97.8995 159.21 102.899 158.32 107.359 156.16C110.049 154.85 113.719 152.1 111.679 148.78C110.999 147.68 109.899 146.9 108.759 146.27C103.559 143.4 97.2895 143.2 91.3195 143.37C87.9395 143.47 84.5195 143.67 81.2895 144.64C80.9295 144.75 80.5695 144.87 80.2195 145L80.2295 144.99Z" fill="#FFEEA6"/>
<path d="M117.35 141.51C117.6 144.87 117.53 146.83 117.45 147.8C117.4 148.41 117.18 148.99 116.8 149.48C115.57 151.09 113.12 152.78 113.12 152.78C113.12 152.78 104.42 159.15 87.8402 157.26C78.7302 156.22 74.1902 152.39 72.7602 150.96C72.4002 150.6 72.1902 150.13 72.1502 149.62C71.9702 147.22 72.2502 141.98 72.2502 141.98L117.35 141.51Z" fill="#FFC52F"/>
<path d="M78.8795 134.31C77.2395 134.93 75.6795 135.77 74.4495 137C72.8995 138.54 71.9495 140.76 72.3395 142.89C72.8095 145.42 75.0095 147.29 77.3095 148.53C82.3795 151.26 88.3595 151.86 94.1395 151.64C100.1 151.41 106.11 150.34 111.46 147.74C114.69 146.17 119.1 142.85 116.65 138.86C115.84 137.54 114.52 136.59 113.15 135.84C106.91 132.38 99.3795 132.15 92.2195 132.35C88.1595 132.47 84.0595 132.71 80.1795 133.88C79.7495 134.01 79.3195 134.15 78.8895 134.31H78.8795Z" fill="#FFDA40"/>
<path d="M81.54 135.59C80.17 136.1 78.87 136.81 77.85 137.82C76.56 139.1 75.76 140.95 76.09 142.72C76.48 144.82 78.32 146.38 80.23 147.41C84.45 149.68 89.44 150.18 94.24 150C99.21 149.81 104.21 148.92 108.67 146.76C111.36 145.45 115.03 142.7 112.99 139.38C112.31 138.28 111.21 137.5 110.07 136.87C104.87 134 98.6 133.8 92.63 133.97C89.25 134.07 85.83 134.27 82.6 135.24C82.24 135.35 81.88 135.47 81.53 135.6L81.54 135.59Z" fill="#FFEEA6"/>
<path d="M115.139 132.71C115.389 136.07 115.319 138.03 115.239 139C115.189 139.61 114.969 140.19 114.589 140.68C113.359 142.29 110.909 143.98 110.909 143.98C110.909 143.98 102.209 150.35 85.6293 148.46C76.5193 147.42 71.9793 143.59 70.5493 142.16C70.1893 141.8 69.9793 141.33 69.9393 140.82C69.7593 138.42 70.0393 133.18 70.0393 133.18L115.139 132.71Z" fill="#FFC52F"/>
<path d="M76.6588 125.5C75.0188 126.12 73.4588 126.96 72.2288 128.19C70.6788 129.73 69.7288 131.95 70.1188 134.08C70.5888 136.61 72.7888 138.48 75.0888 139.72C80.1588 142.45 86.1388 143.05 91.9188 142.83C97.8788 142.6 103.889 141.53 109.239 138.93C112.469 137.36 116.879 134.04 114.429 130.05C113.619 128.73 112.299 127.78 110.929 127.03C104.689 123.57 97.1588 123.34 89.9988 123.54C85.9388 123.66 81.8388 123.9 77.9588 125.07C77.5288 125.2 77.0988 125.34 76.6688 125.5H76.6588Z" fill="#FFDA40"/>
<path d="M79.3193 126.78C77.9493 127.29 76.6493 128 75.6293 129.01C74.3393 130.29 73.5393 132.14 73.8693 133.91C74.2593 136.01 76.0993 137.57 78.0093 138.6C82.2293 140.87 87.2193 141.37 92.0193 141.19C96.9893 141 101.989 140.11 106.449 137.95C109.139 136.64 112.809 133.89 110.769 130.57C110.089 129.47 108.989 128.69 107.849 128.06C102.649 125.19 96.3793 124.99 90.4093 125.16C87.0293 125.26 83.6093 125.46 80.3793 126.43C80.0193 126.54 79.6593 126.66 79.3093 126.79L79.3193 126.78Z" fill="#FFEEA6"/>
<path d="M110.53 124.34C110.78 127.7 110.71 129.66 110.63 130.63C110.58 131.24 110.36 131.82 109.98 132.31C108.75 133.92 106.3 135.61 106.3 135.61C106.3 135.61 97.5999 141.98 81.0199 140.09C71.9099 139.05 67.3699 135.22 65.9399 133.79C65.5799 133.43 65.3699 132.96 65.3299 132.45C65.1499 130.05 65.4299 124.81 65.4299 124.81L110.53 124.34Z" fill="#FFC52F"/>
<path d="M72.0592 117.14C70.4192 117.76 68.8592 118.6 67.6292 119.83C66.0792 121.37 65.1292 123.59 65.5192 125.72C65.9892 128.25 68.1892 130.12 70.4892 131.36C75.5592 134.09 81.5392 134.69 87.3192 134.47C93.2792 134.24 99.2892 133.17 104.639 130.57C107.869 129 112.279 125.68 109.829 121.69C109.019 120.37 107.699 119.42 106.329 118.67C100.089 115.21 92.5592 114.98 85.3992 115.18C81.3392 115.3 77.2392 115.54 73.3592 116.71C72.9292 116.84 72.4992 116.98 72.0692 117.14H72.0592Z" fill="#FFDA40"/>
<path d="M74.7197 118.42C73.3497 118.93 72.0497 119.64 71.0297 120.65C69.7397 121.93 68.9397 123.78 69.2697 125.55C69.6597 127.65 71.4997 129.21 73.4097 130.24C77.6297 132.51 82.6197 133.01 87.4197 132.83C92.3897 132.64 97.3897 131.75 101.85 129.59C104.54 128.28 108.21 125.53 106.17 122.21C105.49 121.11 104.39 120.33 103.25 119.7C98.0497 116.83 91.7797 116.63 85.8097 116.8C82.4297 116.9 79.0097 117.1 75.7797 118.07C75.4197 118.18 75.0597 118.3 74.7097 118.43L74.7197 118.42Z" fill="#FFEEA6"/>
<path d="M73.4691 148.28C71.7891 151.35 69.6791 153.73 69.6791 153.73C67.7791 155.87 65.0691 157.34 62.2291 157.66C59.6291 157.96 56.9891 157.5 54.5391 156.63C53.3891 156.22 52.2791 155.73 51.2291 155.12C48.9191 153.79 46.8891 152 45.3191 149.84C42.5191 146.01 40.7591 140.71 42.9991 136.2C43.8191 134.55 44.7791 132.96 45.8691 131.48L73.4791 148.27L73.4691 148.28Z" fill="#FFC52F"/>
<path d="M73.4686 148.287C77.1652 142.21 73.9805 133.523 66.3554 128.885C58.7302 124.247 49.5521 125.414 45.8554 131.491C42.1588 137.569 45.3435 146.255 52.9687 150.893C60.5939 155.531 69.772 154.365 73.4686 148.287Z" fill="#FFDA40"/>
<path d="M69.9991 146.178C72.7687 141.624 70.3855 135.118 64.676 131.645C58.9666 128.172 52.093 129.048 49.3234 133.602C46.5538 138.155 48.937 144.661 54.6465 148.134C60.3559 151.607 67.2295 150.731 69.9991 146.178Z" fill="#FFEEA6"/>
<path d="M65.2903 134.32C63.5203 137.54 61.3103 140.04 61.3103 140.04C59.3103 142.29 56.4703 143.83 53.4903 144.17C50.7603 144.48 47.9903 144 45.4203 143.09C44.2203 142.66 43.0503 142.14 41.9403 141.51C39.5203 140.11 37.3903 138.23 35.7403 135.97C32.8103 131.95 30.9603 126.39 33.3103 121.65C34.1703 119.92 35.1703 118.24 36.3203 116.7L65.2903 134.32Z" fill="#FFC52F"/>
<path d="M65.2815 134.325C69.1618 127.946 65.82 118.828 57.8173 113.96C49.8147 109.093 40.1816 110.318 36.3013 116.698C32.421 123.077 35.7628 132.195 43.7655 137.063C51.7681 141.93 61.4012 140.705 65.2815 134.325Z" fill="#FFDA40"/>
<path d="M61.641 132.111C64.5483 127.331 62.0473 120.502 56.0547 116.857C50.0622 113.212 42.8474 114.132 39.94 118.912C37.0327 123.692 39.5337 130.521 45.5263 134.166C51.5188 137.811 58.7336 136.891 61.641 132.111Z" fill="#FFEEA6"/>
<path d="M109.39 116.96C109.61 119.89 109.55 121.59 109.47 122.44C109.42 122.97 109.23 123.48 108.9 123.9C107.82 125.3 105.69 126.78 105.69 126.78C105.69 126.78 98.1103 132.33 83.6703 130.68C75.7403 129.78 71.7803 126.44 70.5303 125.19C70.2203 124.88 70.0303 124.47 70.0003 124.02C69.8403 121.93 70.0803 117.37 70.0803 117.37L109.36 116.96H109.39Z" fill="#FFC52F"/>
<path d="M75.8797 110.69C74.4497 111.23 73.0897 111.96 72.0197 113.03C70.6697 114.37 69.8397 116.31 70.1797 118.16C70.5897 120.36 72.5097 122 74.5097 123.07C78.9197 125.44 84.1397 125.97 89.1597 125.78C94.3497 125.58 99.5897 124.65 104.25 122.38C107.06 121.01 110.91 118.12 108.77 114.64C108.06 113.49 106.91 112.67 105.72 112.01C100.28 109 93.7297 108.79 87.4897 108.97C83.9597 109.07 80.3797 109.28 77.0097 110.3C76.6297 110.41 76.2597 110.54 75.8897 110.68L75.8797 110.69Z" fill="#FFDA40"/>
<path d="M78.2002 111.8C77.0102 112.25 75.8802 112.86 74.9902 113.75C73.8702 114.87 73.1702 116.47 73.4602 118.01C73.8002 119.84 75.4002 121.2 77.0602 122.09C80.7402 124.06 85.0802 124.5 89.2702 124.34C93.6002 124.18 97.9602 123.4 101.84 121.52C104.18 120.38 107.38 117.98 105.6 115.09C105.01 114.13 104.05 113.45 103.06 112.9C98.5302 110.4 93.0702 110.23 87.8702 110.38C84.9302 110.46 81.9502 110.64 79.1402 111.49C78.8302 111.58 78.5102 111.69 78.2102 111.8H78.2002Z" fill="#FFEEA6"/>
<path d="M142.02 123.4C139.99 127.11 137.44 129.99 137.44 129.99C135.14 132.58 131.86 134.36 128.43 134.75C125.29 135.11 122.09 134.56 119.13 133.51C117.75 133.02 116.4 132.42 115.12 131.69C112.33 130.08 109.87 127.91 107.97 125.31C104.59 120.68 102.46 114.27 105.17 108.82C106.16 106.83 107.32 104.9 108.64 103.11L142.02 123.41V123.4Z" fill="#FFC52F"/>
<path d="M142.027 123.395C146.496 116.048 142.648 105.549 133.433 99.9435C124.217 94.3383 113.124 95.7501 108.656 103.097C104.187 110.444 108.035 120.943 117.25 126.549C126.466 132.154 137.559 130.742 142.027 123.395Z" fill="#FFDA40"/>
<path d="M137.841 120.849C141.188 115.347 138.305 107.483 131.401 103.284C124.498 99.0855 116.189 100.142 112.843 105.644C109.496 111.145 112.379 119.009 119.283 123.208C126.186 127.407 134.495 126.351 137.841 120.849Z" fill="#FFEEA6"/>
</g>
<defs>
<clipPath id="clip0_113_24990">
<rect width="224.92" height="208.1" fill="white"/>
</clipPath>
</defs>
</svg>
