<svg width="250" height="240" viewBox="0 0 250 240" fill="none" xmlns="http://www.w3.org/2000/svg">
<g clip-path="url(#clip0_376_84354)">
<g clip-path="url(#clip1_376_84354)">
<path d="M231.21 119.35H226.33C223.4 98.63 214.11 79.96 200.51 65.35C202.92 55.75 208.28 53.63 208.28 53.63C212.55 51.62 212.05 47.86 212.05 47.86C211.55 43.84 205.27 41.58 205.27 41.58C193.67 38.76 184.05 43.93 178.84 47.77C163.78 38.71 146.16 33.5 127.32 33.5C75.6099 33.5 33.0599 72.76 27.8599 123.1C26.6499 123.74 25.2699 124.06 23.9399 123.76C22.0899 123.34 20.5199 121.49 20.8599 119.62C21.1499 117.97 22.6599 116.87 23.9799 115.83C25.2999 114.79 26.6399 113.35 26.3899 111.69C26.1299 110.02 24.2299 108.99 22.5499 109.21C20.8699 109.43 19.4699 110.57 18.3599 111.84C14.0299 116.84 12.1499 127.04 19.0899 130.72C20.8499 131.65 22.8399 132.07 24.8199 132.29C25.6599 132.38 26.5499 132.42 27.3299 132.11C27.3299 132.57 27.3099 133.04 27.3099 133.5C27.3099 172.98 50.1899 207.12 83.4199 223.37C83.3699 223.46 83.3099 223.54 83.2799 223.63L78.8999 233.6C77.8199 236.05 80.1699 238.6 83.5099 238.6H92.9399C94.9399 238.6 96.7299 237.65 97.4699 236.21L100.68 229.91C109.16 232.25 118.1 233.5 127.32 233.5C136.54 233.5 145.48 232.24 153.96 229.91L157.17 236.21C157.9 237.65 159.7 238.6 161.7 238.6H171.13C174.47 238.6 176.82 236.05 175.74 233.6L171.36 223.63C171.32 223.54 171.26 223.46 171.22 223.37C198.25 210.15 218.43 185.09 225.02 154.95H231.22C234.09 154.95 236.44 152.6 236.44 149.73V124.57C236.44 121.7 234.09 119.35 231.22 119.35H231.21Z" fill="#FFF3C0"/>
<path d="M171.13 240.1H161.7C159.13 240.1 156.83 238.84 155.83 236.89L153.18 231.67C136.35 236.09 118.29 236.09 101.47 231.67L98.8199 236.89C97.8299 238.84 95.5299 240.1 92.9499 240.1H83.5199C81.1699 240.1 79.0299 239.04 77.9199 237.34C77.0499 236.01 76.9099 234.42 77.5399 232.99L81.4599 224.06C65.2099 215.82 51.4699 203.36 41.6499 187.95C31.3599 171.79 25.8899 153.09 25.8199 133.85C25.4199 133.85 25.0299 133.82 24.6599 133.78C22.0799 133.5 20.0899 132.95 18.3899 132.05C15.6099 130.58 13.8199 128.09 13.2199 124.85C12.3699 120.33 14.0199 114.58 17.2299 110.87C18.8299 109.02 20.5599 107.96 22.3599 107.73C24.6899 107.42 27.4699 108.86 27.8699 111.47C28.1599 113.37 27.1599 115.23 24.9099 117.02L24.6799 117.2C23.6199 118.04 22.5199 118.9 22.3399 119.89C22.1699 120.87 23.1099 122.04 24.2799 122.3C25.0699 122.48 25.8399 122.33 26.4699 122.09C29.2099 97.59 40.7999 74.96 59.1499 58.31C77.8399 41.34 102.05 32 127.32 32C145.45 32 163.21 36.83 178.75 45.98C184.01 42.3 193.85 37.27 205.61 40.13L205.76 40.18C206.49 40.44 212.92 42.89 213.52 47.68C213.55 47.87 214.11 52.55 208.9 55C208.65 55.11 204.39 56.99 202.15 64.95C215.76 79.8 224.54 98.05 227.6 117.86H231.19C234.9 117.86 237.91 120.87 237.91 124.58V149.74C237.91 153.45 234.9 156.46 231.19 156.46H226.19C219.48 185.45 199.78 210.56 173.17 224.07L177.09 233C177.72 234.43 177.58 236.02 176.71 237.35C175.6 239.05 173.45 240.11 171.11 240.11L171.13 240.1ZM154.75 228.13L158.51 235.52C158.99 236.46 160.27 237.09 161.7 237.09H171.13C172.45 237.09 173.67 236.54 174.22 235.69C174.54 235.2 174.59 234.7 174.36 234.19L169.9 224.09L169.13 222.71L170.55 222.01C197.37 208.89 217.18 183.69 223.54 154.62L223.8 153.44H231.21C233.26 153.44 234.93 151.77 234.93 149.72V124.56C234.93 122.51 233.26 120.84 231.21 120.84H225.02L224.84 119.55C222.01 99.58 213.22 81.19 199.41 66.37L198.85 65.77L199.05 64.98C201.62 54.75 207.47 52.33 207.72 52.23C210.75 50.8 210.58 48.31 210.55 48.03C210.24 45.54 206.38 43.59 204.82 43.01C193.64 40.33 184.3 45.59 179.71 48.97L178.9 49.56L178.04 49.04C162.77 39.84 145.23 34.98 127.31 34.98C102.79 34.98 79.2899 44.05 61.1399 60.51C43.1199 76.86 31.8299 99.14 29.3399 123.23L29.2599 124.02L28.5499 124.4C26.8999 125.28 25.1799 125.56 23.5999 125.2C20.8499 124.58 18.9099 121.9 19.3699 119.33C19.7499 117.21 21.4499 115.87 22.8099 114.8L23.0399 114.62C23.9599 113.89 25.0399 112.82 24.8899 111.88C24.7699 111.14 23.6999 110.53 22.7299 110.66C21.6799 110.79 20.5899 111.51 19.4899 112.79C16.8799 115.81 15.4799 120.63 16.1599 124.25C16.5999 126.59 17.8199 128.31 19.7899 129.36C21.1399 130.08 22.7899 130.52 24.9799 130.76C25.5899 130.83 26.2899 130.87 26.7799 130.68L28.8599 129.86L28.8199 132.57C28.8199 132.87 28.8199 133.17 28.8199 133.47C28.8199 152.26 34.1299 170.54 44.1799 186.31C53.9599 201.67 67.7599 214.01 84.0899 222L85.4999 222.69L84.6599 224.22L80.2799 234.18C80.0599 234.69 80.1099 235.19 80.4199 235.68C80.9699 236.53 82.1899 237.08 83.5099 237.08H92.9399C94.3699 237.08 95.6499 236.45 96.1299 235.51L99.8899 228.12L101.07 228.45C118.11 233.15 136.51 233.15 153.56 228.45L154.74 228.12L154.75 228.13Z" fill="#FFEEA6"/>
<path d="M128.03 223.26C177.603 223.26 217.79 183.073 217.79 133.5C217.79 83.9272 177.603 43.7402 128.03 43.7402C78.4567 43.7402 38.2698 83.9272 38.2698 133.5C38.2698 183.073 78.4567 223.26 128.03 223.26Z" fill="#FFFAE6"/>
<path d="M191.92 167.17C201.889 167.17 209.97 159.653 209.97 150.38C209.97 141.107 201.889 133.59 191.92 133.59C181.951 133.59 173.87 141.107 173.87 150.38C173.87 159.653 181.951 167.17 191.92 167.17Z" fill="#FFDA40"/>
<path d="M191.92 163.559C199.751 163.559 206.1 157.658 206.1 150.379C206.1 143.1 199.751 137.199 191.92 137.199C184.089 137.199 177.74 143.1 177.74 150.379C177.74 157.658 184.089 163.559 191.92 163.559Z" fill="#FFEEA6"/>
<path d="M172.85 188.17C183.967 188.17 192.98 179.789 192.98 169.45C192.98 159.112 183.967 150.73 172.85 150.73C161.732 150.73 152.72 159.112 152.72 169.45C152.72 179.789 161.732 188.17 172.85 188.17Z" fill="#FFDA40"/>
<path d="M172.85 184.15C181.582 184.15 188.66 177.569 188.66 169.45C188.66 161.331 181.582 154.75 172.85 154.75C164.118 154.75 157.04 161.331 157.04 169.45C157.04 177.569 164.118 184.15 172.85 184.15Z" fill="#FFEEA6"/>
<path d="M166.52 196.52C166.78 200.04 166.71 202.08 166.62 203.1C166.56 203.74 166.33 204.35 165.94 204.86C164.65 206.54 162.09 208.31 162.09 208.31C162.09 208.31 152.99 214.97 135.65 213C126.13 211.92 121.37 207.9 119.88 206.41C119.5 206.03 119.28 205.54 119.24 205.01C119.05 202.5 119.34 197.02 119.34 197.02L166.51 196.52H166.52Z" fill="#FFC52F"/>
<path d="M126.29 188.989C124.57 189.629 122.94 190.519 121.66 191.799C120.04 193.409 119.04 195.729 119.45 197.959C119.94 200.609 122.24 202.569 124.65 203.859C129.95 206.709 136.21 207.339 142.25 207.119C148.49 206.879 154.77 205.759 160.36 203.039C163.74 201.399 168.35 197.929 165.79 193.749C164.94 192.369 163.56 191.379 162.12 190.589C155.59 186.969 147.72 186.729 140.23 186.939C135.99 187.059 131.7 187.309 127.64 188.539C127.19 188.679 126.74 188.829 126.29 188.989Z" fill="#FFDA40"/>
<path d="M129.07 190.32C127.64 190.86 126.28 191.59 125.21 192.66C123.86 194 123.03 195.93 123.37 197.78C123.78 199.98 125.7 201.61 127.7 202.68C132.11 205.05 137.33 205.58 142.36 205.39C147.55 205.19 152.79 204.26 157.45 202C160.26 200.63 164.11 197.75 161.97 194.28C161.26 193.13 160.11 192.31 158.92 191.65C153.48 188.64 146.93 188.44 140.69 188.62C137.16 188.72 133.58 188.93 130.2 189.95C129.82 190.06 129.45 190.19 129.08 190.33L129.07 190.32Z" fill="#FFEEA6"/>
<path d="M176.8 189.221C177.06 192.741 176.99 194.781 176.9 195.801C176.84 196.441 176.61 197.051 176.22 197.561C174.93 199.241 172.37 201.011 172.37 201.011C172.37 201.011 163.27 207.671 145.93 205.701C136.41 204.621 131.65 200.601 130.16 199.111C129.78 198.731 129.56 198.241 129.52 197.711C129.33 195.201 129.62 189.721 129.62 189.721L176.79 189.221H176.8Z" fill="#FFC52F"/>
<path d="M136.56 181.69C134.84 182.33 133.21 183.22 131.93 184.5C130.31 186.11 129.31 188.43 129.72 190.66C130.21 193.31 132.51 195.27 134.92 196.56C140.22 199.41 146.48 200.04 152.52 199.82C158.76 199.58 165.04 198.46 170.63 195.74C174.01 194.1 178.62 190.63 176.06 186.45C175.21 185.07 173.83 184.08 172.39 183.29C165.86 179.67 157.99 179.43 150.5 179.64C146.26 179.76 141.97 180.01 137.91 181.24C137.46 181.38 137.01 181.53 136.56 181.69Z" fill="#FFDA40"/>
<path d="M139.34 183.03C137.91 183.57 136.55 184.3 135.48 185.37C134.13 186.71 133.3 188.64 133.64 190.49C134.05 192.69 135.97 194.32 137.97 195.39C142.38 197.76 147.6 198.29 152.63 198.1C157.82 197.9 163.06 196.97 167.72 194.71C170.53 193.34 174.38 190.46 172.24 186.99C171.53 185.84 170.38 185.02 169.19 184.36C163.75 181.35 157.2 181.15 150.96 181.33C147.43 181.43 143.85 181.64 140.47 182.66C140.09 182.77 139.72 182.9 139.35 183.04L139.34 183.03Z" fill="#FFEEA6"/>
<path d="M172.67 181.451C172.93 184.971 172.86 187.011 172.77 188.031C172.71 188.671 172.48 189.281 172.09 189.791C170.8 191.471 168.24 193.241 168.24 193.241C168.24 193.241 159.14 199.901 141.8 197.931C132.28 196.851 127.52 192.831 126.03 191.341C125.65 190.961 125.43 190.471 125.39 189.941C125.2 187.431 125.49 181.951 125.49 181.951L172.66 181.451H172.67Z" fill="#FFC52F"/>
<path d="M132.44 173.921C130.72 174.561 129.09 175.451 127.81 176.731C126.19 178.341 125.19 180.661 125.6 182.891C126.09 185.541 128.39 187.501 130.8 188.791C136.1 191.641 142.36 192.271 148.4 192.051C154.64 191.811 160.92 190.691 166.51 187.971C169.89 186.331 174.5 182.861 171.94 178.681C171.09 177.301 169.71 176.311 168.27 175.521C161.74 171.901 153.87 171.661 146.38 171.871C142.14 171.991 137.85 172.241 133.79 173.471C133.34 173.611 132.89 173.761 132.44 173.921Z" fill="#FFDA40"/>
<path d="M135.22 175.251C133.79 175.791 132.43 176.521 131.36 177.591C130.01 178.931 129.18 180.861 129.52 182.711C129.93 184.911 131.85 186.541 133.85 187.611C138.26 189.981 143.48 190.511 148.51 190.321C153.7 190.121 158.94 189.191 163.6 186.931C166.41 185.561 170.26 182.681 168.12 179.211C167.41 178.061 166.26 177.241 165.07 176.581C159.63 173.571 153.08 173.371 146.84 173.551C143.31 173.651 139.73 173.861 136.35 174.881C135.97 174.991 135.6 175.121 135.23 175.261L135.22 175.251Z" fill="#FFEEA6"/>
<path d="M176.79 171.031C177.05 174.551 176.98 176.591 176.89 177.611C176.83 178.251 176.6 178.861 176.21 179.371C174.92 181.051 172.36 182.821 172.36 182.821C172.36 182.821 163.26 189.481 145.92 187.511C136.4 186.431 131.64 182.411 130.15 180.921C129.77 180.541 129.55 180.051 129.51 179.521C129.32 177.011 129.61 171.531 129.61 171.531L176.78 171.031H176.79Z" fill="#FFC52F"/>
<path d="M136.55 163.501C134.83 164.141 133.2 165.031 131.92 166.311C130.3 167.921 129.3 170.241 129.71 172.471C130.2 175.121 132.5 177.081 134.91 178.371C140.21 181.221 146.47 181.851 152.51 181.631C158.75 181.391 165.03 180.271 170.62 177.551C174 175.911 178.61 172.441 176.05 168.261C175.2 166.881 173.82 165.891 172.38 165.101C165.85 161.481 157.98 161.241 150.49 161.451C146.25 161.571 141.96 161.821 137.9 163.051C137.45 163.191 137 163.341 136.55 163.501Z" fill="#FFDA40"/>
<path d="M139.33 164.831C137.9 165.371 136.54 166.101 135.47 167.171C134.12 168.511 133.29 170.441 133.63 172.291C134.04 174.491 135.96 176.121 137.96 177.191C142.37 179.561 147.59 180.091 152.62 179.901C157.81 179.701 163.05 178.771 167.71 176.511C170.52 175.141 174.37 172.261 172.23 168.791C171.52 167.641 170.37 166.821 169.18 166.161C163.74 163.151 157.19 162.951 150.95 163.131C147.42 163.231 143.84 163.441 140.46 164.461C140.08 164.571 139.71 164.701 139.34 164.841L139.33 164.831Z" fill="#FFEEA6"/>
<path d="M171.26 161.82C171.52 165.34 171.45 167.38 171.36 168.4C171.3 169.04 171.07 169.65 170.68 170.16C169.39 171.84 166.83 173.61 166.83 173.61C166.83 173.61 157.73 180.27 140.39 178.3C130.87 177.22 126.11 173.2 124.62 171.71C124.24 171.33 124.02 170.84 123.98 170.31C123.79 167.8 124.08 162.32 124.08 162.32L171.25 161.82H171.26Z" fill="#FFC52F"/>
<path d="M131.03 154.28C129.31 154.92 127.68 155.81 126.4 157.09C124.78 158.7 123.78 161.02 124.19 163.25C124.68 165.9 126.98 167.86 129.39 169.15C134.69 172 140.95 172.63 146.99 172.41C153.23 172.17 159.51 171.05 165.1 168.33C168.48 166.69 173.09 163.22 170.53 159.04C169.68 157.66 168.3 156.67 166.86 155.88C160.33 152.26 152.46 152.02 144.97 152.23C140.73 152.35 136.44 152.6 132.38 153.83C131.93 153.97 131.48 154.12 131.03 154.28Z" fill="#FFDA40"/>
<path d="M133.81 155.62C132.38 156.16 131.02 156.89 129.95 157.96C128.6 159.3 127.77 161.23 128.11 163.08C128.52 165.28 130.44 166.91 132.44 167.98C136.85 170.35 142.07 170.88 147.1 170.69C152.29 170.49 157.53 169.56 162.19 167.3C165 165.93 168.85 163.05 166.71 159.58C166 158.43 164.85 157.61 163.66 156.95C158.22 153.94 151.67 153.74 145.43 153.92C141.9 154.02 138.32 154.23 134.94 155.25C134.56 155.36 134.19 155.49 133.82 155.63L133.81 155.62Z" fill="#FFEEA6"/>
<path d="M129.76 200.76C130.01 204.12 129.94 206.08 129.86 207.05C129.81 207.66 129.59 208.24 129.21 208.73C127.98 210.34 125.53 212.03 125.53 212.03C125.53 212.03 116.83 218.4 100.25 216.51C91.1399 215.47 86.5999 211.64 85.1699 210.21C84.8099 209.85 84.5999 209.38 84.5599 208.87C84.3799 206.47 84.6599 201.23 84.6599 201.23L129.76 200.76Z" fill="#FFC52F"/>
<path d="M91.2899 193.551C89.6499 194.171 88.0899 195.011 86.8599 196.241C85.3099 197.781 84.3599 200.001 84.7499 202.131C85.2199 204.661 87.4199 206.531 89.7199 207.771C94.7899 210.501 100.77 211.101 106.55 210.881C112.51 210.651 118.52 209.581 123.87 206.981C127.1 205.411 131.51 202.091 129.06 198.101C128.25 196.781 126.93 195.831 125.56 195.081C119.32 191.621 111.79 191.391 104.63 191.591C100.57 191.711 96.4699 191.951 92.5899 193.121C92.1599 193.251 91.7299 193.391 91.2999 193.551H91.2899Z" fill="#FFDA40"/>
<path d="M93.9499 194.83C92.5799 195.34 91.2799 196.05 90.2599 197.06C88.9699 198.34 88.1699 200.19 88.4999 201.96C88.8899 204.06 90.7299 205.62 92.6399 206.65C96.8599 208.92 101.85 209.42 106.65 209.24C111.62 209.05 116.62 208.16 121.08 206C123.77 204.69 127.44 201.94 125.4 198.62C124.72 197.52 123.62 196.74 122.48 196.11C117.28 193.24 111.01 193.04 105.04 193.21C101.66 193.31 98.2399 193.51 95.0099 194.48C94.6499 194.59 94.2899 194.71 93.9399 194.84L93.9499 194.83Z" fill="#FFEEA6"/>
<path d="M123.55 191.08C123.8 194.36 123.73 196.27 123.64 197.22C123.59 197.82 123.37 198.38 123.01 198.86C121.81 200.43 119.42 202.08 119.42 202.08C119.42 202.08 110.94 208.3 94.76 206.45C85.88 205.44 81.45 201.7 80.05 200.3C79.7 199.95 79.49 199.49 79.46 198.99C79.29 196.65 79.55 191.54 79.55 191.54L123.55 191.08Z" fill="#FFC52F"/>
<path d="M86.02 184.05C84.42 184.65 82.9 185.48 81.7 186.67C80.19 188.17 79.26 190.34 79.64 192.42C80.1 194.89 82.25 196.72 84.49 197.92C89.43 200.58 95.27 201.17 100.9 200.96C106.72 200.74 112.58 199.69 117.79 197.15C120.94 195.62 125.24 192.38 122.85 188.48C122.06 187.19 120.77 186.27 119.43 185.53C113.34 182.16 106 181.93 99.01 182.13C95.05 182.24 91.05 182.48 87.27 183.62C86.85 183.75 86.43 183.89 86.01 184.04L86.02 184.05Z" fill="#FFDA40"/>
<path d="M88.61 185.301C87.27 185.801 86.01 186.491 85.01 187.481C83.75 188.731 82.98 190.531 83.3 192.261C83.68 194.311 85.47 195.831 87.34 196.831C91.46 199.041 96.32 199.531 101.01 199.351C105.86 199.171 110.74 198.301 115.08 196.191C117.71 194.921 121.29 192.231 119.3 188.991C118.64 187.921 117.57 187.151 116.45 186.541C111.38 183.741 105.27 183.551 99.44 183.711C96.14 183.801 92.81 184.001 89.66 184.951C89.31 185.061 88.96 185.171 88.61 185.301Z" fill="#FFEEA6"/>
<path d="M129.05 182.91C129.3 186.27 129.23 188.23 129.15 189.2C129.1 189.81 128.88 190.39 128.5 190.88C127.27 192.49 124.82 194.18 124.82 194.18C124.82 194.18 116.12 200.55 99.5399 198.66C90.4299 197.62 85.8899 193.79 84.4599 192.36C84.0999 192 83.8899 191.53 83.8499 191.02C83.6699 188.62 83.9499 183.38 83.9499 183.38L129.05 182.91Z" fill="#FFC52F"/>
<path d="M90.5699 175.711C88.9299 176.331 87.3699 177.171 86.1399 178.401C84.5899 179.941 83.6399 182.161 84.0299 184.291C84.4999 186.821 86.6999 188.691 88.9999 189.931C94.0699 192.661 100.05 193.261 105.83 193.041C111.79 192.811 117.8 191.741 123.15 189.141C126.38 187.571 130.79 184.251 128.34 180.261C127.53 178.941 126.21 177.991 124.84 177.241C118.6 173.781 111.07 173.551 103.91 173.751C99.8499 173.871 95.7499 174.111 91.8699 175.281C91.4399 175.411 91.0099 175.551 90.5799 175.711H90.5699Z" fill="#FFDA40"/>
<path d="M93.23 176.99C91.86 177.5 90.56 178.21 89.54 179.22C88.25 180.5 87.45 182.35 87.78 184.12C88.17 186.22 90.01 187.78 91.92 188.81C96.14 191.08 101.13 191.58 105.93 191.4C110.9 191.21 115.9 190.32 120.36 188.16C123.05 186.85 126.72 184.1 124.68 180.78C124 179.68 122.9 178.9 121.76 178.27C116.56 175.4 110.29 175.2 104.32 175.37C100.94 175.47 97.52 175.67 94.29 176.64C93.93 176.75 93.57 176.87 93.22 177L93.23 176.99Z" fill="#FFEEA6"/>
<path d="M130.35 173.51C130.6 176.87 130.53 178.83 130.45 179.8C130.4 180.41 130.18 180.99 129.8 181.48C128.57 183.09 126.12 184.78 126.12 184.78C126.12 184.78 117.42 191.15 100.84 189.26C91.7299 188.22 87.19 184.39 85.76 182.96C85.4 182.6 85.19 182.13 85.15 181.62C84.97 179.22 85.2499 173.98 85.2499 173.98L130.35 173.51Z" fill="#FFC52F"/>
<path d="M91.88 166.31C90.24 166.93 88.68 167.77 87.45 169C85.9 170.54 84.95 172.76 85.34 174.89C85.81 177.42 88.01 179.29 90.31 180.53C95.38 183.26 101.36 183.86 107.14 183.64C113.1 183.41 119.11 182.34 124.46 179.74C127.69 178.17 132.1 174.85 129.65 170.86C128.84 169.54 127.52 168.59 126.15 167.84C119.91 164.38 112.38 164.15 105.22 164.35C101.16 164.47 97.06 164.71 93.18 165.88C92.75 166.01 92.32 166.15 91.89 166.31H91.88Z" fill="#FFDA40"/>
<path d="M94.54 167.59C93.17 168.1 91.87 168.81 90.85 169.82C89.56 171.1 88.76 172.95 89.09 174.72C89.48 176.82 91.32 178.38 93.23 179.41C97.45 181.68 102.44 182.18 107.24 182C112.21 181.81 117.21 180.92 121.67 178.76C124.36 177.45 128.03 174.7 125.99 171.38C125.31 170.28 124.21 169.5 123.07 168.87C117.87 166 111.6 165.8 105.63 165.97C102.25 166.07 98.83 166.27 95.6 167.24C95.24 167.35 94.88 167.47 94.53 167.6L94.54 167.59Z" fill="#FFEEA6"/>
<path d="M128.14 164.709C128.39 168.069 128.32 170.029 128.24 170.999C128.19 171.609 127.97 172.189 127.59 172.679C126.36 174.289 123.91 175.979 123.91 175.979C123.91 175.979 115.21 182.349 98.63 180.459C89.52 179.419 84.98 175.589 83.55 174.159C83.19 173.799 82.98 173.329 82.94 172.819C82.76 170.419 83.04 165.179 83.04 165.179L128.14 164.709Z" fill="#FFC52F"/>
<path d="M89.66 157.5C88.02 158.12 86.46 158.96 85.23 160.19C83.68 161.73 82.73 163.95 83.12 166.08C83.59 168.61 85.79 170.48 88.09 171.72C93.16 174.45 99.14 175.05 104.92 174.83C110.88 174.6 116.89 173.53 122.24 170.93C125.47 169.36 129.88 166.04 127.43 162.05C126.62 160.73 125.3 159.78 123.93 159.03C117.69 155.57 110.16 155.34 103 155.54C98.94 155.66 94.84 155.9 90.96 157.07C90.53 157.2 90.1 157.34 89.67 157.5H89.66Z" fill="#FFDA40"/>
<path d="M92.3201 158.779C90.9501 159.289 89.6501 159.999 88.6301 161.009C87.3401 162.289 86.5401 164.139 86.8701 165.909C87.2601 168.009 89.1001 169.569 91.0101 170.599C95.2301 172.869 100.22 173.369 105.02 173.189C109.99 172.999 114.99 172.109 119.45 169.949C122.14 168.639 125.81 165.889 123.77 162.569C123.09 161.469 121.99 160.689 120.85 160.059C115.65 157.189 109.38 156.989 103.41 157.159C100.03 157.259 96.6101 157.459 93.3801 158.429C93.0201 158.539 92.6601 158.659 92.3101 158.789L92.3201 158.779Z" fill="#FFEEA6"/>
<path d="M123.53 156.34C123.78 159.7 123.71 161.66 123.63 162.63C123.58 163.24 123.36 163.82 122.98 164.31C121.75 165.92 119.3 167.61 119.3 167.61C119.3 167.61 110.6 173.98 94.0199 172.09C84.9099 171.05 80.3699 167.22 78.9399 165.79C78.5799 165.43 78.3699 164.96 78.3299 164.45C78.1499 162.05 78.4299 156.81 78.4299 156.81L123.53 156.34Z" fill="#FFC52F"/>
<path d="M85.0599 149.14C83.4199 149.76 81.8599 150.6 80.6299 151.83C79.0799 153.37 78.1299 155.59 78.5199 157.72C78.9899 160.25 81.1899 162.12 83.4899 163.36C88.5599 166.09 94.5399 166.69 100.32 166.47C106.28 166.24 112.29 165.17 117.64 162.57C120.87 161 125.28 157.68 122.83 153.69C122.02 152.37 120.7 151.42 119.33 150.67C113.09 147.21 105.56 146.98 98.3999 147.18C94.3399 147.3 90.2399 147.54 86.3599 148.71C85.9299 148.84 85.4999 148.98 85.0699 149.14H85.0599Z" fill="#FFDA40"/>
<path d="M87.72 150.42C86.35 150.93 85.05 151.64 84.03 152.65C82.74 153.93 81.94 155.78 82.27 157.55C82.66 159.65 84.5 161.21 86.41 162.24C90.63 164.51 95.62 165.01 100.42 164.83C105.39 164.64 110.39 163.75 114.85 161.59C117.54 160.28 121.21 157.53 119.17 154.21C118.49 153.11 117.39 152.33 116.25 151.7C111.05 148.83 104.78 148.63 98.81 148.8C95.43 148.9 92.01 149.1 88.78 150.07C88.42 150.18 88.06 150.3 87.71 150.43L87.72 150.42Z" fill="#FFEEA6"/>
<path d="M86.4699 180.28C84.7899 183.35 82.6799 185.73 82.6799 185.73C80.7799 187.87 78.0699 189.34 75.2299 189.66C72.6299 189.96 69.9899 189.5 67.5399 188.63C66.3899 188.22 65.2799 187.73 64.2299 187.12C61.9199 185.79 59.8899 184 58.3199 181.84C55.5199 178.01 53.7599 172.71 55.9999 168.2C56.8199 166.55 57.7799 164.96 58.8699 163.48L86.4799 180.27L86.4699 180.28Z" fill="#FFC52F"/>
<path d="M86.4689 180.288C90.1655 174.21 86.9808 165.523 79.3556 160.885C71.7304 156.247 62.5523 157.414 58.8557 163.492C55.1591 169.569 58.3438 178.256 65.9689 182.894C73.5941 187.532 82.7722 186.365 86.4689 180.288Z" fill="#FFDA40"/>
<path d="M83.0001 178.179C85.7697 173.626 83.3865 167.119 77.677 163.646C71.9676 160.174 65.094 161.05 62.3244 165.603C59.5548 170.156 61.938 176.663 67.6474 180.136C73.3569 183.608 80.2305 182.732 83.0001 178.179Z" fill="#FFEEA6"/>
<path d="M78.29 166.319C76.52 169.539 74.31 172.039 74.31 172.039C72.31 174.289 69.47 175.829 66.49 176.169C63.76 176.479 60.99 175.999 58.42 175.089C57.22 174.659 56.05 174.139 54.94 173.509C52.52 172.109 50.39 170.229 48.74 167.969C45.81 163.949 43.96 158.389 46.31 153.649C47.17 151.919 48.17 150.239 49.32 148.699L78.29 166.319Z" fill="#FFC52F"/>
<path d="M78.281 166.324C82.1613 159.945 78.8195 150.827 70.8168 145.96C62.8142 141.092 53.1811 142.318 49.3008 148.697C45.4205 155.076 48.7623 164.194 56.765 169.062C64.7676 173.929 74.4007 172.704 78.281 166.324Z" fill="#FFDA40"/>
<path d="M74.6415 164.111C77.5488 159.331 75.0478 152.502 69.0552 148.857C63.0627 145.212 55.8479 146.132 52.9405 150.912C50.0332 155.692 52.5342 162.521 58.5267 166.166C64.5193 169.811 71.7341 168.891 74.6415 164.111Z" fill="#FFEEA6"/>
<path d="M122.39 148.961C122.61 151.891 122.55 153.591 122.47 154.441C122.42 154.971 122.23 155.481 121.9 155.901C120.82 157.301 118.69 158.781 118.69 158.781C118.69 158.781 111.11 164.331 96.6698 162.681C88.7398 161.781 84.7798 158.441 83.5298 157.191C83.2198 156.881 83.0298 156.471 82.9998 156.021C82.8398 153.931 83.0798 149.371 83.0798 149.371L122.36 148.961H122.39Z" fill="#FFC52F"/>
<path d="M88.8797 142.69C87.4497 143.23 86.0897 143.96 85.0197 145.03C83.6697 146.37 82.8397 148.31 83.1797 150.16C83.5897 152.36 85.5097 154 87.5097 155.07C91.9197 157.44 97.1397 157.97 102.16 157.78C107.35 157.58 112.59 156.65 117.25 154.38C120.06 153.01 123.91 150.12 121.77 146.64C121.06 145.49 119.91 144.67 118.72 144.01C113.28 141 106.73 140.79 100.49 140.97C96.9597 141.07 93.3797 141.28 90.0097 142.3C89.6297 142.41 89.2597 142.54 88.8897 142.68L88.8797 142.69Z" fill="#FFDA40"/>
<path d="M91.1999 143.801C90.0099 144.251 88.8799 144.861 87.9899 145.751C86.8699 146.871 86.1699 148.471 86.4599 150.011C86.7999 151.841 88.3999 153.201 90.0599 154.091C93.7399 156.061 98.0799 156.501 102.27 156.341C106.6 156.181 110.96 155.401 114.84 153.521C117.18 152.381 120.38 149.981 118.6 147.091C118.01 146.131 117.05 145.451 116.06 144.901C111.53 142.401 106.07 142.231 100.87 142.381C97.9299 142.461 94.9499 142.641 92.1399 143.491C91.8299 143.581 91.5099 143.691 91.2099 143.801H91.1999Z" fill="#FFEEA6"/>
<path d="M155.02 155.401C152.99 159.111 150.44 161.991 150.44 161.991C148.14 164.581 144.86 166.361 141.43 166.751C138.29 167.111 135.09 166.561 132.13 165.511C130.75 165.021 129.4 164.421 128.12 163.691C125.33 162.081 122.87 159.911 120.97 157.311C117.59 152.681 115.46 146.271 118.17 140.821C119.16 138.831 120.32 136.901 121.64 135.111L155.02 155.411V155.401Z" fill="#FFC52F"/>
<path d="M155.028 155.396C159.497 148.049 155.649 137.55 146.433 131.944C137.218 126.339 126.125 127.751 121.656 135.098C117.188 142.445 121.036 152.944 130.251 158.55C139.466 164.155 150.559 162.743 155.028 155.396Z" fill="#FFDA40"/>
<path d="M150.842 152.849C154.188 147.347 151.305 139.483 144.402 135.284C137.498 131.085 129.189 132.142 125.843 137.644C122.496 143.145 125.38 151.009 132.283 155.208C139.186 159.407 147.495 158.351 150.842 152.849Z" fill="#FFEEA6"/>
</g>
</g>
<defs>
<clipPath id="clip0_376_84354">
<rect width="250" height="240" fill="white"/>
</clipPath>
<clipPath id="clip1_376_84354">
<rect width="224.92" height="208.1" fill="white" transform="translate(13 32)"/>
</clipPath>
</defs>
</svg>
