<svg width="100%" height="100%" viewBox="0 0 226 209" fill="none" xmlns="http://www.w3.org/2000/svg">
<g clip-path="url(#clip0_113_24991)">
<path d="M219.062 87.35H214.182C211.252 66.63 201.962 47.96 188.362 33.35C190.772 23.75 196.132 21.63 196.132 21.63C200.402 19.62 199.902 15.86 199.902 15.86C199.402 11.84 193.122 9.58 193.122 9.58C181.522 6.76 171.902 11.93 166.692 15.77C151.632 6.71 134.012 1.5 115.172 1.5C63.462 1.5 20.912 40.76 15.712 91.1C14.502 91.74 13.122 92.06 11.792 91.76C9.94199 91.34 8.37199 89.49 8.71199 87.62C9.00199 85.97 10.512 84.87 11.832 83.83C13.152 82.79 14.492 81.35 14.242 79.69C13.982 78.02 12.082 76.99 10.402 77.21C8.72199 77.43 7.32199 78.57 6.21199 79.84C1.88199 84.84 0.00199127 95.04 6.94199 98.72C8.70199 99.65 10.692 100.07 12.672 100.29C13.512 100.38 14.402 100.42 15.182 100.11C15.182 100.57 15.162 101.04 15.162 101.5C15.162 140.98 38.042 175.12 71.272 191.37C71.222 191.46 71.162 191.54 71.132 191.63L66.752 201.6C65.672 204.05 68.022 206.6 71.362 206.6H80.792C82.792 206.6 84.582 205.65 85.322 204.21L88.532 197.91C97.012 200.25 105.952 201.5 115.172 201.5C124.392 201.5 133.332 200.24 141.812 197.91L145.022 204.21C145.752 205.65 147.552 206.6 149.552 206.6H158.982C162.322 206.6 164.672 204.05 163.592 201.6L159.212 191.63C159.172 191.54 159.112 191.46 159.072 191.37C186.102 178.15 206.282 153.09 212.872 122.95H219.072C221.942 122.95 224.292 120.6 224.292 117.73V92.57C224.292 89.7 221.942 87.35 219.072 87.35H219.062Z" fill="#FFF3C0"/>
<path d="M158.981 208.1H149.551C146.981 208.1 144.681 206.84 143.681 204.89L141.031 199.67C124.201 204.09 106.141 204.09 89.3212 199.67L86.6712 204.89C85.6812 206.84 83.3712 208.1 80.8012 208.1H71.3712C69.0212 208.1 66.8812 207.04 65.7712 205.34C64.9012 204.01 64.7612 202.42 65.3912 200.99L69.3112 192.06C53.0612 183.82 39.3212 171.36 29.5012 155.95C19.2112 139.79 13.7412 121.09 13.6712 101.85C13.2712 101.85 12.8812 101.82 12.5112 101.78C9.93121 101.5 7.94121 100.95 6.24121 100.05C3.46121 98.58 1.67121 96.09 1.07121 92.85C0.221214 88.33 1.87121 82.58 5.08121 78.87C6.68121 77.02 8.41121 75.96 10.2112 75.73C12.5412 75.43 15.3212 76.86 15.7212 79.47C16.0112 81.37 15.0112 83.23 12.7612 85.02L12.5312 85.2C11.4712 86.04 10.3612 86.9 10.1912 87.89C10.0212 88.87 10.9612 90.04 12.1312 90.3C12.9212 90.48 13.6912 90.33 14.3212 90.09C17.0612 65.59 28.6412 42.96 47.0012 26.31C65.6912 9.34 89.9012 0 115.171 0C133.301 0 151.061 4.83 166.601 13.98C171.861 10.3 181.701 5.27 193.461 8.13L193.611 8.18C194.341 8.44 200.771 10.89 201.371 15.68C201.391 15.87 201.961 20.55 196.751 23C196.501 23.11 192.241 24.99 190.001 32.95C203.611 47.8 212.391 66.05 215.451 85.86H219.041C222.751 85.86 225.761 88.87 225.761 92.58V117.74C225.761 121.45 222.751 124.46 219.041 124.46H214.041C207.331 153.45 187.631 178.56 161.021 192.07L164.941 201C165.571 202.43 165.431 204.02 164.561 205.35C163.451 207.05 161.301 208.11 158.961 208.11L158.981 208.1ZM142.601 196.13L146.361 203.52C146.841 204.46 148.121 205.09 149.551 205.09H158.981C160.301 205.09 161.521 204.54 162.071 203.69C162.391 203.2 162.441 202.7 162.211 202.19L157.751 192.09L156.991 190.71L158.401 190.02C185.221 176.9 205.031 151.7 211.391 122.63L211.651 121.45H219.051C221.101 121.45 222.771 119.78 222.771 117.73V92.57C222.771 90.52 221.101 88.85 219.051 88.85H212.861L212.681 87.56C209.851 67.59 201.061 49.2 187.251 34.38L186.691 33.78L186.891 32.99C189.461 22.76 195.311 20.34 195.561 20.24C198.591 18.81 198.421 16.32 198.391 16.04C198.081 13.55 194.221 11.6 192.661 11.02C181.481 8.34 172.141 13.6 167.561 16.98L166.751 17.57L165.891 17.05C150.621 7.85 133.081 2.99 115.161 2.99C90.6412 2.99 67.1412 12.06 48.9912 28.52C30.9712 44.87 19.6812 67.15 17.1912 91.24L17.1112 92.03L16.4012 92.41C14.7512 93.29 13.0312 93.57 11.4512 93.21C8.70121 92.59 6.76121 89.91 7.22121 87.34C7.60121 85.22 9.30122 83.88 10.6612 82.81L10.8912 82.63C11.8112 81.9 12.8912 80.83 12.7412 79.89C12.6312 79.15 11.5612 78.55 10.5812 78.67C9.53121 78.8 8.44121 79.52 7.34121 80.8C4.73121 83.82 3.33121 88.64 4.01121 92.27C4.45121 94.61 5.67121 96.33 7.64121 97.38C8.99121 98.1 10.6412 98.54 12.8312 98.78C13.4412 98.85 14.1412 98.89 14.6312 98.7L16.7112 97.88L16.6712 100.55C16.6712 100.86 16.6612 101.18 16.6612 101.5C16.6612 120.29 21.9712 138.57 32.0212 154.34C41.8012 169.7 55.6012 182.04 71.9312 190.03L73.3412 190.72L72.5012 192.24L68.1212 202.2C67.9012 202.71 67.9412 203.21 68.2612 203.7C68.8112 204.55 70.0312 205.1 71.3512 205.1H80.7812C82.2112 205.1 83.4912 204.47 83.9712 203.53L87.7312 196.14L88.9112 196.47C105.951 201.17 124.351 201.17 141.401 196.47L142.581 196.14L142.601 196.13Z" fill="#FFEEA6"/>
<path d="M115.172 191.26C164.745 191.26 204.932 151.073 204.932 101.5C204.932 51.9272 164.745 11.7402 115.172 11.7402C65.599 11.7402 25.4121 51.9272 25.4121 101.5C25.4121 151.073 65.599 191.26 115.172 191.26Z" fill="#FFFAE6"/>
<path d="M179.771 135.17C189.739 135.17 197.821 127.653 197.821 118.38C197.821 109.107 189.739 101.59 179.771 101.59C169.802 101.59 161.721 109.107 161.721 118.38C161.721 127.653 169.802 135.17 179.771 135.17Z" fill="#FFDA40"/>
<path d="M179.77 131.56C187.601 131.56 193.95 125.659 193.95 118.38C193.95 111.101 187.601 105.2 179.77 105.2C171.938 105.2 165.59 111.101 165.59 118.38C165.59 125.659 171.938 131.56 179.77 131.56Z" fill="#FFEEA6"/>
<path d="M165.351 150.85C177.805 150.85 187.901 141.462 187.901 129.88C187.901 118.299 177.805 108.91 165.351 108.91C152.897 108.91 142.801 118.299 142.801 129.88C142.801 141.462 152.897 150.85 165.351 150.85Z" fill="#FFDA40"/>
<path d="M165.351 146.35C175.132 146.35 183.061 138.976 183.061 129.88C183.061 120.784 175.132 113.41 165.351 113.41C155.57 113.41 147.641 120.784 147.641 129.88C147.641 138.976 155.57 146.35 165.351 146.35Z" fill="#FFEEA6"/>
<path d="M68.6117 152.53C80.8172 152.53 90.7117 143.33 90.7117 131.98C90.7117 120.631 80.8172 111.43 68.6117 111.43C56.4062 111.43 46.5117 120.631 46.5117 131.98C46.5117 143.33 56.4062 152.53 68.6117 152.53Z" fill="#FFDA40"/>
<path d="M68.612 148.12C78.1996 148.12 85.972 140.894 85.972 131.98C85.972 123.066 78.1996 115.84 68.612 115.84C59.0243 115.84 51.252 123.066 51.252 131.98C51.252 140.894 59.0243 148.12 68.612 148.12Z" fill="#FFEEA6"/>
<path d="M154.372 164.52C154.632 168.04 154.562 170.08 154.472 171.1C154.412 171.74 154.182 172.35 153.792 172.86C152.502 174.54 149.942 176.31 149.942 176.31C149.942 176.31 140.842 182.97 123.502 181C113.982 179.92 109.222 175.9 107.732 174.41C107.352 174.03 107.132 173.54 107.092 173.01C106.902 170.5 107.192 165.02 107.192 165.02L154.362 164.52H154.372Z" fill="#FFC52F"/>
<path d="M114.141 156.99C112.421 157.63 110.791 158.52 109.511 159.8C107.891 161.41 106.891 163.73 107.301 165.96C107.791 168.61 110.091 170.57 112.501 171.86C117.801 174.71 124.061 175.34 130.101 175.12C136.341 174.88 142.621 173.76 148.211 171.04C151.591 169.4 156.201 165.93 153.641 161.75C152.791 160.37 151.411 159.38 149.971 158.59C143.441 154.97 135.571 154.73 128.081 154.94C123.841 155.06 119.551 155.31 115.491 156.54C115.041 156.68 114.591 156.83 114.141 156.99Z" fill="#FFDA40"/>
<path d="M116.923 158.32C115.493 158.86 114.133 159.59 113.063 160.66C111.713 162 110.883 163.93 111.223 165.78C111.633 167.98 113.553 169.61 115.553 170.68C119.963 173.05 125.183 173.58 130.213 173.39C135.403 173.19 140.643 172.26 145.303 170C148.113 168.63 151.963 165.75 149.823 162.28C149.113 161.13 147.963 160.31 146.773 159.65C141.333 156.64 134.783 156.44 128.543 156.62C125.013 156.72 121.433 156.93 118.053 157.95C117.673 158.06 117.303 158.19 116.933 158.33L116.923 158.32Z" fill="#FFEEA6"/>
<path d="M160.27 155.21C160.53 158.73 160.46 160.77 160.37 161.79C160.31 162.43 160.08 163.04 159.69 163.55C158.4 165.23 155.84 167 155.84 167C155.84 167 146.74 173.66 129.4 171.69C119.88 170.61 115.12 166.59 113.63 165.1C113.25 164.72 113.03 164.23 112.99 163.7C112.8 161.19 113.09 155.71 113.09 155.71L160.26 155.21H160.27Z" fill="#FFC52F"/>
<path d="M120.03 147.68C118.31 148.32 116.68 149.21 115.4 150.49C113.78 152.1 112.78 154.42 113.19 156.65C113.68 159.3 115.98 161.26 118.39 162.55C123.69 165.4 129.95 166.03 135.99 165.81C142.23 165.57 148.51 164.45 154.1 161.73C157.48 160.09 162.09 156.62 159.53 152.44C158.68 151.06 157.3 150.07 155.86 149.28C149.33 145.66 141.46 145.42 133.97 145.63C129.73 145.75 125.44 146 121.38 147.23C120.93 147.37 120.48 147.52 120.03 147.68Z" fill="#FFDA40"/>
<path d="M122.809 149.02C121.379 149.56 120.019 150.29 118.949 151.36C117.599 152.7 116.769 154.63 117.109 156.48C117.519 158.68 119.439 160.31 121.439 161.38C125.849 163.75 131.069 164.28 136.099 164.09C141.289 163.89 146.529 162.96 151.189 160.7C153.999 159.33 157.849 156.45 155.709 152.98C154.999 151.83 153.849 151.01 152.659 150.35C147.219 147.34 140.669 147.14 134.429 147.32C130.899 147.42 127.319 147.63 123.939 148.65C123.559 148.76 123.189 148.89 122.819 149.03L122.809 149.02Z" fill="#FFEEA6"/>
<path d="M160.52 146.45C160.78 149.97 160.71 152.01 160.62 153.03C160.56 153.67 160.33 154.28 159.94 154.79C158.65 156.47 156.09 158.24 156.09 158.24C156.09 158.24 146.99 164.9 129.65 162.93C120.13 161.85 115.37 157.83 113.88 156.34C113.5 155.96 113.28 155.47 113.24 154.94C113.05 152.43 113.34 146.95 113.34 146.95L160.51 146.45H160.52Z" fill="#FFC52F"/>
<path d="M120.289 138.92C118.569 139.56 116.939 140.45 115.659 141.73C114.039 143.34 113.039 145.66 113.449 147.89C113.939 150.54 116.239 152.5 118.649 153.79C123.949 156.64 130.209 157.27 136.249 157.05C142.489 156.81 148.769 155.69 154.359 152.97C157.739 151.33 162.349 147.86 159.789 143.68C158.939 142.3 157.559 141.31 156.119 140.52C149.589 136.9 141.719 136.66 134.229 136.87C129.989 136.99 125.699 137.24 121.639 138.47C121.189 138.61 120.739 138.76 120.289 138.92Z" fill="#FFDA40"/>
<path d="M123.071 140.25C121.641 140.79 120.281 141.52 119.211 142.59C117.861 143.93 117.031 145.86 117.371 147.71C117.781 149.91 119.701 151.54 121.701 152.61C126.111 154.98 131.331 155.51 136.361 155.32C141.551 155.12 146.791 154.19 151.451 151.93C154.261 150.56 158.111 147.68 155.971 144.21C155.261 143.06 154.111 142.24 152.921 141.58C147.481 138.57 140.931 138.37 134.691 138.55C131.161 138.65 127.581 138.86 124.201 139.88C123.821 139.99 123.451 140.12 123.081 140.26L123.071 140.25Z" fill="#FFEEA6"/>
<path d="M164.641 138.03C164.901 141.55 164.831 143.59 164.741 144.61C164.681 145.25 164.451 145.86 164.061 146.37C162.771 148.05 160.211 149.82 160.211 149.82C160.211 149.82 151.111 156.48 133.771 154.51C124.251 153.43 119.491 149.41 118.001 147.92C117.621 147.54 117.401 147.05 117.361 146.52C117.171 144.01 117.461 138.53 117.461 138.53L164.631 138.03H164.641Z" fill="#FFC52F"/>
<path d="M124.401 130.5C122.681 131.14 121.051 132.03 119.771 133.31C118.151 134.92 117.151 137.24 117.561 139.47C118.051 142.12 120.351 144.08 122.761 145.37C128.061 148.22 134.321 148.85 140.361 148.63C146.601 148.39 152.881 147.27 158.471 144.55C161.851 142.91 166.461 139.44 163.901 135.26C163.051 133.88 161.671 132.89 160.231 132.1C153.701 128.48 145.831 128.24 138.341 128.45C134.101 128.57 129.811 128.82 125.751 130.05C125.301 130.19 124.851 130.34 124.401 130.5Z" fill="#FFDA40"/>
<path d="M127.181 131.83C125.751 132.37 124.391 133.1 123.321 134.17C121.971 135.51 121.141 137.44 121.481 139.29C121.891 141.49 123.811 143.12 125.811 144.19C130.221 146.56 135.441 147.09 140.471 146.9C145.661 146.7 150.901 145.77 155.561 143.51C158.371 142.14 162.221 139.26 160.081 135.79C159.371 134.64 158.221 133.82 157.031 133.16C151.591 130.15 145.041 129.95 138.801 130.13C135.271 130.23 131.691 130.44 128.311 131.46C127.931 131.57 127.561 131.7 127.191 131.84L127.181 131.83Z" fill="#FFEEA6"/>
<path d="M159.112 129.82C159.372 133.34 159.302 135.38 159.212 136.4C159.152 137.04 158.922 137.65 158.532 138.16C157.242 139.84 154.682 141.61 154.682 141.61C154.682 141.61 145.582 148.27 128.242 146.3C118.722 145.22 113.962 141.2 112.472 139.71C112.092 139.33 111.872 138.84 111.832 138.31C111.642 135.8 111.932 130.32 111.932 130.32L159.102 129.82H159.112Z" fill="#FFC52F"/>
<path d="M118.881 122.28C117.161 122.92 115.531 123.81 114.251 125.09C112.631 126.7 111.631 129.02 112.041 131.25C112.531 133.9 114.831 135.86 117.241 137.15C122.541 140 128.801 140.63 134.841 140.41C141.081 140.17 147.361 139.05 152.951 136.33C156.331 134.69 160.941 131.22 158.381 127.04C157.531 125.66 156.151 124.67 154.711 123.88C148.181 120.26 140.311 120.02 132.821 120.23C128.581 120.35 124.291 120.6 120.231 121.83C119.781 121.97 119.331 122.12 118.881 122.28Z" fill="#FFDA40"/>
<path d="M121.663 123.62C120.233 124.16 118.873 124.89 117.803 125.96C116.453 127.3 115.623 129.23 115.963 131.08C116.373 133.28 118.293 134.91 120.293 135.98C124.703 138.35 129.923 138.88 134.953 138.69C140.143 138.49 145.383 137.56 150.043 135.3C152.853 133.93 156.703 131.05 154.563 127.58C153.853 126.43 152.703 125.61 151.513 124.95C146.073 121.94 139.523 121.74 133.283 121.92C129.753 122.02 126.173 122.23 122.793 123.25C122.413 123.36 122.043 123.49 121.673 123.63L121.663 123.62Z" fill="#FFEEA6"/>
<path d="M155.47 121.96C155.72 125.23 155.65 127.13 155.56 128.07C155.51 128.66 155.29 129.23 154.93 129.7C153.73 131.26 151.35 132.91 151.35 132.91C151.35 132.91 142.9 139.1 126.78 137.27C117.93 136.26 113.51 132.53 112.12 131.14C111.77 130.79 111.57 130.33 111.53 129.84C111.36 127.51 111.62 122.42 111.62 122.42L155.46 121.96H155.47Z" fill="#FFC52F"/>
<path d="M118.07 114.96C116.47 115.56 114.96 116.38 113.76 117.57C112.26 119.07 111.33 121.23 111.71 123.29C112.16 125.75 114.31 127.57 116.54 128.77C121.47 131.42 127.28 132.01 132.89 131.8C138.69 131.58 144.53 130.54 149.72 128.01C152.86 126.48 157.15 123.26 154.76 119.38C153.97 118.09 152.69 117.18 151.35 116.44C145.28 113.08 137.97 112.85 131.01 113.05C127.07 113.16 123.08 113.4 119.31 114.54C118.89 114.67 118.47 114.81 118.06 114.96H118.07Z" fill="#FFDA40"/>
<path d="M120.661 116.2C119.331 116.7 118.071 117.38 117.071 118.37C115.821 119.62 115.041 121.41 115.361 123.13C115.741 125.17 117.521 126.69 119.381 127.69C123.481 129.89 128.331 130.38 133.001 130.21C137.831 130.03 142.691 129.16 147.021 127.06C149.641 125.79 153.211 123.11 151.221 119.88C150.561 118.81 149.491 118.05 148.381 117.44C143.331 114.65 137.231 114.46 131.431 114.62C128.151 114.71 124.821 114.91 121.681 115.86C121.331 115.97 120.981 116.08 120.641 116.21L120.661 116.2Z" fill="#FFEEA6"/>
<path d="M117.612 168.76C117.862 172.12 117.792 174.08 117.712 175.05C117.662 175.66 117.442 176.24 117.062 176.73C115.832 178.34 113.382 180.03 113.382 180.03C113.382 180.03 104.682 186.4 88.1019 184.51C78.9919 183.47 74.4519 179.64 73.0219 178.21C72.6619 177.85 72.4519 177.38 72.4119 176.87C72.2319 174.47 72.5119 169.23 72.5119 169.23L117.612 168.76Z" fill="#FFC52F"/>
<path d="M79.1412 161.55C77.5012 162.17 75.9412 163.01 74.7112 164.24C73.1612 165.78 72.2112 168 72.6012 170.13C73.0712 172.66 75.2712 174.53 77.5712 175.77C82.6412 178.5 88.6212 179.1 94.4012 178.88C100.361 178.65 106.371 177.58 111.721 174.98C114.951 173.41 119.361 170.09 116.911 166.1C116.101 164.78 114.781 163.83 113.411 163.08C107.171 159.62 99.6412 159.39 92.4812 159.59C88.4212 159.71 84.3212 159.95 80.4412 161.12C80.0112 161.25 79.5812 161.39 79.1512 161.55H79.1412Z" fill="#FFDA40"/>
<path d="M81.8017 162.83C80.4317 163.34 79.1318 164.05 78.1118 165.06C76.8218 166.34 76.0217 168.19 76.3517 169.96C76.7417 172.06 78.5817 173.62 80.4917 174.65C84.7117 176.92 89.7018 177.42 94.5018 177.24C99.4718 177.05 104.472 176.16 108.932 174C111.622 172.69 115.292 169.94 113.252 166.62C112.572 165.52 111.472 164.74 110.332 164.11C105.132 161.24 98.8617 161.04 92.8918 161.21C89.5118 161.31 86.0918 161.51 82.8618 162.48C82.5018 162.59 82.1418 162.71 81.7918 162.84L81.8017 162.83Z" fill="#FFEEA6"/>
<path d="M111.402 161.08C111.652 164.36 111.582 166.27 111.492 167.22C111.442 167.82 111.222 168.38 110.862 168.86C109.662 170.43 107.272 172.08 107.272 172.08C107.272 172.08 98.7916 178.3 82.6116 176.45C73.7316 175.44 69.3016 171.7 67.9016 170.3C67.5516 169.95 67.3416 169.49 67.3116 168.99C67.1416 166.65 67.4016 161.54 67.4016 161.54L111.402 161.08Z" fill="#FFC52F"/>
<path d="M73.8713 154.05C72.2713 154.65 70.7513 155.48 69.5513 156.67C68.0413 158.17 67.1113 160.34 67.4913 162.42C67.9513 164.89 70.1013 166.72 72.3413 167.92C77.2813 170.58 83.1213 171.17 88.7513 170.96C94.5713 170.74 100.431 169.69 105.641 167.15C108.791 165.62 113.091 162.38 110.701 158.48C109.911 157.19 108.621 156.27 107.281 155.53C101.191 152.16 93.8513 151.93 86.8613 152.13C82.9013 152.24 78.9013 152.48 75.1213 153.62C74.7013 153.75 74.2813 153.89 73.8613 154.04L73.8713 154.05Z" fill="#FFDA40"/>
<path d="M76.4606 155.3C75.1206 155.8 73.8606 156.49 72.8606 157.48C71.6006 158.73 70.8306 160.53 71.1506 162.26C71.5306 164.31 73.3206 165.83 75.1906 166.83C79.3106 169.04 84.1706 169.53 88.8606 169.35C93.7106 169.17 98.5906 168.3 102.931 166.19C105.561 164.92 109.141 162.23 107.151 158.99C106.491 157.92 105.421 157.15 104.301 156.54C99.2306 153.74 93.1206 153.55 87.2906 153.71C83.9906 153.8 80.6606 154 77.5106 154.95C77.1606 155.06 76.8106 155.17 76.4606 155.3Z" fill="#FFEEA6"/>
<path d="M108.411 151.57C108.661 154.93 108.591 156.89 108.511 157.86C108.461 158.47 108.241 159.05 107.861 159.54C106.631 161.15 104.181 162.84 104.181 162.84C104.181 162.84 95.4807 169.21 78.9007 167.32C69.7907 166.28 65.2507 162.45 63.8207 161.02C63.4607 160.66 63.2507 160.19 63.2107 159.68C63.0307 157.28 63.3107 152.04 63.3107 152.04L108.411 151.57Z" fill="#FFC52F"/>
<path d="M69.9303 144.36C68.2903 144.98 66.7303 145.82 65.5003 147.05C63.9503 148.59 63.0003 150.81 63.3903 152.94C63.8603 155.47 66.0603 157.34 68.3603 158.58C73.4303 161.31 79.4103 161.91 85.1903 161.69C91.1503 161.46 97.1603 160.39 102.51 157.79C105.74 156.22 110.15 152.9 107.7 148.91C106.89 147.59 105.57 146.64 104.2 145.89C97.9603 142.43 90.4303 142.2 83.2703 142.4C79.2103 142.52 75.1103 142.76 71.2303 143.93C70.8003 144.06 70.3703 144.2 69.9403 144.36H69.9303Z" fill="#FFDA40"/>
<path d="M72.5908 145.64C71.2208 146.15 69.9208 146.86 68.9008 147.87C67.6108 149.15 66.8108 151 67.1408 152.77C67.5308 154.87 69.3708 156.43 71.2808 157.46C75.5008 159.73 80.4908 160.23 85.2908 160.05C90.2608 159.86 95.2608 158.97 99.7208 156.81C102.411 155.5 106.081 152.75 104.041 149.43C103.361 148.33 102.261 147.55 101.121 146.92C95.9208 144.05 89.6508 143.85 83.6808 144.02C80.3008 144.12 76.8808 144.32 73.6508 145.29C73.2908 145.4 72.9308 145.52 72.5808 145.65L72.5908 145.64Z" fill="#FFEEA6"/>
<path d="M118.202 145.51C118.452 148.87 118.382 150.83 118.302 151.8C118.252 152.41 118.032 152.99 117.652 153.48C116.422 155.09 113.972 156.78 113.972 156.78C113.972 156.78 105.272 163.15 88.6918 161.26C79.5818 160.22 75.0418 156.39 73.6118 154.96C73.2518 154.6 73.0418 154.13 73.0018 153.62C72.8218 151.22 73.1018 145.98 73.1018 145.98L118.202 145.51Z" fill="#FFC52F"/>
<path d="M79.7311 138.31C78.0911 138.93 76.5311 139.77 75.3011 141C73.7511 142.54 72.8011 144.76 73.1911 146.89C73.6611 149.42 75.8611 151.29 78.1611 152.53C83.2311 155.26 89.2111 155.86 94.9911 155.64C100.951 155.41 106.961 154.34 112.311 151.74C115.541 150.17 119.951 146.85 117.501 142.86C116.691 141.54 115.371 140.59 114.001 139.84C107.761 136.38 100.231 136.15 93.0711 136.35C89.0111 136.47 84.9111 136.71 81.0311 137.88C80.6011 138.01 80.1711 138.15 79.7411 138.31H79.7311Z" fill="#FFDA40"/>
<path d="M82.3916 139.59C81.0216 140.1 79.7216 140.81 78.7016 141.82C77.4116 143.1 76.6116 144.95 76.9416 146.72C77.3316 148.82 79.1716 150.38 81.0816 151.41C85.3016 153.68 90.2916 154.18 95.0916 154C100.062 153.81 105.062 152.92 109.522 150.76C112.212 149.45 115.882 146.7 113.842 143.38C113.162 142.28 112.062 141.5 110.922 140.87C105.722 138 99.4516 137.8 93.4816 137.97C90.1016 138.07 86.6816 138.27 83.4516 139.24C83.0916 139.35 82.7316 139.47 82.3816 139.6L82.3916 139.59Z" fill="#FFEEA6"/>
<path d="M115.991 135.71C116.241 139.07 116.171 141.03 116.091 142C116.041 142.61 115.821 143.19 115.441 143.68C114.211 145.29 111.761 146.98 111.761 146.98C111.761 146.98 103.061 153.35 86.4808 151.46C77.3708 150.42 72.8308 146.59 71.4008 145.16C71.0408 144.8 70.8308 144.33 70.7908 143.82C70.6108 141.42 70.8908 136.18 70.8908 136.18L115.991 135.71Z" fill="#FFC52F"/>
<path d="M77.5104 128.5C75.8704 129.12 74.3104 129.96 73.0804 131.19C71.5304 132.73 70.5804 134.95 70.9704 137.08C71.4404 139.61 73.6404 141.48 75.9404 142.72C81.0104 145.45 86.9904 146.05 92.7704 145.83C98.7304 145.6 104.74 144.53 110.09 141.93C113.32 140.36 117.73 137.04 115.28 133.05C114.47 131.73 113.15 130.78 111.78 130.03C105.54 126.57 98.0104 126.34 90.8504 126.54C86.7904 126.66 82.6904 126.9 78.8104 128.07C78.3804 128.2 77.9504 128.34 77.5204 128.5H77.5104Z" fill="#FFDA40"/>
<path d="M80.1709 129.78C78.8009 130.29 77.5009 131 76.4809 132.01C75.1909 133.29 74.3909 135.14 74.7209 136.91C75.1109 139.01 76.9509 140.57 78.8609 141.6C83.0809 143.87 88.0709 144.37 92.8709 144.19C97.8409 144 102.841 143.11 107.301 140.95C109.991 139.64 113.661 136.89 111.621 133.57C110.941 132.47 109.841 131.69 108.701 131.06C103.501 128.19 97.2309 127.99 91.2609 128.16C87.8809 128.26 84.4609 128.46 81.2309 129.43C80.8709 129.54 80.5109 129.66 80.1609 129.79L80.1709 129.78Z" fill="#FFEEA6"/>
<path d="M111.381 126.34C111.631 129.7 111.561 131.66 111.481 132.63C111.431 133.24 111.211 133.82 110.831 134.31C109.601 135.92 107.151 137.61 107.151 137.61C107.151 137.61 98.4514 143.98 81.8714 142.09C72.7614 141.05 68.2214 137.22 66.7914 135.79C66.4314 135.43 66.2214 134.96 66.1814 134.45C66.0014 132.05 66.2814 126.81 66.2814 126.81L111.381 126.34Z" fill="#FFC52F"/>
<path d="M72.9108 119.14C71.2708 119.76 69.7108 120.6 68.4808 121.83C66.9308 123.37 65.9808 125.59 66.3708 127.72C66.8408 130.25 69.0408 132.12 71.3408 133.36C76.4108 136.09 82.3908 136.69 88.1708 136.47C94.1308 136.24 100.141 135.17 105.491 132.57C108.721 131 113.131 127.68 110.681 123.69C109.871 122.37 108.551 121.42 107.181 120.67C100.941 117.21 93.4108 116.98 86.2508 117.18C82.1908 117.3 78.0908 117.54 74.2108 118.71C73.7808 118.84 73.3508 118.98 72.9208 119.14H72.9108Z" fill="#FFDA40"/>
<path d="M75.5713 120.42C74.2013 120.93 72.9013 121.64 71.8813 122.65C70.5913 123.93 69.7913 125.78 70.1213 127.55C70.5113 129.65 72.3513 131.21 74.2613 132.24C78.4813 134.51 83.4713 135.01 88.2713 134.83C93.2413 134.64 98.2413 133.75 102.701 131.59C105.391 130.28 109.061 127.53 107.021 124.21C106.341 123.11 105.241 122.33 104.101 121.7C98.9013 118.83 92.6313 118.63 86.6613 118.8C83.2813 118.9 79.8613 119.1 76.6313 120.07C76.2713 120.18 75.9113 120.3 75.5613 120.43L75.5713 120.42Z" fill="#FFEEA6"/>
<path d="M74.3207 148.28C72.6407 151.35 70.5307 153.73 70.5307 153.73C68.6307 155.87 65.9207 157.34 63.0807 157.66C60.4807 157.96 57.8407 157.5 55.3907 156.63C54.2407 156.22 53.1307 155.73 52.0807 155.12C49.7707 153.79 47.7407 152 46.1707 149.84C43.3707 146.01 41.6107 140.71 43.8507 136.2C44.6707 134.55 45.6307 132.96 46.7207 131.48L74.3307 148.27L74.3207 148.28Z" fill="#FFC52F"/>
<path d="M74.3202 148.287C78.0168 142.21 74.8321 133.523 67.2069 128.885C59.5817 124.247 50.4036 125.414 46.707 131.491C43.0104 137.569 46.1951 146.255 53.8203 150.893C61.4454 155.531 70.6235 154.365 74.3202 148.287Z" fill="#FFDA40"/>
<path d="M70.8507 146.178C73.6203 141.624 71.2371 135.118 65.5276 131.645C59.8182 128.172 52.9446 129.048 50.175 133.602C47.4054 138.155 49.7886 144.661 55.498 148.134C61.2075 151.607 68.0811 150.731 70.8507 146.178Z" fill="#FFEEA6"/>
<path d="M66.1418 134.32C64.3718 137.54 62.1618 140.04 62.1618 140.04C60.1618 142.29 57.3218 143.83 54.3418 144.17C51.6118 144.48 48.8418 144 46.2718 143.09C45.0718 142.66 43.9018 142.14 42.7918 141.51C40.3718 140.11 38.2418 138.23 36.5918 135.97C33.6618 131.95 31.8118 126.39 34.1618 121.65C35.0218 119.92 36.0218 118.24 37.1718 116.7L66.1418 134.32Z" fill="#FFC52F"/>
<path d="M66.133 134.325C70.0133 127.946 66.6715 118.828 58.6689 113.96C50.6662 109.093 41.0332 110.318 37.1529 116.698C33.2726 123.077 36.6144 132.195 44.617 137.063C52.6197 141.93 62.2527 140.705 66.133 134.325Z" fill="#FFDA40"/>
<path d="M62.4925 132.111C65.3999 127.331 62.8989 120.502 56.9063 116.857C50.9138 113.212 43.6989 114.132 40.7916 118.912C37.8842 123.692 40.3853 130.521 46.3778 134.166C52.3704 137.811 59.5852 136.891 62.4925 132.111Z" fill="#FFEEA6"/>
<path d="M110.242 118.96C110.462 121.89 110.402 123.59 110.322 124.44C110.272 124.97 110.082 125.48 109.752 125.9C108.672 127.3 106.542 128.78 106.542 128.78C106.542 128.78 98.9619 134.33 84.5219 132.68C76.5919 131.78 72.6319 128.44 71.3819 127.19C71.0719 126.88 70.8819 126.47 70.8519 126.02C70.6919 123.93 70.9319 119.37 70.9319 119.37L110.212 118.96H110.242Z" fill="#FFC52F"/>
<path d="M76.7313 112.69C75.3013 113.23 73.9413 113.96 72.8713 115.03C71.5213 116.37 70.6913 118.31 71.0313 120.16C71.4413 122.36 73.3613 124 75.3613 125.07C79.7713 127.44 84.9913 127.97 90.0113 127.78C95.2013 127.58 100.441 126.65 105.101 124.38C107.911 123.01 111.761 120.12 109.621 116.64C108.911 115.49 107.761 114.67 106.571 114.01C101.131 111 94.5813 110.79 88.3413 110.97C84.8113 111.07 81.2313 111.28 77.8613 112.3C77.4813 112.41 77.1113 112.54 76.7413 112.68L76.7313 112.69Z" fill="#FFDA40"/>
<path d="M79.0517 113.8C77.8617 114.25 76.7317 114.86 75.8417 115.75C74.7217 116.87 74.0217 118.47 74.3117 120.01C74.6517 121.84 76.2517 123.2 77.9117 124.09C81.5917 126.06 85.9317 126.5 90.1217 126.34C94.4517 126.18 98.8117 125.4 102.692 123.52C105.032 122.38 108.232 119.98 106.452 117.09C105.862 116.13 104.902 115.45 103.912 114.9C99.3817 112.4 93.9217 112.23 88.7217 112.38C85.7817 112.46 82.8017 112.64 79.9917 113.49C79.6817 113.58 79.3617 113.69 79.0617 113.8H79.0517Z" fill="#FFEEA6"/>
<path d="M113.672 111.95C113.892 114.88 113.832 116.58 113.752 117.43C113.702 117.96 113.512 118.47 113.182 118.89C112.102 120.29 109.972 121.77 109.972 121.77C109.972 121.77 102.392 127.32 87.9516 125.67C80.0216 124.77 76.0616 121.43 74.8116 120.18C74.5016 119.87 74.3116 119.46 74.2816 119.01C74.1216 116.92 74.3616 112.36 74.3616 112.36L113.642 111.95H113.672Z" fill="#FFC52F"/>
<path d="M80.161 105.68C78.731 106.22 77.371 106.95 76.301 108.02C74.951 109.36 74.121 111.3 74.461 113.15C74.871 115.35 76.791 116.99 78.791 118.06C83.201 120.43 88.421 120.96 93.441 120.77C98.631 120.57 103.871 119.64 108.531 117.37C111.341 116 115.191 113.11 113.051 109.63C112.341 108.48 111.191 107.66 110.001 107C104.561 103.99 98.011 103.78 91.771 103.96C88.241 104.06 84.661 104.27 81.291 105.29C80.911 105.4 80.541 105.53 80.171 105.67L80.161 105.68Z" fill="#FFDA40"/>
<path d="M82.4716 106.79C81.2816 107.24 80.1516 107.85 79.2616 108.74C78.1416 109.86 77.4416 111.46 77.7316 113C78.0716 114.83 79.6716 116.19 81.3316 117.08C85.0116 119.05 89.3516 119.49 93.5416 119.33C97.8716 119.17 102.232 118.39 106.112 116.51C108.452 115.37 111.652 112.97 109.872 110.08C109.282 109.12 108.322 108.44 107.332 107.89C102.802 105.39 97.3416 105.22 92.1416 105.37C89.2016 105.45 86.2216 105.63 83.4116 106.48C83.1016 106.57 82.7816 106.68 82.4816 106.79H82.4716Z" fill="#FFEEA6"/>
<path d="M109.072 104.28C109.292 107.21 109.232 108.91 109.152 109.76C109.102 110.29 108.912 110.8 108.582 111.22C107.502 112.62 105.372 114.1 105.372 114.1C105.372 114.1 97.792 119.65 83.352 118C75.422 117.1 71.462 113.76 70.212 112.51C69.902 112.2 69.712 111.79 69.682 111.34C69.522 109.25 69.762 104.69 69.762 104.69L109.042 104.28H109.072Z" fill="#FFC52F"/>
<path d="M75.5614 98.0098C74.1314 98.5498 72.7714 99.2798 71.7014 100.35C70.3514 101.69 69.5214 103.63 69.8614 105.48C70.2714 107.68 72.1914 109.32 74.1914 110.39C78.6014 112.76 83.8214 113.29 88.8414 113.1C94.0314 112.9 99.2714 111.97 103.931 109.7C106.741 108.33 110.591 105.44 108.451 101.96C107.741 100.81 106.591 99.9898 105.401 99.3298C99.9614 96.3198 93.4114 96.1098 87.1714 96.2898C83.6414 96.3898 80.0614 96.5998 76.6914 97.6198C76.3114 97.7298 75.9414 97.8598 75.5714 97.9998L75.5614 98.0098Z" fill="#FFDA40"/>
<path d="M77.872 99.1199C76.682 99.5699 75.552 100.18 74.662 101.07C73.542 102.19 72.842 103.79 73.132 105.33C73.472 107.16 75.072 108.52 76.732 109.41C80.412 111.38 84.752 111.82 88.942 111.66C93.272 111.5 97.632 110.72 101.512 108.84C103.852 107.7 107.052 105.3 105.272 102.41C104.682 101.45 103.722 100.77 102.732 100.22C98.202 97.7199 92.742 97.5499 87.542 97.6999C84.602 97.7799 81.622 97.9599 78.812 98.8099C78.502 98.8999 78.182 99.0099 77.882 99.1199H77.872Z" fill="#FFEEA6"/>
<path d="M156.572 115.36C156.792 118.29 156.732 119.99 156.652 120.84C156.602 121.37 156.412 121.88 156.082 122.3C155.002 123.7 152.872 125.18 152.872 125.18C152.872 125.18 145.292 130.73 130.852 129.08C122.922 128.18 118.962 124.84 117.712 123.59C117.402 123.28 117.212 122.87 117.182 122.42C117.022 120.33 117.262 115.77 117.262 115.77L156.542 115.36H156.572Z" fill="#FFC52F"/>
<path d="M123.061 109.08C121.631 109.62 120.271 110.35 119.201 111.42C117.851 112.76 117.021 114.7 117.361 116.55C117.771 118.75 119.691 120.39 121.691 121.46C126.101 123.83 131.321 124.36 136.341 124.17C141.531 123.97 146.771 123.04 151.431 120.77C154.241 119.4 158.091 116.51 155.951 113.03C155.241 111.88 154.091 111.06 152.901 110.4C147.461 107.39 140.911 107.18 134.671 107.36C131.141 107.46 127.561 107.67 124.191 108.69C123.811 108.8 123.441 108.93 123.071 109.07L123.061 109.08Z" fill="#FFDA40"/>
<path d="M125.382 110.2C124.192 110.65 123.062 111.26 122.172 112.15C121.052 113.27 120.352 114.87 120.642 116.41C120.982 118.24 122.582 119.6 124.242 120.49C127.922 122.46 132.262 122.9 136.452 122.74C140.782 122.58 145.142 121.8 149.022 119.92C151.362 118.78 154.562 116.38 152.782 113.49C152.192 112.53 151.232 111.85 150.242 111.3C145.712 108.8 140.252 108.63 135.052 108.78C132.112 108.86 129.132 109.04 126.322 109.89C126.012 109.98 125.692 110.09 125.392 110.2H125.382Z" fill="#FFEEA6"/>
<path d="M153.851 107.72C154.071 110.65 154.011 112.35 153.931 113.2C153.881 113.73 153.691 114.24 153.361 114.66C152.281 116.06 150.151 117.54 150.151 117.54C150.151 117.54 142.571 123.09 128.131 121.44C120.201 120.54 116.241 117.2 114.991 115.95C114.681 115.64 114.491 115.23 114.461 114.78C114.301 112.69 114.541 108.13 114.541 108.13L153.821 107.72H153.851Z" fill="#FFC52F"/>
<path d="M120.341 101.45C118.911 101.99 117.551 102.72 116.481 103.79C115.131 105.13 114.301 107.07 114.641 108.92C115.051 111.12 116.971 112.76 118.971 113.83C123.381 116.2 128.601 116.73 133.621 116.54C138.811 116.34 144.051 115.41 148.711 113.14C151.521 111.77 155.371 108.88 153.231 105.4C152.521 104.25 151.371 103.43 150.181 102.77C144.741 99.7602 138.191 99.5502 131.951 99.7302C128.421 99.8302 124.841 100.04 121.471 101.06C121.091 101.17 120.721 101.3 120.351 101.44L120.341 101.45Z" fill="#FFDA40"/>
<path d="M122.661 102.56C121.471 103.01 120.341 103.62 119.451 104.51C118.331 105.63 117.631 107.23 117.921 108.77C118.261 110.6 119.861 111.96 121.521 112.85C125.201 114.82 129.541 115.26 133.731 115.1C138.061 114.94 142.421 114.16 146.301 112.28C148.641 111.14 151.841 108.74 150.061 105.85C149.471 104.89 148.511 104.21 147.521 103.66C142.991 101.16 137.531 100.99 132.331 101.14C129.391 101.22 126.411 101.4 123.601 102.25C123.291 102.34 122.971 102.45 122.671 102.56H122.661Z" fill="#FFEEA6"/>
<path d="M158.832 118.55C160.702 121.97 163.052 124.62 163.052 124.62C165.172 127 168.182 128.64 171.342 129C174.232 129.33 177.172 128.82 179.902 127.86C181.172 127.41 182.412 126.86 183.592 126.18C186.162 124.7 188.422 122.7 190.172 120.31C193.282 116.05 195.242 110.15 192.752 105.13C191.842 103.3 190.772 101.52 189.562 99.8799L158.842 118.56L158.832 118.55Z" fill="#FFC52F"/>
<path d="M181.638 121.45C190.122 116.289 193.666 106.625 189.553 99.863C185.44 93.1013 175.228 91.8031 166.744 96.9635C158.26 102.124 154.717 111.789 158.83 118.55C162.942 125.312 173.154 126.61 181.638 121.45Z" fill="#FFDA40"/>
<path d="M179.772 118.382C186.123 114.519 188.773 107.28 185.69 102.212C182.608 97.1441 174.96 96.1676 168.609 100.031C162.258 103.894 159.608 111.134 162.691 116.201C165.773 121.269 173.42 122.246 179.772 118.382Z" fill="#FFEEA6"/>
</g>
<defs>
<clipPath id="clip0_113_24991">
<rect width="224.93" height="208.1" fill="white" transform="translate(0.851562)"/>
</clipPath>
</defs>
</svg>
