<svg width="100%" height="100%" viewBox="0 0 226 209" fill="none" xmlns="http://www.w3.org/2000/svg">
<g clip-path="url(#clip0_113_24993)">
<path d="M218.921 87.35H214.041C211.111 66.63 201.821 47.96 188.221 33.35C190.631 23.75 195.991 21.63 195.991 21.63C200.261 19.62 199.761 15.86 199.761 15.86C199.261 11.84 192.981 9.58 192.981 9.58C181.381 6.76 171.761 11.93 166.551 15.77C151.491 6.71 133.871 1.5 115.031 1.5C63.3214 1.5 20.7714 40.76 15.5714 91.1C14.3614 91.74 12.9814 92.06 11.6514 91.76C9.80137 91.34 8.23137 89.49 8.57137 87.62C8.86137 85.97 10.3714 84.87 11.6914 83.83C13.0114 82.79 14.3514 81.35 14.1014 79.69C13.8414 78.02 11.9414 76.99 10.2614 77.21C8.58137 77.43 7.18137 78.57 6.07137 79.84C1.74137 84.84 -0.138634 95.04 6.80137 98.72C8.56137 99.65 10.5514 100.07 12.5314 100.29C13.3714 100.38 14.2614 100.42 15.0414 100.11C15.0414 100.57 15.0214 101.04 15.0214 101.5C15.0214 140.98 37.9014 175.12 71.1314 191.37C71.0814 191.46 71.0214 191.54 70.9914 191.63L66.6114 201.6C65.5314 204.05 67.8814 206.6 71.2214 206.6H80.6514C82.6514 206.6 84.4414 205.65 85.1814 204.21L88.3914 197.91C96.8714 200.25 105.811 201.5 115.031 201.5C124.251 201.5 133.191 200.24 141.671 197.91L144.881 204.21C145.611 205.65 147.411 206.6 149.411 206.6H158.841C162.181 206.6 164.531 204.05 163.451 201.6L159.071 191.63C159.031 191.54 158.971 191.46 158.931 191.37C185.961 178.15 206.141 153.09 212.731 122.95H218.931C221.801 122.95 224.151 120.6 224.151 117.73V92.57C224.151 89.7 221.801 87.35 218.931 87.35H218.921Z" fill="#FFF3C0"/>
<path d="M158.841 208.1H149.411C146.841 208.1 144.541 206.84 143.541 204.89L140.891 199.67C124.061 204.09 106.001 204.09 89.1806 199.67L86.5306 204.89C85.5406 206.84 83.2406 208.1 80.6606 208.1H71.2306C68.8806 208.1 66.7406 207.04 65.6306 205.34C64.7606 204.01 64.6206 202.42 65.2506 200.99L69.1706 192.06C52.9206 183.82 39.1806 171.36 29.3606 155.95C19.0706 139.79 13.6006 121.09 13.5306 101.85C13.1306 101.85 12.7406 101.82 12.3706 101.78C9.79059 101.5 7.80059 100.95 6.10059 100.05C3.32059 98.58 1.53059 96.09 0.930589 92.85C0.0805893 88.33 1.73059 82.58 4.94059 78.87C6.54059 77.02 8.27059 75.96 10.0706 75.73C12.4006 75.43 15.1806 76.86 15.5806 79.47C15.8706 81.37 14.8706 83.23 12.6206 85.02L12.3906 85.2C11.3306 86.04 10.2206 86.9 10.0506 87.89C9.88059 88.87 10.8206 90.04 11.9906 90.3C12.7806 90.48 13.5506 90.33 14.1806 90.09C16.9206 65.59 28.5006 42.96 46.8606 26.31C65.5506 9.34 89.7606 0 115.031 0C133.161 0 150.921 4.83 166.461 13.98C171.721 10.3 181.561 5.28 193.321 8.13L193.471 8.18C194.201 8.44 200.631 10.89 201.231 15.68C201.251 15.87 201.821 20.55 196.611 23C196.361 23.11 192.101 24.99 189.861 32.95C203.471 47.8 212.251 66.05 215.311 85.86H218.901C222.611 85.86 225.621 88.87 225.621 92.58V117.74C225.621 121.45 222.611 124.46 218.901 124.46H213.901C207.191 153.45 187.491 178.56 160.881 192.07L164.801 201C165.431 202.43 165.291 204.02 164.421 205.35C163.311 207.05 161.161 208.11 158.821 208.11L158.841 208.1ZM142.461 196.13L146.221 203.52C146.701 204.46 147.981 205.09 149.411 205.09H158.841C160.161 205.09 161.381 204.54 161.931 203.69C162.251 203.2 162.301 202.7 162.071 202.19L157.611 192.09L156.841 190.71L158.261 190.01C185.081 176.89 204.891 151.69 211.251 122.62L211.511 121.44H218.911C220.961 121.44 222.631 119.77 222.631 117.72V92.56C222.631 90.51 220.961 88.84 218.911 88.84H212.721L212.541 87.55C209.711 67.58 200.921 49.19 187.111 34.37L186.551 33.77L186.751 32.98C189.321 22.75 195.171 20.33 195.421 20.23C198.451 18.8 198.281 16.31 198.251 16.03C197.941 13.54 194.081 11.59 192.521 11.01C181.351 8.33 172.001 13.59 167.421 16.97L166.611 17.56L165.751 17.04C150.481 7.84 132.941 2.98 115.021 2.98C90.5006 2.98 67.0006 12.05 48.8506 28.51C30.8306 44.86 19.5406 67.14 17.0506 91.23L16.9706 92.02L16.2606 92.4C14.6106 93.28 12.9006 93.56 11.3106 93.2C8.56059 92.58 6.62059 89.9 7.08059 87.33C7.46059 85.21 9.16059 83.87 10.5206 82.8L10.7506 82.62C11.6706 81.89 12.7506 80.82 12.6006 79.88C12.4906 79.14 11.4206 78.54 10.4406 78.66C9.39059 78.79 8.30059 79.51 7.20059 80.79C4.59059 83.81 3.19059 88.63 3.87059 92.26C4.31059 94.6 5.53059 96.32 7.50059 97.37C8.85059 98.09 10.5006 98.53 12.6906 98.77C13.3006 98.84 14.0006 98.88 14.4906 98.69L16.5706 97.87L16.5306 100.54C16.5306 100.85 16.5206 101.17 16.5206 101.49C16.5206 120.28 21.8306 138.56 31.8806 154.33C41.6606 169.69 55.4606 182.03 71.7906 190.02L73.2006 190.71L72.3606 192.23L67.9806 202.19C67.7606 202.7 67.8006 203.2 68.1206 203.69C68.6706 204.54 69.8906 205.09 71.2106 205.09H80.6406C82.0706 205.09 83.3506 204.46 83.8306 203.52L87.5906 196.13L88.7706 196.46C105.811 201.16 124.221 201.16 141.261 196.46L142.441 196.13H142.461Z" fill="#FFEEA6"/>
<path d="M115.031 191.26C164.605 191.26 204.791 151.073 204.791 101.5C204.791 51.9272 164.605 11.7402 115.031 11.7402C65.4584 11.7402 25.2715 51.9272 25.2715 101.5C25.2715 151.073 65.4584 191.26 115.031 191.26Z" fill="#FFFAE6"/>
<path d="M174.55 129.85C184.519 129.85 192.6 122.333 192.6 113.06C192.6 103.787 184.519 96.27 174.55 96.27C164.581 96.27 156.5 103.787 156.5 113.06C156.5 122.333 164.581 129.85 174.55 129.85Z" fill="#FFDA40"/>
<path d="M174.549 126.24C182.381 126.24 188.729 120.339 188.729 113.06C188.729 105.781 182.381 99.8799 174.549 99.8799C166.718 99.8799 160.369 105.781 160.369 113.06C160.369 120.339 166.718 126.24 174.549 126.24Z" fill="#FFEEA6"/>
<path d="M165.21 150.85C177.664 150.85 187.76 141.462 187.76 129.88C187.76 118.299 177.664 108.91 165.21 108.91C152.756 108.91 142.66 118.299 142.66 129.88C142.66 141.462 152.756 150.85 165.21 150.85Z" fill="#FFDA40"/>
<path d="M165.21 146.35C174.991 146.35 182.92 138.976 182.92 129.88C182.92 120.784 174.991 113.41 165.21 113.41C155.429 113.41 147.5 120.784 147.5 129.88C147.5 138.976 155.429 146.35 165.21 146.35Z" fill="#FFEEA6"/>
<path d="M68.4711 152.53C80.6766 152.53 90.5711 143.33 90.5711 131.98C90.5711 120.631 80.6766 111.43 68.4711 111.43C56.2656 111.43 46.3711 120.631 46.3711 131.98C46.3711 143.33 56.2656 152.53 68.4711 152.53Z" fill="#FFDA40"/>
<path d="M68.4713 148.12C78.059 148.12 85.8313 140.894 85.8313 131.98C85.8313 123.066 78.059 115.84 68.4713 115.84C58.8837 115.84 51.1113 123.066 51.1113 131.98C51.1113 140.894 58.8837 148.12 68.4713 148.12Z" fill="#FFEEA6"/>
<path d="M154.231 164.52C154.491 168.04 154.421 170.08 154.331 171.1C154.271 171.74 154.041 172.35 153.651 172.86C152.361 174.54 149.801 176.31 149.801 176.31C149.801 176.31 140.701 182.97 123.361 181C113.841 179.92 109.081 175.9 107.591 174.41C107.211 174.03 106.991 173.54 106.951 173.01C106.761 170.5 107.051 165.02 107.051 165.02L154.221 164.52H154.231Z" fill="#FFC52F"/>
<path d="M114 156.99C112.28 157.63 110.65 158.52 109.37 159.8C107.75 161.41 106.75 163.73 107.16 165.96C107.65 168.61 109.95 170.57 112.36 171.86C117.66 174.71 123.92 175.34 129.96 175.12C136.2 174.88 142.48 173.76 148.07 171.04C151.45 169.4 156.06 165.93 153.5 161.75C152.65 160.37 151.27 159.38 149.83 158.59C143.3 154.97 135.43 154.73 127.94 154.94C123.7 155.06 119.41 155.31 115.35 156.54C114.9 156.68 114.45 156.83 114 156.99Z" fill="#FFDA40"/>
<path d="M116.782 158.32C115.352 158.86 113.992 159.59 112.922 160.66C111.572 162 110.742 163.93 111.082 165.78C111.492 167.98 113.412 169.61 115.412 170.68C119.822 173.05 125.042 173.58 130.072 173.39C135.262 173.19 140.502 172.26 145.162 170C147.972 168.63 151.822 165.75 149.682 162.28C148.972 161.13 147.822 160.31 146.632 159.65C141.192 156.64 134.642 156.44 128.402 156.62C124.872 156.72 121.292 156.93 117.912 157.95C117.532 158.06 117.162 158.19 116.792 158.33L116.782 158.32Z" fill="#FFEEA6"/>
<path d="M163.511 156.22C163.771 159.74 163.701 161.78 163.611 162.8C163.551 163.44 163.321 164.05 162.931 164.56C161.641 166.24 159.081 168.01 159.081 168.01C159.081 168.01 149.981 174.67 132.641 172.7C123.121 171.62 118.361 167.6 116.871 166.11C116.491 165.73 116.271 165.24 116.231 164.71C116.041 162.2 116.331 156.72 116.331 156.72L163.501 156.22H163.511Z" fill="#FFC52F"/>
<path d="M123.27 148.69C121.55 149.33 119.92 150.22 118.64 151.5C117.02 153.11 116.02 155.43 116.43 157.66C116.92 160.31 119.22 162.27 121.63 163.56C126.93 166.41 133.19 167.04 139.23 166.82C145.47 166.58 151.75 165.46 157.34 162.74C160.72 161.1 165.33 157.63 162.77 153.45C161.92 152.07 160.54 151.08 159.1 150.29C152.57 146.67 144.7 146.43 137.21 146.64C132.97 146.76 128.68 147.01 124.62 148.24C124.17 148.38 123.72 148.53 123.27 148.69Z" fill="#FFDA40"/>
<path d="M126.05 150.03C124.62 150.57 123.26 151.3 122.19 152.37C120.84 153.71 120.01 155.64 120.35 157.49C120.76 159.69 122.68 161.32 124.68 162.39C129.09 164.76 134.31 165.29 139.34 165.1C144.53 164.9 149.77 163.97 154.43 161.71C157.24 160.34 161.09 157.46 158.95 153.99C158.24 152.84 157.09 152.02 155.9 151.36C150.46 148.35 143.91 148.15 137.67 148.33C134.14 148.43 130.56 148.64 127.18 149.66C126.8 149.77 126.43 149.9 126.06 150.04L126.05 150.03Z" fill="#FFEEA6"/>
<path d="M160.38 146.45C160.64 149.97 160.57 152.01 160.48 153.03C160.42 153.67 160.19 154.28 159.8 154.79C158.51 156.47 155.95 158.24 155.95 158.24C155.95 158.24 146.85 164.9 129.51 162.93C119.99 161.85 115.23 157.83 113.74 156.34C113.36 155.96 113.14 155.47 113.1 154.94C112.91 152.43 113.2 146.95 113.2 146.95L160.37 146.45H160.38Z" fill="#FFC52F"/>
<path d="M120.149 138.92C118.429 139.56 116.799 140.45 115.519 141.73C113.899 143.34 112.899 145.66 113.309 147.89C113.799 150.54 116.099 152.5 118.509 153.79C123.809 156.64 130.069 157.27 136.109 157.05C142.349 156.81 148.629 155.69 154.219 152.97C157.599 151.33 162.209 147.86 159.649 143.68C158.799 142.3 157.419 141.31 155.979 140.52C149.449 136.9 141.579 136.66 134.089 136.87C129.849 136.99 125.559 137.24 121.499 138.47C121.049 138.61 120.599 138.76 120.149 138.92Z" fill="#FFDA40"/>
<path d="M122.931 140.25C121.501 140.79 120.141 141.52 119.071 142.59C117.721 143.93 116.891 145.86 117.231 147.71C117.641 149.91 119.561 151.54 121.561 152.61C125.971 154.98 131.191 155.51 136.221 155.32C141.411 155.12 146.651 154.19 151.311 151.93C154.121 150.56 157.971 147.68 155.831 144.21C155.121 143.06 153.971 142.24 152.781 141.58C147.341 138.57 140.791 138.37 134.551 138.55C131.021 138.65 127.441 138.86 124.061 139.88C123.681 139.99 123.311 140.12 122.941 140.26L122.931 140.25Z" fill="#FFEEA6"/>
<path d="M165.501 137.03C165.761 140.55 165.691 142.59 165.601 143.61C165.541 144.25 165.311 144.86 164.921 145.37C163.631 147.05 161.071 148.82 161.071 148.82C161.071 148.82 151.971 155.48 134.631 153.51C125.111 152.43 120.351 148.41 118.861 146.92C118.481 146.54 118.261 146.05 118.221 145.52C118.031 143.01 118.321 137.53 118.321 137.53L165.491 137.03H165.501Z" fill="#FFC52F"/>
<path d="M125.26 129.5C123.54 130.14 121.91 131.03 120.63 132.31C119.01 133.92 118.01 136.24 118.42 138.47C118.91 141.12 121.21 143.08 123.62 144.37C128.92 147.22 135.18 147.85 141.22 147.63C147.46 147.39 153.74 146.27 159.33 143.55C162.71 141.91 167.32 138.44 164.76 134.26C163.91 132.88 162.53 131.89 161.09 131.1C154.56 127.48 146.69 127.24 139.2 127.45C134.96 127.57 130.67 127.82 126.61 129.05C126.16 129.19 125.71 129.34 125.26 129.5Z" fill="#FFDA40"/>
<path d="M128.04 130.83C126.61 131.37 125.25 132.1 124.18 133.17C122.83 134.51 122 136.44 122.34 138.29C122.75 140.49 124.67 142.12 126.67 143.19C131.08 145.56 136.3 146.09 141.33 145.9C146.52 145.7 151.76 144.77 156.42 142.51C159.23 141.14 163.08 138.26 160.94 134.79C160.23 133.64 159.08 132.82 157.89 132.16C152.45 129.15 145.9 128.95 139.66 129.13C136.13 129.23 132.55 129.44 129.17 130.46C128.79 130.57 128.42 130.7 128.05 130.84L128.04 130.83Z" fill="#FFEEA6"/>
<path d="M158.971 127.82C159.231 131.34 159.161 133.38 159.071 134.4C159.011 135.04 158.781 135.65 158.391 136.16C157.101 137.84 154.541 139.61 154.541 139.61C154.541 139.61 145.441 146.27 128.101 144.3C118.581 143.22 113.821 139.2 112.331 137.71C111.951 137.33 111.731 136.84 111.691 136.31C111.501 133.8 111.791 128.32 111.791 128.32L158.961 127.82H158.971Z" fill="#FFC52F"/>
<path d="M118.741 120.28C117.021 120.92 115.391 121.81 114.111 123.09C112.491 124.7 111.491 127.02 111.901 129.25C112.391 131.9 114.691 133.86 117.101 135.15C122.401 138 128.661 138.63 134.701 138.41C140.941 138.17 147.221 137.05 152.811 134.33C156.191 132.69 160.801 129.22 158.241 125.04C157.391 123.66 156.011 122.67 154.571 121.88C148.041 118.26 140.171 118.02 132.681 118.23C128.441 118.35 124.151 118.6 120.091 119.83C119.641 119.97 119.191 120.12 118.741 120.28Z" fill="#FFDA40"/>
<path d="M121.522 121.62C120.092 122.16 118.732 122.89 117.662 123.96C116.312 125.3 115.482 127.23 115.822 129.08C116.232 131.28 118.152 132.91 120.152 133.98C124.562 136.35 129.782 136.88 134.812 136.69C140.002 136.49 145.242 135.56 149.902 133.3C152.712 131.93 156.562 129.05 154.422 125.58C153.712 124.43 152.562 123.61 151.372 122.95C145.932 119.94 139.382 119.74 133.142 119.92C129.612 120.02 126.032 120.23 122.652 121.25C122.272 121.36 121.902 121.49 121.532 121.63L121.522 121.62Z" fill="#FFEEA6"/>
<path d="M155.33 118.96C155.58 122.23 155.51 124.13 155.42 125.07C155.37 125.66 155.15 126.23 154.79 126.7C153.59 128.26 151.21 129.91 151.21 129.91C151.21 129.91 142.76 136.1 126.64 134.27C117.79 133.26 113.37 129.53 111.98 128.14C111.63 127.79 111.43 127.33 111.39 126.84C111.22 124.51 111.48 119.42 111.48 119.42L155.32 118.96H155.33Z" fill="#FFC52F"/>
<path d="M117.929 111.96C116.329 112.56 114.819 113.38 113.619 114.57C112.119 116.07 111.189 118.23 111.569 120.29C112.019 122.75 114.169 124.57 116.399 125.77C121.329 128.42 127.139 129.01 132.749 128.8C138.549 128.58 144.389 127.54 149.579 125.01C152.719 123.48 157.009 120.26 154.619 116.38C153.829 115.09 152.549 114.18 151.209 113.44C145.139 110.08 137.829 109.85 130.869 110.05C126.929 110.16 122.939 110.4 119.169 111.54C118.749 111.67 118.329 111.81 117.919 111.96H117.929Z" fill="#FFDA40"/>
<path d="M120.52 113.2C119.19 113.7 117.93 114.38 116.93 115.37C115.68 116.62 114.9 118.41 115.22 120.13C115.6 122.17 117.38 123.69 119.24 124.69C123.34 126.89 128.19 127.38 132.86 127.21C137.69 127.03 142.55 126.16 146.88 124.06C149.5 122.79 153.07 120.11 151.08 116.88C150.42 115.81 149.35 115.05 148.24 114.44C143.19 111.65 137.09 111.46 131.29 111.62C128.01 111.71 124.68 111.91 121.54 112.86C121.19 112.97 120.84 113.08 120.5 113.21L120.52 113.2Z" fill="#FFEEA6"/>
<path d="M117.471 168.76C117.721 172.12 117.651 174.08 117.571 175.05C117.521 175.66 117.301 176.24 116.921 176.73C115.691 178.34 113.241 180.03 113.241 180.03C113.241 180.03 104.541 186.4 87.9613 184.51C78.8513 183.47 74.3113 179.64 72.8813 178.21C72.5213 177.85 72.3113 177.38 72.2713 176.87C72.0913 174.47 72.3713 169.23 72.3713 169.23L117.471 168.76Z" fill="#FFC52F"/>
<path d="M79.0006 161.55C77.3606 162.17 75.8006 163.01 74.5706 164.24C73.0206 165.78 72.0706 168 72.4606 170.13C72.9306 172.66 75.1306 174.53 77.4306 175.77C82.5006 178.5 88.4806 179.1 94.2606 178.88C100.221 178.65 106.231 177.58 111.581 174.98C114.811 173.41 119.221 170.09 116.771 166.1C115.961 164.78 114.641 163.83 113.271 163.08C107.031 159.62 99.5006 159.39 92.3406 159.59C88.2806 159.71 84.1806 159.95 80.3006 161.12C79.8706 161.25 79.4406 161.39 79.0106 161.55H79.0006Z" fill="#FFDA40"/>
<path d="M81.6611 162.83C80.2911 163.34 78.9911 164.05 77.9711 165.06C76.6811 166.34 75.8811 168.19 76.2111 169.96C76.6011 172.06 78.4411 173.62 80.3511 174.65C84.5711 176.92 89.5611 177.42 94.3611 177.24C99.3311 177.05 104.331 176.16 108.791 174C111.481 172.69 115.151 169.94 113.111 166.62C112.431 165.52 111.331 164.74 110.191 164.11C104.991 161.24 98.7211 161.04 92.7511 161.21C89.3711 161.31 85.9511 161.51 82.7211 162.48C82.3611 162.59 82.0011 162.71 81.6511 162.84L81.6611 162.83Z" fill="#FFEEA6"/>
<path d="M114.76 158.91C115.01 162.27 114.94 164.23 114.86 165.2C114.81 165.81 114.59 166.39 114.21 166.88C112.98 168.49 110.53 170.18 110.53 170.18C110.53 170.18 101.83 176.55 85.2504 174.66C76.1404 173.62 71.6004 169.79 70.1704 168.36C69.8104 168 69.6004 167.53 69.5604 167.02C69.3804 164.62 69.6603 159.38 69.6603 159.38L114.76 158.91Z" fill="#FFC52F"/>
<path d="M76.2799 151.71C74.6399 152.33 73.0799 153.17 71.8499 154.4C70.2999 155.94 69.3499 158.16 69.7399 160.29C70.2099 162.82 72.4099 164.69 74.7099 165.93C79.7799 168.66 85.7599 169.26 91.5399 169.04C97.4999 168.81 103.51 167.74 108.86 165.14C112.09 163.57 116.5 160.25 114.05 156.26C113.24 154.94 111.92 153.99 110.55 153.24C104.31 149.78 96.7799 149.55 89.6199 149.75C85.5599 149.87 81.4599 150.11 77.5799 151.28C77.1499 151.41 76.7199 151.55 76.2899 151.71H76.2799Z" fill="#FFDA40"/>
<path d="M78.9404 152.99C77.5704 153.5 76.2704 154.21 75.2504 155.22C73.9604 156.5 73.1604 158.35 73.4904 160.12C73.8804 162.22 75.7204 163.78 77.6304 164.81C81.8504 167.08 86.8404 167.58 91.6404 167.4C96.6104 167.21 101.61 166.32 106.07 164.16C108.76 162.85 112.43 160.1 110.39 156.78C109.71 155.68 108.61 154.9 107.47 154.27C102.27 151.4 96.0004 151.2 90.0304 151.37C86.6504 151.47 83.2304 151.67 80.0004 152.64C79.6404 152.75 79.2804 152.87 78.9304 153L78.9404 152.99Z" fill="#FFEEA6"/>
<path d="M109.27 149.57C109.52 152.93 109.45 154.89 109.37 155.86C109.32 156.47 109.1 157.05 108.72 157.54C107.49 159.15 105.04 160.84 105.04 160.84C105.04 160.84 96.3401 167.21 79.7601 165.32C70.6501 164.28 66.1101 160.45 64.6801 159.02C64.3201 158.66 64.1101 158.19 64.0701 157.68C63.8901 155.28 64.1701 150.04 64.1701 150.04L109.27 149.57Z" fill="#FFC52F"/>
<path d="M70.7897 142.36C69.1497 142.98 67.5897 143.82 66.3597 145.05C64.8097 146.59 63.8597 148.81 64.2497 150.94C64.7197 153.47 66.9197 155.34 69.2197 156.58C74.2897 159.31 80.2697 159.91 86.0497 159.69C92.0097 159.46 98.0197 158.39 103.37 155.79C106.6 154.22 111.01 150.9 108.56 146.91C107.75 145.59 106.43 144.64 105.06 143.89C98.8197 140.43 91.2897 140.2 84.1297 140.4C80.0697 140.52 75.9697 140.76 72.0897 141.93C71.6597 142.06 71.2297 142.2 70.7997 142.36H70.7897Z" fill="#FFDA40"/>
<path d="M73.4502 143.64C72.0802 144.15 70.7802 144.86 69.7602 145.87C68.4702 147.15 67.6702 149 68.0002 150.77C68.3902 152.87 70.2302 154.43 72.1402 155.46C76.3602 157.73 81.3502 158.23 86.1502 158.05C91.1202 157.86 96.1202 156.97 100.58 154.81C103.27 153.5 106.94 150.75 104.9 147.43C104.22 146.33 103.12 145.55 101.98 144.92C96.7802 142.05 90.5102 141.85 84.5402 142.02C81.1602 142.12 77.7402 142.32 74.5102 143.29C74.1502 143.4 73.7902 143.52 73.4402 143.65L73.4502 143.64Z" fill="#FFEEA6"/>
<path d="M118.061 141.51C118.311 144.87 118.241 146.83 118.161 147.8C118.111 148.41 117.891 148.99 117.511 149.48C116.281 151.09 113.831 152.78 113.831 152.78C113.831 152.78 105.131 159.15 88.5511 157.26C79.4411 156.22 74.9011 152.39 73.4711 150.96C73.1111 150.6 72.9011 150.13 72.8611 149.62C72.6811 147.22 72.9611 141.98 72.9611 141.98L118.061 141.51Z" fill="#FFC52F"/>
<path d="M79.5905 134.31C77.9505 134.93 76.3905 135.77 75.1605 137C73.6105 138.54 72.6605 140.76 73.0505 142.89C73.5205 145.42 75.7205 147.29 78.0205 148.53C83.0905 151.26 89.0705 151.86 94.8505 151.64C100.81 151.41 106.82 150.34 112.17 147.74C115.4 146.17 119.81 142.85 117.36 138.86C116.55 137.54 115.23 136.59 113.86 135.84C107.62 132.38 100.09 132.15 92.9305 132.35C88.8705 132.47 84.7705 132.71 80.8905 133.88C80.4605 134.01 80.0305 134.15 79.6005 134.31H79.5905Z" fill="#FFDA40"/>
<path d="M82.251 135.59C80.881 136.1 79.581 136.81 78.561 137.82C77.271 139.1 76.471 140.95 76.801 142.72C77.191 144.82 79.031 146.38 80.941 147.41C85.161 149.68 90.151 150.18 94.951 150C99.921 149.81 104.921 148.92 109.381 146.76C112.071 145.45 115.741 142.7 113.701 139.38C113.021 138.28 111.921 137.5 110.781 136.87C105.581 134 99.311 133.8 93.341 133.97C89.961 134.07 86.541 134.27 83.311 135.24C82.951 135.35 82.591 135.47 82.241 135.6L82.251 135.59Z" fill="#FFEEA6"/>
<path d="M115.85 131.71C116.1 135.07 116.03 137.03 115.95 138C115.9 138.61 115.68 139.19 115.3 139.68C114.07 141.29 111.62 142.98 111.62 142.98C111.62 142.98 102.92 149.35 86.3402 147.46C77.2302 146.42 72.6902 142.59 71.2602 141.16C70.9002 140.8 70.6902 140.33 70.6502 139.82C70.4702 137.42 70.7502 132.18 70.7502 132.18L115.85 131.71Z" fill="#FFC52F"/>
<path d="M77.3697 124.5C75.7297 125.12 74.1697 125.96 72.9397 127.19C71.3897 128.73 70.4397 130.95 70.8297 133.08C71.2997 135.61 73.4997 137.48 75.7997 138.72C80.8697 141.45 86.8497 142.05 92.6297 141.83C98.5897 141.6 104.6 140.53 109.95 137.93C113.18 136.36 117.59 133.04 115.14 129.05C114.33 127.73 113.01 126.78 111.64 126.03C105.4 122.57 97.8697 122.34 90.7097 122.54C86.6497 122.66 82.5497 122.9 78.6697 124.07C78.2397 124.2 77.8097 124.34 77.3797 124.5H77.3697Z" fill="#FFDA40"/>
<path d="M80.0303 125.78C78.6603 126.29 77.3603 127 76.3403 128.01C75.0503 129.29 74.2503 131.14 74.5803 132.91C74.9703 135.01 76.8103 136.57 78.7203 137.6C82.9403 139.87 87.9303 140.37 92.7303 140.19C97.7003 140 102.7 139.11 107.16 136.95C109.85 135.64 113.52 132.89 111.48 129.57C110.8 128.47 109.7 127.69 108.56 127.06C103.36 124.19 97.0903 123.99 91.1203 124.16C87.7403 124.26 84.3203 124.46 81.0903 125.43C80.7303 125.54 80.3703 125.66 80.0203 125.79L80.0303 125.78Z" fill="#FFEEA6"/>
<path d="M111.241 122.34C111.491 125.7 111.421 127.66 111.341 128.63C111.291 129.24 111.071 129.82 110.691 130.31C109.461 131.92 107.011 133.61 107.011 133.61C107.011 133.61 98.3108 139.98 81.7308 138.09C72.6208 137.05 68.0808 133.22 66.6508 131.79C66.2908 131.43 66.0808 130.96 66.0408 130.45C65.8608 128.05 66.1408 122.81 66.1408 122.81L111.241 122.34Z" fill="#FFC52F"/>
<path d="M72.7701 115.14C71.1301 115.76 69.5701 116.6 68.3401 117.83C66.7901 119.37 65.8401 121.59 66.2301 123.72C66.7001 126.25 68.9001 128.12 71.2001 129.36C76.2701 132.09 82.2501 132.69 88.0301 132.47C93.9901 132.24 100 131.17 105.35 128.57C108.58 127 112.99 123.68 110.54 119.69C109.73 118.37 108.41 117.42 107.04 116.67C100.8 113.21 93.2701 112.98 86.1101 113.18C82.0501 113.3 77.9501 113.54 74.0701 114.71C73.6401 114.84 73.2101 114.98 72.7801 115.14H72.7701Z" fill="#FFDA40"/>
<path d="M75.4307 116.42C74.0607 116.93 72.7607 117.64 71.7407 118.65C70.4507 119.93 69.6507 121.78 69.9807 123.55C70.3707 125.65 72.2107 127.21 74.1207 128.24C78.3407 130.51 83.3307 131.01 88.1307 130.83C93.1007 130.64 98.1007 129.75 102.561 127.59C105.251 126.28 108.921 123.53 106.881 120.21C106.201 119.11 105.101 118.33 103.961 117.7C98.7607 114.83 92.4907 114.63 86.5207 114.8C83.1407 114.9 79.7207 115.1 76.4907 116.07C76.1307 116.18 75.7707 116.3 75.4207 116.43L75.4307 116.42Z" fill="#FFEEA6"/>
<path d="M74.1801 148.28C72.5001 151.35 70.3901 153.73 70.3901 153.73C68.4901 155.87 65.7801 157.34 62.9401 157.66C60.3401 157.96 57.7001 157.5 55.2501 156.63C54.1001 156.22 52.9901 155.73 51.9401 155.12C49.6301 153.79 47.6001 152 46.0301 149.84C43.2301 146.01 41.4701 140.71 43.7101 136.2C44.5301 134.55 45.4901 132.96 46.5801 131.48L74.1901 148.27L74.1801 148.28Z" fill="#FFC52F"/>
<path d="M74.1795 148.287C77.8762 142.21 74.6915 133.523 67.0663 128.885C59.4411 124.247 50.263 125.414 46.5664 131.491C42.8698 137.569 46.0545 146.255 53.6796 150.893C61.3048 155.531 70.4829 154.365 74.1795 148.287Z" fill="#FFDA40"/>
<path d="M70.71 146.178C73.4796 141.624 71.0964 135.118 65.387 131.645C59.6775 128.172 52.8039 129.048 50.0343 133.602C47.2647 138.155 49.648 144.661 55.3574 148.134C61.0668 151.607 67.9404 150.731 70.71 146.178Z" fill="#FFEEA6"/>
<path d="M66.0012 134.32C64.2312 137.54 62.0212 140.04 62.0212 140.04C60.0212 142.29 57.1812 143.83 54.2012 144.17C51.4712 144.48 48.7012 144 46.1312 143.09C44.9312 142.66 43.7612 142.14 42.6512 141.51C40.2312 140.11 38.1012 138.23 36.4512 135.97C33.5212 131.95 31.6712 126.39 34.0212 121.65C34.8812 119.92 35.8812 118.24 37.0312 116.7L66.0012 134.32Z" fill="#FFC52F"/>
<path d="M65.9924 134.325C69.8727 127.946 66.5309 118.828 58.5282 113.96C50.5256 109.093 40.8925 110.318 37.0122 116.698C33.1319 123.077 36.4738 132.195 44.4764 137.063C52.4791 141.93 62.1121 140.705 65.9924 134.325Z" fill="#FFDA40"/>
<path d="M62.3519 132.111C65.2593 127.331 62.7582 120.502 56.7657 116.857C50.7731 113.212 43.5583 114.132 40.651 118.912C37.7436 123.692 40.2446 130.521 46.2372 134.166C52.2297 137.811 59.4446 136.891 62.3519 132.111Z" fill="#FFEEA6"/>
<path d="M78.9906 120.5C77.3106 123.57 75.2006 125.95 75.2006 125.95C73.3006 128.09 70.5906 129.56 67.7506 129.88C65.1506 130.18 62.5106 129.72 60.0606 128.85C58.9106 128.44 57.8006 127.95 56.7506 127.34C54.4406 126.01 52.4106 124.22 50.8406 122.06C48.0406 118.23 46.2806 112.93 48.5206 108.42C49.3406 106.77 50.3006 105.18 51.3906 103.7L79.0006 120.49L78.9906 120.5Z" fill="#FFC52F"/>
<path d="M78.994 120.507C82.6906 114.429 79.5059 105.743 71.8807 101.105C64.2556 96.4667 55.0774 97.6336 51.3808 103.711C47.6842 109.789 50.8689 118.475 58.4941 123.113C66.1193 127.751 75.2974 126.584 78.994 120.507Z" fill="#FFDA40"/>
<path d="M75.5245 118.397C78.2941 113.844 75.9109 107.337 70.2014 103.865C64.492 100.392 57.6184 101.268 54.8488 105.821C52.0792 110.375 54.4624 116.881 60.1718 120.354C65.8813 123.827 72.7549 122.951 75.5245 118.397Z" fill="#FFEEA6"/>
<path d="M197.901 102.04C196.221 105.11 194.111 107.49 194.111 107.49C192.211 109.63 189.501 111.1 186.661 111.42C184.061 111.72 181.421 111.26 178.971 110.39C177.821 109.98 176.711 109.49 175.661 108.88C173.351 107.55 171.321 105.76 169.751 103.6C166.951 99.7702 165.191 94.4702 167.431 89.9602C168.251 88.3102 169.211 86.7202 170.301 85.2402L197.911 102.03L197.901 102.04Z" fill="#FFC52F"/>
<path d="M197.902 102.037C201.599 95.9595 198.414 87.2729 190.789 82.6349C183.164 77.9969 173.986 79.1639 170.289 85.2413C166.592 91.3188 169.777 100.005 177.402 104.643C185.027 109.281 194.206 108.115 197.902 102.037Z" fill="#FFDA40"/>
<path d="M194.433 99.9275C197.202 95.3741 194.819 88.8676 189.11 85.3949C183.4 81.9221 176.527 82.7981 173.757 87.3515C170.987 91.9049 173.371 98.4114 179.08 101.884C184.789 105.357 191.663 104.481 194.433 99.9275Z" fill="#FFEEA6"/>
<path d="M110.101 115.96C110.321 118.89 110.261 120.59 110.181 121.44C110.131 121.97 109.941 122.48 109.611 122.9C108.531 124.3 106.401 125.78 106.401 125.78C106.401 125.78 98.8212 131.33 84.3812 129.68C76.4512 128.78 72.4912 125.44 71.2412 124.19C70.9312 123.88 70.7412 123.47 70.7112 123.02C70.5512 120.93 70.7913 116.37 70.7913 116.37L110.071 115.96H110.101Z" fill="#FFC52F"/>
<path d="M76.5907 109.69C75.1607 110.23 73.8007 110.96 72.7307 112.03C71.3807 113.37 70.5507 115.31 70.8907 117.16C71.3007 119.36 73.2207 121 75.2207 122.07C79.6307 124.44 84.8507 124.97 89.8707 124.78C95.0607 124.58 100.301 123.65 104.961 121.38C107.771 120.01 111.621 117.12 109.481 113.64C108.771 112.49 107.621 111.67 106.431 111.01C100.991 108 94.4407 107.79 88.2007 107.97C84.6707 108.07 81.0907 108.28 77.7207 109.3C77.3407 109.41 76.9707 109.54 76.6007 109.68L76.5907 109.69Z" fill="#FFDA40"/>
<path d="M78.9111 110.8C77.7211 111.25 76.5911 111.86 75.7011 112.75C74.5811 113.87 73.8811 115.47 74.1711 117.01C74.5111 118.84 76.1111 120.2 77.7711 121.09C81.4511 123.06 85.7911 123.5 89.9811 123.34C94.3111 123.18 98.6711 122.4 102.551 120.52C104.891 119.38 108.091 116.98 106.311 114.09C105.721 113.13 104.761 112.45 103.771 111.9C99.2411 109.4 93.7811 109.23 88.5811 109.38C85.6411 109.46 82.6611 109.64 79.8511 110.49C79.5411 110.58 79.2211 110.69 78.9211 110.8H78.9111Z" fill="#FFEEA6"/>
<path d="M113.531 107.95C113.751 110.88 113.691 112.58 113.611 113.43C113.561 113.96 113.371 114.47 113.041 114.89C111.961 116.29 109.831 117.77 109.831 117.77C109.831 117.77 102.251 123.32 87.8109 121.67C79.8809 120.77 75.9209 117.43 74.6709 116.18C74.3609 115.87 74.1709 115.46 74.1409 115.01C73.9809 112.92 74.2209 108.36 74.2209 108.36L113.501 107.95H113.531Z" fill="#FFC52F"/>
<path d="M80.0204 101.68C78.5904 102.22 77.2304 102.95 76.1604 104.02C74.8104 105.36 73.9804 107.3 74.3204 109.15C74.7304 111.35 76.6504 112.99 78.6504 114.06C83.0604 116.43 88.2804 116.96 93.3004 116.77C98.4904 116.57 103.73 115.64 108.39 113.37C111.2 112 115.05 109.11 112.91 105.63C112.2 104.48 111.05 103.66 109.86 103C104.42 99.9902 97.8704 99.7802 91.6304 99.9602C88.1004 100.06 84.5204 100.27 81.1504 101.29C80.7704 101.4 80.4004 101.53 80.0304 101.67L80.0204 101.68Z" fill="#FFDA40"/>
<path d="M82.331 102.79C81.141 103.24 80.011 103.85 79.121 104.74C78.001 105.86 77.301 107.46 77.591 109C77.931 110.83 79.531 112.19 81.191 113.08C84.871 115.05 89.211 115.49 93.401 115.33C97.731 115.17 102.091 114.39 105.971 112.51C108.311 111.37 111.511 108.97 109.731 106.08C109.141 105.12 108.181 104.44 107.191 103.89C102.661 101.39 97.201 101.22 92.001 101.37C89.061 101.45 86.081 101.63 83.271 102.48C82.961 102.57 82.641 102.68 82.341 102.79H82.331Z" fill="#FFEEA6"/>
<path d="M108.931 100.28C109.151 103.21 109.091 104.91 109.011 105.76C108.961 106.29 108.771 106.8 108.441 107.22C107.361 108.62 105.231 110.1 105.231 110.1C105.231 110.1 97.6513 115.65 83.2113 114C75.2813 113.1 71.3213 109.76 70.0713 108.51C69.7613 108.2 69.5713 107.79 69.5413 107.34C69.3813 105.25 69.6213 100.69 69.6213 100.69L108.901 100.28H108.931Z" fill="#FFC52F"/>
<path d="M75.4208 94.0098C73.9908 94.5498 72.6308 95.2798 71.5608 96.3498C70.2108 97.6898 69.3808 99.6298 69.7208 101.48C70.1308 103.68 72.0508 105.32 74.0508 106.39C78.4608 108.76 83.6808 109.29 88.7008 109.1C93.8908 108.9 99.1308 107.97 103.791 105.7C106.601 104.33 110.451 101.44 108.311 97.9598C107.601 96.8098 106.451 95.9898 105.261 95.3298C99.8208 92.3198 93.2708 92.1098 87.0308 92.2898C83.5008 92.3898 79.9208 92.5998 76.5508 93.6198C76.1708 93.7298 75.8008 93.8598 75.4308 93.9998L75.4208 94.0098Z" fill="#FFDA40"/>
<path d="M77.7314 95.1199C76.5414 95.5699 75.4114 96.1799 74.5214 97.0699C73.4014 98.1899 72.7014 99.7899 72.9914 101.33C73.3314 103.16 74.9314 104.52 76.5914 105.41C80.2714 107.38 84.6114 107.82 88.8014 107.66C93.1314 107.5 97.4914 106.72 101.371 104.84C103.711 103.7 106.911 101.3 105.131 98.4099C104.541 97.4499 103.581 96.7699 102.591 96.2199C98.0614 93.7199 92.6014 93.5499 87.4014 93.6999C84.4614 93.7799 81.4814 93.9599 78.6714 94.8099C78.3614 94.8999 78.0414 95.0099 77.7414 95.1199H77.7314Z" fill="#FFEEA6"/>
<path d="M116.091 94.4697C116.311 97.3997 116.251 99.0997 116.171 99.9497C116.121 100.48 115.931 100.99 115.601 101.41C114.521 102.81 112.391 104.29 112.391 104.29C112.391 104.29 104.811 109.84 90.3715 108.19C82.4415 107.29 78.4815 103.95 77.2315 102.7C76.9215 102.39 76.7315 101.98 76.7015 101.53C76.5415 99.4397 76.7815 94.8797 76.7815 94.8797L116.061 94.4697H116.091Z" fill="#FFC52F"/>
<path d="M82.5809 88.19C81.1509 88.73 79.7909 89.46 78.7209 90.53C77.3709 91.87 76.5409 93.81 76.8809 95.66C77.2909 97.86 79.2109 99.5 81.2109 100.57C85.6209 102.94 90.8409 103.47 95.8609 103.28C101.051 103.08 106.291 102.15 110.951 99.88C113.761 98.51 117.611 95.62 115.471 92.14C114.761 90.99 113.611 90.17 112.421 89.51C106.981 86.5 100.431 86.29 94.1909 86.47C90.6609 86.57 87.0809 86.78 83.7109 87.8C83.3309 87.91 82.9609 88.04 82.5909 88.18L82.5809 88.19Z" fill="#FFDA40"/>
<path d="M84.8916 89.3098C83.7016 89.7598 82.5716 90.3698 81.6816 91.2598C80.5616 92.3798 79.8616 93.9798 80.1516 95.5198C80.4916 97.3498 82.0916 98.7098 83.7516 99.5998C87.4316 101.57 91.7716 102.01 95.9616 101.85C100.292 101.69 104.652 100.91 108.532 99.0298C110.872 97.8898 114.072 95.4898 112.292 92.5998C111.702 91.6398 110.742 90.9598 109.752 90.4098C105.222 87.9098 99.7616 87.7398 94.5616 87.8898C91.6216 87.9698 88.6416 88.1498 85.8316 88.9998C85.5216 89.0898 85.2016 89.1998 84.9016 89.3098H84.8916Z" fill="#FFEEA6"/>
<path d="M110.691 87.5298C110.891 90.1998 110.831 91.7598 110.771 92.5298C110.731 93.0198 110.551 93.4798 110.251 93.8598C109.271 95.1398 107.321 96.4798 107.321 96.4798C107.321 96.4798 100.411 101.54 87.2312 100.04C79.9912 99.2198 76.3812 96.1698 75.2512 95.0298C74.9612 94.7398 74.8012 94.3698 74.7712 93.9598C74.6312 92.0498 74.8512 87.8898 74.8512 87.8898L110.691 87.5098V87.5298Z" fill="#FFC52F"/>
<path d="M80.1209 81.7998C78.8109 82.2898 77.5809 82.9598 76.6009 83.9398C75.3709 85.1698 74.6109 86.9298 74.9209 88.6198C75.2909 90.6298 77.0409 92.1198 78.8709 93.0998C82.9009 95.2698 87.6509 95.7498 92.2409 95.5698C96.9809 95.3898 101.751 94.5398 106.001 92.4698C108.571 91.2198 112.071 88.5898 110.121 85.4098C109.471 84.3598 108.421 83.6098 107.331 83.0098C102.371 80.2598 96.3909 80.0798 90.7009 80.2398C87.4809 80.3298 84.2209 80.5198 81.1309 81.4598C80.7909 81.5598 80.4409 81.6798 80.1109 81.7998H80.1209Z" fill="#FFDA40"/>
<path d="M82.2318 82.8199C81.1418 83.2299 80.1118 83.7899 79.3018 84.5999C78.2818 85.6199 77.6418 87.0799 77.9018 88.4899C78.2118 90.1599 79.6718 91.3999 81.1918 92.2199C84.5418 94.0199 88.5118 94.4199 92.3318 94.2799C96.2818 94.1299 100.262 93.4199 103.792 91.6999C105.932 90.6599 108.852 88.4699 107.222 85.8299C106.682 84.9599 105.812 84.3299 104.902 83.8299C100.772 81.5499 95.7918 81.3899 91.0418 81.5299C88.3518 81.6099 85.6418 81.7599 83.0718 82.5399C82.7818 82.6299 82.5018 82.7199 82.2218 82.8299L82.2318 82.8199Z" fill="#FFEEA6"/>
<path d="M108.401 79.1401C108.611 81.9501 108.551 83.5801 108.481 84.3901C108.441 84.9001 108.251 85.3801 107.941 85.7901C106.911 87.1301 104.871 88.5401 104.871 88.5401C104.871 88.5401 97.6114 93.8601 83.7814 92.2801C76.1814 91.4101 72.3914 88.2101 71.2014 87.0201C70.9014 86.7201 70.7314 86.3301 70.6914 85.9001C70.5414 83.9001 70.7714 79.5301 70.7714 79.5301L108.401 79.1401Z" fill="#FFC52F"/>
<path d="M76.302 73.13C74.932 73.64 73.632 74.35 72.602 75.37C71.312 76.66 70.512 78.51 70.842 80.28C71.232 82.39 73.072 83.95 74.992 84.99C79.222 87.26 84.212 87.77 89.032 87.59C94.012 87.4 99.022 86.51 103.482 84.34C106.182 83.03 109.862 80.26 107.812 76.93C107.132 75.83 106.032 75.04 104.892 74.41C99.682 71.52 93.402 71.33 87.432 71.5C84.042 71.6 80.622 71.8 77.392 72.78C77.032 72.89 76.672 73.01 76.322 73.14L76.302 73.13Z" fill="#FFDA40"/>
<path d="M78.522 74.1999C77.382 74.6299 76.292 75.2099 75.442 76.0599C74.372 77.1299 73.702 78.6699 73.972 80.1399C74.302 81.8899 75.832 83.1899 77.422 84.0499C80.942 85.9399 85.102 86.3599 89.112 86.2099C93.252 86.0499 97.432 85.3099 101.152 83.4999C103.402 82.4099 106.462 80.1099 104.762 77.3399C104.202 76.4199 103.282 75.7699 102.322 75.2399C97.982 72.8399 92.752 72.6799 87.772 72.8199C84.952 72.8999 82.102 73.0699 79.402 73.8799C79.102 73.9699 78.802 74.0699 78.512 74.1799L78.522 74.1999Z" fill="#FFEEA6"/>
<path d="M112.7 71.1704C112.91 73.9804 112.85 75.6104 112.78 76.4204C112.74 76.9304 112.55 77.4104 112.24 77.8204C111.21 79.1604 109.17 80.5704 109.17 80.5704C109.17 80.5704 101.91 85.8904 88.0802 84.3104C80.4802 83.4404 76.6902 80.2404 75.5002 79.0504C75.2002 78.7504 75.0302 78.3604 74.9902 77.9304C74.8402 75.9304 75.0702 71.5604 75.0702 71.5604L112.7 71.1704Z" fill="#FFC52F"/>
<path d="M80.6008 65.1602C79.2308 65.6702 77.9308 66.3802 76.9008 67.4002C75.6108 68.6902 74.8108 70.5402 75.1408 72.3102C75.5308 74.4202 77.3708 75.9802 79.2908 77.0202C83.5208 79.2902 88.5108 79.8002 93.3308 79.6202C98.3108 79.4302 103.321 78.5402 107.781 76.3702C110.481 75.0602 114.161 72.2902 112.111 68.9602C111.431 67.8602 110.331 67.0702 109.191 66.4402C103.981 63.5502 97.7008 63.3602 91.7308 63.5302C88.3408 63.6302 84.9208 63.8302 81.6908 64.8102C81.3308 64.9202 80.9708 65.0402 80.6208 65.1702L80.6008 65.1602Z" fill="#FFDA40"/>
<path d="M82.8208 66.2302C81.6808 66.6602 80.5908 67.2402 79.7408 68.0902C78.6708 69.1602 78.0008 70.7002 78.2708 72.1702C78.6008 73.9202 80.1308 75.2202 81.7208 76.0802C85.2408 77.9702 89.4008 78.3902 93.4108 78.2402C97.5508 78.0802 101.731 77.3402 105.451 75.5302C107.701 74.4402 110.761 72.1402 109.061 69.3702C108.501 68.4502 107.581 67.8002 106.621 67.2702C102.281 64.8702 97.0508 64.7102 92.0708 64.8502C89.2508 64.9302 86.4008 65.1002 83.7008 65.9102C83.4008 66.0002 83.1008 66.1002 82.8108 66.2102L82.8208 66.2302Z" fill="#FFEEA6"/>
<path d="M114.331 63.6201C114.541 66.4301 114.481 68.0601 114.411 68.8701C114.371 69.3801 114.181 69.8601 113.871 70.2701C112.841 71.6101 110.801 73.0201 110.801 73.0201C110.801 73.0201 103.541 78.3401 89.7111 76.7601C82.1111 75.8901 78.3211 72.6901 77.1311 71.5001C76.8311 71.2001 76.6611 70.8101 76.6211 70.3801C76.4711 68.3801 76.7011 64.0101 76.7011 64.0101L114.331 63.6201Z" fill="#FFC52F"/>
<path d="M82.2317 57.6099C80.8617 58.1199 79.5617 58.8299 78.5317 59.8499C77.2417 61.1399 76.4417 62.9899 76.7717 64.7599C77.1617 66.8699 79.0017 68.4299 80.9217 69.4699C85.1517 71.7399 90.1417 72.2499 94.9617 72.0699C99.9417 71.8799 104.952 70.9899 109.412 68.8199C112.112 67.5099 115.792 64.7399 113.742 61.4099C113.062 60.3099 111.962 59.5199 110.822 58.8899C105.612 55.9999 99.3317 55.8099 93.3617 55.9799C89.9717 56.0799 86.5517 56.2799 83.3217 57.2599C82.9617 57.3699 82.6017 57.4899 82.2517 57.6199L82.2317 57.6099Z" fill="#FFDA40"/>
<path d="M84.4517 58.6702C83.3117 59.1002 82.2217 59.6802 81.3717 60.5302C80.3017 61.6002 79.6317 63.1402 79.9017 64.6102C80.2317 66.3602 81.7617 67.6602 83.3517 68.5202C86.8717 70.4102 91.0317 70.8302 95.0417 70.6802C99.1817 70.5202 103.362 69.7802 107.082 67.9702C109.332 66.8802 112.392 64.5802 110.692 61.8102C110.132 60.8902 109.212 60.2402 108.252 59.7102C103.912 57.3102 98.6817 57.1502 93.7017 57.2902C90.8817 57.3702 88.0317 57.5402 85.3317 58.3502C85.0317 58.4402 84.7317 58.5402 84.4417 58.6502L84.4517 58.6702Z" fill="#FFEEA6"/>
<path d="M156.431 111.36C156.651 114.29 156.591 115.99 156.511 116.84C156.461 117.37 156.271 117.88 155.941 118.3C154.861 119.7 152.731 121.18 152.731 121.18C152.731 121.18 145.151 126.73 130.711 125.08C122.781 124.18 118.821 120.84 117.571 119.59C117.261 119.28 117.071 118.87 117.041 118.42C116.881 116.33 117.121 111.77 117.121 111.77L156.401 111.36H156.431Z" fill="#FFC52F"/>
<path d="M122.921 105.08C121.491 105.62 120.131 106.35 119.061 107.42C117.711 108.76 116.881 110.7 117.221 112.55C117.631 114.75 119.551 116.39 121.551 117.46C125.961 119.83 131.181 120.36 136.201 120.17C141.391 119.97 146.631 119.04 151.291 116.77C154.101 115.4 157.951 112.51 155.811 109.03C155.101 107.88 153.951 107.06 152.761 106.4C147.321 103.39 140.771 103.18 134.531 103.36C131.001 103.46 127.421 103.67 124.051 104.69C123.671 104.8 123.301 104.93 122.931 105.07L122.921 105.08Z" fill="#FFDA40"/>
<path d="M125.241 106.2C124.051 106.65 122.921 107.26 122.031 108.15C120.911 109.27 120.211 110.87 120.501 112.41C120.841 114.24 122.441 115.6 124.101 116.49C127.781 118.46 132.121 118.9 136.311 118.74C140.641 118.58 145.001 117.8 148.881 115.92C151.221 114.78 154.421 112.38 152.641 109.49C152.051 108.53 151.091 107.85 150.101 107.3C145.571 104.8 140.111 104.63 134.911 104.78C131.971 104.86 128.991 105.04 126.181 105.89C125.871 105.98 125.551 106.09 125.251 106.2H125.241Z" fill="#FFEEA6"/>
<path d="M153.711 102.72C153.931 105.65 153.871 107.35 153.791 108.2C153.741 108.73 153.551 109.24 153.221 109.66C152.141 111.06 150.011 112.54 150.011 112.54C150.011 112.54 142.431 118.09 127.991 116.44C120.061 115.54 116.101 112.2 114.851 110.95C114.541 110.64 114.351 110.23 114.321 109.78C114.161 107.69 114.401 103.13 114.401 103.13L153.681 102.72H153.711Z" fill="#FFC52F"/>
<path d="M120.2 96.4502C118.77 96.9902 117.41 97.7202 116.34 98.7902C114.99 100.13 114.16 102.07 114.5 103.92C114.91 106.12 116.83 107.76 118.83 108.83C123.24 111.2 128.46 111.73 133.48 111.54C138.67 111.34 143.91 110.41 148.57 108.14C151.38 106.77 155.23 103.88 153.09 100.4C152.38 99.2502 151.23 98.4302 150.04 97.7702C144.6 94.7602 138.05 94.5502 131.81 94.7302C128.28 94.8302 124.7 95.0402 121.33 96.0602C120.95 96.1702 120.58 96.3002 120.21 96.4402L120.2 96.4502Z" fill="#FFDA40"/>
<path d="M122.52 97.5603C121.33 98.0103 120.2 98.6203 119.31 99.5103C118.19 100.63 117.49 102.23 117.78 103.77C118.12 105.6 119.72 106.96 121.38 107.85C125.06 109.82 129.4 110.26 133.59 110.1C137.92 109.94 142.28 109.16 146.16 107.28C148.5 106.14 151.7 103.74 149.92 100.85C149.33 99.8903 148.37 99.2103 147.38 98.6603C142.85 96.1603 137.39 95.9903 132.19 96.1403C129.25 96.2203 126.27 96.4003 123.46 97.2503C123.15 97.3403 122.83 97.4503 122.53 97.5603H122.52Z" fill="#FFEEA6"/>
<path d="M160.55 96.8599C160.77 99.7899 160.71 101.49 160.63 102.34C160.58 102.87 160.39 103.38 160.06 103.8C158.98 105.2 156.85 106.68 156.85 106.68C156.85 106.68 149.27 112.23 134.83 110.58C126.9 109.68 122.94 106.34 121.69 105.09C121.38 104.78 121.19 104.37 121.16 103.92C121 101.83 121.24 97.2699 121.24 97.2699L160.52 96.8599H160.55Z" fill="#FFC52F"/>
<path d="M127.04 90.5899C125.61 91.1299 124.25 91.8599 123.18 92.9299C121.83 94.2699 121 96.2099 121.34 98.0599C121.75 100.26 123.67 101.9 125.67 102.97C130.08 105.34 135.3 105.87 140.32 105.68C145.51 105.48 150.75 104.55 155.41 102.28C158.22 100.91 162.07 98.0199 159.93 94.5399C159.22 93.3899 158.07 92.5699 156.88 91.9099C151.44 88.8999 144.89 88.6899 138.65 88.8699C135.12 88.9699 131.54 89.1799 128.17 90.1999C127.79 90.3099 127.42 90.4399 127.05 90.5799L127.04 90.5899Z" fill="#FFDA40"/>
<path d="M129.351 91.6999C128.161 92.1499 127.031 92.7599 126.141 93.6499C125.021 94.7699 124.321 96.3699 124.611 97.9099C124.951 99.7399 126.551 101.1 128.211 101.99C131.891 103.96 136.231 104.4 140.421 104.24C144.751 104.08 149.111 103.3 152.991 101.42C155.331 100.28 158.531 97.8799 156.751 94.9899C156.161 94.0299 155.201 93.3499 154.211 92.7999C149.681 90.2999 144.221 90.1299 139.021 90.2799C136.081 90.3599 133.101 90.5399 130.291 91.3899C129.981 91.4799 129.661 91.5899 129.361 91.6999H129.351Z" fill="#FFEEA6"/>
<path d="M157.49 88.71C157.71 91.64 157.65 93.34 157.57 94.19C157.52 94.72 157.33 95.23 157 95.65C155.92 97.05 153.79 98.53 153.79 98.53C153.79 98.53 146.21 104.08 131.77 102.43C123.84 101.53 119.88 98.19 118.63 96.94C118.32 96.63 118.13 96.22 118.1 95.77C117.94 93.68 118.18 89.12 118.18 89.12L157.46 88.71H157.49Z" fill="#FFC52F"/>
<path d="M123.979 82.44C122.549 82.98 121.189 83.71 120.119 84.78C118.769 86.12 117.939 88.06 118.279 89.91C118.689 92.11 120.609 93.75 122.609 94.82C127.019 97.19 132.239 97.72 137.259 97.53C142.449 97.33 147.689 96.4 152.349 94.13C155.159 92.76 159.009 89.87 156.869 86.39C156.159 85.24 155.009 84.42 153.819 83.76C148.379 80.75 141.829 80.54 135.589 80.72C132.059 80.82 128.479 81.03 125.109 82.05C124.729 82.16 124.359 82.29 123.989 82.43L123.979 82.44Z" fill="#FFDA40"/>
<path d="M126.29 83.55C125.1 84 123.97 84.61 123.08 85.5C121.96 86.62 121.26 88.22 121.55 89.76C121.89 91.59 123.49 92.95 125.15 93.84C128.83 95.81 133.17 96.25 137.36 96.09C141.69 95.93 146.05 95.15 149.93 93.27C152.27 92.13 155.47 89.73 153.69 86.84C153.1 85.88 152.14 85.2 151.15 84.65C146.62 82.15 141.16 81.98 135.96 82.13C133.02 82.21 130.04 82.39 127.23 83.24C126.92 83.33 126.6 83.44 126.3 83.55H126.29Z" fill="#FFEEA6"/>
<path d="M157.07 82.5503C157.27 85.2203 157.21 86.7803 157.15 87.5503C157.11 88.0403 156.93 88.5003 156.63 88.8803C155.65 90.1603 153.7 91.5003 153.7 91.5003C153.7 91.5003 146.79 96.5603 133.61 95.0603C126.37 94.2403 122.76 91.1903 121.63 90.0503C121.34 89.7603 121.18 89.3903 121.15 88.9803C121.01 87.0703 121.23 82.9103 121.23 82.9103L157.07 82.5303V82.5503Z" fill="#FFC52F"/>
<path d="M126.49 76.8301C125.18 77.3201 123.95 77.9901 122.97 78.9701C121.74 80.2001 120.98 81.9601 121.29 83.6501C121.66 85.6601 123.41 87.1501 125.24 88.1301C129.27 90.3001 134.02 90.7801 138.61 90.6001C143.35 90.4201 148.12 89.5701 152.37 87.5001C154.94 86.2501 158.44 83.6201 156.49 80.4401C155.84 79.3901 154.79 78.6401 153.7 78.0401C148.74 75.2901 142.76 75.1101 137.07 75.2701C133.85 75.3601 130.59 75.5501 127.5 76.4901C127.16 76.5901 126.81 76.7101 126.48 76.8301H126.49Z" fill="#FFDA40"/>
<path d="M128.611 77.8502C127.521 78.2602 126.491 78.8202 125.681 79.6302C124.661 80.6502 124.021 82.1102 124.281 83.5202C124.591 85.1902 126.051 86.4302 127.571 87.2502C130.921 89.0502 134.891 89.4502 138.711 89.3102C142.661 89.1602 146.641 88.4502 150.171 86.7302C152.311 85.6902 155.231 83.5002 153.601 80.8602C153.061 79.9902 152.191 79.3602 151.281 78.8602C147.151 76.5802 142.171 76.4202 137.421 76.5602C134.731 76.6402 132.021 76.7902 129.451 77.5702C129.161 77.6602 128.881 77.7502 128.601 77.8602L128.611 77.8502Z" fill="#FFEEA6"/>
<path d="M162.91 75.75C163.11 78.42 163.05 79.98 162.99 80.75C162.95 81.24 162.77 81.7 162.47 82.08C161.49 83.36 159.54 84.7 159.54 84.7C159.54 84.7 152.63 89.76 139.45 88.26C132.21 87.44 128.6 84.39 127.47 83.25C127.18 82.96 127.02 82.59 126.99 82.18C126.85 80.27 127.07 76.11 127.07 76.11L162.91 75.73V75.75Z" fill="#FFC52F"/>
<path d="M132.33 70.02C131.02 70.51 129.79 71.1801 128.81 72.1601C127.58 73.3901 126.82 75.15 127.13 76.84C127.5 78.85 129.25 80.34 131.08 81.32C135.11 83.49 139.86 83.97 144.45 83.79C149.19 83.61 153.96 82.7601 158.21 80.6901C160.78 79.4401 164.28 76.81 162.33 73.63C161.68 72.58 160.63 71.8301 159.54 71.2301C154.58 68.4801 148.6 68.3 142.91 68.46C139.69 68.55 136.43 68.74 133.34 69.68C133 69.78 132.65 69.9 132.32 70.02H132.33Z" fill="#FFDA40"/>
<path d="M134.451 71.0401C133.361 71.4501 132.331 72.0101 131.521 72.8201C130.501 73.8401 129.861 75.3001 130.121 76.7101C130.431 78.3801 131.891 79.6201 133.411 80.4401C136.761 82.2401 140.731 82.6401 144.551 82.5001C148.501 82.3501 152.481 81.6401 156.011 79.9201C158.151 78.8801 161.07 76.6901 159.441 74.0501C158.9 73.1801 158.031 72.5501 157.121 72.0501C152.991 69.7701 148.011 69.6101 143.261 69.7501C140.571 69.8301 137.861 69.9801 135.291 70.7601C135.001 70.8501 134.721 70.9401 134.441 71.0501L134.451 71.0401Z" fill="#FFEEA6"/>
<path d="M157.451 69.8799C157.651 72.5499 157.591 74.1099 157.531 74.8799C157.491 75.3699 157.311 75.8299 157.011 76.2099C156.031 77.4899 154.081 78.8299 154.081 78.8299C154.081 78.8299 147.171 83.8899 133.991 82.3899C126.751 81.5699 123.141 78.5199 122.011 77.3799C121.721 77.0899 121.561 76.7199 121.531 76.3099C121.391 74.3999 121.611 70.2399 121.611 70.2399L157.451 69.8599V69.8799Z" fill="#FFC52F"/>
<path d="M126.881 64.1499C125.571 64.6399 124.341 65.3099 123.361 66.2899C122.131 67.5199 121.371 69.2799 121.681 70.9699C122.051 72.9799 123.801 74.4699 125.631 75.4499C129.661 77.6199 134.411 78.0999 139.001 77.9199C143.741 77.7399 148.511 76.8899 152.761 74.8199C155.331 73.5699 158.831 70.9399 156.881 67.7599C156.231 66.7099 155.181 65.9599 154.091 65.3599C149.131 62.6099 143.151 62.4299 137.461 62.5899C134.241 62.6799 130.981 62.8699 127.891 63.8099C127.551 63.9099 127.201 64.0299 126.871 64.1499H126.881Z" fill="#FFDA40"/>
<path d="M128.992 65.17C127.902 65.58 126.872 66.14 126.062 66.95C125.042 67.97 124.402 69.43 124.662 70.84C124.972 72.51 126.432 73.75 127.952 74.57C131.302 76.37 135.272 76.77 139.092 76.63C143.042 76.48 147.022 75.77 150.552 74.05C152.692 73.01 155.612 70.82 153.982 68.18C153.442 67.31 152.572 66.68 151.662 66.18C147.532 63.9 142.552 63.74 137.802 63.88C135.112 63.96 132.402 64.11 129.832 64.89C129.542 64.98 129.262 65.07 128.982 65.18L128.992 65.17Z" fill="#FFEEA6"/>
<path d="M151.99 63.0703C152.19 65.7403 152.13 67.3003 152.07 68.0703C152.03 68.5603 151.85 69.0203 151.55 69.4003C150.57 70.6803 148.62 72.0203 148.62 72.0203C148.62 72.0203 141.71 77.0803 128.53 75.5803C121.29 74.7603 117.68 71.7103 116.55 70.5703C116.26 70.2803 116.1 69.9103 116.07 69.5003C115.93 67.5903 116.15 63.4303 116.15 63.4303L151.99 63.0503V63.0703Z" fill="#FFC52F"/>
<path d="M121.42 57.3501C120.11 57.8401 118.88 58.5101 117.9 59.4901C116.67 60.7201 115.91 62.4801 116.22 64.1701C116.59 66.1801 118.34 67.6701 120.17 68.6501C124.2 70.8201 128.95 71.3001 133.54 71.1201C138.28 70.9401 143.05 70.0901 147.3 68.0201C149.87 66.7701 153.37 64.1401 151.42 60.9601C150.77 59.9101 149.72 59.1601 148.63 58.5601C143.67 55.8101 137.69 55.6301 132 55.7901C128.78 55.8801 125.52 56.0701 122.43 57.0101C122.09 57.1101 121.74 57.2301 121.41 57.3501H121.42Z" fill="#FFDA40"/>
<path d="M123.531 58.3599C122.441 58.7699 121.411 59.3299 120.601 60.1399C119.581 61.1599 118.941 62.6199 119.201 64.0299C119.511 65.6999 120.971 66.9399 122.491 67.7599C125.841 69.5599 129.811 69.9599 133.631 69.8199C137.581 69.6699 141.561 68.9599 145.091 67.2399C147.231 66.1999 150.151 64.0099 148.521 61.3699C147.981 60.4999 147.111 59.8699 146.201 59.3699C142.071 57.0899 137.091 56.9299 132.341 57.0699C129.651 57.1499 126.941 57.2999 124.371 58.0799C124.081 58.1699 123.801 58.2599 123.521 58.3699L123.531 58.3599Z" fill="#FFEEA6"/>
<path d="M107.211 56.8198C107.411 59.4898 107.351 61.0498 107.291 61.8198C107.251 62.3098 107.071 62.7698 106.771 63.1498C105.791 64.4298 103.841 65.7698 103.841 65.7698C103.841 65.7698 96.9308 70.8298 83.7508 69.3298C76.5108 68.5098 72.9007 65.4598 71.7707 64.3198C71.4807 64.0298 71.3208 63.6598 71.2908 63.2498C71.1508 61.3398 71.3708 57.1798 71.3708 57.1798L107.211 56.7998V56.8198Z" fill="#FFC52F"/>
<path d="M76.6306 51.0899C75.3206 51.5799 74.0906 52.2499 73.1106 53.2299C71.8806 54.4599 71.1206 56.2199 71.4306 57.9099C71.8006 59.9199 73.5506 61.4099 75.3806 62.3899C79.4106 64.5599 84.1606 65.0399 88.7506 64.8599C93.4906 64.6799 98.2606 63.8299 102.511 61.7599C105.081 60.5099 108.581 57.8799 106.631 54.6999C105.981 53.6499 104.931 52.8999 103.841 52.2999C98.8806 49.5499 92.9006 49.3699 87.2106 49.5299C83.9906 49.6199 80.7306 49.8099 77.6406 50.7499C77.3006 50.8499 76.9506 50.9699 76.6206 51.0899H76.6306Z" fill="#FFDA40"/>
<path d="M78.7513 52.1099C77.6613 52.5199 76.6313 53.0799 75.8213 53.8899C74.8013 54.9099 74.1613 56.3699 74.4213 57.7799C74.7313 59.4499 76.1913 60.6899 77.7113 61.5099C81.0613 63.3099 85.0313 63.7099 88.8513 63.5699C92.8013 63.4199 96.7813 62.7099 100.311 60.9899C102.451 59.9499 105.371 57.7599 103.741 55.1199C103.201 54.2499 102.331 53.6199 101.421 53.1199C97.2913 50.8399 92.3113 50.6799 87.5613 50.8199C84.8713 50.8999 82.1613 51.0499 79.5913 51.8299C79.3013 51.9199 79.0213 52.0099 78.7413 52.1199L78.7513 52.1099Z" fill="#FFEEA6"/>
</g>
<defs>
<clipPath id="clip0_113_24993">
<rect width="224.92" height="208.1" fill="white" transform="translate(0.710938)"/>
</clipPath>
</defs>
</svg>
