<svg width="250" height="240" viewBox="0 0 250 240" fill="none" xmlns="http://www.w3.org/2000/svg">
<g clip-path="url(#clip0_376_84362)">
<g clip-path="url(#clip1_376_84362)">
<path d="M231.21 119.35H226.33C223.4 98.63 214.11 79.96 200.51 65.35C202.92 55.75 208.28 53.63 208.28 53.63C212.55 51.62 212.05 47.86 212.05 47.86C211.55 43.84 205.27 41.58 205.27 41.58C193.67 38.76 184.05 43.93 178.84 47.77C163.78 38.71 146.16 33.5 127.32 33.5C75.6099 33.5 33.0599 72.76 27.8599 123.1C26.6499 123.74 25.2699 124.06 23.9399 123.76C22.0899 123.34 20.5199 121.49 20.8599 119.62C21.1499 117.97 22.6599 116.87 23.9799 115.83C25.2999 114.79 26.6399 113.35 26.3899 111.69C26.1299 110.02 24.2299 108.99 22.5499 109.21C20.8699 109.43 19.4699 110.57 18.3599 111.84C14.0299 116.84 12.1499 127.04 19.0899 130.72C20.8499 131.65 22.8399 132.07 24.8199 132.29C25.6599 132.38 26.5499 132.42 27.3299 132.11C27.3299 132.57 27.3099 133.04 27.3099 133.5C27.3099 172.98 50.1899 207.12 83.4199 223.37C83.3699 223.46 83.3099 223.54 83.2799 223.63L78.8999 233.6C77.8199 236.05 80.1699 238.6 83.5099 238.6H92.9399C94.9399 238.6 96.7299 237.65 97.4699 236.21L100.68 229.91C109.16 232.25 118.1 233.5 127.32 233.5C136.54 233.5 145.48 232.24 153.96 229.91L157.17 236.21C157.9 237.65 159.7 238.6 161.7 238.6H171.13C174.47 238.6 176.82 236.05 175.74 233.6L171.36 223.63C171.32 223.54 171.26 223.46 171.22 223.37C198.25 210.15 218.43 185.09 225.02 154.95H231.22C234.09 154.95 236.44 152.6 236.44 149.73V124.57C236.44 121.7 234.09 119.35 231.22 119.35H231.21Z" fill="#FFF3C0"/>
<path d="M171.13 240.1H161.7C159.13 240.1 156.83 238.84 155.83 236.89L153.18 231.67C136.35 236.09 118.29 236.09 101.47 231.67L98.8199 236.89C97.8299 238.84 95.5199 240.1 92.9499 240.1H83.5199C81.1699 240.1 79.0299 239.04 77.9199 237.34C77.0499 236.01 76.9099 234.42 77.5399 232.99L81.4599 224.06C65.2099 215.82 51.4699 203.36 41.6499 187.95C31.3599 171.79 25.8899 153.09 25.8199 133.85C25.4199 133.85 25.0299 133.82 24.6599 133.78C22.0799 133.5 20.0899 132.95 18.3899 132.05C15.6099 130.58 13.8199 128.09 13.2199 124.85C12.3699 120.33 14.0199 114.58 17.2299 110.87C18.8299 109.02 20.5599 107.96 22.3599 107.73C24.6899 107.43 27.4699 108.86 27.8699 111.47C28.1599 113.37 27.1599 115.23 24.9099 117.02L24.6799 117.2C23.6199 118.04 22.5099 118.9 22.3399 119.89C22.1699 120.87 23.1099 122.04 24.2799 122.3C25.0699 122.48 25.8399 122.33 26.4699 122.09C29.2099 97.59 40.7899 74.96 59.1499 58.31C77.8399 41.34 102.05 32 127.32 32C145.45 32 163.21 36.83 178.75 45.98C184.01 42.3 193.85 37.27 205.61 40.13L205.76 40.18C206.49 40.44 212.92 42.89 213.52 47.68C213.54 47.87 214.11 52.55 208.9 55C208.65 55.11 204.39 56.99 202.15 64.95C215.76 79.8 224.54 98.05 227.6 117.86H231.19C234.9 117.86 237.91 120.87 237.91 124.58V149.74C237.91 153.45 234.9 156.46 231.19 156.46H226.19C219.48 185.45 199.78 210.56 173.17 224.07L177.09 233C177.72 234.43 177.58 236.02 176.71 237.35C175.6 239.05 173.45 240.11 171.11 240.11L171.13 240.1ZM154.75 228.13L158.51 235.52C158.99 236.46 160.27 237.09 161.7 237.09H171.13C172.45 237.09 173.67 236.54 174.22 235.69C174.54 235.2 174.59 234.7 174.36 234.19L169.9 224.09L169.14 222.71L170.55 222.02C197.37 208.9 217.18 183.7 223.54 154.63L223.8 153.45H231.2C233.25 153.45 234.92 151.78 234.92 149.73V124.57C234.92 122.52 233.25 120.85 231.2 120.85H225.01L224.83 119.56C222 99.59 213.21 81.2 199.4 66.38L198.84 65.78L199.04 64.99C201.61 54.76 207.46 52.34 207.71 52.24C210.74 50.81 210.57 48.32 210.54 48.04C210.23 45.55 206.37 43.6 204.81 43.02C193.63 40.34 184.29 45.6 179.71 48.98L178.9 49.57L178.04 49.05C162.77 39.85 145.23 34.99 127.31 34.99C102.79 34.99 79.2899 44.06 61.1399 60.52C43.1199 76.87 31.8299 99.15 29.3399 123.24L29.2599 124.03L28.5499 124.41C26.8999 125.29 25.1799 125.57 23.5999 125.21C20.8499 124.59 18.9099 121.91 19.3699 119.34C19.7499 117.22 21.4499 115.88 22.8099 114.81L23.0399 114.63C23.9599 113.9 25.0399 112.83 24.8899 111.89C24.7799 111.15 23.7099 110.55 22.7299 110.67C21.6799 110.8 20.5899 111.52 19.4899 112.8C16.8799 115.82 15.4799 120.64 16.1599 124.27C16.5999 126.61 17.8199 128.33 19.7899 129.38C21.1399 130.1 22.7899 130.54 24.9799 130.78C25.5899 130.85 26.2899 130.89 26.7799 130.7L28.8599 129.88L28.8199 132.55C28.8199 132.86 28.8099 133.18 28.8099 133.5C28.8099 152.29 34.1199 170.57 44.1699 186.34C53.9499 201.7 67.7499 214.04 84.0799 222.03L85.4899 222.72L84.6499 224.24L80.2699 234.2C80.0499 234.71 80.0899 235.21 80.4099 235.7C80.9599 236.55 82.1799 237.1 83.4999 237.1H92.9299C94.3599 237.1 95.6399 236.47 96.1199 235.53L99.8799 228.14L101.06 228.47C118.1 233.17 136.5 233.17 153.55 228.47L154.73 228.14L154.75 228.13Z" fill="#FFEEA6"/>
<path d="M127.32 223.26C176.893 223.26 217.08 183.073 217.08 133.5C217.08 83.9272 176.893 43.7402 127.32 43.7402C77.747 43.7402 37.5601 83.9272 37.5601 133.5C37.5601 183.073 77.747 223.26 127.32 223.26Z" fill="#FFFAE6"/>
<path d="M191.92 167.17C201.889 167.17 209.97 159.653 209.97 150.38C209.97 141.107 201.889 133.59 191.92 133.59C181.951 133.59 173.87 141.107 173.87 150.38C173.87 159.653 181.951 167.17 191.92 167.17Z" fill="#FFDA40"/>
<path d="M191.92 163.559C199.752 163.559 206.1 157.658 206.1 150.379C206.1 143.1 199.752 137.199 191.92 137.199C184.089 137.199 177.74 143.1 177.74 150.379C177.74 157.658 184.089 163.559 191.92 163.559Z" fill="#FFEEA6"/>
<path d="M177.5 182.85C189.954 182.85 200.05 173.462 200.05 161.88C200.05 150.299 189.954 140.91 177.5 140.91C165.046 140.91 154.95 150.299 154.95 161.88C154.95 173.462 165.046 182.85 177.5 182.85Z" fill="#FFDA40"/>
<path d="M177.5 178.35C187.281 178.35 195.21 170.976 195.21 161.88C195.21 152.784 187.281 145.41 177.5 145.41C167.719 145.41 159.79 152.784 159.79 161.88C159.79 170.976 167.719 178.35 177.5 178.35Z" fill="#FFEEA6"/>
<path d="M80.7597 184.53C92.9652 184.53 102.86 175.329 102.86 163.98C102.86 152.63 92.9652 143.43 80.7597 143.43C68.5542 143.43 58.6597 152.63 58.6597 163.98C58.6597 175.329 68.5542 184.53 80.7597 184.53Z" fill="#FFDA40"/>
<path d="M80.7599 180.12C90.3476 180.12 98.1199 172.894 98.1199 163.98C98.1199 155.066 90.3476 147.84 80.7599 147.84C71.1722 147.84 63.3999 155.066 63.3999 163.98C63.3999 172.894 71.1722 180.12 80.7599 180.12Z" fill="#FFEEA6"/>
<path d="M166.52 196.52C166.78 200.04 166.71 202.08 166.62 203.1C166.56 203.74 166.33 204.35 165.94 204.86C164.65 206.54 162.09 208.31 162.09 208.31C162.09 208.31 152.99 214.97 135.65 213C126.13 211.92 121.37 207.9 119.88 206.41C119.5 206.03 119.28 205.54 119.24 205.01C119.05 202.5 119.34 197.02 119.34 197.02L166.51 196.52H166.52Z" fill="#FFC52F"/>
<path d="M126.29 188.989C124.57 189.629 122.94 190.519 121.66 191.799C120.04 193.409 119.04 195.729 119.45 197.959C119.94 200.609 122.24 202.569 124.65 203.859C129.95 206.709 136.21 207.339 142.25 207.119C148.49 206.879 154.77 205.759 160.36 203.039C163.74 201.399 168.35 197.929 165.79 193.749C164.94 192.369 163.56 191.379 162.12 190.589C155.59 186.969 147.72 186.729 140.23 186.939C135.99 187.059 131.7 187.309 127.64 188.539C127.19 188.679 126.74 188.829 126.29 188.989V188.989Z" fill="#FFDA40"/>
<path d="M129.07 190.32C127.64 190.86 126.28 191.59 125.21 192.66C123.86 194 123.03 195.93 123.37 197.78C123.78 199.98 125.7 201.61 127.7 202.68C132.11 205.05 137.33 205.58 142.36 205.39C147.55 205.19 152.79 204.26 157.45 202C160.26 200.63 164.11 197.75 161.97 194.28C161.26 193.13 160.11 192.31 158.92 191.65C153.48 188.64 146.93 188.44 140.69 188.62C137.16 188.72 133.58 188.93 130.2 189.95C129.82 190.06 129.45 190.19 129.08 190.33L129.07 190.32Z" fill="#FFEEA6"/>
<path d="M173.8 187.221C174.06 190.741 173.99 192.781 173.9 193.801C173.84 194.441 173.61 195.051 173.22 195.561C171.93 197.241 169.37 199.011 169.37 199.011C169.37 199.011 160.27 205.671 142.93 203.701C133.41 202.621 128.65 198.601 127.16 197.111C126.78 196.731 126.56 196.241 126.52 195.711C126.33 193.201 126.62 187.721 126.62 187.721L173.79 187.221H173.8Z" fill="#FFC52F"/>
<path d="M133.56 179.69C131.84 180.33 130.21 181.22 128.93 182.5C127.31 184.11 126.31 186.43 126.72 188.66C127.21 191.31 129.51 193.27 131.92 194.56C137.22 197.41 143.48 198.04 149.52 197.82C155.76 197.58 162.04 196.46 167.63 193.74C171.01 192.1 175.62 188.63 173.06 184.45C172.21 183.07 170.83 182.08 169.39 181.29C162.86 177.67 154.99 177.43 147.5 177.64C143.26 177.76 138.97 178.01 134.91 179.24C134.46 179.38 134.01 179.53 133.56 179.69V179.69Z" fill="#FFDA40"/>
<path d="M136.34 181.03C134.91 181.57 133.55 182.3 132.48 183.37C131.13 184.71 130.3 186.64 130.64 188.49C131.05 190.69 132.97 192.32 134.97 193.39C139.38 195.76 144.6 196.29 149.63 196.1C154.82 195.9 160.06 194.97 164.72 192.71C167.53 191.34 171.38 188.46 169.24 184.99C168.53 183.84 167.38 183.02 166.19 182.36C160.75 179.35 154.2 179.15 147.96 179.33C144.43 179.43 140.85 179.64 137.47 180.66C137.09 180.77 136.72 180.9 136.35 181.04L136.34 181.03Z" fill="#FFEEA6"/>
<path d="M173.67 177.451C173.93 180.971 173.86 183.011 173.77 184.031C173.71 184.671 173.48 185.281 173.09 185.791C171.8 187.471 169.24 189.241 169.24 189.241C169.24 189.241 160.14 195.901 142.8 193.931C133.28 192.851 128.52 188.831 127.03 187.341C126.65 186.961 126.43 186.471 126.39 185.941C126.2 183.431 126.49 177.951 126.49 177.951L173.66 177.451H173.67Z" fill="#FFC52F"/>
<path d="M133.44 169.921C131.72 170.561 130.09 171.451 128.81 172.731C127.19 174.341 126.19 176.661 126.6 178.891C127.09 181.541 129.39 183.501 131.8 184.791C137.1 187.641 143.36 188.271 149.4 188.051C155.64 187.811 161.92 186.691 167.51 183.971C170.89 182.331 175.5 178.861 172.94 174.681C172.09 173.301 170.71 172.311 169.27 171.521C162.74 167.901 154.87 167.661 147.38 167.871C143.14 167.991 138.85 168.241 134.79 169.471C134.34 169.611 133.89 169.761 133.44 169.921V169.921Z" fill="#FFDA40"/>
<path d="M136.22 171.251C134.79 171.791 133.43 172.521 132.36 173.591C131.01 174.931 130.18 176.861 130.52 178.711C130.93 180.911 132.85 182.541 134.85 183.611C139.26 185.981 144.48 186.511 149.51 186.321C154.7 186.121 159.94 185.191 164.6 182.931C167.41 181.561 171.26 178.681 169.12 175.211C168.41 174.061 167.26 173.241 166.07 172.581C160.63 169.571 154.08 169.371 147.84 169.551C144.31 169.651 140.73 169.861 137.35 170.881C136.97 170.991 136.6 171.121 136.23 171.261L136.22 171.251Z" fill="#FFEEA6"/>
<path d="M178.79 168.031C179.05 171.551 178.98 173.591 178.89 174.611C178.83 175.251 178.6 175.861 178.21 176.371C176.92 178.051 174.36 179.821 174.36 179.821C174.36 179.821 165.26 186.481 147.92 184.511C138.4 183.431 133.64 179.411 132.15 177.921C131.77 177.541 131.55 177.051 131.51 176.521C131.32 174.011 131.61 168.531 131.61 168.531L178.78 168.031H178.79Z" fill="#FFC52F"/>
<path d="M138.55 160.501C136.83 161.141 135.2 162.031 133.92 163.311C132.3 164.921 131.3 167.241 131.71 169.471C132.2 172.121 134.5 174.081 136.91 175.371C142.21 178.221 148.47 178.851 154.51 178.631C160.75 178.391 167.03 177.271 172.62 174.551C176 172.911 180.61 169.441 178.05 165.261C177.2 163.881 175.82 162.891 174.38 162.101C167.85 158.481 159.98 158.241 152.49 158.451C148.25 158.571 143.96 158.821 139.9 160.051C139.45 160.191 139 160.341 138.55 160.501V160.501Z" fill="#FFDA40"/>
<path d="M141.33 161.831C139.9 162.371 138.54 163.101 137.47 164.171C136.12 165.511 135.29 167.441 135.63 169.291C136.04 171.491 137.96 173.121 139.96 174.191C144.37 176.561 149.59 177.091 154.62 176.901C159.81 176.701 165.05 175.771 169.71 173.511C172.52 172.141 176.37 169.261 174.23 165.791C173.52 164.641 172.37 163.821 171.18 163.161C165.74 160.151 159.19 159.951 152.95 160.131C149.42 160.231 145.84 160.441 142.46 161.461C142.08 161.571 141.71 161.701 141.34 161.841L141.33 161.831Z" fill="#FFEEA6"/>
<path d="M171.26 158.82C171.52 162.34 171.45 164.38 171.36 165.4C171.3 166.04 171.07 166.65 170.68 167.16C169.39 168.84 166.83 170.61 166.83 170.61C166.83 170.61 157.73 177.27 140.39 175.3C130.87 174.22 126.11 170.2 124.62 168.71C124.24 168.33 124.02 167.84 123.98 167.31C123.79 164.8 124.08 159.32 124.08 159.32L171.25 158.82H171.26Z" fill="#FFC52F"/>
<path d="M131.03 151.28C129.31 151.92 127.68 152.81 126.4 154.09C124.78 155.7 123.78 158.02 124.19 160.25C124.68 162.9 126.98 164.86 129.39 166.15C134.69 169 140.95 169.63 146.99 169.41C153.23 169.17 159.51 168.05 165.1 165.33C168.48 163.69 173.09 160.22 170.53 156.04C169.68 154.66 168.3 153.67 166.86 152.88C160.33 149.26 152.46 149.02 144.97 149.23C140.73 149.35 136.44 149.6 132.38 150.83C131.93 150.97 131.48 151.12 131.03 151.28V151.28Z" fill="#FFDA40"/>
<path d="M133.81 152.62C132.38 153.16 131.02 153.89 129.95 154.96C128.6 156.3 127.77 158.23 128.11 160.08C128.52 162.28 130.44 163.91 132.44 164.98C136.85 167.35 142.07 167.88 147.1 167.69C152.29 167.49 157.53 166.56 162.19 164.3C165 162.93 168.85 160.05 166.71 156.58C166 155.43 164.85 154.61 163.66 153.95C158.22 150.94 151.67 150.74 145.43 150.92C141.9 151.02 138.32 151.23 134.94 152.25C134.56 152.36 134.19 152.49 133.82 152.63L133.81 152.62Z" fill="#FFEEA6"/>
<path d="M167.62 149.961C167.87 153.231 167.8 155.131 167.71 156.071C167.66 156.661 167.44 157.231 167.08 157.701C165.88 159.261 163.5 160.911 163.5 160.911C163.5 160.911 155.05 167.101 138.93 165.271C130.08 164.261 125.66 160.531 124.27 159.141C123.92 158.791 123.72 158.331 123.68 157.841C123.51 155.511 123.77 150.421 123.77 150.421L167.61 149.961H167.62Z" fill="#FFC52F"/>
<path d="M130.219 142.96C128.619 143.56 127.109 144.38 125.909 145.57C124.409 147.07 123.479 149.23 123.859 151.29C124.309 153.75 126.459 155.57 128.689 156.77C133.619 159.42 139.429 160.01 145.039 159.8C150.839 159.58 156.679 158.54 161.869 156.01C165.009 154.48 169.299 151.26 166.909 147.38C166.119 146.09 164.839 145.18 163.499 144.44C157.429 141.08 150.119 140.85 143.159 141.05C139.219 141.16 135.229 141.4 131.459 142.54C131.039 142.67 130.619 142.81 130.209 142.96H130.219Z" fill="#FFDA40"/>
<path d="M132.81 144.201C131.48 144.701 130.22 145.381 129.22 146.371C127.97 147.621 127.19 149.411 127.51 151.131C127.89 153.171 129.67 154.691 131.53 155.691C135.63 157.891 140.48 158.381 145.15 158.211C149.98 158.031 154.84 157.161 159.17 155.061C161.79 153.791 165.36 151.111 163.37 147.881C162.71 146.811 161.64 146.051 160.53 145.441C155.48 142.651 149.38 142.461 143.58 142.621C140.3 142.711 136.97 142.911 133.83 143.861C133.48 143.971 133.13 144.081 132.79 144.211L132.81 144.201Z" fill="#FFEEA6"/>
<path d="M129.76 200.76C130.01 204.12 129.94 206.08 129.86 207.05C129.81 207.66 129.59 208.24 129.21 208.73C127.98 210.34 125.53 212.03 125.53 212.03C125.53 212.03 116.83 218.4 100.25 216.51C91.1399 215.47 86.5999 211.64 85.1699 210.21C84.8099 209.85 84.5999 209.38 84.5599 208.87C84.3799 206.47 84.6599 201.23 84.6599 201.23L129.76 200.76V200.76Z" fill="#FFC52F"/>
<path d="M91.2897 193.551C89.6497 194.171 88.0897 195.011 86.8597 196.241C85.3097 197.781 84.3597 200.001 84.7497 202.131C85.2197 204.661 87.4197 206.531 89.7197 207.771C94.7897 210.501 100.77 211.101 106.55 210.881C112.51 210.651 118.52 209.581 123.87 206.981C127.1 205.411 131.51 202.091 129.06 198.101C128.25 196.781 126.93 195.831 125.56 195.081C119.32 191.621 111.79 191.391 104.63 191.591C100.57 191.711 96.4697 191.951 92.5897 193.121C92.1597 193.251 91.7297 193.391 91.2997 193.551H91.2897Z" fill="#FFDA40"/>
<path d="M93.9497 194.83C92.5797 195.34 91.2797 196.05 90.2597 197.06C88.9697 198.34 88.1697 200.19 88.4997 201.96C88.8897 204.06 90.7297 205.62 92.6397 206.65C96.8597 208.92 101.85 209.42 106.65 209.24C111.62 209.05 116.62 208.16 121.08 206C123.77 204.69 127.44 201.94 125.4 198.62C124.72 197.52 123.62 196.74 122.48 196.11C117.28 193.24 111.01 193.04 105.04 193.21C101.66 193.31 98.2397 193.51 95.0097 194.48C94.6497 194.59 94.2897 194.71 93.9397 194.84L93.9497 194.83Z" fill="#FFEEA6"/>
<path d="M125.05 190.91C125.3 194.27 125.23 196.23 125.15 197.2C125.1 197.81 124.88 198.39 124.5 198.88C123.27 200.49 120.82 202.18 120.82 202.18C120.82 202.18 112.12 208.55 95.5399 206.66C86.4299 205.62 81.8899 201.79 80.4599 200.36C80.0999 200 79.8899 199.53 79.8499 199.02C79.6699 196.62 79.9499 191.38 79.9499 191.38L125.05 190.91V190.91Z" fill="#FFC52F"/>
<path d="M86.5699 183.711C84.9299 184.331 83.3699 185.171 82.1399 186.401C80.5899 187.941 79.6399 190.161 80.0299 192.291C80.4999 194.821 82.6999 196.691 84.9999 197.931C90.0699 200.661 96.0499 201.261 101.83 201.041C107.79 200.811 113.8 199.741 119.15 197.141C122.38 195.571 126.79 192.251 124.34 188.261C123.53 186.941 122.21 185.991 120.84 185.241C114.6 181.781 107.07 181.551 99.9099 181.751C95.8499 181.871 91.7499 182.111 87.8699 183.281C87.4399 183.411 87.0099 183.551 86.5799 183.711H86.5699Z" fill="#FFDA40"/>
<path d="M89.23 184.99C87.86 185.5 86.56 186.21 85.54 187.22C84.25 188.5 83.45 190.35 83.78 192.12C84.17 194.22 86.01 195.78 87.92 196.81C92.14 199.08 97.13 199.58 101.93 199.4C106.9 199.21 111.9 198.32 116.36 196.16C119.05 194.85 122.72 192.1 120.68 188.78C120 187.68 118.9 186.9 117.76 186.27C112.56 183.4 106.29 183.2 100.32 183.37C96.94 183.47 93.52 183.67 90.29 184.64C89.93 184.75 89.57 184.87 89.22 185L89.23 184.99Z" fill="#FFEEA6"/>
<path d="M121.56 181.568C121.81 184.928 121.74 186.888 121.66 187.858C121.61 188.468 121.39 189.048 121.01 189.538C119.78 191.148 117.33 192.838 117.33 192.838C117.33 192.838 108.63 199.208 92.0497 197.318C82.9397 196.278 78.3997 192.448 76.9697 191.018C76.6097 190.658 76.3997 190.188 76.3597 189.678C76.1797 187.278 76.4597 182.038 76.4597 182.038L121.56 181.568V181.568Z" fill="#FFC52F"/>
<path d="M83.0797 174.359C81.4397 174.979 79.8797 175.819 78.6497 177.049C77.0997 178.589 76.1497 180.809 76.5397 182.939C77.0097 185.469 79.2097 187.339 81.5097 188.579C86.5797 191.309 92.5597 191.909 98.3397 191.689C104.3 191.459 110.31 190.389 115.66 187.789C118.89 186.219 123.3 182.899 120.85 178.909C120.04 177.589 118.72 176.639 117.35 175.889C111.11 172.429 103.58 172.199 96.4197 172.399C92.3597 172.519 88.2597 172.759 84.3797 173.929C83.9497 174.059 83.5197 174.199 83.0897 174.359H83.0797Z" fill="#FFDA40"/>
<path d="M85.7397 175.638C84.3697 176.148 83.0697 176.858 82.0497 177.868C80.7597 179.148 79.9597 180.998 80.2897 182.768C80.6797 184.868 82.5197 186.428 84.4297 187.458C88.6497 189.728 93.6397 190.228 98.4397 190.048C103.41 189.858 108.41 188.968 112.87 186.808C115.56 185.498 119.23 182.748 117.19 179.428C116.51 178.328 115.41 177.548 114.27 176.918C109.07 174.048 102.8 173.848 96.8297 174.018C93.4497 174.118 90.0297 174.318 86.7997 175.288C86.4397 175.398 86.0797 175.518 85.7297 175.648L85.7397 175.638Z" fill="#FFEEA6"/>
<path d="M130.35 174.51C130.6 177.87 130.53 179.83 130.45 180.8C130.4 181.41 130.18 181.99 129.8 182.48C128.57 184.09 126.12 185.78 126.12 185.78C126.12 185.78 117.42 192.15 100.84 190.26C91.7297 189.22 87.1897 185.39 85.7597 183.96C85.3997 183.6 85.1897 183.13 85.1497 182.62C84.9697 180.22 85.2497 174.98 85.2497 174.98L130.35 174.51V174.51Z" fill="#FFC52F"/>
<path d="M91.8795 167.31C90.2395 167.93 88.6795 168.77 87.4495 170C85.8995 171.54 84.9495 173.76 85.3395 175.89C85.8095 178.42 88.0095 180.29 90.3095 181.53C95.3795 184.26 101.36 184.86 107.14 184.64C113.1 184.41 119.11 183.34 124.46 180.74C127.69 179.17 132.1 175.85 129.65 171.86C128.84 170.54 127.52 169.59 126.15 168.84C119.91 165.38 112.38 165.15 105.22 165.35C101.16 165.47 97.0595 165.71 93.1795 166.88C92.7495 167.01 92.3195 167.15 91.8895 167.31H91.8795Z" fill="#FFDA40"/>
<path d="M94.5395 168.59C93.1695 169.1 91.8695 169.81 90.8495 170.82C89.5595 172.1 88.7595 173.95 89.0895 175.72C89.4795 177.82 91.3195 179.38 93.2295 180.41C97.4495 182.68 102.44 183.18 107.24 183C112.21 182.81 117.21 181.92 121.67 179.76C124.36 178.45 128.03 175.7 125.99 172.38C125.31 171.28 124.21 170.5 123.07 169.87C117.87 167 111.6 166.8 105.63 166.97C102.25 167.07 98.8295 167.27 95.5995 168.24C95.2395 168.35 94.8795 168.47 94.5295 168.6L94.5395 168.59Z" fill="#FFEEA6"/>
<path d="M128.14 164.709C128.39 168.069 128.32 170.029 128.24 170.999C128.19 171.609 127.97 172.189 127.59 172.679C126.36 174.289 123.91 175.979 123.91 175.979C123.91 175.979 115.21 182.349 98.6297 180.459C89.5197 179.419 84.9797 175.589 83.5497 174.159C83.1897 173.799 82.9797 173.329 82.9397 172.819C82.7597 170.419 83.0397 165.179 83.0397 165.179L128.14 164.709V164.709Z" fill="#FFC52F"/>
<path d="M89.6598 157.5C88.0198 158.12 86.4598 158.96 85.2298 160.19C83.6798 161.73 82.7298 163.95 83.1198 166.08C83.5898 168.61 85.7898 170.48 88.0898 171.72C93.1598 174.45 99.1398 175.05 104.92 174.83C110.88 174.6 116.89 173.53 122.24 170.93C125.47 169.36 129.88 166.04 127.43 162.05C126.62 160.73 125.3 159.78 123.93 159.03C117.69 155.57 110.16 155.34 103 155.54C98.9398 155.66 94.8398 155.9 90.9598 157.07C90.5298 157.2 90.0998 157.34 89.6698 157.5H89.6598Z" fill="#FFDA40"/>
<path d="M92.3198 158.779C90.9498 159.289 89.6498 159.999 88.6298 161.009C87.3398 162.289 86.5398 164.139 86.8698 165.909C87.2598 168.009 89.0998 169.569 91.0098 170.599C95.2298 172.869 100.22 173.369 105.02 173.189C109.99 172.999 114.99 172.109 119.45 169.949C122.14 168.639 125.81 165.889 123.77 162.569C123.09 161.469 121.99 160.689 120.85 160.059C115.65 157.189 109.38 156.989 103.41 157.159C100.03 157.259 96.6098 157.459 93.3798 158.429C93.0198 158.539 92.6598 158.659 92.3098 158.789L92.3198 158.779Z" fill="#FFEEA6"/>
<path d="M123.53 155.34C123.78 158.7 123.71 160.66 123.63 161.63C123.58 162.24 123.36 162.82 122.98 163.31C121.75 164.92 119.3 166.61 119.3 166.61C119.3 166.61 110.6 172.98 94.0199 171.09C84.9099 170.05 80.3699 166.22 78.9399 164.79C78.5799 164.43 78.3699 163.96 78.3299 163.45C78.1499 161.05 78.4299 155.81 78.4299 155.81L123.53 155.34V155.34Z" fill="#FFC52F"/>
<path d="M85.0597 148.14C83.4197 148.76 81.8597 149.6 80.6297 150.83C79.0797 152.37 78.1297 154.59 78.5197 156.72C78.9897 159.25 81.1897 161.12 83.4897 162.36C88.5597 165.09 94.5397 165.69 100.32 165.47C106.28 165.24 112.29 164.17 117.64 161.57C120.87 160 125.28 156.68 122.83 152.69C122.02 151.37 120.7 150.42 119.33 149.67C113.09 146.21 105.56 145.98 98.3997 146.18C94.3397 146.3 90.2397 146.54 86.3597 147.71C85.9297 147.84 85.4997 147.98 85.0697 148.14H85.0597Z" fill="#FFDA40"/>
<path d="M87.7197 149.42C86.3497 149.93 85.0497 150.64 84.0297 151.65C82.7397 152.93 81.9397 154.78 82.2697 156.55C82.6597 158.65 84.4997 160.21 86.4097 161.24C90.6297 163.51 95.6197 164.01 100.42 163.83C105.39 163.64 110.39 162.75 114.85 160.59C117.54 159.28 121.21 156.53 119.17 153.21C118.49 152.11 117.39 151.33 116.25 150.7C111.05 147.83 104.78 147.63 98.8097 147.8C95.4297 147.9 92.0097 148.1 88.7797 149.07C88.4197 149.18 88.0597 149.3 87.7097 149.43L87.7197 149.42Z" fill="#FFEEA6"/>
<path d="M86.4701 180.28C84.7901 183.35 82.6801 185.73 82.6801 185.73C80.7801 187.87 78.0701 189.34 75.2301 189.66C72.6301 189.96 69.9901 189.5 67.5401 188.63C66.3901 188.22 65.2801 187.73 64.2301 187.12C61.9201 185.79 59.8901 184 58.3201 181.84C55.5201 178.01 53.7601 172.71 56.0001 168.2C56.8201 166.55 57.7801 164.96 58.8701 163.48L86.4801 180.27L86.4701 180.28Z" fill="#FFC52F"/>
<path d="M86.4691 180.288C90.1657 174.21 86.981 165.523 79.3558 160.885C71.7307 156.247 62.5525 157.414 58.8559 163.492C55.1593 169.569 58.344 178.256 65.9692 182.894C73.5944 187.532 82.7725 186.365 86.4691 180.288Z" fill="#FFDA40"/>
<path d="M83.0006 178.179C85.7702 173.626 83.387 167.119 77.6775 163.646C71.9681 160.174 65.0945 161.05 62.3249 165.603C59.5553 170.156 61.9385 176.663 67.6479 180.136C73.3574 183.608 80.231 182.732 83.0006 178.179Z" fill="#FFEEA6"/>
<path d="M78.2898 166.319C76.5198 169.539 74.3098 172.039 74.3098 172.039C72.3098 174.289 69.4698 175.829 66.4898 176.169C63.7598 176.479 60.9898 175.999 58.4198 175.089C57.2198 174.659 56.0498 174.139 54.9398 173.509C52.5198 172.109 50.3898 170.229 48.7398 167.969C45.8098 163.949 43.9598 158.389 46.3098 153.649C47.1698 151.919 48.1698 150.239 49.3198 148.699L78.2898 166.319V166.319Z" fill="#FFC52F"/>
<path d="M78.281 166.324C82.1613 159.945 78.8195 150.827 70.8168 145.96C62.8142 141.092 53.1811 142.318 49.3008 148.697C45.4205 155.076 48.7623 164.194 56.765 169.062C64.7676 173.929 74.4007 172.704 78.281 166.324Z" fill="#FFDA40"/>
<path d="M74.6415 164.111C77.5488 159.331 75.0478 152.502 69.0552 148.857C63.0627 145.212 55.8479 146.132 52.9405 150.912C50.0332 155.692 52.5342 162.521 58.5267 166.166C64.5193 169.811 71.7341 168.891 74.6415 164.111Z" fill="#FFEEA6"/>
<path d="M80.5302 146.361C78.8502 149.431 76.7402 151.811 76.7402 151.811C74.8402 153.951 72.1302 155.421 69.2902 155.741C66.6902 156.041 64.0502 155.581 61.6002 154.711C60.4502 154.301 59.3402 153.811 58.2902 153.201C55.9802 151.871 53.9502 150.081 52.3802 147.921C49.5802 144.091 47.8202 138.791 50.0602 134.281C50.8802 132.631 51.8402 131.041 52.9302 129.561L80.5402 146.351L80.5302 146.361Z" fill="#FFC52F"/>
<path d="M80.5306 146.37C84.2272 140.292 81.0425 131.605 73.4174 126.967C65.7922 122.329 56.6141 123.496 52.9174 129.574C49.2208 135.651 52.4055 144.338 60.0307 148.976C67.6559 153.614 76.834 152.447 80.5306 146.37Z" fill="#FFDA40"/>
<path d="M77.0621 144.261C79.8317 139.708 77.4485 133.201 71.739 129.728C66.0296 126.256 59.156 127.132 56.3864 131.685C53.6168 136.238 56 142.745 61.7094 146.218C67.4189 149.69 74.2925 148.814 77.0621 144.261Z" fill="#FFEEA6"/>
<path d="M122.39 147.961C122.61 150.891 122.55 152.591 122.47 153.441C122.42 153.971 122.23 154.481 121.9 154.901C120.82 156.301 118.69 157.781 118.69 157.781C118.69 157.781 111.11 163.331 96.6698 161.681C88.7398 160.781 84.7798 157.441 83.5298 156.191C83.2198 155.881 83.0298 155.471 82.9998 155.021C82.8398 152.931 83.0798 148.371 83.0798 148.371L122.36 147.961H122.39Z" fill="#FFC52F"/>
<path d="M88.8797 141.69C87.4497 142.23 86.0897 142.96 85.0197 144.03C83.6697 145.37 82.8397 147.31 83.1797 149.16C83.5897 151.36 85.5097 153 87.5097 154.07C91.9197 156.44 97.1397 156.97 102.16 156.78C107.35 156.58 112.59 155.65 117.25 153.38C120.06 152.01 123.91 149.12 121.77 145.64C121.06 144.49 119.91 143.67 118.72 143.01C113.28 140 106.73 139.79 100.49 139.97C96.9597 140.07 93.3797 140.28 90.0097 141.3C89.6297 141.41 89.2597 141.54 88.8897 141.68L88.8797 141.69Z" fill="#FFDA40"/>
<path d="M91.1997 142.801C90.0097 143.251 88.8797 143.861 87.9897 144.751C86.8697 145.871 86.1697 147.471 86.4597 149.011C86.7997 150.841 88.3997 152.201 90.0597 153.091C93.7397 155.061 98.0797 155.501 102.27 155.341C106.6 155.181 110.96 154.401 114.84 152.521C117.18 151.381 120.38 148.981 118.6 146.091C118.01 145.131 117.05 144.451 116.06 143.901C111.53 141.401 106.07 141.231 100.87 141.381C97.9297 141.461 94.9497 141.641 92.1397 142.491C91.8297 142.581 91.5097 142.691 91.2097 142.801H91.1997Z" fill="#FFEEA6"/>
<path d="M125.82 139.951C126.04 142.881 125.98 144.581 125.9 145.431C125.85 145.961 125.66 146.471 125.33 146.891C124.25 148.291 122.12 149.771 122.12 149.771C122.12 149.771 114.54 155.321 100.1 153.671C92.17 152.771 88.21 149.431 86.96 148.181C86.65 147.871 86.46 147.461 86.43 147.011C86.27 144.921 86.51 140.361 86.51 140.361L125.79 139.951H125.82Z" fill="#FFC52F"/>
<path d="M92.3099 133.681C90.8799 134.221 89.5199 134.951 88.4499 136.021C87.0999 137.361 86.2699 139.301 86.6099 141.151C87.0199 143.351 88.9399 144.991 90.9399 146.061C95.3499 148.431 100.57 148.961 105.59 148.771C110.78 148.571 116.02 147.641 120.68 145.371C123.49 144.001 127.34 141.111 125.2 137.631C124.49 136.481 123.34 135.661 122.15 135.001C116.71 131.991 110.16 131.781 103.92 131.961C100.39 132.061 96.8099 132.271 93.4399 133.291C93.0599 133.401 92.6899 133.531 92.3199 133.671L92.3099 133.681Z" fill="#FFDA40"/>
<path d="M94.6201 134.791C93.4301 135.241 92.3001 135.851 91.4101 136.741C90.2901 137.861 89.5901 139.461 89.8801 141.001C90.2201 142.831 91.8201 144.191 93.4801 145.081C97.1601 147.051 101.5 147.491 105.69 147.331C110.02 147.171 114.38 146.391 118.26 144.511C120.6 143.371 123.8 140.971 122.02 138.081C121.43 137.121 120.47 136.441 119.48 135.891C114.95 133.391 109.49 133.221 104.29 133.371C101.35 133.451 98.3701 133.631 95.5601 134.481C95.2501 134.571 94.9301 134.681 94.6301 134.791H94.6201Z" fill="#FFEEA6"/>
<path d="M121.22 131.281C121.44 134.211 121.38 135.911 121.3 136.761C121.25 137.291 121.06 137.801 120.73 138.221C119.65 139.621 117.52 141.101 117.52 141.101C117.52 141.101 109.94 146.651 95.4999 145.001C87.5699 144.101 83.6099 140.761 82.3599 139.511C82.0499 139.201 81.8599 138.791 81.8299 138.341C81.6699 136.251 81.9099 131.691 81.9099 131.691L121.19 131.281H121.22Z" fill="#FFC52F"/>
<path d="M87.7098 125.011C86.2798 125.551 84.9198 126.281 83.8498 127.351C82.4998 128.691 81.6698 130.631 82.0098 132.481C82.4198 134.681 84.3398 136.321 86.3398 137.391C90.7498 139.761 95.9698 140.291 100.99 140.101C106.18 139.901 111.42 138.971 116.08 136.701C118.89 135.331 122.74 132.441 120.6 128.961C119.89 127.811 118.74 126.991 117.55 126.331C112.11 123.321 105.56 123.111 99.3198 123.291C95.7898 123.391 92.2098 123.601 88.8398 124.621C88.4598 124.731 88.0898 124.861 87.7198 125.001L87.7098 125.011Z" fill="#FFDA40"/>
<path d="M90.02 126.121C88.83 126.571 87.7 127.181 86.81 128.071C85.69 129.191 84.99 130.791 85.28 132.331C85.62 134.161 87.22 135.521 88.88 136.411C92.56 138.381 96.9 138.821 101.09 138.661C105.42 138.501 109.78 137.721 113.66 135.841C116 134.701 119.2 132.301 117.42 129.411C116.83 128.451 115.87 127.771 114.88 127.221C110.35 124.721 104.89 124.551 99.69 124.701C96.75 124.781 93.77 124.961 90.96 125.811C90.65 125.901 90.33 126.011 90.03 126.121H90.02Z" fill="#FFEEA6"/>
<path d="M125.38 125.471C125.6 128.401 125.54 130.101 125.46 130.951C125.41 131.481 125.22 131.991 124.89 132.411C123.81 133.811 121.68 135.291 121.68 135.291C121.68 135.291 114.1 140.841 99.6601 139.191C91.7301 138.291 87.7701 134.951 86.5201 133.701C86.2101 133.391 86.0201 132.981 85.9901 132.531C85.8301 130.441 86.0701 125.881 86.0701 125.881L125.35 125.471H125.38Z" fill="#FFC52F"/>
<path d="M91.87 119.19C90.44 119.73 89.08 120.46 88.01 121.53C86.66 122.87 85.83 124.81 86.17 126.66C86.58 128.86 88.5 130.5 90.5 131.57C94.91 133.94 100.13 134.47 105.15 134.28C110.34 134.08 115.58 133.15 120.24 130.88C123.05 129.51 126.9 126.62 124.76 123.14C124.05 121.99 122.9 121.17 121.71 120.51C116.27 117.5 109.72 117.29 103.48 117.47C99.95 117.57 96.37 117.78 93 118.8C92.62 118.91 92.25 119.04 91.88 119.18L91.87 119.19Z" fill="#FFDA40"/>
<path d="M94.1801 120.311C92.9901 120.761 91.8601 121.371 90.9701 122.261C89.8501 123.381 89.1501 124.981 89.4401 126.521C89.7801 128.351 91.3801 129.711 93.0401 130.601C96.7201 132.571 101.06 133.011 105.25 132.851C109.58 132.691 113.94 131.911 117.82 130.031C120.16 128.891 123.36 126.491 121.58 123.601C120.99 122.641 120.03 121.961 119.04 121.411C114.51 118.911 109.05 118.741 103.85 118.891C100.91 118.971 97.9301 119.151 95.1201 120.001C94.8101 120.091 94.4901 120.201 94.1901 120.311H94.1801Z" fill="#FFEEA6"/>
<path d="M122.98 118.532C123.18 121.202 123.12 122.762 123.06 123.532C123.02 124.022 122.84 124.482 122.54 124.862C121.56 126.142 119.61 127.482 119.61 127.482C119.61 127.482 112.7 132.542 99.5198 131.042C92.2798 130.222 88.6698 127.172 87.5398 126.032C87.2498 125.742 87.0898 125.372 87.0598 124.962C86.9198 123.052 87.1398 118.892 87.1398 118.892L122.98 118.512V118.532Z" fill="#FFC52F"/>
<path d="M92.4099 112.801C91.0999 113.291 89.8699 113.961 88.8899 114.941C87.6599 116.171 86.8999 117.931 87.2099 119.621C87.5799 121.631 89.3299 123.121 91.1599 124.101C95.1899 126.271 99.9399 126.751 104.53 126.571C109.27 126.391 114.04 125.541 118.29 123.471C120.86 122.221 124.36 119.591 122.41 116.411C121.76 115.361 120.71 114.611 119.62 114.011C114.66 111.261 108.68 111.081 102.99 111.241C99.7699 111.331 96.5099 111.521 93.4199 112.461C93.0799 112.561 92.7299 112.681 92.3999 112.801H92.4099Z" fill="#FFDA40"/>
<path d="M94.5198 113.821C93.4298 114.231 92.3998 114.791 91.5898 115.601C90.5698 116.621 89.9298 118.081 90.1898 119.491C90.4998 121.161 91.9598 122.401 93.4798 123.221C96.8298 125.021 100.8 125.421 104.62 125.281C108.57 125.131 112.55 124.421 116.08 122.701C118.22 121.661 121.14 119.471 119.51 116.831C118.97 115.961 118.1 115.331 117.19 114.831C113.06 112.551 108.08 112.391 103.33 112.531C100.64 112.611 97.9298 112.761 95.3598 113.541C95.0698 113.631 94.7898 113.721 94.5098 113.831L94.5198 113.821Z" fill="#FFEEA6"/>
<path d="M128.1 110.488C128.31 113.298 128.25 114.928 128.18 115.738C128.14 116.248 127.95 116.728 127.64 117.138C126.61 118.478 124.57 119.888 124.57 119.888C124.57 119.888 117.31 125.208 103.48 123.628C95.8797 122.758 92.0897 119.558 90.8997 118.368C90.5997 118.068 90.4297 117.678 90.3897 117.248C90.2397 115.248 90.4697 110.878 90.4697 110.878L128.1 110.488V110.488Z" fill="#FFC52F"/>
<path d="M95.9997 104.479C94.6297 104.989 93.3297 105.699 92.2997 106.719C91.0097 108.009 90.2097 109.859 90.5397 111.629C90.9297 113.739 92.7697 115.299 94.6897 116.339C98.9197 118.609 103.91 119.119 108.73 118.939C113.71 118.749 118.72 117.859 123.18 115.689C125.88 114.379 129.56 111.609 127.51 108.279C126.83 107.179 125.73 106.389 124.59 105.759C119.38 102.869 113.1 102.679 107.13 102.849C103.74 102.949 100.32 103.149 97.0897 104.129C96.7297 104.239 96.3697 104.359 96.0197 104.489L95.9997 104.479Z" fill="#FFDA40"/>
<path d="M98.2197 105.549C97.0797 105.979 95.9897 106.559 95.1397 107.409C94.0697 108.479 93.3997 110.019 93.6697 111.489C93.9997 113.239 95.5297 114.539 97.1197 115.399C100.64 117.289 104.8 117.709 108.81 117.559C112.95 117.399 117.13 116.659 120.85 114.849C123.1 113.759 126.16 111.459 124.46 108.689C123.9 107.769 122.98 107.119 122.02 106.589C117.68 104.189 112.45 104.029 107.47 104.169C104.65 104.249 101.8 104.419 99.0997 105.229C98.7997 105.319 98.4997 105.419 98.2097 105.529L98.2197 105.549Z" fill="#FFEEA6"/>
<path d="M168.72 142.359C168.94 145.289 168.88 146.989 168.8 147.839C168.75 148.369 168.56 148.879 168.23 149.299C167.15 150.699 165.02 152.179 165.02 152.179C165.02 152.179 157.44 157.729 143 156.079C135.07 155.179 131.11 151.839 129.86 150.589C129.55 150.279 129.36 149.869 129.33 149.419C129.17 147.329 129.41 142.769 129.41 142.769L168.69 142.359H168.72Z" fill="#FFC52F"/>
<path d="M135.21 136.079C133.78 136.619 132.42 137.349 131.35 138.419C130 139.759 129.17 141.699 129.51 143.549C129.92 145.749 131.84 147.389 133.84 148.459C138.25 150.829 143.47 151.359 148.49 151.169C153.68 150.969 158.92 150.039 163.58 147.769C166.39 146.399 170.24 143.509 168.1 140.029C167.39 138.879 166.24 138.059 165.05 137.399C159.61 134.389 153.06 134.179 146.82 134.359C143.29 134.459 139.71 134.669 136.34 135.689C135.96 135.799 135.59 135.929 135.22 136.069L135.21 136.079Z" fill="#FFDA40"/>
<path d="M137.53 137.199C136.34 137.649 135.21 138.259 134.32 139.149C133.2 140.269 132.5 141.869 132.79 143.409C133.13 145.239 134.73 146.599 136.39 147.489C140.07 149.459 144.41 149.899 148.6 149.739C152.93 149.579 157.29 148.799 161.17 146.919C163.51 145.779 166.71 143.379 164.93 140.489C164.34 139.529 163.38 138.849 162.39 138.299C157.86 135.799 152.4 135.629 147.2 135.779C144.26 135.859 141.28 136.039 138.47 136.889C138.16 136.979 137.84 137.089 137.54 137.199H137.53Z" fill="#FFEEA6"/>
<path d="M166 134.721C166.22 137.651 166.16 139.351 166.08 140.201C166.03 140.731 165.84 141.241 165.51 141.661C164.43 143.061 162.3 144.541 162.3 144.541C162.3 144.541 154.72 150.091 140.28 148.441C132.35 147.541 128.39 144.201 127.14 142.951C126.83 142.641 126.64 142.231 126.61 141.781C126.45 139.691 126.69 135.131 126.69 135.131L165.97 134.721H166Z" fill="#FFC52F"/>
<path d="M132.49 128.45C131.06 128.99 129.7 129.72 128.63 130.79C127.28 132.13 126.45 134.07 126.79 135.92C127.2 138.12 129.12 139.76 131.12 140.83C135.53 143.2 140.75 143.73 145.77 143.54C150.96 143.34 156.2 142.41 160.86 140.14C163.67 138.77 167.52 135.88 165.38 132.4C164.67 131.25 163.52 130.43 162.33 129.77C156.89 126.76 150.34 126.55 144.1 126.73C140.57 126.83 136.99 127.04 133.62 128.06C133.24 128.17 132.87 128.3 132.5 128.44L132.49 128.45Z" fill="#FFDA40"/>
<path d="M134.81 129.561C133.62 130.011 132.49 130.621 131.6 131.511C130.48 132.631 129.78 134.231 130.07 135.771C130.41 137.601 132.01 138.961 133.67 139.851C137.35 141.821 141.69 142.261 145.88 142.101C150.21 141.941 154.57 141.161 158.45 139.281C160.79 138.141 163.99 135.741 162.21 132.851C161.62 131.891 160.66 131.211 159.67 130.661C155.14 128.161 149.68 127.991 144.48 128.141C141.54 128.221 138.56 128.401 135.75 129.251C135.44 129.341 135.12 129.451 134.82 129.561H134.81Z" fill="#FFEEA6"/>
<path d="M172.84 128.861C173.06 131.791 173 133.491 172.92 134.341C172.87 134.871 172.68 135.381 172.35 135.801C171.27 137.201 169.14 138.681 169.14 138.681C169.14 138.681 161.56 144.231 147.12 142.581C139.19 141.681 135.23 138.341 133.98 137.091C133.67 136.781 133.48 136.371 133.45 135.921C133.29 133.831 133.53 129.271 133.53 129.271L172.81 128.861H172.84Z" fill="#FFC52F"/>
<path d="M139.33 122.591C137.9 123.131 136.54 123.861 135.47 124.931C134.12 126.271 133.29 128.211 133.63 130.061C134.04 132.261 135.96 133.901 137.96 134.971C142.37 137.341 147.59 137.871 152.61 137.681C157.8 137.481 163.04 136.551 167.7 134.281C170.51 132.911 174.36 130.021 172.22 126.541C171.51 125.391 170.36 124.571 169.17 123.911C163.73 120.901 157.18 120.691 150.94 120.871C147.41 120.971 143.83 121.181 140.46 122.201C140.08 122.311 139.71 122.441 139.34 122.581L139.33 122.591Z" fill="#FFDA40"/>
<path d="M141.64 123.701C140.45 124.151 139.32 124.761 138.43 125.651C137.31 126.771 136.61 128.371 136.9 129.911C137.24 131.741 138.84 133.101 140.5 133.991C144.18 135.961 148.52 136.401 152.71 136.241C157.04 136.081 161.4 135.301 165.28 133.421C167.62 132.281 170.82 129.881 169.04 126.991C168.45 126.031 167.49 125.351 166.5 124.801C161.97 122.301 156.51 122.131 151.31 122.281C148.37 122.361 145.39 122.541 142.58 123.391C142.27 123.481 141.95 123.591 141.65 123.701H141.64Z" fill="#FFEEA6"/>
<path d="M166.33 122.471C166.55 125.401 166.49 127.101 166.41 127.951C166.36 128.481 166.17 128.991 165.84 129.411C164.76 130.811 162.63 132.291 162.63 132.291C162.63 132.291 155.05 137.841 140.61 136.191C132.68 135.291 128.72 131.951 127.47 130.701C127.16 130.391 126.97 129.981 126.94 129.531C126.78 127.441 127.02 122.881 127.02 122.881L166.3 122.471H166.33Z" fill="#FFC52F"/>
<path d="M132.82 116.2C131.39 116.74 130.03 117.47 128.96 118.54C127.61 119.88 126.78 121.82 127.12 123.67C127.53 125.87 129.45 127.51 131.45 128.58C135.86 130.95 141.08 131.48 146.1 131.29C151.29 131.09 156.53 130.16 161.19 127.89C164 126.52 167.85 123.63 165.71 120.15C165 119 163.85 118.18 162.66 117.52C157.22 114.51 150.67 114.3 144.43 114.48C140.9 114.58 137.32 114.79 133.95 115.81C133.57 115.92 133.2 116.05 132.83 116.19L132.82 116.2Z" fill="#FFDA40"/>
<path d="M135.14 117.311C133.95 117.761 132.82 118.371 131.93 119.261C130.81 120.381 130.11 121.981 130.4 123.521C130.74 125.351 132.34 126.711 134 127.601C137.68 129.571 142.02 130.011 146.21 129.851C150.54 129.691 154.9 128.911 158.78 127.031C161.12 125.891 164.32 123.491 162.54 120.601C161.95 119.641 160.99 118.961 160 118.411C155.47 115.911 150.01 115.741 144.81 115.891C141.87 115.971 138.89 116.151 136.08 117.001C135.77 117.091 135.45 117.201 135.15 117.311H135.14Z" fill="#FFEEA6"/>
<path d="M149.4 116.389C147.85 119.229 145.9 121.429 145.9 121.429C144.14 123.409 141.64 124.769 139.01 125.069C136.61 125.339 134.17 124.919 131.9 124.119C130.84 123.749 129.81 123.289 128.84 122.729C126.71 121.499 124.83 119.839 123.38 117.849C120.8 114.309 119.17 109.409 121.24 105.239C122 103.719 122.88 102.239 123.89 100.879L149.4 116.399V116.389Z" fill="#FFC52F"/>
<path d="M149.397 116.396C152.816 110.777 149.876 102.747 142.831 98.4623C135.786 94.1773 127.304 95.2594 123.886 100.879C120.468 106.499 123.408 114.528 130.452 118.813C137.497 123.098 145.979 122.016 149.397 116.396Z" fill="#FFDA40"/>
<path d="M146.194 114.448C148.754 110.239 146.553 104.226 141.277 101.017C136.002 97.8085 129.65 98.6193 127.09 102.828C124.53 107.037 126.731 113.05 132.006 116.259C137.282 119.468 143.634 118.657 146.194 114.448Z" fill="#FFEEA6"/>
</g>
</g>
<defs>
<clipPath id="clip0_376_84362">
<rect width="250" height="240" fill="white"/>
</clipPath>
<clipPath id="clip1_376_84362">
<rect width="224.93" height="208.1" fill="white" transform="translate(13 32)"/>
</clipPath>
</defs>
</svg>
