<svg width="100%" height="100%" viewBox="0 0 226 209" fill="none" xmlns="http://www.w3.org/2000/svg">
<g clip-path="url(#clip0_113_24988)">
<path d="M218.906 87.35H214.026C211.096 66.63 201.806 47.96 188.206 33.35C190.616 23.75 195.976 21.63 195.976 21.63C200.246 19.62 199.746 15.86 199.746 15.86C199.246 11.84 192.966 9.58 192.966 9.58C181.366 6.76 171.746 11.93 166.536 15.77C151.476 6.71 133.856 1.5 115.016 1.5C63.3057 1.5 20.7557 40.76 15.5557 91.1C14.3457 91.74 12.9657 92.06 11.6357 91.76C9.78574 91.34 8.21574 89.49 8.55574 87.62C8.84574 85.97 10.3557 84.87 11.6757 83.83C12.9957 82.79 14.3357 81.35 14.0857 79.69C13.8257 78.02 11.9257 76.99 10.2457 77.21C8.56574 77.43 7.16574 78.57 6.05574 79.84C1.72574 84.84 -0.154259 95.04 6.78574 98.72C8.54574 99.65 10.5357 100.07 12.5157 100.29C13.3557 100.38 14.2457 100.42 15.0257 100.11C15.0257 100.57 15.0057 101.04 15.0057 101.5C15.0057 140.98 37.8857 175.12 71.1157 191.37C71.0657 191.46 71.0057 191.54 70.9757 191.63L66.5957 201.6C65.5157 204.05 67.8657 206.6 71.2057 206.6H80.6357C82.6357 206.6 84.4257 205.65 85.1657 204.21L88.3757 197.91C96.8557 200.25 105.796 201.5 115.016 201.5C124.236 201.5 133.176 200.24 141.656 197.91L144.866 204.21C145.596 205.65 147.396 206.6 149.396 206.6H158.826C162.166 206.6 164.516 204.05 163.436 201.6L159.056 191.63C159.016 191.54 158.956 191.46 158.916 191.37C185.946 178.15 206.126 153.09 212.716 122.95H218.916C221.786 122.95 224.136 120.6 224.136 117.73V92.57C224.136 89.7 221.786 87.35 218.916 87.35H218.906Z" fill="#FFF3C0"/>
<path d="M158.825 208.1H149.395C146.825 208.1 144.525 206.84 143.525 204.89L140.875 199.67C124.045 204.09 105.985 204.09 89.165 199.67L86.515 204.89C85.525 206.84 83.225 208.1 80.645 208.1H71.215C68.865 208.1 66.725 207.04 65.615 205.34C64.745 204.01 64.605 202.42 65.235 200.99L69.155 192.06C52.905 183.82 39.165 171.36 29.345 155.95C19.055 139.79 13.585 121.09 13.515 101.85C13.115 101.85 12.725 101.82 12.355 101.78C9.77496 101.5 7.78496 100.95 6.08496 100.05C3.30496 98.58 1.51496 96.09 0.914964 92.85C0.0649643 88.33 1.71496 82.58 4.92496 78.87C6.52496 77.02 8.25496 75.96 10.055 75.73C12.395 75.42 15.165 76.86 15.565 79.47C15.855 81.37 14.865 83.23 12.605 85.02L12.375 85.2C11.305 86.04 10.205 86.9 10.035 87.9C9.86496 88.88 10.805 90.05 11.975 90.31C12.765 90.49 13.535 90.34 14.165 90.1C16.905 65.6 28.495 42.97 46.845 26.32C65.535 9.34 89.745 0 115.015 0C133.145 0 150.905 4.83 166.445 13.98C171.705 10.3 181.545 5.27 193.305 8.13L193.455 8.18C194.185 8.44 200.615 10.89 201.215 15.68C201.245 15.87 201.805 20.55 196.595 23C196.345 23.11 192.085 24.99 189.845 32.95C203.455 47.8 212.235 66.05 215.295 85.86H218.885C222.595 85.86 225.605 88.87 225.605 92.58V117.74C225.605 121.45 222.595 124.46 218.885 124.46H213.885C207.175 153.45 187.475 178.56 160.865 192.07L164.785 201C165.415 202.43 165.275 204.02 164.405 205.35C163.295 207.05 161.145 208.11 158.805 208.11L158.825 208.1ZM142.445 196.13L146.205 203.52C146.685 204.46 147.965 205.09 149.395 205.09H158.825C160.145 205.09 161.365 204.54 161.915 203.69C162.235 203.2 162.285 202.7 162.055 202.19L157.595 192.09L156.825 190.71L158.245 190.01C185.065 176.89 204.875 151.69 211.235 122.62L211.495 121.44H218.895C220.945 121.44 222.615 119.77 222.615 117.72V92.56C222.615 90.51 220.945 88.84 218.895 88.84H212.705L212.525 87.55C209.695 67.58 200.905 49.19 187.095 34.37L186.535 33.77L186.735 32.98C189.305 22.75 195.155 20.33 195.405 20.23C198.435 18.8 198.265 16.31 198.235 16.03C197.925 13.54 194.065 11.59 192.505 11.01C181.325 8.33 171.985 13.59 167.395 16.97L166.585 17.56L165.725 17.04C150.455 7.84 132.915 2.98 114.995 2.98C90.475 2.98 66.975 12.05 48.825 28.51C30.805 44.86 19.515 67.14 17.025 91.23L16.945 92.02L16.235 92.4C14.585 93.28 12.875 93.56 11.285 93.2C8.53496 92.58 6.59496 89.9 7.05496 87.33C7.43496 85.21 9.13496 83.87 10.495 82.8L10.715 82.62C11.635 81.89 12.715 80.82 12.565 79.88C12.455 79.14 11.375 78.54 10.405 78.66C9.35496 78.79 8.26496 79.51 7.16496 80.79C4.55496 83.81 3.15496 88.63 3.83496 92.26C4.27496 94.6 5.49496 96.32 7.46496 97.37C8.81496 98.09 10.465 98.53 12.655 98.77C13.265 98.84 13.965 98.88 14.455 98.69L16.535 97.87L16.495 100.49C16.495 100.82 16.485 101.15 16.485 101.49C16.485 120.28 21.795 138.56 31.845 154.33C41.625 169.69 55.425 182.03 71.755 190.02L73.175 190.72L72.325 192.24L67.945 202.2C67.725 202.71 67.775 203.21 68.085 203.7C68.635 204.55 69.855 205.1 71.175 205.1H80.605C82.035 205.1 83.315 204.47 83.795 203.53L87.555 196.14L88.735 196.47C105.775 201.17 124.175 201.17 141.225 196.47L142.405 196.14L142.445 196.13Z" fill="#FFEEA6"/>
<path d="M115.016 191.26C164.589 191.26 204.776 151.073 204.776 101.5C204.776 51.9272 164.589 11.7402 115.016 11.7402C65.4428 11.7402 25.2559 51.9272 25.2559 101.5C25.2559 151.073 65.4428 191.26 115.016 191.26Z" fill="#FFFAE6"/>
<path d="M162.374 164.99C173.492 164.99 182.504 156.609 182.504 146.27C182.504 135.931 173.492 127.55 162.374 127.55C151.257 127.55 142.244 135.931 142.244 146.27C142.244 156.609 151.257 164.99 162.374 164.99Z" fill="#FFDA40"/>
<path d="M162.374 160.97C171.106 160.97 178.184 154.388 178.184 146.27C178.184 138.151 171.106 131.57 162.374 131.57C153.643 131.57 146.564 138.151 146.564 146.27C146.564 154.388 153.643 160.97 162.374 160.97Z" fill="#FFEEA6"/>
<path d="M71.3552 166.07C81.473 166.07 89.6752 158.445 89.6752 149.04C89.6752 139.634 81.473 132.01 71.3552 132.01C61.2373 132.01 53.0352 139.634 53.0352 149.04C53.0352 158.445 61.2373 166.07 71.3552 166.07Z" fill="#FFDA40"/>
<path d="M71.3548 162.42C79.3022 162.42 85.7448 156.429 85.7448 149.04C85.7448 141.65 79.3022 135.66 71.3548 135.66C63.4075 135.66 56.9648 141.65 56.9648 149.04C56.9648 156.429 63.4075 162.42 71.3548 162.42Z" fill="#FFEEA6"/>
<path d="M154.216 164.52C154.476 168.04 154.406 170.08 154.316 171.1C154.256 171.74 154.026 172.35 153.636 172.86C152.346 174.54 149.786 176.31 149.786 176.31C149.786 176.31 140.686 182.97 123.346 181C113.826 179.92 109.066 175.9 107.576 174.41C107.196 174.03 106.976 173.54 106.936 173.01C106.746 170.5 107.036 165.02 107.036 165.02L154.206 164.52H154.216Z" fill="#FFC52F"/>
<path d="M113.985 156.99C112.265 157.63 110.635 158.52 109.355 159.8C107.735 161.41 106.735 163.73 107.145 165.96C107.635 168.61 109.935 170.57 112.345 171.86C117.645 174.71 123.905 175.34 129.945 175.12C136.185 174.88 142.465 173.76 148.055 171.04C151.435 169.4 156.045 165.93 153.485 161.75C152.635 160.37 151.255 159.38 149.815 158.59C143.285 154.97 135.415 154.73 127.925 154.94C123.685 155.06 119.395 155.31 115.335 156.54C114.885 156.68 114.435 156.83 113.985 156.99Z" fill="#FFDA40"/>
<path d="M116.766 158.32C115.336 158.86 113.976 159.59 112.906 160.66C111.556 162 110.726 163.93 111.066 165.78C111.476 167.98 113.396 169.61 115.396 170.68C119.806 173.05 125.026 173.58 130.056 173.39C135.246 173.19 140.486 172.26 145.146 170C147.956 168.63 151.806 165.75 149.666 162.28C148.956 161.13 147.806 160.31 146.616 159.65C141.176 156.64 134.626 156.44 128.386 156.62C124.856 156.72 121.276 156.93 117.896 157.95C117.516 158.06 117.146 158.19 116.776 158.33L116.766 158.32Z" fill="#FFEEA6"/>
<path d="M160.114 157.21C160.374 160.73 160.304 162.77 160.214 163.79C160.154 164.43 159.924 165.04 159.534 165.55C158.244 167.23 155.684 169 155.684 169C155.684 169 146.584 175.66 129.244 173.69C119.724 172.61 114.964 168.59 113.474 167.1C113.094 166.72 112.874 166.23 112.834 165.7C112.644 163.19 112.934 157.71 112.934 157.71L160.104 157.21H160.114Z" fill="#FFC52F"/>
<path d="M119.873 149.68C118.153 150.32 116.523 151.21 115.243 152.49C113.623 154.1 112.623 156.42 113.033 158.65C113.523 161.3 115.823 163.26 118.233 164.55C123.533 167.4 129.793 168.03 135.833 167.81C142.073 167.57 148.353 166.45 153.943 163.73C157.323 162.09 161.933 158.62 159.373 154.44C158.523 153.06 157.143 152.07 155.703 151.28C149.173 147.66 141.303 147.42 133.813 147.63C129.573 147.75 125.283 148 121.223 149.23C120.773 149.37 120.323 149.52 119.873 149.68Z" fill="#FFDA40"/>
<path d="M122.653 151.02C121.223 151.56 119.863 152.29 118.793 153.36C117.443 154.7 116.613 156.63 116.953 158.48C117.363 160.68 119.283 162.31 121.283 163.38C125.693 165.75 130.913 166.28 135.943 166.09C141.133 165.89 146.373 164.96 151.033 162.7C153.843 161.33 157.693 158.45 155.553 154.98C154.843 153.83 153.693 153.01 152.503 152.35C147.063 149.34 140.513 149.14 134.273 149.32C130.743 149.42 127.163 149.63 123.783 150.65C123.403 150.76 123.033 150.89 122.663 151.03L122.653 151.02Z" fill="#FFEEA6"/>
<path d="M165.495 150.22C165.755 153.74 165.685 155.78 165.595 156.8C165.535 157.44 165.305 158.05 164.915 158.56C163.625 160.24 161.065 162.01 161.065 162.01C161.065 162.01 151.965 168.67 134.625 166.7C125.105 165.62 120.345 161.6 118.855 160.11C118.475 159.73 118.255 159.24 118.215 158.71C118.025 156.2 118.315 150.72 118.315 150.72L165.485 150.22H165.495Z" fill="#FFC52F"/>
<path d="M125.254 142.69C123.534 143.33 121.904 144.22 120.624 145.5C119.004 147.11 118.004 149.43 118.414 151.66C118.904 154.31 121.204 156.27 123.614 157.56C128.914 160.41 135.174 161.04 141.214 160.82C147.454 160.58 153.734 159.46 159.324 156.74C162.704 155.1 167.314 151.63 164.754 147.45C163.904 146.07 162.524 145.08 161.084 144.29C154.554 140.67 146.684 140.43 139.194 140.64C134.954 140.76 130.664 141.01 126.604 142.24C126.154 142.38 125.704 142.53 125.254 142.69Z" fill="#FFDA40"/>
<path d="M128.034 144.03C126.604 144.57 125.244 145.3 124.174 146.37C122.824 147.71 121.994 149.64 122.334 151.49C122.744 153.69 124.664 155.32 126.664 156.39C131.074 158.76 136.294 159.29 141.324 159.1C146.514 158.9 151.754 157.97 156.414 155.71C159.224 154.34 163.074 151.46 160.934 147.99C160.224 146.84 159.074 146.02 157.884 145.36C152.444 142.35 145.894 142.15 139.654 142.33C136.124 142.43 132.544 142.64 129.164 143.66C128.784 143.77 128.414 143.9 128.044 144.04L128.034 144.03Z" fill="#FFEEA6"/>
<path d="M160.364 141.45C160.624 144.97 160.554 147.01 160.464 148.03C160.404 148.67 160.174 149.28 159.784 149.79C158.494 151.47 155.934 153.24 155.934 153.24C155.934 153.24 146.834 159.9 129.494 157.93C119.974 156.85 115.214 152.83 113.724 151.34C113.344 150.96 113.124 150.47 113.084 149.94C112.894 147.43 113.184 141.95 113.184 141.95L160.354 141.45H160.364Z" fill="#FFC52F"/>
<path d="M120.133 133.92C118.413 134.56 116.783 135.45 115.503 136.73C113.883 138.34 112.883 140.66 113.293 142.89C113.783 145.54 116.083 147.5 118.493 148.79C123.793 151.64 130.053 152.27 136.093 152.05C142.333 151.81 148.613 150.69 154.203 147.97C157.583 146.33 162.193 142.86 159.633 138.68C158.783 137.3 157.403 136.31 155.963 135.52C149.433 131.9 141.563 131.66 134.073 131.87C129.833 131.99 125.543 132.24 121.483 133.47C121.033 133.61 120.583 133.76 120.133 133.92Z" fill="#FFDA40"/>
<path d="M122.915 135.25C121.485 135.79 120.125 136.52 119.055 137.59C117.705 138.93 116.875 140.86 117.215 142.71C117.625 144.91 119.545 146.54 121.545 147.61C125.955 149.98 131.175 150.51 136.205 150.32C141.395 150.12 146.635 149.19 151.295 146.93C154.105 145.56 157.955 142.68 155.815 139.21C155.105 138.06 153.955 137.24 152.765 136.58C147.325 133.57 140.775 133.37 134.535 133.55C131.005 133.65 127.425 133.86 124.045 134.88C123.665 134.99 123.295 135.12 122.925 135.26L122.915 135.25Z" fill="#FFEEA6"/>
<path d="M117.456 168.76C117.706 172.12 117.636 174.08 117.556 175.05C117.506 175.66 117.286 176.24 116.906 176.73C115.676 178.34 113.226 180.03 113.226 180.03C113.226 180.03 104.526 186.4 87.9457 184.51C78.8357 183.47 74.2957 179.64 72.8657 178.21C72.5057 177.85 72.2957 177.38 72.2557 176.87C72.0757 174.47 72.3557 169.23 72.3557 169.23L117.456 168.76Z" fill="#FFC52F"/>
<path d="M78.985 161.55C77.345 162.17 75.785 163.01 74.555 164.24C73.005 165.78 72.055 168 72.445 170.13C72.915 172.66 75.115 174.53 77.415 175.77C82.485 178.5 88.465 179.1 94.245 178.88C100.205 178.65 106.215 177.58 111.565 174.98C114.795 173.41 119.205 170.09 116.755 166.1C115.945 164.78 114.625 163.83 113.255 163.08C107.015 159.62 99.485 159.39 92.325 159.59C88.265 159.71 84.165 159.95 80.285 161.12C79.855 161.25 79.425 161.39 78.995 161.55H78.985Z" fill="#FFDA40"/>
<path d="M81.6455 162.83C80.2755 163.34 78.9755 164.05 77.9555 165.06C76.6655 166.34 75.8655 168.19 76.1955 169.96C76.5855 172.06 78.4255 173.62 80.3355 174.65C84.5555 176.92 89.5455 177.42 94.3455 177.24C99.3155 177.05 104.316 176.16 108.776 174C111.465 172.69 115.136 169.94 113.096 166.62C112.416 165.52 111.316 164.74 110.176 164.11C104.976 161.24 98.7055 161.04 92.7355 161.21C89.3555 161.31 85.9355 161.51 82.7055 162.48C82.3455 162.59 81.9855 162.71 81.6355 162.84L81.6455 162.83Z" fill="#FFEEA6"/>
<path d="M111.245 163.08C111.495 166.36 111.425 168.27 111.335 169.22C111.285 169.82 111.065 170.38 110.705 170.86C109.505 172.43 107.115 174.08 107.115 174.08C107.115 174.08 98.6353 180.3 82.4553 178.45C73.5753 177.44 69.1453 173.7 67.7453 172.3C67.3953 171.95 67.1853 171.49 67.1553 170.99C66.9853 168.65 67.2453 163.54 67.2453 163.54L111.245 163.08Z" fill="#FFC52F"/>
<path d="M73.715 156.05C72.115 156.65 70.595 157.48 69.395 158.67C67.885 160.17 66.955 162.34 67.335 164.42C67.795 166.89 69.945 168.72 72.185 169.92C77.125 172.58 82.965 173.17 88.595 172.96C94.415 172.74 100.275 171.69 105.485 169.15C108.635 167.62 112.935 164.38 110.545 160.48C109.755 159.19 108.465 158.27 107.125 157.53C101.035 154.16 93.695 153.93 86.705 154.13C82.745 154.24 78.745 154.48 74.965 155.62C74.545 155.75 74.125 155.89 73.705 156.04L73.715 156.05Z" fill="#FFDA40"/>
<path d="M76.3044 157.3C74.9644 157.8 73.7044 158.49 72.7044 159.48C71.4444 160.73 70.6744 162.53 70.9944 164.26C71.3744 166.31 73.1644 167.83 75.0343 168.83C79.1544 171.04 84.0144 171.53 88.7044 171.35C93.5544 171.17 98.4344 170.3 102.774 168.19C105.404 166.92 108.984 164.23 106.994 160.99C106.334 159.92 105.264 159.15 104.144 158.54C99.0744 155.74 92.9644 155.55 87.1344 155.71C83.8344 155.8 80.5044 156 77.3544 156.95C77.0044 157.06 76.6544 157.17 76.3044 157.3Z" fill="#FFEEA6"/>
<path d="M116.745 154.91C116.995 158.27 116.925 160.23 116.845 161.2C116.795 161.81 116.575 162.39 116.195 162.88C114.965 164.49 112.515 166.18 112.515 166.18C112.515 166.18 103.815 172.55 87.2347 170.66C78.1247 169.62 73.5847 165.79 72.1547 164.36C71.7947 164 71.5847 163.53 71.5447 163.02C71.3647 160.62 71.6447 155.38 71.6447 155.38L116.745 154.91Z" fill="#FFC52F"/>
<path d="M78.2643 147.71C76.6243 148.33 75.0643 149.17 73.8343 150.4C72.2843 151.94 71.3343 154.16 71.7243 156.29C72.1943 158.82 74.3943 160.69 76.6943 161.93C81.7643 164.66 87.7443 165.26 93.5243 165.04C99.4843 164.81 105.494 163.74 110.844 161.14C114.074 159.57 118.484 156.25 116.034 152.26C115.224 150.94 113.904 149.99 112.534 149.24C106.294 145.78 98.7643 145.55 91.6043 145.75C87.5443 145.87 83.4443 146.11 79.5643 147.28C79.1343 147.41 78.7043 147.55 78.2743 147.71H78.2643Z" fill="#FFDA40"/>
<path d="M80.9248 148.99C79.5548 149.5 78.2548 150.21 77.2348 151.22C75.9448 152.5 75.1448 154.35 75.4748 156.12C75.8648 158.22 77.7048 159.78 79.6148 160.81C83.8348 163.08 88.8248 163.58 93.6248 163.4C98.5948 163.21 103.595 162.32 108.055 160.16C110.745 158.85 114.415 156.1 112.375 152.78C111.695 151.68 110.595 150.9 109.455 150.27C104.255 147.4 97.9848 147.2 92.0148 147.37C88.6348 147.47 85.2148 147.67 81.9848 148.64C81.6248 148.75 81.2648 148.87 80.9148 149L80.9248 148.99Z" fill="#FFEEA6"/>
<path d="M85.5547 149.75C87.4247 153.17 89.7747 155.82 89.7747 155.82C91.8947 158.2 94.9047 159.84 98.0647 160.2C100.955 160.53 103.895 160.02 106.625 159.06C107.895 158.61 109.135 158.06 110.315 157.38C112.885 155.9 115.145 153.9 116.895 151.51C120.005 147.25 121.965 141.35 119.475 136.33C118.565 134.5 117.495 132.72 116.285 131.08L85.5647 149.76L85.5547 149.75Z" fill="#FFC52F"/>
<path d="M108.363 152.654C116.847 147.493 120.39 137.829 116.277 131.067C112.165 124.305 101.953 123.007 93.469 128.168C84.985 133.328 81.4415 142.993 85.5543 149.754C89.667 156.516 99.8787 157.814 108.363 152.654Z" fill="#FFDA40"/>
<path d="M106.496 149.587C112.847 145.723 115.497 138.484 112.415 133.416C109.332 128.348 101.685 127.372 95.3338 131.235C88.9826 135.098 86.3328 142.338 89.4152 147.405C92.4977 152.473 100.145 153.45 106.496 149.587Z" fill="#FFEEA6"/>
</g>
<defs>
<clipPath id="clip0_113_24988">
<rect width="224.92" height="208.1" fill="white" transform="translate(0.695312)"/>
</clipPath>
</defs>
</svg>
