<svg width="100%" height="100%" viewBox="0 0 74 54" fill="none" xmlns="http://www.w3.org/2000/svg">
<g clip-path="url(#clip0_45_28581)">
<path d="M19.324 37.1323L47.363 12.5722C47.7755 12.2117 48.4074 12.2711 48.7456 12.706L54.0531 19.5522C54.3616 19.9499 54.3095 20.5185 53.9304 20.853L26.1591 45.3723C25.7539 45.7291 25.1333 45.6808 24.7913 45.2608L19.2125 38.4555C18.8854 38.0578 18.9338 37.4705 19.3203 37.1323H19.324Z" fill="#8D8DFF"/>
<path fill-rule="evenodd" clip-rule="evenodd" d="M25.3386 36.4733L23.1978 33.7229L23.491 33.4946L25.6319 36.245L25.3386 36.4733Z" fill="#E7DBFF"/>
<path fill-rule="evenodd" clip-rule="evenodd" d="M21.1046 37.9784L19.9375 36.4731L20.2312 36.2454L21.3983 37.7506L21.1046 37.9784Z" fill="#E7DBFF"/>
<path fill-rule="evenodd" clip-rule="evenodd" d="M22.7362 36.6331L21.5654 35.1278L21.8588 34.8997L23.0296 36.4049L22.7362 36.6331Z" fill="#E7DBFF"/>
<path fill-rule="evenodd" clip-rule="evenodd" d="M25.7723 33.9237L24.6016 32.4221L24.8947 32.1936L26.0654 33.6952L25.7723 33.9237Z" fill="#E7DBFF"/>
<path fill-rule="evenodd" clip-rule="evenodd" d="M27.4014 32.578L26.2344 31.0765L26.5278 30.8484L27.6949 32.3499L27.4014 32.578Z" fill="#E7DBFF"/>
<path fill-rule="evenodd" clip-rule="evenodd" d="M41.045 20.6139L39.8779 19.1124L40.1714 18.8843L41.3384 20.3858L41.045 20.6139Z" fill="#E7DBFF"/>
<path fill-rule="evenodd" clip-rule="evenodd" d="M42.6758 19.2685L41.5088 17.7669L41.8022 17.5388L42.9693 19.0404L42.6758 19.2685Z" fill="#E7DBFF"/>
<path fill-rule="evenodd" clip-rule="evenodd" d="M46.2447 16.1612L45.0776 14.656L45.3714 14.4282L46.5384 15.9335L46.2447 16.1612Z" fill="#E7DBFF"/>
<path fill-rule="evenodd" clip-rule="evenodd" d="M47.876 14.8122L46.709 13.3106L47.0024 13.0825L48.1695 14.5841L47.876 14.8122Z" fill="#E7DBFF"/>
<path fill-rule="evenodd" clip-rule="evenodd" d="M30.259 32.2289L28.1182 29.4785L28.4115 29.2502L30.5523 32.0006L30.259 32.2289Z" fill="#E7DBFF"/>
<path fill-rule="evenodd" clip-rule="evenodd" d="M40.3979 23.3679L38.2607 20.6138L38.5544 20.386L40.6915 23.1401L40.3979 23.3679Z" fill="#E7DBFF"/>
<path fill-rule="evenodd" clip-rule="evenodd" d="M45.4538 18.7856L43.313 16.0352L43.6063 15.8069L45.7471 18.5573L45.4538 18.7856Z" fill="#E7DBFF"/>
<path d="M24.0563 21.8751C24.0563 21.8751 19.9122 18.7085 20.6444 15.46C20.6444 15.46 21.2948 12.2934 25.4389 11.1524C25.4389 11.1524 27.3902 10.5019 28.9327 11.8846L32.1811 15.5418C32.1811 15.5418 27.1449 18.5486 24.0563 21.8788V21.8751Z" fill="#FF8B85"/>
<path d="M34.6035 18.3813L50.6634 36.9575C50.6634 36.9575 49.1879 37.6079 48.1249 38.3141L32.1802 19.5558C32.1802 19.5558 33.5962 18.2178 34.6072 18.3813H34.6035Z" fill="#FFEDA1"/>
<path d="M28.1953 22.6929L43.9951 41.9232L42.3412 44.038L26.3667 24.9749C26.3667 24.9749 26.6826 23.3024 28.1953 22.6929Z" fill="#FFDC48"/>
<path d="M32.1806 19.556L48.1291 38.3143L43.9961 41.9232C43.9961 41.9232 33.2919 29.7955 28.1963 22.6929C28.1963 22.6929 30.6902 19.7975 32.1769 19.5522L32.1806 19.556Z" fill="#FCE170"/>
<path d="M24.0557 21.8751C24.0557 21.8751 24.5054 23.4436 26.3675 24.9711C26.3675 24.9711 27.6572 22.8786 29.1922 21.8751C29.1922 21.8751 32.9275 18.5709 34.6074 18.3777C34.6074 18.3777 34.7041 17.6603 34.2246 17.2775L32.1841 15.5381C32.1841 15.5381 27.2112 18.3293 24.0594 21.8751H24.0557Z" fill="#FFF6E2"/>
<path d="M43.9961 41.9231L49.6938 45.5284C49.6938 45.5284 50.0358 44.7479 50.8646 44.6029L48.1291 38.3142L43.9961 41.9231Z" fill="#FFF6E2"/>
<path d="M48.1245 38.3141C48.1245 38.3141 49.8825 37.0988 50.663 36.9575L51.3581 44.6288C51.3581 44.6288 51.3915 44.5991 50.8637 44.5991L48.1282 38.3104L48.1245 38.3141Z" fill="#FCF7EE"/>
<path d="M43.9962 41.9231L42.3423 44.0379L49.4487 46.0264L49.694 45.5283L43.9962 41.9231Z" fill="#FFEDD2"/>
<path d="M49.4487 46.0263C49.4487 46.0263 49.6717 44.3091 51.3591 44.6288L52.8532 46.3348C52.8532 46.3348 53.0465 47.7545 51.4483 47.9961L49.4487 46.0225V46.0263Z" fill="#706E7D"/>
</g>
<defs>
<clipPath id="clip0_45_28581">
<rect width="35.2569" height="37" fill="white" transform="translate(19 11)"/>
</clipPath>
</defs>
</svg>
