<svg width="100%" height="100%" viewBox="0 0 74 54" fill="none" xmlns="http://www.w3.org/2000/svg">
<g clip-path="url(#clip0_45_28582)">
<path d="M26.7925 31.1106C26.7925 31.1106 34.2765 34.142 43.7326 32.0736L44.4683 15.4724L37.5544 13.5581L28.0443 14.7098L26.4767 20.2448L26.207 28.4491L26.7886 31.1106H26.7925Z" fill="#FFE05C"/>
<path d="M41.4369 38.9027L40.7397 43.0279L41.6102 46.8181C41.6102 46.8181 42.3845 47.08 43.6132 45.6433L46.1245 44.0525L45.9165 31.8501L42.2766 33.1674C42.2766 33.1674 40.9131 36.8882 41.4331 38.8988L41.4369 38.9027Z" fill="#7373F9"/>
<path d="M32.9775 13.1345C33.2202 11.6438 34.0984 9.89898 35.2886 8.95145C36.7484 7.79206 38.9247 7.70732 40.5501 8.61634C42.1756 9.52536 43.2233 11.328 43.3696 13.1884L41.1857 12.8302C40.9353 12.1677 40.6349 11.509 40.1842 10.9659C39.7336 10.4228 39.1057 9.99143 38.4008 9.89898C37.5997 9.79113 36.7754 10.1416 36.2053 10.7194C35.6353 11.2972 35.2963 12.0714 35.1384 12.8648C34.5298 12.9534 33.5553 13.2808 32.9775 13.1383V13.1345Z" fill="#AED5FF"/>
<path d="M48.2461 32.4434V41.5952C48.2461 41.5952 50.353 41.8417 51.0155 40.6631C51.0155 40.6631 51.9554 38.8989 52.0362 36.7882C52.1171 34.6812 52.1441 32.1506 52.1441 32.1506L48.2461 32.4395V32.4434Z" fill="#FFE05C"/>
<path d="M48.5742 32.6553C48.5742 32.6553 49.5834 33.3139 50.5656 33.0405C51.6479 32.7362 52.1448 32.1545 52.1448 32.1545C52.1448 32.1545 52.2411 32.2085 51.8752 31.7655C51.5093 31.3226 50.45 30.8604 50.45 30.8604C50.45 30.8604 48.6821 31.2956 48.5742 32.6553Z" fill="#FFE783"/>
<path d="M23.191 38.1208C23.191 38.1208 22.8982 42.6968 23.6262 43.3785C24.3542 44.0603 31.5724 45.2967 31.5724 45.2967C31.5724 45.2967 39.5186 47.1841 41.6063 46.822C41.6063 46.822 41.0632 41.2369 41.433 38.9028L23.1871 38.1208H23.191Z" fill="#8D8DFF"/>
<path d="M25.6982 31.022C25.6982 31.022 22.6283 31.4611 22.2393 33.0827C22.2393 33.0827 21.2841 36.8998 23.1907 38.1208C23.1907 38.1208 30.8788 39.9311 34.7499 40.1276C38.6247 40.324 40.4697 40.817 41.1592 39.4997C41.1592 39.4997 41.5713 38.9489 41.71 37.5546C41.8487 36.1602 41.9257 34.6465 42.4187 34.0764L44.0172 33.1828L44.8954 32.7938C44.8954 32.7938 45.2151 32.1043 43.7283 32.0774L26.7882 31.1144C26.7882 31.1144 26.5494 31.0566 25.6943 31.0258L25.6982 31.022Z" fill="#ABABFF"/>
<path d="M35.897 35.5211C35.8316 35.5365 35.7699 35.5557 35.716 35.5904C35.6004 35.6674 35.5311 35.7984 35.4733 35.9255C35.0689 36.8345 34.9302 37.8398 34.9071 38.8336C34.884 39.8274 34.9726 40.8211 34.9996 41.8149C35.0111 42.254 35.015 42.7008 35.1305 43.1245C35.3925 44.0797 36.0935 44.3416 37.0179 44.2453C37.2567 44.2222 37.5032 44.1645 37.6881 44.0104C37.9346 43.8024 38.0155 43.4596 38.0656 43.136C38.4045 40.9444 37.9462 38.6449 38.6125 36.5302C38.6857 36.303 38.7589 36.0257 38.5971 35.8485C38.5201 35.7637 38.4007 35.7291 38.289 35.6983C37.5687 35.5057 36.8138 35.4363 36.0704 35.4941C36.0126 35.498 35.951 35.5057 35.8932 35.5172L35.897 35.5211Z" fill="#FFE05C"/>
<path d="M36.4634 41.0366C36.4634 41.0366 35.4389 41.0366 35.4543 41.9687C35.4697 42.9008 35.7547 43.3399 36.3286 43.4593C36.9025 43.5787 37.6382 43.2629 37.6228 42.5542C37.6074 41.8454 37.411 41.0481 36.4634 41.0327V41.0366Z" fill="#AED5FF"/>
<path d="M24.1682 34.4348C24.1682 34.4348 24.1374 34.4502 24.1258 34.4579C23.9987 34.5349 23.9063 34.662 23.8293 34.7891C23.4903 35.3592 23.394 36.0371 23.3555 36.6996C23.2977 37.6972 23.3593 38.6948 23.3324 39.6924C23.3208 40.1277 23.2939 40.5706 23.3825 40.9982C23.5673 41.8725 24.1143 42.1614 24.9617 42.1306C25.3006 42.1191 25.6743 42.042 25.8746 41.7685C26.0286 41.5528 26.0402 41.2717 26.044 41.0059C26.0594 39.5191 25.9786 38.0323 26.0903 36.5494C26.1095 36.2798 26.1403 36.0024 26.252 35.7559C26.3945 35.4439 26.6719 35.1127 26.5101 34.8122C26.4254 34.6505 26.2366 34.5734 26.0594 34.5195C25.5934 34.377 25.1042 34.3154 24.615 34.3385C24.4571 34.3462 24.2992 34.3616 24.1605 34.4348H24.1682Z" fill="#FFE05C"/>
<path d="M24.3583 39.3958C24.3583 39.3958 23.6958 39.546 23.7266 40.2701C23.7574 40.9942 24.0271 41.5489 24.5856 41.5643C25.1441 41.5797 25.5639 41.2061 25.5639 40.6553C25.5639 40.1045 25.3097 39.1723 24.3583 39.3958Z" fill="#AED5FF"/>
<path d="M49.0328 31.7424C49.3294 31.3033 50.1922 30.8796 50.7045 31.0221C50.8817 27.0085 50.7468 23.0836 50.223 19.1009C50.0728 17.9569 49.8455 16.7782 49.1599 15.8461C48.3279 14.7137 46.9529 14.1321 45.6124 13.7122C41.1174 12.2986 36.2911 12.1368 31.6305 12.8225C30.0975 13.0497 28.4682 13.4233 27.4167 14.5673C26.55 15.511 26.2265 16.8206 25.9953 18.0801C25.198 22.4288 25.2019 26.6311 25.6988 31.0221C25.718 31.0221 26.0339 31.0606 26.0531 31.0606C26.4653 31.0799 26.3805 31.0876 26.7927 31.1107C26.3497 26.7235 26.4036 21.878 27.3589 17.5756C27.5245 16.8245 28.083 16.162 28.5914 15.7614C29.2501 15.2414 30.1437 14.8408 30.9487 14.602C34.0494 13.6699 37.204 13.901 40.3394 14.7098C41.5758 15.0295 42.9008 15.588 43.4285 16.7474C43.6943 17.3252 43.7212 17.9838 43.7405 18.6194C43.8907 23.1876 43.8791 27.5054 43.7328 32.0698C44.4338 32.1083 44.5532 32.3278 44.7612 32.6668C44.9692 33.0058 44.9884 33.4217 45.0039 33.8185L45.0924 36.3684C45.1425 37.8744 45.1964 39.3843 45.1541 40.8903C45.104 42.6776 44.8151 44.6689 43.4131 45.7782C43.3668 45.8168 43.3283 45.8476 43.2898 45.8861C42.8507 46.225 42.1844 46.6757 41.6143 46.8221C41.6143 46.8221 43.1589 46.9993 44.7612 46.7566L45.3043 46.6834C46.3019 46.4484 46.7526 45.9708 47.5345 45.3122C48.8171 44.226 49.7107 42.743 50.354 41.1908C50.0073 41.6607 49.2138 41.5297 48.8364 41.0868C48.4589 40.6438 48.3857 40.0198 48.3472 39.4382C48.2085 37.3737 48.2856 35.2976 48.5706 33.2484C48.6438 32.7246 48.7401 32.1815 49.0367 31.7385L49.0328 31.7424Z" fill="#8D8DFF"/>
</g>
<defs>
<clipPath id="clip0_45_28582">
<rect width="30.1555" height="38.8875" fill="white" transform="translate(22 8)"/>
</clipPath>
</defs>
</svg>
