<svg width="100%" height="100%" viewBox="0 0 74 54" fill="none" xmlns="http://www.w3.org/2000/svg">
<g clip-path="url(#clip0_45_28583)">
<path d="M52.5091 29.3176C52.5091 29.3176 51.6849 31.49 52.2126 31.4708C52.7441 31.4515 53.6377 29.6373 53.6377 29.6373" fill="#D4D3DD"/>
<path d="M52.837 29.6336L52.213 31.4708L49.8018 29.0943L50.1292 27.908L52.837 29.6336Z" fill="#67CFFD"/>
<path d="M26.2525 40.3762C26.2525 40.3762 25.6593 42.1942 28.2785 44.5862C30.8977 46.9781 33.8636 46.0229 33.8636 46.0229L34.5993 45.1177L27.2693 39.7175L26.2525 40.3762Z" fill="#D4D3DD"/>
<path d="M28.6825 33.4351C28.6825 33.4351 26.46 35.4958 26.0402 37.2676C25.6203 39.0355 25.7359 40.7765 28.825 43.65C31.9141 46.5195 35.0418 46.2653 36.7866 45.5604C36.7866 45.5604 38.9783 44.4049 39.895 42.4367L28.6825 33.4389V33.4351Z" fill="#94DEFF"/>
<path d="M46.6242 27.569C46.6242 27.569 42.3217 27.2801 40.6116 30.192C38.9014 33.104 40.7502 37.0366 41.6746 38.1382C42.5991 39.2398 45.588 44.1085 49.6902 41.6703C49.6902 41.6703 51.6584 40.6573 52.4789 38.3385L46.6203 27.5728L46.6242 27.569Z" fill="#94DEFF"/>
<path d="M45.7302 27.5998C45.6878 27.6075 45.6416 27.6152 45.5992 27.6229C44.2819 27.8771 43.577 29.2714 43.4576 30.5117C43.3613 31.5401 43.6001 32.5724 43.916 33.5584C44.3666 34.9643 44.9906 36.3356 45.9305 37.4757C46.8703 38.6158 48.1452 39.5171 49.5935 39.8176C50.3947 39.9871 51.3268 39.9293 51.8969 39.34C52.205 39.0241 52.3629 38.5927 52.4823 38.169C53.4414 34.7525 52.0894 30.8121 49.2353 28.6975C48.2531 27.9695 46.9704 27.4149 45.7263 27.6036L45.7302 27.5998Z" fill="#5CD1FF"/>
<path d="M46.5126 29.5566C45.9156 30.1343 45.5265 30.9432 45.5073 31.7867C45.4842 32.8421 45.9001 33.8551 46.4201 34.7757C46.8785 35.5846 47.4332 36.3549 48.1804 36.9096C48.9276 37.4643 49.8867 37.7724 50.7996 37.5914C52.3211 37.2871 53.3148 35.6385 53.2532 34.0863C53.1877 32.534 52.2825 31.1281 51.1617 30.0496C50.6032 29.5142 49.9715 29.0289 49.2281 28.8132C48.2151 28.5166 47.2213 28.8748 46.5164 29.5604L46.5126 29.5566Z" fill="#D4D3DD"/>
<path d="M33.9215 32.5763C33.9215 32.5763 33.9639 28.3432 38.1893 22.5154C38.1893 22.5154 44.0902 15.2895 48.6083 15.771L49.4288 13.6371C49.4288 13.6371 40.4195 13.0092 35.3621 19.5033C35.3621 19.5033 30.1892 27.9888 31.6836 32.2026L33.9254 32.5763H33.9215Z" fill="#C5F0FF"/>
<path d="M50.6992 13.6254C52.1089 14.754 53.8075 15.794 55.044 17.1074C56.0955 18.2283 56.1263 20.108 56.0185 21.5331C55.7065 25.5698 53.6881 30.6041 53.6881 30.6041L49.6592 27.5457L51.1151 20.2929L50.703 13.6216L50.6992 13.6254Z" fill="#5CD1FF"/>
<path d="M31.6788 32.2103H31.7097C31.8291 29.0326 32.6302 25.8703 34.1671 23.0932C35.704 20.3161 37.9881 17.9318 40.7729 16.4065C42.8875 15.2471 45.4412 14.5885 47.7176 15.3858C48.2993 15.5861 48.8578 15.8865 49.2738 16.341C49.8823 17.0035 50.1288 17.9241 50.2367 18.8177C50.4601 20.6666 50.1751 22.5694 49.4201 24.2718C49.0349 25.1385 48.5265 25.9782 48.4379 26.918C48.3493 27.8617 48.8693 28.9556 49.8014 29.0981C49.3662 26.814 50.7952 24.7225 51.5039 22.6541C52.2627 20.4509 52.5015 17.9588 51.8737 15.6939C51.1842 13.1903 49.293 11.9885 46.747 12.0001C44.1239 12.0116 41.9323 13.0516 39.7522 14.392C37.6645 15.6747 35.8195 17.4195 34.3366 19.357C33.7087 20.1774 33.1387 21.044 32.6418 21.9531C30.8815 25.15 29.9764 28.8092 30.0457 32.4607L31.6827 32.2103H31.6788Z" fill="#94DEFF"/>
<path d="M47.6946 28.8477C47.6946 28.8477 46.3542 29.2714 46.7008 31.9677C47.0513 34.66 49.6205 37.8146 52.0163 36.9904C52.0163 36.9904 55.063 34.9836 51.9084 30.866C51.9084 30.866 49.8362 27.958 47.6946 28.8477Z" fill="#D9F1FC"/>
<path d="M29.9738 32.4569C29.9738 32.4569 25.9795 33.7434 29.9546 39.186C31.8573 41.7936 35.1391 43.9545 38.5017 43.1726C41.1825 42.5486 40.7896 39.4441 39.6919 37.626C38.9677 36.4204 37.9932 35.3727 36.9841 34.4021C36.9841 34.4021 33.868 31.3168 29.9738 32.4569Z" fill="#706E7D"/>
<path d="M32.6229 36.0044C32.4996 36.1392 32.3956 36.3125 32.3455 36.5513C32.2454 37.0251 32.3533 37.5258 32.5844 37.9534C32.8155 38.3809 33.1583 38.7353 33.5396 39.0357C34.1636 39.5288 34.9571 39.8947 35.739 39.7483C35.9007 39.7175 36.0625 39.6636 36.1973 39.5673C36.2821 39.5057 36.3552 39.4248 36.413 39.34C35.8853 37.5798 34.1328 36.0776 32.6229 36.0082V36.0044Z" fill="#474752"/>
<path d="M36.4874 38.0303C36.341 37.6759 36.0983 37.3678 35.8441 37.0789C35.4743 36.6591 35.066 36.2623 34.5769 35.9889C33.976 35.6537 33.1556 35.5074 32.6818 35.9272C32.6587 35.9465 32.6433 35.9773 32.624 36.0004C34.1339 36.0697 35.8865 37.5719 36.4142 39.3322C36.4565 39.2744 36.4951 39.2128 36.522 39.1512C36.6761 38.7968 36.6337 38.3847 36.4874 38.0303Z" fill="#595864"/>
<path d="M32.2606 29.3254L39.0783 27.7C39.0783 27.7 39.6445 27.4689 39.8833 26.6484C39.8525 26.479 39.814 26.2979 39.7562 26.1053L28.3665 14.7195C28.3665 14.7195 26.9837 13.1326 24.8421 13.822C24.8421 13.822 18.3519 15.5284 18.3326 15.5322C18.1015 15.5938 17.8935 15.6478 17.6971 15.798C17.4698 15.9713 17.3504 16.2255 17.2695 16.4952L29.1253 28.6668C29.1253 28.6668 30.0613 29.934 32.2606 29.3293V29.3254Z" fill="#E8F2F7"/>
<path d="M39.0788 27.6999L32.2611 29.3253C30.0579 29.93 29.1258 28.6628 29.1258 28.6628L17.27 16.4912C17.2084 16.6877 17.166 16.8918 17.1236 17.0844C17.0466 17.4542 16.8579 18.1398 17.166 18.4479L28.8022 30.0841C28.8022 30.0841 29.5264 31.2782 31.537 30.9662L39.4023 28.7784C39.4023 28.7784 40.138 28.139 39.8838 26.6483C39.645 27.4649 39.0788 27.6999 39.0788 27.6999Z" fill="#C4C3D1"/>
<path d="M19.123 16.9149L22.3932 20.1658L30.0351 18.1591L26.8073 14.8889L19.123 16.9149Z" fill="#BCE8FF"/>
<path d="M23.5181 21.0288L24.8623 22.4924L28.3906 21.568L27.0078 20.0234L23.5181 21.0288Z" fill="#CFCFE2"/>
<path d="M28.3901 20.4663L29.7344 21.8491L33.124 20.9863L31.7412 19.5842L28.3901 20.4663Z" fill="#86D8FF"/>
<path d="M26.1406 23.9328L29.3029 27.2338L36.9603 25.0845L33.798 21.8413L26.1406 23.9328Z" fill="#CCCCDB"/>
<path d="M35.4615 29.0363C35.2689 29.0671 35.084 29.1288 34.9145 29.2174C34.8452 29.252 34.7759 29.2944 34.7219 29.356C34.6873 29.3945 34.6603 29.4485 34.6834 29.4947C34.7027 29.5371 34.7566 29.5486 34.8028 29.5563C35.0031 29.5833 35.2034 29.5371 35.3999 29.487C35.5539 29.4485 35.7118 29.41 35.8467 29.3252C35.9198 29.279 35.9969 29.1943 35.9584 29.1134C35.8929 28.9631 35.5924 29.0171 35.4615 29.0363Z" fill="#686867"/>
</g>
<defs>
<clipPath id="clip0_45_28583">
<rect width="39.0608" height="34.2076" fill="white" transform="translate(17 12)"/>
</clipPath>
</defs>
</svg>
