<svg width="100%" height="100%" viewBox="0 0 74 54" fill="none" xmlns="http://www.w3.org/2000/svg">
<g clip-path="url(#clip0_45_28584)">
<path d="M55.227 34.4505C55.227 34.4505 55.8048 36.2647 55.5891 37.8594C55.3734 39.454 53.5053 41.8305 51.1711 42.9552C48.8369 44.0838 46.2216 45.405 40.7597 45.9904C40.7597 45.9904 30.7798 46.6144 25.8765 44.0068C25.8765 44.0068 20.9424 41.6803 20.0256 37.8324C20.0256 37.8324 19.6867 34.8087 20.1605 33.7148L55.227 34.4467V34.4505Z" fill="#FFBE92"/>
<path d="M55.2268 31.9585V34.4506C55.2268 34.4506 54.7607 36.7116 50.6354 39.0419C46.5102 41.3722 38.6603 41.7381 38.6603 41.7381C38.6603 41.7381 31.4729 41.9038 27.3322 40.1397C27.3322 40.1397 20.3374 37.6784 20.1641 33.7188V32.4169L55.2306 31.9585H55.2268Z" fill="#B76C4F"/>
<path d="M20.9238 32.5324C20.9238 32.5324 22.3182 35.5368 27.4795 36.673C27.4795 36.673 30.9461 37.5166 33.7387 37.5474C33.7387 37.5474 26.3471 31.8776 20.9238 32.5324Z" fill="#CC816D"/>
<path d="M43.8301 37.2394C43.8301 37.2394 52.901 35.1671 54.5804 32.4824L47.782 33.5532L43.8339 37.2394H43.8301Z" fill="#CC816D"/>
<path d="M17.0406 31.1343C17.0406 31.1343 17.0139 32.2822 17.9614 32.417C18.9089 32.5479 20.0683 32.417 20.0683 32.417C20.0683 32.417 21.2084 32.4902 22.1367 32.8792C23.065 33.2721 32.421 36.8735 32.421 36.8735C32.421 36.8735 34.6396 37.9173 35.4947 38.6761C36.3498 39.4349 37.1086 39.9087 37.1086 39.9087C37.1086 39.9087 38.3411 41.0103 40.0475 40.2322C40.0475 40.2322 40.8063 39.6236 41.6228 38.8302C42.4394 38.0329 44.3152 36.9505 44.3152 36.9505L49.2108 34.2003L17.0406 31.1343Z" fill="#FFC761"/>
<path d="M19.4706 29.29C19.4706 29.29 17.0405 30.7487 17.0405 31.1339C17.4641 31.6624 19.5339 31.4426 21.3646 31.5236L19.4706 29.29Z" fill="#FFD78D"/>
<path d="M24.4629 32.8792L30.4909 35.5253L28.0797 32.8792H24.4629Z" fill="#FFD78D"/>
<path d="M33.7388 36.5228L37.0706 38.7992C37.0706 38.7992 37.8871 39.6967 38.9464 39.5966C40.0056 39.4964 40.5988 38.5373 40.5988 38.5373C40.5988 38.5373 41.9276 37.2393 43.2218 36.6731C44.516 36.1069 47.7823 34.2387 47.7823 34.2387L41.9854 31.9585L33.7388 36.5228Z" fill="#FFD78D"/>
<path d="M28.0796 32.8791C28.0796 32.8791 24.7825 33.3644 22.3636 32.3321C19.9447 31.2999 18.9547 29.8978 18.9547 29.8978C18.9547 29.8978 18.7005 29.0658 18.9702 28.2493L28.0757 32.8791H28.0796Z" fill="#FF8D73"/>
<path d="M28.0795 32.8792C28.0795 32.8792 27.9215 33.3799 28.0795 33.6495C28.2374 33.9191 30.352 36.442 35.0088 36.6423C39.6656 36.8465 42.9011 36.0222 44.4842 34.5932C44.4842 34.5932 44.9618 34.2465 44.9579 33.3722L28.0795 32.8792Z" fill="#FF8D73"/>
<path d="M44.9629 33.3761C44.9629 33.3761 45.117 34.1465 45.4983 34.2813C45.8796 34.4161 50.0896 34.0771 50.0896 34.0771C50.0896 34.0771 54.7965 33.222 55.6285 31.4002C55.6285 31.4002 56.1831 29.6283 55.5899 27.2749L44.9629 33.3761Z" fill="#FF8D73"/>
<path d="M19.7606 26.3081C19.7606 26.3081 18.297 27.6177 19.3215 29.1122C20.3461 30.6067 24.0284 31.2962 24.0284 31.2962L19.7606 26.3081Z" fill="#FF9D8D"/>
<path d="M28.0796 32.8792C28.0796 32.8792 30.3521 34.4584 32.7364 34.7087C35.1206 34.9553 41.4337 35.2981 43.2171 33.6187L28.0796 32.8792Z" fill="#FF9D8D"/>
<path d="M44.9629 33.3761C44.9629 33.3761 51.1257 32.5056 53.198 31.4002C55.2702 30.2947 55.5591 28.2533 55.5938 27.2749L44.9667 33.3761H44.9629Z" fill="#FF9D8D"/>
<path d="M20.1603 23.2922C20.1603 23.2922 19.7135 24.7944 19.7597 26.3081C19.8059 27.8257 22.2402 32.7406 33.1254 33.7497C33.1254 33.7497 45.9864 34.8514 50.9013 31.2692C50.9013 31.2692 54.2986 29.663 55.585 27.2711C55.585 27.2711 55.8316 23.0303 55.0651 21.8901L20.1603 23.2922Z" fill="#FFBE92"/>
<path d="M30.5725 13.755C30.5725 13.755 20.5116 16.5553 20.1611 23.292C20.1611 23.292 23.05 29.4472 36.2577 29.2584C49.4654 29.0697 55.0698 21.8938 55.0698 21.8938C55.0698 21.8938 54.1068 16.7325 45.0975 14.1941C45.0975 14.1941 40.46 11.833 30.5725 13.755Z" fill="#FFC299"/>
<path d="M38.3466 24.0006C38.0963 23.7772 37.9191 23.5153 37.8343 23.2379C37.7573 22.9837 38 22.3905 38.5084 22.7141C38.7549 22.872 38.8088 23.1339 38.7356 23.3612C38.6625 23.5885 38.4891 23.7926 38.3428 24.0006H38.3466Z" fill="#FFF5F0"/>
<path d="M28.6948 22.3791C28.7064 22.0478 28.795 21.7435 28.949 21.5009C29.0916 21.2775 29.7001 21.0772 29.7772 21.6704C29.8157 21.9592 29.6501 22.1672 29.4305 22.2597C29.211 22.3521 28.9452 22.356 28.6948 22.3791Z" fill="#FFF5F0"/>
<path d="M34.7886 17.5297C34.8618 17.2524 34.9927 17.0136 35.1699 16.8364C35.3317 16.6746 35.8863 16.6207 35.8401 17.1369C35.817 17.3872 35.636 17.5336 35.4357 17.5683C35.2354 17.6029 35.0081 17.5567 34.7924 17.5297H34.7886Z" fill="#FFF5F0"/>
<path d="M47.3484 22.1133C47.0248 22.0247 46.7514 21.8668 46.5511 21.6588C46.37 21.4662 46.3238 20.8268 46.9247 20.8884C47.2174 20.9193 47.3792 21.1311 47.4139 21.3661C47.4485 21.601 47.3831 21.8591 47.3445 22.1133H47.3484Z" fill="#FFF5F0"/>
<path d="M50.7305 17.8377C50.4763 17.9687 50.1989 18.038 49.9139 18.0457C49.6558 18.0534 49.1012 17.7722 49.4902 17.4834C49.6789 17.3447 49.9409 17.3563 50.1527 17.4487C50.3646 17.5411 50.5417 17.6991 50.7266 17.8377H50.7305Z" fill="#FFF5F0"/>
<path d="M24.5767 18.5196C24.7384 18.2885 24.9541 18.092 25.2006 17.9534C25.4279 17.8263 26.0442 17.8147 25.84 18.2499C25.7399 18.4618 25.5011 18.5735 25.27 18.5928C25.0389 18.612 24.8078 18.5542 24.5805 18.5157L24.5767 18.5196Z" fill="#FFF5F0"/>
<path d="M29.8384 18.6353C29.9539 18.3772 30.1311 18.1461 30.3468 17.9651C30.5471 17.7994 31.1518 17.6723 31.0286 18.1422C30.9708 18.3695 30.7551 18.5236 30.5317 18.5813C30.3083 18.6391 30.0695 18.6276 29.8384 18.6353Z" fill="#FFF5F0"/>
<path d="M28.9175 16.0814C29.1332 15.9427 29.3874 15.8387 29.657 15.7809C29.9074 15.7231 30.5083 15.7963 30.204 16.0659C30.0538 16.1969 29.7957 16.2393 29.5684 16.2239C29.3412 16.2085 29.1293 16.1391 28.9175 16.0814Z" fill="#FFF5F0"/>
<path d="M33.4507 15.8504C33.6664 15.7117 33.9206 15.6077 34.1902 15.55C34.4406 15.4922 35.0415 15.5654 34.7372 15.835C34.587 15.966 34.3289 16.0083 34.1016 15.9929C33.8744 15.9775 33.6625 15.9082 33.4507 15.8504Z" fill="#FFF5F0"/>
<path d="M35.6729 14.5908C35.9309 14.533 36.2082 14.5253 36.4856 14.5677C36.7398 14.6062 37.2598 14.9297 36.8592 15.0915C36.6666 15.1724 36.4085 15.1146 36.2082 15.0029C36.008 14.8912 35.8462 14.7371 35.6729 14.5908Z" fill="#FFF5F0"/>
<path d="M46.4476 16.2934C46.2088 16.4474 45.9392 16.5476 45.658 16.5822C45.3999 16.6131 44.8221 16.3897 45.1804 16.0661C45.3537 15.9082 45.6156 15.8966 45.839 15.966C46.0586 16.0353 46.2511 16.174 46.4514 16.2972L46.4476 16.2934Z" fill="#FFF5F0"/>
<path d="M41.8405 16.2624C41.6017 16.4126 41.3321 16.5127 41.0509 16.5474C40.7928 16.5782 40.215 16.3586 40.5694 16.0351C40.7427 15.8772 41.0047 15.8656 41.2281 15.935C41.4515 16.0043 41.6402 16.143 41.8405 16.2624Z" fill="#FFF5F0"/>
<path d="M40.6541 20.6803C40.3344 20.6072 40.0686 20.4723 39.8799 20.2836C39.7065 20.1103 39.6834 19.5094 40.2804 19.5479C40.5693 19.5672 40.7234 19.7598 40.7504 19.9793C40.7773 20.1989 40.7041 20.4454 40.6541 20.6803Z" fill="#FFF5F0"/>
<path d="M40.6351 14.8219C40.4733 15.003 40.2653 15.1532 40.0342 15.2687C39.8223 15.3727 39.26 15.4035 39.4757 15.0684C39.5797 14.9067 39.8031 14.8142 40.0149 14.7911C40.2268 14.768 40.4309 14.8027 40.6351 14.8219Z" fill="#FFF5F0"/>
<path d="M39.0435 17.988C38.7123 17.9226 38.4388 17.7916 38.2462 17.6067C38.069 17.4372 38.0613 16.8325 38.6815 16.8556C38.9819 16.8672 39.1398 17.0598 39.1629 17.2793C39.186 17.4989 39.1013 17.7492 39.0474 17.988H39.0435Z" fill="#FFF5F0"/>
<path d="M34.2219 20.5765C34.1294 20.2953 34.1102 20.0102 34.168 19.7522C34.218 19.5172 34.661 19.132 34.9036 19.602C35.0231 19.8292 34.946 20.0642 34.7958 20.2182C34.6456 20.3723 34.426 20.4686 34.2219 20.5765Z" fill="#FFF5F0"/>
<path d="M45.029 19.1398C44.7055 19.1013 44.4243 18.9973 44.2163 18.8316C44.0237 18.6776 43.939 18.0844 44.536 18.0574C44.8249 18.0459 44.9982 18.2192 45.0483 18.4311C45.0984 18.6429 45.0483 18.8971 45.029 19.1398Z" fill="#FFF5F0"/>
</g>
<defs>
<clipPath id="clip0_45_28584">
<rect width="38.8644" height="33.0598" fill="white" transform="translate(17 13)"/>
</clipPath>
</defs>
</svg>
