<svg width="100%" height="100%" viewBox="0 0 74 54" fill="none" xmlns="http://www.w3.org/2000/svg">
<g clip-path="url(#clip0_45_28585)">
<path d="M32.6048 15.2096C32.6048 15.2096 32.47 14.2505 33.2096 14.185C33.9491 14.1195 40.2005 14.4431 40.2005 14.4431C40.2005 14.4431 41.9261 14.7281 41.9492 15.0863L39.5573 18.214L33.0478 17.8904L32.6048 15.2096Z" fill="#757482"/>
<path d="M32.8084 14.3659C32.8084 14.3659 32.9239 16.1262 34.4146 16.3534C35.9052 16.5807 37.754 16.4882 37.754 16.4882C37.754 16.4882 38.8595 16.442 39.2447 15.9683C39.6299 15.4945 39.9727 15.0361 40.77 14.5546C40.77 14.5546 41.7522 14.6278 41.9525 15.0823L39.5605 18.21L33.051 17.8864C33.051 17.8864 32.0611 15.1286 32.8122 14.3621L32.8084 14.3659Z" fill="#59586B"/>
<path d="M27.6588 14.0001C27.6588 14.0001 23.4026 13.7536 20.2094 21.696L17.5902 29.9619C17.5902 29.9619 15.1328 38.8017 20.2094 41.2591C20.2094 41.2591 24.0574 42.6496 27.6588 39.6221L29.7888 37.5768C29.7888 37.5768 31.4258 35.285 33.5558 35.285H37.7312C37.7312 35.285 39.6147 35.285 41.2517 37.415C42.8887 39.5451 43.79 40.8547 43.79 40.8547C43.79 40.8547 46.1627 44.537 49.8488 44.0478C53.535 43.5586 54.5133 38.7285 54.679 36.1093C54.8446 33.4901 54.8523 25.7942 53.1267 20.968C53.1267 20.968 50.831 15.483 46.6557 15.2365L43.1005 14.9207C43.1005 14.9207 41.3172 14.9207 40.2579 16.0454L39.3412 17.0199C39.2333 17.1316 39.1101 17.224 38.9676 17.2857C38.5362 17.4783 37.5116 17.8288 36.0633 17.6323C36.0633 17.6323 35.0426 17.6285 34.1721 17.3704C33.5481 17.1855 33.0667 16.6809 32.8741 16.0608L32.6121 15.2173C32.6121 15.2173 32.3579 14.262 31.3295 14.0001H27.6588Z" fill="#DFE7EA"/>
<path d="M27.8737 18.4643C27.5078 18.5336 27.1265 18.6723 26.9185 18.9804C26.7528 19.227 26.722 19.539 26.722 19.8355C26.722 20.1321 26.7374 20.4364 26.6488 20.7176C26.3908 21.538 25.4779 21.3223 24.827 21.3454C24.4225 21.3608 23.9988 21.4571 23.7176 21.746C23.4249 22.0503 23.3556 22.501 23.3325 22.9247C23.3055 23.3792 23.3209 23.8337 23.371 24.2843C23.4095 24.6464 23.5058 25.047 23.8178 25.2319C24.2376 25.4784 24.8077 25.1895 25.2468 25.4014C25.6666 25.6016 25.7629 26.1563 25.736 26.6185C25.709 27.0807 25.6204 27.5815 25.8477 27.9859C26.1096 28.4481 26.6989 28.6137 27.2343 28.6407C27.6465 28.6638 28.0624 28.6291 28.4669 28.5406C28.7249 28.4866 28.9907 28.398 29.1679 28.2016C29.6455 27.6623 29.1409 26.7225 29.5415 26.1255C29.8304 25.6941 30.439 25.6556 30.9551 25.6941C31.4713 25.7326 32.049 25.7942 32.4496 25.4668C32.8849 25.1086 32.9041 24.4654 32.8887 23.903L32.8618 22.9516C32.854 22.6473 32.8348 22.3122 32.6229 22.0927C32.1261 21.565 31.0899 22.1428 30.5622 21.642C30.308 21.4032 30.2888 21.0142 30.2888 20.6637L30.2811 19.4927C30.2811 19.2077 30.2657 18.8919 30.0615 18.6916C29.9267 18.5568 29.7303 18.5028 29.5415 18.4682C29.0023 18.3642 28.4438 18.3603 27.9045 18.4605L27.8699 18.4682L27.8737 18.4643Z" fill="#757482"/>
<path d="M39.5841 22.5125C39.5341 22.5317 39.4801 22.5549 39.4301 22.5818C38.7791 22.9131 38.3747 23.6757 38.4594 24.3999C38.6327 25.9175 40.7936 26.7148 41.7373 25.3782C42.0339 24.9545 42.1186 24.4037 42.0108 23.8953C41.9299 23.514 41.745 23.148 41.4638 22.8746C40.9785 22.4046 40.2081 22.266 39.5803 22.5125H39.5841Z" fill="#FFE36E"/>
<path d="M42.7199 19.8047C42.6698 19.824 42.6159 19.8471 42.5658 19.8741C41.9149 20.2053 41.5104 20.968 41.5952 21.6921C41.7685 23.2097 43.9293 24.007 44.873 22.6704C45.1696 22.2468 45.2543 21.6959 45.1465 21.1875C45.0656 20.8062 44.8807 20.4403 44.5995 20.1668C44.1142 19.6969 43.3439 19.5582 42.716 19.8047H42.7199Z" fill="#FF9D8A"/>
<path d="M45.5384 23.0055C45.4999 23.0209 45.4614 23.0363 45.4229 23.0556C44.7642 23.3753 44.3444 24.1226 44.4137 24.8505C44.5678 26.5299 47.0868 27.2579 47.8533 25.6016C48.019 25.2396 48.0536 24.8236 47.9805 24.4345C47.9073 24.0455 47.7301 23.6719 47.4489 23.3946C46.9636 22.9054 46.1778 22.7552 45.5384 23.0017V23.0055Z" fill="#86D8FF"/>
<path d="M42.3449 25.7442C42.2948 25.7634 42.2409 25.7865 42.1908 25.8135C41.5399 26.1448 41.1354 26.9074 41.2202 27.6315C41.3935 29.1491 43.5543 29.9465 44.498 28.6099C44.7946 28.1862 44.8793 27.6354 44.7715 27.127C44.6906 26.7456 44.5057 26.3797 44.2245 26.1062C43.7392 25.6363 42.9689 25.4977 42.341 25.7442H42.3449Z" fill="#9EF57A"/>
</g>
<defs>
<clipPath id="clip0_45_28585">
<rect width="37.7435" height="30.0862" fill="white" transform="translate(17 14)"/>
</clipPath>
</defs>
</svg>
