<svg width="100%" height="100%" viewBox="0 0 74 54" fill="none" xmlns="http://www.w3.org/2000/svg">
<g clip-path="url(#clip0_45_28586)">
<path d="M28.8618 13.6665L24.5825 14.5717C24.5825 14.5717 23.6311 14.9029 22.491 16.1894C22.491 16.1894 17.4644 20.8 17.6994 21.293L22.7606 27.0129C22.7606 27.0129 23.8622 26.9436 23.8622 27.5984L23.2768 38.8109H44.3999L43.6295 27.529C43.6295 27.529 43.487 26.7163 44.6811 26.9551L50.0235 21.1813L44.2959 15.5269C44.2959 15.5269 43.6989 14.5948 42.7706 14.4292C42.7706 14.4292 39.9318 13.6434 38.6184 13.6665H28.8618Z" fill="#C5F0FF"/>
<path d="M29.6899 13.1657C29.6899 13.1657 28.7385 13.1311 28.777 14.329C28.8117 15.5307 29.7823 18.381 32.6326 18.8278C35.483 19.2746 37.3472 17.1253 37.8865 16.4782C38.4257 15.8312 38.7839 14.0401 38.4796 13.4508C38.4796 13.4508 37.7439 12.484 37.0468 13.3776C37.0468 13.3776 36.1146 16.9096 34.1079 16.8211C32.1011 16.7325 31.1844 15.55 30.9533 14.4368C30.9533 14.4368 30.6143 13.0194 29.6976 13.1657H29.6899Z" fill="#9BE5F9"/>
<path d="M30.6523 13.7357C30.6523 13.7357 30.7448 16.4627 33.5566 16.767C33.5566 16.767 36.6765 17.2678 36.9538 13.6664C36.9538 13.6664 33.1753 13.3582 30.6562 13.7357H30.6523Z" fill="#D9F1FC"/>
<path d="M49.5952 21.2046L44.8601 26.3792C44.5485 26.7198 44.572 27.2485 44.9125 27.5601L45.3104 27.9241C45.6509 28.2358 46.1796 28.2123 46.4913 27.8718L51.2263 22.6971C51.5379 22.3566 51.5145 21.8279 51.1739 21.5162L50.7761 21.1522C50.4355 20.8406 49.9068 20.864 49.5952 21.2046Z" fill="#9BE5F9"/>
<path d="M16.2217 22.7017L20.9567 27.8763C21.2684 28.2168 21.7971 28.2403 22.1376 27.9287L22.5355 27.5646C22.876 27.253 22.8995 26.7243 22.5878 26.3837L17.8528 21.2091C17.5412 20.8686 17.0125 20.8451 16.6719 21.1567L16.2741 21.5208C15.9335 21.8324 15.9101 22.3611 16.2217 22.7017Z" fill="#9BE5F9"/>
<path d="M23.6231 40.4709H43.6947C44.2627 40.4709 44.7231 40.0114 44.7231 39.4445C44.7231 38.8775 44.2627 38.418 43.6947 38.418H23.6231C23.0551 38.418 22.5947 38.8775 22.5947 39.4445C22.5947 40.0114 23.0551 40.4709 23.6231 40.4709Z" fill="#9BE5F9"/>
<path d="M53.8589 24.2666C53.8589 24.2666 57.1753 23.3961 59.7482 25.3798L58.9779 26.4968L55.1415 26.9012L53.8589 24.2666Z" fill="#FFBFB8"/>
<path d="M49.1295 28.8079L52.4805 24.9831C52.4805 24.9831 53.301 24.2127 53.8595 24.2666C53.8595 24.2666 54.6568 25.5416 57.068 25.6995C59.483 25.8574 59.7488 25.3798 59.7488 25.3798C59.7488 25.3798 60.2534 25.9884 59.9607 26.8935L54.7954 33.3915L53.8864 35.5408L49.9884 34.4815L46.8569 30.5566L47.5734 29.2585L49.1295 28.8156V28.8079Z" fill="#FF9D8A"/>
<path d="M41.4991 34.2463C41.4991 34.2463 40.7441 34.3773 39.3459 36.6653L37.108 40.1087C37.108 40.1087 36.2953 41.634 36.9617 43.1324C37.6242 44.6307 40.798 48.2206 43.7716 48.0973C43.7716 48.0973 44.8039 48.0742 45.8631 46.9919C45.8631 46.9919 50.4968 42.8358 50.8358 41.842L41.5029 34.2502L41.4991 34.2463Z" fill="#757482"/>
<path d="M41.4992 34.2463C41.4992 34.2463 40.802 36.6036 43.556 38.9263C46.31 41.2489 47.5734 42.1463 49.5301 42.0462C49.5301 42.0462 50.5162 42.2503 51.3674 41.4684C52.2187 40.6865 52.1724 39.5541 52.1724 39.5541C52.1724 39.5541 52.2918 39.011 52.6924 38.6104C53.093 38.2098 54.5105 36.1992 54.5105 36.1992C54.5105 36.1992 55.431 35.7755 54.7955 33.3874L54.2909 33.892C54.2909 33.892 54.21 34.7432 53.6014 34.8087C53.6014 34.8087 52.4305 34.9551 51.1286 33.9267C51.1286 33.9267 49.0255 32.4668 48.5133 31.4885C48.001 30.5101 47.5503 29.5626 48.5941 29.2082C48.5941 29.2082 48.779 29.1774 49.1295 28.8076C49.1295 28.8076 47.3924 28.5496 46.9263 28.9848L44.0837 31.9391C44.0837 31.9391 43.3942 32.436 43.0399 32.4514C42.6855 32.4668 41.6571 33.1178 41.4953 34.2463H41.4992Z" fill="#FFE05C"/>
</g>
<defs>
<clipPath id="clip0_45_28586">
<rect width="44.0489" height="35.0974" fill="white" transform="translate(16 13)"/>
</clipPath>
</defs>
</svg>
