<svg width="100%" height="100%" viewBox="0 0 74 54" fill="none" xmlns="http://www.w3.org/2000/svg">
<g clip-path="url(#clip0_45_28587)">
<path d="M37.7403 48.6739C37.7403 48.6739 39.6546 48.4582 43.5256 46.5208C43.5256 46.5208 51.988 42.6459 52.4194 41.0705C52.4194 41.0705 53.2205 36.8721 53.6789 29.0376C53.6789 29.0376 38.0831 33.5788 37.3975 35.6742L37.7403 48.6739Z" fill="#FFB850"/>
<path d="M44.9624 33.5594C44.9624 33.5594 49.2957 32.712 51.0059 30.5165L52.0651 25.3667L50.2779 21.4687L27.356 14.3545C27.356 14.3545 23.223 17.7518 24.3593 18.5683L36.0109 23.1519C36.0109 23.1519 44.8739 29.3456 44.9624 33.5633V33.5594Z" fill="#FF7866"/>
<path d="M50.6326 24.3459C50.6326 24.3459 49.8507 23.071 47.9595 22.578C47.9595 22.578 49.8507 20.317 49.6042 18.7532C49.6042 18.7532 54.0876 20.3555 55.3626 21.4687L50.6326 24.3459Z" fill="#FFD092"/>
<path d="M50.6318 24.346C50.6318 24.346 51.2905 24.839 51.0016 30.5127L54.9497 28.3326C54.9497 28.3326 55.6083 27.7972 55.566 27.1809L55.9781 22.5742C55.9781 22.5742 56.0205 21.5881 55.3618 21.4648C55.3618 21.4648 53.5515 22.162 50.6318 24.3421V24.346Z" fill="#FFBF73"/>
<path d="M30.2712 33.5672C30.2712 33.5672 30.3483 33.9871 29.94 33.8715L24.2278 31.884C24.2278 31.884 23.5576 31.6336 23.2957 30.2046C23.2957 30.2046 21.0385 25.9985 23.0376 24.4578C23.0376 24.4578 28.5495 26.5916 30.2789 26.5685L30.2712 33.5672Z" fill="#FF7866"/>
<path d="M38.2836 29.6113C38.2836 29.6113 37.7213 34.9114 38.2836 35.674C38.2836 35.674 39.8552 35.6201 42.3935 34.6302L44.9626 33.5594C44.9626 33.5594 45.2785 28.5713 44.7546 27.5391L38.2836 29.6152V29.6113Z" fill="#FFBF73"/>
<path d="M38.2832 29.6115C38.2832 29.6115 37.9905 34.0064 38.2832 35.6742C38.2832 35.6742 37.4974 35.9669 34.755 35.185L30.2754 33.5673C30.2754 33.5673 29.8247 32.8817 29.8247 31.3602L29.9017 29.1069L30.0712 27.5007L38.2832 29.6154V29.6115Z" fill="#FFD092"/>
<path d="M36.0108 23.1519L30.5566 26.2833C30.5566 26.2833 29.9173 26.7225 30.0713 27.5005L36.03 29.4033C36.03 29.4033 38.0907 29.9926 40.0513 29.2068L44.7581 27.539C44.7581 27.539 44.3576 26.5876 41.6613 25.3127L36.0185 23.1519H36.0108Z" fill="#FFDAA9"/>
<path d="M22.9382 24.843C22.9382 24.843 22.6339 30.1353 23.8665 31.364L19.41 29.157C19.41 29.157 18.0195 28.4059 18.0773 26.7226C18.0773 26.7226 17.8885 23.2252 18.085 22.1467C18.085 22.1467 22.0561 23.568 22.9382 24.843Z" fill="#FFD092"/>
<path d="M34.0499 13.3646C34.0499 13.3646 33.4143 9.09296 29.8206 6.46605C29.8206 6.46605 26.1383 4.23973 24.2664 9.49355C24.2664 9.49355 22.6217 15.6795 25.1561 17.4128C25.1561 17.4128 28.4225 20.0821 31.8159 19.5005C31.8159 19.5005 30.1981 14.9245 34.046 13.3646H34.0499Z" fill="#FF8B85"/>
<path d="M34.051 13.3645C34.051 13.3645 36.832 13.5802 37.7372 14.8744C37.7372 14.8744 35.6649 16.8812 35.8922 18.2062C35.8922 18.2062 35.7959 19.9741 36.6355 21.4686C36.6355 21.4686 34.9215 21.7652 33.8546 20.9255C32.7876 20.0858 32.3331 19.6313 31.817 19.5042C31.817 19.5042 30.1338 14.8628 34.0472 13.3684L34.051 13.3645Z" fill="#FF7E7B"/>
<path d="M37.7404 14.8744C37.7404 14.8744 42.7978 11.5427 45.0549 11.6081C47.3121 11.6736 48.9953 12.9023 49.2534 14.5201C49.5114 16.1378 49.7618 16.003 49.6039 18.757C49.6039 18.757 50.0931 21.122 46.4069 24.0648C46.4069 24.0648 43.2677 25.1317 40.714 24.0648C40.714 24.0648 37.7712 22.6974 36.6388 21.4725C36.6388 21.4725 34.2122 17.5322 37.7404 14.8783V14.8744Z" fill="#FF8B85"/>
<path d="M37.7405 48.6738C37.7405 48.6738 26.2391 45.6617 21.2202 41.1436C21.2202 41.1436 20.7195 39.495 20.5731 37.7733C20.5731 37.7733 19.9299 32.4347 19.9492 29.4226L37.4015 35.6779L37.7443 48.6776L37.7405 48.6738Z" fill="#FFC25F"/>
<path d="M24.3599 18.5684C24.3599 18.5684 27.5838 19.7008 29.1361 20.448L25.5847 22.2468C25.5847 22.2468 23.0849 23.4216 22.9386 24.8468C22.9386 24.8468 17.8388 23.1789 18.0853 22.1505C18.0853 22.1505 17.6924 21.1221 24.3599 18.5722V18.5684Z" fill="#FFDAA9"/>
<path d="M29.1359 20.448C29.1359 20.448 23.339 22.5742 23.0347 24.4577C23.0347 24.4577 28.6197 26.9922 30.276 26.5685L36.0074 23.1519L29.1359 20.448Z" fill="#FF7D73"/>
<path d="M32.8908 13.8192C32.8908 13.8192 28.2918 10.9111 28.3958 8.69245C28.3958 8.69245 28.6616 7.79498 29.559 8.42667C29.559 8.42667 30.0867 8.90429 30.2446 9.37806C30.4026 9.85183 32.1474 13.1335 32.8869 13.8192H32.8908Z" fill="#FFABA9"/>
<path d="M38.1753 15.0863C38.1753 15.0863 42.1388 13.2875 43.6217 13.1835C43.6217 13.1835 45.4706 12.9639 45.3511 13.4454C45.2317 13.9269 43.1865 14.1079 43.1865 14.1079C43.1865 14.1079 40.7406 14.3506 38.1753 15.0824V15.0863Z" fill="#FFABA9"/>
</g>
<defs>
<clipPath id="clip0_45_28587">
<rect width="37.9823" height="42.6738" fill="white" transform="translate(18 6)"/>
</clipPath>
</defs>
</svg>
