<svg width="100%" height="100%" viewBox="0 0 74 54" fill="none" xmlns="http://www.w3.org/2000/svg">
<g clip-path="url(#clip0_45_28588)">
<path d="M18.3582 28.7298L27.0439 22.5168L38.8843 37.9008L30.5876 44.3063C30.5876 44.3063 29.278 45.4233 28.1109 43.9173L18.6971 31.349C18.6971 31.349 17.3875 30.0856 18.3582 28.7298Z" fill="#8DEF67"/>
<path d="M21.8284 28.1019C21.8284 28.1019 22.4447 30.7673 21.0889 31.4683L28.1068 40.5354C28.1068 40.5354 30.1598 40.0847 31.4732 41.1902L37.7786 36.4602L27.841 23.5491L21.8323 28.098L21.8284 28.1019Z" fill="#7CDE6C"/>
<path d="M26.0962 28.6759L26.751 29.4963C26.751 29.4963 25.9729 31.0948 26.4236 32.0809C26.8742 33.0669 27.4482 34.0761 29.6244 33.61C29.6244 33.61 31.6774 33.1478 31.9239 34.0491C32.1704 34.9504 31.1844 35.3626 30.6105 35.4435C30.0366 35.5244 29.4357 35.6476 29.4357 35.6476L29.8863 37.015C29.8863 37.015 31.0534 37.3655 31.9624 36.5374L32.7444 37.5234L33.7304 36.6953L32.9678 35.6476C32.9678 35.6476 33.8883 34.3765 33.5417 33.2942C33.1912 32.2118 31.7275 31.3876 30.1406 31.6071C28.5536 31.8267 28.1684 31.7342 28.0105 31.3529C28.0105 31.3529 27.7255 30.7482 28.5459 30.3514C29.3663 29.9547 30.1829 29.8815 30.1829 29.8815L29.4318 28.3177L27.8526 28.9147L27.0399 27.9941L26.0962 28.6759Z" fill="white"/>
<path d="M34.5625 16.8084L46.5377 32.3696L55.2465 25.9448C55.2465 25.9448 55.755 25.2053 54.8729 23.9188L45.5208 12.0168C45.5208 12.0168 44.0956 10.2874 42.8091 11.3389L34.5664 16.8084H34.5625Z" fill="#8DEF67"/>
<path d="M41.6545 13.8464C41.6545 13.8464 43.3377 15.3717 45.3676 14.2663L52.1698 22.8865C52.1698 22.8865 50.891 24.3271 51.2454 26.4841L45.3946 30.879L35.5918 18.145L41.6545 13.8464Z" fill="#7CDE6C"/>
<path d="M37.3544 20.5024C37.3544 20.5024 38.2442 19.0773 40.5591 17.9718C42.874 16.8664 45.9015 18.1143 46.7913 19.0773C46.7913 19.0773 48.5361 20.8568 48.2858 23.8496C48.2858 23.8496 47.5 27.4703 43.5096 28.4371L37.3506 20.5024H37.3544Z" fill="#6BC758"/>
<path d="M18 30.4282V33.6098C18 33.6098 18.0732 34.2299 18.547 34.7923L27.4985 46.6712C27.4985 46.6712 28.5192 48.2388 29.9135 47.3221L39.8203 39.9344C39.8203 39.9344 39.828 38.6518 38.8843 37.9007L30.5876 44.3062L27.8952 43.6283L18 30.4282Z" fill="#E2FFD2"/>
<path d="M46.5425 32.3698V34.7925L51.8695 31.1025C51.8695 31.1025 52.6745 30.5671 53.2561 29.4463L55.2513 25.9412L46.5425 32.3659V32.3698Z" fill="#E2FFD2"/>
<path d="M27.0447 22.5169C27.0447 22.5169 26.6248 21.5578 27.5069 20.9684L33.1921 17.005C33.1921 17.005 33.6235 16.4619 34.5633 16.8085C34.5633 16.8085 45.8413 30.4284 46.5385 32.3697V34.7925C46.5385 34.7925 46.4461 36.4025 45.487 37.0804L41.3925 40.2312C41.3925 40.2312 40.4373 41.0285 39.4204 40.2312L39.821 39.9307C39.821 39.9307 39.7555 38.7559 38.885 37.897L27.0447 22.5169Z" fill="#DFE3E5"/>
</g>
<defs>
<clipPath id="clip0_45_28588">
<rect width="37.3969" height="36.6111" fill="white" transform="translate(18 11)"/>
</clipPath>
</defs>
</svg>
