<svg width="100%" height="100%" viewBox="0 0 74 54" fill="none" xmlns="http://www.w3.org/2000/svg">
<g clip-path="url(#clip0_45_28589)">
<path d="M33.0207 22.5386C33.0207 22.5386 31.507 24.6609 31.3529 25.7202C31.2027 26.7794 29.585 28.297 26.908 27.8926C24.231 27.4881 20.3407 29.2561 19.3816 33.3968C19.3816 33.3968 17.2593 38.042 22.9676 44.0546C28.6759 50.0672 34.8888 46.7817 34.8888 46.7817C34.8888 46.7817 38.6251 44.7094 38.8292 41.3776C39.0334 38.0458 38.4248 36.378 40.6473 35.3149C40.6473 35.3149 43.7325 34.8758 45.0768 32.6649C45.0768 32.6649 45.8587 30.8623 44.8341 30.2267C43.8134 29.5912 42.7657 30.0611 42.7657 30.0611C42.7657 30.0611 40.8552 30.9008 38.679 28.3047L36.9765 26.2902C36.9765 26.2902 36.2678 25.9243 36.3987 24.2218C36.5297 22.5194 36.4527 21.8145 35.8479 21.4717C35.8479 21.4717 34.2495 20.5126 33.013 22.5348L33.0207 22.5386Z" fill="#FF9D8D"/>
<path d="M34.8268 27.9849L37.9082 30.9739C37.9082 30.9739 38.3512 31.933 40.1268 31.7212C41.9025 31.5093 41.7138 31.5093 41.7138 31.5093C41.7138 31.5093 42.5072 31.2898 42.8809 31.7481C43.2545 32.2065 41.4557 33.05 41.4557 33.05C41.4557 33.05 37.5808 33.7279 37.3459 35.1993C37.3459 35.1993 37.0339 37.2061 37.2496 39.0049C37.4653 40.8036 37.0685 42.1325 36.0401 42.718C36.0401 42.718 34.5456 43.6039 33.3785 43.3728C33.3785 43.3728 32.2153 43.1378 32.1768 41.8089C32.1768 41.8089 31.9765 40.1296 31.5335 39.6134C31.0906 39.0973 28.3597 36.4165 28.3597 36.4165C28.3597 36.4165 26.2335 34.4559 27.2157 33.077C28.1979 31.698 29.6924 31.4438 29.6924 31.4438C29.6924 31.4438 31.0713 31.5132 31.6761 29.9724C32.2846 28.4317 33.1937 26.6561 34.8268 27.9888V27.9849Z" fill="white"/>
<path d="M34.8271 27.985L45.6237 18.032C45.6237 18.032 47.8269 19.2337 48.343 20.9786C48.343 20.9786 39.8422 30.4039 37.9086 30.9739L34.8271 27.985Z" fill="#FFBE92"/>
<path d="M48.165 20.5242C48.165 20.5242 48.165 21.3253 48.8815 21.2483C49.5979 21.1713 54.0891 15.8905 54.0891 15.8905C54.0891 15.8905 54.5705 14.8813 54.3972 14.1533L48.165 20.5242Z" fill="#FC7365"/>
<path d="M45.6233 18.032C45.6233 18.032 45.3075 15.6554 45.8814 14.5384C46.4553 13.4214 48.3427 13.2211 48.3427 13.2211L51.6629 12.1927C51.6629 12.1927 53.0958 11.6188 54.0086 12.4507C54.9254 13.2789 54.3245 14.7117 53.7506 15.3973C53.1767 16.083 49.3865 21.0132 48.1617 20.5241L45.6195 18.032H45.6233Z" fill="#FF9D8D"/>
<path d="M24.4538 37.2369C24.4538 37.2369 24.0262 37.8686 24.3305 38.2383C24.6348 38.6081 27.9627 41.7281 27.9627 41.7281C27.9627 41.7281 28.4943 42.5254 29.23 41.9746L29.8231 41.4238C29.8231 41.4238 30.1891 40.8306 29.5997 40.3029L26.3334 37.0982C26.3334 37.0982 25.6594 36.2393 25.0662 36.609L24.4538 37.2407V37.2369Z" fill="#595864"/>
<path d="M34.207 37.6453C34.207 37.6453 33.4713 38.2385 33.6754 38.9703C33.8796 39.7022 34.2956 40.0103 34.9427 40.0103C35.5898 40.0103 36.1021 39.3979 36.1021 38.7431C36.1021 38.0883 35.4704 36.9674 34.2031 37.6415L34.207 37.6453Z" fill="#595864"/>
<path d="M33.7374 40.6997C33.7374 40.6997 33.2944 40.9346 33.4177 41.3044C33.5409 41.6742 33.6757 41.9207 34.0956 41.859C34.5154 41.7974 34.6387 41.5124 34.6271 41.2274C34.6156 40.9423 34.2689 40.3607 33.7374 40.6958V40.6997Z" fill="#595864"/>
</g>
<defs>
<clipPath id="clip0_45_28589">
<rect width="35.4864" height="35.679" fill="white" transform="translate(19 12)"/>
</clipPath>
</defs>
</svg>
