<svg width="48" height="48" viewBox="0 0 48 48" fill="none" xmlns="http://www.w3.org/2000/svg">
<mask id="mask0_45_12419" style="mask-type:alpha" maskUnits="userSpaceOnUse" x="0" y="0" width="48" height="48">
<rect width="48" height="48" fill="#D9D9D9"/>
</mask>
<g mask="url(#mask0_45_12419)">
<mask id="path-2-outside-1_45_12419" maskUnits="userSpaceOnUse" x="15" y="15" width="18" height="18" fill="black">
<rect fill="white" x="15" y="15" width="18" height="18"/>
<path d="M24 24.8C24.2267 24.8 24.4168 24.7232 24.5704 24.5696C24.7235 24.4165 24.8 24.2267 24.8 24V20.78C24.8 20.5533 24.7235 20.3667 24.5704 20.22C24.4168 20.0733 24.2267 20 24 20C23.7733 20 23.5835 20.0765 23.4304 20.2296C23.2768 20.3832 23.2 20.5733 23.2 20.8V24.02C23.2 24.2467 23.2768 24.4333 23.4304 24.58C23.5835 24.7267 23.7733 24.8 24 24.8ZM24 28C24.2267 28 24.4168 27.9232 24.5704 27.7696C24.7235 27.6165 24.8 27.4267 24.8 27.2C24.8 26.9733 24.7235 26.7832 24.5704 26.6296C24.4168 26.4765 24.2267 26.4 24 26.4C23.7733 26.4 23.5835 26.4765 23.4304 26.6296C23.2768 26.7832 23.2 26.9733 23.2 27.2C23.2 27.4267 23.2768 27.6165 23.4304 27.7696C23.5835 27.9232 23.7733 28 24 28ZM24 32C22.8933 32 21.8533 31.7899 20.88 31.3696C19.9067 30.9499 19.06 30.38 18.34 29.66C17.62 28.94 17.0501 28.0933 16.6304 27.12C16.2101 26.1467 16 25.1067 16 24C16 22.8933 16.2101 21.8533 16.6304 20.88C17.0501 19.9067 17.62 19.06 18.34 18.34C19.06 17.62 19.9067 17.0499 20.88 16.6296C21.8533 16.2099 22.8933 16 24 16C25.1067 16 26.1467 16.2099 27.12 16.6296C28.0933 17.0499 28.94 17.62 29.66 18.34C30.38 19.06 30.9499 19.9067 31.3696 20.88C31.7899 21.8533 32 22.8933 32 24C32 25.1067 31.7899 26.1467 31.3696 27.12C30.9499 28.0933 30.38 28.94 29.66 29.66C28.94 30.38 28.0933 30.9499 27.12 31.3696C26.1467 31.7899 25.1067 32 24 32ZM24 30.4C25.7733 30.4 27.2835 29.7768 28.5304 28.5304C29.7768 27.2835 30.4 25.7733 30.4 24C30.4 22.2267 29.7768 20.7165 28.5304 19.4696C27.2835 18.2232 25.7733 17.6 24 17.6C22.2267 17.6 20.7168 18.2232 19.4704 19.4696C18.2235 20.7165 17.6 22.2267 17.6 24C17.6 25.7733 18.2235 27.2835 19.4704 28.5304C20.7168 29.7768 22.2267 30.4 24 30.4Z"/>
</mask>
<path d="M24 24.8C24.2267 24.8 24.4168 24.7232 24.5704 24.5696C24.7235 24.4165 24.8 24.2267 24.8 24V20.78C24.8 20.5533 24.7235 20.3667 24.5704 20.22C24.4168 20.0733 24.2267 20 24 20C23.7733 20 23.5835 20.0765 23.4304 20.2296C23.2768 20.3832 23.2 20.5733 23.2 20.8V24.02C23.2 24.2467 23.2768 24.4333 23.4304 24.58C23.5835 24.7267 23.7733 24.8 24 24.8ZM24 28C24.2267 28 24.4168 27.9232 24.5704 27.7696C24.7235 27.6165 24.8 27.4267 24.8 27.2C24.8 26.9733 24.7235 26.7832 24.5704 26.6296C24.4168 26.4765 24.2267 26.4 24 26.4C23.7733 26.4 23.5835 26.4765 23.4304 26.6296C23.2768 26.7832 23.2 26.9733 23.2 27.2C23.2 27.4267 23.2768 27.6165 23.4304 27.7696C23.5835 27.9232 23.7733 28 24 28ZM24 32C22.8933 32 21.8533 31.7899 20.88 31.3696C19.9067 30.9499 19.06 30.38 18.34 29.66C17.62 28.94 17.0501 28.0933 16.6304 27.12C16.2101 26.1467 16 25.1067 16 24C16 22.8933 16.2101 21.8533 16.6304 20.88C17.0501 19.9067 17.62 19.06 18.34 18.34C19.06 17.62 19.9067 17.0499 20.88 16.6296C21.8533 16.2099 22.8933 16 24 16C25.1067 16 26.1467 16.2099 27.12 16.6296C28.0933 17.0499 28.94 17.62 29.66 18.34C30.38 19.06 30.9499 19.9067 31.3696 20.88C31.7899 21.8533 32 22.8933 32 24C32 25.1067 31.7899 26.1467 31.3696 27.12C30.9499 28.0933 30.38 28.94 29.66 29.66C28.94 30.38 28.0933 30.9499 27.12 31.3696C26.1467 31.7899 25.1067 32 24 32ZM24 30.4C25.7733 30.4 27.2835 29.7768 28.5304 28.5304C29.7768 27.2835 30.4 25.7733 30.4 24C30.4 22.2267 29.7768 20.7165 28.5304 19.4696C27.2835 18.2232 25.7733 17.6 24 17.6C22.2267 17.6 20.7168 18.2232 19.4704 19.4696C18.2235 20.7165 17.6 22.2267 17.6 24C17.6 25.7733 18.2235 27.2835 19.4704 28.5304C20.7168 29.7768 22.2267 30.4 24 30.4Z" fill="#A6A9AD"/>
<path d="M24.5704 20.22L24.7088 20.0756L24.7085 20.0754L24.5704 20.22ZM23.4304 24.58L23.5688 24.4356L23.5685 24.4354L23.4304 24.58ZM24.5704 26.6296L24.7121 26.4884L24.7116 26.4879L24.5704 26.6296ZM23.4304 26.6296L23.5718 26.771L23.4304 26.6296ZM23.4304 27.7696L23.5721 27.6284L23.5716 27.6279L23.4304 27.7696ZM20.88 31.3696L20.9593 31.186L20.9592 31.1859L20.88 31.3696ZM16.6304 27.12L16.8141 27.0408L16.814 27.0407L16.6304 27.12ZM16.6304 20.88L16.814 20.9593L16.8141 20.9592L16.6304 20.88ZM20.88 16.6296L20.8008 16.4459L20.8007 16.446L20.88 16.6296ZM27.12 16.6296L27.1993 16.446L27.1992 16.4459L27.12 16.6296ZM31.3696 20.88L31.1859 20.9592L31.186 20.9593L31.3696 20.88ZM31.3696 27.12L31.186 27.0407L31.1859 27.0408L31.3696 27.12ZM27.12 31.3696L27.0408 31.1859L27.0407 31.186L27.12 31.3696ZM28.5304 28.5304L28.6718 28.6719L28.6719 28.6718L28.5304 28.5304ZM28.5304 19.4696L28.6719 19.3282L28.6718 19.3281L28.5304 19.4696ZM24 25C24.2771 25 24.5189 24.9039 24.7118 24.711L24.429 24.4282C24.3147 24.5425 24.1762 24.6 24 24.6V25ZM24.7118 24.711C24.9043 24.5185 25 24.2769 25 24H24.6C24.6 24.1764 24.5426 24.3145 24.429 24.4282L24.7118 24.711ZM25 24V20.78H24.6V24H25ZM25 20.78C25 20.503 24.9041 20.2628 24.7088 20.0756L24.432 20.3644C24.5428 20.4705 24.6 20.6036 24.6 20.78H25ZM24.7085 20.0754C24.515 19.8906 24.2743 19.8 24 19.8V20.2C24.179 20.2 24.3186 20.2561 24.4323 20.3646L24.7085 20.0754ZM24 19.8C23.7231 19.8 23.4815 19.8957 23.289 20.0882L23.5718 20.371C23.6855 20.2574 23.8236 20.2 24 20.2V19.8ZM23.289 20.0882C23.0961 20.2811 23 20.5229 23 20.8H23.4C23.4 20.6238 23.4575 20.4853 23.5718 20.371L23.289 20.0882ZM23 20.8V24.02H23.4V20.8H23ZM23 24.02C23 24.2972 23.0963 24.5375 23.2923 24.7246L23.5685 24.4354C23.4573 24.3292 23.4 24.1961 23.4 24.02H23ZM23.292 24.7244C23.4851 24.9094 23.7257 25 24 25V24.6C23.821 24.6 23.6819 24.544 23.5688 24.4356L23.292 24.7244ZM24 28.2C24.2771 28.2 24.5189 28.1039 24.7118 27.911L24.429 27.6282C24.3147 27.7425 24.1762 27.8 24 27.8V28.2ZM24.7118 27.911C24.9043 27.7185 25 27.4769 25 27.2H24.6C24.6 27.3764 24.5426 27.5145 24.429 27.6282L24.7118 27.911ZM25 27.2C25 26.9231 24.9043 26.6814 24.7121 26.4884L24.4287 26.7708C24.5426 26.885 24.6 27.0236 24.6 27.2H25ZM24.7116 26.4879C24.5186 26.2957 24.2769 26.2 24 26.2V26.6C24.1764 26.6 24.315 26.6574 24.4292 26.7713L24.7116 26.4879ZM24 26.2C23.7231 26.2 23.4815 26.2957 23.289 26.4882L23.5718 26.771C23.6855 26.6574 23.8236 26.6 24 26.6V26.2ZM23.289 26.4882C23.0961 26.6811 23 26.9229 23 27.2H23.4C23.4 27.0238 23.4575 26.8853 23.5718 26.771L23.289 26.4882ZM23 27.2C23 27.4771 23.0961 27.7188 23.2892 27.9113L23.5716 27.6279C23.4575 27.5142 23.4 27.3762 23.4 27.2H23ZM23.2887 27.9108C23.4812 28.1039 23.7229 28.2 24 28.2V27.8C23.8238 27.8 23.6858 27.7425 23.5721 27.6284L23.2887 27.9108ZM24 31.8C22.9194 31.8 21.9065 31.595 20.9593 31.186L20.8007 31.5532C21.8002 31.9848 22.8673 32.2 24 32.2V31.8ZM20.9592 31.1859C20.0081 30.7758 19.1828 30.22 18.4814 29.5186L18.1986 29.8014C18.9372 30.54 19.8052 31.1239 20.8008 31.5533L20.9592 31.1859ZM18.4814 29.5186C17.78 28.8172 17.2242 27.9919 16.8141 27.0408L16.4467 27.1992C16.8761 28.1948 17.46 29.0628 18.1986 29.8014L18.4814 29.5186ZM16.814 27.0407C16.405 26.0935 16.2 25.0806 16.2 24H15.8C15.8 25.1327 16.0152 26.1998 16.4468 27.1993L16.814 27.0407ZM16.2 24C16.2 22.9194 16.405 21.9065 16.814 20.9593L16.4468 20.8007C16.0152 21.8002 15.8 22.8673 15.8 24H16.2ZM16.8141 20.9592C17.2242 20.0081 17.78 19.1828 18.4814 18.4814L18.1986 18.1986C17.46 18.9372 16.8761 19.8052 16.4467 20.8008L16.8141 20.9592ZM18.4814 18.4814C19.1828 17.78 20.0082 17.2239 20.9593 16.8132L20.8007 16.446C19.8052 16.8758 18.9372 17.46 18.1986 18.1986L18.4814 18.4814ZM20.9592 16.8133C21.9064 16.4048 22.9193 16.2 24 16.2V15.8C22.8673 15.8 21.8002 16.015 20.8008 16.4459L20.9592 16.8133ZM24 16.2C25.0807 16.2 26.0936 16.4048 27.0408 16.8133L27.1992 16.4459C26.1998 16.015 25.1327 15.8 24 15.8V16.2ZM27.0407 16.8132C27.9918 17.2239 28.8172 17.78 29.5186 18.4814L29.8014 18.1986C29.0628 17.46 28.1948 16.8758 27.1993 16.446L27.0407 16.8132ZM29.5186 18.4814C30.22 19.1828 30.7758 20.0081 31.1859 20.9592L31.5533 20.8008C31.1239 19.8052 30.54 18.9372 29.8014 18.1986L29.5186 18.4814ZM31.186 20.9593C31.595 21.9065 31.8 22.9194 31.8 24H32.2C32.2 22.8673 31.9848 21.8002 31.5532 20.8007L31.186 20.9593ZM31.8 24C31.8 25.0806 31.595 26.0935 31.186 27.0407L31.5532 27.1993C31.9848 26.1998 32.2 25.1327 32.2 24H31.8ZM31.1859 27.0408C30.7758 27.9919 30.22 28.8172 29.5186 29.5186L29.8014 29.8014C30.54 29.0628 31.1239 28.1948 31.5533 27.1992L31.1859 27.0408ZM29.5186 29.5186C28.8172 30.22 27.9919 30.7758 27.0408 31.1859L27.1992 31.5533C28.1948 31.1239 29.0628 30.54 29.8014 29.8014L29.5186 29.5186ZM27.0407 31.186C26.0935 31.595 25.0806 31.8 24 31.8V32.2C25.1327 32.2 26.1998 31.9848 27.1993 31.5532L27.0407 31.186ZM24 30.6C25.826 30.6 27.3871 29.956 28.6718 28.6719L28.389 28.3889C27.1798 29.5976 25.7207 30.2 24 30.2V30.6ZM28.6719 28.6718C29.956 27.3871 30.6 25.826 30.6 24H30.2C30.2 25.7207 29.5976 27.1798 28.3889 28.389L28.6719 28.6718ZM30.6 24C30.6 22.174 29.956 20.6129 28.6719 19.3282L28.3889 19.611C29.5976 20.8202 30.2 22.2793 30.2 24H30.6ZM28.6718 19.3281C27.3871 18.044 25.826 17.4 24 17.4V17.8C25.7207 17.8 27.1798 18.4024 28.389 19.6111L28.6718 19.3281ZM24 17.4C22.174 17.4 20.6131 18.044 19.329 19.3282L19.6118 19.611C20.8205 18.4024 22.2793 17.8 24 17.8V17.4ZM19.329 19.3282C18.0443 20.6129 17.4 22.174 17.4 24H17.8C17.8 22.2794 18.4026 20.8202 19.6118 19.611L19.329 19.3282ZM17.4 24C17.4 25.826 18.0443 27.3871 19.329 28.6718L19.6118 28.389C18.4026 27.1798 17.8 25.7206 17.8 24H17.4ZM19.329 28.6718C20.6131 29.956 22.174 30.6 24 30.6V30.2C22.2793 30.2 20.8205 29.5976 19.6118 28.389L19.329 28.6718Z" fill="#A6A9AD" mask="url(#path-2-outside-1_45_12419)"/>
</g>
</svg>
