<svg width="16" height="16" viewBox="0 0 16 16" fill="none" xmlns="http://www.w3.org/2000/svg">
<path d="M6.875 15.2942L0.275 8.69422C0.175 8.59422 0.104 8.48589 0.0619998 8.36922C0.0206665 8.25256 0 8.12756 0 7.99422C0 7.86089 0.0206665 7.73589 0.0619998 7.61922C0.104 7.50256 0.175 7.39422 0.275 7.29422L6.875 0.694223C7.05833 0.51089 7.28733 0.41489 7.562 0.406223C7.83733 0.398223 8.075 0.494223 8.275 0.694223C8.475 0.877556 8.57933 1.10656 8.588 1.38122C8.596 1.65656 8.5 1.89422 8.3 2.09422L3.4 6.99422H14.575C14.8583 6.99422 15.096 7.08989 15.288 7.28122C15.4793 7.47322 15.575 7.71089 15.575 7.99422C15.575 8.27756 15.4793 8.51489 15.288 8.70622C15.096 8.89822 14.8583 8.99422 14.575 8.99422H3.4L8.3 13.8942C8.48333 14.0776 8.57933 14.3109 8.588 14.5942C8.596 14.8776 8.5 15.1109 8.3 15.2942C8.11667 15.4942 7.88333 15.5942 7.6 15.5942C7.31667 15.5942 7.075 15.4942 6.875 15.2942Z" fill="current"/>
</svg>
