<svg width="30" height="30" viewBox="0 0 30 30" fill="none" xmlns="http://www.w3.org/2000/svg">
<path d="M27.0004 4.5H12.6694C12.0094 4.5 11.0629 4.854 10.5664 5.2875L0.372385 14.2095C0.255822 14.3055 0.16195 14.4261 0.097503 14.5626C0.0330564 14.6991 -0.000366211 14.8483 -0.000366211 14.9993C-0.000366211 15.1502 0.0330564 15.2994 0.097503 15.4359C0.16195 15.5724 0.255822 15.693 0.372385 15.789L10.5664 24.7095C11.0629 25.143 12.0094 25.5 12.6694 25.5H27.0004C28.6504 25.5 30.0004 24.15 30.0004 22.5V7.5C30.0004 5.85 28.6504 4.5 27.0004 4.5ZM22.7869 21L18.9514 17.1645L15.1174 21L12.9529 18.8355L16.7869 15L12.9529 11.1645L15.1174 9L18.9529 12.8325L22.7854 9L24.9514 11.1645L21.1174 15L24.9529 18.8325L22.7869 21Z" fill="white"/>
</svg>
