<svg width="102" height="17" viewBox="0 0 102 17" fill="none" xmlns="http://www.w3.org/2000/svg">
<path d="M2.84316 16.4204C1.47116 16.4204 0.785156 15.7274 0.785156 14.3414V2.9384C0.785156 1.5524 1.47116 0.859399 2.84316 0.859399H7.54716C9.31116 0.859399 10.6972 1.1744 11.7052 1.8044C12.7132 2.4344 13.2172 3.4494 13.2172 4.8494C13.2172 5.5494 13.0212 6.1794 12.6292 6.7394C12.2372 7.2854 11.6772 7.6984 10.9492 7.9784V8.1044C11.3132 8.2164 11.6632 8.3704 11.9992 8.5664C12.3352 8.7624 12.6362 9.0144 12.9022 9.3224C13.1682 9.6164 13.3782 9.9734 13.5322 10.3934C13.6862 10.7994 13.7632 11.2614 13.7632 11.7794C13.7632 13.2914 13.2662 14.4464 12.2722 15.2444C11.2922 16.0284 9.88516 16.4204 8.05116 16.4204H2.84316ZM4.29216 13.4804H7.37916C7.79916 13.4804 8.18416 13.4524 8.53416 13.3964C8.88416 13.3404 9.18516 13.2424 9.43716 13.1024C9.70316 12.9484 9.90616 12.7524 10.0462 12.5144C10.1862 12.2624 10.2562 11.9474 10.2562 11.5694C10.2562 11.1914 10.1862 10.8834 10.0462 10.6454C9.90616 10.3934 9.70316 10.1974 9.43716 10.0574C9.18516 9.9034 8.88416 9.7984 8.53416 9.7424C8.18416 9.6864 7.79916 9.6584 7.37916 9.6584H4.29216V13.4804ZM9.66816 5.3324C9.66816 4.7024 9.46516 4.2684 9.05916 4.0304C8.65316 3.7784 8.03016 3.6524 7.19016 3.6524H4.29216V7.0124H7.19016C8.03016 7.0124 8.65316 6.8934 9.05916 6.6554C9.46516 6.4034 9.66816 5.9624 9.66816 5.3324Z" fill="white"/>
<path d="M22.4445 0.733398C22.9765 0.733398 23.4175 0.859398 23.7675 1.1114C24.1175 1.3494 24.3835 1.6854 24.5655 2.1194L29.6055 14.3414C29.8015 14.8034 29.8015 15.2374 29.6055 15.6434C29.4095 16.0354 29.0665 16.3084 28.5765 16.4624C28.1005 16.6164 27.6595 16.5814 27.2535 16.3574C26.8615 16.1334 26.5675 15.7764 26.3715 15.2864L25.4265 12.8084H19.4415L18.5175 15.2864C18.3215 15.7764 18.0205 16.1334 17.6145 16.3574C17.2225 16.5814 16.7815 16.6164 16.2915 16.4624C15.8015 16.3084 15.4585 16.0354 15.2625 15.6434C15.0805 15.2374 15.0875 14.8034 15.2835 14.3414L20.3235 2.1194C20.5055 1.6854 20.7715 1.3494 21.1215 1.1114C21.4715 0.859398 21.9125 0.733398 22.4445 0.733398ZM20.5545 9.8684H24.3345L22.4865 4.9754H22.4025L20.5545 9.8684Z" fill="white"/>
<path d="M32.2646 3.1904C32.2646 2.3924 32.4256 1.7834 32.7477 1.3634C33.0836 0.943399 33.6507 0.733398 34.4487 0.733398C34.9807 0.733398 35.4076 0.824399 35.7296 1.0064C36.0516 1.1744 36.3316 1.4474 36.5696 1.8254L42.0086 11.3804H42.0717V2.5394C42.0717 2.0074 42.2257 1.5734 42.5336 1.2374C42.8416 0.901399 43.2616 0.733398 43.7936 0.733398C44.3256 0.733398 44.7457 0.901399 45.0536 1.2374C45.3616 1.5734 45.5156 2.0074 45.5156 2.5394V14.1734C45.5156 14.9294 45.3616 15.5174 45.0536 15.9374C44.7597 16.3434 44.2346 16.5464 43.4786 16.5464C42.9466 16.5464 42.4916 16.4554 42.1136 16.2734C41.7356 16.1054 41.4206 15.8184 41.1686 15.4124L35.7716 6.3194H35.7086V14.7404C35.7086 15.2724 35.5546 15.7064 35.2467 16.0424C34.9387 16.3784 34.5187 16.5464 33.9866 16.5464C33.4546 16.5464 33.0346 16.3784 32.7267 16.0424C32.4186 15.7064 32.2646 15.2724 32.2646 14.7404V3.1904Z" fill="white"/>
<path d="M49.0811 2.5184C49.0811 1.9864 49.2421 1.5594 49.5641 1.2374C49.8861 0.901399 50.3131 0.733398 50.8451 0.733398C51.3771 0.733398 51.8041 0.901399 52.1261 1.2374C52.4621 1.5594 52.6301 1.9864 52.6301 2.5184V7.0964L58.7411 1.2374C59.0911 0.915399 59.5041 0.754399 59.9801 0.754399C60.4561 0.740399 60.8551 0.901399 61.1771 1.2374C61.4991 1.5734 61.6461 1.9584 61.6181 2.3924C61.6041 2.8124 61.4151 3.1974 61.0511 3.5474L56.7461 7.7054L61.8491 13.8374C62.1431 14.1454 62.2831 14.5234 62.2691 14.9714C62.2551 15.4194 62.0591 15.8114 61.6811 16.1474C61.4851 16.3154 61.2751 16.4274 61.0511 16.4834C60.8411 16.5394 60.6241 16.5534 60.4001 16.5254C60.1761 16.4974 59.9591 16.4344 59.7491 16.3364C59.5531 16.2384 59.3851 16.1054 59.2451 15.9374L54.3101 10.0784L52.6301 11.7164V14.7824C52.6301 15.3144 52.4621 15.7414 52.1261 16.0634C51.8041 16.3854 51.3771 16.5464 50.8451 16.5464C50.3131 16.5464 49.8861 16.3854 49.5641 16.0634C49.2421 15.7414 49.0811 15.3144 49.0811 14.7824V2.5184Z" fill="white"/>
<path d="M65.1206 2.4974C65.1206 1.9654 65.2816 1.5384 65.6036 1.2164C65.9256 0.894398 66.3526 0.733398 66.8846 0.733398C67.4166 0.733398 67.8436 0.894398 68.1656 1.2164C68.5016 1.5384 68.6696 1.9654 68.6696 2.4974V14.7824C68.6696 15.3144 68.5016 15.7414 68.1656 16.0634C67.8436 16.3854 67.4166 16.5464 66.8846 16.5464C66.3526 16.5464 65.9256 16.3854 65.6036 16.0634C65.2816 15.7414 65.1206 15.3144 65.1206 14.7824V2.4974Z" fill="white"/>
<path d="M75.8649 13.4804H78.7209C79.3789 13.4804 79.9459 13.3544 80.4219 13.1024C80.8979 12.8504 81.2829 12.5074 81.5769 12.0734C81.8849 11.6254 82.1089 11.1074 82.2489 10.5194C82.4029 9.9314 82.4799 9.3084 82.4799 8.6504C82.4799 7.9924 82.4029 7.3694 82.2489 6.7814C82.1089 6.1934 81.8849 5.6824 81.5769 5.2484C81.2829 4.8004 80.8979 4.4504 80.4219 4.1984C79.9459 3.9464 79.3789 3.8204 78.7209 3.8204H75.8649V13.4804ZM72.3369 2.9384C72.3369 1.5524 73.0229 0.859399 74.3949 0.859399H78.6159C79.5819 0.859399 80.5059 0.978399 81.3879 1.2164C82.2839 1.4544 83.0749 1.8744 83.7609 2.4764C84.4469 3.0644 84.9929 3.8624 85.3989 4.8704C85.8049 5.8644 86.0079 7.1244 86.0079 8.6504C86.0079 9.8824 85.8399 10.9814 85.5039 11.9474C85.1679 12.8994 84.6779 13.7114 84.0339 14.3834C83.4039 15.0414 82.6269 15.5454 81.7029 15.8954C80.7789 16.2454 79.7289 16.4204 78.5529 16.4204H74.3949C73.0229 16.4204 72.3369 15.7274 72.3369 14.3414V2.9384Z" fill="white"/>
<path d="M99.1987 13.2494C99.7167 13.2494 100.151 13.3824 100.501 13.6484C100.851 13.9144 101.026 14.3064 101.026 14.8244C101.026 15.3564 100.851 15.7554 100.501 16.0214C100.151 16.2874 99.7167 16.4204 99.1987 16.4204H89.5807C89.1327 16.4204 88.7757 16.2944 88.5097 16.0424C88.2437 15.7904 88.1107 15.4404 88.1107 14.9924C88.1107 14.7824 88.1597 14.5934 88.2577 14.4254C88.3557 14.2574 88.4677 14.0754 88.5937 13.8794L95.4607 4.0304H90.1477C89.6437 4.0304 89.2167 3.8974 88.8667 3.6314C88.5167 3.3654 88.3417 2.9734 88.3417 2.4554C88.3417 1.9234 88.5167 1.5244 88.8667 1.2584C89.2167 0.992399 89.6437 0.859399 90.1477 0.859399H98.7997C99.2477 0.859399 99.6047 0.985399 99.8707 1.2374C100.137 1.4894 100.27 1.8394 100.27 2.2874C100.27 2.4834 100.221 2.6724 100.123 2.8544C100.025 3.0364 99.9127 3.2184 99.7867 3.4004L92.8777 13.2494H99.1987Z" fill="white"/>
</svg>
