<svg width="22" height="22" viewBox="0 0 22 22" fill="none" xmlns="http://www.w3.org/2000/svg">
<path d="M21 11.324V11.3241V19.827C21 20.1341 20.8766 20.4311 20.6529 20.6521C20.4288 20.8735 20.1222 21 19.8 21H2.2C1.87778 21 1.57121 20.8735 1.34709 20.6521C1.12339 20.4311 1 20.1341 1 19.827V11.3241V11.324C0.999951 10.8704 1.09365 10.4212 1.27573 10.0038C1.45782 9.58638 1.72465 9.2092 2.06055 8.89575L2.06067 8.89564L10.171 1.32498L10.1711 1.32485C10.3932 1.11746 10.6896 1 11 1C11.3104 1 11.6068 1.11746 11.8289 1.32485L11.829 1.32498L19.9393 8.89564L19.9394 8.89575C20.2753 9.2092 20.5422 9.58638 20.7243 10.0038C20.9063 10.4212 21 10.8704 21 11.324Z" stroke="current" stroke-width="2" stroke-linecap="round" stroke-linejoin="round"/>
</svg>
