<svg width="70" height="70" viewBox="0 0 70 70" fill="none" xmlns="http://www.w3.org/2000/svg">
<circle cx="35" cy="35" r="32.5" fill="#FFC52F" stroke="#FFF6D2" stroke-width="5"/>
<mask id="mask0_577_44143" style="mask-type:alpha" maskUnits="userSpaceOnUse" x="5" y="5" width="60" height="60">
<circle cx="35" cy="35" r="30" fill="#FFC52F"/>
</mask>
<g mask="url(#mask0_577_44143)">
<g clip-path="url(#clip0_577_44143)">
<path d="M56.7776 35.7661C56.3006 35.7488 56.1063 35.7143 56.1063 35.7143L55.2068 35.5449C53.1794 30.6268 47.7343 27.4437 47.7343 27.4437C47.4311 26.4345 47.564 24.6235 47.564 24.6235C47.6526 22.2837 46.644 21.7272 46.644 21.7272C45.3253 21.0533 42.3472 23.1443 42.3472 23.1443C42.504 20.3171 39.8394 22.0625 39.8394 22.0625C36.4286 24.0498 34.609 28.2421 34.609 28.2421L23.4838 28.1799C14.8324 28.6084 10.4471 38.4654 10.4471 38.4654C8.60026 41.1266 6.79775 53.9317 13.4797 61.3451C18.3352 66.7298 33.2767 66.2667 33.2767 66.2667C40.221 66.0178 45.1345 65.1261 48.2931 64.3036C51.4518 63.481 54.0142 61.0444 55.0126 57.8751C55.8678 55.1621 56.3926 52.3522 57.6158 49.6253C58.1951 48.3327 58.805 46.691 59.5035 45.4606C59.8102 44.9249 60.0555 44.9146 60.0555 44.9146L56.7742 35.773L56.7776 35.7661Z" fill="#FEE88C"/>
<path d="M57.0755 35.8941C57.1436 35.9287 57.2118 35.9702 57.2731 36.0116C58.4793 36.8204 59.3585 38.0542 59.9922 39.3745C60.1899 39.7857 60.3671 40.2109 60.4761 40.6567C60.609 41.1889 60.6431 41.7419 60.6362 42.2915C60.626 42.9412 60.5511 43.5875 60.4182 44.22C60.3296 44.6416 60.0502 45.0944 59.5527 44.9423C59.3448 44.8801 59.1745 44.7315 59.0143 44.5829C57.7876 43.4424 56.7586 42.0392 56.2577 40.4286C55.8693 39.1775 55.8113 37.8227 56.0873 36.5404C56.1487 36.2466 56.2679 35.9183 56.5439 35.8215C56.7177 35.7593 56.9017 35.8112 57.0721 35.8976L57.0755 35.8941Z" fill="#FFDA40"/>
<path d="M42.3198 23.1374C42.2994 23.2308 42.2755 23.3206 42.2517 23.407C41.7814 25.0107 41.6962 26.7284 42.0063 28.3735C42.112 28.9334 42.2619 29.514 42.112 30.0601C41.9143 30.779 41.2601 31.2559 40.6468 31.6707L39.6382 32.355C39.3656 32.5416 39.018 32.7317 38.7318 32.5693C38.5376 32.4587 38.449 32.2271 38.3877 32.0094C37.4438 28.8159 38.173 24.2019 41.2328 22.3425C41.502 22.1801 41.853 22.0453 42.1188 22.2181C42.4016 22.4013 42.3948 22.7815 42.3198 23.134V23.1374Z" fill="#FFDA40"/>
<path d="M46.5222 22.4253C46.253 22.4253 45.9873 22.567 45.793 22.764C45.5613 22.999 45.4148 23.3032 45.2853 23.6073C44.8901 24.5439 44.6652 25.522 44.505 26.5208C44.471 26.7282 44.488 26.9667 44.6379 27.1153C44.7708 27.2466 44.9685 27.2708 45.1525 27.2881C46.0179 27.3676 46.8834 27.4229 47.7489 27.4505C47.5956 26.7386 47.5308 26.0093 47.5547 25.2835C47.5751 24.658 47.6569 24.022 47.5104 23.4138C47.4013 22.9748 47.1219 22.5255 46.6824 22.4426C46.6313 22.4322 46.5768 22.4287 46.5256 22.4287L46.5222 22.4253Z" fill="#FFDA40"/>
<path d="M24.4449 29.7109C24.2439 29.7144 24.0428 29.7178 23.8418 29.7248C23.5385 29.7317 23.2251 29.742 22.9525 29.8768C22.5811 30.06 22.0768 30.7374 22.6117 31.0416C22.7855 31.1418 22.9968 31.1452 23.1944 31.1487C23.6919 31.1522 24.1894 31.1522 24.6868 31.1522H30.7623C31.0178 31.1522 31.3108 31.1349 31.4608 30.9275C31.6482 30.6717 31.4983 30.3158 31.3449 30.0358C31.2836 29.9218 31.212 29.8043 31.0996 29.7455C31.0178 29.704 30.9224 29.704 30.8338 29.7006C28.7042 29.666 26.5711 29.6695 24.4415 29.7109H24.4449Z" fill="#FFDA40"/>
<path d="M56.977 38.2824C56.977 38.2824 56.1627 37.5531 56.6533 39.3434C57.1406 41.1337 57.8391 42.4297 58.5819 42.7131C58.5819 42.7131 59.0419 42.9896 58.7046 41.6417C58.5036 40.8399 58.1696 40.0795 57.7471 39.371C57.5018 38.9598 57.219 38.5312 56.9805 38.2858L56.977 38.2824Z" fill="#FFEEA6"/>
<path d="M58.3504 37.871C58.3504 37.871 57.6042 37.2005 58.0505 38.8422C58.4969 40.4839 59.1375 41.6728 59.819 41.932C59.819 41.932 60.2415 42.1843 59.9314 40.947C59.7474 40.2108 59.4407 39.5127 59.0523 38.8629C58.8274 38.4862 58.5685 38.0922 58.3504 37.8675V37.871Z" fill="#FFEEA6"/>
<path d="M49.686 39.4919C50.642 39.4919 51.417 38.7059 51.417 37.7362C51.417 36.7665 50.642 35.9805 49.686 35.9805C48.7301 35.9805 47.9551 36.7665 47.9551 37.7362C47.9551 38.7059 48.7301 39.4919 49.686 39.4919Z" fill="#2E3234"/>
<path d="M50.6442 37.3768C50.7854 37.3768 50.8998 37.2608 50.8998 37.1176C50.8998 36.9745 50.7854 36.8584 50.6442 36.8584C50.5031 36.8584 50.3887 36.9745 50.3887 37.1176C50.3887 37.2608 50.5031 37.3768 50.6442 37.3768Z" fill="white"/>
<path fill-rule="evenodd" clip-rule="evenodd" d="M49.6897 45.4124C49.6897 45.4124 49.6897 45.4124 49.6897 45.4124C49.6898 45.4126 49.69 45.413 49.6903 45.4136C49.6913 45.4154 49.6933 45.419 49.6963 45.4243C49.7023 45.4348 49.7124 45.452 49.7267 45.4747C49.7553 45.5202 49.8006 45.5876 49.864 45.6686C49.991 45.8308 50.1884 46.0452 50.4662 46.2471C51.0145 46.6453 51.8956 47.0099 53.2188 46.7954C53.4049 46.7652 53.58 46.8936 53.6098 47.0822C53.6395 47.2709 53.5128 47.4482 53.3266 47.4784C51.8148 47.7235 50.7537 47.307 50.0685 46.8093C49.7296 46.5631 49.4875 46.3008 49.3291 46.0983C49.2498 45.9969 49.191 45.91 49.1511 45.8467C49.1312 45.815 49.1159 45.7892 49.1052 45.7703C49.0998 45.7609 49.0956 45.7532 49.0924 45.7474L49.0885 45.7401L49.0871 45.7375L49.0866 45.7365L49.0864 45.7361C49.0863 45.7359 49.0862 45.7357 49.3883 45.5747L49.0862 45.7357C48.9984 45.5667 49.0625 45.3575 49.2294 45.2686C49.3958 45.1799 49.6015 45.2443 49.6897 45.4124Z" fill="#FFC52F"/>
</g>
<path d="M26.6879 12.0861C26.7427 12.0022 27.8492 12.0358 28.0829 12.0492C29.7992 12.1398 31.5082 12.7908 32.6768 13.9755C34.2361 15.5561 34.656 17.8683 34.3164 19.9791C34.1119 21.2309 33.3487 22.9122 32.4467 23.6673C30.6099 25.2076 28.857 25.2579 27.4876 25.2881C27.2247 23.0363 28.5722 20.4456 28.3093 18.1938L27.9185 14.8178L27.7213 13.1298C27.6885 12.8613 27.641 12.5895 27.6264 12.321C27.6227 12.2069 26.655 12.1364 26.6842 12.0962L26.6879 12.0861Z" fill="#FFC52F"/>
<path d="M25.1039 24.9194C26.1373 25.2819 27.2657 25.3926 28.3466 25.1678C29.9059 24.8456 31.2607 23.8623 32.097 22.6106C32.9332 21.3588 33.2802 19.8588 33.2181 18.3889C33.1487 16.6606 32.5023 14.9122 31.2023 13.6638C28.7009 11.261 24.4685 11.6301 22.3103 14.2276C21.3973 15.325 20.908 16.6942 20.8021 18.0734C20.656 19.9896 21.2768 21.983 22.6828 23.4026C23.3437 24.0704 24.1836 24.5939 25.1039 24.9161V24.9194Z" fill="#FFDA40"/>
<path d="M25.5677 13.2374C24.0303 13.6368 22.6573 14.6637 21.9817 16.1839C21.2696 17.7813 21.4157 19.6472 22.2008 21.2144C23.0115 22.8353 24.6183 24.2145 26.5464 24.4159C28.0436 24.5703 29.5737 23.9897 30.6254 22.9997C31.6771 22.0097 32.265 20.6506 32.4002 19.2713C32.5572 17.6471 32.0788 15.9456 30.9248 14.7073C29.4934 13.1737 27.4119 12.7575 25.5714 13.2341L25.5677 13.2374Z" fill="#FFF3C0"/>
<path d="M26.3258 14.9316C26.1615 15.086 26.2784 15.6162 26.3149 15.8041C25.5809 15.9652 25.066 16.67 25.0879 17.3613C25.1098 18.0526 25.6101 18.6935 26.2747 19.0258C26.5815 19.1802 26.932 19.2775 27.1877 19.4956C27.4433 19.7137 27.5638 20.1198 27.3191 20.3514C27.1548 20.5091 26.8882 20.5259 26.6545 20.5024C26.2126 20.4554 25.789 20.2876 25.4494 20.0258L25.0039 20.4856C24.9637 20.5259 24.9236 20.5728 24.9199 20.6265C24.9199 20.6735 24.9418 20.7171 24.971 20.7574C25.2522 21.1735 25.7379 21.4655 26.2674 21.536L26.2784 22.3481C26.5559 22.3615 26.8298 22.3649 27.1073 22.3481V21.6937C27.1073 21.6568 27.1073 21.6165 27.1292 21.5863C27.1584 21.5461 27.2132 21.5326 27.2607 21.5192C27.8998 21.3447 28.4074 20.8178 28.5169 20.2171C28.6265 19.6164 28.3416 18.9654 27.8012 18.6063C27.3849 18.3311 26.8627 18.2271 26.4244 17.9821C26.2528 17.8848 26.0885 17.7573 26.0264 17.5794C25.9424 17.3311 26.1067 17.0525 26.3514 16.9284C26.5961 16.8042 26.9065 16.8143 27.1731 16.8948C27.4396 16.9753 27.677 17.123 27.9107 17.2673L28.3672 16.6364C28.3964 16.5961 28.4256 16.5525 28.422 16.5022C28.4183 16.4585 28.3854 16.4183 28.3526 16.3847C28.0385 16.0659 27.5711 15.8847 27.1037 15.9015L27.0891 14.9014C27.0891 14.8712 26.3916 14.8611 26.3149 14.9282L26.3258 14.9316Z" fill="#FFDA40"/>
</g>
<defs>
<clipPath id="clip0_577_44143">
<rect width="51.8812" height="55.3399" fill="white" transform="translate(8.75 10.9374)"/>
</clipPath>
</defs>
</svg>
