<svg width="98" height="80" viewBox="0 0 98 80" fill="none" xmlns="http://www.w3.org/2000/svg">
<g clip-path="url(#clip0_195_3529)">
<path d="M10.9073 50.4628C10.9073 50.4628 7.71443 58.6167 0.235713 60.0816C0.235713 60.0816 -3.18035 63.3145 9.49971 67.4802C9.49971 67.4802 20.0512 69.666 24.6746 69.2769L28.4168 59.0516L10.9073 50.4628Z" fill="#FED752"/>
<path d="M83.257 49.8906C83.257 49.8906 86.4499 58.0445 93.9287 59.5094C93.9287 59.5094 97.3447 62.7423 84.6647 66.908C84.6647 66.908 74.1132 69.0938 69.4898 68.7047L65.7476 58.4794L83.257 49.8906Z" fill="#FED752"/>
<path d="M90.4094 45.8108C90.8385 45.765 91.2677 45.7307 91.7026 45.7078C92.0688 45.6849 92.2748 45.6391 92.6353 45.5876C92.887 45.5533 93.5451 45.3873 93.7797 45.2958C94.9298 44.838 95.7538 44.1971 96.5777 43.2702C96.635 43.2072 96.6922 43.1386 96.7494 43.0699C97.0355 42.7266 97.2987 42.3375 97.3674 41.8912C97.436 41.4448 97.2358 40.9356 96.8238 40.7639C96.469 40.6151 96.0513 40.741 95.7423 40.9699C95.4333 41.1988 95.2045 41.5135 94.947 41.7996C94.5292 42.2688 94.0257 42.6694 93.4764 42.9726C93.1788 43.1386 92.8355 43.2759 92.5036 43.2358C92.3892 43.2244 92.3091 43.1214 92.3263 43.007C92.435 42.3146 92.6238 41.6394 92.7382 40.9527C92.8641 40.2032 92.8985 39.4192 92.641 38.704C92.3263 37.8285 91.5881 37.1419 90.7412 36.747C89.9001 36.3522 88.9102 36.2206 88.0404 36.5353C86.896 36.953 86.1236 38.0803 85.8489 39.2647C85.4712 40.8841 85.929 42.6808 87.0334 43.9225C87.0906 43.9854 87.062 44.0884 86.9761 44.1056C85.8947 44.3574 84.7674 44.3917 83.6745 44.2086C83.5544 44.4947 83.3827 45.6277 83.6116 46.3601C83.6345 46.4402 83.6688 46.526 83.7375 46.5775C83.7947 46.6176 84.6129 46.6634 84.6816 46.6634C85.826 46.7263 86.959 46.5947 88.0576 46.2685C88.8301 46.0396 89.6197 45.9023 90.4151 45.8165L90.4094 45.8108ZM87.9775 40.1688C87.9775 40.1688 87.9775 40.1345 87.9775 40.1173C87.9889 39.7511 88.0748 39.3792 88.275 39.0702C88.4753 38.7612 88.8015 38.5266 89.1677 38.4865C89.4423 38.4579 89.7285 38.5438 89.9516 38.7097C90.1748 38.8756 90.3464 39.1102 90.4437 39.3677C90.5982 39.7683 90.5925 40.2203 90.5353 40.6437C90.4494 41.2503 90.2606 41.8339 89.9802 42.3775C89.923 42.4862 89.8429 42.635 89.7227 42.6865C89.6026 42.738 89.4195 42.6407 89.3107 42.5835C88.8759 42.3489 88.5268 41.9827 88.2922 41.5478C88.0576 41.113 87.9661 40.6552 87.9718 40.1803L87.9775 40.1688Z" fill="#FFAF22"/>
<path d="M30.2134 60.3619C29.0861 61.4091 29.2578 63.3374 29.1834 64.6306C29.0404 67.1025 29.2006 69.5859 29.6641 72.0349C29.7385 72.4183 29.8243 72.8188 30.1333 73.1107C30.4251 73.3853 30.86 73.5227 31.2834 73.6314C34.791 74.5583 38.6362 74.6156 42.1839 73.7916C42.8019 73.6486 43.4657 73.4426 43.7918 72.9848C44.0321 72.6472 44.0321 72.2352 44.0264 71.8404L43.9005 61.2145C43.9005 60.8369 43.8776 60.4249 43.5915 60.1273C43.2024 59.7211 42.4815 59.681 41.852 59.6753L33.5894 59.5837C32.8226 59.578 32.0444 59.5666 31.3177 59.7668C30.8485 59.8985 30.488 60.1045 30.2077 60.3677L30.2134 60.3619Z" fill="#FFAF22"/>
<path d="M75.8413 59.6696C76.9686 60.7167 76.7969 62.645 76.8713 63.9382C77.0143 66.4102 76.8541 68.8935 76.3906 71.3426C76.3162 71.7259 76.2304 72.1265 75.9214 72.4183C75.6296 72.693 75.1947 72.8303 74.7713 72.939C71.2637 73.866 67.4185 73.9232 63.8708 73.0992C63.2528 72.9562 62.589 72.7502 62.2629 72.2924C62.0226 71.9548 62.0226 71.5428 62.0283 71.148L62.1542 60.5222C62.1542 60.1445 62.1771 59.7325 62.4632 59.435C62.8523 59.0287 63.5732 58.9887 64.2027 58.9829L72.4653 58.8914C73.2321 58.8857 74.0103 58.8742 74.737 59.0745C75.2062 59.2061 75.5667 59.4121 75.847 59.6753L75.8413 59.6696Z" fill="#FFAF22"/>
<path d="M25.6072 65.2028C24.3712 66.3129 24.5658 68.3442 24.4857 69.7118C24.3312 72.321 24.5085 74.9475 25.0121 77.5281C25.0922 77.9286 25.1895 78.3578 25.5271 78.6668C25.8418 78.9586 26.3224 79.1017 26.7859 79.2161C30.6197 80.1946 34.8254 80.2575 38.705 79.382C39.3802 79.2275 40.1069 79.0158 40.4616 78.5295C40.7248 78.169 40.7248 77.7341 40.7191 77.3221L40.5818 66.0954C40.5818 65.6949 40.5589 65.26 40.2442 64.9453C39.8208 64.5162 39.0311 64.4761 38.3445 64.4647L29.3093 64.3674C28.4739 64.3559 27.6213 64.3502 26.826 64.5619C26.3167 64.6993 25.9162 64.9167 25.6129 65.1971L25.6072 65.2028Z" fill="#FFC931"/>
<path d="M73.2491 65.2028C74.485 66.3129 74.2905 68.3442 74.3706 69.7118C74.5251 72.321 74.3477 74.9475 73.8441 77.5281C73.764 77.9286 73.6668 78.3578 73.3292 78.6668C73.0145 78.9586 72.5338 79.1017 72.0703 79.2161C68.2365 80.1946 64.0308 80.2575 60.1513 79.382C59.4761 79.2275 58.7494 79.0158 58.3946 78.5295C58.1314 78.169 58.1314 77.7341 58.1371 77.3221L58.2745 66.0954C58.2745 65.6949 58.2973 65.26 58.612 64.9453C59.0355 64.5162 59.8251 64.4761 60.5118 64.4647L69.5469 64.3674C70.3823 64.3559 71.2349 64.3502 72.0303 64.5619C72.5395 64.6993 72.9401 64.9167 73.2433 65.1971L73.2491 65.2028Z" fill="#FFC931"/>
<path d="M38.3615 4.0169C41.2283 3.27303 44.1809 2.86104 47.162 2.82671C62.4914 2.64361 77.466 12.4855 82.9706 26.4588C87.3137 37.4795 85.517 50.4742 78.845 60.2475C71.5265 70.9649 58.4059 71.806 46.1607 71.9434C37.3831 72.0407 28.325 69.9864 21.4185 64.6935C10.312 56.1848 6.83874 40.1059 11.7826 27.1855C16.1027 15.8787 26.4768 7.09536 38.3615 4.0169Z" fill="#FFF0B0"/>
<path d="M42.0641 41.7653C42.1385 42.0113 41.1028 43.9168 41.5491 44.1342C43.8837 45.2729 46.1439 46.1484 50.9275 44.9238C53.8515 44.1743 55.4823 41.8625 56.0831 39.9285C56.8556 37.4508 56.0545 33.5198 52.0433 30.8304C48.7474 33.9261 47.3684 39.0416 44.0725 42.1372C43.4259 42.7437 41.8581 41.0729 42.0584 41.7595L42.0641 41.7653Z" fill="#FFAF22"/>
<path d="M42.3728 30.1667C42.081 30.2697 41.8006 30.3898 41.5202 30.5272C37.0685 32.7015 35.9527 39.0988 39.4546 42.6293C41.4687 44.6549 44.5415 45.4503 47.3624 45.004C50.5325 44.5004 53.5022 42.3775 54.6294 39.3677C55.7567 36.3579 54.7439 32.5757 52.0431 30.8362C50.584 29.8977 48.7987 29.5887 47.0649 29.5315C45.4799 29.48 43.8548 29.6288 42.3728 30.1667Z" fill="#FFC931"/>
<path d="M45.3256 35.4653C45.2626 35.1735 45.1768 34.8874 45.0509 34.607C44.8907 34.2408 44.6618 33.8917 44.3242 33.6857C43.9866 33.4797 43.5174 33.4397 43.2027 33.68C42.9052 33.9032 42.8022 34.3037 42.7335 34.6757C42.5447 35.7686 42.5847 36.8214 42.6591 37.9201C42.7163 38.8241 42.682 39.7339 43.1455 40.5522C43.2542 40.7468 43.403 40.9413 43.609 41.0271C43.855 41.1301 44.1468 41.0672 44.37 40.9184C44.5932 40.7696 44.7477 40.5408 44.8678 40.3004C45.2226 39.6138 45.3256 38.8299 45.3942 38.0631C45.4744 37.1991 45.5087 36.3064 45.3313 35.4653H45.3256Z" fill="#FFF0B0"/>
<path d="M50.1146 35.4653C50.0517 35.1735 49.9659 34.8874 49.84 34.607C49.6798 34.2408 49.4509 33.8917 49.1133 33.6857C48.7757 33.4797 48.3065 33.4397 47.9918 33.68C47.6942 33.9032 47.5912 34.3037 47.5226 34.6757C47.3337 35.7686 47.3738 36.8214 47.4482 37.9201C47.5054 38.8241 47.4711 39.7339 47.9345 40.5522C48.0433 40.7468 48.192 40.9413 48.398 41.0271C48.6441 41.1301 48.9359 41.0672 49.1591 40.9184C49.3822 40.7696 49.5367 40.5408 49.6569 40.3004C50.0116 39.6138 50.1146 38.8299 50.1833 38.0631C50.2634 37.1991 50.2978 36.3064 50.1204 35.4653H50.1146Z" fill="#FFF0B0"/>
<path d="M18.9983 17.0918C18.9983 17.0918 15.3019 4.8466 18.9983 0.938435C22.6948 -2.97545 33.7784 6.62615 33.7784 6.62615C33.7784 6.62615 24.2168 11.0092 18.9983 17.0975V17.0918Z" fill="#FFF0B0"/>
<path d="M61.7422 6.84359C61.7422 6.84359 67.5501 1.15015 71.7214 0.64661C72.6255 0.537891 73.5468 0.835437 74.1877 1.48775C75.5838 2.90682 77.5808 6.69482 76.0874 16.4051C76.0874 16.4051 71.0863 10.1052 61.7422 6.84359Z" fill="#FFF0B0"/>
<path d="M71.9332 3.03271C71.4583 3.01554 70.9548 3.19864 70.5142 3.40464C69.3297 3.9654 68.2597 4.71499 67.2011 5.46458C66.2284 6.15122 65.2499 6.83787 64.4202 7.66757C63.8365 8.25122 63.2987 9.04658 63.5504 9.80761C63.7679 10.4542 64.4717 10.8319 65.1183 11.1466L71.7444 14.3681C72.5627 14.7629 73.6098 15.2836 73.8959 14.1278C74.4452 11.879 74.5139 9.53868 74.2106 7.24986C74.0733 6.20272 73.8558 5.14986 73.3924 4.18284C73.1978 3.77657 72.9346 3.36458 72.5112 3.16431C72.3281 3.07848 72.1335 3.03843 71.9332 3.03271Z" fill="#FFC931"/>
<path d="M21.5963 2.86104C21.9053 2.7466 22.2601 2.67794 22.672 2.66649C23.4903 2.64361 24.3085 2.80382 25.0467 3.12998C25.9279 3.51908 26.6718 4.12562 27.4099 4.72643L30.5513 7.30136C30.8775 7.57029 31.2322 7.89073 31.238 8.30844C31.238 8.7662 30.8317 9.12097 30.454 9.41279L23.4502 14.7915C23.0955 15.0662 22.6434 15.358 22.22 15.2092C21.8824 15.0948 21.7165 14.7457 21.5906 14.4253C20.6808 12.1308 18.0143 4.21145 21.602 2.86677L21.5963 2.86104Z" fill="#FFC931"/>
<path d="M50.8417 52.5456C49.2167 52.5456 47.975 51.8933 47.9521 51.8819C47.6717 51.7331 47.5687 51.384 47.7232 51.1037C47.872 50.829 48.221 50.7203 48.4957 50.8748C48.6445 50.9549 51.9518 52.6658 54.4581 49.5702C54.6583 49.3241 55.0188 49.2841 55.2649 49.4843C55.5109 49.6846 55.551 50.0451 55.3507 50.2911C53.9145 52.0707 52.2322 52.5513 50.8417 52.5513V52.5456Z" fill="#FFAF22"/>
<path d="M33.0175 32.5642C34.6703 32.5642 36.0102 31.2244 36.0102 29.5716C36.0102 27.9188 34.6703 26.5789 33.0175 26.5789C31.3647 26.5789 30.0249 27.9188 30.0249 29.5716C30.0249 31.2244 31.3647 32.5642 33.0175 32.5642Z" fill="#2B110C"/>
<path d="M32.0676 28.9593C32.3109 28.9593 32.5082 28.7621 32.5082 28.5187C32.5082 28.2754 32.3109 28.0781 32.0676 28.0781C31.8242 28.0781 31.627 28.2754 31.627 28.5187C31.627 28.7621 31.8242 28.9593 32.0676 28.9593Z" fill="white"/>
<path d="M60.4946 32.5642C62.1474 32.5642 63.4872 31.2244 63.4872 29.5716C63.4872 27.9188 62.1474 26.5789 60.4946 26.5789C58.8418 26.5789 57.502 27.9188 57.502 29.5716C57.502 31.2244 58.8418 32.5642 60.4946 32.5642Z" fill="#2B110C"/>
<path d="M59.5446 28.9593C59.7879 28.9593 59.9852 28.7621 59.9852 28.5187C59.9852 28.2754 59.7879 28.0781 59.5446 28.0781C59.3013 28.0781 59.104 28.2754 59.104 28.5187C59.104 28.7621 59.3013 28.9593 59.5446 28.9593Z" fill="white"/>
<path d="M10.301 29.4171C10.3411 29.48 10.3868 29.5372 10.444 29.5945C10.9648 30.058 13.6141 29.749 14.335 29.7547C16.9329 29.7661 19.5421 29.5716 22.0655 28.9364C25.9623 27.958 29.693 25.8408 31.9475 22.522C33.8358 19.7468 34.757 17.5953 35.1347 15.1177C35.2434 14.391 36.2505 14.2308 36.5709 14.8945C37.4178 16.6512 38.751 18.0416 40.8796 19.9356C44.7592 23.3689 49.8289 25.2743 54.9616 25.9438C59.5679 26.5446 64.2485 26.207 68.8433 25.4746C69.3011 25.4002 69.4041 24.7822 68.9921 24.5705C67.2869 23.6893 65.7706 22.4419 64.5861 20.9256C64.5003 20.8168 64.6147 20.6623 64.7463 20.7138C67.6302 21.8411 70.6629 22.6021 73.7414 22.9626C74.2278 23.0198 74.5081 22.419 74.1534 22.0814C70.1937 18.3792 66.2913 14.3967 64.5746 9.29835C64.3286 8.56021 64.1169 7.79345 63.6534 7.16975C63.2986 6.69482 62.818 6.33433 62.3144 6.0139C60.6779 4.96676 58.8526 4.24006 56.9586 3.83379C51.8431 2.74088 46.5502 2.47767 41.3488 3.04987C38.4764 3.36459 35.066 4.21717 32.7829 5.98528C33.5268 6.98092 34.059 7.62751 33.5211 8.75476C33.1263 9.58446 32.2908 10.0594 31.6042 10.6716C30.5685 11.5929 29.2925 12.3768 28.211 13.2408C26.9693 14.2308 25.0696 15.5983 23.2099 16.3079C21.0527 17.1318 20.1773 18.0016 18.7639 15.8787C18.5007 15.4839 14.1519 20.9084 13.8315 21.3547C12.5498 23.1171 11.5084 25.0569 10.753 27.1054C10.4841 27.8435 9.93479 28.8334 10.2896 29.4285L10.301 29.4171Z" fill="#FED752"/>
<path d="M68.6029 16.3079C69.6729 17.1833 70.8402 17.9444 72.059 18.5967C73.6956 19.4722 75.4236 20.1588 77.186 20.731C78.0786 21.0171 78.9827 21.2746 79.8925 21.5149C80.3389 21.6294 80.7852 21.7438 81.2315 21.8468C81.6778 21.9498 82.0326 21.8125 81.6778 21.3719C79.6293 18.837 79.2574 17.8986 76.9457 16.1534C76.4192 16.8057 75.5209 17.4294 74.7141 17.2005C73.5182 16.8629 72.4424 16.1991 71.3438 15.6098C69.0721 14.391 66.6117 13.4411 64.6719 11.7474C65.6732 13.5098 67.0351 15.0318 68.6086 16.3136L68.6029 16.3079Z" fill="#FED752"/>
<path d="M30.9175 27.7977C30.8088 27.7977 30.7058 27.7405 30.66 27.6375C30.517 27.3343 30.002 26.5217 29.384 26.4359C29.2295 26.413 29.1208 26.27 29.1437 26.1097C29.1666 25.9495 29.3096 25.8465 29.4698 25.8694C30.517 26.0182 31.1578 27.34 31.1807 27.3972C31.2494 27.5403 31.1864 27.7119 31.0434 27.7806C31.0033 27.7977 30.9633 27.8092 30.9232 27.8092L30.9175 27.7977Z" fill="#2B110C"/>
<path d="M31.896 27.0882C31.7587 27.0882 31.6385 26.9909 31.6156 26.8479C31.5584 26.516 31.2837 25.5948 30.7172 25.343C30.5742 25.28 30.5055 25.1084 30.5742 24.9653C30.6371 24.8223 30.8088 24.7536 30.9518 24.8223C31.9189 25.2514 32.1764 26.6934 32.1878 26.7563C32.2164 26.9108 32.1077 27.0596 31.9532 27.0882C31.936 27.0882 31.9189 27.0882 31.9074 27.0882H31.896Z" fill="#2B110C"/>
<path d="M62.6403 27.7977C62.6003 27.7977 62.5545 27.7863 62.5202 27.7691C62.3771 27.7005 62.3142 27.5288 62.3828 27.3858C62.4115 27.3285 63.0466 26.0125 64.0937 25.858C64.2482 25.8351 64.397 25.9438 64.4199 26.0983C64.4428 26.2528 64.3341 26.4016 64.1796 26.4244C63.5616 26.5103 63.0466 27.3228 62.9035 27.6261C62.8521 27.7291 62.7491 27.7863 62.6461 27.7863L62.6403 27.7977Z" fill="#2B110C"/>
<path d="M61.6678 27.0882C61.6678 27.0882 61.6334 27.0882 61.622 27.0882C61.4675 27.0596 61.3588 26.9165 61.3874 26.7563C61.3988 26.6934 61.6506 25.2514 62.6234 24.8223C62.7664 24.7593 62.9381 24.8223 63.001 24.9653C63.064 25.1084 63.001 25.28 62.858 25.343C62.2858 25.5948 62.0168 26.516 61.9596 26.8479C61.9367 26.9852 61.8165 27.0882 61.6792 27.0882H61.6678Z" fill="#2B110C"/>
</g>
<defs>
<clipPath id="clip0_195_3529">
<rect width="97.561" height="80" fill="white"/>
</clipPath>
</defs>
</svg>
