<svg width="100%" height="100%" viewBox="0 0 155 186" fill="none" xmlns="http://www.w3.org/2000/svg">
<g clip-path="url(#clip0_113_24001)">
<path d="M142.792 125.32C143.542 125.24 144.292 125.18 145.052 125.14C145.692 125.1 146.052 125.02 146.682 124.93C147.122 124.87 148.272 124.58 148.682 124.42C150.692 123.62 152.132 122.5 153.572 120.88C153.672 120.77 153.772 120.65 153.872 120.53C154.372 119.93 154.832 119.25 154.952 118.47C155.072 117.69 154.722 116.8 154.002 116.5C153.382 116.24 152.652 116.46 152.112 116.86C151.572 117.26 151.172 117.81 150.722 118.31C149.992 119.13 149.112 119.83 148.152 120.36C147.632 120.65 147.032 120.89 146.452 120.82C146.252 120.8 146.112 120.62 146.142 120.42C146.332 119.21 146.662 118.03 146.862 116.83C147.082 115.52 147.142 114.15 146.692 112.9C146.142 111.37 144.852 110.17 143.372 109.48C141.902 108.79 140.172 108.56 138.652 109.11C136.652 109.84 135.302 111.81 134.822 113.88C134.162 116.71 134.962 119.85 136.892 122.02C136.992 122.13 136.942 122.31 136.792 122.34C134.902 122.78 132.932 122.84 131.022 122.52C130.812 123.02 130.512 125 130.912 126.28C130.952 126.42 131.012 126.57 131.132 126.66C131.232 126.73 132.662 126.81 132.782 126.81C134.782 126.92 136.762 126.69 138.682 126.12C140.032 125.72 141.412 125.48 142.802 125.33L142.792 125.32ZM138.542 115.46C138.542 115.46 138.542 115.4 138.542 115.37C138.562 114.73 138.712 114.08 139.062 113.54C139.412 113 139.982 112.59 140.622 112.52C141.102 112.47 141.602 112.62 141.992 112.91C142.382 113.2 142.682 113.61 142.852 114.06C143.122 114.76 143.112 115.55 143.012 116.29C142.862 117.35 142.532 118.37 142.042 119.32C141.942 119.51 141.802 119.77 141.592 119.86C141.382 119.95 141.062 119.78 140.872 119.68C140.112 119.27 139.502 118.63 139.092 117.87C138.682 117.11 138.522 116.31 138.532 115.48L138.542 115.46Z" fill="#5FD147"/>
<path d="M37.5916 150.74C35.6216 152.57 35.9216 155.94 35.7916 158.2C35.5416 162.52 35.8216 166.86 36.6316 171.14C36.7616 171.81 36.9116 172.51 37.4516 173.02C37.9616 173.5 38.7216 173.74 39.4616 173.93C45.5916 175.55 52.3116 175.65 58.5116 174.21C59.5916 173.96 60.7516 173.6 61.3216 172.8C61.7416 172.21 61.7416 171.49 61.7316 170.8L61.5116 152.23C61.5116 151.57 61.4716 150.85 60.9716 150.33C60.2916 149.62 59.0316 149.55 57.9316 149.54L43.4916 149.38C42.1516 149.37 40.7916 149.35 39.5216 149.7C38.7016 149.93 38.0716 150.29 37.5816 150.75L37.5916 150.74Z" fill="#5FD147"/>
<path d="M117.332 149.54C119.302 151.37 119.002 154.74 119.132 157C119.382 161.32 119.102 165.66 118.292 169.94C118.162 170.61 118.012 171.31 117.472 171.82C116.962 172.3 116.202 172.54 115.462 172.73C109.332 174.35 102.612 174.45 96.4119 173.01C95.3319 172.76 94.1719 172.4 93.6019 171.6C93.1819 171.01 93.1819 170.29 93.1919 169.6L93.4119 151.03C93.4119 150.37 93.4519 149.65 93.9519 149.13C94.6319 148.42 95.8919 148.35 96.9919 148.34L111.432 148.18C112.772 148.17 114.132 148.15 115.402 148.5C116.222 148.73 116.852 149.09 117.342 149.55L117.332 149.54Z" fill="#5FD147"/>
<path d="M29.5417 159.21C27.3817 161.15 27.7217 164.7 27.5817 167.09C27.3117 171.65 27.6217 176.24 28.5017 180.75C28.6417 181.45 28.8117 182.2 29.4017 182.74C29.9517 183.25 30.7917 183.5 31.6017 183.7C38.3017 185.41 45.6517 185.52 52.4317 183.99C53.6117 183.72 54.8817 183.35 55.5017 182.5C55.9617 181.87 55.9617 181.11 55.9517 180.39L55.7117 160.77C55.7117 160.07 55.6717 159.31 55.1217 158.76C54.3817 158.01 53.0017 157.94 51.8017 157.92L36.0117 157.75C34.5517 157.73 33.0617 157.72 31.6717 158.09C30.7817 158.33 30.0817 158.71 29.5517 159.2L29.5417 159.21Z" fill="#7DDD6F"/>
<path d="M112.801 159.21C114.961 161.15 114.621 164.7 114.761 167.09C115.031 171.65 114.721 176.24 113.841 180.75C113.701 181.45 113.531 182.2 112.941 182.74C112.391 183.25 111.551 183.5 110.741 183.7C104.041 185.41 96.6911 185.52 89.9111 183.99C88.7311 183.72 87.4611 183.35 86.8411 182.5C86.3811 181.87 86.3811 181.11 86.3911 180.39L86.6311 160.77C86.6311 160.07 86.6711 159.31 87.2211 158.76C87.9611 158.01 89.3411 157.94 90.5411 157.92L106.331 157.75C107.791 157.73 109.281 157.72 110.671 158.09C111.561 158.33 112.261 158.71 112.791 159.2L112.801 159.21Z" fill="#7DDD6F"/>
<path d="M51.2915 52.0102C56.3015 50.7102 61.4615 49.9902 66.6715 49.9302C93.4615 49.6102 119.631 66.8102 129.251 91.2302C136.841 110.49 133.701 133.2 122.041 150.28C109.251 169.01 86.3215 170.48 64.9215 170.72C49.5815 170.89 33.7515 167.3 21.6815 158.05C2.2715 143.17 -3.7985 115.07 4.8415 92.5002C12.4015 72.7502 30.5215 57.4002 51.2915 52.0102Z" fill="#CEFFC7"/>
<path d="M58.3019 118.25C58.4319 118.68 56.6219 122.01 57.4019 122.39C61.4819 124.38 65.4319 125.91 73.7919 123.77C78.9019 122.46 81.7519 118.42 82.8019 115.04C84.1519 110.71 82.7519 103.84 75.7419 99.1401C69.9819 104.55 67.5719 113.49 61.8119 118.9C60.6819 119.96 57.9419 117.04 58.2919 118.24L58.3019 118.25Z" fill="#5FD147"/>
<path d="M58.8417 97.9802C58.3317 98.1602 57.8417 98.3702 57.3517 98.6102C49.5717 102.41 47.6217 113.59 53.7417 119.76C57.2617 123.3 62.6317 124.69 67.5617 123.91C73.1017 123.03 78.2917 119.32 80.2617 114.06C82.2317 108.8 80.4617 102.19 75.7417 99.1502C73.1917 97.5102 70.0717 96.9702 67.0417 96.8702C64.2717 96.7802 61.4317 97.0402 58.8417 97.9802Z" fill="#7DDD6F"/>
<path d="M64.0016 107.24C63.8916 106.73 63.7416 106.23 63.5216 105.74C63.2416 105.1 62.8416 104.49 62.2516 104.13C61.6616 103.77 60.8416 103.7 60.2916 104.12C59.7716 104.51 59.5916 105.21 59.4716 105.86C59.1416 107.77 59.2116 109.61 59.3416 111.53C59.4416 113.11 59.3816 114.7 60.1916 116.13C60.3816 116.47 60.6416 116.81 61.0016 116.96C61.4316 117.14 61.9416 117.03 62.3316 116.77C62.7216 116.51 62.9916 116.11 63.2016 115.69C63.8216 114.49 64.0016 113.12 64.1216 111.78C64.2616 110.27 64.3216 108.71 64.0116 107.24H64.0016Z" fill="#CEFFC7"/>
<path d="M72.361 107.24C72.251 106.73 72.101 106.23 71.881 105.74C71.601 105.1 71.201 104.49 70.611 104.13C70.021 103.77 69.201 103.7 68.651 104.12C68.131 104.51 67.951 105.21 67.831 105.86C67.501 107.77 67.571 109.61 67.701 111.53C67.801 113.11 67.741 114.7 68.551 116.13C68.741 116.47 69.001 116.81 69.361 116.96C69.791 117.14 70.301 117.03 70.691 116.77C71.081 116.51 71.351 116.11 71.561 115.69C72.181 114.49 72.361 113.12 72.481 111.78C72.621 110.27 72.681 108.71 72.371 107.24H72.361Z" fill="#CEFFC7"/>
<path d="M17.9912 75.1303C17.9912 75.1303 11.5312 53.7303 17.9912 46.9003C24.4512 40.0603 43.8212 56.8403 43.8212 56.8403C43.8212 56.8403 27.1112 64.5003 17.9912 75.1403V75.1303Z" fill="#CEFFC7"/>
<path d="M92.6914 57.2101C92.6914 57.2101 102.841 47.2601 110.131 46.3801C111.711 46.1901 113.321 46.7101 114.441 47.8501C116.881 50.3301 120.371 56.9501 117.761 73.9201C117.761 73.9201 109.021 62.9101 92.6914 57.2101Z" fill="#CEFFC7"/>
<path d="M110.501 50.5503C109.671 50.5203 108.791 50.8403 108.021 51.2003C105.951 52.1803 104.081 53.4903 102.231 54.8003C100.531 56.0003 98.8214 57.2003 97.3714 58.6503C96.3514 59.6703 95.4114 61.0603 95.8514 62.3903C96.2314 63.5203 97.4614 64.1803 98.5914 64.7303L110.171 70.3603C111.601 71.0503 113.431 71.9603 113.931 69.9403C114.891 66.0103 115.011 61.9203 114.481 57.9203C114.241 56.0903 113.861 54.2503 113.051 52.5603C112.711 51.8503 112.251 51.1303 111.511 50.7803C111.191 50.6303 110.851 50.5603 110.501 50.5503Z" fill="#5FD147"/>
<path d="M22.5315 50.2603C23.0715 50.0603 23.6915 49.9403 24.4115 49.9203C25.8415 49.8803 27.2715 50.1603 28.5615 50.7303C30.1015 51.4103 31.4015 52.4703 32.6915 53.5203L38.1815 58.0203C38.7515 58.4903 39.3715 59.0503 39.3815 59.7803C39.3815 60.5803 38.6715 61.2003 38.0115 61.7103L25.7715 71.1103C25.1515 71.5903 24.3615 72.1003 23.6215 71.8403C23.0315 71.6403 22.7415 71.0303 22.5215 70.4703C20.9315 66.4603 16.2715 52.6203 22.5415 50.2703L22.5315 50.2603Z" fill="#5FD147"/>
<path d="M73.642 137.08C70.802 137.08 68.632 135.94 68.592 135.92C68.102 135.66 67.922 135.05 68.192 134.56C68.452 134.08 69.062 133.89 69.542 134.16C69.802 134.3 75.582 137.29 79.962 131.88C80.312 131.45 80.942 131.38 81.372 131.73C81.802 132.08 81.872 132.71 81.522 133.14C79.012 136.25 76.072 137.09 73.642 137.09V137.08Z" fill="#5FD147"/>
<path d="M42.4917 102.17C45.3802 102.17 47.7217 99.8289 47.7217 96.9405C47.7217 94.052 45.3802 91.7104 42.4917 91.7104C39.6033 91.7104 37.2617 94.052 37.2617 96.9405C37.2617 99.8289 39.6033 102.17 42.4917 102.17Z" fill="#2B110C"/>
<path d="M40.8315 95.8701C41.2568 95.8701 41.6015 95.5253 41.6015 95.1001C41.6015 94.6748 41.2568 94.3301 40.8315 94.3301C40.4063 94.3301 40.0615 94.6748 40.0615 95.1001C40.0615 95.5253 40.4063 95.8701 40.8315 95.8701Z" fill="white"/>
<path d="M90.5113 102.17C93.3997 102.17 95.7412 99.8289 95.7412 96.9405C95.7412 94.052 93.3997 91.7104 90.5113 91.7104C87.6228 91.7104 85.2812 94.052 85.2812 96.9405C85.2812 99.8289 87.6228 102.17 90.5113 102.17Z" fill="#2B110C"/>
<path d="M88.8511 95.8701C89.2763 95.8701 89.6211 95.5253 89.6211 95.1001C89.6211 94.6748 89.2763 94.3301 88.8511 94.3301C88.4258 94.3301 88.0811 94.6748 88.0811 95.1001C88.0811 95.5253 88.4258 95.8701 88.8511 95.8701Z" fill="white"/>
<path d="M46.5811 16.61C46.9911 12.83 48.4711 8.51004 50.4611 5.36004C51.2611 4.09004 52.2711 2.90004 53.5711 2.25004C54.8911 1.59004 56.4711 1.55004 57.8111 2.16004C59.3211 2.84004 60.4411 4.26004 61.1711 5.82004C61.9011 7.38004 62.2611 9.11004 62.6211 10.81L54.5111 13.78L50.5311 15.24C49.4111 15.65 47.7311 16.66 46.5911 16.61H46.5811Z" fill="#7DDD6F"/>
<path d="M69.8311 10.7802L70.8811 7.96022C71.4811 6.36022 72.0811 4.75022 73.0011 3.34022C73.9211 1.93022 75.1911 0.710216 76.7311 0.230216C78.2011 -0.229784 79.7911 0.020216 81.2211 0.610216C84.3911 1.93022 86.7511 4.88022 88.3811 8.08022C90.011 11.2802 91.4011 15.7902 92.7211 19.1402C93.0511 19.9702 93.9511 21.4602 92.5411 21.1002C91.4711 20.8302 88.361 18.9602 87.341 18.5302C85.181 17.6302 84.6711 16.9602 82.5111 16.0602C81.4711 15.6302 70.191 10.9002 69.841 10.7702L69.8311 10.7802Z" fill="#7DDD6F"/>
<path d="M34.1614 67.47C33.8548 65.77 33.6581 64.6533 33.5714 64.12C32.9814 60.6 32.5414 57.02 32.6614 53.43C32.8314 48.15 34.2914 42.74 37.6614 38.87C38.2914 38.14 39.0214 37.41 39.1914 36.43C39.3014 35.78 39.1514 35.12 39.0314 34.48C37.8114 27.53 41.5014 20.33 46.9114 16.26C52.3214 12.19 59.1414 10.83 65.7514 10.7C71.4414 10.59 77.1814 11.33 82.5214 13.44C87.8514 15.55 92.7714 19.08 96.2014 23.93C100.721 30.31 102.421 38.53 102.541 46.53C102.651 53.64 101.611 60.7 100.711 67.76C100.561 68.94 99.4514 69.67 98.4014 69.28C94.6014 67.88 86.5614 65.95 85.5214 65.72C80.3514 64.58 75.1014 63.9 69.8314 63.67C59.2914 63.22 48.4614 63.93 38.5714 67.84C38.0514 68.04 37.2614 68.41 36.3914 68.75C35.4214 69.12 34.3514 68.55 34.1514 67.47H34.1614Z" fill="#40AF25"/>
<path d="M104.231 44.0702C95.2009 36.5802 83.5409 31.4202 72.2309 29.7002C69.0809 29.2202 65.9209 29.0202 62.7709 29.0702C63.3409 28.7102 63.8709 28.2702 64.4409 27.7802C65.8809 26.5402 67.3309 25.2902 68.5009 23.7202C68.6309 23.5502 68.8409 23.2002 68.8509 22.9702C68.8509 22.6802 68.7109 22.4502 68.5409 22.2502C67.9809 21.5502 67.2509 20.6402 66.5109 21.0402C66.2209 21.2002 65.7209 21.6302 65.4609 21.8502C64.0009 23.0902 62.5809 24.2202 61.1209 25.4602C61.0009 25.5702 60.8509 25.6802 60.7009 25.6402C60.4609 25.5902 60.3909 25.2402 60.3709 24.9602C60.0709 20.1902 60.6409 15.3402 62.0409 10.8302C60.6909 10.7902 59.3309 10.9502 58.0109 11.3002C57.7009 11.3802 57.3809 11.4802 57.1309 11.6902C56.7009 12.0402 56.4909 12.6502 56.3309 13.2402C55.2909 17.1102 55.5809 21.2602 55.5609 25.3102C55.5609 25.6402 55.5209 26.0402 55.2609 26.2002C55.0709 26.3102 54.8509 26.2402 54.6509 26.1602C53.0609 25.5602 51.5209 24.7702 50.0609 23.8202C49.7709 23.6302 49.4609 23.4202 49.1209 23.4402C48.5409 23.4802 48.1709 24.1402 47.9209 24.7402C47.8009 25.0302 47.6709 25.5202 47.7309 25.8302C47.8009 26.2002 48.0909 26.4502 48.3709 26.6602C49.9409 27.8802 51.5609 29.0202 53.2209 30.0902C48.3509 31.0602 43.5509 32.7302 38.8909 35.1502C38.4609 35.3702 37.9909 35.8802 38.0109 36.3902C38.0109 36.4302 37.1209 37.4202 37.1309 37.4502C37.2009 37.8402 37.5909 38.1202 37.9709 38.1502C38.3809 38.1902 38.7809 38.0102 39.1709 37.8402C53.9409 31.3202 72.0509 30.4502 86.7709 37.1402C90.0209 38.6202 93.1409 40.4002 96.2409 42.2102C97.7909 43.1202 99.3309 44.0402 100.891 44.9402C101.391 45.2302 104.781 47.5202 104.241 45.2302C104.121 44.7402 104.621 44.3902 104.241 44.0802L104.231 44.0702Z" fill="#CEFFC7"/>
</g>
<defs>
<clipPath id="clip0_113_24001">
<rect width="153.96" height="185.06" fill="white" transform="translate(0.839844)"/>
</clipPath>
</defs>
</svg>
