<svg width="100%" height="100%" viewBox="0 0 173 148" fill="none" xmlns="http://www.w3.org/2000/svg">
<g clip-path="url(#clip0_176_41420)">
<path d="M166.36 119.28H7.55016C3.88299 119.28 0.910156 122.253 0.910156 125.92V140.55C0.910156 144.217 3.88299 147.19 7.55016 147.19H166.36C170.027 147.19 173 144.217 173 140.55V125.92C173 122.253 170.027 119.28 166.36 119.28Z" fill="#C7C9D1"/>
<path d="M160.831 80.0601C161.581 79.9801 162.331 79.9201 163.091 79.8801C163.731 79.8401 164.091 79.7601 164.721 79.6701C165.161 79.6101 166.311 79.3201 166.721 79.1601C168.731 78.3601 170.171 77.2401 171.611 75.6201C171.711 75.5101 171.811 75.3901 171.911 75.2701C172.411 74.6701 172.871 73.9901 172.991 73.2101C173.111 72.4301 172.761 71.5401 172.041 71.2401C171.421 70.9801 170.691 71.2001 170.151 71.6001C169.611 72.0001 169.211 72.5501 168.761 73.0501C168.031 73.8701 167.151 74.5701 166.191 75.1001C165.671 75.3901 165.071 75.6301 164.491 75.5601C164.291 75.5401 164.151 75.3601 164.181 75.1601C164.371 73.9501 164.701 72.7701 164.901 71.5701C165.121 70.2601 165.181 68.8901 164.731 67.6401C164.181 66.1101 162.891 64.9101 161.411 64.2201C159.941 63.5301 158.211 63.3001 156.691 63.8501C154.691 64.5801 153.341 66.5501 152.861 68.6201C152.201 71.4501 153.001 74.5901 154.931 76.7601C155.031 76.8701 154.981 77.0501 154.831 77.0801C152.941 77.5201 150.971 77.5801 149.061 77.2601C148.851 77.7601 148.551 79.7401 148.951 81.0201C148.991 81.1601 149.051 81.3101 149.171 81.4001C149.271 81.4701 150.701 81.5501 150.821 81.5501C152.821 81.6601 154.801 81.4301 156.721 80.8601C158.071 80.4601 159.451 80.2201 160.841 80.0701L160.831 80.0601ZM156.581 70.2001C156.581 70.2001 156.581 70.1401 156.581 70.1101C156.601 69.4701 156.751 68.8201 157.101 68.2801C157.451 67.7401 158.021 67.3301 158.661 67.2601C159.141 67.2101 159.641 67.3601 160.031 67.6501C160.421 67.9401 160.721 68.3501 160.891 68.8001C161.161 69.5001 161.151 70.2901 161.051 71.0301C160.901 72.0901 160.571 73.1101 160.081 74.0601C159.981 74.2501 159.841 74.5101 159.631 74.6001C159.421 74.6901 159.101 74.5201 158.911 74.4201C158.151 74.0101 157.541 73.3701 157.131 72.6101C156.721 71.8501 156.561 71.0501 156.571 70.2201L156.581 70.2001Z" fill="#C7C9D1"/>
<path d="M69.3306 6.74992C74.3406 5.44992 79.5006 4.72992 84.7106 4.66992C111.501 4.34992 137.671 21.5499 147.291 45.9699C154.881 65.2299 151.741 87.9399 140.081 105.02C127.291 123.75 104.361 125.22 82.9606 125.46C67.6206 125.63 51.7906 122.04 39.7206 112.79C20.3106 97.9199 14.2406 69.8199 22.8806 47.2399C30.4406 27.4899 48.5606 12.1399 69.3306 6.74992Z" fill="#E8EDED"/>
<path d="M76.34 72.9899C76.47 73.4199 74.66 76.7499 75.44 77.1299C79.52 79.1199 83.47 80.6499 91.83 78.5099C96.94 77.1999 99.79 73.1599 100.84 69.7799C102.19 65.4499 100.79 58.5799 93.78 53.8799C88.02 59.2899 85.61 68.2299 79.85 73.6399C78.72 74.6999 75.98 71.7799 76.33 72.9799L76.34 72.9899Z" fill="#C7C9D1"/>
<path d="M76.8798 52.72C76.3698 52.9 75.8798 53.11 75.3898 53.35C67.6098 57.15 65.6598 68.33 71.7798 74.5C75.2998 78.04 80.6698 79.43 85.5998 78.65C91.1398 77.77 96.3298 74.06 98.2998 68.8C100.27 63.54 98.4998 56.93 93.7798 53.89C91.2298 52.25 88.1098 51.71 85.0798 51.61C82.3098 51.52 79.4698 51.78 76.8798 52.72Z" fill="#D5D8E0"/>
<path d="M82.03 61.98C81.92 61.47 81.77 60.97 81.55 60.48C81.27 59.84 80.87 59.23 80.28 58.87C79.69 58.51 78.87 58.44 78.32 58.86C77.8 59.25 77.62 59.95 77.5 60.6C77.17 62.51 77.24 64.35 77.37 66.27C77.47 67.85 77.41 69.44 78.22 70.87C78.41 71.21 78.67 71.55 79.03 71.7C79.46 71.88 79.97 71.77 80.36 71.51C80.75 71.25 81.02 70.85 81.23 70.43C81.85 69.23 82.03 67.86 82.15 66.52C82.29 65.01 82.35 63.45 82.04 61.98H82.03Z" fill="#E8EDED"/>
<path d="M90.4001 61.98C90.2901 61.47 90.1401 60.97 89.9201 60.48C89.6401 59.84 89.2401 59.23 88.6501 58.87C88.0601 58.51 87.2401 58.44 86.6901 58.86C86.1701 59.25 85.9901 59.95 85.8701 60.6C85.5401 62.51 85.6101 64.35 85.7401 66.27C85.8401 67.85 85.7801 69.44 86.5901 70.87C86.7801 71.21 87.0401 71.55 87.4001 71.7C87.8301 71.88 88.3401 71.77 88.7301 71.51C89.1201 71.25 89.3901 70.85 89.6001 70.43C90.2201 69.23 90.4001 67.86 90.5201 66.52C90.6601 65.01 90.7201 63.45 90.4101 61.98H90.4001Z" fill="#E8EDED"/>
<path d="M36.0303 29.87C36.0303 29.87 29.5703 8.47003 36.0303 1.64003C42.4903 -5.19997 61.8603 11.58 61.8603 11.58C61.8603 11.58 45.1503 19.24 36.0303 29.88V29.87Z" fill="#E8EDED"/>
<path d="M110.73 11.9601C110.73 11.9601 120.88 2.01015 128.17 1.13015C129.75 0.940149 131.36 1.46015 132.48 2.60015C134.92 5.08015 138.41 11.7001 135.8 28.6701C135.8 28.6701 127.06 17.6601 110.73 11.9601Z" fill="#E8EDED"/>
<path d="M128.53 5.29981C127.7 5.26981 126.82 5.5898 126.05 5.9498C123.98 6.9298 122.11 8.23981 120.26 9.54981C118.56 10.7498 116.85 11.9498 115.4 13.3998C114.38 14.4198 113.44 15.8098 113.88 17.1398C114.26 18.2698 115.49 18.9298 116.62 19.4798L128.2 25.1098C129.63 25.7998 131.46 26.7098 131.96 24.6898C132.92 20.7598 133.04 16.6698 132.51 12.6698C132.27 10.8398 131.89 8.9998 131.08 7.3098C130.74 6.5998 130.28 5.87981 129.54 5.52981C129.22 5.37981 128.88 5.30981 128.53 5.29981Z" fill="#C7C9D1"/>
<path d="M40.5706 5.00001C41.1106 4.80001 41.7306 4.68001 42.4506 4.66001C43.8806 4.62001 45.3106 4.90001 46.6006 5.47001C48.1406 6.15001 49.4406 7.21001 50.7306 8.26001L56.2206 12.76C56.7906 13.23 57.4106 13.79 57.4206 14.52C57.4206 15.32 56.7106 15.94 56.0506 16.45L43.8106 25.85C43.1906 26.33 42.4006 26.84 41.6606 26.58C41.0706 26.38 40.7806 25.77 40.5606 25.21C38.9706 21.2 34.3106 7.36001 40.5806 5.01001L40.5706 5.00001Z" fill="#C7C9D1"/>
<path d="M94.2205 86.2502C97.0605 86.2502 99.2305 87.3902 99.2705 87.4102C99.7605 87.6702 99.9405 88.2802 99.6705 88.7702C99.4105 89.2502 98.8005 89.4402 98.3205 89.1702C98.0605 89.0302 92.2805 86.0402 87.9005 91.4502C87.5505 91.8802 86.9205 91.9502 86.4905 91.6002C86.0605 91.2502 85.9905 90.6202 86.3405 90.1902C88.8505 87.0802 91.7905 86.2402 94.2205 86.2402V86.2502Z" fill="#C7C9D1"/>
<path d="M60.5298 56.9102C63.4183 56.9102 65.7598 54.5686 65.7598 51.6802C65.7598 48.7917 63.4183 46.4502 60.5298 46.4502C57.6414 46.4502 55.2998 48.7917 55.2998 51.6802C55.2998 54.5686 57.6414 56.9102 60.5298 56.9102Z" fill="#2B110C"/>
<path d="M59.3103 51.9301C60.1553 51.9301 60.8403 51.2451 60.8403 50.4001C60.8403 49.5551 60.1553 48.8701 59.3103 48.8701C58.4653 48.8701 57.7803 49.5551 57.7803 50.4001C57.7803 51.2451 58.4653 51.9301 59.3103 51.9301Z" fill="white"/>
<path d="M58.8706 54.3203C59.2958 54.3203 59.6406 53.9755 59.6406 53.5503C59.6406 53.125 59.2958 52.7803 58.8706 52.7803C58.4453 52.7803 58.1006 53.125 58.1006 53.5503C58.1006 53.9755 58.4453 54.3203 58.8706 54.3203Z" fill="white"/>
<path d="M61.9898 53.8898C62.625 53.8898 63.1398 53.375 63.1398 52.7398C63.1398 52.1047 62.625 51.5898 61.9898 51.5898C61.3547 51.5898 60.8398 52.1047 60.8398 52.7398C60.8398 53.375 61.3547 53.8898 61.9898 53.8898Z" fill="white"/>
<path d="M108.55 56.9102C111.439 56.9102 113.78 54.5686 113.78 51.6802C113.78 48.7917 111.439 46.4502 108.55 46.4502C105.662 46.4502 103.32 48.7917 103.32 51.6802C103.32 54.5686 105.662 56.9102 108.55 56.9102Z" fill="#2B110C"/>
<path d="M36.74 107.45C36.2 109.06 35.93 110.79 35.84 112.51C35.71 115 35.94 117.6 37.1 119.74C38.27 121.89 40.25 123.37 42.23 124.62C47.11 127.69 52.44 129.88 57.91 131.33C62.97 132.68 68.8 134.07 72.78 129.3C75.06 126.58 75.85 122.46 74.71 118.99C73.85 116.38 72.03 114.26 69.94 112.67C67.85 111.08 65.51 109.96 63.2 108.82C57.21 105.86 51.13 102.58 44.56 102.11C42.82 101.99 40.97 102.1 39.52 103.14C38.64 103.77 37.97 104.7 37.46 105.7C37.17 106.26 36.93 106.84 36.73 107.43L36.74 107.45Z" fill="#D5D8E0"/>
<path d="M136.97 107.45C137.51 109.06 137.78 110.79 137.87 112.51C138 115 137.77 117.6 136.61 119.74C135.44 121.89 133.46 123.37 131.48 124.62C126.6 127.69 121.27 129.88 115.8 131.33C110.74 132.68 104.91 134.07 100.93 129.3C98.6504 126.58 97.8604 122.46 99.0004 118.99C99.8604 116.38 101.68 114.26 103.77 112.67C105.86 111.08 108.2 109.96 110.51 108.82C116.5 105.86 122.58 102.58 129.15 102.11C130.89 101.99 132.74 102.1 134.19 103.14C135.07 103.77 135.74 104.7 136.25 105.7C136.54 106.26 136.78 106.84 136.98 107.43L136.97 107.45Z" fill="#D5D8E0"/>
<path d="M110.04 51.9301C110.885 51.9301 111.57 51.2451 111.57 50.4001C111.57 49.5551 110.885 48.8701 110.04 48.8701C109.195 48.8701 108.51 49.5551 108.51 50.4001C108.51 51.2451 109.195 51.9301 110.04 51.9301Z" fill="white"/>
<path d="M110.48 54.3203C110.905 54.3203 111.25 53.9755 111.25 53.5503C111.25 53.125 110.905 52.7803 110.48 52.7803C110.055 52.7803 109.71 53.125 109.71 53.5503C109.71 53.9755 110.055 54.3203 110.48 54.3203Z" fill="white"/>
<path d="M107.36 53.8898C107.995 53.8898 108.51 53.375 108.51 52.7398C108.51 52.1047 107.995 51.5898 107.36 51.5898C106.725 51.5898 106.21 52.1047 106.21 52.7398C106.21 53.375 106.725 53.8898 107.36 53.8898Z" fill="white"/>
<path d="M51.1003 56.9102C51.1003 56.9102 48.3103 57.3902 46.8403 59.0402C45.3703 60.6902 46.0503 63.0402 47.9203 64.0702C49.5303 64.9502 51.9803 65.0002 54.1403 59.7202" fill="#CDE7FC"/>
<path d="M49.53 65.05C48.91 65.05 48.28 64.88 47.65 64.54C46.56 63.94 45.78 62.87 45.58 61.69C45.39 60.59 45.69 59.52 46.43 58.69C48.01 56.92 50.88 56.41 51 56.39C51.3 56.34 51.57 56.54 51.62 56.83C51.67 57.12 51.47 57.4 51.18 57.45C51.15 57.45 48.55 57.92 47.22 59.41C46.7 59.99 46.49 60.74 46.62 61.51C46.77 62.38 47.34 63.16 48.15 63.61C48.89 64.01 49.6 64.1 50.27 63.86C51.49 63.43 52.62 61.97 53.62 59.52C53.73 59.25 54.05 59.12 54.32 59.23C54.59 59.34 54.72 59.65 54.61 59.93C53.49 62.67 52.15 64.33 50.63 64.87C50.27 65 49.89 65.06 49.51 65.06L49.53 65.05Z" fill="#86BCFC"/>
<path d="M117.141 56.9102C117.141 56.9102 119.931 57.3902 121.401 59.0402C122.871 60.6902 122.191 63.0402 120.321 64.0702C118.711 64.9502 116.261 65.0002 114.101 59.7202" fill="#CDE7FC"/>
<path d="M118.71 65.0502C118.33 65.0502 117.96 64.9902 117.59 64.8602C116.07 64.3202 114.73 62.6602 113.61 59.9202C113.5 59.6502 113.63 59.3302 113.9 59.2202C114.17 59.1102 114.49 59.2402 114.6 59.5102C115.6 61.9502 116.73 63.4102 117.95 63.8502C118.62 64.0902 119.33 64.0002 120.07 63.6002C120.88 63.1602 121.45 62.3702 121.6 61.5002C121.73 60.7302 121.52 59.9802 121 59.4002C119.67 57.9102 117.07 57.4402 117.04 57.4402C116.75 57.3902 116.55 57.1102 116.6 56.8202C116.65 56.5302 116.92 56.3302 117.22 56.3802C117.34 56.4002 120.21 56.9102 121.79 58.6802C122.53 59.5102 122.83 60.5702 122.64 61.6802C122.44 62.8702 121.66 63.9302 120.57 64.5302C119.95 64.8702 119.32 65.0402 118.69 65.0402L118.71 65.0502Z" fill="#86BCFC"/>
<path d="M151.77 30.0301C151.77 30.0301 151.72 30.0301 151.69 30.0301C151.14 29.9901 150.73 29.5001 150.77 28.9501C151.36 21.5501 145.61 19.5301 145.37 19.4501C144.85 19.2701 144.56 18.7101 144.74 18.1901C144.91 17.6701 145.47 17.3801 146 17.5501C146.08 17.5701 153.49 20.1001 152.77 29.1101C152.73 29.6301 152.29 30.0301 151.77 30.0301Z" fill="#C7C9D1"/>
<path d="M151.71 104.77C151.37 104.77 151.04 104.6 150.85 104.29C148.2 99.9001 151.94 95.5201 154.3 93.8101C154.75 93.4901 155.37 93.5901 155.7 94.0301C156.02 94.4801 155.93 95.1001 155.48 95.4301C155.26 95.5901 150.21 99.3401 152.57 103.25C152.86 103.72 152.7 104.34 152.23 104.62C152.07 104.72 151.89 104.76 151.71 104.76V104.77Z" fill="#C7C9D1"/>
<path d="M13.5601 37.3399C13.1601 37.3399 12.7801 37.0999 12.6301 36.6999C12.4301 36.1799 12.6901 35.6099 13.2001 35.4099C13.3901 35.3299 17.9401 33.4599 17.2701 27.9699C16.6301 22.7999 23.8901 20.1599 24.1901 20.0499C24.7101 19.8699 25.2801 20.1399 25.4701 20.6599C25.6601 21.1799 25.3801 21.7499 24.8601 21.9399C24.8001 21.9599 18.8101 24.1399 19.2501 27.7299C19.9401 33.3899 16.0701 36.4499 13.9201 37.2799C13.8001 37.3299 13.6801 37.3499 13.5601 37.3499V37.3399Z" fill="#C7C9D1"/>
<path d="M10.9004 56.9602C10.5304 56.9602 10.1804 56.7502 10.0004 56.4002C7.83038 51.9902 9.91038 47.6602 10.0004 47.4802C10.2404 46.9802 10.8404 46.7802 11.3404 47.0202C11.8304 47.2602 12.0404 47.8602 11.8004 48.3602C11.8004 48.3602 10.0704 52.0102 11.8004 55.5202C12.0404 56.0202 11.8404 56.6202 11.3404 56.8602C11.2004 56.9302 11.0504 56.9602 10.9004 56.9602Z" fill="#C7C9D1"/>
<path d="M109.01 42.1498C109.01 42.1498 108.97 42.1498 108.95 42.1498C105.02 41.8398 102.88 38.6398 102.79 38.4998C102.56 38.1498 102.66 37.6898 103.01 37.4598C103.36 37.2298 103.82 37.3298 104.05 37.6798C104.09 37.7398 105.91 40.4098 109.07 40.6598C109.48 40.6898 109.79 41.0498 109.76 41.4698C109.73 41.8598 109.4 42.1598 109.01 42.1598V42.1498Z" fill="#C7C9D1"/>
<path d="M59.0606 42.1503C58.6706 42.1503 58.3406 41.8503 58.3106 41.4603C58.2806 41.0503 58.5906 40.6903 59.0006 40.6503C62.1806 40.4003 64.0106 37.7003 64.0206 37.6703C64.2506 37.3303 64.7106 37.2303 65.0606 37.4603C65.4106 37.6903 65.5006 38.1503 65.2806 38.5003C65.1906 38.6403 63.0506 41.8403 59.1206 42.1503C59.1006 42.1503 59.0806 42.1503 59.0606 42.1503Z" fill="#C7C9D1"/>
<path d="M152.91 109.37C153.462 109.37 153.91 108.922 153.91 108.37C153.91 107.818 153.462 107.37 152.91 107.37C152.358 107.37 151.91 107.818 151.91 108.37C151.91 108.922 152.358 109.37 152.91 109.37Z" fill="#C7C9D1"/>
<path d="M12.3804 68.6802C13.1978 68.6802 13.8604 68.0176 13.8604 67.2002C13.8604 66.3828 13.1978 65.7202 12.3804 65.7202C11.563 65.7202 10.9004 66.3828 10.9004 67.2002C10.9004 68.0176 11.563 68.6802 12.3804 68.6802Z" fill="#C7C9D1"/>
</g>
<defs>
<clipPath id="clip0_176_41420">
<rect width="172.09" height="147.19" fill="white" transform="translate(0.910156)"/>
</clipPath>
</defs>
</svg>
