<svg width="100%" height="100%" viewBox="0 0 133 126" fill="none" xmlns="http://www.w3.org/2000/svg">
<g clip-path="url(#clip0_113_24003)">
<path d="M50.2915 6.74992C55.3015 5.44992 60.4615 4.72992 65.6715 4.66992C92.4615 4.34992 118.631 21.5499 128.251 45.9699C135.841 65.2299 132.701 87.9399 121.041 105.02C108.251 123.75 85.3215 125.22 63.9215 125.46C48.5815 125.63 32.7515 122.04 20.6815 112.79C1.2715 97.9199 -4.7985 69.8199 3.8415 47.2399C11.4015 27.4899 29.5215 12.1399 50.2915 6.74992Z" fill="#E8EDED"/>
<path d="M57.3019 72.9899C57.4319 73.4199 55.6219 76.7499 56.4019 77.1299C60.4819 79.1199 64.4319 80.6499 72.7919 78.5099C77.9019 77.1999 80.7519 73.1599 81.8019 69.7799C83.1519 65.4499 81.7519 58.5799 74.7419 53.8799C68.9819 59.2899 66.5719 68.2299 60.8119 73.6399C59.6819 74.6999 56.9419 71.7799 57.2919 72.9799L57.3019 72.9899Z" fill="#C7C9D1"/>
<path d="M57.8417 52.72C57.3317 52.9 56.8417 53.11 56.3517 53.35C48.5717 57.15 46.6217 68.33 52.7417 74.5C56.2617 78.04 61.6317 79.43 66.5617 78.65C72.1017 77.77 77.2917 74.06 79.2617 68.8C81.2317 63.54 79.4617 56.93 74.7417 53.89C72.1917 52.25 69.0717 51.71 66.0417 51.61C63.2717 51.52 60.4317 51.78 57.8417 52.72Z" fill="#D5D8E0"/>
<path d="M63.0016 61.98C62.8916 61.47 62.7416 60.97 62.5216 60.48C62.2416 59.84 61.8416 59.23 61.2516 58.87C60.6616 58.51 59.8416 58.44 59.2916 58.86C58.7716 59.25 58.5916 59.95 58.4716 60.6C58.1416 62.51 58.2116 64.35 58.3416 66.27C58.4416 67.85 58.3816 69.44 59.1916 70.87C59.3816 71.21 59.6416 71.55 60.0016 71.7C60.4316 71.88 60.9416 71.77 61.3316 71.51C61.7216 71.25 61.9916 70.85 62.2016 70.43C62.8216 69.23 63.0016 67.86 63.1216 66.52C63.2616 65.01 63.3216 63.45 63.0116 61.98H63.0016Z" fill="#E8EDED"/>
<path d="M71.361 61.98C71.251 61.47 71.101 60.97 70.881 60.48C70.601 59.84 70.201 59.23 69.611 58.87C69.021 58.51 68.201 58.44 67.651 58.86C67.131 59.25 66.951 59.95 66.831 60.6C66.501 62.51 66.571 64.35 66.701 66.27C66.801 67.85 66.741 69.44 67.551 70.87C67.741 71.21 68.001 71.55 68.361 71.7C68.791 71.88 69.301 71.77 69.691 71.51C70.081 71.25 70.351 70.85 70.561 70.43C71.181 69.23 71.361 67.86 71.481 66.52C71.621 65.01 71.681 63.45 71.371 61.98H71.361Z" fill="#E8EDED"/>
<path d="M16.9912 29.87C16.9912 29.87 10.5312 8.47003 16.9912 1.64003C23.4512 -5.19997 42.8212 11.58 42.8212 11.58C42.8212 11.58 26.1112 19.24 16.9912 29.88V29.87Z" fill="#E8EDED"/>
<path d="M91.6914 11.9601C91.6914 11.9601 101.841 2.01015 109.131 1.13015C110.711 0.940149 112.321 1.46015 113.441 2.60015C115.881 5.08015 119.371 11.7001 116.761 28.6701C116.761 28.6701 108.021 17.6601 91.6914 11.9601Z" fill="#E8EDED"/>
<path d="M109.501 5.29981C108.671 5.26981 107.791 5.5898 107.021 5.9498C104.951 6.9298 103.081 8.23981 101.231 9.54981C99.5314 10.7498 97.8214 11.9498 96.3714 13.3998C95.3514 14.4198 94.4114 15.8098 94.8514 17.1398C95.2314 18.2698 96.4614 18.9298 97.5914 19.4798L109.171 25.1098C110.601 25.7998 112.431 26.7098 112.931 24.6898C113.891 20.7598 114.011 16.6698 113.481 12.6698C113.241 10.8398 112.861 8.9998 112.051 7.3098C111.711 6.5998 111.251 5.87981 110.511 5.52981C110.191 5.37981 109.851 5.30981 109.501 5.29981Z" fill="#C7C9D1"/>
<path d="M21.5315 5.00001C22.0715 4.80001 22.6915 4.68001 23.4115 4.66001C24.8415 4.62001 26.2715 4.90001 27.5615 5.47001C29.1015 6.15001 30.4015 7.21001 31.6915 8.26001L37.1815 12.76C37.7515 13.23 38.3715 13.79 38.3815 14.52C38.3815 15.32 37.6715 15.94 37.0115 16.45L24.7715 25.85C24.1515 26.33 23.3615 26.84 22.6215 26.58C22.0315 26.38 21.7415 25.77 21.5215 25.21C19.9315 21.2 15.2715 7.36001 21.5415 5.01001L21.5315 5.00001Z" fill="#C7C9D1"/>
<path d="M72.642 91.8301C69.802 91.8301 67.632 90.6901 67.592 90.6701C67.102 90.4101 66.922 89.8001 67.192 89.3101C67.452 88.8301 68.062 88.6401 68.542 88.9101C68.802 89.0501 74.582 92.0401 78.962 86.6301C79.312 86.2001 79.942 86.1301 80.372 86.4801C80.802 86.8301 80.872 87.4601 80.522 87.8901C78.012 91.0001 75.072 91.8401 72.632 91.8401L72.642 91.8301Z" fill="#C7C9D1"/>
<path d="M41.4917 56.9102C44.3802 56.9102 46.7217 54.5686 46.7217 51.6802C46.7217 48.7917 44.3802 46.4502 41.4917 46.4502C38.6033 46.4502 36.2617 48.7917 36.2617 51.6802C36.2617 54.5686 38.6033 56.9102 41.4917 56.9102Z" fill="#2B110C"/>
<path d="M39.8315 50.6098C40.2568 50.6098 40.6015 50.2651 40.6015 49.8398C40.6015 49.4146 40.2568 49.0698 39.8315 49.0698C39.4063 49.0698 39.0615 49.4146 39.0615 49.8398C39.0615 50.2651 39.4063 50.6098 39.8315 50.6098Z" fill="white"/>
<path d="M89.5113 56.9102C92.3997 56.9102 94.7412 54.5686 94.7412 51.6802C94.7412 48.7917 92.3997 46.4502 89.5113 46.4502C86.6228 46.4502 84.2812 48.7917 84.2812 51.6802C84.2812 54.5686 86.6228 56.9102 89.5113 56.9102Z" fill="#2B110C"/>
<path d="M87.8511 50.6098C88.2763 50.6098 88.6211 50.2651 88.6211 49.8398C88.6211 49.4146 88.2763 49.0698 87.8511 49.0698C87.4258 49.0698 87.0811 49.4146 87.0811 49.8398C87.0811 50.2651 87.4258 50.6098 87.8511 50.6098Z" fill="white"/>
</g>
<defs>
<clipPath id="clip0_113_24003">
<rect width="132.38" height="125.47" fill="white"/>
</clipPath>
</defs>
</svg>
