<svg width="100%" height="100%" viewBox="0 0 311 183" fill="none" xmlns="http://www.w3.org/2000/svg">
<g clip-path="url(#clip0_113_23998)">
<path d="M58.13 103.33C58.19 104.65 56.9 106.39 56.9 106.39C56.9 106.39 54 108.76 55.36 110.01C56.72 111.27 59.44 114.47 68.87 114.67L91.89 113.61C91.89 113.61 116.39 100.29 117.6 89.5203C117.6 89.5203 105.55 78.1203 87.76 64.5703C81.76 81.2503 73.86 96.3303 58.13 103.32V103.33Z" fill="#C7C9D1"/>
<path d="M87.7605 64.5803C80.2405 58.8503 71.7005 52.7503 62.6005 46.9603C31.9705 27.4703 26.3105 12.5503 26.3105 12.5503C26.3105 12.5503 24.1905 -0.739741 19.3205 0.0302591C14.4505 0.800259 9.71051 8.66026 13.0905 17.1103C13.0905 17.1103 16.2505 23.2603 12.3205 23.0003C8.40051 22.7503 3.06051 21.1203 1.17051 24.9703C-0.719493 28.8203 5.87051 35.5003 5.87051 35.5003C5.87051 35.5003 10.3705 39.3003 7.61051 40.7403C4.84051 42.1803 -0.779493 42.2603 0.0905072 45.9003C0.960507 49.5403 4.53051 53.1403 7.99051 54.6103C11.4505 56.0703 10.1005 60.6903 7.96051 60.8403C5.82051 60.9903 -1.77949 65.5903 6.68051 71.0403C15.1405 76.4903 17.5705 77.4403 15.5205 79.1403C13.4705 80.8403 10.4705 81.3703 12.7205 84.5803C14.9705 87.7903 20.0905 92.5203 31.6105 91.3903C31.6105 91.3903 40.0205 92.6503 37.6105 94.2303C35.1905 95.8103 33.3005 97.8603 36.3505 99.3003C39.4005 100.75 47.8505 103.06 54.4005 102.01C57.2405 101.55 58.0905 102.32 58.1305 103.33C73.8605 96.3403 81.7605 81.2603 87.7605 64.5803Z" fill="#D5D8E0"/>
<path d="M223.451 131.7C222.641 132.51 221.951 133.38 221.351 134.29C222.601 135.2 223.541 136.47 224.461 137.72C228.471 143.15 232.471 148.59 236.481 154.02C238.321 156.51 239.481 158.07 242.231 159.41C244.921 160.72 247.691 161.67 250.681 162.01C251.611 162.11 252.631 162.14 253.381 161.59C254.831 160.52 254.251 158.19 253.211 156.71C252.211 155.3 250.871 153.88 250.881 152.18C242.191 143.16 231.941 123.23 223.461 131.71L223.451 131.7Z" fill="#C7C9D1"/>
<path d="M310.72 124.82C310.08 122.77 308.05 122.26 306.2 122.1C304.48 121.95 302.66 121.99 301.24 120.85C300.61 120.35 300.17 119.6 300.17 118.79C300.15 117.35 301.28 116.75 302.28 116.16C304.79 114.68 307.03 112.76 308.87 110.51C310.14 108.96 311.28 107.03 310.13 104.94C309.61 104 308.72 103.31 307.72 102.94C305.32 102.06 302.86 102.76 300.5 103.4C282.28 108.41 262.58 110.9 244.67 104.88C238.74 102.89 232.69 99.9502 226.54 101.07C223.25 101.67 220.37 103.62 217.2 104.68C215.39 105.28 209.54 103.07 207.48 105.62L207.45 105.65L209.41 130.26C209.53 131.79 210.91 132.9 212.44 132.73C215.61 132.37 218.84 132.45 221.35 134.28C221.95 133.37 222.64 132.51 223.45 131.69C231.93 123.21 242.19 143.14 250.87 152.16C250.87 152.08 250.86 152.01 250.87 151.94C253.05 151.84 255.07 153.07 256.73 154.48C258.39 155.9 259.87 157.56 261.77 158.64C263.67 159.72 266.18 160.1 267.97 158.85C269.76 157.6 269.99 154.39 268.04 153.41C267.37 153.07 266.48 152.96 266.17 152.28C265.69 151.22 267.14 150.33 268.29 150.14C273.16 149.32 278.19 150.4 282.77 152.24C283.92 152.7 285.09 153.22 286.33 153.29C287.57 153.36 288.94 152.87 289.52 151.77C290.14 150.59 289.67 149.08 288.81 148.07C287.95 147.06 286.75 146.38 285.67 145.61C284.37 144.68 283.2 143.58 282.2 142.34C281.18 141.09 280.35 139.11 282 138.09C282.85 137.56 283.95 137.69 284.79 138.23C288.72 140.74 293.24 142.33 297.87 142.85C300.06 143.1 303.02 142.53 302.91 140.07C302.85 138.8 301.96 137.72 300.78 137.23C298.49 136.28 296.41 134.84 294.7 133.05C294.35 132.69 294 132.21 294.13 131.73C294.25 131.28 294.74 131.05 295.18 130.91C297.37 130.23 299.72 130.55 302 130.71C304.7 130.91 307.62 130.82 309.63 128.78C310.65 127.74 311.15 126.21 310.71 124.82H310.72Z" fill="#D5D8E0"/>
<path d="M231.02 122.46C231.77 122.38 232.52 122.32 233.28 122.28C233.92 122.24 234.28 122.16 234.91 122.07C235.35 122.01 236.5 121.72 236.91 121.56C238.92 120.76 240.36 119.64 241.8 118.02C241.9 117.91 242 117.79 242.1 117.67C242.6 117.07 243.06 116.39 243.18 115.61C243.3 114.83 242.95 113.94 242.23 113.64C241.61 113.38 240.88 113.6 240.34 114C239.8 114.4 239.4 114.95 238.95 115.45C238.22 116.27 237.34 116.97 236.38 117.5C235.86 117.79 235.26 118.03 234.68 117.96C234.48 117.94 234.34 117.76 234.37 117.56C234.56 116.35 234.89 115.17 235.09 113.97C235.31 112.66 235.37 111.29 234.92 110.04C234.37 108.51 233.08 107.31 231.6 106.62C230.13 105.93 228.4 105.7 226.88 106.25C224.88 106.98 223.53 108.95 223.05 111.02C222.39 113.85 223.19 116.99 225.12 119.16C225.22 119.27 225.17 119.45 225.02 119.48C223.13 119.92 221.16 119.98 219.25 119.66C219.04 120.16 218.74 122.14 219.14 123.42C219.18 123.56 219.24 123.71 219.36 123.8C219.46 123.87 220.89 123.95 221.01 123.95C223.01 124.06 224.99 123.83 226.91 123.26C228.26 122.86 229.64 122.62 231.03 122.47L231.02 122.46ZM226.77 112.6C226.77 112.6 226.77 112.54 226.77 112.51C226.79 111.87 226.94 111.22 227.29 110.68C227.64 110.14 228.21 109.73 228.85 109.66C229.33 109.61 229.83 109.76 230.22 110.05C230.61 110.34 230.91 110.75 231.08 111.2C231.35 111.9 231.34 112.69 231.24 113.43C231.09 114.49 230.76 115.51 230.27 116.46C230.17 116.65 230.03 116.91 229.82 117C229.61 117.09 229.29 116.92 229.1 116.82C228.34 116.41 227.73 115.77 227.32 115.01C226.91 114.25 226.75 113.45 226.76 112.62L226.77 112.6Z" fill="#C7C9D1"/>
<path d="M125.831 147.89C123.861 149.72 124.161 153.09 124.031 155.35C123.781 159.67 124.061 164.01 124.871 168.29C125.001 168.96 125.151 169.66 125.691 170.17C126.201 170.65 126.961 170.89 127.701 171.08C133.831 172.7 140.551 172.8 146.751 171.36C147.831 171.11 148.991 170.75 149.561 169.95C149.981 169.36 149.981 168.64 149.971 167.95L149.751 149.38C149.751 148.72 149.711 148 149.211 147.48C148.531 146.77 147.271 146.7 146.171 146.69L131.731 146.53C130.391 146.52 129.031 146.5 127.761 146.85C126.941 147.08 126.311 147.44 125.821 147.9L125.831 147.89Z" fill="#C7C9D1"/>
<path d="M205.57 146.68C207.54 148.51 207.24 151.88 207.37 154.14C207.62 158.46 207.34 162.8 206.53 167.08C206.4 167.75 206.25 168.45 205.71 168.96C205.2 169.44 204.44 169.68 203.7 169.87C197.57 171.49 190.85 171.59 184.65 170.15C183.57 169.9 182.41 169.54 181.84 168.74C181.42 168.15 181.42 167.43 181.43 166.74L181.65 148.17C181.65 147.51 181.69 146.79 182.19 146.27C182.87 145.56 184.13 145.49 185.23 145.48L199.67 145.32C201.01 145.31 202.37 145.29 203.64 145.64C204.46 145.87 205.09 146.23 205.58 146.69L205.57 146.68Z" fill="#C7C9D1"/>
<path d="M117.77 156.35C115.61 158.29 115.95 161.84 115.81 164.23C115.54 168.79 115.85 173.38 116.73 177.89C116.87 178.59 117.04 179.34 117.63 179.88C118.18 180.39 119.02 180.64 119.83 180.84C126.53 182.55 133.88 182.66 140.66 181.13C141.84 180.86 143.11 180.49 143.73 179.64C144.19 179.01 144.19 178.25 144.18 177.53L143.94 157.91C143.94 157.21 143.9 156.45 143.35 155.9C142.61 155.15 141.23 155.08 140.03 155.06L124.24 154.89C122.78 154.87 121.29 154.86 119.9 155.23C119.01 155.47 118.31 155.85 117.78 156.34L117.77 156.35Z" fill="#D5D8E0"/>
<path d="M201.031 156.35C203.191 158.29 202.851 161.84 202.991 164.23C203.261 168.79 202.951 173.38 202.071 177.89C201.931 178.59 201.761 179.34 201.171 179.88C200.621 180.39 199.781 180.64 198.971 180.84C192.271 182.55 184.921 182.66 178.141 181.13C176.961 180.86 175.691 180.49 175.071 179.64C174.611 179.01 174.611 178.25 174.621 177.53L174.861 157.91C174.861 157.21 174.901 156.45 175.451 155.9C176.191 155.15 177.571 155.08 178.771 155.06L194.561 154.89C196.021 154.87 197.511 154.86 198.901 155.23C199.791 155.47 200.491 155.85 201.021 156.34L201.031 156.35Z" fill="#D5D8E0"/>
<path d="M139.531 49.1503C144.541 47.8503 149.701 47.1303 154.911 47.0703C181.701 46.7503 207.871 63.9503 217.491 88.3703C225.081 107.63 221.941 130.34 210.281 147.42C197.491 166.15 174.561 167.62 153.161 167.86C137.821 168.03 121.991 164.44 109.921 155.19C90.5108 140.32 84.4408 112.22 93.0808 89.6403C100.641 69.8903 118.761 54.5403 139.531 49.1503Z" fill="#E8EDED"/>
<path d="M146.53 115.39C146.66 115.82 144.85 119.15 145.63 119.53C149.71 121.52 153.66 123.05 162.02 120.91C167.13 119.6 169.98 115.56 171.03 112.18C172.38 107.85 170.98 100.98 163.97 96.2803C158.21 101.69 155.8 110.63 150.04 116.04C148.91 117.1 146.17 114.18 146.52 115.38L146.53 115.39Z" fill="#C7C9D1"/>
<path d="M147.07 95.1204C146.56 95.3004 146.07 95.5104 145.58 95.7504C137.8 99.5504 135.85 110.73 141.97 116.9C145.49 120.44 150.86 121.83 155.79 121.05C161.33 120.17 166.52 116.46 168.49 111.2C170.46 105.94 168.69 99.3304 163.97 96.2904C161.42 94.6504 158.3 94.1104 155.27 94.0104C152.5 93.9204 149.66 94.1804 147.07 95.1204Z" fill="#D5D8E0"/>
<path d="M152.23 104.38C152.12 103.87 151.97 103.37 151.75 102.88C151.47 102.24 151.07 101.63 150.48 101.27C149.89 100.91 149.07 100.84 148.52 101.26C148 101.65 147.82 102.35 147.7 103C147.37 104.91 147.44 106.75 147.57 108.67C147.67 110.25 147.61 111.84 148.42 113.27C148.61 113.61 148.87 113.95 149.23 114.1C149.66 114.28 150.17 114.17 150.56 113.91C150.95 113.65 151.22 113.25 151.43 112.83C152.05 111.63 152.23 110.26 152.35 108.92C152.49 107.41 152.55 105.85 152.24 104.38H152.23Z" fill="#E8EDED"/>
<path d="M160.6 104.38C160.49 103.87 160.34 103.37 160.12 102.88C159.84 102.24 159.44 101.63 158.85 101.27C158.26 100.91 157.44 100.84 156.89 101.26C156.37 101.65 156.19 102.35 156.07 103C155.74 104.91 155.81 106.75 155.94 108.67C156.04 110.25 155.98 111.84 156.79 113.27C156.98 113.61 157.24 113.95 157.6 114.1C158.03 114.28 158.54 114.17 158.93 113.91C159.32 113.65 159.59 113.25 159.8 112.83C160.42 111.63 160.6 110.26 160.72 108.92C160.86 107.41 160.92 105.85 160.61 104.38H160.6Z" fill="#E8EDED"/>
<path d="M106.221 72.2704C106.221 72.2704 99.7607 50.8704 106.221 44.0404C112.681 37.2004 132.051 53.9804 132.051 53.9804C132.051 53.9804 115.341 61.6404 106.221 72.2804V72.2704Z" fill="#E8EDED"/>
<path d="M180.921 54.3601C180.921 54.3601 191.071 44.4101 198.361 43.5301C199.941 43.3401 201.551 43.8601 202.671 45.0001C205.111 47.4801 208.601 54.1001 205.991 71.0701C205.991 71.0701 197.251 60.0601 180.921 54.3601Z" fill="#E8EDED"/>
<path d="M198.731 47.7002C197.901 47.6702 197.021 47.9902 196.251 48.3502C194.181 49.3302 192.311 50.6402 190.461 51.9502C188.761 53.1502 187.051 54.3502 185.601 55.8002C184.581 56.8202 183.641 58.2102 184.081 59.5402C184.461 60.6702 185.691 61.3302 186.821 61.8802L198.401 67.5102C199.831 68.2002 201.661 69.1102 202.161 67.0902C203.121 63.1602 203.241 59.0702 202.711 55.0702C202.471 53.2402 202.091 51.4002 201.281 49.7102C200.941 49.0002 200.481 48.2802 199.741 47.9302C199.421 47.7802 199.081 47.7102 198.731 47.7002Z" fill="#C7C9D1"/>
<path d="M110.76 47.4004C111.3 47.2004 111.92 47.0804 112.64 47.0604C114.07 47.0204 115.5 47.3004 116.79 47.8704C118.33 48.5504 119.63 49.6104 120.92 50.6604L126.41 55.1604C126.98 55.6304 127.6 56.1904 127.61 56.9204C127.61 57.7204 126.9 58.3404 126.24 58.8504L114 68.2504C113.38 68.7304 112.59 69.2404 111.85 68.9804C111.26 68.7804 110.97 68.1704 110.75 67.6104C109.16 63.6004 104.5 49.7604 110.77 47.4104L110.76 47.4004Z" fill="#C7C9D1"/>
<path d="M161.88 134.23C159.04 134.23 156.87 133.09 156.83 133.07C156.34 132.81 156.16 132.2 156.43 131.71C156.69 131.23 157.3 131.04 157.78 131.31C158.04 131.45 163.82 134.44 168.2 129.03C168.55 128.6 169.18 128.53 169.61 128.88C170.04 129.23 170.11 129.86 169.76 130.29C167.25 133.4 164.31 134.24 161.88 134.24V134.23Z" fill="#C7C9D1"/>
<path d="M130.72 99.3101C133.609 99.3101 135.95 96.9685 135.95 94.0801C135.95 91.1917 133.609 88.8501 130.72 88.8501C127.832 88.8501 125.49 91.1917 125.49 94.0801C125.49 96.9685 127.832 99.3101 130.72 99.3101Z" fill="#2B110C"/>
<path d="M129.06 93.0102C129.485 93.0102 129.83 92.6655 129.83 92.2402C129.83 91.815 129.485 91.4702 129.06 91.4702C128.635 91.4702 128.29 91.815 128.29 92.2402C128.29 92.6655 128.635 93.0102 129.06 93.0102Z" fill="white"/>
<path d="M178.741 99.3101C181.629 99.3101 183.971 96.9685 183.971 94.0801C183.971 91.1917 181.629 88.8501 178.741 88.8501C175.852 88.8501 173.511 91.1917 173.511 94.0801C173.511 96.9685 175.852 99.3101 178.741 99.3101Z" fill="#2B110C"/>
<path d="M177.09 93.0102C177.516 93.0102 177.86 92.6655 177.86 92.2402C177.86 91.815 177.516 91.4702 177.09 91.4702C176.665 91.4702 176.32 91.815 176.32 92.2402C176.32 92.6655 176.665 93.0102 177.09 93.0102Z" fill="white"/>
</g>
<defs>
<clipPath id="clip0_113_23998">
<rect width="310.88" height="182.21" fill="white"/>
</clipPath>
</defs>
</svg>
