<svg width="100%" height="100%" viewBox="0 0 157 168" fill="none" xmlns="http://www.w3.org/2000/svg">
<g clip-path="url(#clip0_113_24007)">
<path d="M143.851 122C144.601 121.92 145.351 121.86 146.111 121.82C146.751 121.78 147.111 121.7 147.741 121.61C148.181 121.55 149.331 121.26 149.741 121.1C151.751 120.3 153.191 119.18 154.631 117.56C154.731 117.45 154.831 117.33 154.931 117.21C155.431 116.61 155.891 115.93 156.011 115.15C156.131 114.37 155.781 113.48 155.061 113.18C154.441 112.92 153.711 113.14 153.171 113.54C152.631 113.94 152.231 114.49 151.781 114.99C151.051 115.81 150.171 116.51 149.211 117.04C148.691 117.33 148.091 117.57 147.511 117.5C147.311 117.48 147.171 117.3 147.201 117.1C147.391 115.89 147.721 114.71 147.921 113.51C148.141 112.2 148.201 110.83 147.751 109.58C147.201 108.05 145.911 106.85 144.431 106.16C142.961 105.47 141.231 105.24 139.711 105.79C137.711 106.52 136.361 108.49 135.881 110.56C135.221 113.39 136.021 116.53 137.951 118.7C138.051 118.81 138.001 118.99 137.851 119.02C135.961 119.46 133.991 119.52 132.081 119.2C131.871 119.7 131.571 121.68 131.971 122.96C132.011 123.1 132.071 123.25 132.191 123.34C132.291 123.41 133.721 123.49 133.841 123.49C135.841 123.6 137.821 123.37 139.741 122.8C141.091 122.4 142.471 122.16 143.861 122.01L143.851 122ZM139.601 112.14C139.601 112.14 139.601 112.08 139.601 112.05C139.621 111.41 139.771 110.76 140.121 110.22C140.471 109.68 141.041 109.27 141.681 109.2C142.161 109.15 142.661 109.3 143.051 109.59C143.441 109.88 143.741 110.29 143.911 110.74C144.181 111.44 144.171 112.23 144.071 112.97C143.921 114.03 143.591 115.05 143.101 116C143.001 116.19 142.861 116.45 142.651 116.54C142.441 116.63 142.121 116.46 141.931 116.36C141.171 115.95 140.561 115.31 140.151 114.55C139.741 113.79 139.581 112.99 139.591 112.16L139.601 112.14Z" fill="#FFAF22"/>
<path d="M52.3511 48.6903C57.3611 47.3903 62.5211 46.6703 67.7311 46.6103C94.5211 46.2903 120.691 63.4904 130.311 87.9104C137.901 107.17 134.761 129.88 123.101 146.96C110.311 165.69 87.3811 167.16 65.9811 167.4C50.6411 167.57 34.8111 163.98 22.7411 154.73C3.33107 139.86 -2.73893 111.76 5.90107 89.1803C13.4611 69.4303 31.5811 54.0803 52.3511 48.6903Z" fill="#FFF0B0"/>
<path d="M59.3615 114.93C59.4915 115.36 57.6815 118.69 58.4615 119.07C62.5415 121.06 66.4915 122.59 74.8515 120.45C79.9615 119.14 82.8115 115.1 83.8615 111.72C85.2115 107.39 83.8115 100.52 76.8015 95.8203C71.0415 101.23 68.6315 110.17 62.8715 115.58C61.7415 116.64 59.0015 113.72 59.3515 114.92L59.3615 114.93Z" fill="#FFAF22"/>
<path d="M59.9013 94.6599C59.3913 94.8399 58.9013 95.0499 58.4113 95.2899C50.6313 99.0899 48.6813 110.27 54.8013 116.44C58.3213 119.98 63.6913 121.37 68.6213 120.59C74.1613 119.71 79.3513 116 81.3213 110.74C83.2913 105.48 81.5213 98.8699 76.8013 95.8299C74.2513 94.1899 71.1313 93.6499 68.1013 93.5499C65.3313 93.4599 62.4913 93.7199 59.9013 94.6599Z" fill="#FFC931"/>
<path d="M65.0515 103.92C64.9415 103.41 64.7914 102.91 64.5714 102.42C64.2914 101.78 63.8914 101.17 63.3014 100.81C62.7114 100.45 61.8914 100.38 61.3414 100.8C60.8214 101.19 60.6414 101.89 60.5214 102.54C60.1914 104.45 60.2614 106.29 60.3914 108.21C60.4914 109.79 60.4315 111.38 61.2415 112.81C61.4315 113.15 61.6914 113.49 62.0514 113.64C62.4814 113.82 62.9915 113.71 63.3815 113.45C63.7715 113.19 64.0414 112.79 64.2514 112.37C64.8714 111.17 65.0514 109.8 65.1714 108.46C65.3114 106.95 65.3714 105.39 65.0614 103.92H65.0515Z" fill="#FFF0B0"/>
<path d="M73.4216 103.92C73.3116 103.41 73.1616 102.91 72.9416 102.42C72.6616 101.78 72.2616 101.17 71.6716 100.81C71.0816 100.45 70.2616 100.38 69.7116 100.8C69.1916 101.19 69.0116 101.89 68.8916 102.54C68.5616 104.45 68.6316 106.29 68.7616 108.21C68.8616 109.79 68.8016 111.38 69.6116 112.81C69.8016 113.15 70.0616 113.49 70.4216 113.64C70.8516 113.82 71.3616 113.71 71.7516 113.45C72.1416 113.19 72.4116 112.79 72.6216 112.37C73.2416 111.17 73.4216 109.8 73.5416 108.46C73.6816 106.95 73.7416 105.39 73.4316 103.92H73.4216Z" fill="#FFF0B0"/>
<path d="M74.7015 133.77C71.8615 133.77 69.6916 132.63 69.6516 132.61C69.1616 132.35 68.9815 131.74 69.2515 131.25C69.5115 130.77 70.1215 130.58 70.6015 130.85C70.8615 130.99 76.6415 133.98 81.0215 128.57C81.3715 128.14 82.0015 128.07 82.4315 128.42C82.8615 128.77 82.9316 129.4 82.5816 129.83C80.0616 132.94 77.1315 133.78 74.7015 133.78V133.77Z" fill="#FFAF22"/>
<path d="M43.5513 98.8604C46.4397 98.8604 48.7813 96.5188 48.7813 93.6304C48.7813 90.7419 46.4397 88.4004 43.5513 88.4004C40.6628 88.4004 38.3213 90.7419 38.3213 93.6304C38.3213 96.5188 40.6628 98.8604 43.5513 98.8604Z" fill="#2B110C"/>
<path d="M41.8911 92.5503C42.3164 92.5503 42.6611 92.2055 42.6611 91.7803C42.6611 91.355 42.3164 91.0103 41.8911 91.0103C41.4658 91.0103 41.1211 91.355 41.1211 91.7803C41.1211 92.2055 41.4658 92.5503 41.8911 92.5503Z" fill="white"/>
<path d="M91.5718 98.8604C94.4602 98.8604 96.8018 96.5188 96.8018 93.6304C96.8018 90.7419 94.4602 88.4004 91.5718 88.4004C88.6834 88.4004 86.3418 90.7419 86.3418 93.6304C86.3418 96.5188 88.6834 98.8604 91.5718 98.8604Z" fill="#2B110C"/>
<path d="M89.9116 92.5503C90.3369 92.5503 90.6816 92.2055 90.6816 91.7803C90.6816 91.355 90.3369 91.0103 89.9116 91.0103C89.4863 91.0103 89.1416 91.355 89.1416 91.7803C89.1416 92.2055 89.4863 92.5503 89.9116 92.5503Z" fill="white"/>
<path d="M65.6414 57.8302C65.6414 57.8302 45.8214 56.6601 29.9314 71.3102C29.9314 71.3102 12.7314 83.5502 7.37139 95.5502C6.54139 97.4002 4.22139 97.8401 2.93139 96.3102C2.89139 96.2601 2.85139 96.2102 2.81139 96.1702C-1.98861 90.3801 -0.488614 81.2102 5.95139 77.6301C5.99139 77.6102 6.04139 77.5801 6.08139 77.5602C6.08139 77.5602 -0.288614 67.7902 9.73139 62.9102C9.73139 62.9102 1.97139 46.6301 16.4914 40.6902C16.4914 40.6902 17.3714 22.9802 35.8814 26.4202C35.8814 26.4202 33.7314 19.4502 40.7014 18.1802C40.7014 18.1802 40.2514 6.91015 49.7814 2.61015C59.3314 -1.68985 83.7214 -1.82985 93.5114 11.1502C93.5114 11.1502 97.3114 16.9602 98.2114 19.9302C98.2114 19.9302 103.911 15.9302 109.031 19.3801C115.141 23.5001 111.511 30.8502 111.511 30.8502C111.511 30.8502 128.231 33.5901 128.601 55.2602C128.601 55.2602 145.001 60.9002 137.751 80.9202C137.751 80.9202 142.761 92.2202 133.341 98.1301C132.061 98.9302 130.391 98.3402 129.771 96.9102C126.511 89.4502 114.681 67.6002 85.4714 59.2502C85.4714 59.2502 72.9814 57.4102 65.6414 57.8402V57.8302Z" fill="#5B4428"/>
<path d="M65.6418 57.83L66.8818 43.7C66.9018 43.46 67.0918 43.27 67.3218 43.27H68.8118C69.0418 43.27 69.2318 43.47 69.2318 43.72V57.78L65.6318 57.83H65.6418Z" fill="#725836"/>
<path d="M42.7918 50.7202C40.3118 48.7302 37.7118 46.8902 35.0218 45.1902C32.2618 43.4502 29.3618 41.8402 26.2018 41.0202C24.7518 40.6402 23.1918 40.4502 21.7918 40.9702C19.1718 41.9502 18.0718 45.0402 17.7118 47.8202C16.9518 53.7602 18.1718 59.7602 19.6018 65.5802C20.6118 69.6802 23.3818 69.2002 26.3518 67.0902L43.1318 55.1502C44.0018 54.5302 44.9918 53.5902 44.6418 52.5802C44.4918 52.1502 44.1318 51.8302 43.7818 51.5402C43.4518 51.2702 43.1218 51.0002 42.7818 50.7302L42.7918 50.7202Z" fill="#FFF0B0"/>
<path d="M23.9713 45.0403C24.4513 44.8603 25.0013 44.7603 25.6213 44.7403C26.8813 44.7103 28.1413 44.9503 29.2813 45.4503C30.6413 46.0503 32.5713 47.0003 33.7013 47.9303L38.5313 51.8903C39.0413 52.3003 39.5813 52.8003 39.5913 53.4403C39.5913 54.1403 38.9613 54.6903 38.3813 55.1403C34.7913 57.9003 30.4013 60.6403 26.8113 63.4003C26.2613 63.8203 25.5713 64.2703 24.9213 64.0403C24.4013 63.8603 24.1513 63.3303 23.9513 62.8403C22.5513 59.3103 18.4413 47.1203 23.9613 45.0403H23.9713Z" fill="#FFC931"/>
<path d="M117.011 41.0799C115.931 39.9799 114.381 39.4799 112.851 39.6599C105.811 40.5099 96.0114 50.1199 96.0114 50.1199C96.0114 50.1199 90.9314 55.0099 97.7914 59.5099L111.021 67.2299C111.021 67.2299 118.851 73.3899 120.211 66.2499C122.731 49.8599 119.361 43.4699 117.011 41.0799Z" fill="#FFF0B0"/>
<path d="M112.692 44.4101C111.892 44.3901 111.042 44.6901 110.302 45.0401C108.302 45.9901 106.502 47.2501 104.712 48.5201C103.072 49.6801 101.422 50.8401 100.022 52.2401C99.0318 53.2301 98.1218 54.5601 98.5518 55.8501C98.9218 56.9401 100.112 57.5801 101.202 58.1101C104.932 59.9201 108.712 62.3301 112.432 64.1401C113.812 64.8101 115.582 65.6801 116.062 63.7401C116.992 59.9501 117.052 55.4001 116.542 51.5401C116.312 49.7701 115.942 47.9901 115.152 46.3701C114.822 45.6801 114.382 44.9901 113.662 44.6501C113.352 44.5001 113.022 44.4301 112.682 44.4201L112.692 44.4101Z" fill="#FFC931"/>
</g>
<defs>
<clipPath id="clip0_113_24007">
<rect width="156.02" height="167.41" fill="white" transform="translate(0.300781)"/>
</clipPath>
</defs>
</svg>
