<svg width="88" height="80" viewBox="0 0 88 80" fill="none" xmlns="http://www.w3.org/2000/svg">
<g clip-path="url(#clip0_195_29078)">
<path d="M80.2384 46.1891C80.6628 46.1438 81.0872 46.1099 81.5173 46.0872C81.8795 46.0646 82.0832 46.0193 82.4397 45.9684C82.6887 45.9344 83.3395 45.7703 83.5715 45.6798C84.7089 45.2271 85.5238 44.5933 86.3387 43.6765C86.3953 43.6143 86.4519 43.5464 86.5085 43.4785C86.7914 43.1389 87.0517 42.7541 87.1196 42.3127C87.1875 41.8713 86.9895 41.3677 86.582 41.1979C86.2312 41.0508 85.8181 41.1753 85.5125 41.4016C85.2069 41.628 84.9806 41.9392 84.7259 42.2222C84.3128 42.6862 83.8148 43.0823 83.2716 43.3823C82.9773 43.5464 82.6378 43.6822 82.3096 43.6426C82.1964 43.6313 82.1172 43.5294 82.1341 43.4162C82.2416 42.7315 82.4284 42.0637 82.5416 41.3847C82.6661 40.6434 82.7 39.8681 82.4454 39.1607C82.1341 38.2949 81.4041 37.6158 80.5666 37.2254C79.7347 36.8349 78.7558 36.7048 77.8956 37.016C76.7638 37.4291 75.9999 38.5439 75.7282 39.7153C75.3548 41.3168 75.8075 43.0937 76.8996 44.3216C76.9562 44.3839 76.9279 44.4858 76.843 44.5027C75.7735 44.7517 74.6587 44.7857 73.5779 44.6046C73.459 44.8875 73.2893 46.008 73.5156 46.7323C73.5382 46.8116 73.5722 46.8964 73.6401 46.9474C73.6967 46.987 74.5059 47.0323 74.5738 47.0323C75.7056 47.0945 76.8261 46.9644 77.9126 46.6418C78.6765 46.4154 79.4575 46.2796 80.2441 46.1947L80.2384 46.1891ZM77.8334 40.6094C77.8334 40.6094 77.8334 40.5754 77.8334 40.5585C77.8447 40.1963 77.9296 39.8285 78.1276 39.5229C78.3257 39.2173 78.6482 38.9853 79.0104 38.9457C79.282 38.9174 79.565 39.0023 79.7857 39.1664C80.0064 39.3305 80.1761 39.5625 80.2724 39.8172C80.4251 40.2133 80.4195 40.6603 80.3629 41.0791C80.278 41.6789 80.0913 42.2561 79.814 42.7937C79.7574 42.9013 79.6782 43.0484 79.5593 43.0993C79.4405 43.1502 79.2594 43.054 79.1519 42.9975C78.7218 42.7654 78.3766 42.4033 78.1446 41.9732C77.9126 41.5431 77.822 41.0904 77.8277 40.6207L77.8334 40.6094Z" fill="#FFAF22"/>
<path d="M20.7068 60.574C19.592 61.6096 19.7618 63.5167 19.6882 64.7956C19.5468 67.2402 19.7052 69.6962 20.1636 72.1182C20.2371 72.4974 20.322 72.8935 20.6276 73.1821C20.9162 73.4537 21.3463 73.5895 21.7651 73.697C25.234 74.6138 29.0367 74.6704 32.5453 73.8555C33.1564 73.714 33.8129 73.5103 34.1354 73.0576C34.3731 72.7237 34.3731 72.3163 34.3674 71.9258L34.2429 61.4172C34.2429 61.0437 34.2203 60.6363 33.9374 60.342C33.5526 59.9402 32.8395 59.9006 32.2171 59.895L24.0456 59.8044C23.2873 59.7988 22.5177 59.7874 21.799 59.9855C21.335 60.1157 20.9785 60.3194 20.7012 60.5797L20.7068 60.574Z" fill="#FFAF22"/>
<path d="M65.831 59.895C66.9458 60.9305 66.776 62.8376 66.8496 64.1165C66.991 66.5612 66.8326 69.0171 66.3742 71.4391C66.3007 71.8183 66.2158 72.2144 65.9102 72.503C65.6216 72.7746 65.1915 72.9104 64.7727 73.018C61.3038 73.9347 57.501 73.9913 53.9925 73.1764C53.3814 73.035 52.7249 72.8312 52.4024 72.3785C52.1647 72.0446 52.1647 71.6372 52.1704 71.2467L52.2949 60.7381C52.2949 60.3646 52.3175 59.9572 52.6004 59.6629C52.9852 59.2612 53.6983 59.2216 54.3207 59.2159L62.4922 59.1253C63.2505 59.1197 64.0201 59.1084 64.7388 59.3064C65.2028 59.4366 65.5593 59.6403 65.8366 59.9006L65.831 59.895Z" fill="#FFAF22"/>
<path d="M16.1513 65.3671C14.929 66.465 15.1214 68.4739 15.0422 69.8264C14.8894 72.4068 15.0648 75.0043 15.5628 77.5564C15.642 77.9525 15.7382 78.377 16.0721 78.6825C16.3833 78.9712 16.8587 79.1126 17.3171 79.2258C21.1085 80.1935 25.2678 80.2557 29.1046 79.3899C29.7723 79.2371 30.491 79.0277 30.8419 78.5467C31.1022 78.1902 31.1022 77.7601 31.0965 77.3527L30.9607 66.2499C30.9607 65.8538 30.9381 65.4237 30.6268 65.1125C30.2081 64.6881 29.4271 64.6484 28.7481 64.6371L19.8126 64.5409C18.9864 64.5296 18.1433 64.524 17.3567 64.7333C16.853 64.8691 16.4569 65.0842 16.157 65.3615L16.1513 65.3671Z" fill="#FFC931"/>
<path d="M63.2673 65.3671C64.4897 66.465 64.2973 68.4739 64.3765 69.8264C64.5293 72.4068 64.3538 75.0043 63.8559 77.5564C63.7766 77.9525 63.6804 78.377 63.3466 78.6825C63.0353 78.9712 62.56 79.1126 62.1016 79.2258C58.3101 80.1935 54.1508 80.2557 50.3141 79.3899C49.6463 79.2371 48.9277 79.0277 48.5768 78.5467C48.3165 78.1902 48.3165 77.7601 48.3222 77.3527L48.458 66.2499C48.458 65.8538 48.4806 65.4237 48.7919 65.1125C49.2106 64.6881 49.9915 64.6484 50.6706 64.6371L59.606 64.5409C60.4322 64.5296 61.2754 64.524 62.062 64.7333C62.5656 64.8691 62.9618 65.0842 63.2617 65.3615L63.2673 65.3671Z" fill="#FFC931"/>
<path d="M28.4595 4.70362C31.2946 3.96796 34.2146 3.56052 37.1629 3.52657C52.3231 3.34548 67.1325 13.0788 72.5764 26.8979C76.8715 37.7969 75.0946 50.6483 68.4963 60.3137C61.2585 70.9129 48.2827 71.7447 36.1726 71.8805C27.4918 71.9767 18.5338 69.9452 11.7035 64.7107C0.719528 56.2902 -2.71543 40.3887 2.17387 27.6165C6.452 16.4345 16.7059 7.75377 28.4595 4.70362Z" fill="#FFF0B0"/>
<path d="M32.4263 42.1882C32.4999 42.4316 31.4756 44.316 31.917 44.531C34.2258 45.6571 36.4611 46.523 41.192 45.312C44.0837 44.5706 45.6964 42.2844 46.2906 40.3717C47.0546 37.9214 46.2623 34.0337 42.2954 31.3741C39.0359 34.4355 37.6721 39.4946 34.4126 42.5561C33.7731 43.1559 32.2226 41.5035 32.4206 42.1826L32.4263 42.1882Z" fill="#FFAF22"/>
<path d="M32.7318 30.7176C32.4432 30.8195 32.166 30.9383 31.8887 31.0741C27.486 33.2245 26.3826 39.5512 29.8458 43.0427C31.8377 45.046 34.8766 45.8326 37.6664 45.3912C40.8015 44.8932 43.7384 42.7937 44.8532 39.8172C45.968 36.8406 44.9664 33.1 42.2954 31.3797C40.8524 30.4517 39.0868 30.1461 37.3722 30.0895C35.8046 30.0386 34.1975 30.1857 32.7318 30.7176Z" fill="#FFC931"/>
<path d="M35.6519 35.9578C35.5897 35.6692 35.5048 35.3862 35.3803 35.1089C35.2218 34.7468 34.9955 34.4016 34.6616 34.1979C34.3277 33.9941 33.8637 33.9545 33.5525 34.1922C33.2582 34.4129 33.1563 34.809 33.0884 35.1768C32.9017 36.2577 32.9413 37.2989 33.0149 38.3854C33.0715 39.2796 33.0375 40.1793 33.4959 40.9886C33.6034 41.181 33.7505 41.3734 33.9542 41.4582C34.1976 41.5601 34.4862 41.4979 34.7069 41.3507C34.9276 41.2036 35.0804 40.9772 35.1992 40.7396C35.5501 40.0605 35.6519 39.2852 35.7198 38.5269C35.7991 37.6724 35.833 36.7896 35.6576 35.9578H35.6519Z" fill="#FFF0B0"/>
<path d="M40.3829 35.9578C40.3206 35.6692 40.2357 35.3862 40.1113 35.1089C39.9528 34.7468 39.7264 34.4016 39.3926 34.1979C39.0587 33.9941 38.5947 33.9545 38.2834 34.1922C37.9892 34.4129 37.8873 34.809 37.8194 35.1768C37.6326 36.2577 37.6723 37.2989 37.7458 38.3854C37.8024 39.2796 37.7685 40.1793 38.2268 40.9886C38.3344 41.181 38.4815 41.3734 38.6852 41.4582C38.9285 41.5601 39.2171 41.4979 39.4378 41.3507C39.6585 41.2036 39.8113 40.9772 39.9302 40.7396C40.281 40.0605 40.3829 39.2852 40.4508 38.5269C40.53 37.6724 40.564 36.7896 40.3885 35.9578H40.3829Z" fill="#FFF0B0"/>
<path d="M9.61546 17.787C9.61546 17.787 5.9598 5.67695 9.61546 1.81192C13.2711 -2.05878 24.2324 7.43687 24.2324 7.43687C24.2324 7.43687 14.7764 11.7716 9.61546 17.7927V17.787Z" fill="#FFF0B0"/>
<path d="M51.8872 7.65191C51.8872 7.65191 57.631 2.0213 61.7563 1.52331C62.6505 1.41579 63.5615 1.71006 64.1953 2.35517C65.5761 3.75858 67.5511 7.50478 66.0741 17.1079C66.0741 17.1079 61.1282 10.8775 51.8872 7.65191Z" fill="#FFF0B0"/>
<path d="M61.966 3.87742C61.4963 3.86044 60.9983 4.04153 60.5626 4.24525C59.3912 4.79982 58.333 5.54114 57.2861 6.28246C56.3241 6.96153 55.3564 7.64059 54.5359 8.46114C53.9587 9.03835 53.4267 9.82493 53.6757 10.5776C53.8908 11.217 54.5868 11.5905 55.2263 11.9018L61.7793 15.0877C62.5885 15.4782 63.6241 15.9931 63.907 14.85C64.4503 12.6261 64.5182 10.3116 64.2183 8.04804C64.0825 7.01246 63.8674 5.97122 63.409 5.01486C63.2166 4.61308 62.9563 4.20564 62.5376 4.00757C62.3565 3.92269 62.1641 3.88308 61.966 3.87742Z" fill="#FFC931"/>
<path d="M12.1847 3.71331C12.4903 3.60013 12.8411 3.53223 13.2485 3.52091C14.0578 3.49827 14.867 3.65672 15.597 3.97928C16.4685 4.36409 17.2041 4.96393 17.9341 5.55812L21.0409 8.10462C21.3634 8.37059 21.7143 8.68749 21.7199 9.10059C21.7199 9.55331 21.3181 9.90416 20.9447 10.1928L14.0182 15.5121C13.6673 15.7838 13.2202 16.0724 12.8015 15.9252C12.4676 15.8121 12.3035 15.4669 12.179 15.15C11.2792 12.8807 8.64219 5.04881 12.1903 3.71897L12.1847 3.71331Z" fill="#FFC931"/>
<path d="M23.4796 33.0887C25.1142 33.0887 26.4392 31.7637 26.4392 30.1291C26.4392 28.4946 25.1142 27.1695 23.4796 27.1695C21.8451 27.1695 20.52 28.4946 20.52 30.1291C20.52 31.7637 21.8451 33.0887 23.4796 33.0887Z" fill="#2B110C"/>
<path d="M22.5402 29.5236C22.7809 29.5236 22.976 29.3285 22.976 29.0879C22.976 28.8472 22.7809 28.6521 22.5402 28.6521C22.2996 28.6521 22.1045 28.8472 22.1045 29.0879C22.1045 29.3285 22.2996 29.5236 22.5402 29.5236Z" fill="white"/>
<path d="M50.6539 33.0887C52.2885 33.0887 53.6136 31.7637 53.6136 30.1291C53.6136 28.4946 52.2885 27.1695 50.6539 27.1695C49.0194 27.1695 47.6943 28.4946 47.6943 30.1291C47.6943 31.7637 49.0194 33.0887 50.6539 33.0887Z" fill="#2B110C"/>
<path d="M49.7145 29.5236C49.9552 29.5236 50.1503 29.3285 50.1503 29.0879C50.1503 28.8472 49.9552 28.6521 49.7145 28.6521C49.4739 28.6521 49.2788 28.8472 49.2788 29.0879C49.2788 29.3285 49.4739 29.5236 49.7145 29.5236Z" fill="white"/>
<path d="M51.7686 14.8387C50.9311 15.3084 49.9634 15.58 49.0466 15.8177C44.2309 17.057 39.3812 18.2737 34.4467 18.5623C31.9454 18.7094 29.3819 18.6076 27.0335 17.6286C24.5775 16.6043 22.512 14.6746 20.6672 12.5978C18.9469 10.6568 17.3737 8.55734 15.9703 6.32773C13.5483 2.46835 17.5888 4.18866 19.9316 4.04153C22.4215 3.88308 24.6511 2.38913 26.9882 1.42145C34.1241 -1.54382 42.2616 0.459439 49.0127 4.39804C50.5349 5.28649 52.0515 6.31641 53.0475 7.87261C54.0378 9.43447 54.3773 11.6471 53.4436 13.2542C53.0305 13.9616 52.442 14.4652 51.7686 14.8387Z" fill="#FED752"/>
<path d="M36.8745 46.2004C36.8745 46.2004 30.446 43.7727 25.0247 47.9999C25.0247 47.9999 20.9051 49.624 18.3076 47.9999C18.3076 47.9999 20.69 51.7971 24.3796 52.8779C28.0636 53.9644 35.9351 54.253 36.8802 46.1947L36.8745 46.2004Z" fill="#5B4428"/>
<path d="M36.8743 46.2004C36.8743 46.2004 43.3028 43.7727 48.7241 47.9999C48.7241 47.9999 52.8438 49.624 55.4412 47.9999C55.4412 47.9999 53.0588 51.7971 49.3692 52.8779C45.6852 53.9644 37.8137 54.253 36.8687 46.1947L36.8743 46.2004Z" fill="#5B4428"/>
</g>
<defs>
<clipPath id="clip0_195_29078">
<rect width="87.1246" height="80" fill="white"/>
</clipPath>
</defs>
</svg>
