<svg width="100%" height="100%" viewBox="0 0 154 140" fill="none" xmlns="http://www.w3.org/2000/svg">
<g clip-path="url(#clip0_113_23995)">
<path d="M142.151 80.0601C142.901 79.9801 143.651 79.9201 144.411 79.8801C145.051 79.8401 145.411 79.7601 146.041 79.6701C146.481 79.6101 147.631 79.3201 148.041 79.1601C150.051 78.3601 151.491 77.2401 152.931 75.6201C153.031 75.5101 153.131 75.3901 153.231 75.2701C153.731 74.6701 154.191 73.9901 154.311 73.2101C154.431 72.4301 154.081 71.5401 153.361 71.2401C152.741 70.9801 152.011 71.2001 151.471 71.6001C150.931 72.0001 150.531 72.5501 150.081 73.0501C149.351 73.8701 148.471 74.5701 147.511 75.1001C146.991 75.3901 146.391 75.6301 145.811 75.5601C145.611 75.5401 145.471 75.3601 145.501 75.1601C145.691 73.9501 146.021 72.7701 146.221 71.5701C146.441 70.2601 146.501 68.8901 146.051 67.6401C145.501 66.1101 144.211 64.9101 142.731 64.2201C141.261 63.5301 139.531 63.3001 138.011 63.8501C136.011 64.5801 134.661 66.5501 134.181 68.6201C133.521 71.4501 134.321 74.5901 136.251 76.7601C136.351 76.8701 136.301 77.0501 136.151 77.0801C134.261 77.5201 132.291 77.5801 130.381 77.2601C130.171 77.7601 129.871 79.7401 130.271 81.0201C130.311 81.1601 130.371 81.3101 130.491 81.4001C130.591 81.4701 132.021 81.5501 132.141 81.5501C134.141 81.6601 136.121 81.4301 138.041 80.8601C139.391 80.4601 140.771 80.2201 142.161 80.0701L142.151 80.0601ZM137.901 70.2001C137.901 70.2001 137.901 70.1401 137.901 70.1101C137.921 69.4701 138.071 68.8201 138.421 68.2801C138.771 67.7401 139.341 67.3301 139.981 67.2601C140.461 67.2101 140.961 67.3601 141.351 67.6501C141.741 67.9401 142.041 68.3501 142.211 68.8001C142.481 69.5001 142.471 70.2901 142.371 71.0301C142.221 72.0901 141.891 73.1101 141.401 74.0601C141.301 74.2501 141.161 74.5101 140.951 74.6001C140.741 74.6901 140.421 74.5201 140.231 74.4201C139.471 74.0101 138.861 73.3701 138.451 72.6101C138.041 71.8501 137.881 71.0501 137.891 70.2201L137.901 70.2001Z" fill="#FFAF22"/>
<path d="M36.9509 105.49C34.9809 107.32 35.2809 110.69 35.1509 112.95C34.9009 117.27 35.1809 121.61 35.9909 125.89C36.1209 126.56 36.2709 127.26 36.8109 127.77C37.3209 128.25 38.0809 128.49 38.8209 128.68C44.9509 130.3 51.6709 130.4 57.8709 128.96C58.9509 128.71 60.1109 128.35 60.6809 127.55C61.1009 126.96 61.1009 126.24 61.0909 125.55L60.8709 106.98C60.8709 106.32 60.8309 105.6 60.3309 105.08C59.6509 104.37 58.3909 104.3 57.2909 104.29L42.8509 104.13C41.5109 104.12 40.1509 104.1 38.8809 104.45C38.0609 104.68 37.4309 105.04 36.9409 105.5L36.9509 105.49Z" fill="#FFAF22"/>
<path d="M116.691 104.28C118.661 106.11 118.361 109.48 118.491 111.74C118.741 116.06 118.461 120.4 117.651 124.68C117.521 125.35 117.371 126.05 116.831 126.56C116.321 127.04 115.561 127.28 114.821 127.47C108.691 129.09 101.971 129.19 95.7713 127.75C94.6913 127.5 93.5313 127.14 92.9613 126.34C92.5413 125.75 92.5413 125.03 92.5513 124.34L92.7713 105.77C92.7713 105.11 92.8113 104.39 93.3113 103.87C93.9913 103.16 95.2513 103.09 96.3513 103.08L110.791 102.92C112.131 102.91 113.491 102.89 114.761 103.24C115.581 103.47 116.211 103.83 116.701 104.29L116.691 104.28Z" fill="#FFAF22"/>
<path d="M28.9011 113.95C26.7411 115.89 27.0811 119.44 26.9411 121.83C26.6711 126.39 26.9811 130.98 27.8611 135.49C28.0011 136.19 28.1711 136.94 28.7611 137.48C29.3111 137.99 30.1511 138.24 30.9611 138.44C37.6611 140.15 45.0111 140.26 51.7911 138.73C52.9711 138.46 54.2411 138.09 54.8611 137.24C55.3211 136.61 55.3211 135.85 55.3111 135.13L55.0711 115.51C55.0711 114.81 55.0311 114.05 54.4811 113.5C53.7411 112.75 52.3611 112.68 51.1611 112.66L35.3711 112.49C33.9111 112.47 32.4211 112.46 31.0311 112.83C30.1411 113.07 29.4411 113.45 28.9111 113.94L28.9011 113.95Z" fill="#FFC931"/>
<path d="M112.16 113.95C114.32 115.89 113.98 119.44 114.12 121.83C114.39 126.39 114.08 130.98 113.2 135.49C113.06 136.19 112.89 136.94 112.3 137.48C111.75 137.99 110.91 138.24 110.1 138.44C103.4 140.15 96.0505 140.26 89.2705 138.73C88.0905 138.46 86.8204 138.09 86.2004 137.24C85.7404 136.61 85.7405 135.85 85.7505 135.13L85.9904 115.51C85.9904 114.81 86.0305 114.05 86.5805 113.5C87.3205 112.75 88.7005 112.68 89.9005 112.66L105.69 112.49C107.15 112.47 108.64 112.46 110.03 112.83C110.92 113.07 111.62 113.45 112.15 113.94L112.16 113.95Z" fill="#FFC931"/>
<path d="M50.6509 6.74992C55.6609 5.44992 60.8209 4.72992 66.0309 4.66992C92.8209 4.34992 118.991 21.5499 128.611 45.9699C136.201 65.2299 133.061 87.9399 121.401 105.02C108.611 123.75 85.6809 125.22 64.2809 125.46C48.9409 125.63 33.1109 122.04 21.0409 112.79C1.63087 97.9199 -4.43913 69.8199 4.20087 47.2399C11.7609 27.4899 29.8809 12.1399 50.6509 6.74992Z" fill="#FFF0B0"/>
<path d="M57.6613 72.9899C57.7913 73.4199 55.9813 76.7499 56.7613 77.1299C60.8413 79.1199 64.7913 80.6499 73.1513 78.5099C78.2613 77.1999 81.1113 73.1599 82.1613 69.7799C83.5113 65.4499 82.1113 58.5799 75.1013 53.8799C69.3413 59.2899 66.9313 68.2299 61.1713 73.6399C60.0413 74.6999 57.3013 71.7799 57.6513 72.9799L57.6613 72.9899Z" fill="#FFAF22"/>
<path d="M58.2011 52.72C57.6911 52.9 57.2011 53.11 56.7111 53.35C48.9311 57.15 46.9811 68.33 53.1011 74.5C56.6211 78.04 61.9911 79.43 66.9211 78.65C72.4611 77.77 77.6511 74.06 79.6211 68.8C81.5911 63.54 79.8211 56.93 75.1011 53.89C72.5511 52.25 69.4311 51.71 66.4011 51.61C63.6311 51.52 60.7911 51.78 58.2011 52.72Z" fill="#FFC931"/>
<path d="M63.361 61.98C63.251 61.47 63.101 60.97 62.881 60.48C62.601 59.84 62.201 59.23 61.611 58.87C61.021 58.51 60.201 58.44 59.651 58.86C59.131 59.25 58.951 59.95 58.831 60.6C58.501 62.51 58.571 64.35 58.701 66.27C58.801 67.85 58.741 69.44 59.551 70.87C59.741 71.21 60.001 71.55 60.361 71.7C60.791 71.88 61.301 71.77 61.691 71.51C62.081 71.25 62.351 70.85 62.561 70.43C63.181 69.23 63.361 67.86 63.481 66.52C63.621 65.01 63.681 63.45 63.371 61.98H63.361Z" fill="#FFF0B0"/>
<path d="M71.7204 61.98C71.6104 61.47 71.4604 60.97 71.2404 60.48C70.9604 59.84 70.5604 59.23 69.9704 58.87C69.3804 58.51 68.5604 58.44 68.0104 58.86C67.4904 59.25 67.3104 59.95 67.1904 60.6C66.8604 62.51 66.9304 64.35 67.0604 66.27C67.1604 67.85 67.1004 69.44 67.9104 70.87C68.1004 71.21 68.3604 71.55 68.7204 71.7C69.1504 71.88 69.6604 71.77 70.0504 71.51C70.4404 71.25 70.7104 70.85 70.9204 70.43C71.5404 69.23 71.7204 67.86 71.8404 66.52C71.9804 65.01 72.0404 63.45 71.7304 61.98H71.7204Z" fill="#FFF0B0"/>
<path d="M17.3506 29.87C17.3506 29.87 10.8906 8.47003 17.3506 1.64003C23.8106 -5.19997 43.1806 11.58 43.1806 11.58C43.1806 11.58 26.4706 19.24 17.3506 29.88V29.87Z" fill="#FFF0B0"/>
<path d="M92.0508 11.9601C92.0508 11.9601 102.201 2.01015 109.491 1.13015C111.071 0.940149 112.681 1.46015 113.801 2.60015C116.241 5.08015 119.731 11.7001 117.121 28.6701C117.121 28.6701 108.381 17.6601 92.0508 11.9601Z" fill="#FFF0B0"/>
<path d="M109.861 5.29981C109.031 5.26981 108.151 5.5898 107.381 5.9498C105.311 6.9298 103.441 8.23981 101.591 9.54981C99.8908 10.7498 98.1808 11.9498 96.7308 13.3998C95.7108 14.4198 94.7708 15.8098 95.2108 17.1398C95.5908 18.2698 96.8208 18.9298 97.9508 19.4798L109.531 25.1098C110.961 25.7998 112.791 26.7098 113.291 24.6898C114.251 20.7598 114.371 16.6698 113.841 12.6698C113.601 10.8398 113.221 8.9998 112.411 7.3098C112.071 6.5998 111.611 5.87981 110.871 5.52981C110.551 5.37981 110.211 5.30981 109.861 5.29981Z" fill="#FFC931"/>
<path d="M21.8909 5.00001C22.4309 4.80001 23.0509 4.68001 23.7709 4.66001C25.2009 4.62001 26.6309 4.90001 27.9209 5.47001C29.4609 6.15001 30.7609 7.21001 32.0509 8.26001L37.5409 12.76C38.1109 13.23 38.7309 13.79 38.7409 14.52C38.7409 15.32 38.0309 15.94 37.3709 16.45L25.1309 25.85C24.5109 26.33 23.7209 26.84 22.9809 26.58C22.3909 26.38 22.1009 25.77 21.8809 25.21C20.2909 21.2 15.6309 7.36001 21.9009 5.01001L21.8909 5.00001Z" fill="#FFC931"/>
<path d="M73.0014 91.8301C70.1614 91.8301 67.9913 90.6901 67.9513 90.6701C67.4613 90.4101 67.2814 89.8001 67.5514 89.3101C67.8114 88.8301 68.4214 88.6401 68.9014 88.9101C69.1414 89.0401 74.9414 92.0501 79.3314 86.6301C79.6814 86.2001 80.3113 86.1301 80.7414 86.4801C81.1714 86.8301 81.2414 87.4601 80.8914 87.8901C78.3714 91.0001 75.4414 91.8401 73.0014 91.8401V91.8301Z" fill="#FFAF22"/>
<path d="M41.8511 56.9102C44.7395 56.9102 47.0811 54.5686 47.0811 51.6802C47.0811 48.7917 44.7395 46.4502 41.8511 46.4502C38.9626 46.4502 36.6211 48.7917 36.6211 51.6802C36.6211 54.5686 38.9626 56.9102 41.8511 56.9102Z" fill="#2B110C"/>
<path d="M40.1909 50.6098C40.6162 50.6098 40.9609 50.2651 40.9609 49.8398C40.9609 49.4146 40.6162 49.0698 40.1909 49.0698C39.7656 49.0698 39.4209 49.4146 39.4209 49.8398C39.4209 50.2651 39.7656 50.6098 40.1909 50.6098Z" fill="white"/>
<path d="M89.8706 56.9102C92.7591 56.9102 95.1006 54.5686 95.1006 51.6802C95.1006 48.7917 92.7591 46.4502 89.8706 46.4502C86.9822 46.4502 84.6406 48.7917 84.6406 51.6802C84.6406 54.5686 86.9822 56.9102 89.8706 56.9102Z" fill="#2B110C"/>
<path d="M88.2104 50.6098C88.6357 50.6098 88.9804 50.2651 88.9804 49.8398C88.9804 49.4146 88.6357 49.0698 88.2104 49.0698C87.7852 49.0698 87.4404 49.4146 87.4404 49.8398C87.4404 50.2651 87.7852 50.6098 88.2104 50.6098Z" fill="white"/>
</g>
<defs>
<clipPath id="clip0_113_23995">
<rect width="153.96" height="139.81" fill="white"/>
</clipPath>
</defs>
</svg>
