<svg width="100%" height="100%" viewBox="0 0 155 171" fill="none" xmlns="http://www.w3.org/2000/svg">
<g clip-path="url(#clip0_113_24006)">
<path d="M141.792 125.32C142.542 125.24 143.292 125.18 144.052 125.14C144.692 125.1 145.052 125.02 145.682 124.93C146.122 124.87 147.272 124.58 147.682 124.42C149.692 123.62 151.132 122.5 152.572 120.88C152.672 120.77 152.772 120.65 152.872 120.53C153.372 119.93 153.832 119.25 153.952 118.47C154.072 117.69 153.722 116.8 153.002 116.5C152.382 116.24 151.652 116.46 151.112 116.86C150.572 117.26 150.172 117.81 149.722 118.31C148.992 119.13 148.112 119.83 147.152 120.36C146.632 120.65 146.032 120.89 145.452 120.82C145.252 120.8 145.112 120.62 145.142 120.42C145.332 119.21 145.662 118.03 145.862 116.83C146.082 115.52 146.142 114.15 145.692 112.9C145.142 111.37 143.852 110.17 142.372 109.48C140.902 108.79 139.172 108.56 137.652 109.11C135.652 109.84 134.302 111.81 133.822 113.88C133.162 116.71 133.962 119.85 135.892 122.02C135.992 122.13 135.942 122.31 135.792 122.34C133.902 122.78 131.932 122.84 130.022 122.52C129.812 123.02 129.512 125 129.912 126.28C129.952 126.42 130.012 126.57 130.132 126.66C130.232 126.73 131.662 126.81 131.782 126.81C133.782 126.92 135.762 126.69 137.682 126.12C139.032 125.72 140.412 125.48 141.802 125.33L141.792 125.32ZM137.542 115.46C137.542 115.46 137.542 115.4 137.542 115.37C137.562 114.73 137.712 114.08 138.062 113.54C138.412 113 138.982 112.59 139.622 112.52C140.102 112.47 140.602 112.62 140.992 112.91C141.382 113.2 141.682 113.61 141.852 114.06C142.122 114.76 142.112 115.55 142.012 116.29C141.862 117.35 141.532 118.37 141.042 119.32C140.942 119.51 140.802 119.77 140.592 119.86C140.382 119.95 140.062 119.78 139.872 119.68C139.112 119.27 138.502 118.63 138.092 117.87C137.682 117.11 137.522 116.31 137.532 115.48L137.542 115.46Z" fill="#5FD147"/>
<path d="M50.2915 52.0102C55.3015 50.7102 60.4615 49.9902 65.6715 49.9302C92.4615 49.6102 118.631 66.8102 128.251 91.2302C135.841 110.49 132.701 133.2 121.041 150.28C108.251 169.01 85.3215 170.48 63.9215 170.72C48.5815 170.89 32.7515 167.3 20.6815 158.05C1.2715 143.17 -4.7985 115.07 3.8415 92.5002C11.4015 72.7502 29.5215 57.4002 50.2915 52.0102Z" fill="#CEFFC7"/>
<path d="M57.3019 118.25C57.4319 118.68 55.6219 122.01 56.4019 122.39C60.4819 124.38 64.4319 125.91 72.7919 123.77C77.9019 122.46 80.7519 118.42 81.8019 115.04C83.1519 110.71 81.7519 103.84 74.7419 99.1401C68.9819 104.55 66.5719 113.49 60.8119 118.9C59.6819 119.96 56.9419 117.04 57.2919 118.24L57.3019 118.25Z" fill="#5FD147"/>
<path d="M57.8417 97.9802C57.3317 98.1602 56.8417 98.3702 56.3517 98.6102C48.5717 102.41 46.6217 113.59 52.7417 119.76C56.2617 123.3 61.6317 124.69 66.5617 123.91C72.1017 123.03 77.2917 119.32 79.2617 114.06C81.2317 108.8 79.4617 102.19 74.7417 99.1502C72.1917 97.5102 69.0717 96.9702 66.0417 96.8702C63.2717 96.7802 60.4317 97.0402 57.8417 97.9802Z" fill="#7DDD6F"/>
<path d="M63.0016 107.24C62.8916 106.73 62.7416 106.23 62.5216 105.74C62.2416 105.1 61.8416 104.49 61.2516 104.13C60.6616 103.77 59.8416 103.7 59.2916 104.12C58.7716 104.51 58.5916 105.21 58.4716 105.86C58.1416 107.77 58.2116 109.61 58.3416 111.53C58.4416 113.11 58.3816 114.7 59.1916 116.13C59.3816 116.47 59.6416 116.81 60.0016 116.96C60.4316 117.14 60.9416 117.03 61.3316 116.77C61.7216 116.51 61.9916 116.11 62.2016 115.69C62.8216 114.49 63.0016 113.12 63.1216 111.78C63.2616 110.27 63.3216 108.71 63.0116 107.24H63.0016Z" fill="#CEFFC7"/>
<path d="M71.361 107.24C71.251 106.73 71.101 106.23 70.881 105.74C70.601 105.1 70.201 104.49 69.611 104.13C69.021 103.77 68.201 103.7 67.651 104.12C67.131 104.51 66.951 105.21 66.831 105.86C66.501 107.77 66.571 109.61 66.701 111.53C66.801 113.11 66.741 114.7 67.551 116.13C67.741 116.47 68.001 116.81 68.361 116.96C68.791 117.14 69.301 117.03 69.691 116.77C70.081 116.51 70.351 116.11 70.561 115.69C71.181 114.49 71.361 113.12 71.481 111.78C71.621 110.27 71.681 108.71 71.371 107.24H71.361Z" fill="#CEFFC7"/>
<path d="M16.9912 75.1303C16.9912 75.1303 10.5312 53.7303 16.9912 46.9003C23.4512 40.0603 42.8212 56.8403 42.8212 56.8403C42.8212 56.8403 26.1112 64.5003 16.9912 75.1403V75.1303Z" fill="#CEFFC7"/>
<path d="M91.6914 57.2101C91.6914 57.2101 101.841 47.2601 109.131 46.3801C110.711 46.1901 112.321 46.7101 113.441 47.8501C115.881 50.3301 119.371 56.9501 116.761 73.9201C116.761 73.9201 108.021 62.9101 91.6914 57.2101Z" fill="#CEFFC7"/>
<path d="M109.501 50.5503C108.671 50.5203 107.791 50.8403 107.021 51.2003C104.951 52.1803 103.081 53.4903 101.231 54.8003C99.5314 56.0003 97.8214 57.2003 96.3714 58.6503C95.3514 59.6703 94.4114 61.0603 94.8514 62.3903C95.2314 63.5203 96.4614 64.1803 97.5914 64.7303L109.171 70.3603C110.601 71.0503 112.431 71.9603 112.931 69.9403C113.891 66.0103 114.011 61.9203 113.481 57.9203C113.241 56.0903 112.861 54.2503 112.051 52.5603C111.711 51.8503 111.251 51.1303 110.511 50.7803C110.191 50.6303 109.851 50.5603 109.501 50.5503Z" fill="#5FD147"/>
<path d="M21.5315 50.2603C22.0715 50.0603 22.6915 49.9403 23.4115 49.9203C24.8415 49.8803 26.2715 50.1603 27.5615 50.7303C29.1015 51.4103 30.4015 52.4703 31.6915 53.5203L37.1815 58.0203C37.7515 58.4903 38.3715 59.0503 38.3815 59.7803C38.3815 60.5803 37.6715 61.2003 37.0115 61.7103L24.7715 71.1103C24.1515 71.5903 23.3615 72.1003 22.6215 71.8403C22.0315 71.6403 21.7415 71.0303 21.5215 70.4703C19.9315 66.4603 15.2715 52.6203 21.5415 50.2703L21.5315 50.2603Z" fill="#5FD147"/>
<path d="M72.642 137.08C69.802 137.08 67.632 135.94 67.592 135.92C67.102 135.66 66.922 135.05 67.192 134.56C67.452 134.08 68.062 133.89 68.542 134.16C68.802 134.3 74.582 137.29 78.962 131.88C79.312 131.45 79.942 131.38 80.372 131.73C80.802 132.08 80.872 132.71 80.522 133.14C78.012 136.25 75.072 137.09 72.642 137.09V137.08Z" fill="#5FD147"/>
<path d="M41.4917 102.17C44.3802 102.17 46.7217 99.8289 46.7217 96.9405C46.7217 94.052 44.3802 91.7104 41.4917 91.7104C38.6033 91.7104 36.2617 94.052 36.2617 96.9405C36.2617 99.8289 38.6033 102.17 41.4917 102.17Z" fill="#2B110C"/>
<path d="M39.8315 95.8701C40.2568 95.8701 40.6015 95.5253 40.6015 95.1001C40.6015 94.6748 40.2568 94.3301 39.8315 94.3301C39.4063 94.3301 39.0615 94.6748 39.0615 95.1001C39.0615 95.5253 39.4063 95.8701 39.8315 95.8701Z" fill="white"/>
<path d="M89.5113 102.17C92.3997 102.17 94.7412 99.8289 94.7412 96.9405C94.7412 94.052 92.3997 91.7104 89.5113 91.7104C86.6228 91.7104 84.2812 94.052 84.2812 96.9405C84.2812 99.8289 86.6228 102.17 89.5113 102.17Z" fill="#2B110C"/>
<path d="M87.8511 95.8701C88.2763 95.8701 88.6211 95.5253 88.6211 95.1001C88.6211 94.6748 88.2763 94.3301 87.8511 94.3301C87.4258 94.3301 87.0811 94.6748 87.0811 95.1001C87.0811 95.5253 87.4258 95.8701 87.8511 95.8701Z" fill="white"/>
<path d="M45.5811 16.61C45.9911 12.83 47.4711 8.51004 49.4611 5.36004C50.2611 4.09004 51.2711 2.90004 52.5711 2.25004C53.8911 1.59004 55.4711 1.55004 56.8111 2.16004C58.3211 2.84004 59.4411 4.26004 60.1711 5.82004C60.9011 7.38004 61.2611 9.11004 61.6211 10.81L53.5111 13.78L49.5311 15.24C48.4111 15.65 46.7311 16.66 45.5911 16.61H45.5811Z" fill="#7DDD6F"/>
<path d="M68.8311 10.7802L69.8811 7.96022C70.4811 6.36022 71.0811 4.75022 72.0011 3.34022C72.9211 1.93022 74.1911 0.710216 75.7311 0.230216C77.2011 -0.229784 78.7911 0.020216 80.2211 0.610216C83.3911 1.93022 85.7511 4.88022 87.3811 8.08022C89.011 11.2802 90.4011 15.7902 91.7211 19.1402C92.0511 19.9702 92.9511 21.4602 91.5411 21.1002C90.4711 20.8302 87.361 18.9602 86.341 18.5302C84.181 17.6302 83.6711 16.9602 81.5111 16.0602C80.4711 15.6302 69.191 10.9002 68.841 10.7702L68.8311 10.7802Z" fill="#7DDD6F"/>
<path d="M33.1614 67.47C32.8548 65.77 32.6581 64.6533 32.5714 64.12C31.9814 60.6 31.5414 57.02 31.6614 53.43C31.8314 48.15 33.2914 42.74 36.6614 38.87C37.2914 38.14 38.0214 37.41 38.1914 36.43C38.3014 35.78 38.1514 35.12 38.0314 34.48C36.8114 27.53 40.5014 20.33 45.9114 16.26C51.3214 12.19 58.1414 10.83 64.7514 10.7C70.4414 10.59 76.1814 11.33 81.5214 13.44C86.8514 15.55 91.7714 19.08 95.2014 23.93C99.7214 30.31 101.421 38.53 101.541 46.53C101.651 53.64 100.611 60.7 99.7114 67.76C99.5614 68.94 98.4514 69.67 97.4014 69.28C93.6014 67.88 85.5614 65.95 84.5214 65.72C79.3514 64.58 74.1014 63.9 68.8314 63.67C58.2914 63.22 47.4614 63.93 37.5714 67.84C37.0514 68.04 36.2614 68.41 35.3914 68.75C34.4214 69.12 33.3514 68.55 33.1514 67.47H33.1614Z" fill="#40AF25"/>
<path d="M103.231 44.0702C94.2009 36.5802 82.5409 31.4202 71.2309 29.7002C68.0809 29.2202 64.9209 29.0202 61.7709 29.0702C62.3409 28.7102 62.8709 28.2702 63.4409 27.7802C64.8809 26.5402 66.3309 25.2902 67.5009 23.7202C67.6309 23.5502 67.8409 23.2002 67.8509 22.9702C67.8509 22.6802 67.7109 22.4502 67.5409 22.2502C66.9809 21.5502 66.2509 20.6402 65.5109 21.0402C65.2209 21.2002 64.7209 21.6302 64.4609 21.8502C63.0009 23.0902 61.5809 24.2202 60.1209 25.4602C60.0009 25.5702 59.8509 25.6802 59.7009 25.6402C59.4609 25.5902 59.3909 25.2402 59.3709 24.9602C59.0709 20.1902 59.6409 15.3402 61.0409 10.8302C59.6909 10.7902 58.3309 10.9502 57.0109 11.3002C56.7009 11.3802 56.3809 11.4802 56.1309 11.6902C55.7009 12.0402 55.4909 12.6502 55.3309 13.2402C54.2909 17.1102 54.5809 21.2602 54.5609 25.3102C54.5609 25.6402 54.5209 26.0402 54.2609 26.2002C54.0709 26.3102 53.8509 26.2402 53.6509 26.1602C52.0609 25.5602 50.5209 24.7702 49.0609 23.8202C48.7709 23.6302 48.4609 23.4202 48.1209 23.4402C47.5409 23.4802 47.1709 24.1402 46.9209 24.7402C46.8009 25.0302 46.6709 25.5202 46.7309 25.8302C46.8009 26.2002 47.0909 26.4502 47.3709 26.6602C48.9409 27.8802 50.5609 29.0202 52.2209 30.0902C47.3509 31.0602 42.5509 32.7302 37.8909 35.1502C37.4609 35.3702 36.9909 35.8802 37.0109 36.3902C37.0109 36.4302 36.1209 37.4202 36.1309 37.4502C36.2009 37.8402 36.5909 38.1202 36.9709 38.1502C37.3809 38.1902 37.7809 38.0102 38.1709 37.8402C52.9409 31.3202 71.0509 30.4502 85.7709 37.1402C89.0209 38.6202 92.1409 40.4002 95.2409 42.2102C96.7909 43.1202 98.3309 44.0402 99.8909 44.9402C100.391 45.2302 103.781 47.5202 103.241 45.2302C103.121 44.7402 103.621 44.3902 103.241 44.0802L103.231 44.0702Z" fill="#CEFFC7"/>
</g>
<defs>
<clipPath id="clip0_113_24006">
<rect width="153.96" height="170.72" fill="white" transform="translate(0.339844)"/>
</clipPath>
</defs>
</svg>
