<svg width="292" height="140" viewBox="0 0 292 140" fill="none" xmlns="http://www.w3.org/2000/svg">
<g clip-path="url(#clip0_45_29425)">
<path d="M197.094 85.9898C197.684 85.9269 198.274 85.8796 198.872 85.8482C199.375 85.8167 199.658 85.7538 200.154 85.683C200.5 85.6357 201.405 85.4076 201.728 85.2817C203.309 84.6523 204.442 83.7711 205.575 82.4965C205.654 82.4099 205.732 82.3155 205.811 82.2211C206.204 81.749 206.566 81.214 206.661 80.6003C206.755 79.9867 206.48 79.2864 205.913 79.0504C205.426 78.8458 204.851 79.0189 204.426 79.3336C204.001 79.6483 203.687 80.0811 203.333 80.4745C202.758 81.1196 202.066 81.6704 201.311 82.0874C200.902 82.3155 200.429 82.5044 199.973 82.4493C199.816 82.4335 199.706 82.2919 199.729 82.1346C199.879 81.1826 200.138 80.2542 200.296 79.31C200.469 78.2793 200.516 77.2014 200.162 76.218C199.729 75.0142 198.714 74.0701 197.55 73.5272C196.393 72.9843 195.032 72.8033 193.836 73.2361C192.263 73.8104 191.201 75.3604 190.823 76.989C190.304 79.2156 190.933 81.6861 192.452 83.3934C192.53 83.48 192.491 83.6216 192.373 83.6452C190.886 83.9914 189.336 84.0386 187.833 83.7868C187.668 84.1802 187.432 85.738 187.747 86.7451C187.778 86.8553 187.825 86.9733 187.92 87.0441C187.998 87.0992 189.123 87.1621 189.218 87.1621C190.791 87.2487 192.349 87.0677 193.86 86.6192C194.922 86.3045 196.008 86.1157 197.101 85.9977L197.094 85.9898ZM193.75 78.2321C193.75 78.2321 193.75 78.1849 193.75 78.1613C193.765 77.6578 193.883 77.1464 194.159 76.7215C194.434 76.2966 194.883 75.9741 195.386 75.919C195.764 75.8797 196.157 75.9977 196.464 76.2258C196.771 76.454 197.007 76.7766 197.141 77.1306C197.353 77.6814 197.345 78.3029 197.267 78.8852C197.149 79.7191 196.889 80.5217 196.503 81.2691C196.425 81.4186 196.315 81.6232 196.149 81.694C195.984 81.7648 195.732 81.631 195.583 81.5523C194.985 81.2298 194.505 80.7262 194.182 80.1283C193.86 79.5303 193.734 78.9009 193.742 78.2479L193.75 78.2321Z" fill="#FFAF22"/>
<path d="M114.324 105.998C112.774 107.437 113.01 110.089 112.908 111.867C112.711 115.266 112.932 118.681 113.569 122.048C113.671 122.575 113.789 123.126 114.214 123.527C114.615 123.905 115.213 124.094 115.795 124.243C120.618 125.518 125.906 125.596 130.784 124.463C131.633 124.267 132.546 123.984 132.995 123.354C133.325 122.89 133.325 122.323 133.317 121.781L133.144 107.17C133.144 106.651 133.113 106.084 132.719 105.675C132.184 105.116 131.193 105.061 130.327 105.054L118.966 104.928C117.912 104.92 116.842 104.904 115.843 105.179C115.197 105.36 114.702 105.644 114.316 106.006L114.324 105.998Z" fill="#FFAF22"/>
<path d="M177.062 105.046C178.612 106.485 178.376 109.137 178.478 110.915C178.675 114.314 178.455 117.729 177.818 121.096C177.715 121.623 177.597 122.174 177.172 122.575C176.771 122.953 176.173 123.142 175.591 123.291C170.768 124.566 165.481 124.644 160.603 123.511C159.753 123.315 158.84 123.031 158.392 122.402C158.061 121.938 158.061 121.371 158.069 120.829L158.242 106.218C158.242 105.699 158.274 105.132 158.667 104.723C159.202 104.164 160.194 104.109 161.059 104.102L172.42 103.976C173.475 103.968 174.545 103.952 175.544 104.227C176.189 104.408 176.685 104.692 177.07 105.054L177.062 105.046Z" fill="#FFAF22"/>
<path d="M107.99 112.654C106.291 114.18 106.558 116.973 106.448 118.854C106.236 122.441 106.48 126.053 107.172 129.601C107.282 130.152 107.416 130.742 107.88 131.167C108.313 131.568 108.974 131.765 109.611 131.922C114.883 133.268 120.665 133.354 126 132.15C126.928 131.938 127.927 131.647 128.415 130.978C128.777 130.482 128.777 129.884 128.769 129.318L128.58 113.881C128.58 113.33 128.549 112.733 128.116 112.3C127.534 111.71 126.448 111.655 125.504 111.639L113.081 111.505C111.932 111.489 110.76 111.482 109.666 111.773C108.966 111.961 108.415 112.26 107.998 112.646L107.99 112.654Z" fill="#FFC931"/>
<path d="M173.498 112.654C175.198 114.18 174.93 116.973 175.04 118.854C175.253 122.441 175.009 126.053 174.316 129.601C174.206 130.152 174.072 130.742 173.608 131.167C173.176 131.568 172.515 131.765 171.877 131.922C166.606 133.268 160.823 133.354 155.489 132.15C154.56 131.938 153.561 131.647 153.073 130.978C152.711 130.482 152.711 129.884 152.719 129.318L152.908 113.881C152.908 113.33 152.939 112.733 153.372 112.3C153.954 111.71 155.04 111.655 155.984 111.639L168.408 111.505C169.556 111.489 170.729 111.482 171.822 111.773C172.522 111.961 173.073 112.26 173.49 112.646L173.498 112.654Z" fill="#FFC931"/>
<path d="M125.103 28.3108C129.045 27.288 133.105 26.7215 137.204 26.6743C158.282 26.4225 178.872 39.9552 186.441 59.1684C192.412 74.3218 189.942 92.1896 180.768 105.628C170.705 120.364 152.664 121.521 135.827 121.71C123.758 121.843 111.303 119.019 101.806 111.741C86.5351 100.042 81.7593 77.9331 88.5571 60.1676C94.5052 44.6287 108.762 32.5516 125.103 28.3108Z" fill="#FFF0B0"/>
<path d="M130.619 80.4272C130.721 80.7656 129.297 83.3855 129.91 83.6845C133.121 85.2502 136.228 86.454 142.806 84.7703C146.826 83.7396 149.069 80.561 149.895 77.9017C150.957 74.4949 149.855 69.0897 144.34 65.3918C139.808 69.6483 137.912 76.6822 133.38 80.9387C132.491 81.7726 130.335 79.4752 130.611 80.4194L130.619 80.4272Z" fill="#FFAF22"/>
<path d="M131.043 64.4792C130.642 64.6208 130.257 64.786 129.871 64.9748C123.75 67.9646 122.216 76.7608 127.031 81.6153C129.8 84.4005 134.025 85.4941 137.904 84.8804C142.263 84.1881 146.346 81.2691 147.896 77.1306C149.446 72.9922 148.054 67.7915 144.34 65.3997C142.334 64.1094 139.879 63.6845 137.495 63.6058C135.316 63.535 133.081 63.7396 131.043 64.4792Z" fill="#FFC931"/>
<path d="M135.103 71.7648C135.017 71.3635 134.899 70.9701 134.725 70.5846C134.505 70.0811 134.19 69.6011 133.726 69.3179C133.262 69.0346 132.617 68.9796 132.184 69.31C131.775 69.6169 131.633 70.1676 131.539 70.679C131.279 72.1818 131.334 73.6294 131.437 75.1401C131.515 76.3832 131.468 77.6342 132.105 78.7593C132.255 79.0268 132.46 79.2943 132.743 79.4123C133.081 79.5539 133.482 79.4674 133.789 79.2628C134.096 79.0583 134.308 78.7435 134.474 78.4131C134.962 77.4689 135.103 76.3911 135.198 75.3368C135.308 74.1487 135.355 72.9213 135.111 71.7648H135.103Z" fill="#FFF0B0"/>
<path d="M141.681 71.7648C141.594 71.3635 141.476 70.9701 141.303 70.5846C141.083 70.0811 140.768 69.6011 140.304 69.3179C139.84 69.0346 139.195 68.9796 138.762 69.31C138.353 69.6169 138.211 70.1676 138.117 70.679C137.857 72.1818 137.912 73.6294 138.014 75.1401C138.093 76.3832 138.046 77.6342 138.683 78.7593C138.833 79.0268 139.037 79.2943 139.32 79.4123C139.659 79.5539 140.06 79.4674 140.367 79.2628C140.674 79.0583 140.886 78.7435 141.051 78.4131C141.539 77.4689 141.681 76.3911 141.775 75.3368C141.885 74.1487 141.933 72.9213 141.689 71.7648H141.681Z" fill="#FFF0B0"/>
<path d="M98.9035 46.5012C98.9035 46.5012 93.8209 29.6641 98.9035 24.2903C103.986 18.9088 119.226 32.111 119.226 32.111C119.226 32.111 106.079 38.1377 98.9035 46.5091V46.5012Z" fill="#FFF0B0"/>
<path d="M157.676 32.4099C157.676 32.4099 165.662 24.5815 171.397 23.8891C172.64 23.7396 173.907 24.1487 174.788 25.0457C176.708 26.9969 179.454 32.2054 177.4 45.5571C177.4 45.5571 170.524 36.8946 157.676 32.4099Z" fill="#FFF0B0"/>
<path d="M171.689 27.17C171.036 27.1464 170.343 27.3981 169.737 27.6814C168.109 28.4524 166.637 29.4831 165.182 30.5138C163.844 31.4579 162.499 32.4021 161.358 33.5429C160.556 34.3454 159.816 35.4391 160.162 36.4855C160.461 37.3745 161.429 37.8938 162.318 38.3265L171.429 42.7561C172.554 43.299 173.994 44.015 174.387 42.4257C175.143 39.3336 175.237 36.1157 174.82 32.9686C174.631 31.5287 174.332 30.0811 173.695 28.7514C173.427 28.1928 173.065 27.6263 172.483 27.3509C172.231 27.2329 171.964 27.1778 171.689 27.17Z" fill="#FFC931"/>
<path d="M102.475 26.9339C102.9 26.7766 103.388 26.6822 103.955 26.6664C105.08 26.635 106.205 26.8553 107.22 27.3037C108.431 27.8387 109.454 28.6727 110.469 29.4988L114.789 33.0394C115.237 33.4092 115.725 33.8498 115.733 34.4241C115.733 35.0535 115.174 35.5413 114.655 35.9426L105.025 43.3383C104.537 43.716 103.915 44.1173 103.333 43.9127C102.869 43.7553 102.641 43.2754 102.468 42.8348C101.217 39.6798 97.5502 28.7907 102.483 26.9418L102.475 26.9339Z" fill="#FFC931"/>
<path d="M142.688 95.2502C140.453 95.2502 138.746 94.3533 138.714 94.3376C138.329 94.133 138.187 93.6531 138.4 93.2675C138.604 92.8899 139.084 92.7404 139.462 92.9528C139.666 93.063 144.214 95.4154 147.66 91.159C147.935 90.8206 148.431 90.7656 148.769 91.0409C149.108 91.3163 149.163 91.812 148.887 92.1503C146.905 94.5972 144.599 95.2581 142.688 95.2581V95.2502Z" fill="#FFAF22"/>
<path d="M118.179 67.7758C120.452 67.7758 122.294 65.9335 122.294 63.6609C122.294 61.3883 120.452 59.5461 118.179 59.5461C115.907 59.5461 114.064 61.3883 114.064 63.6609C114.064 65.9335 115.907 67.7758 118.179 67.7758Z" fill="#2B110C"/>
<path d="M116.873 62.8191C117.208 62.8191 117.479 62.5478 117.479 62.2132C117.479 61.8787 117.208 61.6074 116.873 61.6074C116.539 61.6074 116.268 61.8787 116.268 62.2132C116.268 62.5478 116.539 62.8191 116.873 62.8191Z" fill="white"/>
<path d="M155.961 67.7758C158.233 67.7758 160.075 65.9335 160.075 63.6609C160.075 61.3883 158.233 59.5461 155.961 59.5461C153.688 59.5461 151.846 61.3883 151.846 63.6609C151.846 65.9335 153.688 67.7758 155.961 67.7758Z" fill="#2B110C"/>
<path d="M154.655 62.8191C154.989 62.8191 155.26 62.5478 155.26 62.2132C155.26 61.8787 154.989 61.6074 154.655 61.6074C154.32 61.6074 154.049 61.8787 154.049 62.2132C154.049 62.5478 154.32 62.8191 154.655 62.8191Z" fill="white"/>
<path d="M90.6579 53.8025C90.6579 53.8025 114.497 54.8175 127.534 47.0834C140.571 39.3494 143.758 27.7837 143.758 27.7837C143.758 27.7837 129.399 21.1275 117.983 30.7892C117.983 30.7892 117.306 37.7128 111.61 41.2534L102.609 47.0834L95.4101 50.2227C95.4101 50.2227 84.9066 53.3462 90.6579 53.8025Z" fill="#FED752"/>
<path d="M111.744 50.9308C109.509 52.7483 107.227 54.5343 104.67 55.8403C103.789 56.2888 102.884 56.6822 101.98 57.0756C101.767 57.17 101.531 57.2801 101.468 57.5004C101.342 57.9253 101.901 58.2007 102.334 58.2715C104.466 58.6019 106.645 58.4367 108.793 58.2007C126.692 56.2337 144.379 49.3966 159.084 39.0189C159.926 38.4288 160.799 37.7679 161.169 36.8081C161.767 35.2424 160.807 33.5114 159.667 32.2762C155.803 28.0826 149.792 26.5012 144.096 26.4697C143.349 26.4697 142.585 26.4855 141.885 26.7372C141.146 27.0047 140.524 27.5083 139.91 28.004L112.373 50.4194C112.161 50.5925 111.948 50.7656 111.744 50.9308Z" fill="#FED752"/>
<path d="M149.635 37.7601C149.635 37.7601 155.544 49.609 172.641 51.214C172.641 51.214 176.575 51.3478 179.446 51.214C179.446 51.214 185.316 49.8765 175.331 41.7097C165.347 33.5429 157.314 31.7097 157.314 31.7097C157.314 31.7097 147.503 31.3871 149.627 37.7522L149.635 37.7601Z" fill="#FED752"/>
</g>
<defs>
<clipPath id="clip0_45_29425">
<rect width="121.133" height="110" fill="white" transform="translate(85 23)"/>
</clipPath>
</defs>
</svg>
