<svg width="292" height="140" viewBox="0 0 292 140" fill="none" xmlns="http://www.w3.org/2000/svg">
<g clip-path="url(#clip0_45_29427)">
<path d="M93.9974 92.3863C93.9974 92.3863 89.6072 103.598 79.3239 105.612C79.3239 105.612 74.6268 110.057 92.0619 115.785C92.0619 115.785 106.57 118.791 112.927 118.256L118.073 104.196L93.9974 92.3863Z" fill="#FED752"/>
<path d="M193.478 91.5996C193.478 91.5996 197.869 102.811 208.152 104.825C208.152 104.825 212.849 109.271 195.414 114.998C195.414 114.998 180.906 118.004 174.548 117.469L169.403 103.409L193.478 91.5996Z" fill="#FED752"/>
<path d="M203.313 85.9898C203.903 85.9269 204.493 85.8796 205.091 85.8482C205.594 85.8167 205.878 85.7538 206.373 85.683C206.72 85.6357 207.624 85.4076 207.947 85.2817C209.528 84.6523 210.661 83.7711 211.794 82.4965C211.873 82.4099 211.952 82.3155 212.03 82.2211C212.424 81.749 212.786 81.214 212.88 80.6003C212.974 79.9867 212.699 79.2864 212.133 79.0504C211.645 78.8458 211.07 79.0189 210.646 79.3336C210.221 79.6483 209.906 80.0811 209.552 80.4745C208.978 81.1196 208.285 81.6704 207.53 82.0874C207.121 82.3155 206.649 82.5044 206.192 82.4493C206.035 82.4335 205.925 82.2919 205.948 82.1346C206.098 81.1826 206.358 80.2542 206.515 79.31C206.688 78.2793 206.735 77.2014 206.381 76.218C205.948 75.0142 204.934 74.0701 203.769 73.5272C202.613 72.9843 201.251 72.8033 200.055 73.2361C198.482 73.8104 197.42 75.3604 197.042 76.989C196.523 79.2156 197.152 81.6861 198.671 83.3934C198.749 83.48 198.71 83.6216 198.592 83.6452C197.105 83.9914 195.555 84.0386 194.052 83.7868C193.887 84.1802 193.651 85.738 193.966 86.7451C193.997 86.8553 194.044 86.9733 194.139 87.0441C194.218 87.0992 195.343 87.1621 195.437 87.1621C197.011 87.2487 198.568 87.0677 200.079 86.6192C201.141 86.3045 202.227 86.1157 203.321 85.9977L203.313 85.9898ZM199.969 78.2321C199.969 78.2321 199.969 78.1849 199.969 78.1613C199.985 77.6578 200.103 77.1464 200.378 76.7215C200.653 76.2966 201.102 75.9741 201.605 75.919C201.983 75.8797 202.376 75.9977 202.683 76.2258C202.99 76.454 203.226 76.7766 203.36 77.1306C203.572 77.6814 203.565 78.3029 203.486 78.8852C203.368 79.7191 203.108 80.5217 202.723 81.2691C202.644 81.4186 202.534 81.6232 202.369 81.694C202.203 81.7648 201.952 81.631 201.802 81.5523C201.204 81.2298 200.724 80.7262 200.402 80.1283C200.079 79.5303 199.953 78.9009 199.961 78.2479L199.969 78.2321Z" fill="#FFAF22"/>
<path d="M120.543 105.998C118.993 107.437 119.229 110.089 119.127 111.867C118.931 115.266 119.151 118.681 119.788 122.048C119.89 122.575 120.008 123.126 120.433 123.527C120.835 123.905 121.432 124.094 122.015 124.243C126.838 125.518 132.125 125.596 137.003 124.463C137.853 124.267 138.765 123.984 139.214 123.354C139.544 122.89 139.544 122.323 139.536 121.781L139.363 107.17C139.363 106.651 139.332 106.084 138.938 105.675C138.403 105.116 137.412 105.061 136.547 105.054L125.185 104.928C124.131 104.92 123.061 104.904 122.062 105.179C121.417 105.36 120.921 105.644 120.536 106.006L120.543 105.998Z" fill="#FFAF22"/>
<path d="M183.281 105.046C184.831 106.485 184.595 109.137 184.698 110.915C184.894 114.314 184.674 117.729 184.037 121.096C183.935 121.623 183.817 122.174 183.392 122.575C182.99 122.953 182.392 123.142 181.81 123.291C176.987 124.566 171.7 124.644 166.822 123.511C165.972 123.315 165.06 123.031 164.611 122.402C164.281 121.938 164.281 121.371 164.289 120.829L164.462 106.218C164.462 105.699 164.493 105.132 164.887 104.723C165.422 104.164 166.413 104.109 167.278 104.102L178.639 103.976C179.694 103.968 180.764 103.952 181.763 104.227C182.408 104.408 182.904 104.692 183.289 105.054L183.281 105.046Z" fill="#FFAF22"/>
<path d="M114.21 112.654C112.51 114.18 112.778 116.973 112.668 118.854C112.455 122.441 112.699 126.053 113.391 129.601C113.502 130.152 113.635 130.742 114.099 131.167C114.532 131.568 115.193 131.765 115.83 131.922C121.102 133.268 126.885 133.354 132.219 132.15C133.147 131.938 134.147 131.647 134.634 130.978C134.996 130.482 134.996 129.884 134.989 129.318L134.8 113.881C134.8 113.33 134.768 112.733 134.336 112.3C133.753 111.71 132.668 111.655 131.723 111.639L119.3 111.505C118.151 111.489 116.979 111.482 115.885 111.773C115.185 111.961 114.634 112.26 114.217 112.646L114.21 112.654Z" fill="#FFC931"/>
<path d="M179.717 112.654C181.417 114.18 181.149 116.973 181.259 118.854C181.472 122.441 181.228 126.053 180.536 129.601C180.425 130.152 180.292 130.742 179.827 131.167C179.395 131.568 178.734 131.765 178.097 131.922C172.825 133.268 167.042 133.354 161.708 132.15C160.779 131.938 159.78 131.647 159.292 130.978C158.931 130.482 158.931 129.884 158.938 129.318L159.127 113.881C159.127 113.33 159.159 112.733 159.591 112.3C160.174 111.71 161.259 111.655 162.204 111.639L174.627 111.505C175.776 111.489 176.948 111.482 178.041 111.773C178.742 111.961 179.292 112.26 179.709 112.646L179.717 112.654Z" fill="#FFC931"/>
<path d="M131.747 28.5232C135.689 27.5004 139.749 26.9339 143.848 26.8867C164.926 26.635 185.516 40.1676 193.085 59.3808C199.056 74.5343 196.586 92.4021 187.412 105.84C177.349 120.577 159.308 121.733 142.471 121.922C130.402 122.056 117.947 119.231 108.451 111.954C93.1791 100.254 88.4033 78.1456 95.2011 60.38C101.141 44.8332 115.406 32.7561 131.747 28.5232Z" fill="#FFF0B0"/>
<path d="M136.838 80.4272C136.94 80.7656 135.516 83.3855 136.13 83.6845C139.34 85.2502 142.448 86.454 149.025 84.7703C153.046 83.7396 155.288 80.561 156.114 77.9017C157.176 74.4949 156.075 69.0897 150.559 65.3918C146.027 69.6483 144.131 76.6822 139.599 80.9387C138.71 81.7726 136.555 79.4752 136.83 80.4194L136.838 80.4272Z" fill="#FFAF22"/>
<path d="M137.263 64.4792C136.861 64.6208 136.476 64.786 136.09 64.9748C129.969 67.9646 128.435 76.7608 133.25 81.6153C136.019 84.4005 140.245 85.4941 144.123 84.8804C148.482 84.1881 152.566 81.2691 154.115 77.1306C155.665 72.9922 154.273 67.7915 150.559 65.3997C148.553 64.1094 146.098 63.6845 143.714 63.6058C141.535 63.535 139.3 63.7396 137.263 64.4792Z" fill="#FFC931"/>
<path d="M141.322 71.7648C141.236 71.3635 141.118 70.9701 140.945 70.5846C140.724 70.0811 140.41 69.6011 139.945 69.3179C139.481 69.0346 138.836 68.9796 138.403 69.31C137.994 69.6169 137.853 70.1676 137.758 70.679C137.499 72.1818 137.554 73.6294 137.656 75.1401C137.735 76.3832 137.687 77.6342 138.325 78.7593C138.474 79.0268 138.679 79.2943 138.962 79.4123C139.3 79.5539 139.702 79.4674 140.008 79.2628C140.315 79.0583 140.528 78.7435 140.693 78.4131C141.181 77.4689 141.322 76.3911 141.417 75.3368C141.527 74.1487 141.574 72.9213 141.33 71.7648H141.322Z" fill="#FFF0B0"/>
<path d="M147.908 71.7648C147.821 71.3635 147.703 70.9701 147.53 70.5846C147.31 70.0811 146.995 69.6011 146.531 69.3179C146.067 69.0346 145.422 68.9796 144.989 69.31C144.58 69.6169 144.438 70.1676 144.344 70.679C144.084 72.1818 144.139 73.6294 144.241 75.1401C144.32 76.3832 144.273 77.6342 144.91 78.7593C145.06 79.0268 145.264 79.2943 145.547 79.4123C145.886 79.5539 146.287 79.4674 146.594 79.2628C146.901 79.0583 147.113 78.7435 147.278 78.4131C147.766 77.4689 147.908 76.3911 148.002 75.3368C148.112 74.1487 148.16 72.9213 147.916 71.7648H147.908Z" fill="#FFF0B0"/>
<path d="M105.123 46.5012C105.123 46.5012 100.04 29.6641 105.123 24.2903C110.205 18.9088 125.445 32.111 125.445 32.111C125.445 32.111 112.298 38.1377 105.123 46.5091V46.5012Z" fill="#FFF0B0"/>
<path d="M163.895 32.4099C163.895 32.4099 171.881 24.5815 177.617 23.8891C178.86 23.7396 180.126 24.1487 181.008 25.0457C182.927 26.9969 185.673 32.2054 183.62 45.5571C183.62 45.5571 176.743 36.8946 163.895 32.4099Z" fill="#FFF0B0"/>
<path d="M177.908 27.17C177.255 27.1464 176.562 27.3981 175.957 27.6814C174.328 28.4524 172.857 29.4831 171.401 30.5138C170.064 31.4579 168.718 32.4021 167.577 33.5429C166.775 34.3454 166.035 35.4391 166.381 36.4855C166.68 37.3745 167.648 37.8938 168.537 38.3265L177.648 42.7561C178.773 43.299 180.213 44.015 180.606 42.4257C181.362 39.3336 181.456 36.1157 181.039 32.9686C180.85 31.5287 180.551 30.0811 179.914 28.7514C179.647 28.1928 179.285 27.6263 178.702 27.3509C178.451 27.2329 178.183 27.1778 177.908 27.17Z" fill="#FFC931"/>
<path d="M108.695 26.9339C109.12 26.7766 109.607 26.6822 110.174 26.6664C111.299 26.635 112.424 26.8553 113.439 27.3037C114.651 27.8387 115.673 28.6727 116.688 29.4988L121.008 33.0394C121.456 33.4092 121.944 33.8498 121.952 34.4241C121.952 35.0535 121.393 35.5413 120.874 35.9426L111.244 43.3383C110.756 43.716 110.135 44.1173 109.552 43.9127C109.088 43.7553 108.86 43.2754 108.687 42.8348C107.436 39.6798 103.769 28.7907 108.703 26.9418L108.695 26.9339Z" fill="#FFC931"/>
<path d="M148.907 95.2502C146.672 95.2502 144.965 94.3533 144.934 94.3376C144.548 94.133 144.406 93.6531 144.619 93.2675C144.823 92.8899 145.303 92.7404 145.681 92.9528C145.886 93.063 150.433 95.4154 153.879 91.159C154.155 90.8206 154.65 90.7656 154.989 91.0409C155.327 91.3163 155.382 91.812 155.107 92.1503C153.132 94.5972 150.819 95.2581 148.907 95.2581V95.2502Z" fill="#FFAF22"/>
<path d="M124.399 67.7758C126.671 67.7758 128.513 65.9335 128.513 63.6609C128.513 61.3883 126.671 59.5461 124.399 59.5461C122.126 59.5461 120.284 61.3883 120.284 63.6609C120.284 65.9335 122.126 67.7758 124.399 67.7758Z" fill="#2B110C"/>
<path d="M123.093 62.8191C123.427 62.8191 123.698 62.5478 123.698 62.2132C123.698 61.8787 123.427 61.6074 123.093 61.6074C122.758 61.6074 122.487 61.8787 122.487 62.2132C122.487 62.5478 122.758 62.8191 123.093 62.8191Z" fill="white"/>
<path d="M162.18 67.7758C164.452 67.7758 166.295 65.9335 166.295 63.6609C166.295 61.3883 164.452 59.5461 162.18 59.5461C159.907 59.5461 158.065 61.3883 158.065 63.6609C158.065 65.9335 159.907 67.7758 162.18 67.7758Z" fill="#2B110C"/>
<path d="M160.874 62.8191C161.208 62.8191 161.48 62.5478 161.48 62.2132C161.48 61.8787 161.208 61.6074 160.874 61.6074C160.539 61.6074 160.268 61.8787 160.268 62.2132C160.268 62.5478 160.539 62.8191 160.874 62.8191Z" fill="white"/>
<path d="M93.1636 63.4485C93.2187 63.535 93.2816 63.6137 93.3603 63.6924C94.0763 64.3297 97.7191 63.9048 98.7104 63.9127C102.282 63.9284 105.87 63.6609 109.34 62.7876C114.698 61.4422 119.828 58.5311 122.928 53.9678C125.524 50.1519 126.791 47.1936 127.31 43.7868C127.459 42.7876 128.844 42.5673 129.285 43.48C130.449 45.8954 132.282 47.8073 135.209 50.4115C140.544 55.1322 147.515 57.7522 154.572 58.6727C160.906 59.4988 167.341 59.0346 173.659 58.0276C174.289 57.9253 174.43 57.0756 173.864 56.7844C171.519 55.5728 169.434 53.8576 167.806 51.7726C167.688 51.6232 167.845 51.4107 168.026 51.4815C171.991 53.0315 176.161 54.0779 180.394 54.5736C181.063 54.6523 181.448 53.8261 180.961 53.3619C175.516 48.2715 170.15 42.7955 167.79 35.7852C167.452 34.7703 167.16 33.716 166.523 32.8584C166.035 32.2054 165.374 31.7097 164.682 31.2691C162.432 29.8293 159.922 28.8301 157.318 28.2715C150.284 26.7687 143.006 26.4068 135.854 27.1936C131.905 27.6263 127.216 28.7986 124.076 31.2298C125.099 32.5988 125.831 33.4878 125.091 35.0378C124.548 36.1786 123.4 36.8317 122.456 37.6735C121.031 38.9402 119.277 40.0181 117.79 41.2062C116.083 42.5673 113.47 44.4477 110.913 45.4233C107.947 46.5563 106.743 47.7522 104.8 44.8332C104.438 44.2903 98.4587 51.749 98.0181 52.3627C96.2557 54.786 94.8237 57.4532 93.7852 60.2699C93.4154 61.2848 92.6601 62.646 93.1479 63.4642L93.1636 63.4485Z" fill="#FED752"/>
<path d="M173.329 45.4233C174.8 46.6271 176.405 47.6735 178.081 48.5704C180.331 49.7742 182.707 50.7184 185.13 51.5051C186.358 51.8985 187.601 52.2526 188.852 52.583C189.465 52.7404 190.079 52.8977 190.693 53.0394C191.307 53.181 191.794 52.9922 191.307 52.3863C188.49 48.9009 187.978 47.6106 184.8 45.2109C184.076 46.1078 182.841 46.9654 181.731 46.6507C180.087 46.1865 178.608 45.2738 177.097 44.4634C173.974 42.7876 170.591 41.4815 167.923 39.1527C169.3 41.576 171.173 43.6688 173.336 45.4312L173.329 45.4233Z" fill="#FED752"/>
<path d="M121.511 61.2219C121.362 61.2219 121.22 61.1432 121.157 61.0016C120.96 60.5846 120.252 59.4674 119.403 59.3494C119.19 59.3179 119.041 59.1212 119.072 58.9009C119.104 58.6806 119.3 58.539 119.521 58.5704C120.96 58.775 121.842 60.5925 121.873 60.6712C121.967 60.8678 121.881 61.1039 121.684 61.1983C121.629 61.2219 121.574 61.2376 121.519 61.2376L121.511 61.2219Z" fill="#2B110C"/>
<path d="M122.857 60.2463C122.668 60.2463 122.503 60.1125 122.471 59.9158C122.393 59.4595 122.015 58.1928 121.236 57.8466C121.039 57.7601 120.945 57.524 121.039 57.3273C121.126 57.1306 121.362 57.0362 121.559 57.1306C122.888 57.7207 123.242 59.7034 123.258 59.79C123.297 60.0024 123.148 60.2069 122.935 60.2463C122.912 60.2463 122.888 60.2463 122.873 60.2463H122.857Z" fill="#2B110C"/>
<path d="M165.13 61.2219C165.075 61.2219 165.012 61.2062 164.965 61.1826C164.768 61.0881 164.682 60.8521 164.776 60.6554C164.815 60.5767 165.689 58.7671 167.129 58.5547C167.341 58.5232 167.546 58.6727 167.577 58.8852C167.609 59.0976 167.459 59.3022 167.247 59.3336C166.397 59.4516 165.689 60.5689 165.492 60.9859C165.421 61.1275 165.28 61.2062 165.138 61.2062L165.13 61.2219Z" fill="#2B110C"/>
<path d="M163.793 60.2463C163.793 60.2463 163.745 60.2463 163.73 60.2463C163.517 60.207 163.368 60.0103 163.407 59.79C163.423 59.7034 163.769 57.7207 165.107 57.1306C165.303 57.0441 165.539 57.1306 165.626 57.3273C165.712 57.524 165.626 57.7601 165.429 57.8466C164.642 58.1928 164.273 59.4595 164.194 59.9158C164.162 60.1047 163.997 60.2463 163.808 60.2463H163.793Z" fill="#2B110C"/>
</g>
<defs>
<clipPath id="clip0_45_29427">
<rect width="134.146" height="110" fill="white" transform="translate(79 23)"/>
</clipPath>
</defs>
</svg>
