<svg width="292" height="140" viewBox="0 0 292 140" fill="none" xmlns="http://www.w3.org/2000/svg">
<g clip-path="url(#clip0_45_29424)">
<path d="M98.3518 89.6326C98.3518 89.6326 80.7751 90.9151 79.587 105.73C79.587 105.73 79.2251 110.789 82.1677 113.574C82.1677 113.574 83.1118 118.106 79.5713 120.175L76.0308 122.245C76.0308 122.245 77.4391 123.976 86.6445 123.747C95.8498 123.519 107.746 118.46 109.658 113.574C109.658 113.574 121.696 95.5099 98.3518 89.6326Z" fill="#FED752"/>
<path d="M192.719 88.6806C192.719 88.6806 210.295 89.963 211.483 104.778C211.483 104.778 211.845 109.837 208.903 112.622C208.903 112.622 207.959 117.154 211.499 119.223L215.04 121.293C215.04 121.293 213.631 123.024 204.426 122.795C195.221 122.567 183.324 117.508 181.413 112.622C181.413 112.622 169.375 94.5579 192.719 88.6806Z" fill="#FED752"/>
<path d="M202.16 85.9898C202.75 85.9269 203.34 85.8796 203.938 85.8482C204.442 85.8167 204.725 85.7538 205.221 85.683C205.567 85.6357 206.472 85.4076 206.794 85.2817C208.376 84.6523 209.508 83.7711 210.641 82.4965C210.72 82.4099 210.799 82.3155 210.877 82.2211C211.271 81.749 211.633 81.214 211.727 80.6003C211.822 79.9867 211.546 79.2864 210.98 79.0504C210.492 78.8458 209.918 79.0189 209.493 79.3336C209.068 79.6483 208.753 80.0811 208.399 80.4745C207.825 81.1196 207.132 81.6704 206.377 82.0874C205.968 82.3155 205.496 82.5044 205.04 82.4493C204.882 82.4335 204.772 82.2919 204.796 82.1346C204.945 81.1826 205.205 80.2542 205.362 79.31C205.535 78.2793 205.582 77.2014 205.228 76.218C204.796 75.0142 203.781 74.0701 202.616 73.5272C201.46 72.9843 200.099 72.8033 198.903 73.2361C197.329 73.8104 196.267 75.3604 195.889 76.989C195.37 79.2156 195.999 81.6861 197.518 83.3934C197.597 83.48 197.557 83.6216 197.439 83.6452C195.952 83.9914 194.402 84.0386 192.9 83.7868C192.734 84.1802 192.498 85.738 192.813 86.7451C192.844 86.8553 192.892 86.9733 192.986 87.0441C193.065 87.0992 194.19 87.1621 194.284 87.1621C195.858 87.2487 197.416 87.0677 198.926 86.6192C199.988 86.3045 201.074 86.1157 202.168 85.9977L202.16 85.9898ZM198.816 78.2321C198.816 78.2321 198.816 78.1849 198.816 78.1613C198.832 77.6578 198.95 77.1464 199.225 76.7215C199.501 76.2966 199.949 75.9741 200.453 75.919C200.83 75.8797 201.224 75.9977 201.531 76.2258C201.837 76.454 202.073 76.7766 202.207 77.1306C202.42 77.6814 202.412 78.3029 202.333 78.8852C202.215 79.7191 201.955 80.5217 201.57 81.2691C201.491 81.4186 201.381 81.6232 201.216 81.694C201.051 81.7648 200.799 81.631 200.649 81.5523C200.051 81.2298 199.571 80.7262 199.249 80.1283C198.926 79.5303 198.8 78.9009 198.808 78.2479L198.816 78.2321Z" fill="#FFAF22"/>
<path d="M119.39 105.998C117.84 107.437 118.076 110.089 117.974 111.867C117.777 115.266 117.997 118.681 118.635 122.048C118.737 122.575 118.855 123.126 119.28 123.527C119.681 123.905 120.279 124.094 120.861 124.243C125.684 125.518 130.972 125.596 135.85 124.463C136.699 124.267 137.612 123.984 138.06 123.354C138.391 122.89 138.391 122.323 138.383 121.781L138.21 107.17C138.21 106.651 138.178 106.084 137.785 105.675C137.25 105.116 136.259 105.061 135.393 105.054L124.032 104.928C122.978 104.92 121.908 104.904 120.909 105.179C120.263 105.36 119.768 105.644 119.382 106.006L119.39 105.998Z" fill="#FFAF22"/>
<path d="M182.128 105.046C183.678 106.485 183.442 109.137 183.544 110.915C183.741 114.314 183.521 117.729 182.883 121.096C182.781 121.623 182.663 122.174 182.238 122.575C181.837 122.953 181.239 123.142 180.657 123.291C175.834 124.566 170.547 124.644 165.669 123.511C164.819 123.315 163.906 123.031 163.458 122.402C163.127 121.938 163.127 121.371 163.135 120.829L163.308 106.218C163.308 105.699 163.34 105.132 163.733 104.723C164.268 104.164 165.26 104.109 166.125 104.102L177.486 103.976C178.54 103.968 179.61 103.952 180.61 104.227C181.255 104.408 181.751 104.692 182.136 105.054L182.128 105.046Z" fill="#FFAF22"/>
<path d="M113.057 112.654C111.357 114.18 111.625 116.973 111.515 118.854C111.302 122.441 111.546 126.053 112.239 129.601C112.349 130.152 112.482 130.742 112.947 131.167C113.379 131.568 114.04 131.765 114.678 131.922C119.949 133.268 125.732 133.354 131.066 132.15C131.995 131.938 132.994 131.647 133.482 130.978C133.844 130.482 133.844 129.884 133.836 129.318L133.647 113.881C133.647 113.33 133.615 112.733 133.183 112.3C132.6 111.71 131.515 111.655 130.571 111.639L118.147 111.505C116.999 111.489 115.826 111.482 114.733 111.773C114.032 111.961 113.482 112.26 113.065 112.646L113.057 112.654Z" fill="#FFC931"/>
<path d="M178.556 112.654C180.256 114.18 179.988 116.973 180.098 118.854C180.311 122.441 180.067 126.053 179.374 129.601C179.264 130.152 179.131 130.742 178.666 131.167C178.234 131.568 177.573 131.765 176.935 131.922C171.664 133.268 165.881 133.354 160.547 132.15C159.618 131.938 158.619 131.647 158.131 130.978C157.769 130.482 157.769 129.884 157.777 129.318L157.966 113.881C157.966 113.33 157.998 112.733 158.43 112.3C159.013 111.71 160.098 111.655 161.042 111.639L173.466 111.505C174.614 111.489 175.787 111.482 176.88 111.773C177.581 111.961 178.131 112.26 178.548 112.646L178.556 112.654Z" fill="#FFC931"/>
<path d="M130.169 28.3108C134.111 27.288 138.171 26.7215 142.27 26.6743C163.348 26.4225 183.938 39.9552 191.507 59.1684C197.478 74.3218 195.008 92.1896 185.834 105.628C175.771 120.364 157.73 121.521 140.893 121.71C128.824 121.843 116.369 119.019 106.872 111.741C91.601 100.042 86.8252 77.9331 93.623 60.1676C99.5632 44.6287 113.828 32.5516 130.169 28.3108Z" fill="#FFF0B0"/>
<path d="M135.677 80.4272C135.779 80.7656 134.355 83.3855 134.969 83.6845C138.179 85.2502 141.286 86.454 147.864 84.7703C151.884 83.7396 154.127 80.561 154.953 77.9017C156.015 74.4949 154.913 69.0897 149.398 65.3918C144.866 69.6483 142.97 76.6822 138.438 80.9387C137.549 81.7726 135.393 79.4752 135.669 80.4194L135.677 80.4272Z" fill="#FFAF22"/>
<path d="M136.109 64.4792C135.708 64.6208 135.323 64.786 134.937 64.9748C128.816 67.9646 127.282 76.7608 132.097 81.6153C134.866 84.4005 139.091 85.4941 142.97 84.8804C147.329 84.1881 151.412 81.2691 152.962 77.1306C154.512 72.9922 153.12 67.7915 149.406 65.3997C147.4 64.1094 144.945 63.6845 142.561 63.6058C140.382 63.535 138.147 63.7396 136.109 64.4792Z" fill="#FFC931"/>
<path d="M140.161 71.7648C140.075 71.3635 139.957 70.9701 139.784 70.5846C139.563 70.0811 139.249 69.6011 138.784 69.3179C138.32 69.0346 137.675 68.9796 137.242 69.31C136.833 69.6169 136.692 70.1676 136.597 70.679C136.337 72.1818 136.393 73.6294 136.495 75.1401C136.574 76.3832 136.526 77.6342 137.164 78.7593C137.313 79.0268 137.518 79.2943 137.801 79.4123C138.139 79.5539 138.54 79.4674 138.847 79.2628C139.154 79.0583 139.367 78.7435 139.532 78.4131C140.02 77.4689 140.161 76.3911 140.256 75.3368C140.366 74.1487 140.413 72.9213 140.169 71.7648H140.161Z" fill="#FFF0B0"/>
<path d="M146.747 71.7648C146.66 71.3635 146.542 70.9701 146.369 70.5846C146.149 70.0811 145.834 69.6011 145.37 69.3179C144.906 69.0346 144.26 68.9796 143.828 69.31C143.419 69.6169 143.277 70.1676 143.183 70.679C142.923 72.1818 142.978 73.6294 143.08 75.1401C143.159 76.3832 143.112 77.6342 143.749 78.7593C143.899 79.0268 144.103 79.2943 144.386 79.4123C144.725 79.5539 145.126 79.4674 145.433 79.2628C145.74 79.0583 145.952 78.7435 146.117 78.4131C146.605 77.4689 146.747 76.3911 146.841 75.3368C146.951 74.1487 146.998 72.9213 146.755 71.7648H146.747Z" fill="#FFF0B0"/>
<path d="M103.969 46.5012C103.969 46.5012 98.8868 29.6641 103.969 24.2903C109.052 18.9088 124.292 32.111 124.292 32.111C124.292 32.111 111.145 38.1377 103.969 46.5091V46.5012Z" fill="#FFF0B0"/>
<path d="M162.742 32.4099C162.742 32.4099 170.72 24.5815 176.456 23.8891C177.699 23.7396 178.966 24.1487 179.847 25.0457C181.767 26.9969 184.513 32.2054 182.459 45.5571C182.459 45.5571 175.583 36.8946 162.734 32.4099H162.742Z" fill="#FFF0B0"/>
<path d="M176.747 27.17C176.094 27.1464 175.401 27.3981 174.795 27.6814C173.167 28.4524 171.696 29.4831 170.24 30.5138C168.902 31.4579 167.557 32.4021 166.416 33.5429C165.614 34.3454 164.874 35.4391 165.22 36.4855C165.519 37.3745 166.487 37.8938 167.376 38.3265L176.487 42.7561C177.612 43.299 179.052 44.015 179.445 42.4257C180.201 39.3336 180.295 36.1157 179.878 32.9686C179.689 31.5287 179.39 30.0811 178.753 28.7514C178.485 28.1928 178.124 27.6263 177.541 27.3509C177.29 27.2329 177.022 27.1778 176.747 27.17Z" fill="#FFC931"/>
<path d="M107.541 26.9339C107.966 26.7766 108.454 26.6822 109.021 26.6664C110.146 26.635 111.271 26.8553 112.286 27.3037C113.497 27.8387 114.52 28.6727 115.535 29.4988L119.855 33.0394C120.303 33.4092 120.791 33.8498 120.799 34.4241C120.799 35.0535 120.24 35.5413 119.721 35.9426L110.091 43.3383C109.603 43.716 108.981 44.1173 108.399 43.9127C107.935 43.7553 107.707 43.2754 107.534 42.8348C106.283 39.6798 102.616 28.7907 107.549 26.9418L107.541 26.9339Z" fill="#FFC931"/>
<path d="M147.754 95.2502C145.519 95.2502 143.812 94.3533 143.781 94.3376C143.395 94.133 143.254 93.6531 143.466 93.2675C143.671 92.8899 144.15 92.7404 144.528 92.9528C144.733 93.063 149.28 95.4154 152.726 91.159C153.002 90.8206 153.497 90.7656 153.836 91.0409C154.174 91.3163 154.229 91.812 153.954 92.1503C151.979 94.5972 149.666 95.2581 147.754 95.2581V95.2502Z" fill="#FFAF22"/>
<path d="M123.246 67.7758C125.518 67.7758 127.361 65.9335 127.361 63.6609C127.361 61.3883 125.518 59.5461 123.246 59.5461C120.973 59.5461 119.131 61.3883 119.131 63.6609C119.131 65.9335 120.973 67.7758 123.246 67.7758Z" fill="#2B110C"/>
<path d="M121.939 62.8191C122.274 62.8191 122.545 62.5478 122.545 62.2132C122.545 61.8787 122.274 61.6074 121.939 61.6074C121.605 61.6074 121.333 61.8787 121.333 62.2132C121.333 62.5478 121.605 62.8191 121.939 62.8191Z" fill="white"/>
<path d="M161.027 67.7758C163.3 67.7758 165.142 65.9335 165.142 63.6609C165.142 61.3883 163.3 59.5461 161.027 59.5461C158.754 59.5461 156.912 61.3883 156.912 63.6609C156.912 65.9335 158.754 67.7758 161.027 67.7758Z" fill="#2B110C"/>
<path d="M159.721 62.8191C160.055 62.8191 160.326 62.5478 160.326 62.2132C160.326 61.8787 160.055 61.6074 159.721 61.6074C159.386 61.6074 159.115 61.8787 159.115 62.2132C159.115 62.5478 159.386 62.8191 159.721 62.8191Z" fill="white"/>
<path d="M96.0699 53.8576C96.0699 53.8576 111.436 57.2408 119.571 44.133C119.571 44.133 124.252 55.7459 145.456 55.9347C145.456 55.9347 183.442 56.1944 188.171 52.882C188.171 52.882 184.119 45.801 182.175 44.5736C182.175 44.5736 179.964 46.0921 175.527 43.3698C171.09 40.6475 168.58 39.5697 168.58 39.5697C168.58 39.5697 162.285 36.4697 162.726 34.4792C163.167 32.4965 163.576 31.0409 163.576 31.0409C163.576 31.0409 142.545 20.4666 122.836 31.0252C122.836 31.0252 124.622 33.6924 120.263 37.0913L110.405 44.2431C110.405 44.2431 105.551 47.0441 103.135 44.7309C103.135 44.7309 97.3366 49.1605 96.062 53.8576H96.0699Z" fill="#FED752"/>
</g>
<defs>
<clipPath id="clip0_45_29424">
<rect width="139.009" height="110" fill="white" transform="translate(76 23)"/>
</clipPath>
</defs>
</svg>
