<svg width="292" height="140" viewBox="0 0 292 140" fill="none" xmlns="http://www.w3.org/2000/svg">
<g clip-path="url(#clip0_45_29426)">
<path d="M196.328 86.51C196.912 86.4477 197.495 86.401 198.087 86.3699C198.585 86.3388 198.865 86.2765 199.355 86.2065C199.697 86.1598 200.592 85.9342 200.911 85.8097C202.475 85.1872 203.595 84.3157 204.716 83.0552C204.794 82.9696 204.872 82.8763 204.949 82.7829C205.338 82.316 205.696 81.7869 205.79 81.18C205.883 80.5731 205.611 79.8806 205.051 79.6471C204.568 79.4448 204 79.616 203.58 79.9273C203.16 80.2385 202.849 80.6665 202.498 81.0555C201.93 81.6935 201.246 82.2382 200.499 82.6506C200.094 82.8763 199.627 83.063 199.176 83.0085C199.02 82.993 198.911 82.8529 198.935 82.6973C199.083 81.7558 199.339 80.8376 199.495 79.9039C199.666 78.8846 199.713 77.8186 199.363 76.846C198.935 75.6555 197.931 74.7218 196.779 74.1849C195.636 73.648 194.289 73.469 193.107 73.897C191.55 74.465 190.5 75.9979 190.127 77.6085C189.613 79.8105 190.236 82.2538 191.737 83.9423C191.815 84.0278 191.776 84.1679 191.659 84.1912C190.189 84.5336 188.656 84.5803 187.17 84.3313C187.006 84.7204 186.773 86.261 187.084 87.257C187.115 87.3659 187.162 87.4826 187.255 87.5526C187.333 87.6071 188.446 87.6694 188.539 87.6694C190.095 87.7549 191.636 87.576 193.13 87.1325C194.18 86.8212 195.254 86.6345 196.336 86.5178L196.328 86.51ZM193.021 78.8379C193.021 78.8379 193.021 78.7912 193.021 78.7679C193.037 78.2699 193.153 77.7641 193.426 77.344C193.698 76.9238 194.142 76.6048 194.64 76.5503C195.013 76.5114 195.402 76.6281 195.706 76.8538C196.009 77.0794 196.242 77.3984 196.375 77.7486C196.585 78.2932 196.577 78.9079 196.499 79.4837C196.382 80.3085 196.126 81.1022 195.744 81.8414C195.667 81.9892 195.558 82.1915 195.394 82.2616C195.231 82.3316 194.982 82.1993 194.834 82.1215C194.243 81.8025 193.768 81.3045 193.449 80.7131C193.13 80.1218 193.006 79.4993 193.013 78.8535L193.021 78.8379Z" fill="#FFAF22"/>
<path d="M114.472 106.289C112.939 107.713 113.172 110.335 113.071 112.094C112.877 115.455 113.095 118.832 113.725 122.163C113.826 122.684 113.943 123.229 114.363 123.625C114.76 123.999 115.351 124.186 115.927 124.333C120.697 125.594 125.925 125.672 130.75 124.551C131.59 124.357 132.493 124.077 132.936 123.454C133.263 122.995 133.263 122.435 133.255 121.898L133.084 107.449C133.084 106.935 133.053 106.375 132.664 105.97C132.135 105.418 131.154 105.363 130.298 105.356L119.063 105.231C118.02 105.223 116.962 105.208 115.974 105.48C115.336 105.659 114.845 105.939 114.464 106.297L114.472 106.289Z" fill="#FFAF22"/>
<path d="M176.518 105.356C178.051 106.779 177.817 109.402 177.918 111.16C178.113 114.522 177.895 117.899 177.265 121.229C177.164 121.75 177.047 122.295 176.627 122.692C176.23 123.065 175.638 123.252 175.063 123.4C170.293 124.66 165.064 124.738 160.24 123.618C159.399 123.423 158.497 123.143 158.053 122.52C157.727 122.061 157.727 121.501 157.734 120.964L157.906 106.515C157.906 106.001 157.937 105.441 158.326 105.037C158.855 104.484 159.835 104.43 160.691 104.422L171.927 104.297C172.97 104.29 174.028 104.274 175.016 104.546C175.654 104.725 176.144 105.005 176.525 105.363L176.518 105.356Z" fill="#FFAF22"/>
<path d="M108.208 112.88C106.527 114.389 106.792 117.152 106.683 119.011C106.473 122.559 106.714 126.131 107.399 129.64C107.508 130.185 107.64 130.768 108.099 131.188C108.527 131.585 109.181 131.78 109.811 131.935C115.024 133.266 120.743 133.352 126.019 132.161C126.937 131.951 127.925 131.663 128.407 131.002C128.765 130.512 128.765 129.92 128.758 129.36L128.571 114.094C128.571 113.549 128.54 112.958 128.112 112.53C127.536 111.946 126.462 111.892 125.528 111.876L113.242 111.744C112.106 111.728 110.947 111.72 109.865 112.008C109.173 112.195 108.628 112.491 108.216 112.872L108.208 112.88Z" fill="#FFC931"/>
<path d="M172.993 112.88C174.674 114.389 174.409 117.152 174.518 119.011C174.728 122.559 174.487 126.131 173.802 129.64C173.693 130.185 173.561 130.768 173.102 131.188C172.674 131.585 172.02 131.78 171.39 131.935C166.177 133.266 160.458 133.352 155.182 132.161C154.264 131.951 153.276 131.663 152.793 131.002C152.435 130.512 152.435 129.92 152.443 129.36L152.63 114.094C152.63 113.549 152.661 112.958 153.089 112.53C153.665 111.946 154.739 111.892 155.672 111.876L167.959 111.744C169.095 111.728 170.254 111.72 171.336 112.008C172.028 112.195 172.573 112.491 172.985 112.872L172.993 112.88Z" fill="#FFC931"/>
<path d="M125.132 29.4675C129.03 28.4559 133.045 27.8957 137.099 27.849C157.944 27.6 178.307 40.9834 185.792 59.9846C191.698 74.9708 189.255 92.6414 180.182 105.931C170.23 120.505 152.389 121.649 135.737 121.836C123.801 121.968 111.484 119.175 102.092 111.977C86.9894 100.399 82.2663 78.5345 88.9891 60.9728C94.8715 45.5975 108.971 33.6614 125.132 29.4675Z" fill="#FFF0B0"/>
<path d="M130.586 81.0088C130.687 81.3434 129.279 83.9345 129.886 84.2302C133.06 85.7786 136.134 86.9691 142.639 85.3039C146.615 84.2846 148.833 81.1411 149.65 78.5111C150.7 75.142 149.611 69.7964 144.156 66.1393C139.674 70.3489 137.799 77.3051 133.317 81.5146C132.438 82.3394 130.306 80.0673 130.578 81.001L130.586 81.0088Z" fill="#FFAF22"/>
<path d="M131.006 65.2367C130.609 65.3768 130.228 65.5402 129.847 65.7269C123.793 68.6837 122.276 77.3829 127.038 82.1838C129.777 84.9382 133.955 86.0198 137.791 85.4129C142.102 84.7281 146.14 81.8414 147.673 77.7486C149.206 73.6558 147.829 68.5125 144.156 66.1471C142.172 64.871 139.744 64.4509 137.387 64.373C135.231 64.303 133.022 64.5053 131.006 65.2367Z" fill="#FFC931"/>
<path d="M135.022 72.4419C134.936 72.0451 134.819 71.6561 134.648 71.2748C134.43 70.7768 134.119 70.3022 133.66 70.0221C133.201 69.7419 132.563 69.6875 132.135 70.0143C131.73 70.3177 131.59 70.8624 131.497 71.3682C131.24 72.8543 131.295 74.286 131.396 75.78C131.474 77.0094 131.427 78.2466 132.057 79.3593C132.205 79.6238 132.407 79.8884 132.687 80.0051C133.022 80.1451 133.419 80.0595 133.722 79.8572C134.026 79.6549 134.236 79.3437 134.399 79.0169C134.882 78.0832 135.022 77.0172 135.115 75.9745C135.224 74.7996 135.271 73.5858 135.029 72.4419H135.022Z" fill="#FFF0B0"/>
<path d="M141.527 72.4419C141.441 72.0451 141.324 71.6561 141.153 71.2748C140.935 70.7768 140.624 70.3022 140.165 70.0221C139.706 69.7419 139.068 69.6875 138.64 70.0143C138.235 70.3177 138.095 70.8624 138.002 71.3682C137.745 72.8543 137.799 74.286 137.901 75.78C137.978 77.0094 137.932 78.2466 138.562 79.3593C138.71 79.6238 138.912 79.8884 139.192 80.0051C139.527 80.1451 139.924 80.0595 140.227 79.8572C140.531 79.6549 140.741 79.3437 140.904 79.0169C141.387 78.0832 141.527 77.0172 141.62 75.9745C141.729 74.7996 141.776 73.5858 141.534 72.4419H141.527Z" fill="#FFF0B0"/>
<path d="M99.2213 47.4572C99.2213 47.4572 94.1948 30.8058 99.2213 25.4914C104.248 20.1692 119.32 33.2257 119.32 33.2257C119.32 33.2257 106.318 39.1859 99.2213 47.4649V47.4572Z" fill="#FFF0B0"/>
<path d="M157.345 33.5214C157.345 33.5214 165.243 25.7793 170.915 25.0946C172.145 24.9467 173.397 25.3513 174.269 26.2384C176.167 28.1681 178.883 33.3191 176.852 46.5234C176.852 46.5234 170.052 37.9566 157.345 33.5214Z" fill="#FFF0B0"/>
<path d="M171.203 28.3315C170.557 28.3081 169.872 28.5571 169.273 28.8372C167.663 29.5998 166.208 30.6191 164.768 31.6384C163.445 32.5721 162.115 33.5058 160.987 34.6341C160.193 35.4277 159.461 36.5093 159.804 37.5442C160.099 38.4234 161.057 38.937 161.936 39.3649L170.946 43.7456C172.059 44.2825 173.483 44.9906 173.872 43.4188C174.619 40.3609 174.712 37.1785 174.3 34.0661C174.113 32.6421 173.817 31.2104 173.187 29.8954C172.923 29.343 172.565 28.7828 171.989 28.5104C171.74 28.3937 171.475 28.3392 171.203 28.3315Z" fill="#FFC931"/>
<path d="M102.754 28.1058C103.174 27.9502 103.656 27.8568 104.216 27.8412C105.329 27.8101 106.442 28.028 107.446 28.4715C108.644 29.0006 109.655 29.8254 110.659 30.6424L114.931 34.1439C115.374 34.5096 115.857 34.9453 115.865 35.5133C115.865 36.1358 115.312 36.6182 114.799 37.015L105.275 44.3292C104.792 44.7027 104.178 45.0995 103.602 44.8972C103.143 44.7416 102.917 44.2669 102.746 43.8312C101.509 40.711 97.8827 29.9421 102.761 28.1136L102.754 28.1058Z" fill="#FFC931"/>
<path d="M118.284 68.497C120.532 68.497 122.354 66.675 122.354 64.4275C122.354 62.18 120.532 60.3581 118.284 60.3581C116.037 60.3581 114.215 62.18 114.215 64.4275C114.215 66.675 116.037 68.497 118.284 68.497Z" fill="#2B110C"/>
<path d="M116.993 63.5949C117.324 63.5949 117.592 63.3267 117.592 62.9958C117.592 62.6649 117.324 62.3967 116.993 62.3967C116.662 62.3967 116.394 62.6649 116.394 62.9958C116.394 63.3267 116.662 63.5949 116.993 63.5949Z" fill="white"/>
<path d="M155.649 68.497C157.897 68.497 159.719 66.675 159.719 64.4275C159.719 62.18 157.897 60.3581 155.649 60.3581C153.402 60.3581 151.58 62.18 151.58 64.4275C151.58 66.675 153.402 68.497 155.649 68.497Z" fill="#2B110C"/>
<path d="M154.357 63.5949C154.688 63.5949 154.957 63.3267 154.957 62.9958C154.957 62.6649 154.688 62.3967 154.357 62.3967C154.027 62.3967 153.758 62.6649 153.758 62.9958C153.758 63.3267 154.027 63.5949 154.357 63.5949Z" fill="white"/>
<path d="M157.182 43.4032C156.03 44.0491 154.699 44.4226 153.439 44.7494C146.817 46.4534 140.149 48.1263 133.364 48.5231C129.925 48.7255 126.4 48.5854 123.171 47.2393C119.794 45.8309 116.954 43.1776 114.417 40.322C112.052 37.6531 109.889 34.7663 107.959 31.7006C104.629 26.394 110.184 28.7594 113.406 28.5571C116.829 28.3392 119.895 26.285 123.109 24.9545C132.92 20.8773 144.11 23.6317 153.392 29.0473C155.485 30.2689 157.571 31.6851 158.94 33.8248C160.302 35.9724 160.769 39.0148 159.485 41.2246C158.917 42.1972 158.108 42.8897 157.182 43.4032Z" fill="#FED752"/>
<path d="M136.702 86.5256C136.702 86.5256 127.863 83.1875 120.409 88.9999C120.409 88.9999 114.744 91.2331 111.173 88.9999C111.173 88.9999 114.449 94.221 119.522 95.7071C124.587 97.2011 135.411 97.5979 136.71 86.5178L136.702 86.5256Z" fill="#5B4428"/>
<path d="M136.702 86.5256C136.702 86.5256 145.541 83.1875 152.996 88.9999C152.996 88.9999 158.66 91.2331 162.232 88.9999C162.232 88.9999 158.956 94.221 153.883 95.7071C148.817 97.2011 137.994 97.5979 136.694 86.5178L136.702 86.5256Z" fill="#5B4428"/>
</g>
<defs>
<clipPath id="clip0_45_29426">
<rect width="119.796" height="110" fill="white" transform="translate(86 23)"/>
</clipPath>
</defs>
</svg>
