<svg width="138" height="60" viewBox="0 0 138 60" fill="none" xmlns="http://www.w3.org/2000/svg">
<path d="M130 0H8C3.58172 0 0 3.58172 0 8V52C0 56.4183 3.58172 60 8 60H130C134.418 60 138 56.4183 138 52V8C138 3.58172 134.418 0 130 0Z" fill="#99E27C"/>
<path d="M46.4799 39.4899C46.6599 39.4699 46.8399 39.4599 47.0199 39.4499C47.1699 39.4499 47.2599 39.4199 47.4099 39.3999C47.5099 39.3899 47.7899 39.3199 47.8899 39.2799C48.3699 39.0899 48.7099 38.8199 49.0499 38.4399C49.0699 38.4099 49.0999 38.3899 49.1199 38.3599C49.2399 38.2199 49.3499 38.0599 49.3799 37.8699C49.4099 37.6799 49.3299 37.4699 49.1499 37.3999C48.9999 37.3399 48.8299 37.3999 48.6999 37.4799C48.5699 37.5599 48.4799 37.7099 48.3699 37.8199C48.1999 38.0099 47.9899 38.1799 47.7599 38.3099C47.6399 38.3799 47.4899 38.4399 47.3599 38.4199C47.3099 38.4199 47.2799 38.3699 47.2899 38.3299C47.3299 38.0399 47.4099 37.7599 47.4599 37.4799C47.5099 37.1699 47.5299 36.8399 47.4199 36.5499C47.2899 36.1899 46.9799 35.8999 46.6299 35.7399C46.2799 35.5799 45.8699 35.5199 45.5099 35.6499C45.0399 35.8199 44.7199 36.2899 44.5999 36.7799C44.4399 37.4499 44.6299 38.1999 45.0899 38.7099C45.1099 38.7399 45.0999 38.7799 45.0699 38.7899C44.6199 38.8899 44.1499 38.9099 43.6999 38.8299C43.6499 38.9499 43.5799 39.4199 43.6699 39.7199C43.6799 39.7499 43.6899 39.7899 43.7199 39.8099C43.7399 39.8299 44.0799 39.8399 44.1099 39.8499C44.5799 39.8799 45.0599 39.8199 45.5099 39.6899C45.8299 39.5899 46.1599 39.5399 46.4899 39.4999L46.4799 39.4899ZM45.4699 37.1499V37.1299C45.4699 36.9799 45.5099 36.8199 45.5899 36.6999C45.6699 36.5799 45.8099 36.4699 45.9599 36.4599C46.0699 36.4499 46.1899 36.4799 46.2899 36.5499C46.3899 36.6199 46.4499 36.7199 46.4999 36.8199C46.5599 36.9899 46.5599 37.1699 46.5399 37.3499C46.5099 37.5999 46.4299 37.8399 46.3099 38.0699C46.2899 38.1199 46.2499 38.1799 46.1999 38.1999C46.1499 38.2199 46.0699 38.1799 46.0299 38.1599C45.8499 38.0599 45.6999 37.9099 45.6099 37.7299C45.5199 37.5499 45.4699 37.3599 45.4799 37.1599L45.4699 37.1499Z" fill="#5FD147"/>
<path d="M24.76 22.08C25.95 21.77 27.17 21.6 28.41 21.59C34.77 21.51 40.98 25.6 43.27 31.4C45.07 35.97 44.33 41.36 41.56 45.42C38.52 49.87 33.08 50.22 28 50.27C24.36 50.31 20.6 49.46 17.73 47.26C13.12 43.73 11.68 37.06 13.73 31.7C15.52 27.01 19.83 23.37 24.76 22.09V22.08Z" fill="#CEFFC7"/>
<path d="M26.42 37.81C26.45 37.91 26.02 38.7 26.21 38.79C27.18 39.26 28.12 39.63 30.1 39.12C31.31 38.81 31.99 37.85 32.24 37.05C32.56 36.02 32.23 34.39 30.56 33.28C29.19 34.56 28.62 36.69 27.25 37.97C26.98 38.22 26.33 37.53 26.42 37.81Z" fill="#5FD147"/>
<path d="M26.5499 33.0002C26.4299 33.0402 26.3099 33.0902 26.1999 33.1502C24.3499 34.0502 23.8899 36.7102 25.3399 38.1702C26.1799 39.0102 27.4499 39.3402 28.6199 39.1502C29.9399 38.9402 31.1699 38.0602 31.6399 36.8102C32.1099 35.5602 31.6899 33.9902 30.5699 33.2702C29.9599 32.8802 29.2199 32.7502 28.4999 32.7302C27.8399 32.7102 27.1699 32.7702 26.5499 32.9902V33.0002Z" fill="#7DDD6F"/>
<path d="M27.7799 35.19C27.7499 35.07 27.7199 34.95 27.6699 34.83C27.5999 34.68 27.5099 34.53 27.3699 34.45C27.2299 34.37 27.0399 34.35 26.8999 34.45C26.7799 34.54 26.7299 34.71 26.7099 34.86C26.6299 35.31 26.6499 35.75 26.6799 36.21C26.6999 36.58 26.6899 36.96 26.8799 37.3C26.9299 37.38 26.9899 37.46 27.0699 37.5C27.1699 37.54 27.2899 37.52 27.3899 37.45C27.4899 37.38 27.5499 37.29 27.5999 37.19C27.7499 36.91 27.7899 36.58 27.8199 36.26C27.8499 35.9 27.8699 35.53 27.7899 35.18L27.7799 35.19Z" fill="#CEFFC7"/>
<path d="M29.7599 35.19C29.7299 35.07 29.6999 34.95 29.6499 34.83C29.5799 34.68 29.4899 34.53 29.3499 34.45C29.2099 34.37 29.0199 34.35 28.8799 34.45C28.7599 34.54 28.7099 34.71 28.6899 34.86C28.6099 35.31 28.6299 35.75 28.6599 36.21C28.6799 36.58 28.6699 36.96 28.8599 37.3C28.9099 37.38 28.9699 37.46 29.0499 37.5C29.1499 37.54 29.2699 37.52 29.3699 37.45C29.4699 37.38 29.5299 37.29 29.5799 37.19C29.7299 36.91 29.7699 36.58 29.7999 36.26C29.8299 35.9 29.8499 35.53 29.7699 35.18L29.7599 35.19Z" fill="#CEFFC7"/>
<path d="M16.8499 27.5699C16.8499 27.5699 15.3199 22.4899 16.8499 20.8699C18.3799 19.2499 22.9799 23.2299 22.9799 23.2299C22.9799 23.2299 19.0099 25.0499 16.8499 27.5699Z" fill="#CEFFC7"/>
<path d="M34.5901 23.32C34.5901 23.32 37.0001 20.96 38.7301 20.75C39.1101 20.7 39.4901 20.83 39.7501 21.1C40.3301 21.69 41.1601 23.26 40.5401 27.29C40.5401 27.29 38.4701 24.68 34.5901 23.32Z" fill="#CEFFC7"/>
<path d="M38.8201 21.74C38.6201 21.74 38.4101 21.81 38.2301 21.89C37.7401 22.12 37.3001 22.43 36.8601 22.74C36.4601 23.02 36.0501 23.31 35.7101 23.65C35.4701 23.89 35.2401 24.22 35.3501 24.54C35.4401 24.81 35.7301 24.97 36.0001 25.1L38.7501 26.44C39.0901 26.6 39.5301 26.82 39.6401 26.34C39.8701 25.41 39.9001 24.44 39.7701 23.49C39.7101 23.05 39.6201 22.62 39.4301 22.22C39.3501 22.05 39.2401 21.88 39.0601 21.8C38.9801 21.76 38.9001 21.75 38.8201 21.74Z" fill="#5FD147"/>
<path d="M17.9301 21.6701C18.0601 21.6201 18.2101 21.5901 18.3801 21.5901C18.7201 21.5901 19.0601 21.6501 19.3701 21.7801C19.7401 21.9401 20.0501 22.1901 20.3501 22.4401L21.6501 23.5101C21.7901 23.6201 21.9301 23.7501 21.9401 23.9301C21.9401 24.1201 21.7701 24.2701 21.6101 24.3901L18.7001 26.6201C18.5501 26.7301 18.3701 26.8501 18.1901 26.7901C18.0501 26.7401 17.9801 26.6001 17.9301 26.4701C17.5501 25.5201 16.4501 22.2301 17.9301 21.6701Z" fill="#5FD147"/>
<path d="M30.07 42.28C29.4 42.28 28.88 42.01 28.87 42C28.75 41.94 28.71 41.79 28.77 41.68C28.83 41.56 28.98 41.52 29.09 41.58C29.15 41.61 30.52 42.32 31.56 41.04C31.64 40.94 31.79 40.92 31.89 41C31.99 41.08 32.01 41.23 31.93 41.33C31.33 42.07 30.64 42.27 30.06 42.27L30.07 42.28Z" fill="#5FD147"/>
<path d="M22.6699 33.99C23.3548 33.99 23.9099 33.4348 23.9099 32.75C23.9099 32.0652 23.3548 31.51 22.6699 31.51C21.9851 31.51 21.4299 32.0652 21.4299 32.75C21.4299 33.4348 21.9851 33.99 22.6699 33.99Z" fill="#2B110C"/>
<path d="M22.2801 32.4901C22.3795 32.4901 22.4601 32.4095 22.4601 32.3101C22.4601 32.2107 22.3795 32.1301 22.2801 32.1301C22.1807 32.1301 22.1001 32.2107 22.1001 32.3101C22.1001 32.4095 22.1807 32.4901 22.2801 32.4901Z" fill="white"/>
<path d="M34.0701 33.99C34.7549 33.99 35.3101 33.4348 35.3101 32.75C35.3101 32.0652 34.7549 31.51 34.0701 31.51C33.3852 31.51 32.8301 32.0652 32.8301 32.75C32.8301 33.4348 33.3852 33.99 34.0701 33.99Z" fill="#2B110C"/>
<path d="M33.68 32.4901C33.7794 32.4901 33.86 32.4095 33.86 32.3101C33.86 32.2107 33.7794 32.1301 33.68 32.1301C33.5806 32.1301 33.5 32.2107 33.5 32.3101C33.5 32.4095 33.5806 32.4901 33.68 32.4901Z" fill="white"/>
<path d="M23.6399 13.6801C23.7399 12.7801 24.0899 11.7601 24.5599 11.0101C24.7499 10.7101 24.9899 10.4301 25.2999 10.2701C25.6099 10.1101 25.9899 10.1001 26.3099 10.2501C26.6699 10.4101 26.9399 10.7501 27.1099 11.1201C27.2799 11.4901 27.3699 11.9001 27.4499 12.3101L25.5299 13.0201L24.5899 13.3701C24.3199 13.4701 23.9299 13.7101 23.6499 13.6901L23.6399 13.6801Z" fill="#7DDD6F"/>
<path d="M29.1599 12.2901L29.4099 11.6201C29.5499 11.2401 29.6999 10.8601 29.9099 10.5201C30.1199 10.1801 30.4299 9.90005 30.7999 9.78005C31.1499 9.67005 31.5299 9.73005 31.8699 9.87005C32.6199 10.1801 33.1799 10.8801 33.5699 11.6401C33.9599 12.4001 34.2899 13.4701 34.5999 14.2701C34.6799 14.4701 34.8899 14.8201 34.5599 14.7401C34.3099 14.6801 33.5699 14.2301 33.3199 14.1301C32.8099 13.9201 32.6899 13.7601 32.1699 13.5401C31.9199 13.4401 29.2499 12.3201 29.1599 12.2801V12.2901Z" fill="#7DDD6F"/>
<path d="M20.6899 25.75C20.6166 25.3433 20.5699 25.0767 20.5499 24.95C20.4099 24.11 20.3099 23.26 20.3299 22.41C20.3699 21.16 20.7199 19.87 21.5199 18.95C21.6699 18.78 21.8399 18.6 21.8799 18.37C21.9099 18.22 21.8699 18.06 21.8399 17.91C21.5499 16.26 22.4299 14.55 23.7099 13.58C24.9899 12.61 26.6099 12.29 28.1799 12.26C29.5299 12.23 30.8899 12.41 32.1599 12.91C33.4299 13.41 34.5899 14.25 35.4099 15.4C36.4799 16.91 36.8899 18.87 36.9199 20.77C36.9499 22.46 36.6999 24.14 36.4899 25.81C36.4499 26.09 36.1899 26.26 35.9399 26.17C35.0399 25.84 33.1299 25.38 32.8799 25.32C31.6499 25.05 30.4099 24.89 29.1499 24.83C26.6499 24.72 24.0799 24.89 21.7299 25.82C21.6099 25.87 21.4199 25.96 21.2099 26.04C20.9799 26.13 20.7299 25.99 20.6799 25.74L20.6899 25.75Z" fill="#40AF25"/>
<path d="M37.3299 20.2001C35.1899 18.4201 32.4199 17.2001 29.7299 16.7901C28.9799 16.6801 28.2299 16.6301 27.4899 16.6401C27.6199 16.5501 27.7499 16.4501 27.8899 16.3301C28.2299 16.0401 28.5799 15.7401 28.8499 15.3701C28.8799 15.3301 28.9299 15.2501 28.9299 15.1901C28.9299 15.1201 28.8999 15.0701 28.8599 15.0201C28.7299 14.8501 28.5499 14.6401 28.3799 14.7301C28.3099 14.7701 28.1899 14.8701 28.1299 14.9201C27.7799 15.2101 27.4499 15.4801 27.0999 15.7801C27.0699 15.8101 27.0399 15.8301 26.9999 15.8201C26.9399 15.8101 26.9299 15.7301 26.9199 15.6601C26.8499 14.5301 26.9799 13.3801 27.3199 12.3101C26.9999 12.3101 26.6799 12.3401 26.3599 12.4201C26.2899 12.4401 26.2099 12.4601 26.1499 12.5101C26.0499 12.5901 25.9999 12.7401 25.9599 12.8801C25.7099 13.8001 25.7799 14.7801 25.7799 15.7401C25.7799 15.8201 25.7799 15.9101 25.7099 15.9501C25.6699 15.9801 25.6099 15.9501 25.5599 15.9501C25.1799 15.8101 24.8199 15.6201 24.4699 15.3901C24.3999 15.3401 24.3299 15.3001 24.2499 15.3001C24.1099 15.3001 24.0199 15.4701 23.9599 15.6101C23.9299 15.6801 23.8999 15.7901 23.9099 15.8701C23.9299 15.9601 23.9999 16.0201 24.0599 16.0701C24.4299 16.3601 24.8199 16.6301 25.2099 16.8801C24.0499 17.1101 22.9099 17.5101 21.8099 18.0801C21.7099 18.1301 21.5999 18.2501 21.5999 18.3701C21.5999 18.3701 21.3899 18.6101 21.3899 18.6201C21.4099 18.7101 21.4999 18.7801 21.5899 18.7901C21.6899 18.7901 21.7799 18.7601 21.8699 18.7201C25.3799 17.1701 29.6799 16.9701 33.1699 18.5501C33.9399 18.9001 34.6799 19.3201 35.4199 19.7501C35.7899 19.9701 36.1499 20.1801 36.5199 20.4001C36.6399 20.4701 37.4399 21.0101 37.3099 20.4701C37.2799 20.3501 37.3999 20.2701 37.3099 20.2001H37.3299Z" fill="#CEFFC7"/>
<path d="M71.16 24.7899C71.16 25.5899 70.66 26.1299 69.83 26.1299C69 26.1299 68.5 25.5899 68.5 24.7899V16.4799H67.43C66.63 16.4799 66.05 16.1299 66.05 15.3299C66.05 14.5299 66.63 14.1799 67.43 14.1799H69.62C70.69 14.1799 71.16 14.6899 71.16 15.7599V24.7899Z" fill="#40AF25"/>
<path d="M75.1201 20.1099C75.1201 16.6799 76.2401 13.9299 79.6501 13.9299C83.0601 13.9299 84.1801 16.6799 84.1801 20.1099C84.1801 23.5399 83.0601 26.2699 79.6501 26.2699C76.2401 26.2699 75.1201 23.5299 75.1201 20.1099ZM81.5401 20.1099C81.5401 18.0899 81.2401 16.1999 79.6501 16.1999C78.0601 16.1999 77.7601 18.0899 77.7601 20.1099C77.7601 22.1299 78.0601 23.9999 79.6501 23.9999C81.2401 23.9999 81.5401 22.1299 81.5401 20.1099Z" fill="#40AF25"/>
<path d="M86.1001 24.8199C86.2801 24.0499 86.8401 23.6999 87.6001 23.8899C88.3701 24.0799 88.6601 24.5799 88.4801 25.3499L88.0601 27.1299C87.8801 27.8999 87.3201 28.2299 86.5401 28.0399C85.7701 27.8499 85.5301 27.3399 85.7101 26.5699L86.0901 24.8299L86.1001 24.8199Z" fill="#40AF25"/>
<path d="M91.22 20.1099C91.22 16.6799 92.34 13.9299 95.75 13.9299C99.16 13.9299 100.28 16.6799 100.28 20.1099C100.28 23.5399 99.16 26.2699 95.75 26.2699C92.34 26.2699 91.22 23.5299 91.22 20.1099ZM97.64 20.1099C97.64 18.0899 97.34 16.1999 95.75 16.1999C94.16 16.1999 93.86 18.0899 93.86 20.1099C93.86 22.1299 94.16 23.9999 95.75 23.9999C97.34 23.9999 97.64 22.1299 97.64 20.1099Z" fill="#40AF25"/>
<path d="M101.78 20.1099C101.78 16.6799 102.9 13.9299 106.31 13.9299C109.72 13.9299 110.84 16.6799 110.84 20.1099C110.84 23.5399 109.72 26.2699 106.31 26.2699C102.9 26.2699 101.78 23.5299 101.78 20.1099ZM108.2 20.1099C108.2 18.0899 107.9 16.1999 106.31 16.1999C104.72 16.1999 104.42 18.0899 104.42 20.1099C104.42 22.1299 104.72 23.9999 106.31 23.9999C107.9 23.9999 108.2 22.1299 108.2 20.1099Z" fill="#40AF25"/>
<path d="M112.34 20.1099C112.34 16.6799 113.46 13.9299 116.87 13.9299C120.28 13.9299 121.4 16.6799 121.4 20.1099C121.4 23.5399 120.28 26.2699 116.87 26.2699C113.46 26.2699 112.34 23.5299 112.34 20.1099ZM118.76 20.1099C118.76 18.0899 118.46 16.1999 116.87 16.1999C115.28 16.1999 114.98 18.0899 114.98 20.1099C114.98 22.1299 115.28 23.9999 116.87 23.9999C118.46 23.9999 118.76 22.1299 118.76 20.1099Z" fill="#40AF25"/>
<path d="M87.99 37.79C87.99 38.57 87.58 38.95 86.8 38.95H83.42C82.64 38.95 82.23 38.57 82.23 37.79V34.44C82.23 33.66 82.64 33.28 83.42 33.28H86.8C87.58 33.28 87.99 33.66 87.99 34.44V37.79ZM85.52 40.78V42.24C85.52 42.41 85.56 42.44 85.72 42.44H90.71C91.21 42.44 91.53 42.73 91.53 43.23C91.53 43.73 91.22 44.02 90.71 44.02H84.67C83.89 44.02 83.58 43.72 83.58 42.96V40.77C83.58 40.19 83.99 39.86 84.55 39.86C85.11 39.86 85.52 40.2 85.52 40.77V40.78ZM86.14 34.94C86.14 34.81 86.1 34.77 85.97 34.77H84.24C84.11 34.77 84.07 34.81 84.07 34.94V37.29C84.07 37.42 84.11 37.46 84.24 37.46H85.97C86.1 37.46 86.14 37.42 86.14 37.29V34.94ZM89.31 33.9C89.31 33.34 89.71 33.04 90.27 33.04C90.83 33.04 91.23 33.34 91.23 33.9V35.56H92.06C92.56 35.56 92.92 35.81 92.92 36.35C92.92 36.89 92.56 37.14 92.06 37.14H91.23V39.85C91.23 40.41 90.83 40.73 90.27 40.73C89.71 40.73 89.31 40.42 89.31 39.85V33.9Z" fill="#40AF25"/>
<path d="M97.4899 37.57C98.5199 37.57 99.3199 37.51 100.24 37.39C100.7 37.33 101.02 37.4 101.1 37.82C101.18 38.22 100.99 38.5 100.58 38.61C99.7799 38.81 98.8399 38.86 97.8799 38.86V39.86C97.8799 40.42 97.5199 40.75 96.9599 40.75C96.3999 40.75 96.0399 40.43 96.0399 39.86V38.86H94.4899C93.9899 38.86 93.6499 38.73 93.6499 38.22C93.6499 37.71 93.9799 37.56 94.4899 37.56H97.4899V37.57ZM94.3399 35.18C94.3399 33.85 95.6499 33.11 97.4199 33.11C99.1899 33.11 100.5 33.85 100.5 35.18C100.5 36.51 99.1899 37.24 97.4199 37.24C95.6499 37.24 94.3399 36.51 94.3399 35.18ZM97.0999 41.82V42.3C97.0999 42.47 97.1399 42.5 97.2999 42.5H102.78C103.28 42.5 103.6 42.81 103.6 43.26C103.6 43.71 103.29 44.03 102.78 44.03H96.3499C95.5699 44.03 95.2699 43.73 95.2699 42.97V41.82C95.2699 41.24 95.6199 40.91 96.1899 40.91C96.7599 40.91 97.0899 41.25 97.0899 41.82H97.0999ZM96.1999 35.18C96.1999 35.68 96.7599 35.94 97.4199 35.94C98.0799 35.94 98.6399 35.69 98.6399 35.18C98.6399 34.67 98.0799 34.44 97.4199 34.44C96.7599 34.44 96.1999 34.68 96.1999 35.18ZM99.7299 40.48C99.2299 40.48 98.8699 40.32 98.8699 39.82C98.8699 39.32 99.2299 39.16 99.7299 39.16H101.59V33.91C101.59 33.35 101.92 33.03 102.5 33.03C103.08 33.03 103.41 33.34 103.41 33.91V40.58C103.41 41.14 103.06 41.47 102.5 41.47C101.94 41.47 101.59 41.15 101.59 40.58V40.48H99.7299Z" fill="#40AF25"/>
</svg>
