<svg width="138" height="60" viewBox="0 0 138 60" fill="none" xmlns="http://www.w3.org/2000/svg">
<path d="M130 0H8C3.58172 0 0 3.58172 0 8V52C0 56.4183 3.58172 60 8 60H130C134.418 60 138 56.4183 138 52V8C138 3.58172 134.418 0 130 0Z" fill="#FFB384"/>
<path d="M46.4799 40.3801C46.6599 40.3601 46.8399 40.3501 47.0199 40.3401C47.1699 40.3401 47.2599 40.3101 47.4099 40.2901C47.5099 40.2801 47.7899 40.2101 47.8899 40.1701C48.3699 39.9801 48.7099 39.7101 49.0499 39.3301C49.0699 39.3001 49.0999 39.2801 49.1199 39.2501C49.2399 39.1101 49.3499 38.9501 49.3799 38.7601C49.4099 38.5701 49.3299 38.3601 49.1499 38.2901C48.9999 38.2301 48.8299 38.2901 48.6999 38.3701C48.5699 38.4501 48.4799 38.6001 48.3699 38.7101C48.1999 38.9001 47.9899 39.0701 47.7599 39.2001C47.6399 39.2701 47.4899 39.3301 47.3599 39.3101C47.3099 39.3101 47.2799 39.2601 47.2899 39.2201C47.3299 38.9301 47.4099 38.6501 47.4599 38.3701C47.5099 38.0601 47.5299 37.7301 47.4199 37.4401C47.2899 37.0801 46.9799 36.7901 46.6299 36.6301C46.2799 36.4701 45.8699 36.4101 45.5099 36.5401C45.0399 36.7101 44.7199 37.1801 44.5999 37.6701C44.4399 38.3401 44.6299 39.0901 45.0899 39.6001C45.1099 39.6301 45.0999 39.6701 45.0699 39.6801C44.6199 39.7801 44.1499 39.8001 43.6999 39.7201C43.6499 39.8401 43.5799 40.3101 43.6699 40.6101C43.6799 40.6401 43.6899 40.6801 43.7199 40.7001C43.7399 40.7201 44.0799 40.7301 44.1099 40.7401C44.5799 40.7701 45.0599 40.7101 45.5099 40.5801C45.8299 40.4801 46.1599 40.4301 46.4899 40.3901L46.4799 40.3801ZM45.4699 38.0401V38.0201C45.4699 37.8701 45.5099 37.7101 45.5899 37.5901C45.6699 37.4701 45.8099 37.3601 45.9599 37.3501C46.0699 37.3401 46.1899 37.3701 46.2899 37.4401C46.3899 37.5101 46.4499 37.6101 46.4999 37.7101C46.5599 37.8801 46.5599 38.0601 46.5399 38.2401C46.5099 38.4901 46.4299 38.7301 46.3099 38.9601C46.2899 39.0101 46.2499 39.0701 46.1999 39.0901C46.1499 39.1101 46.0699 39.0701 46.0299 39.0501C45.8499 38.9501 45.6999 38.8001 45.6099 38.6201C45.5199 38.4401 45.4699 38.2501 45.4799 38.0501L45.4699 38.0401Z" fill="#FF816C"/>
<path d="M24.76 22.9802C25.95 22.6702 27.17 22.5002 28.41 22.4902C34.77 22.4102 40.98 26.5002 43.27 32.3002C45.07 36.8702 44.33 42.2602 41.56 46.3202C38.52 50.7702 33.08 51.1202 28 51.1702C24.36 51.2102 20.6 50.3602 17.73 48.1602C13.12 44.6302 11.68 37.9602 13.73 32.6002C15.52 27.9102 19.83 24.2702 24.76 22.9902V22.9802Z" fill="#FCC9BB"/>
<path d="M26.42 38.7099C26.45 38.8099 26.02 39.5999 26.21 39.6899C27.18 40.1599 28.12 40.5299 30.1 40.0199C31.31 39.7099 31.99 38.7499 32.24 37.9499C32.56 36.9199 32.23 35.2899 30.56 34.1799C29.19 35.4599 28.62 37.5899 27.25 38.8699C26.98 39.1199 26.33 38.4299 26.42 38.7099Z" fill="#FF816C"/>
<path d="M26.5499 33.8901C26.4299 33.9301 26.3099 33.9801 26.1999 34.0401C24.3499 34.9401 23.8899 37.6001 25.3399 39.0601C26.1799 39.9001 27.4499 40.2301 28.6199 40.0401C29.9399 39.8301 31.1699 38.9501 31.6399 37.7001C32.1099 36.4501 31.6899 34.8801 30.5699 34.1601C29.9599 33.7701 29.2199 33.6401 28.4999 33.6201C27.8399 33.6001 27.1699 33.6601 26.5499 33.8801V33.8901Z" fill="#FF9578"/>
<path d="M27.7799 36.0899C27.7499 35.9699 27.7199 35.8499 27.6699 35.7299C27.5999 35.5799 27.5099 35.4299 27.3699 35.3499C27.2299 35.2699 27.0399 35.2499 26.8999 35.3499C26.7799 35.4399 26.7299 35.6099 26.7099 35.7599C26.6299 36.2099 26.6499 36.6499 26.6799 37.1099C26.6999 37.4799 26.6899 37.8599 26.8799 38.1999C26.9299 38.2799 26.9899 38.3599 27.0699 38.3999C27.1699 38.4399 27.2899 38.4199 27.3899 38.3499C27.4899 38.2799 27.5499 38.1899 27.5999 38.0899C27.7499 37.8099 27.7899 37.4799 27.8199 37.1599C27.8499 36.7999 27.8699 36.4299 27.7899 36.0799L27.7799 36.0899Z" fill="#FCC9BB"/>
<path d="M29.7599 36.0899C29.7299 35.9699 29.6999 35.8499 29.6499 35.7299C29.5799 35.5799 29.4899 35.4299 29.3499 35.3499C29.2099 35.2699 29.0199 35.2499 28.8799 35.3499C28.7599 35.4399 28.7099 35.6099 28.6899 35.7599C28.6099 36.2099 28.6299 36.6499 28.6599 37.1099C28.6799 37.4799 28.6699 37.8599 28.8599 38.1999C28.9099 38.2799 28.9699 38.3599 29.0499 38.3999C29.1499 38.4399 29.2699 38.4199 29.3699 38.3499C29.4699 38.2799 29.5299 38.1899 29.5799 38.0899C29.7299 37.8099 29.7699 37.4799 29.7999 37.1599C29.8299 36.7999 29.8499 36.4299 29.7699 36.0799L29.7599 36.0899Z" fill="#FCC9BB"/>
<path d="M16.8499 28.4701C16.8499 28.4701 15.3199 23.3901 16.8499 21.7701C18.3799 20.1501 22.9799 24.1301 22.9799 24.1301C22.9799 24.1301 19.0099 25.9501 16.8499 28.4701Z" fill="#FCC9BB"/>
<path d="M34.5901 24.2199C34.5901 24.2199 37.0001 21.8599 38.7301 21.6499C39.1101 21.5999 39.4901 21.7299 39.7501 21.9999C40.3301 22.5899 41.1601 24.1599 40.5401 28.1899C40.5401 28.1899 38.4701 25.5799 34.5901 24.2199Z" fill="#FCC9BB"/>
<path d="M38.8201 22.6301C38.6201 22.6301 38.4101 22.7001 38.2301 22.7801C37.7401 23.0101 37.3001 23.3201 36.8601 23.6301C36.4601 23.9101 36.0501 24.2001 35.7101 24.5401C35.4701 24.7801 35.2401 25.1101 35.3501 25.4301C35.4401 25.7001 35.7301 25.8601 36.0001 25.9901L38.7501 27.3301C39.0901 27.4901 39.5301 27.7101 39.6401 27.2301C39.8701 26.3001 39.9001 25.3301 39.7701 24.3801C39.7101 23.9401 39.6201 23.5101 39.4301 23.1101C39.3501 22.9401 39.2401 22.7701 39.0601 22.6901C38.9801 22.6501 38.9001 22.6401 38.8201 22.6301Z" fill="#FF816C"/>
<path d="M17.9301 22.56C18.0601 22.51 18.2101 22.48 18.3801 22.48C18.7201 22.48 19.0601 22.54 19.3701 22.67C19.7401 22.83 20.0501 23.08 20.3501 23.33L21.6501 24.4C21.7901 24.51 21.9301 24.64 21.9401 24.82C21.9401 25.01 21.7701 25.16 21.6101 25.28L18.7001 27.51C18.5501 27.62 18.3701 27.74 18.1901 27.68C18.0501 27.63 17.9801 27.49 17.9301 27.36C17.5501 26.41 16.4501 23.12 17.9301 22.56Z" fill="#FF816C"/>
<path d="M30.07 43.1799C29.4 43.1799 28.88 42.91 28.87 42.9C28.75 42.84 28.71 42.69 28.77 42.58C28.83 42.46 28.98 42.4199 29.09 42.4799C29.15 42.5099 30.52 43.2199 31.57 41.9399C31.65 41.8399 31.8 41.82 31.9 41.9C32 41.98 32.02 42.1299 31.94 42.2299C31.34 42.9699 30.65 43.1699 30.07 43.1699V43.1799Z" fill="#FF816C"/>
<path d="M22.6699 34.8902C23.3548 34.8902 23.9099 34.335 23.9099 33.6502C23.9099 32.9653 23.3548 32.4102 22.6699 32.4102C21.9851 32.4102 21.4299 32.9653 21.4299 33.6502C21.4299 34.335 21.9851 34.8902 22.6699 34.8902Z" fill="#2B110C"/>
<path d="M22.2801 33.39C22.3795 33.39 22.4601 33.3094 22.4601 33.21C22.4601 33.1106 22.3795 33.03 22.2801 33.03C22.1807 33.03 22.1001 33.1106 22.1001 33.21C22.1001 33.3094 22.1807 33.39 22.2801 33.39Z" fill="white"/>
<path d="M34.0701 34.8902C34.7549 34.8902 35.3101 34.335 35.3101 33.6502C35.3101 32.9653 34.7549 32.4102 34.0701 32.4102C33.3852 32.4102 32.8301 32.9653 32.8301 33.6502C32.8301 34.335 33.3852 34.8902 34.0701 34.8902Z" fill="#2B110C"/>
<path d="M33.68 33.39C33.7794 33.39 33.86 33.3094 33.86 33.21C33.86 33.1106 33.7794 33.03 33.68 33.03C33.5806 33.03 33.5 33.1106 33.5 33.21C33.5 33.3094 33.5806 33.39 33.68 33.39Z" fill="white"/>
<path d="M20.3301 11.17C20.3201 11 20.3001 10.83 20.2801 10.65C20.2201 10.12 20.0701 8.48005 20.9201 9.23005C21.9201 10.11 22.8001 12.37 25.1701 10.89C27.5401 9.41005 28.8701 7.91005 30.2701 9.53005C31.2101 10.61 32.5701 12.65 34.2101 12.79C35.8501 12.93 36.7601 11.51 37.2201 10.46C37.2201 10.46 37.7701 9.49005 37.8001 10.91C37.8301 12.33 37.3701 17.5 36.5201 21.38C35.6701 25.26 35.0601 26.71 35.0601 26.71C35.0601 26.71 30.3501 18.86 21.2801 25.71C21.2801 25.71 20.6501 15.02 20.3301 11.17Z" fill="#FC644F"/>
<path d="M22.54 26.6399C22.44 26.6599 22.23 26.6399 22.13 26.6299C21.86 26.5799 21.7 26.4299 21.51 26.1999C20.63 25.1399 19.82 23.9999 19.1 22.7799C18.56 21.8699 18.05 20.8599 17.97 19.7399C17.96 19.5399 17.99 19.2899 18.15 19.2399C18.29 19.1899 18.42 19.3499 18.53 19.4699C18.99 19.9999 19.68 20.1499 20.3 19.9799C20.92 19.8099 21.46 19.3799 21.92 18.8599C23.5 17.0799 24.16 14.4399 25.1 12.0899C25.22 11.7799 25.37 11.4499 25.63 11.2999C25.99 11.0899 26.43 11.3099 26.76 11.5899C27.66 12.3399 28.27 13.4799 29.02 14.4399C30.15 15.8899 31.61 16.8999 33.05 17.8699C34.27 18.6899 35.52 19.4899 36.87 19.8899C37.52 20.0799 38.22 20.1699 38.86 19.8899C38.98 19.8399 39.11 19.7799 39.22 19.8599C39.35 19.9599 39.32 20.1999 39.28 20.3799C38.77 22.4199 37.73 24.2299 36.61 25.8499C36.38 26.1899 36.31 26.7499 35.63 26.7299C34.53 26.6899 32.9 26.3999 32.04 26.1999C28.86 25.4899 25.95 25.0799 23.05 26.4599C22.91 26.5299 22.72 26.6099 22.57 26.6399H22.54Z" fill="#FF9578"/>
<path d="M73.25 17.19L73.22 19.08C73.75 18.98 73.99 18.97 74.56 18.97C76.8 18.97 78.45 20.39 78.45 22.62C78.45 25.05 76.82 26.86 73.98 26.86C72.7 26.86 71.47 26.65 70.59 25.98C70.09 25.6 69.95 24.92 70.35 24.4C70.73 23.87 71.41 23.92 71.82 24.11C72.44 24.4 72.99 24.67 73.84 24.67C75.14 24.67 75.94 23.92 75.94 22.73C75.94 21.37 74.8 20.91 73.41 20.91C72.83 20.91 71.97 21.09 71.46 21.17C70.96 21.27 70.66 20.95 70.68 20.43L70.82 16.16C70.84 15.2 71.25 14.77 72.24 14.77H76.77C77.54 14.77 78.16 15.22 78.16 15.99C78.16 16.76 77.54 17.21 76.77 17.21H73.25V17.19Z" fill="#FC644F"/>
<path d="M80.8201 25.4C81.0001 24.63 81.5601 24.28 82.3201 24.47C83.0901 24.66 83.3801 25.16 83.2001 25.93L82.7801 27.71C82.6001 28.48 82.0401 28.81 81.2601 28.62C80.4901 28.43 80.2501 27.92 80.4301 27.15L80.8101 25.41L80.8201 25.4Z" fill="#FC644F"/>
<path d="M85.9399 20.69C85.9399 17.26 87.0599 14.51 90.4699 14.51C93.8799 14.51 94.9999 17.26 94.9999 20.69C94.9999 24.12 93.8799 26.85 90.4699 26.85C87.0599 26.85 85.9399 24.11 85.9399 20.69ZM92.3599 20.69C92.3599 18.67 92.0599 16.78 90.4699 16.78C88.8799 16.78 88.5799 18.67 88.5799 20.69C88.5799 22.71 88.8799 24.58 90.4699 24.58C92.0599 24.58 92.3599 22.71 92.3599 20.69Z" fill="#FC644F"/>
<path d="M96.5 20.69C96.5 17.26 97.62 14.51 101.03 14.51C104.44 14.51 105.56 17.26 105.56 20.69C105.56 24.12 104.44 26.85 101.03 26.85C97.62 26.85 96.5 24.11 96.5 20.69ZM102.92 20.69C102.92 18.67 102.62 16.78 101.03 16.78C99.44 16.78 99.14 18.67 99.14 20.69C99.14 22.71 99.44 24.58 101.03 24.58C102.62 24.58 102.92 22.71 102.92 20.69Z" fill="#FC644F"/>
<path d="M107.06 20.69C107.06 17.26 108.18 14.51 111.59 14.51C115 14.51 116.12 17.26 116.12 20.69C116.12 24.12 115 26.85 111.59 26.85C108.18 26.85 107.06 24.11 107.06 20.69ZM113.48 20.69C113.48 18.67 113.18 16.78 111.59 16.78C110 16.78 109.7 18.67 109.7 20.69C109.7 22.71 110 24.58 111.59 24.58C113.18 24.58 113.48 22.71 113.48 20.69Z" fill="#FC644F"/>
<path d="M76.9601 43.3601C76.4201 43.3601 76.1001 43.0801 76.1001 42.5401C76.1001 42.0001 76.4201 41.7201 76.9601 41.7201H80.5001V40.01C78.6401 39.78 77.3601 38.8501 77.3601 37.0601C77.3601 34.9801 79.1001 34.05 81.4601 34.05C83.8201 34.05 85.5601 34.9901 85.5601 37.0601C85.5601 38.8501 84.2801 39.78 82.4201 40.01V41.7201H85.9601C86.5001 41.7201 86.8201 42.0001 86.8201 42.5401C86.8201 43.0801 86.5001 43.3601 85.9601 43.3601H76.9601ZM79.2501 37.0601C79.2501 38.0401 80.2601 38.48 81.4601 38.48C82.6601 38.48 83.6701 38.0501 83.6701 37.0601C83.6701 36.0701 82.6601 35.64 81.4601 35.64C80.2601 35.64 79.2501 36.0701 79.2501 37.0601Z" fill="#FC644F"/>
<path d="M93.5001 34.5899C94.0401 34.5899 94.3801 34.7799 94.3801 35.3199C94.3801 35.8599 94.0401 36.0499 93.5001 36.0499H92.1701V36.5999C92.1701 37.6199 93.0701 37.9899 94.1001 38.5299C94.5901 38.7899 94.7101 39.2499 94.4501 39.6799C94.2001 40.0899 93.6701 40.0499 93.1901 39.8699C92.4701 39.5899 91.8001 39.1399 91.2801 38.6499C90.8001 39.2099 90.1201 39.6899 89.3701 40.0499C88.8901 40.2799 88.3601 40.2699 88.1101 39.8599C87.8501 39.4299 87.9701 38.9799 88.4601 38.7099C89.5301 38.1199 90.3901 37.6199 90.3901 36.5999V36.0499H89.0001C88.4601 36.0499 88.1201 35.8599 88.1201 35.3199C88.1201 34.7799 88.4601 34.5899 89.0001 34.5899H90.3801V34.0099C90.3801 33.4699 90.7401 33.1799 91.2801 33.1799C91.8201 33.1799 92.1801 33.4699 92.1801 34.0099V34.5899H93.5001ZM91.6501 41.6499V42.8099C91.6501 42.9799 91.6901 43.0099 91.8501 43.0099H96.9601C97.4601 43.0099 97.7801 43.2999 97.7801 43.7999C97.7801 44.2999 97.4701 44.5899 96.9601 44.5899H90.7901C90.0101 44.5899 89.7001 44.2899 89.7001 43.5299V41.6299C89.7001 41.0499 90.1101 40.7199 90.6701 40.7199C91.2301 40.7199 91.6401 41.0599 91.6401 41.6299L91.6501 41.6499ZM95.5601 34.4799C95.5601 33.9199 95.9601 33.5999 96.5201 33.5999C97.0801 33.5999 97.4801 33.9099 97.4801 34.4799V40.7199C97.4801 41.2799 97.0801 41.5999 96.5201 41.5999C95.9601 41.5999 95.5601 41.2899 95.5601 40.7199V37.8099H94.3701C93.8501 37.8099 93.5101 37.6399 93.5101 37.1299C93.5101 36.6199 93.8601 36.4499 94.3701 36.4499H95.5601V34.4999V34.4799Z" fill="#FC644F"/>
<path d="M103.25 38.1399C104.28 38.1399 105.08 38.0799 106 37.9599C106.46 37.8999 106.78 37.9699 106.86 38.3899C106.94 38.7899 106.75 39.0699 106.34 39.1799C105.54 39.3799 104.6 39.4299 103.64 39.4299V40.4299C103.64 40.9899 103.28 41.3199 102.72 41.3199C102.16 41.3199 101.8 40.9999 101.8 40.4299V39.4299H100.25C99.7502 39.4299 99.4102 39.2999 99.4102 38.7899C99.4102 38.2799 99.7502 38.1299 100.25 38.1299H103.25V38.1399ZM100.1 35.7499C100.1 34.4199 101.41 33.6799 103.18 33.6799C104.95 33.6799 106.26 34.4199 106.26 35.7499C106.26 37.0799 104.95 37.8099 103.18 37.8099C101.41 37.8099 100.1 37.0799 100.1 35.7499ZM102.86 42.3899V42.8699C102.86 43.0399 102.9 43.0699 103.06 43.0699H108.54C109.04 43.0699 109.36 43.3799 109.36 43.8299C109.36 44.2799 109.05 44.5999 108.54 44.5999H102.11C101.33 44.5999 101.03 44.2999 101.03 43.5399V42.3899C101.03 41.8099 101.38 41.4799 101.95 41.4799C102.52 41.4799 102.85 41.8199 102.85 42.3899H102.86ZM101.96 35.7499C101.96 36.2499 102.52 36.5099 103.18 36.5099C103.84 36.5099 104.4 36.2599 104.4 35.7499C104.4 35.2399 103.84 35.0099 103.18 35.0099C102.52 35.0099 101.96 35.2499 101.96 35.7499ZM105.49 41.0499C104.99 41.0499 104.63 40.8899 104.63 40.3899C104.63 39.8899 104.99 39.7299 105.49 39.7299H107.35V34.4799C107.35 33.9199 107.69 33.5999 108.26 33.5999C108.83 33.5999 109.17 33.9099 109.17 34.4799V41.1499C109.17 41.7099 108.82 42.0399 108.26 42.0399C107.7 42.0399 107.35 41.7199 107.35 41.1499V41.0499H105.49Z" fill="#FC644F"/>
</svg>
