<svg width="42" height="42" viewBox="0 0 42 42" fill="none" xmlns="http://www.w3.org/2000/svg">
<circle cx="20.9998" cy="20.9996" r="19" transform="rotate(-15 20.9998 20.9996)" stroke="#FF6F42" stroke-width="2"/>
<path d="M15.1133 24.0017C15.7562 23.8294 16.361 23.7295 16.9279 23.7021C17.5012 23.6633 18.0098 23.704 18.4535 23.8244C18.8973 23.9447 19.2718 24.1458 19.577 24.4277C19.8822 24.7096 20.097 25.0827 20.2214 25.547C20.3458 26.0113 20.3463 26.4418 20.223 26.8385C20.0996 27.2352 19.8758 27.5966 19.5517 27.9227C19.2276 28.2488 18.8075 28.5384 18.2916 28.7915C17.7869 29.0511 17.2132 29.2671 16.5703 29.4393C15.9274 29.6116 15.3181 29.7127 14.7423 29.7425C14.1779 29.7789 13.6738 29.737 13.23 29.6166C12.7863 29.4963 12.4118 29.2952 12.1066 29.0133C11.8014 28.7314 11.5866 28.3583 11.4622 27.894C11.3378 27.4297 11.3373 26.9992 11.4606 26.6025C11.584 26.2058 11.8078 25.8444 12.1319 25.5183C12.456 25.1922 12.8716 24.9038 13.3786 24.6531C13.8922 24.3911 14.4704 24.1739 15.1133 24.0017ZM11.8716 22.2433C11.7025 22.7193 11.4792 23.1715 11.2016 23.5999C10.924 24.0284 10.5997 24.4072 10.2285 24.7363C9.99652 24.942 9.74867 25.0707 9.48495 25.1222C9.22776 25.1624 8.98771 25.0879 8.76478 24.8989C8.54186 24.7098 8.43142 24.4762 8.43347 24.1981C8.44445 23.9176 8.55995 23.6522 8.77996 23.4019C9.33479 22.7939 9.72586 22.1819 9.95318 21.5659C10.1805 20.9499 10.2056 20.3116 10.0286 19.6508L9.83839 18.941C9.75226 18.6196 9.78828 18.3611 9.94643 18.1656C10.1022 17.9612 10.3408 17.8159 10.6622 17.7298C10.9837 17.6436 11.2629 17.6501 11.5001 17.7493C11.7348 17.8395 11.8952 18.0454 11.9813 18.3668L12.1715 19.0766C12.3486 19.7374 12.6734 20.2532 13.146 20.6242C13.6187 20.9952 14.2437 21.2919 15.021 21.5143C15.3319 21.6032 15.5578 21.7676 15.6986 22.0074C15.8483 22.2448 15.8716 22.4922 15.7683 22.7495C15.665 23.0069 15.4931 23.1869 15.2527 23.2896C15.0188 23.381 14.7511 23.4001 14.4498 23.3469C13.9953 23.2581 13.5492 23.1288 13.1113 22.959C12.6711 22.7803 12.2578 22.5418 11.8716 22.2433ZM15.7027 17.2548C15.619 16.9423 15.6526 16.6749 15.8036 16.4526C15.9635 16.2279 16.1997 16.0737 16.5122 15.99C16.8247 15.9063 17.1019 15.9229 17.3438 16.0399C17.5947 16.1545 17.7619 16.3681 17.8457 16.6806L19.1556 21.5692C19.2393 21.8817 19.2012 22.1503 19.0413 22.3749C18.8903 22.5972 18.6586 22.7502 18.3461 22.834C18.0336 22.9177 17.7519 22.9023 17.5011 22.7877C17.2592 22.6706 17.0964 22.4559 17.0126 22.1434L16.4348 19.987L15.0419 20.3603C14.7562 20.4368 14.5049 20.4276 14.2881 20.3326C14.0712 20.2376 13.9221 20.0383 13.8408 19.7347C13.7594 19.4311 13.7889 19.184 13.9292 18.9933C14.0695 18.8025 14.2825 18.6689 14.5682 18.5924L15.9611 18.2191L15.7027 17.2548ZM16.1325 27.8054C16.4539 27.7192 16.7426 27.618 16.9985 27.5015C17.2657 27.3916 17.4856 27.2657 17.6581 27.1238C17.8395 26.9795 17.9659 26.826 18.0371 26.6634C18.1149 26.4894 18.1287 26.3087 18.0785 26.1212C18.0282 25.9337 17.9271 25.7885 17.7752 25.6857C17.6297 25.5715 17.4424 25.4973 17.2131 25.4631C16.9927 25.4264 16.7394 25.4273 16.453 25.4657C16.1732 25.4929 15.8725 25.5495 15.5511 25.6356C15.2297 25.7218 14.9365 25.8242 14.6717 25.943C14.4134 26.0505 14.1935 26.1764 14.0121 26.3208C13.8396 26.4627 13.7144 26.6206 13.6366 26.7946C13.5654 26.9572 13.5549 27.1323 13.6051 27.3198C13.6554 27.5073 13.7532 27.6581 13.8986 27.7723C14.0506 27.8751 14.2367 27.9449 14.4571 27.9815C14.6864 28.0158 14.9397 28.0149 15.2172 27.9788C15.5059 27.9493 15.811 27.8915 16.1325 27.8054Z" fill="#FF6F42"/>
<path d="M27.5808 21.1921C28.2504 21.0127 28.8797 20.8967 29.4685 20.8442C30.055 20.7828 30.5766 20.8009 31.0334 20.8986C31.4879 20.9874 31.8686 21.1581 32.1755 21.4108C32.489 21.6522 32.7044 21.9916 32.8216 22.4292C32.9388 22.8667 32.9233 23.2728 32.7748 23.6475C32.6264 24.0222 32.3732 24.3628 32.0151 24.6693C31.6594 24.9847 31.2122 25.2624 30.6736 25.5025C30.1464 25.749 29.5568 25.9596 28.905 26.1343C28.2532 26.3089 27.6329 26.4225 27.0441 26.475C26.4665 26.534 25.9449 26.5159 25.4792 26.4206C25.0158 26.3342 24.6262 26.1659 24.3103 25.9156C23.9944 25.6653 23.7778 25.3214 23.6606 24.8838C23.5434 24.4463 23.5557 24.0459 23.6976 23.6825C23.846 23.3078 24.0948 22.9684 24.4439 22.6643C24.7907 22.3512 25.2334 22.0747 25.772 21.8347C26.3082 21.5858 26.9111 21.3716 27.5808 21.1921ZM31.9619 17.5061C32.2654 17.4248 32.5188 17.4239 32.7219 17.5034C32.934 17.5806 33.0807 17.7709 33.1621 18.0745C33.2434 18.3781 33.2115 18.6163 33.0665 18.7892C32.9303 18.9596 32.7104 19.0855 32.4069 19.1669L22.3887 21.8513C22.0851 21.9326 21.8272 21.9347 21.6152 21.8575C21.412 21.778 21.2698 21.5864 21.1884 21.2828C21.1071 20.9793 21.1345 20.7422 21.2707 20.5718C21.4157 20.3989 21.6401 20.2718 21.9437 20.1905L25.0375 19.3615L24.675 18.0088C24.5889 17.6873 24.6225 17.4199 24.7759 17.2066C24.9293 16.9932 25.1667 16.8435 25.4881 16.7573C25.8096 16.6712 26.09 16.6822 26.3295 16.7903C26.569 16.8984 26.7318 17.1131 26.818 17.4346L27.1804 18.7873L31.9619 17.5061ZM22.625 16.3044C22.3214 16.3857 22.0636 16.3878 21.8515 16.3106C21.6483 16.2311 21.5061 16.0395 21.4247 15.736C21.3434 15.4324 21.3708 15.1954 21.507 15.0249C21.652 14.852 21.8764 14.7249 22.18 14.6436L28.6757 12.9031C29.1311 12.781 29.4833 12.7919 29.7324 12.9357C29.9904 13.0771 30.1684 13.3309 30.2665 13.697L30.4603 14.4202C30.489 14.5274 30.5192 14.658 30.551 14.8122C30.5803 14.9575 30.6076 15.1128 30.6328 15.2783C30.667 15.4415 30.6954 15.6013 30.7182 15.7579C30.7411 15.9145 30.7591 16.0532 30.7723 16.174C30.7923 16.4271 30.7211 16.6615 30.5588 16.8772C30.3965 17.093 30.1409 17.2284 29.7921 17.2836C29.4432 17.3388 29.1823 17.2939 29.0095 17.1488C28.8342 16.9948 28.7277 16.7937 28.6899 16.5454C28.6599 16.362 28.6251 16.1608 28.5856 15.9417C28.5549 15.7203 28.5193 15.5336 28.4786 15.3819L28.3745 14.9934C28.3482 14.8952 28.3148 14.842 28.2743 14.8337C28.2403 14.8141 28.1743 14.8174 28.076 14.8438L22.625 16.3044ZM28.0222 22.8395C27.299 23.0333 26.7231 23.2594 26.2947 23.5177C25.8728 23.7647 25.7002 24.0311 25.7767 24.3168C25.8533 24.6025 26.136 24.7469 26.6249 24.7499C27.1251 24.7594 27.7368 24.6673 28.46 24.4735C29.1833 24.2797 29.7546 24.0548 30.1741 23.7989C30.6049 23.5495 30.782 23.2819 30.7055 22.9962C30.6289 22.7104 30.3417 22.5673 29.8439 22.5667C29.3527 22.5548 28.7454 22.6457 28.0222 22.8395Z" fill="#FF6F42"/>
<circle cx="20.9997" cy="20.9993" r="15.7" transform="rotate(-15 20.9997 20.9993)" stroke="#FF6F42" stroke-width="0.6"/>
</svg>
