<svg width="50" height="50" viewBox="0 0 50 50" fill="none" xmlns="http://www.w3.org/2000/svg">
<g clip-path="url(#clip0_376_83061)">
<path d="M7.98532 30.082C7.98532 30.082 6.5249 33.8116 3.10416 34.4816C3.10416 34.4816 1.54167 35.9604 7.34148 37.8657C7.34148 37.8657 12.1677 38.8655 14.2824 38.6875L15.9941 34.0105L7.98532 30.082Z" fill="#FED752"/>
<path d="M41.0781 29.8203C41.0781 29.8203 42.5385 33.5499 45.9593 34.2199C45.9593 34.2199 47.5218 35.6986 41.7219 37.604C41.7219 37.604 36.8957 38.6038 34.781 38.4258L33.0693 33.7488L41.0781 29.8203Z" fill="#FED752"/>
<path d="M44.3497 27.9517C44.546 27.9308 44.7423 27.9151 44.9412 27.9046C45.1087 27.8941 45.203 27.8732 45.3678 27.8496C45.483 27.8339 45.784 27.758 45.8913 27.7162C46.4174 27.5068 46.7942 27.2137 47.1711 26.7897C47.1973 26.7609 47.2235 26.7295 47.2496 26.6981C47.3805 26.541 47.5009 26.3631 47.5323 26.1589C47.5637 25.9548 47.4721 25.7218 47.2837 25.6433C47.1214 25.5753 46.9303 25.6328 46.789 25.7375C46.6477 25.8422 46.543 25.9862 46.4252 26.117C46.2341 26.3316 46.0038 26.5149 45.7526 26.6536C45.6165 26.7295 45.4594 26.7923 45.3076 26.774C45.2553 26.7687 45.2187 26.7216 45.2265 26.6693C45.2762 26.3526 45.3626 26.0438 45.4149 25.7297C45.4725 25.3868 45.4882 25.0283 45.3705 24.7011C45.2265 24.3007 44.8889 23.9866 44.5015 23.806C44.1168 23.6254 43.664 23.5652 43.2662 23.7092C42.7427 23.9002 42.3894 24.4158 42.2638 24.9576C42.0911 25.6983 42.3004 26.5201 42.8056 27.088C42.8317 27.1168 42.8186 27.1639 42.7794 27.1718C42.2847 27.2869 41.7691 27.3026 41.2692 27.2189C41.2143 27.3498 41.1358 27.868 41.2404 28.203C41.2509 28.2396 41.2666 28.2789 41.298 28.3024C41.3242 28.3208 41.6985 28.3417 41.7299 28.3417C42.2533 28.3705 42.7715 28.3103 43.274 28.1611C43.6274 28.0564 43.9886 27.9936 44.3523 27.9543L44.3497 27.9517ZM43.2374 25.3711C43.2374 25.3711 43.2374 25.3554 43.2374 25.3476C43.2426 25.1801 43.2819 25.0099 43.3735 24.8686C43.4651 24.7273 43.6143 24.62 43.7818 24.6017C43.9074 24.5886 44.0383 24.6278 44.1404 24.7037C44.2424 24.7796 44.3209 24.8869 44.3654 25.0047C44.4361 25.1879 44.4335 25.3947 44.4073 25.5884C44.368 25.8658 44.2817 26.1327 44.1534 26.3814C44.1273 26.4311 44.0906 26.4992 44.0357 26.5227C43.9807 26.5463 43.8969 26.5018 43.8472 26.4756C43.6483 26.3683 43.4887 26.2008 43.3813 26.0019C43.274 25.803 43.2322 25.5936 43.2348 25.3764L43.2374 25.3711Z" fill="#FFAF22"/>
<path d="M16.816 34.6109C16.3004 35.0899 16.3789 35.9719 16.3449 36.5634C16.2795 37.6941 16.3528 38.8299 16.5648 39.9501C16.5988 40.1255 16.6381 40.3087 16.7794 40.4422C16.9129 40.5678 17.1118 40.6306 17.3055 40.6803C18.9098 41.1043 20.6686 41.1305 22.2913 40.7536C22.574 40.6882 22.8776 40.594 23.0267 40.3846C23.1367 40.2302 23.1367 40.0417 23.1341 39.8611L23.0765 35.0009C23.0765 34.8282 23.066 34.6397 22.9351 34.5036C22.7572 34.3178 22.4274 34.2995 22.1395 34.2969L18.3602 34.255C18.0095 34.2524 17.6535 34.2471 17.3212 34.3388C17.1065 34.3989 16.9417 34.4932 16.8134 34.6136L16.816 34.6109Z" fill="#FFAF22"/>
<path d="M37.6854 34.2906C38.201 34.7696 38.1225 35.6516 38.1565 36.2431C38.2219 37.3737 38.1486 38.5096 37.9366 39.6298C37.9026 39.8052 37.8633 39.9884 37.722 40.1218C37.5885 40.2475 37.3896 40.3103 37.196 40.36C35.5916 40.784 33.8328 40.8102 32.2101 40.4333C31.9274 40.3679 31.6238 40.2736 31.4747 40.0643C31.3647 39.9099 31.3647 39.7214 31.3674 39.5408L31.4249 34.6806C31.4249 34.5079 31.4354 34.3194 31.5663 34.1833C31.7442 33.9975 32.074 33.9792 32.3619 33.9766L36.1412 33.9347C36.4919 33.9321 36.8479 33.9268 37.1802 34.0184C37.3949 34.0786 37.5597 34.1729 37.688 34.2932L37.6854 34.2906Z" fill="#FFAF22"/>
<path d="M14.7086 36.8217C14.1433 37.3294 14.2322 38.2585 14.1956 38.8841C14.1249 40.0775 14.2061 41.2788 14.4364 42.4592C14.473 42.6424 14.5175 42.8387 14.6719 42.98C14.8159 43.1135 15.0357 43.179 15.2477 43.2313C17.0013 43.6789 18.925 43.7076 20.6995 43.3072C21.0083 43.2365 21.3407 43.1397 21.5029 42.9172C21.6233 42.7523 21.6233 42.5534 21.6207 42.365L21.5579 37.23C21.5579 37.0468 21.5474 36.8478 21.4035 36.7039C21.2098 36.5076 20.8486 36.4893 20.5346 36.484L16.4019 36.4396C16.0198 36.4343 15.6299 36.4317 15.2661 36.5285C15.0331 36.5914 14.8499 36.6908 14.7112 36.8191L14.7086 36.8217Z" fill="#FFC931"/>
<path d="M36.4997 36.8217C37.065 37.3294 36.976 38.2585 37.0127 38.8841C37.0833 40.0775 37.0022 41.2788 36.7719 42.4592C36.7352 42.6424 36.6907 42.8387 36.5363 42.98C36.3924 43.1135 36.1725 43.179 35.9605 43.2313C34.207 43.6789 32.2833 43.7076 30.5088 43.3072C30.2 43.2365 29.8676 43.1397 29.7053 42.9172C29.5849 42.7523 29.5849 42.5534 29.5875 42.365L29.6504 37.23C29.6504 37.0468 29.6608 36.8478 29.8048 36.7039C29.9985 36.5076 30.3596 36.4893 30.6737 36.484L34.8063 36.4396C35.1884 36.4343 35.5784 36.4317 35.9422 36.5285C36.1751 36.5914 36.3584 36.6908 36.4971 36.8191L36.4997 36.8217Z" fill="#FFC931"/>
<path d="M20.5429 8.8385C21.8541 8.49826 23.2046 8.30982 24.5682 8.29412C31.5798 8.21037 38.4291 12.712 40.9469 19.1033C42.9334 24.1441 42.1116 30.0879 39.0599 34.5582C35.7124 39.4602 29.7111 39.845 24.1102 39.9078C20.0953 39.9523 15.9522 39.0127 12.7932 36.5917C7.71315 32.6999 6.12449 25.3455 8.38578 19.4357C10.3618 14.264 15.1069 10.2466 20.5429 8.8385Z" fill="#FFF0B0"/>
<path d="M22.2356 26.1031C22.2696 26.2157 21.7959 27.0872 22 27.1867C23.0678 27.7075 24.1016 28.1079 26.2897 27.5478C27.6271 27.205 28.373 26.1476 28.6478 25.263C29.0011 24.1297 28.6347 22.3317 26.8 21.1016C25.2925 22.5175 24.6617 24.8573 23.1542 26.2732C22.8585 26.5507 22.1413 25.7864 22.2329 26.1005L22.2356 26.1031Z" fill="#FFAF22"/>
<path d="M22.3768 20.7988C22.2433 20.8459 22.1151 20.9009 21.9868 20.9637C19.9506 21.9582 19.4403 24.8843 21.042 26.4991C21.9633 27.4257 23.3687 27.7895 24.659 27.5853C26.109 27.355 27.4673 26.384 27.9829 25.0073C28.4985 23.6307 28.0353 21.9007 26.7999 21.105C26.1326 20.6758 25.316 20.5345 24.5229 20.5083C23.798 20.4847 23.0547 20.5528 22.3768 20.7988Z" fill="#FFC931"/>
<path d="M23.7284 23.2202C23.6996 23.0867 23.6604 22.9558 23.6028 22.8276C23.5295 22.6601 23.4248 22.5004 23.2704 22.4062C23.116 22.312 22.9014 22.2936 22.7574 22.4036C22.6213 22.5056 22.5742 22.6889 22.5428 22.859C22.4565 23.3589 22.4748 23.8404 22.5088 24.3429C22.535 24.7565 22.5193 25.1726 22.7313 25.5469C22.781 25.6359 22.849 25.7249 22.9433 25.7641C23.0558 25.8112 23.1893 25.7824 23.2914 25.7144C23.3934 25.6463 23.4641 25.5416 23.5191 25.4317C23.6813 25.1177 23.7284 24.7591 23.7598 24.4084C23.7965 24.0132 23.8122 23.6049 23.7311 23.2202H23.7284Z" fill="#FFF0B0"/>
<path d="M25.9184 23.2202C25.8896 23.0867 25.8503 22.9558 25.7927 22.8276C25.7195 22.6601 25.6148 22.5004 25.4604 22.4062C25.3059 22.312 25.0913 22.2936 24.9474 22.4036C24.8113 22.5056 24.7642 22.6889 24.7328 22.859C24.6464 23.3589 24.6647 23.8404 24.6987 24.3429C24.7249 24.7565 24.7092 25.1726 24.9212 25.5469C24.9709 25.6359 25.039 25.7249 25.1332 25.7641C25.2457 25.8112 25.3792 25.7824 25.4813 25.7144C25.5834 25.6463 25.654 25.5416 25.709 25.4317C25.8713 25.1177 25.9184 24.7591 25.9498 24.4084C25.9864 24.0132 26.0021 23.6049 25.921 23.2202H25.9184Z" fill="#FFF0B0"/>
<path d="M11.6865 14.8175C11.6865 14.8175 9.99576 9.21656 11.6865 7.42898C13.3772 5.63879 18.4468 10.0305 18.4468 10.0305C18.4468 10.0305 14.0734 12.0353 11.6865 14.8201V14.8175Z" fill="#FFF0B0"/>
<path d="M31.2373 10.1297C31.2373 10.1297 33.8938 7.52551 35.8018 7.29519C36.2153 7.24547 36.6367 7.38156 36.9298 7.67993C37.5684 8.329 38.4818 10.0616 37.7987 14.5031C37.7987 14.5031 35.5113 11.6215 31.2373 10.1297Z" fill="#FFF0B0"/>
<path d="M35.898 8.38723C35.6808 8.37938 35.4505 8.46313 35.249 8.55735C34.7072 8.81384 34.2178 9.1567 33.7336 9.49956C33.2886 9.81363 32.8411 10.1277 32.4616 10.5072C32.1946 10.7742 31.9486 11.138 32.0638 11.486C32.1632 11.7818 32.4851 11.9545 32.7809 12.0985L35.8117 13.572C36.1859 13.7526 36.6649 13.9907 36.7957 13.4621C37.047 12.4335 37.0784 11.363 36.9397 10.3161C36.8769 9.83718 36.7774 9.35561 36.5654 8.9133C36.4764 8.72747 36.356 8.53903 36.1624 8.44743C36.0786 8.40817 35.9896 8.38985 35.898 8.38723Z" fill="#FFC931"/>
<path d="M12.8744 8.30872C13.0157 8.25637 13.178 8.22497 13.3664 8.21973C13.7407 8.20926 14.115 8.28255 14.4526 8.43173C14.8557 8.6097 15.1959 8.88713 15.5335 9.16194L16.9704 10.3397C17.1196 10.4627 17.2818 10.6093 17.2845 10.8003C17.2845 11.0097 17.0986 11.172 16.9259 11.3055L13.7224 13.7657C13.5601 13.8913 13.3534 14.0248 13.1597 13.9567C13.0053 13.9044 12.9294 13.7447 12.8718 13.5982C12.4556 12.5487 11.236 8.92639 12.877 8.31134L12.8744 8.30872Z" fill="#FFC931"/>
<path d="M26.2513 31.0329C25.508 31.0329 24.94 30.7345 24.9295 30.7293C24.8013 30.6612 24.7542 30.5016 24.8249 30.3733C24.8929 30.2477 25.0526 30.198 25.1782 30.2687C25.2462 30.3053 26.759 31.0878 27.9054 29.6719C27.997 29.5594 28.1618 29.5411 28.2744 29.6327C28.3869 29.7243 28.4052 29.8892 28.3136 30.0017C27.6567 30.8157 26.8872 31.0355 26.2513 31.0355V31.0329Z" fill="#FFAF22"/>
<path d="M18.0988 21.8939C18.8548 21.8939 19.4676 21.281 19.4676 20.5251C19.4676 19.7691 18.8548 19.1562 18.0988 19.1562C17.3428 19.1562 16.73 19.7691 16.73 20.5251C16.73 21.281 17.3428 21.8939 18.0988 21.8939Z" fill="#2B110C"/>
<path d="M17.6644 20.2468C17.7757 20.2468 17.8659 20.1566 17.8659 20.0453C17.8659 19.934 17.7757 19.8438 17.6644 19.8438C17.5531 19.8438 17.4629 19.934 17.4629 20.0453C17.4629 20.1566 17.5531 20.2468 17.6644 20.2468Z" fill="white"/>
<path d="M30.6667 21.8939C31.4226 21.8939 32.0355 21.281 32.0355 20.5251C32.0355 19.7691 31.4226 19.1562 30.6667 19.1562C29.9107 19.1562 29.2979 19.7691 29.2979 20.5251C29.2979 21.281 29.9107 21.8939 30.6667 21.8939Z" fill="#2B110C"/>
<path d="M30.2323 20.2468C30.3436 20.2468 30.4338 20.1566 30.4338 20.0453C30.4338 19.934 30.3436 19.8438 30.2323 19.8438C30.121 19.8438 30.0308 19.934 30.0308 20.0453C30.0308 20.1566 30.121 20.2468 30.2323 20.2468Z" fill="white"/>
<path d="M7.70856 20.4565C7.72688 20.4853 7.74782 20.5115 7.77399 20.5377C8.01216 20.7497 9.22394 20.6083 9.55371 20.6109C10.7419 20.6162 11.9354 20.5272 13.0896 20.2367C14.872 19.7891 16.5784 18.8208 17.6096 17.3027C18.4733 16.0334 18.8947 15.0493 19.0674 13.916C19.1171 13.5836 19.5778 13.5104 19.7243 13.814C20.1117 14.6175 20.7215 15.2534 21.6951 16.1198C23.4696 17.6901 25.7885 18.5616 28.1361 18.8679C30.243 19.1427 32.3839 18.9883 34.4856 18.6532C34.6949 18.6192 34.7421 18.3366 34.5536 18.2397C33.7737 17.8367 33.0801 17.2661 32.5383 16.5725C32.4991 16.5228 32.5514 16.4521 32.6116 16.4757C33.9307 16.9913 35.3179 17.3394 36.7259 17.5043C36.9484 17.5304 37.0766 17.2556 36.9144 17.1012C35.1032 15.4079 33.3183 13.5863 32.5331 11.2543C32.4206 10.9167 32.3237 10.566 32.1117 10.2807C31.9495 10.0635 31.7296 9.89857 31.4993 9.752C30.7508 9.27305 29.9159 8.94066 29.0496 8.75483C26.7097 8.25494 24.2888 8.13455 21.9097 8.39627C20.5959 8.54022 19.036 8.93019 17.9917 9.73892C18.3319 10.1943 18.5754 10.4901 18.3293 11.0057C18.1487 11.3852 17.7666 11.6024 17.4526 11.8824C16.9788 12.3038 16.3952 12.6624 15.9005 13.0576C15.3326 13.5104 14.4637 14.1359 13.6131 14.4604C12.6264 14.8373 12.2259 15.2351 11.5795 14.2641C11.4591 14.0835 9.46996 16.5647 9.3234 16.7688C8.73713 17.5749 8.2608 18.4622 7.91532 19.3992C7.79231 19.7368 7.54105 20.1896 7.70332 20.4618L7.70856 20.4565Z" fill="#FED752"/>
<path d="M34.3757 14.457C34.8651 14.8575 35.399 15.2056 35.9565 15.5039C36.705 15.9044 37.4954 16.2184 38.3015 16.4802C38.7098 16.611 39.1234 16.7288 39.5395 16.8387C39.7436 16.8911 39.9478 16.9434 40.1519 16.9905C40.3561 17.0376 40.5184 16.9748 40.3561 16.7733C39.4191 15.6139 39.249 15.1846 38.1916 14.3864C37.9508 14.6847 37.5399 14.97 37.1709 14.8653C36.6239 14.7109 36.1319 14.4073 35.6293 14.1377C34.5903 13.5803 33.4649 13.1458 32.5776 12.3711C33.0357 13.1772 33.6586 13.8734 34.3783 14.4597L34.3757 14.457Z" fill="#FED752"/>
<path d="M17.1374 19.7155C17.0877 19.7155 17.0406 19.6893 17.0197 19.6422C16.9542 19.5035 16.7187 19.1318 16.436 19.0926C16.3654 19.0821 16.3156 19.0167 16.3261 18.9434C16.3366 18.8701 16.402 18.823 16.4753 18.8335C16.9542 18.9015 17.2474 19.5061 17.2578 19.5323C17.2892 19.5977 17.2605 19.6762 17.195 19.7076C17.1767 19.7155 17.1584 19.7207 17.1401 19.7207L17.1374 19.7155Z" fill="#2B110C"/>
<path d="M17.5846 19.3885C17.5218 19.3885 17.4669 19.344 17.4564 19.2786C17.4302 19.1268 17.3046 18.7054 17.0455 18.5903C16.98 18.5615 16.9486 18.483 16.98 18.4175C17.0088 18.3521 17.0874 18.3207 17.1528 18.3521C17.5951 18.5484 17.7129 19.208 17.7181 19.2367C17.7312 19.3074 17.6815 19.3755 17.6108 19.3885C17.6029 19.3885 17.5951 19.3885 17.5899 19.3885H17.5846Z" fill="#2B110C"/>
<path d="M31.6476 19.7129C31.6293 19.7129 31.6084 19.7076 31.5926 19.6998C31.5272 19.6684 31.4984 19.5898 31.5298 19.5244C31.5429 19.4982 31.8334 18.8963 32.3124 18.8256C32.3831 18.8151 32.4511 18.8649 32.4616 18.9355C32.472 19.0062 32.4223 19.0742 32.3516 19.0847C32.069 19.124 31.8334 19.4956 31.768 19.6343C31.7444 19.6814 31.6973 19.7076 31.6502 19.7076L31.6476 19.7129Z" fill="#2B110C"/>
<path d="M31.2026 19.3913C31.2026 19.3913 31.1869 19.3913 31.1817 19.3913C31.111 19.3782 31.0613 19.3128 31.0744 19.2395C31.0796 19.2107 31.1948 18.5512 31.6397 18.3549C31.7051 18.3261 31.7836 18.3549 31.8124 18.4203C31.8412 18.4858 31.8124 18.5643 31.747 18.5931C31.4853 18.7082 31.3623 19.1296 31.3361 19.2814C31.3256 19.3442 31.2707 19.3913 31.2078 19.3913H31.2026Z" fill="#2B110C"/>
</g>
<defs>
<clipPath id="clip0_376_83061">
<rect width="44.624" height="36.5917" fill="white" transform="translate(3 7)"/>
</clipPath>
</defs>
</svg>
