<svg width="50" height="50" viewBox="0 0 50 50" fill="none" xmlns="http://www.w3.org/2000/svg">
<g clip-path="url(#clip0_376_83062)">
<path d="M42.2848 27.9517C42.4811 27.9308 42.6774 27.9151 42.8763 27.9046C43.0438 27.8941 43.138 27.8732 43.3029 27.8496C43.4181 27.8339 43.719 27.758 43.8263 27.7162C44.3524 27.5068 44.7293 27.2137 45.1062 26.7897C45.1324 26.7609 45.1585 26.7295 45.1847 26.6981C45.3156 26.541 45.4359 26.3631 45.4674 26.1589C45.4988 25.9548 45.4072 25.7218 45.2187 25.6433C45.0564 25.5753 44.8654 25.6328 44.7241 25.7375C44.5827 25.8422 44.478 25.9862 44.3603 26.117C44.1692 26.3316 43.9389 26.5149 43.6876 26.6536C43.5515 26.7295 43.3945 26.7923 43.2427 26.774C43.1904 26.7687 43.1537 26.7216 43.1616 26.6693C43.2113 26.3526 43.2977 26.0438 43.35 25.7297C43.4076 25.3868 43.4233 25.0283 43.3055 24.7011C43.1616 24.3007 42.8239 23.9866 42.4366 23.806C42.0519 23.6254 41.5991 23.5652 41.2012 23.7092C40.6778 23.9002 40.3245 24.4158 40.1988 24.9576C40.0261 25.6983 40.2355 26.5201 40.7406 27.088C40.7668 27.1168 40.7537 27.1639 40.7144 27.1718C40.2198 27.2869 39.7042 27.3026 39.2043 27.2189C39.1493 27.3498 39.0708 27.868 39.1755 28.203C39.186 28.2396 39.2017 28.2789 39.2331 28.3024C39.2593 28.3208 39.6335 28.3417 39.6649 28.3417C40.1884 28.3705 40.7066 28.3103 41.2091 28.1611C41.5624 28.0564 41.9236 27.9936 42.2874 27.9543L42.2848 27.9517ZM41.1725 25.3711C41.1725 25.3711 41.1725 25.3554 41.1725 25.3476C41.1777 25.1801 41.217 25.0099 41.3086 24.8686C41.4002 24.7273 41.5493 24.62 41.7168 24.6017C41.8425 24.5886 41.9733 24.6278 42.0754 24.7037C42.1775 24.7796 42.256 24.8869 42.3005 25.0047C42.3712 25.1879 42.3685 25.3947 42.3424 25.5884C42.3031 25.8658 42.2167 26.1327 42.0885 26.3814C42.0623 26.4311 42.0257 26.4992 41.9707 26.5227C41.9158 26.5463 41.832 26.5018 41.7823 26.4756C41.5834 26.3683 41.4237 26.2008 41.3164 26.0019C41.2091 25.803 41.1672 25.5936 41.1698 25.3764L41.1725 25.3711Z" fill="#FFAF22"/>
<path d="M14.7511 34.6109C14.2355 35.0899 14.314 35.9719 14.28 36.5634C14.2146 37.6941 14.2878 38.8299 14.4998 39.9501C14.5339 40.1255 14.5731 40.3087 14.7144 40.4422C14.8479 40.5678 15.0468 40.6306 15.2405 40.6803C16.8449 41.1043 18.6037 41.1305 20.2264 40.7536C20.509 40.6882 20.8126 40.594 20.9618 40.3846C21.0717 40.2302 21.0717 40.0417 21.0691 39.8611L21.0115 35.0009C21.0115 34.8282 21.0011 34.6397 20.8702 34.5036C20.6922 34.3178 20.3625 34.2995 20.0746 34.2969L16.2953 34.255C15.9446 34.2524 15.5886 34.2471 15.2562 34.3388C15.0416 34.3989 14.8767 34.4932 14.7485 34.6136L14.7511 34.6109Z" fill="#FFAF22"/>
<path d="M35.6209 34.2906C36.1365 34.7696 36.058 35.6516 36.092 36.2431C36.1575 37.3737 36.0842 38.5096 35.8722 39.6298C35.8382 39.8052 35.7989 39.9884 35.6576 40.1218C35.5241 40.2475 35.3252 40.3103 35.1315 40.36C33.5271 40.784 31.7683 40.8102 30.1457 40.4333C29.863 40.3679 29.5594 40.2736 29.4102 40.0643C29.3003 39.9099 29.3003 39.7214 29.3029 39.5408L29.3605 34.6806C29.3605 34.5079 29.3709 34.3194 29.5018 34.1833C29.6798 33.9975 30.0096 33.9792 30.2975 33.9766L34.0767 33.9347C34.4275 33.9321 34.7834 33.9268 35.1158 34.0184C35.3304 34.0786 35.4953 34.1729 35.6235 34.2932L35.6209 34.2906Z" fill="#FFAF22"/>
<path d="M12.6446 36.8217C12.0793 37.3294 12.1683 38.2585 12.1316 38.8841C12.061 40.0775 12.1421 41.2788 12.3724 42.4592C12.4091 42.6424 12.4536 42.8387 12.608 42.98C12.7519 43.1135 12.9718 43.179 13.1838 43.2313C14.9373 43.6789 16.861 43.7076 18.6355 43.3072C18.9443 43.2365 19.2767 43.1397 19.439 42.9172C19.5594 42.7523 19.5594 42.5534 19.5568 42.365L19.4939 37.23C19.4939 37.0468 19.4835 36.8478 19.3395 36.7039C19.1458 36.5076 18.7847 36.4893 18.4706 36.484L14.338 36.4396C13.9559 36.4343 13.5659 36.4317 13.2021 36.5285C12.9692 36.5914 12.7859 36.6908 12.6472 36.8191L12.6446 36.8217Z" fill="#FFC931"/>
<path d="M34.4357 36.8217C35.001 37.3294 34.9121 38.2585 34.9487 38.8841C35.0194 40.0775 34.9382 41.2788 34.7079 42.4592C34.6713 42.6424 34.6268 42.8387 34.4724 42.98C34.3284 43.1135 34.1086 43.179 33.8966 43.2313C32.143 43.6789 30.2193 43.7076 28.4448 43.3072C28.136 43.2365 27.8036 43.1397 27.6414 42.9172C27.521 42.7523 27.521 42.5534 27.5236 42.365L27.5864 37.23C27.5864 37.0468 27.5969 36.8478 27.7408 36.7039C27.9345 36.5076 28.2957 36.4893 28.6097 36.484L32.7424 36.4396C33.1245 36.4343 33.5144 36.4317 33.8782 36.5285C34.1112 36.5914 34.2944 36.6908 34.4331 36.8191L34.4357 36.8217Z" fill="#FFC931"/>
<path d="M18.3368 8.76819C19.6481 8.42795 20.9986 8.23951 22.3621 8.22381C29.3737 8.14005 36.2231 12.6417 38.7408 19.033C40.7273 24.0738 39.9055 30.0176 36.8538 34.4878C33.5064 39.3899 27.505 39.7747 21.9041 39.8375C17.8893 39.882 13.7462 38.9424 10.5872 36.5214C5.5071 32.6296 3.91843 25.2751 6.17973 19.3654C8.15837 14.1964 12.9008 10.1789 18.3368 8.76819Z" fill="#FFF0B0"/>
<path d="M20.1721 26.1031C20.2061 26.2157 19.7324 27.0872 19.9365 27.1867C21.0044 27.7075 22.0382 28.1079 24.2262 27.5478C25.5636 27.205 26.3095 26.1476 26.5843 25.263C26.9376 24.1297 26.5712 22.3317 24.7365 21.1016C23.229 22.5175 22.5983 24.8573 21.0907 26.2732C20.795 26.5507 20.0779 25.7864 20.1695 26.1005L20.1721 26.1031Z" fill="#FFAF22"/>
<path d="M20.3133 20.7988C20.1799 20.8459 20.0516 20.9009 19.9234 20.9637C17.8871 21.9582 17.3768 24.8843 18.9785 26.4991C19.8998 27.4257 21.3053 27.7895 22.5956 27.5853C24.0455 27.355 25.4039 26.384 25.9195 25.0073C26.4351 23.6307 25.9718 21.9007 24.7365 21.105C24.0691 20.6758 23.2525 20.5345 22.4595 20.5083C21.7345 20.4847 20.9912 20.5528 20.3133 20.7988Z" fill="#FFC931"/>
<path d="M21.6635 23.2202C21.6347 23.0867 21.5954 22.9558 21.5379 22.8276C21.4646 22.6601 21.3599 22.5004 21.2055 22.4062C21.0511 22.312 20.8364 22.2936 20.6925 22.4036C20.5564 22.5056 20.5093 22.6889 20.4779 22.859C20.3915 23.3589 20.4098 23.8404 20.4439 24.3429C20.47 24.7565 20.4543 25.1726 20.6663 25.5469C20.7161 25.6359 20.7841 25.7249 20.8783 25.7641C20.9909 25.8112 21.1243 25.7824 21.2264 25.7144C21.3285 25.6463 21.3992 25.5416 21.4541 25.4317C21.6164 25.1177 21.6635 24.7591 21.6949 24.4084C21.7315 24.0132 21.7472 23.6049 21.6661 23.2202H21.6635Z" fill="#FFF0B0"/>
<path d="M23.8515 23.2202C23.8227 23.0867 23.7834 22.9558 23.7259 22.8276C23.6526 22.6601 23.5479 22.5004 23.3935 22.4062C23.239 22.312 23.0244 22.2936 22.8805 22.4036C22.7444 22.5056 22.6973 22.6889 22.6659 22.859C22.5795 23.3589 22.5978 23.8404 22.6318 24.3429C22.658 24.7565 22.6423 25.1726 22.8543 25.5469C22.904 25.6359 22.9721 25.7249 23.0663 25.7641C23.1789 25.8112 23.3123 25.7824 23.4144 25.7144C23.5165 25.6463 23.5871 25.5416 23.6421 25.4317C23.8044 25.1177 23.8515 24.7591 23.8829 24.4084C23.9195 24.0132 23.9352 23.6049 23.8541 23.2202H23.8515Z" fill="#FFF0B0"/>
<path d="M9.62156 14.8175C9.62156 14.8175 7.93082 9.21656 9.62156 7.42898C11.3123 5.63879 16.3819 10.0305 16.3819 10.0305C16.3819 10.0305 12.0085 12.0353 9.62156 14.8201V14.8175Z" fill="#FFF0B0"/>
<path d="M29.1724 10.1297C29.1724 10.1297 31.8289 7.52551 33.7368 7.29519C34.1504 7.24547 34.5717 7.38156 34.8649 7.67993C35.5035 8.329 36.4169 10.0616 35.7338 14.5031C35.7338 14.5031 33.4463 11.6215 29.1724 10.1297Z" fill="#FFF0B0"/>
<path d="M33.8341 8.38723C33.6168 8.37938 33.3865 8.46313 33.185 8.55735C32.6432 8.81384 32.1538 9.1567 31.6696 9.49956C31.2247 9.81363 30.7771 10.1277 30.3976 10.5072C30.1307 10.7742 29.8846 11.138 29.9998 11.486C30.0993 11.7818 30.4212 11.9545 30.7169 12.0985L33.7477 13.572C34.122 13.7526 34.6009 13.9907 34.7318 13.4621C34.983 12.4335 35.0144 11.363 34.8757 10.3161C34.8129 9.83718 34.7135 9.35561 34.5015 8.9133C34.4125 8.72747 34.2921 8.53903 34.0984 8.44743C34.0147 8.40817 33.9257 8.38985 33.8341 8.38723Z" fill="#FFC931"/>
<path d="M10.8095 8.30872C10.9508 8.25637 11.1131 8.22497 11.3015 8.21973C11.6758 8.20926 12.05 8.28255 12.3877 8.43173C12.7907 8.6097 13.131 8.88713 13.4686 9.16194L14.9054 10.3397C15.0546 10.4627 15.2169 10.6093 15.2195 10.8003C15.2195 11.0097 15.0337 11.172 14.861 11.3055L11.6574 13.7657C11.4952 13.8913 11.2884 14.0248 11.0947 13.9567C10.9403 13.9044 10.8644 13.7447 10.8068 13.5982C10.3907 12.5487 9.17107 8.92639 10.8121 8.31134L10.8095 8.30872Z" fill="#FFC931"/>
<path d="M24.1863 31.0329C23.443 31.0329 22.8751 30.7345 22.8646 30.7293C22.7364 30.6612 22.6893 30.5016 22.7599 30.3733C22.828 30.2477 22.9876 30.198 23.1132 30.2687C23.1813 30.3053 24.6941 31.0878 25.8404 29.6719C25.932 29.5594 26.0969 29.5411 26.2094 29.6327C26.322 29.7243 26.3403 29.8892 26.2487 30.0017C25.5892 30.8157 24.8223 31.0355 24.1863 31.0355V31.0329Z" fill="#FFAF22"/>
<path d="M16.0339 21.8939C16.7898 21.8939 17.4027 21.281 17.4027 20.5251C17.4027 19.7691 16.7898 19.1562 16.0339 19.1562C15.2779 19.1562 14.665 19.7691 14.665 20.5251C14.665 21.281 15.2779 21.8939 16.0339 21.8939Z" fill="#2B110C"/>
<path d="M15.5995 20.2468C15.7108 20.2468 15.801 20.1566 15.801 20.0453C15.801 19.934 15.7108 19.8438 15.5995 19.8438C15.4882 19.8438 15.3979 19.934 15.3979 20.0453C15.3979 20.1566 15.4882 20.2468 15.5995 20.2468Z" fill="white"/>
<path d="M28.6017 21.8939C29.3577 21.8939 29.9705 21.281 29.9705 20.5251C29.9705 19.7691 29.3577 19.1562 28.6017 19.1562C27.8458 19.1562 27.2329 19.7691 27.2329 20.5251C27.2329 21.281 27.8458 21.8939 28.6017 21.8939Z" fill="#2B110C"/>
<path d="M28.1673 20.2468C28.2786 20.2468 28.3689 20.1566 28.3689 20.0453C28.3689 19.934 28.2786 19.8438 28.1673 19.8438C28.056 19.8438 27.9658 19.934 27.9658 20.0453C27.9658 20.1566 28.056 20.2468 28.1673 20.2468Z" fill="white"/>
<path d="M6.87879 17.2463C6.87879 17.2463 14.809 17.5839 19.1458 15.0112C23.4826 12.4384 24.5426 8.5911 24.5426 8.5911C24.5426 8.5911 19.7661 6.37691 15.9685 9.59089C15.9685 9.59089 15.7434 11.8941 13.8485 13.0718L10.8544 15.0112L8.4596 16.0555C8.4596 16.0555 4.96558 17.0945 6.87879 17.2463Z" fill="#FED752"/>
<path d="M13.8934 16.2894C13.1501 16.8939 12.3911 17.488 11.5405 17.9225C11.2473 18.0717 10.9463 18.2026 10.6454 18.3334C10.5747 18.3648 10.4962 18.4015 10.4752 18.4747C10.4334 18.6161 10.6192 18.7077 10.7631 18.7312C11.4724 18.8412 12.1974 18.7862 12.9119 18.7077C18.8661 18.0534 24.7497 15.779 29.6413 12.3268C29.9214 12.1306 30.2119 11.9107 30.3349 11.5914C30.5338 11.0706 30.2145 10.4948 29.835 10.0839C28.5499 8.68888 26.5503 8.16281 24.6555 8.15234C24.4068 8.15234 24.153 8.15758 23.92 8.24133C23.674 8.33032 23.4672 8.49782 23.2631 8.66271L14.1027 16.1192C14.0321 16.1768 13.9614 16.2344 13.8934 16.2894Z" fill="#FED752"/>
<path d="M26.4973 11.9081C26.4973 11.9081 28.4629 15.8497 34.1501 16.3836C34.1501 16.3836 35.4588 16.4281 36.4141 16.3836C36.4141 16.3836 38.3665 15.9387 35.0452 13.222C31.724 10.5053 29.0518 9.89544 29.0518 9.89544C29.0518 9.89544 25.788 9.78813 26.4947 11.9055L26.4973 11.9081Z" fill="#FED752"/>
</g>
<defs>
<clipPath id="clip0_376_83062">
<rect width="40.2951" height="36.5917" fill="white" transform="translate(5 7)"/>
</clipPath>
</defs>
</svg>
