<svg width="50" height="50" viewBox="0 0 50 50" fill="none" xmlns="http://www.w3.org/2000/svg">
<g clip-path="url(#clip0_376_83063)">
<path d="M9.43244 29.1641C9.43244 29.1641 3.58552 29.5907 3.19032 34.5189C3.19032 34.5189 3.06992 36.2018 4.04877 37.1283C4.04877 37.1283 4.36284 38.6359 3.18508 39.3242L2.00732 40.0125C2.00732 40.0125 2.47581 40.5883 5.53798 40.5124C8.60016 40.4365 12.5574 38.7536 13.1934 37.1283C13.1934 37.1283 17.1978 31.1191 9.43244 29.1641Z" fill="#FED752"/>
<path d="M40.8235 28.8477C40.8235 28.8477 46.6704 29.2743 47.0656 34.2025C47.0656 34.2025 47.186 35.8854 46.2072 36.8119C46.2072 36.8119 45.8931 38.3195 47.0708 39.0078L48.2486 39.6961C48.2486 39.6961 47.7801 40.2719 44.7179 40.196C41.6558 40.1201 37.6985 38.4372 37.0625 36.8119C37.0625 36.8119 33.0581 30.8027 40.8235 28.8477Z" fill="#FED752"/>
<path d="M43.9645 27.9517C44.1608 27.9308 44.3571 27.9151 44.556 27.9046C44.7235 27.8941 44.8177 27.8732 44.9826 27.8496C45.0977 27.8339 45.3987 27.758 45.506 27.7162C46.0321 27.5068 46.409 27.2137 46.7859 26.7897C46.812 26.7609 46.8382 26.7295 46.8644 26.6981C46.9952 26.541 47.1156 26.3631 47.147 26.1589C47.1785 25.9548 47.0869 25.7218 46.8984 25.6433C46.7361 25.5753 46.5451 25.6328 46.4038 25.7375C46.2624 25.8422 46.1577 25.9862 46.04 26.117C45.8489 26.3316 45.6186 26.5149 45.3673 26.6536C45.2312 26.7295 45.0742 26.7923 44.9224 26.774C44.87 26.7687 44.8334 26.7216 44.8413 26.6693C44.891 26.3526 44.9774 26.0438 45.0297 25.7297C45.0873 25.3868 45.103 25.0283 44.9852 24.7011C44.8413 24.3007 44.5036 23.9866 44.1163 23.806C43.7315 23.6254 43.2788 23.5652 42.8809 23.7092C42.3575 23.9002 42.0042 24.4158 41.8785 24.9576C41.7058 25.6983 41.9152 26.5201 42.4203 27.088C42.4465 27.1168 42.4334 27.1639 42.3941 27.1718C41.8995 27.2869 41.3839 27.3026 40.884 27.2189C40.829 27.3498 40.7505 27.868 40.8552 28.203C40.8657 28.2396 40.8814 28.2789 40.9128 28.3024C40.9389 28.3208 41.3132 28.3417 41.3446 28.3417C41.8681 28.3705 42.3863 28.3103 42.8888 28.1611C43.2421 28.0564 43.6033 27.9936 43.9671 27.9543L43.9645 27.9517ZM42.8522 25.3711C42.8522 25.3711 42.8522 25.3554 42.8522 25.3476C42.8574 25.1801 42.8966 25.0099 42.9882 24.8686C43.0799 24.7273 43.229 24.62 43.3965 24.6017C43.5222 24.5886 43.653 24.6278 43.7551 24.7037C43.8572 24.7796 43.9357 24.8869 43.9802 25.0047C44.0508 25.1879 44.0482 25.3947 44.0221 25.5884C43.9828 25.8658 43.8964 26.1327 43.7682 26.3814C43.742 26.4311 43.7054 26.4992 43.6504 26.5227C43.5954 26.5463 43.5117 26.5018 43.462 26.4756C43.2631 26.3683 43.1034 26.2008 42.9961 26.0019C42.8888 25.803 42.8469 25.5936 42.8495 25.3764L42.8522 25.3711Z" fill="#FFAF22"/>
<path d="M16.4313 34.6109C15.9157 35.0899 15.9942 35.9719 15.9602 36.5634C15.8947 37.6941 15.968 38.8299 16.18 39.9501C16.214 40.1255 16.2533 40.3087 16.3946 40.4422C16.5281 40.5678 16.727 40.6306 16.9207 40.6803C18.5251 41.1043 20.2838 41.1305 21.9065 40.7536C22.1892 40.6882 22.4928 40.594 22.642 40.3846C22.7519 40.2302 22.7519 40.0417 22.7493 39.8611L22.6917 35.0009C22.6917 34.8282 22.6812 34.6397 22.5504 34.5036C22.3724 34.3178 22.0426 34.2995 21.7547 34.2969L17.9754 34.255C17.6247 34.2524 17.2688 34.2471 16.9364 34.3388C16.7218 34.3989 16.5569 34.4932 16.4286 34.6136L16.4313 34.6109Z" fill="#FFAF22"/>
<path d="M37.3006 34.2906C37.8162 34.7696 37.7377 35.6516 37.7717 36.2431C37.8371 37.3737 37.7639 38.5096 37.5519 39.6298C37.5178 39.8052 37.4786 39.9884 37.3373 40.1218C37.2038 40.2475 37.0049 40.3103 36.8112 40.36C35.2068 40.784 33.448 40.8102 31.8253 40.4333C31.5427 40.3679 31.2391 40.2736 31.0899 40.0643C30.98 39.9099 30.98 39.7214 30.9826 39.5408L31.0402 34.6806C31.0402 34.5079 31.0506 34.3194 31.1815 34.1833C31.3595 33.9975 31.6892 33.9792 31.9771 33.9766L35.7564 33.9347C36.1071 33.9321 36.4631 33.9268 36.7955 34.0184C37.0101 34.0786 37.175 34.1729 37.3032 34.2932L37.3006 34.2906Z" fill="#FFAF22"/>
<path d="M14.3238 36.8217C13.7585 37.3294 13.8475 38.2585 13.8108 38.8841C13.7402 40.0775 13.8213 41.2788 14.0516 42.4592C14.0883 42.6424 14.1328 42.8387 14.2872 42.98C14.4311 43.1135 14.651 43.179 14.863 43.2313C16.6165 43.6789 18.5402 43.7076 20.3147 43.3072C20.6235 43.2365 20.9559 43.1397 21.1182 42.9172C21.2386 42.7523 21.2386 42.5534 21.236 42.365L21.1731 37.23C21.1731 37.0468 21.1627 36.8478 21.0187 36.7039C20.825 36.5076 20.4639 36.4893 20.1498 36.484L16.0172 36.4396C15.6351 36.4343 15.2451 36.4317 14.8813 36.5285C14.6484 36.5914 14.4651 36.6908 14.3264 36.8191L14.3238 36.8217Z" fill="#FFC931"/>
<path d="M36.113 36.8217C36.6783 37.3294 36.5893 38.2585 36.6259 38.8841C36.6966 40.0775 36.6155 41.2788 36.3852 42.4592C36.3485 42.6424 36.304 42.8387 36.1496 42.98C36.0057 43.1135 35.7858 43.179 35.5738 43.2313C33.8203 43.6789 31.8966 43.7076 30.1221 43.3072C29.8133 43.2365 29.4809 43.1397 29.3186 42.9172C29.1982 42.7523 29.1982 42.5534 29.2008 42.365L29.2636 37.23C29.2636 37.0468 29.2741 36.8478 29.4181 36.7039C29.6117 36.5076 29.9729 36.4893 30.287 36.484L34.4196 36.4396C34.8017 36.4343 35.1917 36.4317 35.5555 36.5285C35.7884 36.5914 35.9716 36.6908 36.1103 36.8191L36.113 36.8217Z" fill="#FFC931"/>
<path d="M20.017 8.76819C21.3282 8.42795 22.6787 8.23951 24.0423 8.22381C31.0539 8.14005 37.9032 12.6417 40.421 19.033C42.4075 24.0738 41.5857 30.0176 38.534 34.4878C35.1865 39.3899 29.1852 39.7747 23.5843 39.8375C19.5695 39.882 15.4264 38.9424 12.2673 36.5214C7.18727 32.6296 5.59861 25.2751 7.85991 19.3654C9.83592 14.1964 14.581 10.1789 20.017 8.76819Z" fill="#FFF0B0"/>
<path d="M21.8488 26.1031C21.8829 26.2157 21.4091 27.0872 21.6133 27.1867C22.6811 27.7075 23.7149 28.1079 25.9029 27.5478C27.2404 27.205 27.9863 26.1476 28.2611 25.263C28.6144 24.1297 28.248 22.3317 26.4133 21.1016C24.9058 22.5175 24.275 24.8573 22.7675 26.2732C22.4717 26.5507 21.7546 25.7864 21.8462 26.1005L21.8488 26.1031Z" fill="#FFAF22"/>
<path d="M21.992 20.7988C21.8586 20.8459 21.7303 20.9009 21.6021 20.9637C19.5659 21.9582 19.0555 24.8843 20.6572 26.4991C21.5785 27.4257 22.984 27.7895 24.2743 27.5853C25.7242 27.355 27.0826 26.384 27.5982 25.0073C28.1138 23.6307 27.6505 21.9007 26.4152 21.105C25.7478 20.6758 24.9312 20.5345 24.1382 20.5083C23.4132 20.4847 22.6699 20.5528 21.992 20.7988Z" fill="#FFC931"/>
<path d="M23.3407 23.2202C23.3119 23.0867 23.2727 22.9558 23.2151 22.8276C23.1418 22.6601 23.0371 22.5004 22.8827 22.4062C22.7283 22.312 22.5137 22.2936 22.3697 22.4036C22.2336 22.5056 22.1865 22.6889 22.1551 22.859C22.0688 23.3589 22.0871 23.8404 22.1211 24.3429C22.1473 24.7565 22.1316 25.1726 22.3436 25.5469C22.3933 25.6359 22.4613 25.7249 22.5556 25.7641C22.6681 25.8112 22.8016 25.7824 22.9037 25.7144C23.0057 25.6463 23.0764 25.5416 23.1314 25.4317C23.2936 25.1177 23.3407 24.7591 23.3721 24.4084C23.4088 24.0132 23.4245 23.6049 23.3434 23.2202H23.3407Z" fill="#FFF0B0"/>
<path d="M25.5317 23.2202C25.5029 23.0867 25.4636 22.9558 25.406 22.8276C25.3327 22.6601 25.2281 22.5004 25.0736 22.4062C24.9192 22.312 24.7046 22.2936 24.5607 22.4036C24.4246 22.5056 24.3775 22.6889 24.346 22.859C24.2597 23.3589 24.278 23.8404 24.312 24.3429C24.3382 24.7565 24.3225 25.1726 24.5345 25.5469C24.5842 25.6359 24.6523 25.7249 24.7465 25.7641C24.859 25.8112 24.9925 25.7824 25.0946 25.7144C25.1966 25.6463 25.2673 25.5416 25.3223 25.4317C25.4845 25.1177 25.5317 24.7591 25.5631 24.4084C25.5997 24.0132 25.6154 23.6049 25.5343 23.2202H25.5317Z" fill="#FFF0B0"/>
<path d="M11.3017 14.8175C11.3017 14.8175 9.61099 9.21656 11.3017 7.42898C12.9925 5.63879 18.0621 10.0305 18.0621 10.0305C18.0621 10.0305 13.6887 12.0353 11.3017 14.8201V14.8175Z" fill="#FFF0B0"/>
<path d="M30.8517 10.1297C30.8517 10.1297 33.5056 7.52551 35.4136 7.29519C35.8271 7.24547 36.2485 7.38156 36.5416 7.67993C37.1802 8.329 38.0937 10.0616 37.4106 14.5031C37.4106 14.5031 35.1231 11.6215 30.8491 10.1297H30.8517Z" fill="#FFF0B0"/>
<path d="M35.5108 8.38723C35.2936 8.37938 35.0633 8.46313 34.8617 8.55735C34.32 8.81384 33.8306 9.1567 33.3464 9.49956C32.9014 9.81363 32.4539 10.1277 32.0744 10.5072C31.8074 10.7742 31.5614 11.138 31.6766 11.486C31.776 11.7818 32.0979 11.9545 32.3937 12.0985L35.4245 13.572C35.7987 13.7526 36.2777 13.9907 36.4085 13.4621C36.6598 12.4335 36.6912 11.363 36.5525 10.3161C36.4897 9.83718 36.3902 9.35561 36.1782 8.9133C36.0892 8.72747 35.9688 8.53903 35.7752 8.44743C35.6914 8.40817 35.6024 8.38985 35.5108 8.38723Z" fill="#FFC931"/>
<path d="M12.4896 8.30872C12.631 8.25637 12.7932 8.22497 12.9817 8.21973C13.3559 8.20926 13.7302 8.28255 14.0678 8.43173C14.4709 8.6097 14.8111 8.88713 15.1488 9.16194L16.5856 10.3397C16.7348 10.4627 16.8971 10.6093 16.8997 10.8003C16.8997 11.0097 16.7139 11.172 16.5411 11.3055L13.3376 13.7657C13.1754 13.8913 12.9686 14.0248 12.7749 13.9567C12.6205 13.9044 12.5446 13.7447 12.487 13.5982C12.0709 12.5487 10.8512 8.92639 12.4923 8.31134L12.4896 8.30872Z" fill="#FFC931"/>
<path d="M25.8665 31.0329C25.1232 31.0329 24.5553 30.7345 24.5448 30.7293C24.4165 30.6612 24.3694 30.5016 24.4401 30.3733C24.5081 30.2477 24.6678 30.198 24.7934 30.2687C24.8615 30.3053 26.3742 31.0878 27.5206 29.6719C27.6122 29.5594 27.7771 29.5411 27.8896 29.6327C28.0022 29.7243 28.0205 29.8892 27.9289 30.0017C27.2719 30.8157 26.5025 31.0355 25.8665 31.0355V31.0329Z" fill="#FFAF22"/>
<path d="M17.7135 21.8939C18.4695 21.8939 19.0824 21.281 19.0824 20.5251C19.0824 19.7691 18.4695 19.1562 17.7135 19.1562C16.9576 19.1562 16.3447 19.7691 16.3447 20.5251C16.3447 21.281 16.9576 21.8939 17.7135 21.8939Z" fill="#2B110C"/>
<path d="M17.2787 20.2468C17.39 20.2468 17.4802 20.1566 17.4802 20.0453C17.4802 19.934 17.39 19.8438 17.2787 19.8438C17.1674 19.8438 17.0771 19.934 17.0771 20.0453C17.0771 20.1566 17.1674 20.2468 17.2787 20.2468Z" fill="white"/>
<path d="M30.2814 21.8939C31.0374 21.8939 31.6502 21.281 31.6502 20.5251C31.6502 19.7691 31.0374 19.1562 30.2814 19.1562C29.5254 19.1562 28.9126 19.7691 28.9126 20.5251C28.9126 21.281 29.5254 21.8939 30.2814 21.8939Z" fill="#2B110C"/>
<path d="M29.8475 20.2468C29.9588 20.2468 30.0491 20.1566 30.0491 20.0453C30.0491 19.934 29.9588 19.8438 29.8475 19.8438C29.7362 19.8438 29.646 19.934 29.646 20.0453C29.646 20.1566 29.7362 20.2468 29.8475 20.2468Z" fill="white"/>
<path d="M8.67352 17.2643C8.67352 17.2643 13.785 18.3897 16.4912 14.0294C16.4912 14.0294 18.0485 17.8924 25.1019 17.9552C25.1019 17.9552 37.738 18.0416 39.311 16.9398C39.311 16.9398 37.9631 14.5842 37.3166 14.176C37.3166 14.176 36.5812 14.6811 35.1051 13.7755C33.6289 12.8699 32.794 12.5114 32.794 12.5114C32.794 12.5114 30.7002 11.4802 30.8468 10.818C30.9934 10.1585 31.1295 9.67429 31.1295 9.67429C31.1295 9.67429 24.1336 6.15672 17.5774 9.66906C17.5774 9.66906 18.1715 10.5563 16.7215 11.687L13.4421 14.066C13.4421 14.066 11.8273 14.9978 11.0238 14.2283C11.0238 14.2283 9.09489 15.7018 8.6709 17.2643H8.67352Z" fill="#FED752"/>
</g>
<defs>
<clipPath id="clip0_376_83063">
<rect width="46.2414" height="36.5917" fill="white" transform="translate(2 7)"/>
</clipPath>
</defs>
</svg>
