<svg width="50" height="50" viewBox="0 0 50 50" fill="none" xmlns="http://www.w3.org/2000/svg">
<g clip-path="url(#clip0_376_83060)">
<path d="M42.1105 28.3619C42.3068 28.3409 42.5031 28.3252 42.702 28.3148C42.8695 28.3043 42.9637 28.2834 43.1286 28.2598C43.2437 28.2441 43.5447 28.1682 43.652 28.1263C44.1781 27.9169 44.555 27.6238 44.9319 27.1998C44.958 27.171 44.9842 27.1396 45.0104 27.1082C45.1412 26.9512 45.2616 26.7732 45.293 26.5691C45.3244 26.3649 45.2328 26.132 45.0444 26.0535C44.8821 25.9854 44.6911 26.043 44.5497 26.1477C44.4084 26.2524 44.3037 26.3963 44.1859 26.5272C43.9949 26.7418 43.7646 26.925 43.5133 27.0637C43.3772 27.1396 43.2202 27.2024 43.0684 27.1841C43.016 27.1789 42.9794 27.1318 42.9872 27.0794C43.037 26.7627 43.1233 26.4539 43.1757 26.1398C43.2333 25.797 43.249 25.4384 43.1312 25.1113C42.9872 24.7108 42.6496 24.3968 42.2623 24.2162C41.8775 24.0356 41.4248 23.9754 41.0269 24.1193C40.5035 24.3104 40.1502 24.826 40.0245 25.3678C39.8518 26.1084 40.0612 26.9302 40.5663 27.4982C40.5925 27.527 40.5794 27.5741 40.5401 27.5819C40.0455 27.6971 39.5299 27.7128 39.03 27.6291C38.975 27.7599 38.8965 28.2781 39.0012 28.6131C39.0117 28.6498 39.0274 28.689 39.0588 28.7126C39.0849 28.7309 39.4592 28.7518 39.4906 28.7518C40.0141 28.7806 40.5323 28.7204 41.0348 28.5713C41.3881 28.4666 41.7493 28.4038 42.1131 28.3645L42.1105 28.3619ZM40.9981 25.7813C40.9981 25.7813 40.9981 25.7656 40.9981 25.7577C41.0034 25.5902 41.0426 25.4201 41.1342 25.2788C41.2258 25.1374 41.375 25.0301 41.5425 25.0118C41.6682 24.9987 41.799 25.038 41.9011 25.1139C42.0032 25.1898 42.0817 25.2971 42.1262 25.4149C42.1968 25.5981 42.1942 25.8048 42.1681 25.9985C42.1288 26.2759 42.0424 26.5429 41.9142 26.7915C41.888 26.8413 41.8514 26.9093 41.7964 26.9329C41.7414 26.9564 41.6577 26.9119 41.608 26.8858C41.4091 26.7784 41.2494 26.6109 41.1421 26.412C41.0348 26.2131 40.9929 26.0037 40.9955 25.7865L40.9981 25.7813Z" fill="#FFAF22"/>
<path d="M14.5768 35.0172C14.0612 35.4962 14.1397 36.3782 14.1057 36.9697C14.0402 38.1003 14.1135 39.2362 14.3255 40.3564C14.3595 40.5317 14.3988 40.7149 14.5401 40.8484C14.6736 40.974 14.8725 41.0369 15.0662 41.0866C16.6706 41.5106 18.4294 41.5367 20.052 41.1599C20.3347 41.0944 20.6383 41.0002 20.7875 40.7908C20.8974 40.6364 20.8974 40.448 20.8948 40.2674L20.8372 35.4072C20.8372 35.2344 20.8267 35.046 20.6959 34.9099C20.5179 34.7241 20.1881 34.7057 19.9002 34.7031L16.1209 34.6612C15.7702 34.6586 15.4143 34.6534 15.0819 34.745C14.8673 34.8052 14.7024 34.8994 14.5742 35.0198L14.5768 35.0172Z" fill="#FFAF22"/>
<path d="M35.4466 34.7008C35.9622 35.1797 35.8837 36.0618 35.9177 36.6533C35.9831 37.7839 35.9099 38.9198 35.6979 40.04C35.6638 40.2153 35.6246 40.3985 35.4832 40.532C35.3498 40.6576 35.1509 40.7204 34.9572 40.7702C33.3528 41.1942 31.594 41.2203 29.9713 40.8435C29.6887 40.778 29.3851 40.6838 29.2359 40.4744C29.126 40.32 29.126 40.1316 29.1286 39.951L29.1862 35.0908C29.1862 34.918 29.1966 34.7296 29.3275 34.5935C29.5055 34.4077 29.8352 34.3893 30.1231 34.3867L33.9024 34.3448C34.2531 34.3422 34.6091 34.337 34.9415 34.4286C35.1561 34.4888 35.321 34.583 35.4492 34.7034L35.4466 34.7008Z" fill="#FFAF22"/>
<path d="M12.4703 37.2318C11.905 37.7396 11.994 38.6687 11.9573 39.2942C11.8867 40.4877 11.9678 41.689 12.1981 42.8694C12.2348 43.0526 12.2792 43.2489 12.4337 43.3902C12.5776 43.5237 12.7975 43.5891 13.0095 43.6415C14.763 44.089 16.6867 44.1178 18.4612 43.7174C18.77 43.6467 19.1024 43.5499 19.2647 43.3274C19.3851 43.1625 19.3851 42.9636 19.3824 42.7751L19.3196 37.6401C19.3196 37.4569 19.3092 37.258 19.1652 37.1141C18.9715 36.9178 18.6104 36.8994 18.2963 36.8942L14.1637 36.8497C13.7815 36.8445 13.3916 36.8419 13.0278 36.9387C12.7948 37.0015 12.6116 37.101 12.4729 37.2292L12.4703 37.2318Z" fill="#FFC931"/>
<path d="M34.2614 37.2318C34.8267 37.7396 34.7377 38.6687 34.7744 39.2942C34.845 40.4877 34.7639 41.689 34.5336 42.8694C34.497 43.0526 34.4525 43.2489 34.298 43.3902C34.1541 43.5237 33.9342 43.5891 33.7222 43.6415C31.9687 44.089 30.045 44.1178 28.2705 43.7174C27.9617 43.6467 27.6293 43.5499 27.467 43.3274C27.3466 43.1625 27.3466 42.9636 27.3493 42.7751L27.4121 37.6401C27.4121 37.4569 27.4225 37.258 27.5665 37.1141C27.7602 36.9178 28.1213 36.8994 28.4354 36.8942L32.568 36.8497C32.9502 36.8445 33.3401 36.8419 33.7039 36.9387C33.9369 37.0015 34.1201 37.101 34.2588 37.2292L34.2614 37.2318Z" fill="#FFC931"/>
<path d="M18.1625 9.17444C19.4737 8.8342 20.8242 8.64576 22.1878 8.63006C29.1994 8.5463 36.0487 13.048 38.5665 19.4393C40.553 24.4801 39.7312 30.4238 36.6795 34.8941C33.332 39.7962 27.3307 40.1809 21.7298 40.2437C17.715 40.2882 13.5719 39.3486 10.4128 36.9277C5.33278 33.0332 3.74411 25.6788 6.00541 19.7717C7.98405 14.6 12.7265 10.5851 18.1625 9.17444Z" fill="#FFF0B0"/>
<path d="M19.9978 26.5133C20.0318 26.6258 19.5581 27.4974 19.7622 27.5968C20.83 28.1176 21.8639 28.5181 24.0519 27.958C25.3893 27.6151 26.1352 26.5578 26.41 25.6731C26.7633 24.5399 26.3969 22.7418 24.5622 21.5117C23.0547 22.9276 22.4239 25.2675 20.9164 26.6834C20.6207 26.9608 19.9035 26.1966 19.9951 26.5107L19.9978 26.5133Z" fill="#FFAF22"/>
<path d="M20.139 21.205C20.0055 21.2522 19.8773 21.3071 19.749 21.3699C17.7128 22.3645 17.2025 25.2906 18.8042 26.9054C19.7255 27.8319 21.1309 28.1957 22.4212 27.9916C23.8712 27.7612 25.2296 26.7902 25.7451 25.4136C26.2607 24.0369 25.7975 22.3069 24.5622 21.5113C23.8948 21.082 23.0782 20.9407 22.2852 20.9145C21.5602 20.891 20.8169 20.959 20.139 21.205Z" fill="#FFC931"/>
<path d="M21.4892 23.6303C21.4604 23.4968 21.4211 23.366 21.3635 23.2377C21.2903 23.0702 21.1856 22.9106 21.0312 22.8163C20.8767 22.7221 20.6621 22.7038 20.5182 22.8137C20.3821 22.9158 20.335 23.099 20.3036 23.2691C20.2172 23.769 20.2355 24.2506 20.2695 24.7531C20.2957 25.1666 20.28 25.5828 20.492 25.957C20.5417 26.046 20.6098 26.135 20.704 26.1743C20.8165 26.2214 20.95 26.1926 21.0521 26.1245C21.1542 26.0565 21.2248 25.9518 21.2798 25.8419C21.4421 25.5278 21.4892 25.1692 21.5206 24.8185C21.5572 24.4233 21.5729 24.015 21.4918 23.6303H21.4892Z" fill="#FFF0B0"/>
<path d="M23.6772 23.6303C23.6484 23.4968 23.6091 23.366 23.5515 23.2377C23.4783 23.0702 23.3736 22.9106 23.2191 22.8163C23.0647 22.7221 22.8501 22.7038 22.7062 22.8137C22.5701 22.9158 22.523 23.099 22.4916 23.2691C22.4052 23.769 22.4235 24.2506 22.4575 24.7531C22.4837 25.1666 22.468 25.5828 22.68 25.957C22.7297 26.046 22.7978 26.135 22.892 26.1743C23.0045 26.2214 23.138 26.1926 23.2401 26.1245C23.3422 26.0565 23.4128 25.9518 23.4678 25.8419C23.6301 25.5278 23.6772 25.1692 23.7086 24.8185C23.7452 24.4233 23.7609 24.015 23.6798 23.6303H23.6772Z" fill="#FFF0B0"/>
<path d="M9.44724 15.2276C9.44724 15.2276 7.7565 9.62671 9.44724 7.83914C11.138 6.04894 16.2076 10.4407 16.2076 10.4407C16.2076 10.4407 11.8342 12.4455 9.44724 15.2302V15.2276Z" fill="#FFF0B0"/>
<path d="M28.998 10.5398C28.998 10.5398 31.6545 7.93567 33.5625 7.70535C33.976 7.65562 34.3974 7.79172 34.6906 8.09008C35.3292 8.73916 36.2426 10.4718 35.5595 14.9132C35.5595 14.9132 33.272 12.0317 28.998 10.5398Z" fill="#FFF0B0"/>
<path d="M33.6597 8.79348C33.4425 8.78563 33.2122 8.86938 33.0107 8.9636C32.4689 9.22009 31.9795 9.56295 31.4953 9.90581C31.0504 10.2199 30.6028 10.5339 30.2233 10.9134C29.9564 11.1804 29.7103 11.5442 29.8255 11.8923C29.9249 12.188 30.2469 12.3608 30.5426 12.5047L33.5734 13.9782C33.9476 14.1588 34.4266 14.397 34.5575 13.8683C34.8087 12.8397 34.8401 11.7693 34.7014 10.7224C34.6386 10.2434 34.5391 9.76186 34.3271 9.31955C34.2382 9.13372 34.1178 8.94528 33.9241 8.85368C33.8403 8.81442 33.7514 8.7961 33.6597 8.79348Z" fill="#FFC931"/>
<path d="M10.6351 8.71888C10.7765 8.66653 10.9387 8.63512 11.1272 8.62989C11.5015 8.61942 11.8757 8.6927 12.2133 8.84189C12.6164 9.01986 12.9566 9.29729 13.2943 9.5721L14.7311 10.7499C14.8803 10.8729 15.0426 11.0194 15.0452 11.2105C15.0452 11.4199 14.8594 11.5821 14.6866 11.7156L11.4831 14.1758C11.3209 14.3015 11.1141 14.4349 10.9204 14.3669C10.766 14.3145 10.6901 14.1549 10.6325 14.0083C10.2164 12.9588 8.99675 9.33655 10.6378 8.72149L10.6351 8.71888Z" fill="#FFC931"/>
<path d="M15.8595 22.304C16.6155 22.304 17.2284 21.6912 17.2284 20.9352C17.2284 20.1792 16.6155 19.5664 15.8595 19.5664C15.1036 19.5664 14.4907 20.1792 14.4907 20.9352C14.4907 21.6912 15.1036 22.304 15.8595 22.304Z" fill="#2B110C"/>
<path d="M15.4252 20.6531C15.5365 20.6531 15.6267 20.5628 15.6267 20.4515C15.6267 20.3402 15.5365 20.25 15.4252 20.25C15.3139 20.25 15.2236 20.3402 15.2236 20.4515C15.2236 20.5628 15.3139 20.6531 15.4252 20.6531Z" fill="white"/>
<path d="M28.4274 22.304C29.1834 22.304 29.7962 21.6912 29.7962 20.9352C29.7962 20.1792 29.1834 19.5664 28.4274 19.5664C27.6714 19.5664 27.0586 20.1792 27.0586 20.9352C27.0586 21.6912 27.6714 22.304 28.4274 22.304Z" fill="#2B110C"/>
<path d="M27.993 20.6531C28.1043 20.6531 28.1946 20.5628 28.1946 20.4515C28.1946 20.3402 28.1043 20.25 27.993 20.25C27.8817 20.25 27.7915 20.3402 27.7915 20.4515C27.7915 20.5628 27.8817 20.6531 27.993 20.6531Z" fill="white"/>
<path d="M28.9433 13.8629C28.5559 14.0801 28.1084 14.2058 27.6844 14.3157C25.4571 14.8889 23.2141 15.4516 20.9319 15.5851C19.7751 15.6531 18.5895 15.606 17.5033 15.1532C16.3674 14.6795 15.4121 13.787 14.5589 12.8265C13.7633 11.9288 13.0357 10.9578 12.3866 9.92657C11.2664 8.14161 13.1351 8.93725 14.2187 8.8692C15.3702 8.79592 16.4014 8.10497 17.4824 7.65742C20.7827 6.28599 24.5463 7.21249 27.6687 9.03409C28.3727 9.445 29.0741 9.92134 29.5348 10.6411C29.9928 11.3634 30.1498 12.3868 29.718 13.1301C29.5269 13.4572 29.2547 13.6902 28.9433 13.8629Z" fill="#FED752"/>
<path d="M22.0545 28.3677C22.0545 28.3677 19.0813 27.2449 16.574 29.2C16.574 29.2 14.6686 29.9512 13.4673 29.2C13.4673 29.2 14.5691 30.9562 16.2756 31.4561C17.9794 31.9586 21.62 32.0921 22.0571 28.3651L22.0545 28.3677Z" fill="#5B4428"/>
<path d="M22.0544 28.3677C22.0544 28.3677 25.0276 27.2449 27.5349 29.2C27.5349 29.2 29.4402 29.9512 30.6415 29.2C30.6415 29.2 29.5397 30.9562 27.8332 31.4561C26.1294 31.9586 22.4888 32.0921 22.0518 28.3651L22.0544 28.3677Z" fill="#5B4428"/>
</g>
<defs>
<clipPath id="clip0_376_83060">
<rect width="40.2951" height="37" fill="white" transform="translate(5 7)"/>
</clipPath>
</defs>
</svg>
