<svg width="48" height="48" viewBox="0 0 48 48" fill="none" xmlns="http://www.w3.org/2000/svg">
<circle cx="24" cy="24" r="23" fill="#FAFAFC" stroke="#AAAECD" stroke-width="2"/>
<g clip-path="url(#clip0_152_44630)">
<path d="M20.8262 13.3194C21.8051 13.0654 22.8133 12.9247 23.8312 12.913C29.0656 12.8504 34.1788 16.2111 36.0584 20.9824C37.5414 24.7455 36.9279 29.1827 34.6497 32.5199C32.1507 36.1794 27.6705 36.4666 23.4893 36.5135C20.4921 36.5467 17.3992 35.8453 15.0409 34.038C11.2484 31.1326 10.0624 25.6423 11.7506 21.2305C13.2277 17.3717 16.7681 14.3725 20.8262 13.3194Z" fill="#E8EDED"/>
<path d="M22.1961 26.2612C22.2215 26.3452 21.8678 26.9958 22.0202 27.07C22.8174 27.4589 23.5891 27.7578 25.2226 27.3397C26.221 27.0837 26.7778 26.2944 26.983 25.634C27.2468 24.7879 26.9732 23.4457 25.6036 22.5273C24.4781 23.5844 24.0073 25.3311 22.8819 26.3882C22.6611 26.5953 22.1257 26.0247 22.1941 26.2592L22.1961 26.2612Z" fill="#C7C9D1"/>
<path d="M22.3017 22.3002C22.202 22.3354 22.1063 22.3764 22.0105 22.4233C20.4904 23.1658 20.1094 25.3502 21.3052 26.5557C21.993 27.2474 23.0422 27.519 24.0054 27.3666C25.0879 27.1946 26.1019 26.4697 26.4868 25.442C26.8717 24.4143 26.5259 23.1228 25.6037 22.5288C25.1054 22.2084 24.4958 22.1029 23.9038 22.0833C23.3626 22.0658 22.8077 22.1166 22.3017 22.3002Z" fill="#D5D8E0"/>
<path d="M23.3096 24.1093C23.2881 24.0096 23.2588 23.9119 23.2158 23.8162C23.1611 23.6912 23.0829 23.572 22.9676 23.5016C22.8524 23.4313 22.6922 23.4176 22.5847 23.4997C22.4831 23.5759 22.4479 23.7127 22.4245 23.8397C22.36 24.2128 22.3737 24.5723 22.3991 24.9475C22.4186 25.2562 22.4069 25.5669 22.5652 25.8463C22.6023 25.9127 22.6531 25.9791 22.7234 26.0084C22.8074 26.0436 22.9071 26.0221 22.9833 25.9713C23.0595 25.9205 23.1122 25.8423 23.1533 25.7603C23.2744 25.5258 23.3096 25.2581 23.333 24.9963C23.3604 24.7013 23.3721 24.3965 23.3115 24.1093H23.3096Z" fill="#E8EDED"/>
<path d="M24.9429 24.1093C24.9214 24.0096 24.8921 23.9119 24.8491 23.8162C24.7944 23.6912 24.7162 23.572 24.601 23.5016C24.4857 23.4313 24.3255 23.4176 24.218 23.4997C24.1164 23.5759 24.0812 23.7127 24.0578 23.8397C23.9933 24.2128 24.007 24.5723 24.0324 24.9475C24.0519 25.2562 24.0402 25.5669 24.1985 25.8463C24.2356 25.9127 24.2864 25.9791 24.3567 26.0084C24.4407 26.0436 24.5404 26.0221 24.6166 25.9713C24.6928 25.9205 24.7455 25.8423 24.7866 25.7603C24.9077 25.5258 24.9429 25.2581 24.9663 24.9963C24.9937 24.7013 25.0054 24.3965 24.9448 24.1093H24.9429Z" fill="#E8EDED"/>
<path d="M14.3202 17.836C14.3202 17.836 13.0581 13.6547 14.3202 12.3202C15.5824 10.9838 19.367 14.2624 19.367 14.2624C19.367 14.2624 16.1022 15.759 14.3202 17.8379V17.836Z" fill="#E8EDED"/>
<path d="M28.915 14.3364C28.915 14.3364 30.8982 12.3923 32.3226 12.2204C32.6313 12.1833 32.9458 12.2849 33.1647 12.5076C33.6414 12.9922 34.3233 14.2856 33.8133 17.6013C33.8133 17.6013 32.1057 15.4501 28.915 14.3364Z" fill="#E8EDED"/>
<path d="M32.3953 13.0355C32.2332 13.0297 32.0612 13.0922 31.9108 13.1625C31.5063 13.354 31.141 13.61 30.7795 13.8659C30.4474 14.1004 30.1132 14.3348 29.8299 14.6182C29.6306 14.8174 29.447 15.089 29.533 15.3489C29.6072 15.5697 29.8475 15.6986 30.0683 15.8061L32.3309 16.9061C32.6103 17.0409 32.9678 17.2187 33.0655 16.8241C33.2531 16.0562 33.2765 15.2571 33.173 14.4755C33.1261 14.118 33.0518 13.7585 32.8936 13.4283C32.8271 13.2895 32.7373 13.1489 32.5927 13.0805C32.5302 13.0512 32.4637 13.0375 32.3953 13.0355Z" fill="#C7C9D1"/>
<path d="M15.2065 12.9773C15.312 12.9382 15.4332 12.9148 15.5738 12.9109C15.8532 12.9031 16.1326 12.9578 16.3847 13.0692C16.6856 13.202 16.9396 13.4091 17.1916 13.6143L18.2643 14.4935C18.3757 14.5853 18.4968 14.6948 18.4988 14.8374C18.4988 14.9937 18.36 15.1148 18.2311 15.2145L15.8396 17.0511C15.7184 17.1449 15.5641 17.2445 15.4195 17.1937C15.3042 17.1547 15.2475 17.0355 15.2046 16.9261C14.8939 16.1426 13.9834 13.4384 15.2085 12.9793L15.2065 12.9773Z" fill="#C7C9D1"/>
<path d="M25.1934 29.9425C24.6385 29.9425 24.2145 29.7197 24.2067 29.7158C24.111 29.665 24.0758 29.5458 24.1285 29.4501C24.1793 29.3563 24.2985 29.3192 24.3923 29.3719C24.4431 29.3993 25.5724 29.9835 26.4282 28.9265C26.4966 28.8424 26.6197 28.8288 26.7037 28.8971C26.7877 28.9655 26.8014 29.0886 26.733 29.1726C26.2426 29.7803 25.6682 29.9444 25.1914 29.9444L25.1934 29.9425Z" fill="#C7C9D1"/>
<path d="M19.1068 23.1199C19.6712 23.1199 20.1287 22.6624 20.1287 22.098C20.1287 21.5337 19.6712 21.0762 19.1068 21.0762C18.5425 21.0762 18.085 21.5337 18.085 22.098C18.085 22.6624 18.5425 23.1199 19.1068 23.1199Z" fill="#2B110C"/>
<path d="M18.7828 21.8888C18.8659 21.8888 18.9332 21.8214 18.9332 21.7383C18.9332 21.6552 18.8659 21.5879 18.7828 21.5879C18.6997 21.5879 18.6323 21.6552 18.6323 21.7383C18.6323 21.8214 18.6997 21.8888 18.7828 21.8888Z" fill="white"/>
<path d="M28.4891 23.1199C29.0535 23.1199 29.511 22.6624 29.511 22.098C29.511 21.5337 29.0535 21.0762 28.4891 21.0762C27.9248 21.0762 27.4673 21.5337 27.4673 22.098C27.4673 22.6624 27.9248 23.1199 28.4891 23.1199Z" fill="#2B110C"/>
<path d="M28.1651 21.8888C28.2482 21.8888 28.3155 21.8214 28.3155 21.7383C28.3155 21.6552 28.2482 21.5879 28.1651 21.5879C28.082 21.5879 28.0146 21.6552 28.0146 21.7383C28.0146 21.8214 28.082 21.8888 28.1651 21.8888Z" fill="white"/>
</g>
<defs>
<clipPath id="clip0_152_44630">
<rect width="25.8651" height="24.515" fill="white" transform="translate(11 12)"/>
</clipPath>
</defs>
</svg>
