<svg width="48" height="48" viewBox="0 0 48 48" fill="none" xmlns="http://www.w3.org/2000/svg">
<circle cx="24" cy="24" r="23" fill="#FAFAFC" stroke="#FFB384" stroke-width="2"/>
<g clip-path="url(#clip0_152_44632)">
<path d="M36.6301 32.9634C36.7767 32.9478 36.9232 32.9361 37.0717 32.9283C37.1967 32.9205 37.2671 32.9048 37.3902 32.8872C37.4761 32.8755 37.7008 32.8189 37.7809 32.7876C38.1737 32.6313 38.455 32.4125 38.7364 32.0959C38.7559 32.0744 38.7754 32.051 38.795 32.0275C38.8927 31.9103 38.9826 31.7775 39.006 31.6251C39.0294 31.4727 38.9611 31.2988 38.8204 31.2401C38.6992 31.1893 38.5566 31.2323 38.4511 31.3105C38.3456 31.3886 38.2674 31.4961 38.1795 31.5938C38.0369 31.754 37.8649 31.8908 37.6774 31.9943C37.5758 32.051 37.4585 32.0979 37.3452 32.0842C37.3061 32.0803 37.2788 32.0451 37.2847 32.0061C37.3218 31.7696 37.3863 31.5391 37.4253 31.3046C37.4683 31.0487 37.48 30.781 37.3921 30.5368C37.2847 30.2378 37.0326 30.0034 36.7434 29.8685C36.4562 29.7337 36.1182 29.6888 35.8212 29.7962C35.4304 29.9389 35.1667 30.3238 35.0729 30.7282C34.9439 31.2812 35.1002 31.8947 35.4773 32.3187C35.4969 32.3402 35.4871 32.3753 35.4578 32.3812C35.0885 32.4672 34.7036 32.4789 34.3304 32.4164C34.2894 32.5141 34.2308 32.9009 34.3089 33.151C34.3168 33.1784 34.3285 33.2077 34.3519 33.2253C34.3715 33.2389 34.6509 33.2546 34.6743 33.2546C35.0651 33.2761 35.4519 33.2311 35.8271 33.1197C36.0909 33.0416 36.3605 32.9947 36.6321 32.9654L36.6301 32.9634ZM35.7997 31.0369C35.7997 31.0369 35.7997 31.0252 35.7997 31.0194C35.8036 30.8943 35.8329 30.7673 35.9013 30.6618C35.9697 30.5563 36.0811 30.4762 36.2061 30.4625C36.2999 30.4527 36.3976 30.4821 36.4738 30.5387C36.55 30.5954 36.6086 30.6755 36.6418 30.7634C36.6946 30.9002 36.6926 31.0545 36.6731 31.1991C36.6438 31.4062 36.5793 31.6055 36.4836 31.7911C36.464 31.8283 36.4367 31.8791 36.3957 31.8966C36.3546 31.9142 36.2921 31.881 36.255 31.8615C36.1065 31.7814 35.9873 31.6563 35.9072 31.5078C35.8271 31.3593 35.7958 31.203 35.7978 31.0409L35.7997 31.0369Z" fill="#FF816C"/>
<path d="M18.752 18.6397C19.7309 18.3857 20.7391 18.245 21.757 18.2333C26.9914 18.1708 32.1046 21.5314 33.9842 26.3027C35.4672 30.0658 34.8537 34.503 32.5755 37.8402C30.0765 41.4997 25.5963 41.7869 21.4151 41.8338C18.4179 41.8671 15.3249 41.1656 12.9666 39.3583C9.17421 36.4529 7.98823 30.9626 9.67635 26.5508C11.1535 22.692 14.6938 19.6928 18.752 18.6397Z" fill="#FCC9BB"/>
<path d="M20.1223 31.5815C20.1477 31.6655 19.7941 32.3161 19.9465 32.3904C20.7436 32.7792 21.5154 33.0781 23.1488 32.66C24.1473 32.404 24.7041 31.6147 24.9093 30.9543C25.173 30.1083 24.8995 28.766 23.5298 27.8477C22.4044 28.9047 21.9335 30.6514 20.8081 31.7085C20.5873 31.9156 20.052 31.345 20.1204 31.5795L20.1223 31.5815Z" fill="#FF816C"/>
<path d="M20.2275 27.6225C20.1278 27.6577 20.0321 27.6987 19.9363 27.7456C18.4162 28.488 18.0352 30.6724 19.231 31.878C19.9187 32.5696 20.968 32.8412 21.9312 32.6888C23.0136 32.5169 24.0277 31.792 24.4126 30.7643C24.7975 29.7366 24.4517 28.4451 23.5295 27.8511C23.0312 27.5307 22.4216 27.4251 21.8296 27.4056C21.2884 27.388 20.7335 27.4388 20.2275 27.6225Z" fill="#FF9578"/>
<path d="M21.2358 29.4315C21.2144 29.3319 21.185 29.2342 21.1421 29.1385C21.0874 29.0134 21.0092 28.8942 20.8939 28.8239C20.7786 28.7536 20.6184 28.7399 20.511 28.8219C20.4094 28.8981 20.3742 29.0349 20.3507 29.1619C20.2863 29.5351 20.2999 29.8946 20.3253 30.2698C20.3449 30.5785 20.3332 30.8891 20.4914 31.1685C20.5285 31.235 20.5793 31.3014 20.6497 31.3307C20.7337 31.3659 20.8334 31.3444 20.9096 31.2936C20.9858 31.2428 21.0385 31.1646 21.0795 31.0826C21.2007 30.8481 21.2358 30.5804 21.2593 30.3186C21.2866 30.0236 21.2984 29.7188 21.2378 29.4315H21.2358Z" fill="#FCC9BB"/>
<path d="M22.8691 29.4315C22.8477 29.3319 22.8183 29.2342 22.7754 29.1385C22.7207 29.0134 22.6425 28.8942 22.5272 28.8239C22.4119 28.7536 22.2517 28.7399 22.1443 28.8219C22.0427 28.8981 22.0075 29.0349 21.9841 29.1619C21.9196 29.5351 21.9332 29.8946 21.9586 30.2698C21.9782 30.5785 21.9665 30.8891 22.1247 31.1685C22.1619 31.235 22.2127 31.3014 22.283 31.3307C22.367 31.3659 22.4667 31.3444 22.5429 31.2936C22.6191 31.2428 22.6718 31.1646 22.7128 31.0826C22.834 30.8481 22.8691 30.5804 22.8926 30.3186C22.9199 30.0236 22.9317 29.7188 22.8711 29.4315H22.8691Z" fill="#FCC9BB"/>
<path d="M12.246 23.1582C12.246 23.1582 10.9838 18.977 12.246 17.6425C13.5082 16.3061 17.2928 19.5846 17.2928 19.5846C17.2928 19.5846 14.0279 21.0813 12.246 23.1602V23.1582Z" fill="#FCC9BB"/>
<path d="M26.8413 19.6587C26.8413 19.6587 28.8245 17.7146 30.2488 17.5426C30.5575 17.5055 30.8721 17.6071 31.0909 17.8299C31.5677 18.3144 32.2496 19.6079 31.7396 22.9236C31.7396 22.9236 30.0319 20.7724 26.8413 19.6587Z" fill="#FCC9BB"/>
<path d="M30.3211 18.3559C30.159 18.35 29.987 18.4125 29.8366 18.4829C29.4321 18.6743 29.0668 18.9303 28.7053 19.1862C28.3731 19.4207 28.039 19.6552 27.7557 19.9385C27.5564 20.1378 27.3728 20.4093 27.4587 20.6692C27.533 20.89 27.7733 21.0189 27.9941 21.1264L30.2566 22.2264C30.5361 22.3612 30.8936 22.539 30.9913 22.1444C31.1789 21.3765 31.2023 20.5774 31.0988 19.7958C31.0519 19.4383 30.9776 19.0788 30.8194 18.7486C30.7529 18.6099 30.6631 18.4692 30.5185 18.4008C30.4559 18.3715 30.3895 18.3578 30.3211 18.3559Z" fill="#FF816C"/>
<path d="M13.1328 18.2976C13.2383 18.2586 13.3594 18.2351 13.5001 18.2312C13.7795 18.2234 14.0589 18.2781 14.311 18.3895C14.6118 18.5223 14.8658 18.7294 15.1179 18.9346L16.1906 19.8138C16.3019 19.9057 16.4231 20.0151 16.425 20.1577C16.425 20.314 16.2863 20.4351 16.1573 20.5348L13.7658 22.3714C13.6447 22.4652 13.4903 22.5648 13.3458 22.514C13.2305 22.475 13.1738 22.3558 13.1308 22.2464C12.8202 21.4629 11.9097 18.7587 13.1347 18.2996L13.1328 18.2976Z" fill="#FF816C"/>
<path d="M23.1192 35.2628C22.5643 35.2628 22.1403 35.04 22.1325 35.0361C22.0367 34.9853 22.0016 34.8661 22.0543 34.7704C22.1051 34.6766 22.2243 34.6395 22.3181 34.6922C22.3689 34.7196 23.4982 35.3038 24.354 34.2468C24.4224 34.1627 24.5455 34.1491 24.6295 34.2175C24.7135 34.2858 24.7272 34.4089 24.6588 34.493C24.1664 35.1006 23.594 35.2647 23.1192 35.2647V35.2628Z" fill="#FF816C"/>
<path d="M17.0326 28.4422C17.597 28.4422 18.0545 27.9847 18.0545 27.4203C18.0545 26.8559 17.597 26.3984 17.0326 26.3984C16.4682 26.3984 16.0107 26.8559 16.0107 27.4203C16.0107 27.9847 16.4682 28.4422 17.0326 28.4422Z" fill="#2B110C"/>
<path d="M16.7086 27.2091C16.7916 27.2091 16.859 27.1417 16.859 27.0587C16.859 26.9756 16.7916 26.9082 16.7086 26.9082C16.6255 26.9082 16.5581 26.9756 16.5581 27.0587C16.5581 27.1417 16.6255 27.2091 16.7086 27.2091Z" fill="white"/>
<path d="M26.4149 28.4422C26.9793 28.4422 27.4368 27.9847 27.4368 27.4203C27.4368 26.8559 26.9793 26.3984 26.4149 26.3984C25.8506 26.3984 25.3931 26.8559 25.3931 27.4203C25.3931 27.9847 25.8506 28.4422 26.4149 28.4422Z" fill="#2B110C"/>
<path d="M26.0909 27.2091C26.174 27.2091 26.2413 27.1417 26.2413 27.0587C26.2413 26.9756 26.174 26.9082 26.0909 26.9082C26.0078 26.9082 25.9404 26.9756 25.9404 27.0587C25.9404 27.1417 26.0078 27.2091 26.0909 27.2091Z" fill="white"/>
<path d="M15.1042 8.92521C15.0925 8.78258 15.0788 8.64191 15.0612 8.50123C15.0085 8.06552 14.8912 6.71736 15.5888 7.32892C16.4152 8.05184 17.1382 9.91386 19.0901 8.69857C21.042 7.48327 22.1342 6.24649 23.285 7.5751C24.0568 8.46606 25.1763 10.1464 26.5264 10.2577C27.8296 10.3672 28.6288 9.20266 29.0039 8.33906C29.0039 8.33906 29.4552 7.53603 29.4787 8.70638C29.5021 9.87674 29.129 14.1283 28.4275 17.3268C27.7261 20.5252 27.2239 21.7112 27.2239 21.7112C27.2239 21.7112 23.3495 15.2518 15.8858 20.8925C15.8858 20.8925 15.3699 12.0944 15.1023 8.92521H15.1042Z" fill="#FC644F"/>
<path d="M16.9272 21.6536C16.8451 21.6732 16.6693 21.6595 16.5872 21.6419C16.3645 21.597 16.2375 21.4797 16.0773 21.2882C15.3524 20.4188 14.6881 19.477 14.0922 18.4727C13.6447 17.7205 13.2266 16.8921 13.1621 15.9699C13.1504 15.8077 13.1778 15.5986 13.3067 15.5556C13.4239 15.5166 13.5294 15.6436 13.6174 15.7452C13.9925 16.177 14.565 16.3001 15.073 16.1672C15.581 16.0343 16.0304 15.6729 16.4094 15.245C17.7126 13.7776 18.25 11.6069 19.0256 9.6726C19.1292 9.41665 19.2503 9.14702 19.4633 9.02392C19.7622 8.85003 20.1178 9.03369 20.3894 9.26229C21.128 9.88166 21.6301 10.8215 22.2475 11.6089C23.1815 12.7988 24.3753 13.637 25.5632 14.4322C26.5675 15.1043 27.5933 15.7667 28.7089 16.093C29.2462 16.2493 29.8246 16.3216 30.3443 16.0969C30.44 16.0558 30.5514 16.007 30.6374 16.0734C30.7448 16.1574 30.7214 16.3509 30.6862 16.4974C30.2642 18.1797 29.4064 19.6646 28.4881 20.9991C28.2986 21.2746 28.2419 21.7435 27.6792 21.72C26.7746 21.6829 25.4304 21.4446 24.7231 21.2863C22.1069 20.7001 19.7114 20.3641 17.3238 21.5032C17.2066 21.5598 17.0503 21.6224 16.9272 21.6517V21.6536Z" fill="#FF9578"/>
</g>
<defs>
<clipPath id="clip0_152_44632">
<rect width="30.0815" height="34.8352" fill="white" transform="translate(9 7)"/>
</clipPath>
</defs>
</svg>
