<svg width="48" height="48" viewBox="0 0 48 48" fill="none" xmlns="http://www.w3.org/2000/svg">
<circle cx="24" cy="24" r="23" fill="#FAFAFC" stroke="#FDD752" stroke-width="2"/>
<g clip-path="url(#clip0_152_44634)">
<path d="M37.0505 31.8365C37.1971 31.8209 37.3436 31.8091 37.4921 31.8013C37.6171 31.7935 37.6875 31.7779 37.8106 31.7603C37.8965 31.7486 38.1212 31.6919 38.2013 31.6606C38.5941 31.5043 38.8754 31.2855 39.1568 30.969C39.1763 30.9475 39.1959 30.924 39.2154 30.9006C39.3131 30.7834 39.403 30.6505 39.4264 30.4981C39.4499 30.3457 39.3815 30.1718 39.2408 30.1132C39.1197 30.0624 38.977 30.1054 38.8715 30.1835C38.766 30.2617 38.6879 30.3691 38.5999 30.4668C38.4573 30.6271 38.2854 30.7638 38.0978 30.8674C37.9962 30.924 37.879 30.9709 37.7656 30.9573C37.7266 30.9533 37.6992 30.9182 37.7051 30.8791C37.7422 30.6427 37.8067 30.4121 37.8457 30.1777C37.8887 29.9217 37.9005 29.654 37.8125 29.4098C37.7051 29.1109 37.453 28.8764 37.1638 28.7416C36.8766 28.6068 36.5386 28.5618 36.2416 28.6693C35.8509 28.8119 35.5871 29.1968 35.4933 29.6013C35.3644 30.1542 35.5207 30.7677 35.8978 31.1917C35.9173 31.2132 35.9075 31.2484 35.8782 31.2542C35.5089 31.3402 35.124 31.3519 34.7508 31.2894C34.7098 31.3871 34.6512 31.774 34.7294 32.0241C34.7372 32.0514 34.7489 32.0807 34.7723 32.0983C34.7919 32.112 35.0713 32.1276 35.0947 32.1276C35.4855 32.1491 35.8724 32.1042 36.2475 31.9928C36.5113 31.9146 36.7809 31.8677 37.0525 31.8384L37.0505 31.8365ZM36.2201 29.91C36.2201 29.91 36.2201 29.8983 36.2201 29.8924C36.224 29.7674 36.2534 29.6404 36.3217 29.5349C36.3901 29.4293 36.5015 29.3492 36.6265 29.3356C36.7203 29.3258 36.818 29.3551 36.8942 29.4118C36.9704 29.4684 37.029 29.5485 37.0622 29.6365C37.115 29.7732 37.113 29.9276 37.0935 30.0722C37.0642 30.2793 36.9997 30.4786 36.904 30.6642C36.8844 30.7013 36.8571 30.7521 36.8161 30.7697C36.775 30.7873 36.7125 30.7541 36.6754 30.7345C36.5269 30.6544 36.4077 30.5294 36.3276 30.3809C36.2475 30.2324 36.2162 30.0761 36.2182 29.9139L36.2201 29.91Z" fill="#FFAF22"/>
<path d="M19.1724 17.5127C20.1513 17.2587 21.1595 17.118 22.1774 17.1063C27.4118 17.0438 32.525 20.4044 34.4046 25.1757C35.8876 28.9388 35.2741 33.376 32.9959 36.7132C30.4969 40.3728 26.0167 40.66 21.8355 40.7069C18.8383 40.7401 15.7453 40.0387 13.387 38.2314C9.59462 35.326 8.40864 29.8357 10.0968 25.4239C11.5739 21.565 15.1143 18.5659 19.1724 17.5127Z" fill="#FFF0B0"/>
<path d="M20.5427 30.4565C20.5681 30.5405 20.2145 31.1911 20.3669 31.2654C21.1641 31.6542 21.9358 31.9531 23.5692 31.535C24.5677 31.279 25.1245 30.4897 25.3297 29.8293C25.5934 28.9833 25.3199 27.641 23.9502 26.7227C22.8248 27.7797 22.354 29.5264 21.2285 30.5835C21.0077 30.7906 20.4724 30.22 20.5408 30.4545L20.5427 30.4565Z" fill="#FFAF22"/>
<path d="M20.6479 26.4955C20.5482 26.5307 20.4525 26.5717 20.3567 26.6186C18.8366 27.3611 18.4556 29.5455 19.6514 30.751C20.3392 31.4427 21.3884 31.7143 22.3516 31.5619C23.4341 31.3899 24.4481 30.665 24.833 29.6373C25.2179 28.6096 24.8721 27.3181 23.9499 26.7241C23.4516 26.4037 22.842 26.2982 22.25 26.2787C21.7088 26.2611 21.1539 26.3119 20.6479 26.4955Z" fill="#FFC931"/>
<path d="M21.6538 28.3046C21.6323 28.2049 21.603 28.1073 21.56 28.0115C21.5053 27.8865 21.4272 27.7673 21.3119 27.6969C21.1966 27.6266 21.0364 27.6129 20.9289 27.695C20.8273 27.7712 20.7922 27.908 20.7687 28.035C20.7042 28.4082 20.7179 28.7677 20.7433 29.1428C20.7629 29.4515 20.7511 29.7622 20.9094 30.0416C20.9465 30.108 20.9973 30.1744 21.0677 30.2037C21.1517 30.2389 21.2513 30.2174 21.3275 30.1666C21.4037 30.1158 21.4565 30.0377 21.4975 29.9556C21.6186 29.7211 21.6538 29.4535 21.6773 29.1916C21.7046 28.8966 21.7163 28.5918 21.6558 28.3046H21.6538Z" fill="#FFF0B0"/>
<path d="M23.2896 28.3046C23.2681 28.2049 23.2388 28.1073 23.1958 28.0115C23.1411 27.8865 23.0629 27.7673 22.9476 27.6969C22.8324 27.6266 22.6721 27.6129 22.5647 27.695C22.4631 27.7712 22.4279 27.908 22.4045 28.035C22.34 28.4082 22.3537 28.7677 22.3791 29.1428C22.3986 29.4515 22.3869 29.7622 22.5451 30.0416C22.5823 30.108 22.6331 30.1744 22.7034 30.2037C22.7874 30.2389 22.8871 30.2174 22.9633 30.1666C23.0395 30.1158 23.0922 30.0377 23.1332 29.9556C23.2544 29.7211 23.2896 29.4535 23.313 29.1916C23.3404 28.8966 23.3521 28.5918 23.2915 28.3046H23.2896Z" fill="#FFF0B0"/>
<path d="M23.5396 34.1358C22.9847 34.1358 22.5607 33.9131 22.5529 33.9092C22.4571 33.8584 22.422 33.7392 22.4747 33.6434C22.5255 33.5497 22.6447 33.5125 22.7385 33.5653C22.7893 33.5926 23.9186 34.1768 24.7744 33.1198C24.8428 33.0358 24.9659 33.0221 25.0499 33.0905C25.1339 33.1589 25.1476 33.282 25.0792 33.366C24.5868 33.9736 24.0144 34.1378 23.5396 34.1378V34.1358Z" fill="#FFAF22"/>
<path d="M17.4535 27.3152C18.0179 27.3152 18.4754 26.8577 18.4754 26.2933C18.4754 25.729 18.0179 25.2715 17.4535 25.2715C16.8891 25.2715 16.4316 25.729 16.4316 26.2933C16.4316 26.8577 16.8891 27.3152 17.4535 27.3152Z" fill="#2B110C"/>
<path d="M17.129 26.0821C17.2121 26.0821 17.2794 26.0148 17.2794 25.9317C17.2794 25.8486 17.2121 25.7812 17.129 25.7812C17.0459 25.7812 16.9785 25.8486 16.9785 25.9317C16.9785 26.0148 17.0459 26.0821 17.129 26.0821Z" fill="white"/>
<path d="M26.8353 27.3152C27.3997 27.3152 27.8572 26.8577 27.8572 26.2933C27.8572 25.729 27.3997 25.2715 26.8353 25.2715C26.271 25.2715 25.8135 25.729 25.8135 26.2933C25.8135 26.8577 26.271 27.3152 26.8353 27.3152Z" fill="#2B110C"/>
<path d="M26.5113 26.0821C26.5944 26.0821 26.6617 26.0148 26.6617 25.9317C26.6617 25.8486 26.5944 25.7812 26.5113 25.7812C26.4282 25.7812 26.3608 25.8486 26.3608 25.9317C26.3608 26.0148 26.4282 26.0821 26.5113 26.0821Z" fill="white"/>
<path d="M21.7695 19.2992C21.7695 19.2992 17.897 19.0706 14.7923 21.933C14.7923 21.933 11.4317 24.3245 10.3844 26.6692C10.2223 27.0306 9.76898 27.1166 9.51693 26.8177C9.50912 26.8079 9.5013 26.7981 9.49349 26.7903C8.55564 25.659 8.84872 23.8673 10.107 23.1679C10.1148 23.164 10.1246 23.1581 10.1324 23.1542C10.1324 23.1542 8.88779 21.2453 10.8456 20.2918C10.8456 20.2918 9.32936 17.1109 12.1664 15.9503C12.1664 15.9503 12.3383 12.4901 15.9549 13.1622C15.9549 13.1622 15.5348 11.8004 16.8966 11.5522C16.8966 11.5522 16.8087 9.35024 18.6707 8.51008C20.5367 7.66992 25.3021 7.64257 27.2149 10.1787C27.2149 10.1787 27.9574 11.3139 28.1332 11.8941C28.1332 11.8941 29.2469 11.1126 30.2473 11.7867C31.4411 12.5917 30.7318 14.0278 30.7318 14.0278C30.7318 14.0278 33.9987 14.5631 34.071 18.7971C34.071 18.7971 37.2753 19.8991 35.8587 23.8107C35.8587 23.8107 36.8376 26.0185 34.9971 27.1733C34.747 27.3296 34.4207 27.2143 34.2996 26.9349C33.6626 25.4773 31.3512 21.2082 25.644 19.5767C25.644 19.5767 23.2037 19.2172 21.7695 19.3012V19.2992Z" fill="#5B4428"/>
<path d="M21.77 19.2999L22.0123 16.5391C22.0162 16.4922 22.0533 16.4551 22.0983 16.4551H22.3894C22.4343 16.4551 22.4715 16.4942 22.4715 16.543V19.2901L21.7681 19.2999H21.77Z" fill="#725836"/>
<path d="M17.3047 17.9106C16.8202 17.5217 16.3122 17.1622 15.7866 16.8301C15.2473 16.4901 14.6807 16.1755 14.0633 16.0153C13.78 15.9411 13.4752 15.904 13.2016 16.0056C12.6897 16.197 12.4748 16.8008 12.4045 17.3439C12.256 18.5045 12.4943 19.6768 12.7737 20.814C12.9711 21.6151 13.5123 21.5213 14.0926 21.109L17.3712 18.7761C17.5411 18.655 17.7346 18.4713 17.6662 18.274C17.6369 18.19 17.5665 18.1274 17.4982 18.0708C17.4337 18.018 17.3692 17.9653 17.3028 17.9125L17.3047 17.9106Z" fill="#FFF0B0"/>
<path d="M13.6278 16.7993C13.7216 16.7642 13.829 16.7446 13.9502 16.7407C14.1964 16.7349 14.4425 16.7818 14.6653 16.8794C14.931 16.9967 15.3081 17.1823 15.5289 17.364L16.4726 18.1377C16.5722 18.2178 16.6778 18.3155 16.6797 18.4406C16.6797 18.5773 16.5566 18.6848 16.4433 18.7727C15.7419 19.312 14.8841 19.8473 14.1827 20.3866C14.0752 20.4687 13.9404 20.5566 13.8134 20.5117C13.7118 20.4765 13.663 20.3729 13.6239 20.2772C13.3503 19.5875 12.5473 17.2057 13.6258 16.7993H13.6278Z" fill="#FFC931"/>
<path d="M31.8059 16.0267C31.5949 15.8117 31.292 15.714 30.9931 15.7492C29.6176 15.9153 27.7028 17.7929 27.7028 17.7929C27.7028 17.7929 26.7103 18.7484 28.0506 19.6276L30.6355 21.136C30.6355 21.136 32.1654 22.3395 32.4311 20.9445C32.9235 17.7421 32.2651 16.4936 31.8059 16.0267Z" fill="#FFF0B0"/>
<path d="M30.9623 16.6779C30.806 16.674 30.64 16.7326 30.4954 16.801C30.1046 16.9866 29.7529 17.2328 29.4032 17.481C29.0827 17.7076 28.7603 17.9342 28.4868 18.2078C28.2934 18.4012 28.1156 18.6611 28.1996 18.9131C28.2719 19.1261 28.5044 19.2511 28.7174 19.3547C29.4462 19.7083 30.1847 20.1792 30.9115 20.5329C31.1812 20.6638 31.527 20.8338 31.6208 20.4547C31.8025 19.7142 31.8142 18.8252 31.7146 18.071C31.6696 17.7252 31.5973 17.3774 31.443 17.0609C31.3785 16.9261 31.2925 16.7912 31.1519 16.7248C31.0913 16.6955 31.0268 16.6818 30.9604 16.6799L30.9623 16.6779Z" fill="#FFC931"/>
</g>
<defs>
<clipPath id="clip0_152_44634">
<rect width="30.484" height="32.7094" fill="white" transform="translate(9 8)"/>
</clipPath>
</defs>
</svg>
