<svg width="48" height="48" viewBox="0 0 48 48" fill="none" xmlns="http://www.w3.org/2000/svg">
<circle cx="24" cy="24" r="23" fill="#FAFAFC" stroke="#A8CAFC" stroke-width="2"/>
<g clip-path="url(#clip0_152_44631)">
<path d="M33.0796 24.3418C33.0796 24.3418 34.0038 25.8013 34.1444 26.8017C34.1444 26.8017 35.1175 27.6145 35.6235 28.2202L35.0139 26.1921C35.0139 26.1921 33.867 24.801 33.0815 24.3418H33.0796Z" fill="#4BABF9"/>
<path d="M31.6084 19.752C32.7826 20.2267 33.9921 20.723 34.8889 21.6198C35.1214 21.8523 35.3383 22.1278 35.3871 22.4522C35.432 22.7589 35.3226 23.0696 35.1566 23.3334C34.9045 23.7359 34.5294 24.0426 34.1152 24.2712C33.8612 24.4119 33.0933 24.8691 32.8647 24.6014L30.8288 22.2099C30.8014 22.1786 30.7741 22.1454 30.7663 22.1044C30.7584 22.0634 30.7741 22.0204 30.7877 21.9793L31.6064 19.75L31.6084 19.752Z" fill="#1699F2"/>
<path d="M36.6301 31.9322C36.7767 31.9166 36.9232 31.9048 37.0717 31.897C37.1967 31.8892 37.2671 31.8736 37.3902 31.856C37.4761 31.8443 37.7008 31.7876 37.7809 31.7563C38.1737 31.6 38.455 31.3812 38.7364 31.0647C38.7559 31.0432 38.7754 31.0197 38.795 30.9963C38.8927 30.8791 38.9826 30.7462 39.006 30.5938C39.0294 30.4414 38.9611 30.2675 38.8204 30.2089C38.6992 30.1581 38.5566 30.2011 38.4511 30.2792C38.3456 30.3574 38.2674 30.4648 38.1795 30.5625C38.0369 30.7228 37.8649 30.8595 37.6774 30.9631C37.5758 31.0197 37.4585 31.0666 37.3452 31.053C37.3061 31.049 37.2788 31.0139 37.2847 30.9748C37.3218 30.7384 37.3863 30.5078 37.4253 30.2734C37.4683 30.0174 37.48 29.7497 37.3921 29.5055C37.2847 29.2066 37.0326 28.9721 36.7434 28.8373C36.4562 28.7025 36.1182 28.6575 35.8212 28.765C35.4304 28.9076 35.1667 29.2925 35.0729 29.697C34.9439 30.2499 35.1002 30.8634 35.4773 31.2874C35.4969 31.3089 35.4871 31.3441 35.4578 31.3499C35.0885 31.4359 34.7036 31.4476 34.3304 31.3851C34.2894 31.4828 34.2308 31.8697 34.3089 32.1198C34.3168 32.1471 34.3285 32.1764 34.3519 32.194C34.3715 32.2077 34.6509 32.2233 34.6743 32.2233C35.0651 32.2448 35.4519 32.1999 35.8271 32.0885C36.0909 32.0103 36.3605 31.9635 36.6321 31.9341L36.6301 31.9322ZM35.7997 30.0057C35.7997 30.0057 35.7997 29.994 35.7997 29.9881C35.8036 29.8631 35.8329 29.7361 35.9013 29.6306C35.9697 29.525 36.0811 29.4449 36.2061 29.4313C36.2999 29.4215 36.3976 29.4508 36.4738 29.5075C36.55 29.5641 36.6086 29.6442 36.6418 29.7322C36.6946 29.8689 36.6926 30.0233 36.6731 30.1679C36.6438 30.375 36.5793 30.5743 36.4836 30.7599C36.464 30.797 36.4367 30.8478 36.3957 30.8654C36.3546 30.883 36.2921 30.8498 36.255 30.8302C36.1065 30.7501 35.9873 30.6251 35.9072 30.4766C35.8271 30.3281 35.7958 30.1718 35.7978 30.0096L35.7997 30.0057Z" fill="#4BABF9"/>
<path d="M18.752 17.6084C19.7309 17.3544 20.7391 17.2138 21.757 17.202C26.9914 17.1395 32.1046 20.5001 33.9842 25.2714C35.4672 29.0345 34.8537 33.4717 32.5755 36.8089C30.0765 40.4685 25.5963 40.7557 21.4151 40.8026C18.4179 40.8358 15.3249 40.1344 12.9666 38.3271C9.17421 35.4217 7.98823 29.9314 9.67635 25.5196C11.1535 21.6607 14.6938 18.6616 18.752 17.6084Z" fill="#CDE7FC"/>
<path d="M20.1223 30.5522C20.1477 30.6362 19.7941 31.2868 19.9465 31.3611C20.7436 31.7499 21.5154 32.0488 23.1488 31.6307C24.1473 31.3747 24.7041 30.5854 24.9093 29.925C25.173 29.079 24.8995 27.7367 23.5298 26.8184C22.4044 27.8754 21.9335 29.6221 20.8081 30.6792C20.5873 30.8863 20.052 30.3158 20.1204 30.5502L20.1223 30.5522Z" fill="#4BABF9"/>
<path d="M20.2275 26.5912C20.1278 26.6264 20.0321 26.6674 19.9363 26.7143C18.4162 27.4568 18.0352 29.6412 19.231 30.8467C19.9187 31.5384 20.968 31.81 21.9312 31.6576C23.0136 31.4856 24.0277 30.7608 24.4126 29.733C24.7975 28.7053 24.4517 27.4138 23.5295 26.8198C23.0312 26.4994 22.4216 26.3939 21.8296 26.3744C21.2884 26.3568 20.7335 26.4076 20.2275 26.5912Z" fill="#86BCFC"/>
<path d="M21.2358 28.4003C21.2144 28.3007 21.185 28.203 21.1421 28.1072C21.0874 27.9822 21.0092 27.863 20.8939 27.7927C20.7786 27.7223 20.6184 27.7086 20.511 27.7907C20.4094 27.8669 20.3742 28.0037 20.3507 28.1307C20.2863 28.5039 20.2999 28.8634 20.3253 29.2385C20.3449 29.5472 20.3332 29.8579 20.4914 30.1373C20.5285 30.2037 20.5793 30.2701 20.6497 30.2994C20.7337 30.3346 20.8334 30.3131 20.9096 30.2623C20.9858 30.2115 21.0385 30.1334 21.0795 30.0513C21.2007 29.8168 21.2358 29.5492 21.2593 29.2873C21.2866 28.9923 21.2984 28.6875 21.2378 28.4003H21.2358Z" fill="#CDE7FC"/>
<path d="M22.8691 28.4003C22.8477 28.3007 22.8183 28.203 22.7754 28.1072C22.7207 27.9822 22.6425 27.863 22.5272 27.7927C22.4119 27.7223 22.2517 27.7086 22.1443 27.7907C22.0427 27.8669 22.0075 28.0037 21.9841 28.1307C21.9196 28.5039 21.9332 28.8634 21.9586 29.2385C21.9782 29.5472 21.9665 29.8579 22.1247 30.1373C22.1619 30.2037 22.2127 30.2701 22.283 30.2994C22.367 30.3346 22.4667 30.3131 22.5429 30.2623C22.6191 30.2115 22.6718 30.1334 22.7128 30.0513C22.834 29.8168 22.8691 29.5492 22.8926 29.2873C22.9199 28.9923 22.9317 28.6875 22.8711 28.4003H22.8691Z" fill="#CDE7FC"/>
<path d="M12.246 22.127C12.246 22.127 10.9838 17.9457 12.246 16.6113C13.5082 15.2748 17.2928 18.5534 17.2928 18.5534C17.2928 18.5534 14.0279 20.05 12.246 22.1289V22.127Z" fill="#CDE7FC"/>
<path d="M26.8413 18.6274C26.8413 18.6274 28.8245 16.6833 30.2488 16.5114C30.5575 16.4743 30.8721 16.5759 31.0909 16.7986C31.5677 17.2832 32.2496 18.5766 31.7396 21.8923C31.7396 21.8923 30.0319 19.7411 26.8413 18.6274Z" fill="#CDE7FC"/>
<path d="M30.3211 17.3266C30.159 17.3207 29.987 17.3832 29.8366 17.4536C29.4321 17.645 29.0668 17.901 28.7053 18.1569C28.3731 18.3914 28.039 18.6259 27.7557 18.9092C27.5564 19.1085 27.3728 19.3801 27.4587 19.6399C27.533 19.8607 27.7733 19.9897 27.9941 20.0971L30.2566 21.1971C30.5361 21.3319 30.8936 21.5097 30.9913 21.1151C31.1789 20.3472 31.2023 19.5481 31.0988 18.7665C31.0519 18.409 30.9776 18.0495 30.8194 17.7193C30.7529 17.5806 30.6631 17.4399 30.5185 17.3715C30.4559 17.3422 30.3895 17.3285 30.3211 17.3266Z" fill="#4BABF9"/>
<path d="M13.1328 17.2683C13.2383 17.2293 13.3594 17.2058 13.5001 17.2019C13.7795 17.1941 14.0589 17.2488 14.311 17.3602C14.6118 17.493 14.8658 17.7001 15.1179 17.9053L16.1906 18.7845C16.3019 18.8764 16.4231 18.9858 16.425 19.1284C16.425 19.2847 16.2863 19.4058 16.1573 19.5055L13.7658 21.3421C13.6447 21.4359 13.4903 21.5355 13.3458 21.4847C13.2305 21.4457 13.1738 21.3265 13.1308 21.2171C12.8202 20.4336 11.9097 17.7294 13.1347 17.2703L13.1328 17.2683Z" fill="#4BABF9"/>
<path d="M23.1192 34.2335C22.5643 34.2335 22.1403 34.0107 22.1325 34.0068C22.0367 33.956 22.0016 33.8368 22.0543 33.7411C22.1051 33.6473 22.2243 33.6102 22.3181 33.6629C22.3689 33.6903 23.4982 34.2745 24.354 33.2175C24.4224 33.1335 24.5455 33.1198 24.6295 33.1882C24.7135 33.2565 24.7272 33.3796 24.6588 33.4637C24.1664 34.0713 23.594 34.2354 23.1192 34.2354V34.2335Z" fill="#4BABF9"/>
<path d="M17.0326 27.409C17.597 27.409 18.0545 26.9515 18.0545 26.3871C18.0545 25.8227 17.597 25.3652 17.0326 25.3652C16.4682 25.3652 16.0107 25.8227 16.0107 26.3871C16.0107 26.9515 16.4682 27.409 17.0326 27.409Z" fill="#2B110C"/>
<path d="M16.7086 26.1798C16.7916 26.1798 16.859 26.1124 16.859 26.0294C16.859 25.9463 16.7916 25.8789 16.7086 25.8789C16.6255 25.8789 16.5581 25.9463 16.5581 26.0294C16.5581 26.1124 16.6255 26.1798 16.7086 26.1798Z" fill="white"/>
<path d="M26.4149 27.409C26.9793 27.409 27.4368 26.9515 27.4368 26.3871C27.4368 25.8227 26.9793 25.3652 26.4149 25.3652C25.8506 25.3652 25.3931 25.8227 25.3931 26.3871C25.3931 26.9515 25.8506 27.409 26.4149 27.409Z" fill="#2B110C"/>
<path d="M26.0909 26.1798C26.174 26.1798 26.2413 26.1124 26.2413 26.0294C26.2413 25.9463 26.174 25.8789 26.0909 25.8789C26.0078 25.8789 25.9404 25.9463 25.9404 26.0294C25.9404 26.1124 26.0078 26.1798 26.0909 26.1798Z" fill="white"/>
<path d="M35.0122 26.1934L37.3373 28.6239C37.646 28.9463 37.8648 29.343 37.9703 29.7767C38.2282 30.8279 38.7187 32.856 38.8691 33.7645C39.0371 34.7708 39.3029 36.5605 39.4025 37.2326C39.424 37.3831 39.3302 37.5257 39.1837 37.5667L37.6519 37.9829C37.4213 38.0454 37.1888 37.895 37.1497 37.6586L35.6765 28.5497C35.6413 28.3309 35.5905 28.112 35.5261 27.8991L35.0122 26.1914V26.1934Z" fill="#1699F2"/>
<path d="M14.4575 21.0326C14.4087 21.0346 14.3618 21.0268 14.3188 21.0014C14.2641 20.9701 14.225 20.9154 14.1918 20.8627C13.7932 20.2433 13.6897 19.4696 13.7678 18.7369C13.846 18.0042 14.0922 17.3008 14.3501 16.6111C15.4345 13.7077 16.7963 10.8218 19.012 8.65305C19.901 7.78359 21.0108 7.00986 22.2554 7.00009C24.389 6.98446 25.7586 8.92268 26.587 10.6206C26.8782 11.2185 27.1556 11.8222 27.4174 12.4318C27.943 13.653 28.41 14.8976 28.8164 16.1637C29.1661 17.25 29.4709 18.4204 29.1622 19.5184C29.1036 19.7255 29.0274 19.9619 29.1466 20.1397C29.2365 20.2765 29.424 20.3429 29.4729 20.4992C29.5276 20.6712 29.3674 20.849 29.1935 20.8881C29.0196 20.9271 28.8379 20.8646 28.6679 20.808C25.3991 19.6982 21.8763 19.3426 18.4532 19.7763C17.1734 19.9385 15.878 20.2198 14.7819 20.9017C14.6842 20.9623 14.5689 21.0268 14.4615 21.0326H14.4575Z" fill="#1699F2"/>
<path d="M26.9558 18.7345C26.9558 18.7345 24.2634 18.1425 21.1744 18.3359C21.1392 18.3378 21.106 18.3066 21.1021 18.2636C21.0826 18.0936 21.0767 17.9803 21.0689 17.8924C20.9595 16.6302 21.0161 15.4872 21.2408 14.3305C21.4948 13.0156 22.1123 11.853 22.7492 10.7471C22.7746 10.7022 22.7687 10.6455 22.7219 10.6221C22.6867 10.6045 22.4346 10.5303 22.4346 10.5303C22.2803 10.4697 22.2822 10.5146 22.2334 10.5869C22.1845 10.6592 22.1201 10.751 22.0751 10.8253C21.7723 11.3157 21.5046 11.81 21.2662 12.3493C20.9614 13.041 20.7211 13.803 20.5785 14.5689C20.3616 15.7431 20.3929 16.9487 20.4534 18.16L20.4593 18.2441L20.4632 18.3046C20.4632 18.3046 20.4671 18.3769 20.3772 18.3789C20.0392 18.3906 19.0213 18.4609 17.7083 18.7267C17.6868 18.7306 17.6653 18.713 17.6633 18.6856C17.6633 18.6759 17.6633 18.6641 17.6594 18.6505C17.4582 17.3766 17.6399 15.7334 17.9017 14.6587C18.187 13.4903 18.4351 12.7752 18.8356 11.8218C18.9236 11.6146 19.033 11.3528 19.1072 11.1379C19.1287 11.0773 18.9568 11.0246 18.904 11.0011C18.8708 10.9855 18.8024 10.9562 18.7321 10.9367C18.6246 10.9074 18.6051 11.0265 18.4292 11.4154C17.7649 12.8905 17.5813 13.3418 17.2335 15.0945C17.2198 15.1589 17.0869 16.0792 17.0342 16.1398C17.0049 16.173 16.9013 16.2179 16.8466 16.2433C15.9752 16.6321 14.7286 17.0444 13.9491 17.6403C13.7654 17.781 13.3043 18.457 13.5348 18.6348C14.2167 17.908 16.0241 17.148 16.9795 16.8099C17.0088 16.8002 17.0361 16.8295 17.0322 16.8646C16.9873 17.2847 16.9834 18.1014 17.0674 18.7814C17.0713 18.8068 17.0576 18.8283 17.0361 18.8341C15.7857 19.1311 14.5254 19.6215 13.9178 20.4304L14.1249 20.8779C14.1249 20.8779 14.7931 20.0768 16.0983 19.6899C17.7493 19.1995 19.3124 19.0256 20.387 18.9728C20.643 18.9611 21.4909 18.9279 21.7469 18.924C23.2963 18.8947 26.7214 18.9689 29.0719 19.9928L29.3415 19.5551C29.3415 19.5551 28.6108 19.1057 26.9617 18.7403L26.9558 18.7345Z" fill="#C0F1FC"/>
</g>
<defs>
<clipPath id="clip0_152_44631">
<rect width="30.4801" height="33.8055" fill="white" transform="translate(9 7)"/>
</clipPath>
</defs>
</svg>
