<svg width="48" height="48" viewBox="0 0 48 48" fill="none" xmlns="http://www.w3.org/2000/svg">
<circle cx="24" cy="24" r="23" fill="#FAFAFC" stroke="#98E27D" stroke-width="2"/>
<g clip-path="url(#clip0_152_44633)">
<path d="M36.6374 31.4849C36.784 31.4693 36.9305 31.4576 37.079 31.4498C37.2041 31.4419 37.2744 31.4263 37.3975 31.4087C37.4835 31.397 37.7081 31.3403 37.7883 31.3091C38.181 31.1528 38.4623 30.9339 38.7437 30.6174C38.7632 30.5959 38.7828 30.5725 38.8023 30.549C38.9 30.4318 38.9899 30.2989 39.0133 30.1465C39.0368 29.9941 38.9684 29.8202 38.8277 29.7616C38.7066 29.7108 38.5639 29.7538 38.4584 29.832C38.3529 29.9101 38.2748 30.0176 38.1868 30.1153C38.0442 30.2755 37.8723 30.4123 37.6847 30.5158C37.5831 30.5725 37.4659 30.6194 37.3525 30.6057C37.3135 30.6018 37.2861 30.5666 37.292 30.5275C37.3291 30.2911 37.3936 30.0606 37.4327 29.8261C37.4756 29.5702 37.4874 29.3025 37.3994 29.0582C37.292 28.7593 37.0399 28.5248 36.7508 28.39C36.4635 28.2552 36.1255 28.2103 35.8285 28.3177C35.4378 28.4604 35.174 28.8453 35.0802 29.2497C34.9513 29.8027 35.1076 30.4162 35.4847 30.8402C35.5042 30.8616 35.4944 30.8968 35.4651 30.9027C35.0958 30.9886 34.7109 31.0004 34.3378 30.9378C34.2967 31.0355 34.2381 31.4224 34.3163 31.6725C34.3241 31.6998 34.3358 31.7292 34.3592 31.7467C34.3788 31.7604 34.6582 31.776 34.6816 31.776C35.0724 31.7975 35.4593 31.7526 35.8344 31.6412C36.0982 31.5631 36.3678 31.5162 36.6394 31.4869L36.6374 31.4849ZM35.8071 29.5584C35.8071 29.5584 35.8071 29.5467 35.8071 29.5408C35.811 29.4158 35.8403 29.2888 35.9087 29.1833C35.977 29.0778 36.0884 28.9977 36.2135 28.984C36.3072 28.9742 36.4049 29.0035 36.4811 29.0602C36.5573 29.1169 36.6159 29.197 36.6492 29.2849C36.7019 29.4217 36.7 29.576 36.6804 29.7206C36.6511 29.9277 36.5866 30.127 36.4909 30.3126C36.4714 30.3497 36.444 30.4005 36.403 30.4181C36.3619 30.4357 36.2994 30.4025 36.2623 30.383C36.1138 30.3028 35.9946 30.1778 35.9145 30.0293C35.8344 29.8808 35.8031 29.7245 35.8051 29.5623L35.8071 29.5584Z" fill="#5FD147"/>
<path d="M18.7598 17.1612C19.7387 16.9072 20.7469 16.7665 21.7648 16.7548C26.9992 16.6922 32.1124 20.0529 33.992 24.8242C35.475 28.5873 34.8615 33.0245 32.5833 36.3617C30.0843 40.0212 25.6041 40.3084 21.4229 40.3553C18.4257 40.3885 15.3327 39.6871 12.9744 37.8798C9.18203 34.9725 7.99604 29.4821 9.68416 25.0723C11.1613 21.2135 14.7017 18.2143 18.7598 17.1612Z" fill="#CEFFC7"/>
<path d="M20.1296 30.1029C20.155 30.187 19.8014 30.8376 19.9538 30.9118C20.751 31.3007 21.5227 31.5996 23.1562 31.1815C24.1546 30.9255 24.7114 30.1362 24.9166 29.4758C25.1804 28.6297 24.9068 27.2875 23.5372 26.3691C22.4117 27.4262 21.9409 29.1729 20.8154 30.2299C20.5947 30.4371 20.0593 29.8665 20.1277 30.101L20.1296 30.1029Z" fill="#5FD147"/>
<path d="M20.2353 26.144C20.1356 26.1791 20.0399 26.2202 19.9441 26.2671C18.424 27.0095 18.043 29.1939 19.2388 30.3995C19.9266 31.0911 20.9758 31.3627 21.939 31.2103C23.0215 31.0384 24.0355 30.3135 24.4204 29.2858C24.8053 28.258 24.4595 26.9665 23.5373 26.3726C23.039 26.0521 22.4294 25.9466 21.8374 25.9271C21.2962 25.9095 20.7413 25.9603 20.2353 26.144Z" fill="#7DDD6F"/>
<path d="M21.2432 27.953C21.2217 27.8534 21.1924 27.7557 21.1494 27.66C21.0947 27.5349 21.0165 27.4157 20.9012 27.3454C20.786 27.275 20.6258 27.2614 20.5183 27.3434C20.4167 27.4196 20.3815 27.5564 20.3581 27.6834C20.2936 28.0566 20.3073 28.4161 20.3327 28.7912C20.3522 29.0999 20.3405 29.4106 20.4987 29.69C20.5359 29.7564 20.5867 29.8229 20.657 29.8522C20.741 29.8873 20.8407 29.8659 20.9169 29.8151C20.9931 29.7643 21.0458 29.6861 21.0869 29.604C21.208 29.3696 21.2432 29.1019 21.2666 28.8401C21.294 28.5451 21.3057 28.2402 21.2451 27.953H21.2432Z" fill="#CEFFC7"/>
<path d="M22.8765 27.953C22.855 27.8534 22.8257 27.7557 22.7827 27.66C22.728 27.5349 22.6498 27.4157 22.5345 27.3454C22.4193 27.275 22.2591 27.2614 22.1516 27.3434C22.05 27.4196 22.0148 27.5564 21.9914 27.6834C21.9269 28.0566 21.9406 28.4161 21.966 28.7912C21.9855 29.0999 21.9738 29.4106 22.1321 29.69C22.1692 29.7564 22.22 29.8229 22.2903 29.8522C22.3743 29.8873 22.474 29.8659 22.5502 29.8151C22.6264 29.7643 22.6791 29.6861 22.7202 29.604C22.8413 29.3696 22.8765 29.1019 22.8999 28.8401C22.9273 28.5451 22.939 28.2402 22.8784 27.953H22.8765Z" fill="#CEFFC7"/>
<path d="M12.2538 21.6797C12.2538 21.6797 10.9917 17.4985 12.2538 16.164C13.516 14.8276 17.3006 18.1061 17.3006 18.1061C17.3006 18.1061 14.0358 19.6028 12.2538 21.6817V21.6797Z" fill="#CEFFC7"/>
<path d="M26.8486 18.1782C26.8486 18.1782 28.8318 16.2341 30.2561 16.0622C30.5649 16.0251 30.8794 16.1267 31.0983 16.3494C31.575 16.834 32.2569 18.1274 31.7469 21.4431C31.7469 21.4431 30.0393 19.2919 26.8486 18.1782Z" fill="#CEFFC7"/>
<path d="M30.3289 16.8754C30.1668 16.8695 29.9948 16.932 29.8444 17.0024C29.4399 17.1939 29.0746 17.4498 28.7131 17.7058C28.381 17.9402 28.0468 18.1747 27.7635 18.458C27.5642 18.6573 27.3806 18.9289 27.4665 19.1887C27.5408 19.4095 27.7811 19.5385 28.0019 19.6459L30.2645 20.746C30.5439 20.8808 30.9014 21.0586 30.9991 20.6639C31.1867 19.896 31.2101 19.0969 31.1066 18.3154C31.0597 17.9578 30.9854 17.5983 30.8272 17.2681C30.7607 17.1294 30.6709 16.9887 30.5263 16.9203C30.4638 16.891 30.3973 16.8773 30.3289 16.8754Z" fill="#5FD147"/>
<path d="M13.1401 16.8191C13.2456 16.78 13.3668 16.7566 13.5074 16.7527C13.7868 16.7449 14.0662 16.7996 14.3183 16.9109C14.6192 17.0438 14.8732 17.2509 15.1252 17.4561L16.1979 18.3353C16.3093 18.4271 16.4304 18.5366 16.4323 18.6792C16.4323 18.8355 16.2936 18.9566 16.1647 19.0563L13.7732 20.8929C13.652 20.9867 13.4977 21.0863 13.3531 21.0355C13.2378 20.9965 13.1811 20.8773 13.1382 20.7679C12.8275 19.9844 11.917 17.2802 13.1421 16.8211L13.1401 16.8191Z" fill="#5FD147"/>
<path d="M23.127 33.7823C22.5721 33.7823 22.1481 33.5596 22.1403 33.5557C22.0445 33.5049 22.0094 33.3857 22.0621 33.2899C22.1129 33.1961 22.2321 33.159 22.3259 33.2118C22.3767 33.2391 23.506 33.8233 24.3618 32.7663C24.4302 32.6823 24.5533 32.6686 24.6373 32.737C24.7213 32.8054 24.735 32.9285 24.6666 33.0125C24.1762 33.6201 23.6018 33.7843 23.127 33.7843V33.7823Z" fill="#5FD147"/>
<path d="M17.0404 26.9617C17.6048 26.9617 18.0623 26.5042 18.0623 25.9398C18.0623 25.3755 17.6048 24.918 17.0404 24.918C16.4761 24.918 16.0186 25.3755 16.0186 25.9398C16.0186 26.5042 16.4761 26.9617 17.0404 26.9617Z" fill="#2B110C"/>
<path d="M16.7164 25.7306C16.7995 25.7306 16.8668 25.6632 16.8668 25.5801C16.8668 25.497 16.7995 25.4297 16.7164 25.4297C16.6333 25.4297 16.5659 25.497 16.5659 25.5801C16.5659 25.6632 16.6333 25.7306 16.7164 25.7306Z" fill="white"/>
<path d="M26.4227 26.9617C26.9871 26.9617 27.4446 26.5042 27.4446 25.9398C27.4446 25.3755 26.9871 24.918 26.4227 24.918C25.8584 24.918 25.4009 25.3755 25.4009 25.9398C25.4009 26.5042 25.8584 26.9617 26.4227 26.9617Z" fill="#2B110C"/>
<path d="M26.0987 25.7306C26.1818 25.7306 26.2491 25.6632 26.2491 25.5801C26.2491 25.497 26.1818 25.4297 26.0987 25.4297C26.0156 25.4297 25.9482 25.497 25.9482 25.5801C25.9482 25.6632 26.0156 25.7306 26.0987 25.7306Z" fill="white"/>
<path d="M17.8384 10.2457C17.9185 9.50715 18.2077 8.66309 18.5965 8.04763C18.7528 7.79949 18.9501 7.56698 19.2041 7.43998C19.462 7.31102 19.7707 7.30321 20.0326 7.42239C20.3276 7.55526 20.5464 7.8327 20.689 8.1375C20.8317 8.4423 20.902 8.78032 20.9724 9.11248L19.3878 9.69277L18.6101 9.97803C18.3913 10.0581 18.0631 10.2555 17.8403 10.2457H17.8384Z" fill="#7DDD6F"/>
<path d="M22.3809 9.10587L22.586 8.55488C22.7032 8.24226 22.8205 7.92769 23.0002 7.6522C23.18 7.37671 23.4281 7.13834 23.729 7.04455C24.0162 6.95468 24.3269 7.00352 24.6063 7.1188C25.2257 7.37671 25.6868 7.95309 26.0053 8.57833C26.3237 9.20356 26.5953 10.0847 26.8532 10.7393C26.9177 10.9015 27.0935 11.1926 26.8181 11.1222C26.609 11.0695 26.0013 10.7041 25.8021 10.6201C25.38 10.4443 25.2804 10.3133 24.8583 10.1375C24.6551 10.0535 22.4512 9.12931 22.3828 9.10391L22.3809 9.10587Z" fill="#7DDD6F"/>
<path d="M15.4112 20.182C15.3513 19.8498 15.3129 19.6316 15.2959 19.5274C15.1807 18.8397 15.0947 18.1402 15.1181 17.4388C15.1513 16.4071 15.4366 15.3501 16.0951 14.5939C16.2181 14.4513 16.3608 14.3087 16.394 14.1172C16.4155 13.9902 16.3862 13.8613 16.3627 13.7362C16.1244 12.3783 16.8453 10.9715 17.9024 10.1763C18.9594 9.38107 20.2919 9.11535 21.5834 9.08995C22.6952 9.06846 23.8167 9.21304 24.86 9.6253C25.9014 10.0376 26.8627 10.7273 27.5329 11.6749C28.416 12.9215 28.7482 14.5275 28.7716 16.0906C28.7931 17.4798 28.5899 18.8592 28.4141 20.2386C28.3848 20.4692 28.1679 20.6118 27.9627 20.5356C27.2203 20.2621 25.6494 19.885 25.4462 19.84C24.436 19.6173 23.4103 19.4844 22.3806 19.4395C20.3212 19.3516 18.2052 19.4903 16.2729 20.2543C16.1713 20.2933 16.0169 20.3656 15.8469 20.4321C15.6574 20.5043 15.4483 20.393 15.4093 20.182H15.4112Z" fill="#40AF25"/>
<path d="M29.1021 15.611C27.3377 14.1476 25.0595 13.1394 22.8497 12.8033C22.2343 12.7095 21.6169 12.6705 21.0014 12.6802C21.1128 12.6099 21.2163 12.5239 21.3277 12.4282C21.609 12.1859 21.8923 11.9417 22.1209 11.6349C22.1463 11.6017 22.1874 11.5333 22.1893 11.4884C22.1893 11.4317 22.162 11.3868 22.1288 11.3477C22.0193 11.2109 21.8767 11.0331 21.7321 11.1113C21.6755 11.1426 21.5778 11.2266 21.527 11.2696C21.2417 11.5118 20.9643 11.7326 20.679 11.9749C20.6556 11.9964 20.6262 12.0179 20.5969 12.0101C20.55 12.0003 20.5364 11.9319 20.5325 11.8772C20.4738 10.9452 20.5852 9.9976 20.8588 9.11641C20.595 9.10859 20.3293 9.13985 20.0714 9.20824C20.0108 9.22387 19.9483 9.24341 19.8994 9.28444C19.8154 9.35282 19.7744 9.47201 19.7431 9.58729C19.5399 10.3434 19.5966 11.1543 19.5927 11.9456C19.5927 12.0101 19.5848 12.0882 19.534 12.1195C19.4969 12.141 19.4539 12.1273 19.4149 12.1117C19.1042 11.9944 18.8033 11.8401 18.518 11.6545C18.4614 11.6173 18.4008 11.5763 18.3344 11.5802C18.2211 11.588 18.1488 11.717 18.0999 11.8342C18.0765 11.8909 18.0511 11.9866 18.0628 12.0472C18.0765 12.1195 18.1331 12.1683 18.1878 12.2094C18.4946 12.4477 18.8111 12.6705 19.1355 12.8795C18.1839 13.069 17.2461 13.3953 16.3356 13.8682C16.2516 13.9112 16.1597 14.0108 16.1637 14.1105C16.1637 14.1183 15.9898 14.3117 15.9917 14.3176C16.0054 14.3938 16.0816 14.4485 16.1558 14.4543C16.2359 14.4621 16.3141 14.427 16.3903 14.3938C19.2761 13.1198 22.8146 12.9499 25.6906 14.257C26.3256 14.5462 26.9352 14.8939 27.5409 15.2476C27.8438 15.4254 28.1447 15.6051 28.4495 15.781C28.5472 15.8377 29.2095 16.2851 29.104 15.8377C29.0806 15.7419 29.1783 15.6735 29.104 15.613L29.1021 15.611Z" fill="#CEFFC7"/>
</g>
<defs>
<clipPath id="clip0_152_44633">
<rect width="30.0815" height="33.3561" fill="white" transform="translate(9 7)"/>
</clipPath>
</defs>
</svg>
