<svg width="32" height="32" viewBox="0 0 32 32" fill="none" xmlns="http://www.w3.org/2000/svg">
<circle cx="16" cy="16" r="15" fill="#FAFAFC" stroke="#FDD752" stroke-width="2"/>
<g clip-path="url(#clip0_152_44629)">
<path d="M23.7351 21.0718C23.8278 21.0619 23.9205 21.0545 24.0143 21.0495C24.0934 21.0446 24.1379 21.0347 24.2157 21.0236C24.2701 21.0162 24.4122 20.9803 24.4628 20.9606C24.7111 20.8617 24.889 20.7234 25.0669 20.5232C25.0793 20.5096 25.0916 20.4948 25.104 20.48C25.1658 20.4059 25.2226 20.3219 25.2374 20.2255C25.2522 20.1291 25.209 20.0192 25.12 19.9821C25.0435 19.95 24.9533 19.9772 24.8866 20.0266C24.8198 20.076 24.7704 20.144 24.7148 20.2057C24.6246 20.307 24.5159 20.3935 24.3973 20.459C24.3331 20.4948 24.259 20.5245 24.1873 20.5158C24.1626 20.5133 24.1453 20.4911 24.149 20.4664C24.1725 20.3169 24.2133 20.1711 24.238 20.0229C24.2651 19.861 24.2726 19.6918 24.217 19.5374C24.149 19.3483 23.9896 19.2001 23.8068 19.1148C23.6252 19.0296 23.4115 19.0012 23.2237 19.0691C22.9766 19.1593 22.8098 19.4027 22.7505 19.6584C22.669 20.0081 22.7678 20.396 23.0062 20.6641C23.0186 20.6777 23.0124 20.6999 22.9939 20.7036C22.7604 20.758 22.517 20.7654 22.2811 20.7258C22.2551 20.7876 22.218 21.0322 22.2675 21.1904C22.2724 21.2076 22.2798 21.2262 22.2946 21.2373C22.307 21.2459 22.4837 21.2558 22.4985 21.2558C22.7456 21.2694 22.9902 21.241 23.2274 21.1706C23.3942 21.1212 23.5647 21.0915 23.7364 21.073L23.7351 21.0718ZM23.2101 19.8536C23.2101 19.8536 23.2101 19.8462 23.2101 19.8425C23.2126 19.7634 23.2311 19.6831 23.2743 19.6164C23.3176 19.5497 23.388 19.4991 23.4671 19.4904C23.5264 19.4842 23.5881 19.5028 23.6363 19.5386C23.6845 19.5744 23.7216 19.6251 23.7426 19.6807C23.7759 19.7671 23.7747 19.8647 23.7623 19.9562C23.7438 20.0871 23.703 20.2131 23.6425 20.3305C23.6301 20.354 23.6128 20.3861 23.5869 20.3972C23.5609 20.4083 23.5214 20.3873 23.4979 20.375C23.4041 20.3243 23.3287 20.2453 23.278 20.1514C23.2274 20.0575 23.2076 19.9586 23.2089 19.8561L23.2101 19.8536Z" fill="#FFAF22"/>
<path d="M12.4314 12.0153C13.0503 11.8547 13.6878 11.7658 14.3314 11.7584C17.6411 11.7188 20.8742 13.8437 22.0627 16.8606C23.0004 19.2401 22.6125 22.0457 21.172 24.1558C19.5919 26.4697 16.759 26.6513 14.1153 26.681C12.2201 26.702 10.2644 26.2585 8.77329 25.1157C6.37534 23.2786 5.62545 19.8071 6.69285 17.0175C7.62683 14.5776 9.86541 12.6812 12.4314 12.0153Z" fill="#FFF0B0"/>
<path d="M13.2975 20.1988C13.3136 20.2519 13.0899 20.6633 13.1863 20.7102C13.6904 20.9561 14.1784 21.1451 15.2112 20.8807C15.8425 20.7189 16.1946 20.2198 16.3243 19.8022C16.4911 19.2673 16.3181 18.4185 15.4521 17.8379C14.7405 18.5063 14.4427 19.6107 13.7311 20.2791C13.5915 20.41 13.253 20.0493 13.2963 20.1975L13.2975 20.1988Z" fill="#FFAF22"/>
<path d="M13.3641 17.6939C13.3011 17.7161 13.2406 17.7421 13.18 17.7717C12.2189 18.2412 11.978 19.6224 12.7341 20.3846C13.1689 20.822 13.8323 20.9937 14.4414 20.8973C15.1258 20.7886 15.767 20.3303 16.0104 19.6804C16.2538 19.0306 16.0351 18.214 15.452 17.8384C15.1369 17.6358 14.7515 17.5691 14.3772 17.5568C14.035 17.5456 13.6841 17.5778 13.3641 17.6939Z" fill="#FFC931"/>
<path d="M14.0002 18.839C13.9866 18.776 13.9681 18.7143 13.9409 18.6537C13.9063 18.5747 13.8569 18.4993 13.784 18.4548C13.7111 18.4103 13.6098 18.4017 13.5419 18.4536C13.4776 18.5018 13.4554 18.5882 13.4406 18.6685C13.3998 18.9045 13.4084 19.1318 13.4245 19.369C13.4369 19.5642 13.4294 19.7607 13.5295 19.9373C13.553 19.9793 13.5851 20.0213 13.6296 20.0399C13.6827 20.0621 13.7457 20.0485 13.7939 20.0164C13.8421 19.9843 13.8754 19.9349 13.9014 19.883C13.978 19.7347 14.0002 19.5655 14.015 19.3999C14.0323 19.2134 14.0397 19.0206 14.0014 18.839H14.0002Z" fill="#FFF0B0"/>
<path d="M15.0344 18.839C15.0208 18.776 15.0023 18.7143 14.9751 18.6537C14.9405 18.5747 14.8911 18.4993 14.8182 18.4548C14.7453 18.4103 14.644 18.4017 14.5761 18.4536C14.5118 18.5018 14.4896 18.5882 14.4747 18.6685C14.434 18.9045 14.4426 19.1318 14.4587 19.369C14.471 19.5642 14.4636 19.7607 14.5637 19.9373C14.5872 19.9793 14.6193 20.0213 14.6638 20.0399C14.7169 20.0621 14.7799 20.0485 14.8281 20.0164C14.8763 19.9843 14.9096 19.9349 14.9356 19.883C15.0122 19.7347 15.0344 19.5655 15.0492 19.3999C15.0665 19.2134 15.0739 19.0206 15.0356 18.839H15.0344Z" fill="#FFF0B0"/>
<path d="M15.1927 22.5264C14.8419 22.5264 14.5738 22.3856 14.5688 22.3831C14.5083 22.351 14.4861 22.2756 14.5194 22.2151C14.5515 22.1558 14.6269 22.1323 14.6862 22.1657C14.7183 22.183 15.4324 22.5524 15.9735 21.884C16.0167 21.8309 16.0946 21.8222 16.1477 21.8655C16.2008 21.9087 16.2095 21.9865 16.1662 22.0397C15.8549 22.4239 15.4929 22.5277 15.1927 22.5277V22.5264Z" fill="#FFAF22"/>
<path d="M11.3444 18.2141C11.7012 18.2141 11.9905 17.9248 11.9905 17.568C11.9905 17.2112 11.7012 16.9219 11.3444 16.9219C10.9875 16.9219 10.6982 17.2112 10.6982 17.568C10.6982 17.9248 10.9875 18.2141 11.3444 18.2141Z" fill="#2B110C"/>
<path d="M11.1391 17.4344C11.1916 17.4344 11.2342 17.3918 11.2342 17.3393C11.2342 17.2867 11.1916 17.2441 11.1391 17.2441C11.0865 17.2441 11.0439 17.2867 11.0439 17.3393C11.0439 17.3918 11.0865 17.4344 11.1391 17.4344Z" fill="white"/>
<path d="M17.2765 18.2141C17.6333 18.2141 17.9226 17.9248 17.9226 17.568C17.9226 17.2112 17.6333 16.9219 17.2765 16.9219C16.9197 16.9219 16.6304 17.2112 16.6304 17.568C16.6304 17.9248 16.9197 18.2141 17.2765 18.2141Z" fill="#2B110C"/>
<path d="M17.0717 17.4344C17.1242 17.4344 17.1668 17.3918 17.1668 17.3393C17.1668 17.2867 17.1242 17.2441 17.0717 17.2441C17.0192 17.2441 16.9766 17.2867 16.9766 17.3393C16.9766 17.3918 17.0192 17.4344 17.0717 17.4344Z" fill="white"/>
<path d="M14.0733 13.1445C14.0733 13.1445 11.6247 13 9.66163 14.8099C9.66163 14.8099 7.53671 16.322 6.87453 17.8045C6.77199 18.0331 6.48537 18.0874 6.326 17.8984C6.32106 17.8922 6.31612 17.8861 6.31117 17.8811C5.71817 17.1658 5.90349 16.0329 6.6991 15.5906C6.70404 15.5882 6.71021 15.5845 6.71516 15.582C6.71516 15.582 5.92819 14.375 7.16608 13.7721C7.16608 13.7721 6.2074 11.7608 8.00123 11.027C8.00123 11.027 8.10995 8.83907 10.3967 9.26406C10.3967 9.26406 10.1311 8.40297 10.9922 8.24607C10.9922 8.24607 10.9366 6.85375 12.1139 6.32252C13.2938 5.79129 16.307 5.774 17.5164 7.37757C17.5164 7.37757 17.9859 8.09535 18.0971 8.46227C18.0971 8.46227 18.8013 7.9681 19.4338 8.39432C20.1886 8.90332 19.7402 9.81135 19.7402 9.81135C19.7402 9.81135 21.8058 10.1499 21.8515 12.827C21.8515 12.827 23.8776 13.5238 22.9819 15.9971C22.9819 15.9971 23.6009 17.3931 22.4371 18.1233C22.279 18.2221 22.0727 18.1492 21.9961 17.9725C21.5933 17.0509 20.1318 14.3515 16.5232 13.3199C16.5232 13.3199 14.9801 13.0926 14.0733 13.1457V13.1445Z" fill="#5B4428"/>
<path d="M14.0735 13.1445L14.2267 11.3988C14.2292 11.3692 14.2526 11.3457 14.2811 11.3457H14.4651C14.4935 11.3457 14.517 11.3704 14.517 11.4013V13.1383L14.0723 13.1445H14.0735Z" fill="#725836"/>
<path d="M11.2503 12.2653C10.9439 12.0195 10.6227 11.7922 10.2904 11.5822C9.9494 11.3672 9.59113 11.1683 9.20074 11.067C9.0216 11.02 8.82887 10.9966 8.65592 11.0608C8.33224 11.1819 8.19634 11.5636 8.15186 11.9071C8.05797 12.6409 8.20869 13.3822 8.38536 14.1012C8.51014 14.6077 8.85235 14.5484 9.21927 14.2877L11.2923 12.8126C11.3998 12.736 11.5221 12.6199 11.4788 12.4951C11.4603 12.442 11.4158 12.4025 11.3726 12.3667C11.3318 12.3333 11.2911 12.2999 11.2491 12.2666L11.2503 12.2653Z" fill="#FFF0B0"/>
<path d="M8.92555 11.5647C8.98485 11.5425 9.0528 11.5301 9.12939 11.5277C9.28506 11.5239 9.44072 11.5536 9.58156 11.6154C9.74957 11.6895 9.98801 11.8069 10.1276 11.9218L10.7243 12.411C10.7873 12.4616 10.854 12.5234 10.8553 12.6025C10.8553 12.6889 10.7774 12.7569 10.7058 12.8125C10.2623 13.1535 9.71992 13.492 9.27641 13.8329C9.20846 13.8848 9.12322 13.9404 9.04291 13.912C8.97867 13.8898 8.94779 13.8243 8.92308 13.7638C8.75012 13.3277 8.24236 11.8217 8.92431 11.5647H8.92555Z" fill="#FFC931"/>
<path d="M20.4196 11.0744C20.2862 10.9385 20.0947 10.8767 19.9056 10.899C19.0359 11.004 17.8252 12.1912 17.8252 12.1912C17.8252 12.1912 17.1976 12.7953 18.0451 13.3513L19.6796 14.305C19.6796 14.305 20.6469 15.066 20.8149 14.184C21.1262 12.1591 20.7099 11.3697 20.4196 11.0744Z" fill="#FFF0B0"/>
<path d="M19.8859 11.4864C19.7871 11.484 19.682 11.521 19.5906 11.5643C19.3435 11.6816 19.1212 11.8373 18.9 11.9942C18.6974 12.1375 18.4936 12.2808 18.3206 12.4538C18.1983 12.5761 18.0859 12.7404 18.139 12.8998C18.1847 13.0344 18.3317 13.1135 18.4664 13.179C18.9272 13.4026 19.3942 13.7003 19.8538 13.9239C20.0243 14.0067 20.2429 14.1142 20.3022 13.8745C20.4171 13.4063 20.4245 12.8442 20.3615 12.3673C20.3331 12.1486 20.2874 11.9287 20.1898 11.7286C20.149 11.6433 20.0947 11.5581 20.0057 11.5161C19.9674 11.4976 19.9267 11.4889 19.8847 11.4877L19.8859 11.4864Z" fill="#FFC931"/>
</g>
<defs>
<clipPath id="clip0_152_44629">
<rect width="19.275" height="20.6822" fill="white" transform="translate(6 6)"/>
</clipPath>
</defs>
</svg>
