<svg width="32" height="32" viewBox="0 0 32 32" fill="none" xmlns="http://www.w3.org/2000/svg">
<circle cx="16" cy="16" r="15" fill="#FAFAFC" stroke="#A8CAFC" stroke-width="2"/>
<g clip-path="url(#clip0_152_44626)">
<path d="M21.2256 15.9648C21.2256 15.9648 21.8099 16.8877 21.8989 17.5202C21.8989 17.5202 22.5141 18.0342 22.8341 18.4172L22.4487 17.1348C22.4487 17.1348 21.7235 16.2552 21.2268 15.9648H21.2256Z" fill="#4BABF9"/>
<path d="M20.295 13.0637C21.0375 13.3639 21.8022 13.6777 22.3693 14.2448C22.5163 14.3918 22.6534 14.566 22.6843 14.7711C22.7127 14.965 22.6436 15.1615 22.5385 15.3283C22.3792 15.5828 22.142 15.7767 21.8801 15.9213C21.7195 16.0102 21.2339 16.2993 21.0894 16.13L19.8021 14.6179C19.7848 14.5981 19.7675 14.5771 19.7626 14.5512C19.7576 14.5252 19.7675 14.4981 19.7761 14.4721L20.2938 13.0625L20.295 13.0637Z" fill="#1699F2"/>
<path d="M23.4705 20.7651C23.5632 20.7552 23.6558 20.7478 23.7497 20.7429C23.8288 20.7379 23.8732 20.728 23.9511 20.7169C24.0054 20.7095 24.1475 20.6737 24.1982 20.6539C24.4465 20.5551 24.6244 20.4167 24.8023 20.2166C24.8146 20.203 24.827 20.1882 24.8393 20.1733C24.9011 20.0992 24.9579 20.0152 24.9728 19.9188C24.9876 19.8225 24.9444 19.7125 24.8554 19.6755C24.7788 19.6434 24.6886 19.6705 24.6219 19.7199C24.5552 19.7694 24.5058 19.8373 24.4502 19.8991C24.36 20.0004 24.2513 20.0869 24.1327 20.1523C24.0684 20.1882 23.9943 20.2178 23.9227 20.2092C23.8979 20.2067 23.8807 20.1845 23.8844 20.1598C23.9078 20.0103 23.9486 19.8645 23.9733 19.7162C24.0005 19.5544 24.0079 19.3851 23.9523 19.2307C23.8844 19.0417 23.725 18.8935 23.5421 18.8082C23.3605 18.723 23.1468 18.6945 22.959 18.7625C22.7119 18.8527 22.5452 19.0961 22.4859 19.3518C22.4043 19.7014 22.5032 20.0893 22.7416 20.3574C22.754 20.371 22.7478 20.3933 22.7292 20.397C22.4957 20.4513 22.2524 20.4587 22.0164 20.4192C21.9905 20.481 21.9534 20.7256 22.0028 20.8837C22.0078 20.901 22.0152 20.9195 22.03 20.9307C22.0424 20.9393 22.219 20.9492 22.2338 20.9492C22.4809 20.9628 22.7255 20.9344 22.9627 20.8639C23.1295 20.8145 23.3 20.7849 23.4717 20.7663L23.4705 20.7651ZM22.9454 19.547C22.9454 19.547 22.9454 19.5396 22.9454 19.5359C22.9479 19.4568 22.9664 19.3765 23.0097 19.3098C23.0529 19.2431 23.1233 19.1924 23.2024 19.1838C23.2617 19.1776 23.3235 19.1961 23.3717 19.232C23.4198 19.2678 23.4569 19.3184 23.4779 19.374C23.5113 19.4605 23.51 19.5581 23.4977 19.6495C23.4791 19.7805 23.4384 19.9065 23.3778 20.0239C23.3655 20.0473 23.3482 20.0795 23.3222 20.0906C23.2963 20.1017 23.2568 20.0807 23.2333 20.0683C23.1394 20.0177 23.064 19.9386 23.0134 19.8447C22.9627 19.7508 22.943 19.652 22.9442 19.5495L22.9454 19.547Z" fill="#4BABF9"/>
<path d="M12.1662 11.7087C12.7852 11.5481 13.4227 11.4591 14.0663 11.4517C17.376 11.4122 20.6091 13.5371 21.7976 16.554C22.7353 18.9334 22.3473 21.7391 20.9068 23.8492C19.3267 26.1631 16.4939 26.3447 13.8501 26.3743C11.955 26.3954 9.99931 25.9518 8.50816 24.8091C6.11021 22.972 5.36031 19.5005 6.42771 16.7109C7.36169 14.2709 9.60027 12.3746 12.1662 11.7087Z" fill="#CDE7FC"/>
<path d="M13.0324 19.8921C13.0484 19.9453 12.8248 20.3567 12.9212 20.4036C13.4252 20.6494 13.9132 20.8385 14.946 20.5741C15.5773 20.4122 15.9294 19.9131 16.0591 19.4956C16.2259 18.9606 16.053 18.1119 15.1869 17.5312C14.4753 18.1996 14.1776 19.3041 13.466 19.9724C13.3264 20.1034 12.9879 19.7427 13.0311 19.8909L13.0324 19.8921Z" fill="#4BABF9"/>
<path d="M13.099 17.3872C13.036 17.4095 12.9754 17.4354 12.9149 17.4651C11.9537 17.9345 11.7128 19.3157 12.4689 20.078C12.9038 20.5153 13.5672 20.687 14.1763 20.5907C14.8607 20.482 15.5019 20.0236 15.7453 19.3738C15.9886 18.724 15.77 17.9074 15.1868 17.5318C14.8718 17.3292 14.4864 17.2625 14.112 17.2501C13.7698 17.239 13.419 17.2711 13.099 17.3872Z" fill="#86BCFC"/>
<path d="M13.7365 18.5324C13.7229 18.4694 13.7044 18.4076 13.6772 18.3471C13.6426 18.268 13.5932 18.1927 13.5203 18.1482C13.4475 18.1037 13.3461 18.0951 13.2782 18.1469C13.214 18.1951 13.1917 18.2816 13.1769 18.3619C13.1361 18.5979 13.1448 18.8252 13.1608 19.0624C13.1732 19.2576 13.1658 19.454 13.2658 19.6307C13.2893 19.6727 13.3214 19.7147 13.3659 19.7332C13.419 19.7555 13.482 19.7419 13.5302 19.7097C13.5784 19.6776 13.6118 19.6282 13.6377 19.5763C13.7143 19.4281 13.7365 19.2588 13.7514 19.0933C13.7687 18.9067 13.7761 18.714 13.7378 18.5324H13.7365Z" fill="#CDE7FC"/>
<path d="M14.7693 18.5324C14.7557 18.4694 14.7371 18.4076 14.71 18.3471C14.6754 18.268 14.6259 18.1927 14.5531 18.1482C14.4802 18.1037 14.3789 18.0951 14.3109 18.1469C14.2467 18.1951 14.2244 18.2816 14.2096 18.3619C14.1688 18.5979 14.1775 18.8252 14.1935 19.0624C14.2059 19.2576 14.1985 19.454 14.2986 19.6307C14.322 19.6727 14.3542 19.7147 14.3986 19.7332C14.4518 19.7555 14.5148 19.7419 14.5629 19.7097C14.6111 19.6776 14.6445 19.6282 14.6704 19.5763C14.747 19.4281 14.7693 19.2588 14.7841 19.0933C14.8014 18.9067 14.8088 18.714 14.7705 18.5324H14.7693Z" fill="#CDE7FC"/>
<path d="M8.05246 14.5651C8.05246 14.5651 7.25438 11.9213 8.05246 11.0775C8.85054 10.2325 11.2435 12.3055 11.2435 12.3055C11.2435 12.3055 9.17916 13.2518 8.05246 14.5663V14.5651Z" fill="#CDE7FC"/>
<path d="M17.2808 12.3525C17.2808 12.3525 18.5347 11.1232 19.4353 11.0145C19.6305 10.991 19.8294 11.0553 19.9678 11.1961C20.2692 11.5025 20.7004 12.3203 20.378 14.4169C20.378 14.4169 19.2982 13.0567 17.2808 12.3525Z" fill="#CDE7FC"/>
<path d="M19.4813 11.5295C19.3788 11.5258 19.2701 11.5654 19.175 11.6098C18.9192 11.7309 18.6882 11.8928 18.4596 12.0546C18.2496 12.2028 18.0384 12.3511 17.8592 12.5302C17.7332 12.6562 17.6171 12.828 17.6715 12.9923C17.7184 13.1319 17.8704 13.2134 18.01 13.2814L19.4406 13.9769C19.6172 14.0621 19.8433 14.1746 19.9051 13.925C20.0237 13.4395 20.0385 12.9342 19.973 12.44C19.9434 12.214 19.8964 11.9866 19.7964 11.7779C19.7544 11.6901 19.6975 11.6012 19.6061 11.558C19.5666 11.5394 19.5246 11.5308 19.4813 11.5295Z" fill="#4BABF9"/>
<path d="M8.61296 11.4917C8.67968 11.467 8.75627 11.4522 8.84522 11.4497C9.02189 11.4447 9.19855 11.4793 9.35792 11.5498C9.54818 11.6338 9.70878 11.7647 9.86815 11.8944L10.5464 12.4504C10.6168 12.5084 10.6934 12.5776 10.6946 12.6678C10.6946 12.7666 10.6069 12.8432 10.5254 12.9062L9.01324 14.0675C8.93664 14.1268 8.83904 14.1898 8.74762 14.1577C8.67473 14.133 8.63891 14.0577 8.61173 13.9885C8.4153 13.4931 7.83959 11.7832 8.6142 11.4929L8.61296 11.4917Z" fill="#4BABF9"/>
<path d="M14.9276 22.2198C14.5767 22.2198 14.3086 22.0789 14.3037 22.0765C14.2432 22.0444 14.2209 21.969 14.2543 21.9085C14.2864 21.8492 14.3618 21.8257 14.4211 21.859C14.4532 21.8763 15.1673 22.2457 15.7084 21.5774C15.7516 21.5242 15.8294 21.5156 15.8826 21.5588C15.9357 21.6021 15.9443 21.6799 15.9011 21.733C15.5898 22.1172 15.2278 22.221 14.9276 22.221V22.2198Z" fill="#4BABF9"/>
<path d="M11.0792 17.9055C11.4361 17.9055 11.7254 17.6163 11.7254 17.2594C11.7254 16.9026 11.4361 16.6133 11.0792 16.6133C10.7224 16.6133 10.4331 16.9026 10.4331 17.2594C10.4331 17.6163 10.7224 17.9055 11.0792 17.9055Z" fill="#2B110C"/>
<path d="M10.8739 17.1278C10.9265 17.1278 10.9691 17.0852 10.9691 17.0326C10.9691 16.9801 10.9265 16.9375 10.8739 16.9375C10.8214 16.9375 10.7788 16.9801 10.7788 17.0326C10.7788 17.0852 10.8214 17.1278 10.8739 17.1278Z" fill="white"/>
<path d="M17.0114 17.9055C17.3682 17.9055 17.6575 17.6163 17.6575 17.2594C17.6575 16.9026 17.3682 16.6133 17.0114 16.6133C16.6545 16.6133 16.3652 16.9026 16.3652 17.2594C16.3652 17.6163 16.6545 17.9055 17.0114 17.9055Z" fill="#2B110C"/>
<path d="M16.8066 17.1278C16.8591 17.1278 16.9017 17.0852 16.9017 17.0326C16.9017 16.9801 16.8591 16.9375 16.8066 16.9375C16.754 16.9375 16.7114 16.9801 16.7114 17.0326C16.7114 17.0852 16.754 17.1278 16.8066 17.1278Z" fill="white"/>
<path d="M22.4473 17.136L23.9174 18.6729C24.1126 18.8767 24.251 19.1275 24.3177 19.4018C24.4808 20.0664 24.7909 21.3488 24.886 21.9233C24.9922 22.5595 25.1602 23.6911 25.2233 24.1161C25.2368 24.2112 25.1775 24.3014 25.0849 24.3274L24.1163 24.5905C23.9705 24.6301 23.8235 24.5349 23.7988 24.3854L22.8673 18.6259C22.8451 18.4876 22.813 18.3492 22.7722 18.2145L22.4473 17.1348V17.136Z" fill="#1699F2"/>
<path d="M9.45091 13.8728C9.42002 13.8741 9.39037 13.8691 9.36319 13.8531C9.3286 13.8333 9.30389 13.7987 9.28289 13.7654C9.03086 13.3737 8.96539 12.8845 9.0148 12.4212C9.06422 11.9579 9.21988 11.5132 9.38296 11.0771C10.0686 9.24126 10.9297 7.41654 12.3307 6.04522C12.8928 5.49546 13.5945 5.00624 14.3815 5.00006C15.7305 4.99018 16.5966 6.21571 17.1204 7.28929C17.3045 7.66733 17.4799 8.04908 17.6454 8.43453C17.9778 9.20666 18.273 9.99363 18.53 10.7942C18.7511 11.4811 18.9439 12.2211 18.7487 12.9154C18.7116 13.0463 18.6634 13.1958 18.7388 13.3083C18.7956 13.3947 18.9142 13.4367 18.9451 13.5356C18.9797 13.6443 18.8784 13.7567 18.7684 13.7814C18.6585 13.8061 18.5436 13.7666 18.4361 13.7308C16.3693 13.0291 14.1418 12.8042 11.9773 13.0785C11.1681 13.181 10.3491 13.3589 9.65599 13.7901C9.59422 13.8284 9.52133 13.8691 9.45338 13.8728H9.45091Z" fill="#1699F2"/>
<path d="M17.3507 12.4203C17.3507 12.4203 15.6483 12.0459 13.6951 12.1682C13.6729 12.1695 13.6519 12.1497 13.6494 12.1225C13.6371 12.0151 13.6334 11.9434 13.6284 11.8878C13.5592 11.0897 13.5951 10.367 13.7371 9.63563C13.8977 8.8042 14.2881 8.06912 14.6909 7.36987C14.7069 7.34146 14.7032 7.30563 14.6736 7.29081C14.6514 7.27969 14.492 7.23274 14.492 7.23274C14.3944 7.19444 14.3956 7.22286 14.3647 7.26857C14.3339 7.31428 14.2931 7.37234 14.2647 7.41929C14.0732 7.72938 13.9039 8.04194 13.7532 8.38292C13.5605 8.82026 13.4085 9.30207 13.3183 9.78635C13.1812 10.5288 13.201 11.2911 13.2393 12.0571L13.243 12.1102L13.2454 12.1485C13.2454 12.1485 13.2479 12.1942 13.1911 12.1954C12.9774 12.2028 12.3337 12.2473 11.5035 12.4153C11.4899 12.4178 11.4763 12.4067 11.4751 12.3894C11.4751 12.3832 11.4751 12.3758 11.4726 12.3671C11.3454 11.5617 11.4603 10.5227 11.6258 9.84318C11.8062 9.1044 11.9631 8.65224 12.2163 8.04935C12.2719 7.9184 12.3411 7.75285 12.3881 7.61696C12.4017 7.57866 12.2929 7.5453 12.2596 7.53048C12.2386 7.52059 12.1953 7.50206 12.1509 7.48971C12.0829 7.47118 12.0706 7.54654 11.9594 7.79239C11.5393 8.72513 11.4232 9.01051 11.2033 10.1187C11.1946 10.1595 11.1106 10.7413 11.0773 10.7796C11.0588 10.8006 10.9933 10.829 10.9587 10.8451C10.4077 11.091 9.61949 11.3516 9.12656 11.7284C9.01043 11.8174 8.71887 12.2448 8.86465 12.3573C9.29581 11.8977 10.4386 11.4171 11.0427 11.2034C11.0612 11.1972 11.0785 11.2157 11.076 11.238C11.0476 11.5036 11.0452 12.02 11.0983 12.4499C11.1008 12.466 11.0921 12.4796 11.0785 12.4833C10.2879 12.6711 9.49101 12.9811 9.10679 13.4926L9.23774 13.7755C9.23774 13.7755 9.66026 13.269 10.4855 13.0244C11.5294 12.7143 12.5178 12.6043 13.1973 12.571C13.3591 12.5636 13.8953 12.5426 14.0571 12.5401C15.0368 12.5216 17.2025 12.5685 18.6887 13.2159L18.8592 12.9391C18.8592 12.9391 18.3971 12.655 17.3545 12.424L17.3507 12.4203Z" fill="#C0F1FC"/>
</g>
<defs>
<clipPath id="clip0_152_44626">
<rect width="19.2725" height="21.3752" fill="white" transform="translate(6 5)"/>
</clipPath>
</defs>
</svg>
