<svg width="32" height="32" viewBox="0 0 32 32" fill="none" xmlns="http://www.w3.org/2000/svg">
<circle cx="16" cy="16" r="15" fill="#FAFAFC" stroke="#FFB384" stroke-width="2"/>
<g clip-path="url(#clip0_152_44627)">
<path d="M23.4705 21.4155C23.5632 21.4056 23.6558 21.3982 23.7497 21.3933C23.8288 21.3883 23.8732 21.3784 23.9511 21.3673C24.0054 21.3599 24.1475 21.3241 24.1982 21.3043C24.4465 21.2055 24.6244 21.0671 24.8023 20.867C24.8146 20.8534 24.827 20.8386 24.8393 20.8237C24.9011 20.7496 24.9579 20.6656 24.9728 20.5692C24.9876 20.4729 24.9444 20.3629 24.8554 20.3259C24.7788 20.2937 24.6886 20.3209 24.6219 20.3703C24.5552 20.4198 24.5058 20.4877 24.4502 20.5495C24.36 20.6508 24.2513 20.7373 24.1327 20.8027C24.0684 20.8386 23.9943 20.8682 23.9227 20.8596C23.8979 20.8571 23.8807 20.8349 23.8844 20.8101C23.9078 20.6607 23.9486 20.5149 23.9733 20.3666C24.0005 20.2048 24.0079 20.0355 23.9523 19.8811C23.8844 19.6921 23.725 19.5438 23.5421 19.4586C23.3605 19.3734 23.1468 19.3449 22.959 19.4129C22.7119 19.5031 22.5452 19.7465 22.4859 20.0022C22.4043 20.3518 22.5032 20.7397 22.7416 21.0078C22.754 21.0214 22.7478 21.0436 22.7292 21.0473C22.4957 21.1017 22.2524 21.1091 22.0164 21.0696C21.9905 21.1314 21.9534 21.376 22.0028 21.5341C22.0078 21.5514 22.0152 21.5699 22.03 21.581C22.0424 21.5897 22.219 21.5996 22.2338 21.5996C22.4809 21.6132 22.7255 21.5848 22.9627 21.5143C23.1295 21.4649 23.3 21.4353 23.4717 21.4167L23.4705 21.4155ZM22.9454 20.1974C22.9454 20.1974 22.9454 20.19 22.9454 20.1863C22.9479 20.1072 22.9664 20.0269 23.0097 19.9602C23.0529 19.8935 23.1233 19.8428 23.2024 19.8342C23.2617 19.828 23.3235 19.8465 23.3717 19.8823C23.4198 19.9182 23.4569 19.9688 23.4779 20.0244C23.5113 20.1109 23.51 20.2085 23.4977 20.2999C23.4791 20.4309 23.4384 20.5569 23.3778 20.6743C23.3655 20.6977 23.3482 20.7298 23.3222 20.741C23.2963 20.7521 23.2568 20.7311 23.2333 20.7187C23.1394 20.6681 23.064 20.589 23.0134 20.4951C22.9627 20.4012 22.943 20.3024 22.9442 20.1999L22.9454 20.1974Z" fill="#FF816C"/>
<path d="M12.1662 12.3591C12.7852 12.1985 13.4227 12.1095 14.0663 12.1021C17.376 12.0626 20.6091 14.1875 21.7976 17.2044C22.7353 19.5838 22.3473 22.3894 20.9068 24.4995C19.3267 26.8135 16.4939 26.9951 13.8501 27.0247C11.955 27.0457 9.99931 26.6022 8.50816 25.4595C6.11021 23.6224 5.36031 20.1509 6.42771 17.3613C7.36169 14.9213 9.60027 13.025 12.1662 12.3591Z" fill="#FCC9BB"/>
<path d="M13.0324 20.5425C13.0484 20.5957 12.8248 21.007 12.9212 21.054C13.4252 21.2998 13.9132 21.4889 14.946 21.2245C15.5773 21.0626 15.9294 20.5635 16.0591 20.146C16.2259 19.611 16.053 18.7623 15.1869 18.1816C14.4753 18.85 14.1776 19.9545 13.466 20.6228C13.3264 20.7538 12.9879 20.393 13.0311 20.5413L13.0324 20.5425Z" fill="#FF816C"/>
<path d="M13.099 18.0376C13.036 18.0599 12.9754 18.0858 12.9149 18.1155C11.9537 18.5849 11.7128 19.9661 12.4689 20.7284C12.9038 21.1657 13.5672 21.3374 14.1763 21.2411C14.8607 21.1324 15.5019 20.674 15.7453 20.0242C15.9886 19.3744 15.77 18.5577 15.1868 18.1822C14.8718 17.9796 14.4864 17.9129 14.112 17.9005C13.7698 17.8894 13.419 17.9215 13.099 18.0376Z" fill="#FF9578"/>
<path d="M13.7365 19.1828C13.7229 19.1198 13.7044 19.058 13.6772 18.9975C13.6426 18.9184 13.5932 18.843 13.5203 18.7986C13.4475 18.7541 13.3461 18.7454 13.2782 18.7973C13.214 18.8455 13.1917 18.932 13.1769 19.0123C13.1361 19.2483 13.1448 19.4756 13.1608 19.7128C13.1732 19.908 13.1658 20.1044 13.2658 20.2811C13.2893 20.3231 13.3214 20.3651 13.3659 20.3836C13.419 20.4058 13.482 20.3923 13.5302 20.3601C13.5784 20.328 13.6118 20.2786 13.6377 20.2267C13.7143 20.0785 13.7365 19.9092 13.7514 19.7437C13.7687 19.5571 13.7761 19.3644 13.7378 19.1828H13.7365Z" fill="#FCC9BB"/>
<path d="M14.7693 19.1828C14.7557 19.1198 14.7371 19.058 14.71 18.9975C14.6754 18.9184 14.6259 18.843 14.5531 18.7986C14.4802 18.7541 14.3789 18.7454 14.3109 18.7973C14.2467 18.8455 14.2244 18.932 14.2096 19.0123C14.1688 19.2483 14.1775 19.4756 14.1935 19.7128C14.2059 19.908 14.1985 20.1044 14.2986 20.2811C14.322 20.3231 14.3542 20.3651 14.3986 20.3836C14.4518 20.4058 14.5148 20.3923 14.5629 20.3601C14.6111 20.328 14.6445 20.2786 14.6704 20.2267C14.747 20.0785 14.7693 19.9092 14.7841 19.7437C14.8014 19.5571 14.8088 19.3644 14.7705 19.1828H14.7693Z" fill="#FCC9BB"/>
<path d="M8.05246 15.2155C8.05246 15.2155 7.25438 12.5717 8.05246 11.7279C8.85054 10.8829 11.2435 12.9559 11.2435 12.9559C11.2435 12.9559 9.17916 13.9022 8.05246 15.2167V15.2155Z" fill="#FCC9BB"/>
<path d="M17.2808 13.0029C17.2808 13.0029 18.5347 11.7736 19.4353 11.6649C19.6305 11.6414 19.8294 11.7057 19.9678 11.8465C20.2692 12.1529 20.7004 12.9707 20.378 15.0672C20.378 15.0672 19.2982 13.707 17.2808 13.0029Z" fill="#FCC9BB"/>
<path d="M19.4813 12.1799C19.3788 12.1762 19.2701 12.2158 19.175 12.2602C18.9192 12.3813 18.6882 12.5431 18.4596 12.705C18.2496 12.8532 18.0384 13.0015 17.8592 13.1806C17.7332 13.3066 17.6171 13.4784 17.6715 13.6427C17.7184 13.7823 17.8704 13.8638 18.01 13.9318L19.4406 14.6273C19.6172 14.7125 19.8433 14.825 19.9051 14.5754C20.0237 14.0899 20.0385 13.5846 19.973 13.0904C19.9434 12.8644 19.8964 12.637 19.7964 12.4282C19.7544 12.3405 19.6975 12.2516 19.6061 12.2083C19.5666 12.1898 19.5246 12.1812 19.4813 12.1799Z" fill="#FF816C"/>
<path d="M8.61296 12.1421C8.67968 12.1174 8.75627 12.1025 8.84522 12.1001C9.02189 12.0951 9.19855 12.1297 9.35792 12.2001C9.54818 12.2842 9.70878 12.4151 9.86815 12.5448L10.5464 13.1008C10.6168 13.1588 10.6934 13.228 10.6946 13.3182C10.6946 13.417 10.6069 13.4936 10.5254 13.5566L9.01324 14.7179C8.93664 14.7772 8.83904 14.8402 8.74762 14.8081C8.67473 14.7834 8.63891 14.708 8.61173 14.6389C8.4153 14.1435 7.83959 12.4336 8.6142 12.1433L8.61296 12.1421Z" fill="#FF816C"/>
<path d="M14.9276 22.8702C14.5767 22.8702 14.3086 22.7293 14.3037 22.7269C14.2432 22.6947 14.2209 22.6194 14.2543 22.5589C14.2864 22.4996 14.3618 22.4761 14.4211 22.5094C14.4532 22.5267 15.1673 22.8961 15.7084 22.2278C15.7516 22.1746 15.8294 22.166 15.8826 22.2092C15.9357 22.2525 15.9443 22.3303 15.9011 22.3834C15.5898 22.7676 15.2278 22.8714 14.9276 22.8714V22.8702Z" fill="#FF816C"/>
<path d="M11.0792 18.5559C11.4361 18.5559 11.7254 18.2666 11.7254 17.9098C11.7254 17.553 11.4361 17.2637 11.0792 17.2637C10.7224 17.2637 10.4331 17.553 10.4331 17.9098C10.4331 18.2666 10.7224 18.5559 11.0792 18.5559Z" fill="#2B110C"/>
<path d="M10.8739 17.7781C10.9265 17.7781 10.9691 17.7356 10.9691 17.683C10.9691 17.6305 10.9265 17.5879 10.8739 17.5879C10.8214 17.5879 10.7788 17.6305 10.7788 17.683C10.7788 17.7356 10.8214 17.7781 10.8739 17.7781Z" fill="white"/>
<path d="M17.0114 18.5559C17.3682 18.5559 17.6575 18.2666 17.6575 17.9098C17.6575 17.553 17.3682 17.2637 17.0114 17.2637C16.6545 17.2637 16.3652 17.553 16.3652 17.9098C16.3652 18.2666 16.6545 18.5559 17.0114 18.5559Z" fill="#2B110C"/>
<path d="M16.8066 17.7781C16.8591 17.7781 16.9017 17.7356 16.9017 17.683C16.9017 17.6305 16.8591 17.5879 16.8066 17.5879C16.754 17.5879 16.7114 17.6305 16.7114 17.683C16.7114 17.7356 16.754 17.7781 16.8066 17.7781Z" fill="white"/>
<path d="M9.8597 6.21608C9.85228 6.12589 9.84363 6.03694 9.83252 5.94799C9.79916 5.67249 9.72503 4.82005 10.1661 5.20674C10.6887 5.66385 11.1458 6.8412 12.38 6.07277C13.6141 5.30434 14.3047 4.52232 15.0324 5.3624C15.5204 5.92575 16.2283 6.98822 17.082 7.05863C17.906 7.12782 18.4113 6.39151 18.6485 5.84545C18.6485 5.84545 18.9339 5.33769 18.9487 6.07771C18.9635 6.81773 18.7275 9.506 18.284 11.5284C17.8405 13.5508 17.523 14.3007 17.523 14.3007C17.523 14.3007 15.0732 10.2164 10.3539 13.783C10.3539 13.783 10.0277 8.21993 9.85846 6.21608H9.8597Z" fill="#FC644F"/>
<path d="M11.0121 14.2637C10.9602 14.276 10.849 14.2674 10.7971 14.2562C10.6563 14.2278 10.576 14.1537 10.4747 14.0326C10.0163 13.4829 9.5963 12.8874 9.2195 12.2524C8.93659 11.7768 8.67221 11.2529 8.63144 10.6698C8.62402 10.5673 8.64132 10.4351 8.72286 10.4079C8.79698 10.3832 8.8637 10.4635 8.91929 10.5277C9.15649 10.8008 9.51847 10.8786 9.83968 10.7946C10.1609 10.7106 10.445 10.482 10.6847 10.2115C11.5087 9.28368 11.8485 7.91113 12.3389 6.68806C12.4044 6.52622 12.481 6.35574 12.6157 6.27791C12.8047 6.16795 13.0295 6.28408 13.2013 6.42863C13.6682 6.82025 13.9857 7.41449 14.3761 7.91237C14.9667 8.66474 15.7215 9.19473 16.4726 9.69755C17.1077 10.1225 17.7562 10.5413 18.4617 10.7477C18.8014 10.8465 19.1671 10.8922 19.4957 10.7501C19.5563 10.7242 19.6267 10.6933 19.681 10.7353C19.749 10.7884 19.7342 10.9107 19.7119 11.0034C19.4451 12.0671 18.9027 13.006 18.3221 13.8498C18.2022 14.024 18.1664 14.3205 17.8106 14.3057C17.2386 14.2822 16.3886 14.1315 15.9414 14.0314C14.2872 13.6608 12.7726 13.4483 11.2629 14.1685C11.1888 14.2044 11.0899 14.2439 11.0121 14.2624V14.2637Z" fill="#FF9578"/>
</g>
<defs>
<clipPath id="clip0_152_44627">
<rect width="19.0205" height="22.0263" fill="white" transform="translate(6 5)"/>
</clipPath>
</defs>
</svg>
