<svg width="32" height="32" viewBox="0 0 32 32" fill="none" xmlns="http://www.w3.org/2000/svg">
<circle cx="16" cy="16" r="15" fill="#FAFAFC" stroke="#98E27D" stroke-width="2"/>
<g clip-path="url(#clip0_152_44628)">
<path d="M23.4773 20.4819C23.57 20.472 23.6626 20.4646 23.7565 20.4597C23.8356 20.4547 23.8801 20.4448 23.9579 20.4337C24.0123 20.4263 24.1543 20.3905 24.205 20.3707C24.4533 20.2719 24.6312 20.1335 24.8091 19.9334C24.8215 19.9198 24.8338 19.905 24.8462 19.8901C24.9079 19.816 24.9648 19.732 24.9796 19.6356C24.9944 19.5393 24.9512 19.4293 24.8622 19.3923C24.7856 19.3601 24.6955 19.3873 24.6287 19.4367C24.562 19.4862 24.5126 19.5541 24.457 19.6159C24.3668 19.7172 24.2581 19.8037 24.1395 19.8691C24.0753 19.905 24.0011 19.9346 23.9295 19.926C23.9048 19.9235 23.8875 19.9013 23.8912 19.8766C23.9147 19.7271 23.9554 19.5813 23.9801 19.433C24.0073 19.2712 24.0147 19.1019 23.9591 18.9475C23.8912 18.7585 23.7318 18.6102 23.549 18.525C23.3674 18.4398 23.1537 18.4113 22.9659 18.4793C22.7188 18.5695 22.552 18.8129 22.4927 19.0686C22.4112 19.4182 22.51 19.8061 22.7484 20.0742C22.7608 20.0878 22.7546 20.11 22.7361 20.1138C22.5026 20.1681 22.2592 20.1755 22.0232 20.136C21.9973 20.1978 21.9602 20.4424 22.0097 20.6005C22.0146 20.6178 22.022 20.6363 22.0368 20.6475C22.0492 20.6561 22.2259 20.666 22.2407 20.666C22.4878 20.6796 22.7324 20.6512 22.9696 20.5807C23.1364 20.5313 23.3068 20.5017 23.4786 20.4831L23.4773 20.4819ZM22.9523 19.2638C22.9523 19.2638 22.9523 19.2564 22.9523 19.2527C22.9547 19.1736 22.9733 19.0933 23.0165 19.0266C23.0598 18.9599 23.1302 18.9092 23.2092 18.9006C23.2685 18.8944 23.3303 18.9129 23.3785 18.9488C23.4267 18.9846 23.4637 19.0352 23.4847 19.0908C23.5181 19.1773 23.5169 19.2749 23.5045 19.3663C23.486 19.4973 23.4452 19.6233 23.3847 19.7407C23.3723 19.7641 23.355 19.7963 23.3291 19.8074C23.3031 19.8185 23.2636 19.7975 23.2401 19.7851C23.1462 19.7345 23.0709 19.6554 23.0202 19.5615C22.9696 19.4676 22.9498 19.3688 22.951 19.2663L22.9523 19.2638Z" fill="#5FD147"/>
<path d="M12.1731 11.4235C12.792 11.2629 13.4295 11.174 14.0731 11.1666C17.3828 11.127 20.6159 13.2519 21.8044 16.2688C22.7421 18.6483 22.3542 21.4539 20.9137 23.564C19.3336 25.8779 16.5007 26.0595 13.8569 26.0892C11.9618 26.1102 10.0061 25.6667 8.51499 24.5239C6.11704 22.6856 5.36714 19.2141 6.43455 16.4257C7.36852 13.9858 9.60711 12.0894 12.1731 11.4235Z" fill="#CEFFC7"/>
<path d="M13.0392 19.607C13.0553 19.6601 12.8316 20.0715 12.928 20.1184C13.4321 20.3643 13.9201 20.5533 14.9529 20.2889C15.5842 20.1271 15.9363 19.628 16.066 19.2104C16.2328 18.6755 16.0598 17.8267 15.1938 17.2461C14.4822 17.9145 14.1844 19.0189 13.4728 19.6873C13.3332 19.8182 12.9947 19.4575 13.038 19.6057L13.0392 19.607Z" fill="#5FD147"/>
<path d="M13.1058 17.104C13.0428 17.1263 12.9823 17.1522 12.9217 17.1819C11.9606 17.6513 11.7197 19.0325 12.4758 19.7948C12.9106 20.2321 13.574 20.4038 14.1831 20.3075C14.8675 20.1988 15.5087 19.7404 15.7521 19.0906C15.9955 18.4408 15.7768 17.6242 15.1937 17.2486C14.8786 17.046 14.4932 16.9793 14.1189 16.9669C13.7767 16.9558 13.4258 16.9879 13.1058 17.104Z" fill="#7DDD6F"/>
<path d="M13.7434 18.2472C13.7298 18.1842 13.7113 18.1225 13.6841 18.0619C13.6495 17.9829 13.6001 17.9075 13.5272 17.863C13.4543 17.8185 13.353 17.8099 13.285 17.8618C13.2208 17.91 13.1986 17.9964 13.1837 18.0767C13.143 18.3127 13.1516 18.54 13.1677 18.7772C13.18 18.9724 13.1726 19.1689 13.2727 19.3455C13.2962 19.3875 13.3283 19.4295 13.3727 19.4481C13.4259 19.4703 13.4889 19.4567 13.5371 19.4246C13.5852 19.3925 13.6186 19.3431 13.6445 19.2912C13.7211 19.1429 13.7434 18.9737 13.7582 18.8081C13.7755 18.6216 13.7829 18.4288 13.7446 18.2472H13.7434Z" fill="#CEFFC7"/>
<path d="M14.7761 18.2472C14.7625 18.1842 14.744 18.1225 14.7168 18.0619C14.6822 17.9829 14.6328 17.9075 14.5599 17.863C14.487 17.8185 14.3857 17.8099 14.3177 17.8618C14.2535 17.91 14.2313 17.9964 14.2164 18.0767C14.1757 18.3127 14.1843 18.54 14.2004 18.7772C14.2127 18.9724 14.2053 19.1689 14.3054 19.3455C14.3289 19.3875 14.361 19.4295 14.4055 19.4481C14.4586 19.4703 14.5216 19.4567 14.5698 19.4246C14.618 19.3925 14.6513 19.3431 14.6773 19.2912C14.7539 19.1429 14.7761 18.9737 14.7909 18.8081C14.8082 18.6216 14.8156 18.4288 14.7773 18.2472H14.7761Z" fill="#CEFFC7"/>
<path d="M8.05929 14.2799C8.05929 14.2799 7.26121 11.6361 8.05929 10.7923C8.85737 9.94731 11.2504 12.0203 11.2504 12.0203C11.2504 12.0203 9.186 12.9667 8.05929 14.2812V14.2799Z" fill="#CEFFC7"/>
<path d="M17.2876 12.0673C17.2876 12.0673 18.5415 10.8381 19.4422 10.7293C19.6374 10.7059 19.8363 10.7701 19.9746 10.911C20.2761 11.2173 20.7072 12.0352 20.3848 14.1317C20.3848 14.1317 19.305 12.7715 17.2876 12.0673Z" fill="#CEFFC7"/>
<path d="M19.4882 11.2444C19.3856 11.2407 19.2769 11.2802 19.1818 11.3247C18.9261 11.4458 18.695 11.6076 18.4665 11.7694C18.2565 11.9177 18.0452 12.0659 17.8661 12.2451C17.7401 12.3711 17.6239 12.5428 17.6783 12.7071C17.7252 12.8467 17.8772 12.9283 18.0168 12.9962L19.4474 13.6917C19.6241 13.777 19.8502 13.8894 19.9119 13.6399C20.0305 13.1543 20.0454 12.6491 19.9799 12.1549C19.9502 11.9288 19.9033 11.7015 19.8032 11.4927C19.7612 11.405 19.7044 11.316 19.613 11.2728C19.5734 11.2543 19.5314 11.2456 19.4882 11.2444Z" fill="#5FD147"/>
<path d="M8.6198 11.2085C8.68651 11.1838 8.76311 11.169 8.85206 11.1665C9.02872 11.1615 9.20539 11.1961 9.36476 11.2665C9.55501 11.3506 9.71562 11.4815 9.87499 11.6112L10.5532 12.1672C10.6237 12.2252 10.7002 12.2944 10.7015 12.3846C10.7015 12.4834 10.6138 12.56 10.5322 12.623L9.02008 13.7843C8.94348 13.8436 8.84588 13.9066 8.75446 13.8745C8.68157 13.8498 8.64574 13.7745 8.61856 13.7053C8.42213 13.2099 7.84643 11.5 8.62103 11.2097L8.6198 11.2085Z" fill="#5FD147"/>
<path d="M14.9344 21.9346C14.5836 21.9346 14.3155 21.7938 14.3105 21.7913C14.25 21.7592 14.2278 21.6838 14.2611 21.6233C14.2932 21.564 14.3686 21.5405 14.4279 21.5739C14.46 21.5912 15.1741 21.9606 15.7152 21.2922C15.7584 21.2391 15.8363 21.2304 15.8894 21.2737C15.9425 21.3169 15.9512 21.3948 15.9079 21.4479C15.5978 21.8321 15.2346 21.9359 14.9344 21.9359V21.9346Z" fill="#5FD147"/>
<path d="M11.0861 17.6204C11.4429 17.6204 11.7322 17.3311 11.7322 16.9742C11.7322 16.6174 11.4429 16.3281 11.0861 16.3281C10.7292 16.3281 10.4399 16.6174 10.4399 16.9742C10.4399 17.3311 10.7292 17.6204 11.0861 17.6204Z" fill="#2B110C"/>
<path d="M10.8808 16.8426C10.9333 16.8426 10.9759 16.8 10.9759 16.7475C10.9759 16.6949 10.9333 16.6523 10.8808 16.6523C10.8282 16.6523 10.7856 16.6949 10.7856 16.7475C10.7856 16.8 10.8282 16.8426 10.8808 16.8426Z" fill="white"/>
<path d="M17.0182 17.6204C17.375 17.6204 17.6643 17.3311 17.6643 16.9742C17.6643 16.6174 17.375 16.3281 17.0182 16.3281C16.6614 16.3281 16.3721 16.6174 16.3721 16.9742C16.3721 17.3311 16.6614 17.6204 17.0182 17.6204Z" fill="#2B110C"/>
<path d="M16.8134 16.8426C16.8659 16.8426 16.9085 16.8 16.9085 16.7475C16.9085 16.6949 16.8659 16.6523 16.8134 16.6523C16.7609 16.6523 16.7183 16.6949 16.7183 16.7475C16.7183 16.8 16.7609 16.8426 16.8134 16.8426Z" fill="white"/>
<path d="M11.5913 7.0515C11.642 6.58452 11.8248 6.05081 12.0707 5.66166C12.1695 5.50476 12.2943 5.35774 12.4549 5.27744C12.6179 5.1959 12.8131 5.19096 12.9787 5.26632C13.1652 5.35033 13.3036 5.52576 13.3938 5.71849C13.484 5.91121 13.5284 6.12494 13.5729 6.33496L12.571 6.70188L12.0793 6.88225C11.9409 6.9329 11.7334 7.05768 11.5925 7.0515H11.5913Z" fill="#7DDD6F"/>
<path d="M14.4634 6.33082L14.5931 5.98243C14.6672 5.78477 14.7413 5.58586 14.855 5.41167C14.9687 5.23747 15.1256 5.08675 15.3158 5.02745C15.4974 4.97062 15.6939 5.00151 15.8705 5.0744C16.2622 5.23747 16.5537 5.60192 16.7551 5.99726C16.9565 6.39259 17.1282 6.94977 17.2913 7.36363C17.332 7.46617 17.4432 7.65025 17.269 7.60577C17.1368 7.57242 16.7526 7.34139 16.6266 7.28827C16.3597 7.17708 16.2967 7.09431 16.0299 6.98312C15.9014 6.93 14.5079 6.34565 14.4646 6.32959L14.4634 6.33082Z" fill="#7DDD6F"/>
<path d="M10.0569 13.3351C10.019 13.1251 9.99472 12.9871 9.98401 12.9212C9.91112 12.4864 9.85676 12.0441 9.87159 11.6006C9.89259 10.9483 10.073 10.2799 10.4893 9.80179C10.5671 9.71161 10.6573 9.62142 10.6783 9.50035C10.6919 9.42005 10.6734 9.33851 10.6586 9.25944C10.5078 8.40083 10.9637 7.51132 11.6321 7.00851C12.3004 6.50569 13.143 6.33768 13.9596 6.32161C14.6625 6.30802 15.3717 6.39945 16.0314 6.66012C16.6899 6.92079 17.2977 7.3569 17.7214 7.95608C18.2799 8.74427 18.4899 9.75979 18.5047 10.7481C18.5183 11.6265 18.3898 12.4987 18.2786 13.3709C18.2601 13.5167 18.123 13.6069 17.9932 13.5587C17.5238 13.3857 16.5305 13.1473 16.402 13.1189C15.7633 12.9781 15.1147 12.894 14.4636 12.8656C13.1615 12.81 11.8236 12.8978 10.6017 13.3808C10.5375 13.4055 10.4399 13.4512 10.3324 13.4932C10.2126 13.5389 10.0804 13.4685 10.0557 13.3351H10.0569Z" fill="#40AF25"/>
<path d="M18.7125 10.4432C17.5969 9.51789 16.1564 8.88041 14.7592 8.66792C14.37 8.60862 13.9796 8.58391 13.5905 8.59009C13.6609 8.54561 13.7264 8.49125 13.7968 8.43072C13.9747 8.27752 14.1538 8.1231 14.2984 7.92914C14.3144 7.90813 14.3404 7.86489 14.3416 7.83648C14.3416 7.80065 14.3243 7.77224 14.3033 7.74753C14.2341 7.66105 14.1439 7.54863 14.0525 7.59804C14.0167 7.61781 13.9549 7.67093 13.9228 7.69811C13.7424 7.8513 13.567 7.99091 13.3866 8.1441C13.3718 8.15769 13.3533 8.17128 13.3347 8.16634C13.3051 8.16016 13.2964 8.11692 13.294 8.08233C13.2569 7.49303 13.3273 6.89385 13.5003 6.33668C13.3335 6.33174 13.1655 6.35151 13.0024 6.39474C12.9641 6.40463 12.9246 6.41698 12.8937 6.44293C12.8406 6.48617 12.8146 6.56153 12.7949 6.63442C12.6664 7.11252 12.7022 7.62522 12.6997 8.12557C12.6997 8.16634 12.6948 8.21575 12.6627 8.23552C12.6392 8.24911 12.612 8.24046 12.5873 8.23058C12.3909 8.15645 12.2006 8.05886 12.0203 7.94149C11.9844 7.91802 11.9461 7.89207 11.9041 7.89454C11.8325 7.89949 11.7868 7.98102 11.7559 8.05515C11.7411 8.09098 11.725 8.15151 11.7324 8.18981C11.7411 8.23552 11.7769 8.26641 11.8115 8.29235C12.0054 8.44307 12.2056 8.58391 12.4107 8.7161C11.809 8.83593 11.216 9.04225 10.6403 9.34122C10.5872 9.3684 10.5291 9.43141 10.5316 9.49441C10.5316 9.49935 10.4216 9.62166 10.4229 9.62537C10.4315 9.67355 10.4797 9.70814 10.5266 9.71185C10.5773 9.71679 10.6267 9.69455 10.6749 9.67355C12.4996 8.86806 14.7369 8.76057 16.5555 9.58707C16.957 9.76991 17.3424 9.98982 17.7254 10.2134C17.9169 10.3259 18.1072 10.4395 18.2999 10.5507C18.3617 10.5865 18.7805 10.8694 18.7138 10.5865C18.6989 10.526 18.7607 10.4827 18.7138 10.4445L18.7125 10.4432Z" fill="#CEFFC7"/>
</g>
<defs>
<clipPath id="clip0_152_44628">
<rect width="19.0205" height="21.0911" fill="white" transform="translate(6 5)"/>
</clipPath>
</defs>
</svg>
