<svg width="32" height="32" viewBox="0 0 32 32" fill="none" xmlns="http://www.w3.org/2000/svg">
<circle cx="16" cy="16" r="15" fill="#FAFAFC" stroke="#AAAECD" stroke-width="2"/>
<g clip-path="url(#clip0_152_44625)">
<path d="M14.2131 8.83368C14.8321 8.67308 15.4695 8.58413 16.1132 8.57671C19.4229 8.53718 22.656 10.6621 23.8444 13.679C24.7821 16.0584 24.3942 18.8641 22.9537 20.9742C21.3736 23.2881 18.5408 23.4697 15.897 23.4993C14.0019 23.5204 12.0462 23.0768 10.555 21.9341C8.15708 20.097 7.40718 16.6255 8.47459 13.8359C9.40856 11.3959 11.6471 9.49957 14.2131 8.83368Z" fill="#E8EDED"/>
<path d="M15.0792 17.0171C15.0953 17.0703 14.8717 17.4817 14.968 17.5286C15.4721 17.7744 15.9601 17.9635 16.9929 17.6991C17.6242 17.5372 17.9763 17.0381 18.106 16.6206C18.2728 16.0856 18.0998 15.2369 17.2338 14.6562C16.5222 15.3246 16.2245 16.4291 15.5129 17.0974C15.3733 17.2284 15.0348 16.8677 15.078 17.0159L15.0792 17.0171Z" fill="#C7C9D1"/>
<path d="M15.1459 14.5122C15.0829 14.5345 15.0223 14.5604 14.9618 14.5901C14.0006 15.0595 13.7597 16.4407 14.5158 17.203C14.9507 17.6403 15.6141 17.812 16.2231 17.7157C16.9076 17.607 17.5487 17.1486 17.7921 16.4988C18.0355 15.849 17.8168 15.0324 17.2337 14.6568C16.9187 14.4542 16.5332 14.3875 16.1589 14.3751C15.8167 14.364 15.4658 14.3961 15.1459 14.5122Z" fill="#D5D8E0"/>
<path d="M15.7834 15.6574C15.7698 15.5944 15.7513 15.5326 15.7241 15.4721C15.6895 15.393 15.6401 15.3177 15.5672 15.2732C15.4943 15.2287 15.393 15.2201 15.3251 15.2719C15.2608 15.3201 15.2386 15.4066 15.2238 15.4869C15.183 15.7229 15.1916 15.9502 15.2077 16.1874C15.2201 16.3826 15.2127 16.579 15.3127 16.7557C15.3362 16.7977 15.3683 16.8397 15.4128 16.8582C15.4659 16.8805 15.5289 16.8669 15.5771 16.8347C15.6253 16.8026 15.6586 16.7532 15.6846 16.7013C15.7612 16.5531 15.7834 16.3838 15.7982 16.2183C15.8155 16.0317 15.8229 15.839 15.7846 15.6574H15.7834Z" fill="#E8EDED"/>
<path d="M16.8161 15.6574C16.8025 15.5944 16.784 15.5326 16.7568 15.4721C16.7222 15.393 16.6728 15.3177 16.5999 15.2732C16.527 15.2287 16.4257 15.2201 16.3578 15.2719C16.2935 15.3201 16.2713 15.4066 16.2565 15.4869C16.2157 15.7229 16.2244 15.9502 16.2404 16.1874C16.2528 16.3826 16.2454 16.579 16.3454 16.7557C16.3689 16.7977 16.401 16.8397 16.4455 16.8582C16.4986 16.8805 16.5616 16.8669 16.6098 16.8347C16.658 16.8026 16.6914 16.7532 16.7173 16.7013C16.7939 16.5531 16.8161 16.3838 16.831 16.2183C16.8483 16.0317 16.8557 15.839 16.8174 15.6574H16.8161Z" fill="#E8EDED"/>
<path d="M10.0993 11.6901C10.0993 11.6901 9.30125 9.04628 10.0993 8.20249C10.8974 7.35746 13.2904 9.4305 13.2904 9.4305C13.2904 9.4305 11.226 10.3768 10.0993 11.6913V11.6901Z" fill="#E8EDED"/>
<path d="M19.3276 9.47746C19.3276 9.47746 20.5816 8.24822 21.4822 8.1395C21.6774 8.11603 21.8763 8.18027 22.0147 8.32111C22.3161 8.62749 22.7473 9.44534 22.4248 11.5418C22.4248 11.5418 21.3451 10.1817 19.3276 9.47746Z" fill="#E8EDED"/>
<path d="M21.5282 8.65454C21.4257 8.65083 21.317 8.69037 21.2218 8.73484C20.9661 8.85591 20.7351 9.01775 20.5065 9.17959C20.2965 9.32784 20.0852 9.47609 19.9061 9.65523C19.7801 9.78124 19.664 9.95296 19.7183 10.1173C19.7653 10.2569 19.9172 10.3384 20.0568 10.4064L21.4874 11.1019C21.6641 11.1871 21.8902 11.2996 21.952 11.05C22.0706 10.5645 22.0854 10.0592 22.0199 9.56504C21.9903 9.33896 21.9433 9.11164 21.8432 8.90286C21.8012 8.81514 21.7444 8.72619 21.653 8.68295C21.6135 8.66442 21.5715 8.65577 21.5282 8.65454Z" fill="#C7C9D1"/>
<path d="M10.6598 8.61864C10.7266 8.59393 10.8031 8.57911 10.8921 8.57664C11.0688 8.57169 11.2454 8.60629 11.4048 8.67671C11.5951 8.76071 11.7557 8.89167 11.915 9.02139L12.5933 9.57733C12.6637 9.63539 12.7403 9.70457 12.7415 9.79476C12.7415 9.89359 12.6538 9.97019 12.5723 10.0332L11.0601 11.1945C10.9835 11.2538 10.8859 11.3168 10.7945 11.2847C10.7216 11.26 10.6858 11.1846 10.6586 11.1154C10.4622 10.62 9.88647 8.9102 10.6611 8.61988L10.6598 8.61864Z" fill="#C7C9D1"/>
<path d="M16.9745 19.3448C16.6236 19.3448 16.3555 19.2039 16.3506 19.2015C16.29 19.1694 16.2678 19.094 16.3012 19.0335C16.3333 18.9742 16.4086 18.9507 16.4679 18.984C16.5001 19.0013 17.2141 19.3707 17.7552 18.7024C17.7985 18.6492 17.8763 18.6406 17.9294 18.6838C17.9826 18.7271 17.9912 18.8049 17.948 18.858C17.6379 19.2422 17.2747 19.346 16.9732 19.346L16.9745 19.3448Z" fill="#C7C9D1"/>
<path d="M13.1261 15.0305C13.483 15.0305 13.7722 14.7413 13.7722 14.3844C13.7722 14.0276 13.483 13.7383 13.1261 13.7383C12.7693 13.7383 12.48 14.0276 12.48 14.3844C12.48 14.7413 12.7693 15.0305 13.1261 15.0305Z" fill="#2B110C"/>
<path d="M12.9208 14.2528C12.9733 14.2528 13.0159 14.2102 13.0159 14.1576C13.0159 14.1051 12.9733 14.0625 12.9208 14.0625C12.8683 14.0625 12.8257 14.1051 12.8257 14.1576C12.8257 14.2102 12.8683 14.2528 12.9208 14.2528Z" fill="white"/>
<path d="M19.0582 15.0305C19.4151 15.0305 19.7044 14.7413 19.7044 14.3844C19.7044 14.0276 19.4151 13.7383 19.0582 13.7383C18.7014 13.7383 18.4121 14.0276 18.4121 14.3844C18.4121 14.7413 18.7014 15.0305 19.0582 15.0305Z" fill="#2B110C"/>
<path d="M18.8534 14.2528C18.906 14.2528 18.9486 14.2102 18.9486 14.1576C18.9486 14.1051 18.906 14.0625 18.8534 14.0625C18.8009 14.0625 18.7583 14.1051 18.7583 14.1576C18.7583 14.2102 18.8009 14.2528 18.8534 14.2528Z" fill="white"/>
</g>
<defs>
<clipPath id="clip0_152_44625">
<rect width="16.3545" height="15.5008" fill="white" transform="translate(8 8)"/>
</clipPath>
</defs>
</svg>
