<svg width="206" height="241" viewBox="0 0 206 241" fill="none" xmlns="http://www.w3.org/2000/svg">
<g clip-path="url(#clip0_518_82159)">
<path d="M168.471 181.046C169.221 180.966 169.971 180.906 170.731 180.866C171.371 180.826 171.731 180.746 172.361 180.656C172.801 180.596 173.951 180.306 174.361 180.146C176.371 179.346 177.811 178.226 179.251 176.606C179.351 176.496 179.451 176.376 179.551 176.256C180.051 175.656 180.511 174.976 180.631 174.196C180.751 173.416 180.401 172.526 179.681 172.226C179.061 171.966 178.331 172.186 177.791 172.586C177.251 172.986 176.851 173.536 176.401 174.036C175.671 174.856 174.791 175.556 173.831 176.086C173.311 176.376 172.711 176.616 172.131 176.546C171.931 176.526 171.791 176.346 171.821 176.146C172.011 174.936 172.341 173.756 172.541 172.556C172.761 171.246 172.821 169.876 172.371 168.626C171.821 167.096 170.531 165.896 169.051 165.206C167.581 164.516 165.851 164.286 164.331 164.836C162.331 165.566 160.981 167.536 160.501 169.606C159.841 172.436 160.641 175.576 162.571 177.746C162.671 177.856 162.621 178.036 162.471 178.066C160.581 178.506 158.611 178.566 156.701 178.246C156.491 178.746 156.191 180.726 156.591 182.006C156.631 182.146 156.691 182.296 156.811 182.386C156.911 182.456 158.341 182.536 158.461 182.536C160.461 182.646 162.441 182.416 164.361 181.846C165.711 181.446 167.091 181.206 168.481 181.056L168.471 181.046ZM164.221 171.186C164.221 171.186 164.221 171.126 164.221 171.096C164.241 170.456 164.391 169.806 164.741 169.266C165.091 168.726 165.661 168.316 166.301 168.246C166.781 168.196 167.281 168.346 167.671 168.636C168.061 168.926 168.361 169.336 168.531 169.786C168.801 170.486 168.791 171.276 168.691 172.016C168.541 173.076 168.211 174.096 167.721 175.046C167.621 175.236 167.481 175.496 167.271 175.586C167.061 175.676 166.741 175.506 166.551 175.406C165.791 174.996 165.181 174.356 164.771 173.596C164.361 172.836 164.201 172.036 164.211 171.206L164.221 171.186Z" fill="#FFAF22"/>
<path d="M63.2715 206.476C61.3015 208.306 61.6015 211.676 61.4715 213.936C61.2215 218.256 61.5015 222.596 62.3115 226.876C62.4415 227.546 62.5915 228.246 63.1315 228.756C63.6415 229.236 64.4015 229.476 65.1415 229.666C71.2715 231.286 77.9915 231.386 84.1915 229.946C85.2715 229.696 86.4315 229.336 87.0015 228.536C87.4215 227.946 87.4215 227.226 87.4115 226.536L87.1915 207.966C87.1915 207.306 87.1515 206.586 86.6515 206.066C85.9715 205.356 84.7115 205.286 83.6115 205.276L69.1715 205.116C67.8315 205.106 66.4715 205.086 65.2015 205.436C64.3815 205.666 63.7515 206.026 63.2615 206.486L63.2715 206.476Z" fill="#FFAF22"/>
<path d="M143.011 205.266C144.981 207.096 144.681 210.466 144.811 212.726C145.061 217.046 144.781 221.386 143.971 225.666C143.841 226.336 143.691 227.036 143.151 227.546C142.641 228.026 141.881 228.266 141.141 228.456C135.011 230.076 128.291 230.176 122.091 228.736C121.011 228.486 119.851 228.126 119.281 227.326C118.861 226.736 118.861 226.016 118.871 225.326L119.091 206.756C119.091 206.096 119.131 205.376 119.631 204.856C120.311 204.146 121.571 204.076 122.671 204.066L137.111 203.906C138.451 203.896 139.811 203.876 141.081 204.226C141.901 204.456 142.531 204.816 143.021 205.276L143.011 205.266Z" fill="#FFAF22"/>
<path d="M55.2214 214.936C53.0614 216.876 53.4014 220.426 53.2614 222.816C52.9914 227.376 53.3014 231.966 54.1814 236.476C54.3214 237.176 54.4914 237.926 55.0814 238.466C55.6314 238.976 56.4714 239.226 57.2814 239.426C63.9814 241.136 71.3314 241.246 78.1114 239.716C79.2914 239.446 80.5614 239.076 81.1814 238.226C81.6414 237.596 81.6414 236.836 81.6314 236.116L81.3914 216.496C81.3914 215.796 81.3514 215.036 80.8014 214.486C80.0614 213.736 78.6814 213.666 77.4814 213.646L61.6914 213.476C60.2314 213.456 58.7414 213.446 57.3514 213.816C56.4614 214.056 55.7614 214.436 55.2314 214.926L55.2214 214.936Z" fill="#FFC931"/>
<path d="M138.482 214.936C140.642 216.876 140.301 220.426 140.441 222.816C140.711 227.376 140.401 231.966 139.521 236.476C139.381 237.176 139.211 237.926 138.622 238.466C138.072 238.976 137.231 239.226 136.421 239.426C129.721 241.136 122.372 241.246 115.592 239.716C114.412 239.446 113.141 239.076 112.521 238.226C112.061 237.596 112.061 236.836 112.071 236.116L112.311 216.496C112.311 215.796 112.351 215.036 112.901 214.486C113.641 213.736 115.021 213.666 116.221 213.646L132.011 213.476C133.471 213.456 134.961 213.446 136.351 213.816C137.241 214.056 137.941 214.436 138.471 214.926L138.482 214.936Z" fill="#FFC931"/>
<path d="M76.9714 107.736C81.9814 106.436 87.1414 105.716 92.3514 105.656C119.141 105.336 145.311 122.536 154.931 146.956C162.521 166.216 159.381 188.926 147.721 206.006C134.931 224.736 112.001 226.206 90.6014 226.446C75.2614 226.616 59.4314 223.026 47.3614 213.776C27.9514 198.906 21.8814 170.806 30.5214 148.226C38.0814 128.476 56.2014 113.126 76.9714 107.736Z" fill="#FFF0B0"/>
<path d="M83.9814 173.976C84.1114 174.406 82.3014 177.736 83.0814 178.116C87.1614 180.106 91.1114 181.636 99.4714 179.496C104.581 178.186 107.431 174.146 108.481 170.766C109.831 166.436 108.431 159.566 101.421 154.866C95.6614 160.276 93.2514 169.216 87.4914 174.626C86.3614 175.686 83.6214 172.766 83.9714 173.966L83.9814 173.976Z" fill="#FFAF22"/>
<path d="M84.5214 153.706C84.0114 153.886 83.5214 154.096 83.0314 154.336C75.2514 158.136 73.3014 169.316 79.4214 175.486C82.9414 179.026 88.3114 180.416 93.2414 179.636C98.7814 178.756 103.971 175.046 105.941 169.786C107.911 164.526 106.141 157.916 101.421 154.876C98.8714 153.236 95.7514 152.696 92.7214 152.596C89.9514 152.506 87.1114 152.766 84.5214 153.706V153.706Z" fill="#FFC931"/>
<path d="M89.6813 162.966C89.5713 162.456 89.4213 161.956 89.2013 161.466C88.9213 160.826 88.5213 160.216 87.9313 159.856C87.3413 159.496 86.5213 159.426 85.9713 159.846C85.4513 160.236 85.2713 160.936 85.1513 161.586C84.8213 163.496 84.8913 165.336 85.0213 167.256C85.1213 168.836 85.0613 170.426 85.8713 171.856C86.0613 172.196 86.3213 172.536 86.6813 172.686C87.1113 172.866 87.6213 172.756 88.0113 172.496C88.4013 172.236 88.6713 171.836 88.8813 171.416C89.5013 170.216 89.6813 168.846 89.8013 167.506C89.9413 165.996 90.0013 164.436 89.6913 162.966H89.6813Z" fill="#FFF0B0"/>
<path d="M98.0414 162.966C97.9314 162.456 97.7814 161.956 97.5614 161.466C97.2814 160.826 96.8814 160.216 96.2914 159.856C95.7014 159.496 94.8814 159.426 94.3314 159.846C93.8114 160.236 93.6314 160.936 93.5114 161.586C93.1814 163.496 93.2514 165.336 93.3814 167.256C93.4814 168.836 93.4214 170.426 94.2314 171.856C94.4214 172.196 94.6814 172.536 95.0414 172.686C95.4714 172.866 95.9814 172.756 96.3714 172.496C96.7614 172.236 97.0314 171.836 97.2414 171.416C97.8614 170.216 98.0414 168.846 98.1614 167.506C98.3014 165.996 98.3614 164.436 98.0514 162.966H98.0414Z" fill="#FFF0B0"/>
<path d="M43.6714 130.856C43.6714 130.856 37.2114 109.456 43.6714 102.626C50.1314 95.7858 69.5014 112.566 69.5014 112.566C69.5014 112.566 52.7914 120.226 43.6714 130.866V130.856Z" fill="#FFF0B0"/>
<path d="M118.371 112.946C118.371 112.946 128.521 102.996 135.811 102.116C137.391 101.926 139.001 102.446 140.121 103.586C142.561 106.066 146.051 112.686 143.441 129.656C143.441 129.656 134.701 118.646 118.371 112.946Z" fill="#FFF0B0"/>
<path d="M136.181 106.286C135.351 106.256 134.471 106.576 133.701 106.936C131.631 107.916 129.761 109.226 127.911 110.536C126.211 111.736 124.501 112.936 123.051 114.386C122.031 115.406 121.091 116.796 121.531 118.126C121.911 119.256 123.141 119.916 124.271 120.466L135.851 126.096C137.281 126.786 139.111 127.696 139.611 125.676C140.571 121.746 140.691 117.656 140.161 113.656C139.921 111.826 139.541 109.986 138.731 108.296C138.391 107.586 137.931 106.866 137.191 106.516C136.871 106.366 136.531 106.296 136.181 106.286V106.286Z" fill="#FFC931"/>
<path d="M48.2114 105.986C48.7514 105.786 49.3714 105.666 50.0914 105.646C51.5214 105.606 52.9514 105.886 54.2414 106.456C55.7814 107.136 57.0814 108.196 58.3714 109.246L63.8614 113.746C64.4314 114.216 65.0514 114.776 65.0614 115.506C65.0614 116.306 64.3514 116.926 63.6914 117.436L51.4514 126.836C50.8314 127.316 50.0414 127.826 49.3014 127.566C48.7114 127.366 48.4214 126.756 48.2014 126.196C46.6114 122.186 41.9514 108.346 48.2214 105.996L48.2114 105.986Z" fill="#FFC931"/>
<path d="M99.3214 192.816C96.4814 192.816 94.3114 191.676 94.2714 191.656C93.7814 191.396 93.6014 190.786 93.8714 190.296C94.1314 189.816 94.7414 189.626 95.2214 189.896C95.4814 190.036 101.261 193.026 105.641 187.616C105.991 187.186 106.621 187.116 107.051 187.466C107.481 187.816 107.551 188.446 107.201 188.876C104.681 191.986 101.751 192.826 99.3214 192.826V192.816Z" fill="#FFAF22"/>
<path d="M68.1714 157.896C71.0599 157.896 73.4014 155.554 73.4014 152.666C73.4014 149.777 71.0599 147.436 68.1714 147.436C65.283 147.436 62.9414 149.777 62.9414 152.666C62.9414 155.554 65.283 157.896 68.1714 157.896Z" fill="#2B110C"/>
<path d="M66.5115 151.596C66.9367 151.596 67.2815 151.251 67.2815 150.826C67.2815 150.401 66.9367 150.056 66.5115 150.056C66.0862 150.056 65.7415 150.401 65.7415 150.826C65.7415 151.251 66.0862 151.596 66.5115 151.596Z" fill="white"/>
<path d="M116.191 157.896C119.08 157.896 121.421 155.554 121.421 152.666C121.421 149.777 119.08 147.436 116.191 147.436C113.303 147.436 110.961 149.777 110.961 152.666C110.961 155.554 113.303 157.896 116.191 157.896Z" fill="#2B110C"/>
<path d="M114.531 151.596C114.957 151.596 115.301 151.251 115.301 150.826C115.301 150.401 114.957 150.056 114.531 150.056C114.106 150.056 113.761 150.401 113.761 150.826C113.761 151.251 114.106 151.596 114.531 151.596Z" fill="white"/>
<path d="M33.1913 140.136C33.1913 140.136 63.4913 141.426 80.0613 131.596C96.6313 121.766 100.681 107.066 100.681 107.066C100.681 107.066 82.4313 98.6058 67.9213 110.886C67.9213 110.886 67.0613 119.686 59.8213 124.186L48.3813 131.596L39.2313 135.586C39.2313 135.586 25.8813 139.556 33.1913 140.136V140.136Z" fill="#FED752"/>
<path d="M59.9914 136.486C57.1514 138.796 54.2514 141.066 51.0014 142.726C49.8814 143.296 48.7314 143.796 47.5814 144.296C47.3114 144.416 47.0114 144.556 46.9314 144.836C46.7714 145.376 47.4814 145.726 48.0314 145.816C50.7414 146.236 53.5114 146.026 56.2414 145.726C78.9914 143.226 101.471 134.536 120.161 121.346C121.231 120.596 122.341 119.756 122.811 118.536C123.571 116.546 122.351 114.346 120.901 112.776C115.991 107.446 108.351 105.436 101.111 105.396C100.161 105.396 99.1914 105.416 98.3014 105.736C97.3614 106.076 96.5714 106.716 95.7914 107.346L60.7914 135.836C60.5214 136.056 60.2514 136.276 59.9914 136.486V136.486Z" fill="#FED752"/>
<path d="M108.152 119.746C108.152 119.746 115.662 134.806 137.392 136.846C137.392 136.846 142.392 137.016 146.042 136.846C146.042 136.846 153.502 135.146 140.812 124.766C128.122 114.386 117.912 112.056 117.912 112.056C117.912 112.056 105.442 111.646 108.142 119.736L108.152 119.746Z" fill="#FED752"/>
</g>
<g clip-path="url(#clip1_518_82159)">
<path d="M47.658 33.8392L49.7639 45.2418H56.0651V33.8392H47.658Z" fill="#FFD25A"/>
<path d="M146.967 83.2166L148.015 88.9221H151.162V83.2166H146.967Z" fill="#8DEF67"/>
<path d="M162.447 31.5067V36.7591H168.152L167.246 31.5067H162.447Z" fill="#FFB585"/>
<path d="M84.4414 45.2418V52.1806H91.9676L90.7845 45.2418H84.4414Z" fill="#FFD4BB"/>
<path d="M61.0239 75.5813L51.8616 80.0701L57.1475 90.8518L65.6553 85.0121L61.0239 75.5813Z" fill="#FFB585"/>
<path d="M134.859 58.163L125.697 62.6602L130.983 73.4418L139.491 67.6021L134.859 58.163Z" fill="#FF632E"/>
<path d="M0.252441 125.84V131.847L15.2628 135.145V130.496L0.252441 125.84Z" fill="#FF632E"/>
<path d="M16.9156 33.5623L13.3245 32.1108L7.71973 40.2914L10.4969 41.4157L16.9156 33.5623Z" fill="#FF632E"/>
<path d="M141.261 0.244202L135.858 10.749L141.261 14.6505L146.967 5.34555L141.261 0.244202Z" fill="#FFD25A"/>
<path d="M206.253 118.943L196.352 121.938L206.253 127.644V118.943Z" fill="#FFA417"/>
<path d="M20.2132 73.4418L20.1377 63.0881L11.8647 70.975L20.2132 73.4418Z" fill="#8DEF67"/>
<path d="M82.5031 12.6703C84.6578 12.6703 86.4046 10.9235 86.4046 8.76877C86.4046 6.61402 84.6578 4.86725 82.5031 4.86725C80.3483 4.86725 78.6016 6.61402 78.6016 8.76877C78.6016 10.9235 80.3483 12.6703 82.5031 12.6703Z" fill="#FF632E"/>
<path d="M180.796 98.1682C182.205 98.1682 183.347 97.0263 183.347 95.6176C183.347 94.2089 182.205 93.0669 180.796 93.0669C179.388 93.0669 178.246 94.2089 178.246 95.6176C178.246 97.0263 179.388 98.1682 180.796 98.1682Z" fill="#FFB585"/>
<path d="M189.296 65.2192C191.242 65.2192 192.82 63.6415 192.82 61.6953C192.82 59.7491 191.242 58.1713 189.296 58.1713C187.35 58.1713 185.772 59.7491 185.772 61.6953C185.772 63.6415 187.35 65.2192 189.296 65.2192Z" fill="#FFD25A"/>
</g>
<defs>
<clipPath id="clip0_518_82159">
<rect width="153.96" height="139.81" fill="white" transform="translate(26.0002 100.986)"/>
</clipPath>
<clipPath id="clip1_518_82159">
<rect width="206" height="240.972" fill="white"/>
</clipPath>
</defs>
</svg>
