<svg width="100%" height="100%" viewBox="0 0 259 298" fill="none" xmlns="http://www.w3.org/2000/svg">
<g clip-path="url(#clip0_113_24738)">
<path d="M53.9216 60.4102L51.8016 68.3002L20.6016 74.4302C22.1916 82.5102 28.3716 85.2802 28.3716 85.2802C39.6716 90.6302 47.5116 85.1702 47.5116 85.1702C54.9216 80.6302 52.8416 70.0902 52.8316 70.0202C56.5516 63.3902 53.9216 60.4202 53.9216 60.4202V60.4102Z" fill="#FFE266"/>
<path d="M25.1107 61.2999C25.1107 61.2999 24.7807 55.3099 28.4007 52.9199C28.4007 52.9199 32.5307 52.9499 34.3507 56.9099C34.3507 56.9099 41.8807 55.2799 47.1107 60.6999C47.1107 60.6999 50.4907 59.3099 53.9307 60.4099C53.9307 60.4099 54.8707 63.5799 51.8707 68.2999C51.8707 68.2999 53.7407 78.3199 46.8807 83.0199C46.8807 83.0199 38.0207 88.9899 27.3007 83.0999C27.3007 83.0999 19.3507 78.7299 20.3507 69.9599C20.3507 69.9599 21.3607 64.5899 25.1207 61.2899L25.1107 61.2999Z" fill="#FFF3C0"/>
<path d="M29.5306 56.3198C29.5306 56.3198 27.8606 57.7898 27.8006 62.8698C27.8006 62.8698 22.7506 66.3498 23.4206 72.8098C23.4206 72.8098 24.3606 65.9698 28.1706 63.8098C28.1706 63.8098 28.6506 57.8698 29.8106 57.3398C29.8106 57.3398 32.0606 57.6298 33.5906 61.3198C33.5906 61.3198 33.4506 58.4098 29.5206 56.3198H29.5306Z" fill="#FFDA40"/>
<path d="M51.0916 62.8199L50.7416 63.8499C50.7416 63.8499 48.3516 63.6799 46.2516 64.4999C46.2516 64.4999 41.3116 58.5299 33.6016 61.3199C33.6016 61.3199 33.7016 60.5699 34.8716 60.0999C36.0416 59.6299 42.0816 59.2199 45.8916 63.5299C45.8916 63.5299 48.4816 62.6899 51.0916 62.8199Z" fill="#FFDA40"/>
<path d="M29.8216 57.3398C29.8216 57.3398 28.3316 57.7698 28.1816 63.8098C28.1816 63.8098 24.4516 65.4298 23.4316 72.8098C23.4316 72.8098 24.5416 79.7698 33.6916 81.8798C33.6916 81.8798 45.0216 83.5598 48.3316 76.5698C48.3316 76.5698 50.1216 72.1498 48.4816 67.9198C48.4816 67.9198 50.5916 65.4198 50.7416 63.8598C50.7416 63.8598 48.5116 63.4598 46.2516 64.5098C46.2516 64.5098 41.2416 58.3498 33.6016 61.3298C33.6016 61.3298 32.3616 57.6398 29.8216 57.3498V57.3398Z" fill="#FFE266"/>
<path d="M43.2798 72.86C43.2798 72.09 42.9598 71.05 42.5798 70.37C42.5098 70.25 41.7698 69.27 41.6898 69.15C41.6398 69.07 41.5898 69 41.5398 68.96C41.4998 68.92 41.4598 68.89 41.4298 68.88C41.3398 68.85 42.0298 70.03 41.8598 70.09C41.4198 70.25 40.9698 70.4 40.5298 70.56C36.9898 71.81 33.1298 72.58 29.5898 73.83C30.1598 75.27 31.8498 76.72 33.2798 77.31C34.6498 77.88 36.1498 78.17 37.6198 78.04C39.0998 77.91 40.5498 77.35 41.6598 76.37C42.1198 75.96 42.5198 75.48 42.8098 74.94C43.1398 74.3 43.2998 73.58 43.2898 72.87L43.2798 72.86Z" fill="#FFDA40"/>
<path d="M31.7705 67.0299C31.4805 67.1899 31.2005 67.3699 30.9505 67.5899C30.1705 68.2499 29.6305 69.1699 29.3305 70.1399C29.0505 71.0699 28.9705 72.0699 29.2605 72.9999C29.5805 74.0499 30.3305 74.9199 31.2005 75.5899C32.4705 76.5699 34.0305 77.1699 35.6305 77.2699C37.2305 77.3699 38.8605 76.9799 40.2205 76.1299C41.1805 75.5399 42.0205 74.6999 42.4305 73.6499C42.9105 72.4299 42.7605 71.0199 42.1605 69.8599C41.5605 68.6999 40.5205 67.7999 39.3505 67.2199C37.2005 66.1599 34.0105 65.8299 31.7705 67.0399V67.0299Z" fill="#FFF3C0"/>
<path d="M39.0906 70.92C38.9706 70.81 38.8306 70.72 38.6806 70.66C38.0406 70.38 37.4306 70.61 37.0006 71.05C36.6606 71.4 36.4406 71.88 36.4106 72.36C36.3906 72.62 36.4406 72.88 36.5306 73.12C36.7206 71.27 37.8706 70.75 39.0906 70.92Z" fill="#FFDA40"/>
<path d="M36.5312 73.1201C36.6213 73.3601 36.7713 73.5801 36.9613 73.7501C37.3413 74.1001 37.9113 74.2401 38.4013 74.0801C38.6613 74.0001 38.8813 73.8401 39.0713 73.6501C39.4913 73.2301 39.7213 72.6301 39.6613 72.0401C39.6213 71.6101 39.4013 71.2101 39.0913 70.9201C37.4513 70.6001 36.7212 71.6601 36.5312 73.1201Z" fill="#FFE266"/>
<path d="M34.4012 69.4298C34.2812 69.3198 34.1412 69.2298 33.9912 69.1698C33.3512 68.8898 32.7412 69.1198 32.3112 69.5598C31.9712 69.9098 31.7512 70.3898 31.7212 70.8698C31.7012 71.1298 31.7512 71.3898 31.8412 71.6298C32.0312 69.7798 33.1812 69.2598 34.4012 69.4298Z" fill="#FFDA40"/>
<path d="M31.8398 71.6298C31.9298 71.8698 32.0798 72.0898 32.2698 72.2598C32.6498 72.6098 33.2198 72.7498 33.7098 72.5898C33.9698 72.5098 34.1898 72.3498 34.3798 72.1598C34.7998 71.7398 35.0298 71.1398 34.9698 70.5498C34.9298 70.1198 34.7098 69.7198 34.3998 69.4298C32.7598 69.1098 32.0298 70.1698 31.8398 71.6298Z" fill="#FFE266"/>
<path d="M142.04 48.5093L143.626 53.5523L128.725 67.7411C132.4 71.5969 136.731 70.9606 136.731 70.9606C144.756 69.9539 147.14 64.2461 147.14 64.2461C149.609 59.1936 144.813 54.1696 144.775 54.1316C144.499 49.2216 142.03 48.5093 142.03 48.5093H142.04Z" fill="#FFE266"/>
<path d="M126.625 59.0039C126.625 59.0039 124.365 55.8508 125.505 53.2866C125.505 53.2866 127.775 51.862 130.139 53.391C130.139 53.391 133.682 49.8866 138.421 51.0262C138.421 51.0262 139.788 49.0983 142.039 48.5C142.039 48.5 143.654 49.9056 143.654 53.524C143.654 53.524 148.155 58.3486 146.047 63.2966C146.047 63.2966 143.293 69.6312 135.391 70.1441C135.391 70.1441 129.531 70.5239 127.034 65.386C127.034 65.386 125.723 62.1 126.625 58.9944V59.0039Z" fill="#FFF3C0"/>
<path d="M127.309 54.7484C127.309 54.7484 126.91 56.1349 128.639 58.9176C128.639 58.9176 127.091 62.574 129.703 65.86C129.703 65.86 127.841 61.7953 129.171 59.2975C129.171 59.2975 127.366 55.888 127.813 55.1947C127.813 55.1947 129.142 54.5679 131.26 56.0495C131.26 56.0495 130.168 54.5109 127.3 54.7389L127.309 54.7484Z" fill="#FFDA40"/>
<path d="M141.328 50.8076L141.499 51.4914C141.499 51.4914 140.141 52.2322 139.277 53.4098C139.277 53.4098 134.509 51.8713 131.27 56.0691C131.27 56.0691 131.061 55.6227 131.536 54.9579C132.011 54.2931 135.164 51.9663 138.735 53.0015C138.735 53.0015 139.856 51.6434 141.328 50.8076Z" fill="#FFDA40"/>
<path d="M127.814 55.2056C127.814 55.2056 127.149 55.9559 129.172 59.3084C129.172 59.3084 127.7 61.4832 129.703 65.8709C129.703 65.8709 132.724 69.2899 138.45 67.2575C138.45 67.2575 145.212 64.2374 144.595 59.2704C144.595 59.2704 144.035 56.2408 141.67 54.4933C141.67 54.4933 141.955 52.3944 141.489 51.4922C141.489 51.4922 140.131 52.0525 139.267 53.4106C139.267 53.4106 134.395 51.7961 131.261 56.0698C131.261 56.0698 129.305 54.4838 127.814 55.2151V55.2056Z" fill="#FFE266"/>
<path d="M140.548 58.994C140.273 58.5761 139.741 58.1202 139.304 57.8828C139.228 57.8353 138.478 57.5599 138.393 57.5314C138.336 57.5029 138.288 57.4839 138.241 57.4744C138.203 57.4744 138.174 57.4649 138.155 57.4744C138.098 57.4934 138.877 57.8923 138.81 57.9873C138.62 58.2247 138.431 58.4621 138.25 58.7091C136.75 60.618 134.917 62.3845 133.416 64.2934C134.233 64.8822 135.648 65.0912 136.636 64.9107C137.576 64.7398 138.497 64.3789 139.257 63.7996C140.017 63.2202 140.615 62.4035 140.881 61.4822C140.995 61.1024 141.042 60.7035 141.004 60.3046C140.966 59.8392 140.795 59.3929 140.548 59.0035V58.994Z" fill="#FFDA40"/>
<path d="M132.247 59.8208C132.143 60.0107 132.057 60.2102 131.991 60.4096C131.791 61.0364 131.82 61.7297 131.991 62.366C132.162 62.9643 132.466 63.5437 132.94 63.952C133.482 64.4174 134.194 64.6263 134.897 64.6928C135.932 64.7878 136.986 64.5694 137.898 64.066C138.81 63.5627 139.56 62.7839 140.006 61.8437C140.32 61.1884 140.491 60.4381 140.358 59.7258C140.196 58.8995 139.626 58.1683 138.895 57.7504C138.164 57.3325 137.281 57.1901 136.445 57.285C134.906 57.456 133.045 58.3772 132.247 59.8208Z" fill="#FFF3C0"/>
<path d="M137.594 59.3932C137.49 59.3742 137.385 59.3742 137.281 59.3932C136.834 59.4596 136.578 59.8015 136.502 60.1909C136.436 60.4948 136.483 60.8367 136.635 61.1121C136.72 61.2641 136.834 61.3876 136.967 61.492C136.426 60.4093 136.872 59.735 137.594 59.4026V59.3932Z" fill="#FFDA40"/>
<path d="M136.967 61.4832C137.1 61.5782 137.252 61.6542 137.414 61.6826C137.746 61.7396 138.097 61.6162 138.316 61.3597C138.43 61.2268 138.496 61.0558 138.534 60.8944C138.62 60.524 138.534 60.1061 138.297 59.8117C138.126 59.5933 137.87 59.4508 137.594 59.4033C136.587 59.7927 136.559 60.638 136.967 61.4927V61.4832Z" fill="#FFE266"/>
<path d="M134.518 60.2096C134.414 60.1906 134.309 60.1906 134.205 60.2096C133.758 60.276 133.502 60.6179 133.426 61.0073C133.359 61.3112 133.407 61.6531 133.559 61.9285C133.644 62.0805 133.758 62.204 133.891 62.3084C133.35 61.2258 133.796 60.5515 134.518 60.2191V60.2096Z" fill="#FFDA40"/>
<path d="M133.891 62.2991C134.024 62.3941 134.176 62.4701 134.338 62.4986C134.67 62.5555 135.021 62.4321 135.24 62.1757C135.354 62.0427 135.42 61.8717 135.458 61.7103C135.544 61.3399 135.458 60.922 135.221 60.6276C135.05 60.4092 134.793 60.2667 134.518 60.2192C133.511 60.6086 133.483 61.4539 133.891 62.3086V62.2991Z" fill="#FFE266"/>
<path d="M232.769 29.73L231.439 35.13L210.279 39.76C211.479 45.24 215.729 47.04 215.729 47.04C223.499 50.52 228.769 46.69 228.769 46.69C233.749 43.49 232.179 36.34 232.169 36.29C234.609 31.72 232.769 29.74 232.769 29.74V29.73Z" fill="#FFE266"/>
<path d="M213.16 30.75C213.16 30.75 212.84 26.68 215.27 25C215.27 25 218.09 24.96 219.38 27.63C219.38 27.63 224.48 26.41 228.13 30.02C228.13 30.02 230.41 29.03 232.77 29.72C232.77 29.72 233.45 31.87 231.48 35.12C231.48 35.12 232.9 41.92 228.29 45.22C228.29 45.22 222.34 49.42 214.96 45.56C214.96 45.56 209.48 42.7 210.04 36.71C210.04 36.71 210.65 33.04 213.16 30.74V30.75Z" fill="#FFF3C0"/>
<path d="M216.099 27.2903C216.099 27.2903 214.979 28.3103 215.019 31.7803C215.019 31.7803 211.629 34.2203 212.179 38.6103C212.179 38.6103 212.719 33.9403 215.289 32.4103C215.289 32.4103 215.53 28.3603 216.31 27.9803C216.31 27.9803 217.849 28.1403 218.949 30.6303C218.949 30.6303 218.81 28.6503 216.11 27.2803L216.099 27.2903Z" fill="#FFDA40"/>
<path d="M230.869 31.4098L230.649 32.1198C230.649 32.1198 229.019 32.0398 227.599 32.6298C227.599 32.6298 224.149 28.6398 218.939 30.6498C218.939 30.6498 218.989 30.1398 219.789 29.7998C220.589 29.4598 224.689 29.0898 227.339 31.9698C227.339 31.9698 229.089 31.3598 230.869 31.4098Z" fill="#FFDA40"/>
<path d="M216.31 27.9902C216.31 27.9902 215.3 28.3002 215.29 32.4202C215.29 32.4202 212.78 33.5702 212.18 38.6202C212.18 38.6202 213.04 43.3502 219.3 44.6402C219.3 44.6402 227.04 45.6202 229.2 40.8102C229.2 40.8102 230.35 37.7702 229.18 34.9202C229.18 34.9202 230.58 33.1802 230.66 32.1202C230.66 32.1202 229.13 31.8802 227.61 32.6302C227.61 32.6302 224.11 28.5102 218.95 30.6502C218.95 30.6502 218.05 28.1502 216.31 28.0002V27.9902Z" fill="#FFE266"/>
<path d="M225.701 38.3601C225.681 37.8301 225.451 37.1301 225.191 36.6801C225.141 36.6001 224.621 35.9401 224.571 35.8601C224.541 35.8101 224.501 35.7601 224.471 35.7301C224.441 35.7001 224.421 35.6801 224.391 35.6801C224.331 35.6601 224.811 36.4501 224.701 36.5001C224.401 36.6101 224.101 36.7301 223.801 36.8401C221.401 37.7401 218.791 38.3201 216.391 39.2201C216.801 40.1901 217.971 41.1601 218.951 41.5401C219.891 41.9101 220.911 42.0801 221.921 41.9701C222.921 41.8601 223.901 41.4601 224.651 40.7801C224.961 40.5001 225.231 40.1601 225.411 39.7901C225.621 39.3501 225.721 38.8601 225.711 38.3701L225.701 38.3601Z" fill="#FFDA40"/>
<path d="M217.78 34.5599C217.58 34.6699 217.4 34.7999 217.23 34.9499C216.71 35.4099 216.35 36.0399 216.17 36.7099C215.99 37.3399 215.96 38.0299 216.17 38.6599C216.4 39.3699 216.93 39.9499 217.53 40.3899C218.41 41.0399 219.48 41.4199 220.57 41.4699C221.66 41.5199 222.77 41.2199 223.68 40.6299C224.32 40.2099 224.88 39.6299 225.15 38.9099C225.46 38.0699 225.34 37.1099 224.91 36.3299C224.48 35.5499 223.76 34.9499 222.96 34.5699C221.48 33.8799 219.3 33.6999 217.8 34.5599H217.78Z" fill="#FFF3C0"/>
<path d="M222.82 37.0999C222.74 37.0299 222.64 36.9699 222.54 36.9299C222.1 36.7499 221.69 36.9099 221.4 37.2199C221.18 37.4599 221.03 37.7899 221.02 38.1199C221.02 38.2999 221.04 38.4799 221.11 38.6399C221.22 37.3699 221.99 37.0099 222.82 37.0999Z" fill="#FFDA40"/>
<path d="M221.109 38.6402C221.179 38.8002 221.279 38.9502 221.409 39.0602C221.679 39.2902 222.059 39.3802 222.399 39.2602C222.569 39.2002 222.719 39.0902 222.849 38.9602C223.129 38.6702 223.279 38.2502 223.229 37.8502C223.189 37.5602 223.039 37.2902 222.819 37.1002C221.699 36.9002 221.209 37.6402 221.109 38.6402Z" fill="#FFE266"/>
<path d="M219.601 36.1502C219.521 36.0802 219.421 36.0202 219.321 35.9802C218.881 35.8002 218.471 35.9602 218.181 36.2702C217.961 36.5102 217.811 36.8402 217.801 37.1702C217.801 37.3502 217.821 37.5302 217.891 37.6902C218.001 36.4202 218.771 36.0602 219.601 36.1502Z" fill="#FFDA40"/>
<path d="M217.891 37.69C217.961 37.85 218.061 38 218.191 38.11C218.461 38.34 218.841 38.43 219.181 38.31C219.351 38.25 219.501 38.14 219.631 38.01C219.911 37.72 220.061 37.3 220.011 36.9C219.971 36.61 219.821 36.34 219.601 36.15C218.481 35.95 217.991 36.69 217.891 37.69Z" fill="#FFE266"/>
<path d="M90.5833 26.7729L89.4993 31.1579L72.3203 34.9107C73.2893 39.3615 76.7465 40.815 76.7465 40.815C83.0531 43.6398 87.3232 40.5276 87.3232 40.5276C91.3634 37.9326 90.0906 32.1269 90.0823 32.0859C92.0614 28.3824 90.5751 26.7646 90.5751 26.7646L90.5833 26.7729Z" fill="#FFE266"/>
<path d="M74.6688 27.6022C74.6688 27.6022 74.4143 24.2929 76.3851 22.9297C76.3851 22.9297 78.6679 22.8969 79.7191 25.0648C79.7191 25.0648 83.8578 24.0712 86.814 27.011C86.814 27.011 88.6699 26.2062 90.575 26.7728C90.575 26.7728 91.1334 28.5137 89.5239 31.1579C89.5239 31.1579 90.6735 36.6762 86.9372 39.3532C86.9372 39.3532 82.1087 42.7611 76.1141 39.6324C76.1141 39.6324 71.6633 37.3167 72.1232 32.4554C72.1232 32.4554 72.6241 29.4745 74.6606 27.6104L74.6688 27.6022Z" fill="#FFF3C0"/>
<path d="M77.0509 24.7934C77.0509 24.7934 76.1394 25.6228 76.1723 28.4312C76.1723 28.4312 73.4213 30.4102 73.8648 33.9741C73.8648 33.9741 74.3082 30.1803 76.3858 28.9485C76.3858 28.9485 76.5829 25.6556 77.2152 25.3518C77.2152 25.3518 78.4634 25.4832 79.3502 27.5032C79.3502 27.5032 79.2353 25.902 77.0427 24.7852L77.0509 24.7934Z" fill="#FFDA40"/>
<path d="M89.0469 28.1363L88.8662 28.7112C88.8662 28.7112 87.5442 28.6455 86.3945 29.1217C86.3945 29.1217 83.5943 25.8781 79.3652 27.5122C79.3652 27.5122 79.4063 27.0934 80.055 26.8225C80.7038 26.5515 84.0295 26.2476 86.1892 28.588C86.1892 28.588 87.6098 28.0953 89.0551 28.1363H89.0469Z" fill="#FFDA40"/>
<path d="M77.2234 25.3598C77.2234 25.3598 76.4023 25.6143 76.3941 28.9565C76.3941 28.9565 74.3493 29.8927 73.873 33.9821C73.873 33.9821 74.571 37.817 79.6459 38.8681C79.6459 38.8681 85.9279 39.6647 87.677 35.7641C87.677 35.7641 88.6132 33.3005 87.6606 30.9766C87.6606 30.9766 88.802 29.5642 88.8677 28.702C88.8677 28.702 87.6277 28.5049 86.396 29.1125C86.396 29.1125 83.5547 25.7704 79.3667 27.503C79.3667 27.503 78.6359 25.4747 77.2317 25.3516L77.2234 25.3598Z" fill="#FFE266"/>
<path d="M84.8443 33.778C84.8279 33.351 84.6472 32.7844 84.4337 32.4148C84.3926 32.3491 83.9738 31.8154 83.9246 31.7497C83.8999 31.7086 83.8671 31.6676 83.8424 31.6429C83.8178 31.6183 83.8014 31.6019 83.7767 31.6019C83.7275 31.5854 84.1216 32.226 84.0231 32.267C83.7768 32.3574 83.5386 32.4477 83.2923 32.538C81.3461 33.2689 79.2274 33.7369 77.2812 34.476C77.6179 35.2643 78.5623 36.0444 79.3588 36.3565C80.1225 36.6521 80.9519 36.7917 81.7649 36.7096C82.5778 36.6193 83.3744 36.299 83.9738 35.7406C84.2202 35.5107 84.4419 35.2397 84.5897 34.9358C84.7622 34.5827 84.8443 34.1804 84.8279 33.7862L84.8443 33.778Z" fill="#FFDA40"/>
<path d="M78.4127 30.6896C78.2566 30.7799 78.1006 30.8866 77.961 31.0098C77.534 31.3793 77.2466 31.8967 77.0988 32.4387C76.951 32.956 76.9263 33.5144 77.0988 34.0153C77.2877 34.5901 77.7147 35.0664 78.1992 35.4195C78.9136 35.9451 79.784 36.2571 80.6709 36.2982C81.5578 36.3392 82.4529 36.1011 83.2001 35.6166C83.7257 35.2799 84.1773 34.8036 84.3908 34.2206C84.6454 33.539 84.5469 32.7589 84.1937 32.1266C83.8406 31.4943 83.2658 31.0016 82.6089 30.6978C81.41 30.1394 79.6444 29.9916 78.4209 30.6896H78.4127Z" fill="#FFF3C0"/>
<path d="M82.5105 32.7592C82.4448 32.7017 82.3627 32.6524 82.2806 32.6196C81.9275 32.4718 81.5908 32.6032 81.3609 32.8577C81.1802 33.0548 81.0653 33.3258 81.0488 33.5886C81.0488 33.7282 81.0652 33.876 81.1227 34.0074C81.2048 32.9809 81.8372 32.6771 82.5105 32.7592Z" fill="#FFDA40"/>
<path d="M81.123 33.9989C81.1805 34.1303 81.2544 34.2453 81.3694 34.3438C81.5829 34.5327 81.9032 34.5984 82.1659 34.5081C82.3055 34.4588 82.4287 34.3685 82.5355 34.2617C82.7572 34.0236 82.8886 33.6869 82.8475 33.3666C82.8147 33.1285 82.6997 32.9068 82.519 32.759C81.6075 32.6029 81.2134 33.1942 81.1313 34.0071L81.123 33.9989Z" fill="#FFE266"/>
<path d="M79.8992 31.9877C79.8335 31.9302 79.7514 31.8809 79.6693 31.8481C79.3162 31.7003 78.9795 31.8317 78.7495 32.0862C78.5689 32.2833 78.4539 32.5543 78.4375 32.8171C78.4375 32.9567 78.4539 33.1045 78.5114 33.2359C78.5935 32.2094 79.2258 31.9056 79.8992 31.9877Z" fill="#FFDA40"/>
<path d="M78.5117 33.2357C78.5692 33.3671 78.6431 33.4821 78.7581 33.5806C78.9716 33.7695 79.2918 33.8352 79.5546 33.7449C79.6942 33.6956 79.8174 33.6053 79.9241 33.4985C80.1459 33.2604 80.2772 32.9237 80.2362 32.6034C80.2033 32.3653 80.0884 32.1436 79.9077 31.9958C78.9962 31.8397 78.602 32.431 78.5199 33.244L78.5117 33.2357Z" fill="#FFE266"/>
<path d="M197.736 80.0176L199.217 87.0608H199.226L177.145 104.329C181.614 110.05 187.581 109.75 187.581 109.75C198.591 109.442 202.584 102.02 202.584 102.02C206.595 95.4966 200.751 88.0392 200.716 87.9863C200.989 81.2958 197.745 80 197.745 80L197.736 80.0176Z" fill="#FFE266"/>
<path d="M175.444 92.2169C175.444 92.2169 172.791 87.642 174.677 84.3188C174.677 84.3188 177.939 82.6968 180.945 85.0769C180.945 85.0769 186.207 80.7928 192.483 82.9613C192.483 82.9613 194.59 80.5195 197.728 80.0171C197.728 80.0171 199.729 82.1327 199.253 87.0426C199.253 87.0426 204.727 94.1738 201.21 100.609C201.21 100.609 196.635 108.842 185.855 108.489C185.855 108.489 177.859 108.234 175.153 100.935C175.153 100.935 173.805 96.3071 175.444 92.2169Z" fill="#FFF3C0"/>
<path d="M176.934 86.5405C176.934 86.5405 176.202 88.3652 178.194 92.376C178.194 92.376 175.612 97.1273 178.723 101.94C178.723 101.94 176.731 96.1841 178.864 92.9754C178.864 92.9754 176.863 88.1184 177.569 87.2369C177.569 87.2369 179.455 86.5582 182.135 88.85C182.135 88.85 180.865 86.6199 176.943 86.5405H176.934Z" fill="#FFDA40"/>
<path d="M196.467 83.0405L196.608 83.9925C196.608 83.9925 194.669 84.8123 193.338 86.2932C193.338 86.2932 187.07 83.5694 182.125 88.8496C182.125 88.8496 181.896 88.2237 182.637 87.3863C183.377 86.5489 187.952 83.8074 192.668 85.685C192.668 85.685 194.369 83.9925 196.476 83.0493L196.467 83.0405Z" fill="#FFDA40"/>
<path d="M177.569 87.2278C177.569 87.2278 176.573 88.1621 178.865 92.9663C178.865 92.9663 176.582 95.7253 178.724 101.931C178.724 101.931 182.373 106.964 190.403 104.963C190.403 104.963 199.976 101.764 199.791 94.9408C199.791 94.9408 199.43 90.7537 196.459 88.0828C196.459 88.0828 197.12 85.2708 196.618 83.9927C196.618 83.9927 194.705 84.5656 193.348 86.2934C193.348 86.2934 186.948 83.455 182.135 88.8497C182.135 88.8497 179.693 86.4432 177.569 87.2366V87.2278Z" fill="#FFE266"/>
<path d="M194.344 94.051C194.027 93.4427 193.365 92.7552 192.801 92.3761C192.696 92.3056 191.726 91.8296 191.62 91.7767C191.55 91.7326 191.488 91.6974 191.426 91.6886C191.382 91.6709 191.338 91.6621 191.303 91.6709C191.215 91.6798 192.228 92.3321 192.123 92.4467C191.84 92.7464 191.55 93.0461 191.268 93.3458C188.976 95.7434 186.261 97.8855 183.969 100.283C184.991 101.182 186.895 101.658 188.253 101.552C189.557 101.447 190.844 101.076 191.955 100.389C193.066 99.7013 193.983 98.6788 194.467 97.4623C194.67 96.9599 194.793 96.4222 194.793 95.8757C194.793 95.241 194.635 94.6151 194.344 94.051Z" fill="#FFDA40"/>
<path d="M182.972 94.0605C182.805 94.2985 182.664 94.5541 182.549 94.8274C182.197 95.656 182.144 96.5903 182.294 97.4806C182.443 98.3181 182.787 99.1379 183.378 99.7549C184.048 100.451 184.982 100.839 185.934 101.015C187.327 101.28 188.79 101.121 190.086 100.566C191.382 100.011 192.51 99.0409 193.242 97.8332C193.762 96.987 194.088 95.9909 193.991 95.0037C193.885 93.8577 193.198 92.7999 192.263 92.13C191.329 91.4601 190.156 91.1603 189.002 91.178C186.886 91.2044 184.25 92.2181 182.972 94.0605Z" fill="#FFF3C0"/>
<path d="M190.28 94.2001C190.139 94.1649 189.998 94.1472 189.857 94.1561C189.249 94.1913 188.852 94.6144 188.694 95.1345C188.57 95.54 188.588 96.0072 188.755 96.4039C188.843 96.6154 188.984 96.8005 189.152 96.9592C188.561 95.4254 189.258 94.5615 190.28 94.2089V94.2001Z" fill="#FFDA40"/>
<path d="M189.142 96.9505C189.31 97.1003 189.513 97.2149 189.724 97.2766C190.165 97.4 190.667 97.2766 190.985 96.9593C191.152 96.7918 191.267 96.5802 191.337 96.351C191.496 95.8574 191.443 95.2844 191.161 94.8437C190.958 94.5264 190.632 94.2883 190.262 94.2002C188.843 94.6057 188.693 95.734 189.134 96.9505H189.142Z" fill="#FFE266"/>
<path d="M185.995 94.8974C185.854 94.8621 185.713 94.8445 185.572 94.8533C184.964 94.8886 184.567 95.3117 184.408 95.8318C184.285 96.2373 184.303 96.7045 184.47 97.1011C184.558 97.3127 184.699 97.4978 184.867 97.6565C184.276 96.1227 184.973 95.2588 185.995 94.9062V94.8974Z" fill="#FFDA40"/>
<path d="M184.867 97.6477C185.034 97.7976 185.237 97.9122 185.449 97.9739C185.89 98.0973 186.392 97.9739 186.709 97.6565C186.877 97.489 186.991 97.2775 187.062 97.0483C187.221 96.5547 187.168 95.9817 186.886 95.5409C186.683 95.2236 186.357 94.9856 185.986 94.8975C184.567 95.3029 184.417 96.4313 184.858 97.6477H184.867Z" fill="#FFE266"/>
<path d="M20.2626 127.159L20.4817 132.802L1.13477 143.247C3.83732 148.259 8.49374 148.816 8.49374 148.816C17.0488 150.03 21.1117 144.817 21.1117 144.817C25.0742 140.298 21.5408 133.769 21.5135 133.724C22.6091 128.583 20.2626 127.159 20.2626 127.159Z" fill="#FFE266"/>
<path d="M1.4169 133.651C1.4169 133.651 -0.034807 129.762 1.86428 127.443C1.86428 127.443 4.60335 126.612 6.61201 128.858C6.61201 128.858 11.2502 126.238 15.8153 128.739C15.8153 128.739 17.76 127.132 20.2617 127.151C20.2617 127.151 21.5308 129.05 20.5174 132.784C20.5174 132.784 23.8042 139.02 20.2435 143.53C20.2435 143.53 15.6236 149.291 7.33329 147.602C7.33329 147.602 1.18864 146.351 0.0564952 140.353C0.0564952 140.353 -0.372626 136.6 1.42603 133.651H1.4169Z" fill="#FFF3C0"/>
<path d="M3.31553 129.459C3.31553 129.459 2.51207 130.774 3.51639 134.134C3.51639 134.134 0.896014 137.467 2.65815 141.594C2.65815 141.594 1.88208 136.882 3.95464 134.682C3.95464 134.682 3.05075 130.665 3.70813 130.071C3.70813 130.071 5.25114 129.797 7.0224 131.925C7.0224 131.925 6.3285 130.035 3.3064 129.459H3.31553Z" fill="#FFDA40"/>
<path d="M18.8825 129.325L18.8643 130.073C18.8643 130.073 17.2573 130.457 16.0339 131.425C16.0339 131.425 11.5418 128.494 7.03148 131.918C7.03148 131.918 6.94017 131.406 7.61581 130.849C8.29145 130.292 12.1992 128.786 15.5956 130.849C15.5956 130.849 17.1295 129.763 18.8825 129.315V129.325Z" fill="#FFDA40"/>
<path d="M3.71711 130.073C3.71711 130.073 2.82235 130.657 3.96363 134.684C3.96363 134.684 1.83628 136.519 2.66713 141.595C2.66713 141.595 4.831 145.969 11.2952 145.475C11.2952 145.475 19.1198 144.261 19.8776 138.966C19.8776 138.966 20.1515 135.679 18.2068 133.223C18.2068 133.223 19.0833 131.132 18.8642 130.082C18.8642 130.082 17.3029 130.274 16.0338 131.433C16.0338 131.433 11.4595 128.393 7.03138 131.926C7.03138 131.926 5.46098 129.744 3.71711 130.073Z" fill="#FFE266"/>
<path d="M15.7886 137.559C15.6243 137.047 15.2043 136.426 14.8208 136.061C14.7478 135.997 14.063 135.504 13.9808 135.44C13.9352 135.395 13.8895 135.358 13.8439 135.34C13.8073 135.322 13.78 135.312 13.7526 135.312C13.6887 135.312 14.3826 135.942 14.2821 136.025C14.0173 136.216 13.7617 136.408 13.4969 136.609C11.4152 138.161 9.0231 139.458 6.94141 141.01C7.61704 141.841 9.0231 142.452 10.0913 142.553C11.1139 142.644 12.1548 142.525 13.1043 142.142C14.0539 141.758 14.8938 141.092 15.4325 140.215C15.6517 139.85 15.8251 139.458 15.8982 139.038C15.9803 138.554 15.9438 138.042 15.7886 137.568V137.559Z" fill="#FFDA40"/>
<path d="M6.99647 136.071C6.83212 136.235 6.69517 136.418 6.56735 136.61C6.18388 137.203 6.01953 137.924 6.01953 138.627C6.01953 139.294 6.18388 139.979 6.55821 140.527C6.98734 141.157 7.65384 141.577 8.366 141.841C9.40685 142.225 10.5573 142.298 11.6346 142.042C12.712 141.787 13.7072 141.184 14.4376 140.344C14.9489 139.76 15.3324 139.029 15.3872 138.253C15.4511 137.349 15.0676 136.445 14.4285 135.806C13.7894 135.167 12.922 134.775 12.0272 134.638C10.3929 134.382 8.21079 134.811 6.98734 136.071H6.99647Z" fill="#FFF3C0"/>
<path d="M12.6294 137.139C12.5289 137.093 12.4194 137.057 12.3098 137.048C11.835 136.993 11.4698 137.267 11.2781 137.65C11.1229 137.951 11.0772 138.317 11.1594 138.636C11.205 138.81 11.2872 138.974 11.3968 139.12C11.1411 137.86 11.7985 137.276 12.6294 137.139Z" fill="#FFDA40"/>
<path d="M11.3873 139.119C11.4968 139.256 11.6338 139.375 11.7981 139.448C12.1177 139.594 12.5285 139.576 12.8207 139.366C12.9759 139.256 13.0855 139.11 13.1768 138.946C13.3685 138.581 13.3959 138.133 13.2407 137.759C13.122 137.485 12.9029 137.266 12.629 137.138C11.4786 137.266 11.2138 138.115 11.3964 139.119H11.3873Z" fill="#FFE266"/>
<path d="M9.22311 137.121C9.12267 137.075 9.01311 137.039 8.90355 137.029C8.42878 136.975 8.06357 137.249 7.87183 137.632C7.71662 137.933 7.67097 138.299 7.75314 138.618C7.79879 138.792 7.88096 138.956 7.99052 139.102C7.73488 137.842 8.39225 137.258 9.22311 137.121Z" fill="#FFDA40"/>
<path d="M7.98101 139.093C8.09057 139.23 8.22753 139.349 8.39187 139.422C8.71143 139.568 9.12229 139.55 9.41446 139.34C9.56967 139.23 9.67924 139.084 9.77054 138.92C9.96227 138.554 9.98966 138.107 9.83445 137.733C9.71576 137.459 9.49663 137.24 9.22272 137.112C8.07231 137.24 7.80754 138.089 7.99014 139.093H7.98101Z" fill="#FFE266"/>
<path d="M256.616 139.143L255.508 147.927L222.928 159.153C225.834 167.587 232.886 169.641 232.886 169.641C245.806 173.692 253.416 166.668 253.416 166.668C260.695 160.696 256.89 149.697 256.862 149.611C259.862 141.944 256.606 139.143 256.606 139.143H256.616Z" fill="#FFE266"/>
<path d="M225.824 144.396C225.824 144.396 224.575 138.016 228.105 134.921C228.105 134.921 232.545 134.334 235.081 138.31C235.081 138.31 242.919 135.442 249.346 140.477C249.346 140.477 252.763 138.49 256.616 139.152C256.616 139.152 258.092 142.418 255.574 147.927C255.574 147.927 259.077 158.405 252.413 164.473C252.413 164.473 243.799 172.206 231.409 167.483C231.409 167.483 222.227 163.98 222 154.42C222 154.42 222.284 148.504 225.824 144.406V144.396Z" fill="#FFF3C0"/>
<path d="M229.838 138.385C229.838 138.385 228.257 140.212 228.957 145.673C228.957 145.673 224.054 150.16 225.739 156.994C225.739 156.994 225.739 149.507 229.497 146.629C229.497 146.629 229.128 140.183 230.292 139.445C230.292 139.445 232.753 139.417 234.949 143.146C234.949 143.146 234.362 140.051 229.838 138.385Z" fill="#FFDA40"/>
<path d="M253.927 142.153L253.71 143.317C253.71 143.317 251.126 143.497 248.986 144.68C248.986 144.68 242.796 139.01 234.939 143.156C234.939 143.156 234.93 142.332 236.113 141.651C237.296 140.969 243.723 139.625 248.447 143.686C248.447 143.686 251.097 142.399 253.918 142.153H253.927Z" fill="#FFDA40"/>
<path d="M230.291 139.445C230.291 139.445 228.758 140.126 229.496 146.629C229.496 146.629 225.738 148.92 225.738 156.994C225.738 156.994 227.963 164.302 238.1 165.191C238.1 165.191 250.51 165.314 253.028 157.306C253.028 157.306 254.286 152.299 251.901 148.002C251.901 148.002 253.794 145.001 253.728 143.307C253.728 143.307 251.267 143.212 249.005 144.67C249.005 144.67 242.71 138.811 234.958 143.146C234.958 143.146 233.084 139.369 230.301 139.445H230.291Z" fill="#FFE266"/>
<path d="M247.047 154.089C246.924 153.256 246.431 152.196 245.93 151.524C245.835 151.401 244.898 150.464 244.794 150.351C244.737 150.275 244.671 150.209 244.605 150.161C244.557 150.123 244.51 150.095 244.472 150.095C244.368 150.076 245.286 151.24 245.106 151.325C244.652 151.562 244.197 151.789 243.753 152.026C240.137 153.891 236.114 155.292 232.498 157.166C233.331 158.623 235.347 159.93 236.975 160.356C238.528 160.763 240.175 160.848 241.746 160.488C243.308 160.128 244.784 159.314 245.835 158.093C246.27 157.592 246.63 157.014 246.848 156.39C247.103 155.661 247.17 154.856 247.056 154.089H247.047Z" fill="#FFDA40"/>
<path d="M233.822 149.555C233.528 149.773 233.263 150.009 233.017 150.274C232.27 151.098 231.834 152.158 231.664 153.256C231.503 154.288 231.569 155.386 232.014 156.332C232.516 157.411 233.443 158.235 234.475 158.822C235.98 159.683 237.75 160.09 239.482 159.967C241.214 159.835 242.909 159.172 244.243 158.064C245.181 157.288 245.966 156.266 246.25 155.073C246.581 153.701 246.212 152.196 245.389 151.041C244.565 149.886 243.325 149.072 241.981 148.627C239.511 147.804 236.046 147.927 233.822 149.564V149.555Z" fill="#FFF3C0"/>
<path d="M242.265 152.632C242.123 152.537 241.962 152.452 241.792 152.404C241.063 152.206 240.438 152.537 240.05 153.067C239.738 153.493 239.577 154.042 239.615 154.563C239.634 154.847 239.719 155.121 239.861 155.367C239.795 153.351 240.949 152.622 242.275 152.622L242.265 152.632Z" fill="#FFDA40"/>
<path d="M239.852 155.377C239.984 155.623 240.174 155.831 240.401 155.992C240.864 156.304 241.489 156.37 241.991 156.124C242.256 156.001 242.474 155.793 242.644 155.556C243.032 155.045 243.193 154.364 243.042 153.739C242.928 153.285 242.644 152.887 242.256 152.632C240.448 152.527 239.823 153.786 239.842 155.377H239.852Z" fill="#FFE266"/>
<path d="M237.013 151.731C236.871 151.637 236.71 151.551 236.54 151.504C235.811 151.305 235.186 151.637 234.798 152.167C234.486 152.593 234.325 153.142 234.363 153.662C234.382 153.946 234.467 154.221 234.609 154.467C234.543 152.451 235.698 151.722 237.023 151.722L237.013 151.731Z" fill="#FFDA40"/>
<path d="M234.59 154.476C234.722 154.722 234.912 154.93 235.139 155.091C235.603 155.404 236.228 155.47 236.729 155.224C236.994 155.101 237.212 154.893 237.382 154.656C237.77 154.145 237.931 153.463 237.78 152.839C237.666 152.384 237.382 151.987 236.994 151.731C235.186 151.627 234.562 152.886 234.58 154.476H234.59Z" fill="#FFE266"/>
<path d="M56.6712 165.052C51.5813 155.955 41.6829 156.886 40.4808 157.038C39.2787 157.189 37.1345 157.557 37.0045 160.481C36.8746 163.405 39.5928 163.178 39.5928 163.178H43.1558C48.7764 163.709 49.0471 165.994 49.0471 165.994C49.0471 165.994 41.0981 169.037 39.9502 174.831C39.138 178.903 40.0152 184.827 45.1593 187.198C50.6607 189.732 55.4691 184.729 55.4691 184.729C59.4869 180.181 59.2162 174.831 59.2162 174.831C63.7647 178.307 65.4 181.859 65.4 181.859C66.1255 180.04 68.4756 175.545 68.4756 175.545C66.4613 171.874 56.6712 165.062 56.6712 165.062V165.052ZM51.1264 180.538C50.0001 181.48 45.9607 182.52 45.56 178.773C45.0077 173.618 52.5018 172.102 52.5018 172.102C53.8772 176.509 52.2527 179.607 51.1264 180.538Z" fill="#FFAF22"/>
<path d="M208.492 176.088C206.976 176.034 206.358 175.925 206.358 175.925L203.499 175.395C197.056 159.984 179.75 150.01 179.75 150.01C178.786 146.848 179.208 141.173 179.208 141.173C179.49 133.841 176.284 132.098 176.284 132.098C172.093 129.986 162.628 136.538 162.628 136.538C163.126 127.679 154.658 133.148 154.658 133.148C143.817 139.375 138.034 152.512 138.034 152.512L102.675 152.317C75.1784 153.659 61.2406 184.546 61.2406 184.546C55.371 192.885 51.4073 231.514 70.8791 256.238C90.3508 280.952 133.713 280.421 133.713 280.421C179.068 285.511 195.864 260.678 195.864 260.678C204.366 247.878 204.864 233.355 211.156 219.515C212.997 215.464 214.936 210.32 217.156 206.465C218.13 204.786 218.91 204.754 218.91 204.754L208.481 176.109L208.492 176.088Z" fill="#FFF0B0"/>
<path d="M103.639 262.238C103.639 262.238 97.997 256.044 90.5895 266.44C90.5895 266.44 85.1746 272.082 81.8932 274.378C78.601 276.674 72.9263 280.757 80.3663 289.031C86.7341 296.113 95.8094 289.031 99.8597 284.98C103.91 280.93 108.848 275.851 108.848 275.851C108.848 275.851 111.924 268.054 103.639 262.238Z" fill="#FFAF22"/>
<path d="M163.496 278.537C163.496 278.537 164.676 280.974 167.644 280.432C170.611 279.891 172.647 279.523 172.647 279.523C172.647 279.523 174.347 279.36 174.38 281.569C174.477 288.565 174.932 291.793 181.386 291.793C191.09 291.793 191.144 289.551 191.09 281.569C191.068 277.616 191.22 272.841 188.621 269.191C187.126 267.101 183.628 265.855 181.061 265.617C174.347 265 158.752 264.924 163.485 278.526L163.496 278.537Z" fill="#FFAF22"/>
<path d="M209.435 176.489C209.652 176.598 209.868 176.728 210.063 176.858C213.897 179.392 216.691 183.258 218.705 187.395C219.333 188.684 219.897 190.016 220.243 191.413C220.666 193.08 220.774 194.813 220.752 196.535C220.72 198.571 220.481 200.596 220.059 202.578C219.777 203.899 218.889 205.318 217.308 204.842C216.648 204.647 216.106 204.181 215.597 203.715C211.699 200.141 208.428 195.745 206.836 190.698C205.601 186.778 205.417 182.532 206.295 178.515C206.489 177.594 206.869 176.565 207.746 176.262C208.298 176.067 208.883 176.229 209.424 176.5L209.435 176.489Z" fill="#FFC931"/>
<path d="M162.542 136.515C162.477 136.808 162.401 137.089 162.325 137.36C160.831 142.385 160.56 147.767 161.545 152.922C161.881 154.677 162.358 156.496 161.881 158.207C161.253 160.46 159.174 161.954 157.224 163.254L154.019 165.398C153.152 165.983 152.048 166.578 151.138 166.069C150.521 165.723 150.239 164.997 150.044 164.315C147.044 154.308 149.362 139.851 159.087 134.024C159.943 133.515 161.058 133.093 161.903 133.635C162.802 134.209 162.78 135.4 162.542 136.504V136.515Z" fill="#FFC931"/>
<path d="M175.906 134.275C175.05 134.275 174.205 134.719 173.588 135.336C172.852 136.073 172.386 137.026 171.974 137.979C170.718 140.913 170.003 143.978 169.494 147.108C169.386 147.758 169.44 148.505 169.917 148.971C170.339 149.382 170.967 149.458 171.552 149.512C174.303 149.761 177.053 149.935 179.804 150.021C179.317 147.79 179.111 145.505 179.187 143.231C179.252 141.271 179.512 139.278 179.046 137.372C178.7 135.997 177.812 134.589 176.415 134.329C176.252 134.297 176.079 134.286 175.916 134.286L175.906 134.275Z" fill="#FFC931"/>
<path d="M105.74 157.115C105.101 157.126 104.462 157.137 103.823 157.158C102.859 157.18 101.863 157.213 100.997 157.635C99.8164 158.209 98.2136 160.332 99.9138 161.285C100.466 161.599 101.138 161.609 101.766 161.62C103.347 161.631 104.928 161.631 106.509 161.631H125.818C126.631 161.631 127.562 161.577 128.039 160.927C128.634 160.126 128.158 159.01 127.67 158.133C127.475 157.776 127.248 157.408 126.891 157.223C126.631 157.093 126.327 157.093 126.046 157.083C119.277 156.974 112.498 156.985 105.729 157.115H105.74Z" fill="#FED752"/>
<path d="M209.142 183.972C209.142 183.972 206.554 181.687 208.113 187.297C209.662 192.907 211.882 196.968 214.243 197.856C214.243 197.856 215.705 198.722 214.633 194.499C213.994 191.986 212.932 189.604 211.589 187.384C210.81 186.095 209.911 184.752 209.153 183.983L209.142 183.972Z" fill="#FFF4C7"/>
<path d="M213.495 182.682C213.495 182.682 211.123 180.581 212.542 185.725C213.961 190.869 215.997 194.595 218.163 195.407C218.163 195.407 219.506 196.197 218.52 192.32C217.935 190.014 216.961 187.826 215.726 185.79C215.011 184.61 214.188 183.375 213.495 182.671V182.682Z" fill="#FFF4C7"/>
<path d="M162.661 267.966C162.661 267.966 157.018 261.772 149.611 272.168C149.611 272.168 144.196 277.81 140.915 280.106C137.622 282.402 131.948 286.485 139.388 294.759C145.756 301.841 154.831 294.759 158.881 290.708C162.931 286.658 167.87 281.579 167.87 281.579C167.87 281.579 170.945 273.782 162.661 267.966Z" fill="#FFC931"/>
<path d="M100.597 267.436C100.597 267.436 92.6589 272.017 95.4854 277.313C98.312 282.609 104.658 281.786 105.882 281.58C107.106 281.374 110.116 280.844 110.463 283.486C110.82 286.128 109.185 293.449 117.892 293.384C129.177 293.298 126.707 287.363 127.238 282.782C127.769 278.201 124.921 268.151 116.278 265.855C107.636 263.559 100.586 267.447 100.586 267.447L100.597 267.436Z" fill="#FFC931"/>
<path d="M185.957 187.763C188.995 187.763 191.458 185.3 191.458 182.262C191.458 179.223 188.995 176.76 185.957 176.76C182.918 176.76 180.455 179.223 180.455 182.262C180.455 185.3 182.918 187.763 185.957 187.763Z" fill="#2B110C"/>
<path d="M189.009 181.134C189.458 181.134 189.822 180.771 189.822 180.322C189.822 179.873 189.458 179.51 189.009 179.51C188.561 179.51 188.197 179.873 188.197 180.322C188.197 180.771 188.561 181.134 189.009 181.134Z" fill="white"/>
<path fill-rule="evenodd" clip-rule="evenodd" d="M185.981 206.315C185.981 206.315 185.981 206.315 185.981 206.315C185.981 206.316 185.982 206.317 185.983 206.319C185.986 206.324 185.992 206.336 186.002 206.352C186.021 206.385 186.053 206.439 186.098 206.51C186.189 206.653 186.333 206.864 186.535 207.118C186.938 207.626 187.566 208.298 188.449 208.931C190.192 210.179 192.993 211.321 197.199 210.649C197.79 210.555 198.345 210.957 198.44 211.547C198.534 212.138 198.132 212.693 197.541 212.788C192.737 213.556 189.366 212.251 187.188 210.692C186.111 209.92 185.342 209.098 184.838 208.464C184.586 208.146 184.399 207.874 184.273 207.676C184.209 207.576 184.161 207.495 184.127 207.436C184.11 207.407 184.096 207.383 184.086 207.365L184.074 207.342L184.069 207.334L184.068 207.331L184.067 207.329C184.067 207.329 184.066 207.328 185.025 206.823L184.066 207.328C183.788 206.799 183.991 206.144 184.52 205.865C185.048 205.587 185.701 205.789 185.981 206.315Z" fill="#FFAF22"/>
<path d="M98.1252 95.0093L99.0428 102.619L74.0176 118.885C78.2348 125.364 84.5838 125.605 84.5838 125.605C96.29 126.3 101.212 118.802 101.212 118.802C106.078 112.258 100.572 103.805 100.526 103.74C101.443 96.6683 98.1159 95 98.1159 95L98.1252 95.0093Z" fill="#FFE266"/>
<path d="M73.3491 105.881C73.3491 105.881 70.9578 100.784 73.275 97.4376C73.275 97.4376 76.8897 96.0195 79.8557 98.8187C79.8557 98.8187 85.8432 94.759 92.2941 97.6415C92.2941 97.6415 94.7503 95.2503 98.1241 95C98.1241 95 100.052 97.4376 99.088 102.591C99.088 102.591 104.232 110.664 99.9036 117.161C99.9036 117.161 94.2869 125.466 82.8865 124.094C82.8865 124.094 74.4336 123.084 72.2369 115.085C72.2369 115.085 71.2359 110.052 73.3491 105.863V105.881Z" fill="#FFF3C0"/>
<path d="M75.4521 99.9873C75.4521 99.9873 74.5067 101.85 76.2399 106.299C76.2399 106.299 73.0608 111.1 75.9062 116.495C75.9062 116.495 74.3306 110.211 76.8887 106.994C76.8887 106.994 75.2204 101.656 76.0453 100.784C76.0453 100.784 78.1122 100.247 80.7352 102.925C80.7352 102.925 79.5951 100.441 75.4428 99.9966L75.4521 99.9873Z" fill="#FFDA40"/>
<path d="M96.5021 98.0957L96.5577 99.1152C96.5577 99.1152 94.4259 99.8104 92.8781 101.256C92.8781 101.256 86.4828 97.7898 80.7455 102.925C80.7455 102.925 80.5694 102.239 81.4221 101.414C82.2748 100.589 87.3911 98.1142 92.22 100.533C92.22 100.533 94.1757 98.8928 96.5021 98.0957Z" fill="#FFDA40"/>
<path d="M76.0651 100.783C76.0651 100.783 74.9158 101.682 76.9085 106.993C76.9085 106.993 74.2299 109.709 75.9261 116.493C75.9261 116.493 79.3276 122.166 88.0308 120.794C88.0308 120.794 98.4858 118.291 98.9214 111.034C98.9214 111.034 98.9214 106.557 96.0204 103.443C96.0204 103.443 96.9843 100.524 96.5672 99.1147C96.5672 99.1147 94.4818 99.5504 92.8876 101.256C92.8876 101.256 86.3625 97.6503 80.755 102.924C80.755 102.924 78.3822 100.144 76.0651 100.783Z" fill="#FFE266"/>
<path d="M93.2205 109.571C92.9424 108.903 92.3029 108.106 91.7375 107.652C91.6356 107.569 90.6438 106.975 90.5326 106.901C90.4677 106.846 90.3936 106.809 90.338 106.781C90.2916 106.762 90.2453 106.744 90.2175 106.753C90.1248 106.753 91.1443 107.541 91.0146 107.652C90.6809 107.939 90.3565 108.236 90.0228 108.523C87.372 110.85 84.2856 112.87 81.6348 115.206C82.6358 116.253 84.61 116.93 86.0652 116.948C87.4554 116.958 88.8643 116.689 90.097 116.059C91.339 115.428 92.4049 114.437 93.0259 113.195C93.2854 112.676 93.4708 112.119 93.5171 111.545C93.582 110.877 93.4615 110.192 93.2112 109.571H93.2205Z" fill="#FFDA40"/>
<path d="M81.1533 108.531C80.9586 108.772 80.7825 109.032 80.6342 109.31C80.1801 110.153 80.041 111.145 80.1244 112.1C80.2079 113.008 80.4952 113.907 81.0606 114.612C81.7094 115.409 82.664 115.909 83.6558 116.187C85.1017 116.595 86.6773 116.567 88.1047 116.095C89.5321 115.622 90.8111 114.704 91.7009 113.49C92.3312 112.637 92.7668 111.618 92.7575 110.561C92.7575 109.338 92.1273 108.151 91.1911 107.354C90.255 106.557 89.0408 106.131 87.8174 106.038C85.5744 105.871 82.6826 106.696 81.1533 108.531Z" fill="#FFF3C0"/>
<path d="M88.8925 109.356C88.7535 109.3 88.5959 109.273 88.4476 109.273C87.7988 109.254 87.3447 109.662 87.1222 110.199C86.9461 110.617 86.9276 111.117 87.0666 111.553C87.1408 111.784 87.2705 111.998 87.4374 112.174C86.9554 110.487 87.771 109.634 88.8925 109.356Z" fill="#FFDA40"/>
<path d="M87.4369 112.166C87.6037 112.342 87.7984 112.481 88.0301 112.564C88.4843 112.731 89.0311 112.657 89.4018 112.342C89.5965 112.184 89.7355 111.962 89.8375 111.73C90.0506 111.22 90.0506 110.609 89.7911 110.117C89.6058 109.765 89.2814 109.478 88.9013 109.348C87.3628 109.645 87.094 110.831 87.4462 112.166H87.4369Z" fill="#FFE266"/>
<path d="M84.2871 109.7C84.148 109.645 83.9905 109.617 83.8422 109.617C83.1934 109.598 82.7392 110.006 82.5168 110.544C82.3407 110.961 82.3221 111.461 82.4611 111.897C82.5353 112.129 82.6651 112.342 82.8319 112.518C82.3499 110.831 83.1656 109.978 84.2871 109.7Z" fill="#FFDA40"/>
<path d="M82.8314 112.517C82.9983 112.693 83.1929 112.832 83.4246 112.915C83.8788 113.082 84.4256 113.008 84.7964 112.693C84.991 112.535 85.13 112.313 85.232 112.081C85.4452 111.571 85.4452 110.96 85.1857 110.468C85.0003 110.116 84.6759 109.829 84.2959 109.699C82.7573 109.996 82.4885 111.182 82.8407 112.517H82.8314Z" fill="#FFE266"/>
</g>
<defs>
<clipPath id="clip0_113_24738">
<rect width="258.15" height="297.78" fill="white"/>
</clipPath>
</defs>
</svg>
