<svg width="226" height="209" viewBox="0 0 226 209" fill="none" xmlns="http://www.w3.org/2000/svg">
<g clip-path="url(#clip0_113_24989)">
<path d="M219.132 87.35H214.252C211.322 66.63 202.032 47.96 188.432 33.35C190.842 23.75 196.202 21.63 196.202 21.63C200.472 19.62 199.972 15.86 199.972 15.86C199.472 11.84 193.192 9.58 193.192 9.58C181.592 6.76 171.972 11.93 166.762 15.77C151.702 6.71 134.082 1.5 115.242 1.5C63.5323 1.5 20.9823 40.76 15.7823 91.1C14.5723 91.74 13.1923 92.06 11.8623 91.76C10.0123 91.34 8.4423 89.49 8.7823 87.62C9.0723 85.97 10.5823 84.87 11.9023 83.83C13.2223 82.79 14.5623 81.35 14.3123 79.69C14.0523 78.02 12.1523 76.99 10.4723 77.21C8.7923 77.43 7.3923 78.57 6.2823 79.84C1.9523 84.84 0.0723038 95.04 7.0123 98.72C8.7723 99.65 10.7623 100.07 12.7423 100.29C13.5823 100.38 14.4723 100.42 15.2523 100.11C15.2523 100.57 15.2323 101.04 15.2323 101.5C15.2323 140.98 38.1123 175.12 71.3423 191.37C71.2923 191.46 71.2323 191.54 71.2023 191.63L66.8223 201.6C65.7423 204.05 68.0923 206.6 71.4323 206.6H80.8623C82.8623 206.6 84.6523 205.65 85.3923 204.21L88.6023 197.91C97.0823 200.25 106.022 201.5 115.242 201.5C124.462 201.5 133.402 200.24 141.882 197.91L145.092 204.21C145.822 205.65 147.622 206.6 149.622 206.6H159.052C162.392 206.6 164.742 204.05 163.662 201.6L159.282 191.63C159.242 191.54 159.182 191.46 159.142 191.37C186.172 178.15 206.352 153.09 212.942 122.95H219.142C222.012 122.95 224.362 120.6 224.362 117.73V92.57C224.362 89.7 222.012 87.35 219.142 87.35H219.132Z" fill="#FFF3C0"/>
<path d="M159.052 208.1H149.622C147.052 208.1 144.752 206.84 143.752 204.89L141.102 199.67C124.272 204.09 106.222 204.09 89.3915 199.67L86.7415 204.89C85.7515 206.84 83.4515 208.1 80.8715 208.1H71.4415C69.0915 208.1 66.9515 207.04 65.8415 205.34C64.9715 204.01 64.8315 202.42 65.4615 200.99L69.3815 192.06C53.1315 183.82 39.3915 171.36 29.5715 155.95C19.2815 139.79 13.8115 121.09 13.7415 101.85C13.3415 101.85 12.9515 101.82 12.5815 101.78C10.0015 101.5 8.01153 100.95 6.31153 100.05C3.53153 98.58 1.74153 96.09 1.14153 92.84C0.291527 88.32 1.94153 82.57 5.15153 78.86C6.75153 77.01 8.48153 75.95 10.2815 75.72C12.6315 75.41 15.3915 76.85 15.7915 79.47C16.0815 81.37 15.0815 83.23 12.8315 85.02L12.6015 85.2C11.5415 86.04 10.4415 86.9 10.2615 87.89C10.0915 88.87 11.0315 90.04 12.2015 90.31C12.9915 90.49 13.7615 90.34 14.3915 90.1C17.1315 65.6 28.7215 42.97 47.0715 26.32C65.7615 9.34 89.9715 0 115.242 0C133.372 0 151.132 4.83 166.672 13.98C171.932 10.3 181.772 5.27 193.532 8.13L193.682 8.18C194.412 8.44 200.842 10.89 201.442 15.68C201.472 15.87 202.032 20.55 196.822 23C196.572 23.11 192.312 24.99 190.072 32.95C203.682 47.8 212.462 66.05 215.522 85.86H219.112C222.822 85.86 225.832 88.87 225.832 92.58V117.74C225.832 121.45 222.822 124.46 219.112 124.46H214.112C207.402 153.45 187.702 178.56 161.092 192.07L165.012 201C165.642 202.43 165.502 204.02 164.632 205.35C163.522 207.05 161.372 208.11 159.032 208.11L159.052 208.1ZM142.672 196.13L146.432 203.52C146.912 204.46 148.192 205.09 149.622 205.09H159.052C160.372 205.09 161.592 204.54 162.142 203.69C162.462 203.2 162.512 202.7 162.282 202.19L157.822 192.09L157.052 190.71L158.472 190.01C185.292 176.89 205.102 151.69 211.462 122.62L211.722 121.44H219.132C221.182 121.44 222.852 119.77 222.852 117.72V92.56C222.852 90.51 221.182 88.84 219.132 88.84H212.942L212.762 87.55C209.932 67.58 201.142 49.19 187.332 34.37L186.772 33.77L186.972 32.98C189.542 22.75 195.392 20.33 195.642 20.23C198.672 18.8 198.502 16.31 198.472 16.03C198.162 13.54 194.302 11.59 192.742 11.01C181.572 8.33 172.222 13.59 167.632 16.97L166.822 17.56L165.962 17.04C150.692 7.84 133.152 2.98 115.232 2.98C90.7115 2.98 67.2115 12.05 49.0615 28.51C31.0415 44.86 19.7515 67.14 17.2615 91.23L17.1815 92.02L16.4715 92.4C14.8215 93.28 13.1015 93.56 11.5215 93.2C8.77153 92.58 6.83153 89.9 7.29153 87.33C7.67153 85.21 9.36153 83.88 10.7315 82.8L10.9615 82.62C11.8815 81.89 12.9615 80.82 12.8115 79.88C12.7015 79.14 11.6215 78.54 10.6515 78.66C9.60153 78.79 8.51153 79.51 7.41153 80.79C4.80153 83.81 3.40153 88.63 4.08153 92.25C4.52153 94.59 5.74153 96.31 7.71153 97.36C9.06153 98.08 10.7115 98.52 12.9015 98.76C13.5115 98.83 14.2115 98.87 14.7015 98.68L16.7815 97.86L16.7415 100.52C16.7415 100.84 16.7315 101.16 16.7315 101.48C16.7315 120.27 22.0415 138.55 32.0915 154.32C41.8715 169.68 55.6715 182.02 72.0015 190.01L73.4115 190.7L72.5715 192.23L68.1915 202.19C67.9715 202.7 68.0215 203.2 68.3315 203.69C68.8815 204.54 70.1015 205.09 71.4215 205.09H80.8515C82.2815 205.09 83.5615 204.46 84.0415 203.52L87.8015 196.13L88.9815 196.46C106.032 201.16 124.422 201.16 141.472 196.46L142.652 196.13H142.672Z" fill="#FFEEA6"/>
<path d="M115.242 191.26C164.816 191.26 205.002 151.073 205.002 101.5C205.002 51.9272 164.816 11.7402 115.242 11.7402C65.6693 11.7402 25.4824 51.9272 25.4824 101.5C25.4824 151.073 65.6693 191.26 115.242 191.26Z" fill="#FFFAE6"/>
<path d="M160.771 156.17C171.888 156.17 180.901 147.789 180.901 137.45C180.901 127.111 171.888 118.73 160.771 118.73C149.653 118.73 140.641 127.111 140.641 137.45C140.641 147.789 149.653 156.17 160.771 156.17Z" fill="#FFDA40"/>
<path d="M160.771 152.15C169.503 152.15 176.581 145.569 176.581 137.45C176.581 129.331 169.503 122.75 160.771 122.75C152.039 122.75 144.961 129.331 144.961 137.45C144.961 145.569 152.039 152.15 160.771 152.15Z" fill="#FFEEA6"/>
<path d="M154.442 164.52C154.702 168.04 154.632 170.08 154.542 171.1C154.482 171.74 154.252 172.35 153.862 172.86C152.572 174.54 150.012 176.31 150.012 176.31C150.012 176.31 140.912 182.97 123.572 181C114.052 179.92 109.292 175.9 107.802 174.41C107.422 174.03 107.202 173.54 107.162 173.01C106.972 170.5 107.262 165.02 107.262 165.02L154.432 164.52H154.442Z" fill="#FFC52F"/>
<path d="M114.211 156.99C112.491 157.63 110.861 158.52 109.581 159.8C107.961 161.41 106.961 163.73 107.371 165.96C107.861 168.61 110.161 170.57 112.571 171.86C117.871 174.71 124.131 175.34 130.171 175.12C136.411 174.88 142.691 173.76 148.281 171.04C151.661 169.4 156.271 165.93 153.711 161.75C152.861 160.37 151.481 159.38 150.041 158.59C143.511 154.97 135.641 154.73 128.151 154.94C123.911 155.06 119.621 155.31 115.561 156.54C115.111 156.68 114.661 156.83 114.211 156.99Z" fill="#FFDA40"/>
<path d="M116.993 158.32C115.563 158.86 114.203 159.59 113.133 160.66C111.783 162 110.953 163.93 111.293 165.78C111.703 167.98 113.623 169.61 115.623 170.68C120.033 173.05 125.253 173.58 130.283 173.39C135.473 173.19 140.713 172.26 145.373 170C148.183 168.63 152.033 165.75 149.893 162.28C149.183 161.13 148.033 160.31 146.843 159.65C141.403 156.64 134.853 156.44 128.613 156.62C125.083 156.72 121.503 156.93 118.123 157.95C117.743 158.06 117.373 158.19 117.003 158.33L116.993 158.32Z" fill="#FFEEA6"/>
<path d="M160.341 156.21C160.601 159.73 160.531 161.77 160.441 162.79C160.381 163.43 160.151 164.04 159.761 164.55C158.471 166.23 155.911 168 155.911 168C155.911 168 146.811 174.66 129.471 172.69C119.951 171.61 115.191 167.59 113.701 166.1C113.321 165.72 113.101 165.23 113.061 164.7C112.871 162.19 113.161 156.71 113.161 156.71L160.331 156.21H160.341Z" fill="#FFC52F"/>
<path d="M120.1 148.68C118.38 149.32 116.75 150.21 115.47 151.49C113.85 153.1 112.85 155.42 113.26 157.65C113.75 160.3 116.05 162.26 118.46 163.55C123.76 166.4 130.02 167.03 136.06 166.81C142.3 166.57 148.58 165.45 154.17 162.73C157.55 161.09 162.16 157.62 159.6 153.44C158.75 152.06 157.37 151.07 155.93 150.28C149.4 146.66 141.53 146.42 134.04 146.63C129.8 146.75 125.51 147 121.45 148.23C121 148.37 120.55 148.52 120.1 148.68Z" fill="#FFDA40"/>
<path d="M122.88 150.02C121.45 150.56 120.09 151.29 119.02 152.36C117.67 153.7 116.84 155.63 117.18 157.48C117.59 159.68 119.51 161.31 121.51 162.38C125.92 164.75 131.14 165.28 136.17 165.09C141.36 164.89 146.6 163.96 151.26 161.7C154.07 160.33 157.92 157.45 155.78 153.98C155.07 152.83 153.92 152.01 152.73 151.35C147.29 148.34 140.74 148.14 134.5 148.32C130.97 148.42 127.39 148.63 124.01 149.65C123.63 149.76 123.26 149.89 122.89 150.03L122.88 150.02Z" fill="#FFEEA6"/>
<path d="M164.722 148.22C164.981 151.74 164.911 153.78 164.821 154.8C164.761 155.44 164.531 156.05 164.141 156.56C162.851 158.24 160.291 160.01 160.291 160.01C160.291 160.01 151.191 166.67 133.851 164.7C124.331 163.62 119.571 159.6 118.081 158.11C117.701 157.73 117.481 157.24 117.441 156.71C117.251 154.2 117.541 148.72 117.541 148.72L164.711 148.22H164.722Z" fill="#FFC52F"/>
<path d="M124.481 140.69C122.761 141.33 121.131 142.22 119.851 143.5C118.231 145.11 117.231 147.43 117.641 149.66C118.131 152.31 120.431 154.27 122.841 155.56C128.141 158.41 134.401 159.04 140.441 158.82C146.681 158.58 152.961 157.46 158.551 154.74C161.931 153.1 166.541 149.63 163.981 145.45C163.131 144.07 161.751 143.08 160.311 142.29C153.781 138.67 145.911 138.43 138.421 138.64C134.181 138.76 129.891 139.01 125.831 140.24C125.381 140.38 124.931 140.53 124.481 140.69Z" fill="#FFDA40"/>
<path d="M127.261 142.03C125.831 142.57 124.471 143.3 123.401 144.37C122.051 145.71 121.221 147.64 121.561 149.49C121.971 151.69 123.891 153.32 125.891 154.39C130.301 156.76 135.521 157.29 140.551 157.1C145.741 156.9 150.981 155.97 155.641 153.71C158.451 152.34 162.301 149.46 160.161 145.99C159.451 144.84 158.301 144.02 157.111 143.36C151.671 140.35 145.121 140.15 138.881 140.33C135.351 140.43 131.771 140.64 128.391 141.66C128.011 141.77 127.641 141.9 127.271 142.04L127.261 142.03Z" fill="#FFEEA6"/>
<path d="M160.591 140.45C160.851 143.97 160.781 146.01 160.691 147.03C160.631 147.67 160.401 148.28 160.011 148.79C158.721 150.47 156.161 152.24 156.161 152.24C156.161 152.24 147.061 158.9 129.721 156.93C120.201 155.85 115.441 151.83 113.951 150.34C113.571 149.96 113.351 149.47 113.311 148.94C113.121 146.43 113.411 140.95 113.411 140.95L160.581 140.45H160.591Z" fill="#FFC52F"/>
<path d="M120.36 132.92C118.64 133.56 117.01 134.45 115.73 135.73C114.11 137.34 113.11 139.66 113.52 141.89C114.01 144.54 116.31 146.5 118.72 147.79C124.02 150.64 130.28 151.27 136.32 151.05C142.56 150.81 148.84 149.69 154.43 146.97C157.81 145.33 162.42 141.86 159.86 137.68C159.01 136.3 157.63 135.31 156.19 134.52C149.66 130.9 141.79 130.66 134.3 130.87C130.06 130.99 125.77 131.24 121.71 132.47C121.26 132.61 120.81 132.76 120.36 132.92Z" fill="#FFDA40"/>
<path d="M123.141 134.25C121.711 134.79 120.351 135.52 119.281 136.59C117.931 137.93 117.101 139.86 117.441 141.71C117.851 143.91 119.771 145.54 121.771 146.61C126.181 148.98 131.401 149.51 136.431 149.32C141.621 149.12 146.861 148.19 151.521 145.93C154.331 144.56 158.181 141.68 156.041 138.21C155.331 137.06 154.181 136.24 152.991 135.58C147.551 132.57 141.001 132.37 134.761 132.55C131.231 132.65 127.651 132.86 124.271 133.88C123.891 133.99 123.521 134.12 123.151 134.26L123.141 134.25Z" fill="#FFEEA6"/>
<path d="M166.712 132.03C166.972 135.55 166.902 137.59 166.812 138.61C166.752 139.25 166.522 139.86 166.132 140.37C164.842 142.05 162.282 143.82 162.282 143.82C162.282 143.82 153.182 150.48 135.842 148.51C126.322 147.43 121.562 143.41 120.072 141.92C119.692 141.54 119.472 141.05 119.432 140.52C119.242 138.01 119.532 132.53 119.532 132.53L166.702 132.03H166.712Z" fill="#FFC52F"/>
<path d="M126.471 124.5C124.751 125.14 123.121 126.03 121.841 127.31C120.221 128.92 119.221 131.24 119.631 133.47C120.121 136.12 122.421 138.08 124.831 139.37C130.131 142.22 136.391 142.85 142.431 142.63C148.671 142.39 154.951 141.27 160.541 138.55C163.921 136.91 168.531 133.44 165.971 129.26C165.121 127.88 163.741 126.89 162.301 126.1C155.771 122.48 147.901 122.24 140.411 122.45C136.171 122.57 131.881 122.82 127.821 124.05C127.371 124.19 126.921 124.34 126.471 124.5Z" fill="#FFDA40"/>
<path d="M129.251 125.83C127.821 126.37 126.461 127.1 125.391 128.17C124.041 129.51 123.211 131.44 123.551 133.29C123.961 135.49 125.881 137.12 127.881 138.19C132.291 140.56 137.511 141.09 142.541 140.9C147.731 140.7 152.971 139.77 157.631 137.51C160.441 136.14 164.291 133.26 162.151 129.79C161.441 128.64 160.291 127.82 159.101 127.16C153.661 124.15 147.111 123.95 140.871 124.13C137.341 124.23 133.761 124.44 130.381 125.46C130.001 125.57 129.631 125.7 129.261 125.84L129.251 125.83Z" fill="#FFEEA6"/>
<path d="M117.682 168.76C117.932 172.12 117.862 174.08 117.782 175.05C117.732 175.66 117.512 176.24 117.132 176.73C115.902 178.34 113.452 180.03 113.452 180.03C113.452 180.03 104.752 186.4 88.1722 184.51C79.0622 183.47 74.5222 179.64 73.0922 178.21C72.7322 177.85 72.5222 177.38 72.4822 176.87C72.3022 174.47 72.5822 169.23 72.5822 169.23L117.682 168.76Z" fill="#FFC52F"/>
<path d="M79.2115 161.55C77.5715 162.17 76.0115 163.01 74.7815 164.24C73.2315 165.78 72.2815 168 72.6715 170.13C73.1415 172.66 75.3415 174.53 77.6415 175.77C82.7115 178.5 88.6915 179.1 94.4715 178.88C100.432 178.65 106.442 177.58 111.792 174.98C115.022 173.41 119.432 170.09 116.982 166.1C116.172 164.78 114.852 163.83 113.482 163.08C107.242 159.62 99.7115 159.39 92.5515 159.59C88.4915 159.71 84.3915 159.95 80.5115 161.12C80.0815 161.25 79.6515 161.39 79.2215 161.55H79.2115Z" fill="#FFDA40"/>
<path d="M81.8721 162.83C80.5021 163.34 79.2021 164.05 78.1821 165.06C76.8921 166.34 76.0921 168.19 76.4221 169.96C76.8121 172.06 78.6521 173.62 80.5621 174.65C84.7821 176.92 89.7721 177.42 94.5721 177.24C99.5421 177.05 104.542 176.16 109.002 174C111.692 172.69 115.362 169.94 113.322 166.62C112.642 165.52 111.542 164.74 110.402 164.11C105.202 161.24 98.9321 161.04 92.9621 161.21C89.5821 161.31 86.1621 161.51 82.9321 162.48C82.5721 162.59 82.2121 162.71 81.8621 162.84L81.8721 162.83Z" fill="#FFEEA6"/>
<path d="M111.472 160.08C111.722 163.36 111.652 165.27 111.562 166.22C111.512 166.82 111.292 167.38 110.932 167.86C109.732 169.43 107.342 171.08 107.342 171.08C107.342 171.08 98.8619 177.3 82.6819 175.45C73.8019 174.44 69.3719 170.7 67.9719 169.3C67.6219 168.95 67.4119 168.49 67.3819 167.99C67.2119 165.65 67.4719 160.54 67.4719 160.54L111.472 160.08Z" fill="#FFC52F"/>
<path d="M73.9416 153.05C72.3416 153.65 70.8216 154.48 69.6216 155.67C68.1116 157.17 67.1816 159.34 67.5616 161.42C68.0216 163.89 70.1716 165.72 72.4116 166.92C77.3516 169.58 83.1916 170.17 88.8216 169.96C94.6416 169.74 100.502 168.69 105.712 166.15C108.862 164.62 113.162 161.38 110.772 157.48C109.982 156.19 108.692 155.27 107.352 154.53C101.262 151.16 93.9216 150.93 86.9316 151.13C82.9716 151.24 78.9716 151.48 75.1916 152.62C74.7716 152.75 74.3516 152.89 73.9316 153.04L73.9416 153.05Z" fill="#FFDA40"/>
<path d="M76.5309 154.3C75.1909 154.8 73.9309 155.49 72.9309 156.48C71.6709 157.73 70.9009 159.53 71.2209 161.26C71.6009 163.31 73.3909 164.83 75.2609 165.83C79.3809 168.04 84.2409 168.53 88.9309 168.35C93.7809 168.17 98.6609 167.3 103.001 165.19C105.631 163.92 109.211 161.23 107.221 157.99C106.561 156.92 105.491 156.15 104.371 155.54C99.3009 152.74 93.1909 152.55 87.3609 152.71C84.0609 152.8 80.7309 153 77.5809 153.95C77.2309 154.06 76.8809 154.17 76.5309 154.3Z" fill="#FFEEA6"/>
<path d="M116.971 152.91C117.221 156.27 117.151 158.23 117.071 159.2C117.021 159.81 116.801 160.39 116.421 160.88C115.191 162.49 112.741 164.18 112.741 164.18C112.741 164.18 104.041 170.55 87.4613 168.66C78.3513 167.62 73.8113 163.79 72.3813 162.36C72.0213 162 71.8113 161.53 71.7713 161.02C71.5913 158.62 71.8713 153.38 71.8713 153.38L116.971 152.91Z" fill="#FFC52F"/>
<path d="M78.4908 145.71C76.8508 146.33 75.2908 147.17 74.0608 148.4C72.5108 149.94 71.5608 152.16 71.9508 154.29C72.4208 156.82 74.6208 158.69 76.9208 159.93C81.9908 162.66 87.9708 163.26 93.7508 163.04C99.7108 162.81 105.721 161.74 111.071 159.14C114.301 157.57 118.711 154.25 116.261 150.26C115.451 148.94 114.131 147.99 112.761 147.24C106.521 143.78 98.9908 143.55 91.8308 143.75C87.7708 143.87 83.6708 144.11 79.7908 145.28C79.3608 145.41 78.9308 145.55 78.5008 145.71H78.4908Z" fill="#FFDA40"/>
<path d="M81.1514 146.99C79.7814 147.5 78.4814 148.21 77.4614 149.22C76.1714 150.5 75.3714 152.35 75.7014 154.12C76.0914 156.22 77.9314 157.78 79.8414 158.81C84.0614 161.08 89.0514 161.58 93.8514 161.4C98.8214 161.21 103.821 160.32 108.281 158.16C110.971 156.85 114.641 154.1 112.601 150.78C111.921 149.68 110.821 148.9 109.681 148.27C104.481 145.4 98.2114 145.2 92.2414 145.37C88.8614 145.47 85.4414 145.67 82.2114 146.64C81.8514 146.75 81.4914 146.87 81.1414 147L81.1514 146.99Z" fill="#FFEEA6"/>
<path d="M109.481 144.57C109.731 147.93 109.661 149.89 109.581 150.86C109.531 151.47 109.311 152.05 108.931 152.54C107.701 154.15 105.251 155.84 105.251 155.84C105.251 155.84 96.5511 162.21 79.9711 160.32C70.8611 159.28 66.3211 155.45 64.8911 154.02C64.5311 153.66 64.3211 153.19 64.2811 152.68C64.1011 150.28 64.3811 145.04 64.3811 145.04L109.481 144.57Z" fill="#FFC52F"/>
<path d="M71.0006 137.36C69.3606 137.98 67.8006 138.82 66.5706 140.05C65.0206 141.59 64.0706 143.81 64.4606 145.94C64.9306 148.47 67.1306 150.34 69.4306 151.58C74.5006 154.31 80.4806 154.91 86.2606 154.69C92.2206 154.46 98.2306 153.39 103.581 150.79C106.811 149.22 111.221 145.9 108.771 141.91C107.961 140.59 106.641 139.64 105.271 138.89C99.0306 135.43 91.5006 135.2 84.3406 135.4C80.2806 135.52 76.1806 135.76 72.3006 136.93C71.8706 137.06 71.4406 137.2 71.0106 137.36H71.0006Z" fill="#FFDA40"/>
<path d="M73.6611 138.64C72.2911 139.15 70.9911 139.86 69.9711 140.87C68.6811 142.15 67.8811 144 68.2111 145.77C68.6011 147.87 70.4411 149.43 72.3511 150.46C76.5711 152.73 81.5611 153.23 86.3611 153.05C91.3311 152.86 96.3311 151.97 100.791 149.81C103.481 148.5 107.151 145.75 105.111 142.43C104.431 141.33 103.331 140.55 102.191 139.92C96.9911 137.05 90.7211 136.85 84.7511 137.02C81.3711 137.12 77.9511 137.32 74.7211 138.29C74.3611 138.4 74.0011 138.52 73.6511 138.65L73.6611 138.64Z" fill="#FFEEA6"/>
<path d="M118.282 139.44C118.522 142.61 118.452 144.45 118.372 145.37C118.322 145.95 118.112 146.49 117.762 146.95C116.602 148.46 114.292 150.06 114.292 150.06C114.292 150.06 106.092 156.06 90.4724 154.28C81.8924 153.3 77.6124 149.69 76.2624 148.34C75.9224 148 75.7224 147.56 75.6924 147.08C75.5224 144.82 75.7824 139.88 75.7824 139.88L118.282 139.43V139.44Z" fill="#FFC52F"/>
<path d="M82.0323 132.66C80.4823 133.24 79.0123 134.04 77.8623 135.19C76.4023 136.64 75.5022 138.73 75.8722 140.74C76.3122 143.12 78.3922 144.89 80.5522 146.05C85.3223 148.62 90.9623 149.19 96.4023 148.98C102.022 148.77 107.682 147.75 112.722 145.3C115.762 143.82 119.922 140.69 117.612 136.93C116.852 135.68 115.602 134.8 114.312 134.08C108.432 130.82 101.342 130.6 94.5923 130.79C90.7723 130.9 86.9023 131.12 83.2523 132.23C82.8423 132.35 82.4423 132.49 82.0423 132.64L82.0323 132.66Z" fill="#FFDA40"/>
<path d="M84.5316 133.86C83.2416 134.34 82.0216 135.01 81.0516 135.97C79.8416 137.18 79.0816 138.92 79.3916 140.58C79.7616 142.56 81.4916 144.03 83.2916 145C87.2716 147.13 91.9616 147.61 96.5016 147.44C101.182 147.26 105.902 146.42 110.092 144.38C112.632 143.15 116.092 140.55 114.162 137.42C113.522 136.38 112.482 135.65 111.412 135.05C106.512 132.34 100.612 132.16 94.9816 132.32C91.8016 132.41 88.5816 132.6 85.5316 133.52C85.1916 133.62 84.8516 133.74 84.5216 133.86H84.5316Z" fill="#FFEEA6"/>
<path d="M74.391 148.28C72.711 151.35 70.601 153.73 70.601 153.73C68.701 155.87 65.991 157.34 63.151 157.66C60.551 157.96 57.911 157.5 55.461 156.63C54.311 156.22 53.201 155.73 52.151 155.12C49.841 153.79 47.811 152 46.241 149.84C43.441 146.01 41.681 140.71 43.921 136.2C44.741 134.55 45.701 132.96 46.791 131.48L74.401 148.27L74.391 148.28Z" fill="#FFC52F"/>
<path d="M74.3905 148.287C78.0871 142.21 74.9024 133.523 67.2772 128.885C59.6521 124.247 50.4739 125.414 46.7773 131.491C43.0807 137.569 46.2654 146.255 53.8906 150.893C61.5157 155.531 70.6939 154.365 74.3905 148.287Z" fill="#FFDA40"/>
<path d="M70.921 146.178C73.6906 141.624 71.3074 135.118 65.5979 131.645C59.8885 128.172 53.0149 129.048 50.2453 133.602C47.4757 138.155 49.8589 144.661 55.5683 148.134C61.2778 151.607 68.1514 150.731 70.921 146.178Z" fill="#FFEEA6"/>
<path d="M89.8203 136.39C91.6903 139.81 94.0403 142.46 94.0403 142.46C96.1603 144.84 99.1703 146.48 102.33 146.84C105.22 147.17 108.16 146.66 110.89 145.7C112.16 145.25 113.4 144.7 114.58 144.02C117.15 142.54 119.41 140.54 121.16 138.15C124.27 133.89 126.23 127.99 123.74 122.97C122.83 121.14 121.76 119.36 120.55 117.72L89.8303 136.4L89.8203 136.39Z" fill="#FFC52F"/>
<path d="M112.628 139.29C121.112 134.13 124.656 124.465 120.543 117.703C116.43 110.942 106.219 109.643 97.7346 114.804C89.2506 119.964 85.7071 129.629 89.8199 136.391C93.9327 143.152 104.144 144.45 112.628 139.29Z" fill="#FFDA40"/>
<path d="M110.762 136.223C117.113 132.36 119.763 125.12 116.68 120.052C113.598 114.984 105.951 114.008 99.5994 117.871C93.2482 121.734 90.5984 128.974 93.6808 134.042C96.7633 139.109 104.411 140.086 110.762 136.223Z" fill="#FFEEA6"/>
</g>
<defs>
<clipPath id="clip0_113_24989">
<rect width="224.93" height="208.1" fill="white" transform="translate(0.921875)"/>
</clipPath>
</defs>
</svg>
