<svg width="100%" height="100%" viewBox="0 0 226 209" fill="none" xmlns="http://www.w3.org/2000/svg">
<g clip-path="url(#clip0_113_24994)">
<path d="M218.843 87.35H213.963C211.033 66.63 201.743 47.96 188.143 33.35C190.553 23.75 195.913 21.63 195.913 21.63C200.183 19.62 199.683 15.86 199.683 15.86C199.183 11.84 192.903 9.58 192.903 9.58C181.303 6.76 171.683 11.93 166.473 15.77C151.413 6.71 133.793 1.5 114.953 1.5C63.2432 1.5 20.6932 40.76 15.4932 91.1C14.2832 91.74 12.9032 92.06 11.5732 91.76C9.72324 91.34 8.15324 89.49 8.49324 87.62C8.78324 85.97 10.2932 84.87 11.6132 83.83C12.9332 82.79 14.2732 81.35 14.0232 79.69C13.7632 78.02 11.8632 76.99 10.1832 77.21C8.50324 77.43 7.10324 78.57 5.99324 79.84C1.66324 84.84 -0.216759 95.04 6.72324 98.72C8.48324 99.65 10.4732 100.07 12.4532 100.29C13.2932 100.38 14.1832 100.42 14.9632 100.11C14.9632 100.57 14.9432 101.04 14.9432 101.5C14.9432 140.98 37.8232 175.12 71.0532 191.37C71.0032 191.46 70.9432 191.54 70.9132 191.63L66.5332 201.6C65.4532 204.05 67.8032 206.6 71.1432 206.6H80.5732C82.5732 206.6 84.3632 205.65 85.1032 204.21L88.3132 197.91C96.7932 200.25 105.733 201.5 114.953 201.5C124.173 201.5 133.113 200.24 141.593 197.91L144.803 204.21C145.533 205.65 147.333 206.6 149.333 206.6H158.763C162.103 206.6 164.453 204.05 163.373 201.6L158.993 191.63C158.953 191.54 158.893 191.46 158.853 191.37C185.883 178.15 206.063 153.09 212.653 122.95H218.853C221.723 122.95 224.073 120.6 224.073 117.73V92.57C224.073 89.7 221.723 87.35 218.853 87.35H218.843Z" fill="#FFF3C0"/>
<path d="M158.762 208.1H149.332C146.762 208.1 144.462 206.84 143.462 204.89L140.812 199.67C123.982 204.09 105.922 204.09 89.1025 199.67L86.4525 204.89C85.4625 206.84 83.1625 208.1 80.5825 208.1H71.1525C68.8025 208.1 66.6625 207.04 65.5525 205.34C64.6825 204.01 64.5425 202.42 65.1725 200.99L69.0925 192.06C52.8425 183.82 39.1025 171.36 29.2825 155.95C18.9925 139.79 13.5225 121.09 13.4525 101.85C13.0525 101.85 12.6625 101.82 12.2925 101.78C9.71246 101.5 7.72246 100.95 6.02246 100.05C3.24246 98.58 1.45246 96.09 0.852464 92.85C0.00246429 88.33 1.65246 82.58 4.86246 78.87C6.46246 77.02 8.19246 75.96 9.99246 75.73C12.3225 75.43 15.1025 76.86 15.5025 79.47C15.7925 81.37 14.7925 83.23 12.5425 85.02L12.3125 85.2C11.2525 86.04 10.1425 86.9 9.97246 87.89C9.80246 88.87 10.7425 90.04 11.9125 90.3C12.7025 90.48 13.4725 90.33 14.1025 90.09C16.8425 65.59 28.4225 42.96 46.7825 26.31C65.4725 9.34 89.6825 0 114.952 0C133.082 0 150.842 4.83 166.382 13.98C171.642 10.3 181.482 5.28 193.242 8.13L193.392 8.18C194.122 8.44 200.552 10.89 201.152 15.68C201.172 15.87 201.742 20.55 196.532 23C196.282 23.11 192.022 24.99 189.782 32.95C203.392 47.8 212.172 66.05 215.232 85.86H218.822C222.532 85.86 225.542 88.87 225.542 92.58V117.74C225.542 121.45 222.532 124.46 218.822 124.46H213.822C207.112 153.45 187.412 178.56 160.802 192.07L164.722 201C165.352 202.43 165.212 204.02 164.342 205.35C163.232 207.05 161.082 208.11 158.742 208.11L158.762 208.1ZM142.382 196.13L146.142 203.52C146.622 204.46 147.902 205.09 149.332 205.09H158.762C160.082 205.09 161.302 204.54 161.852 203.69C162.172 203.2 162.222 202.7 161.992 202.19L157.532 192.09L156.762 190.71L158.182 190.01C185.002 176.89 204.812 151.69 211.172 122.62L211.432 121.44H218.832C220.882 121.44 222.552 119.77 222.552 117.72V92.56C222.552 90.51 220.882 88.84 218.832 88.84H212.642L212.462 87.55C209.632 67.58 200.842 49.19 187.032 34.37L186.472 33.77L186.672 32.98C189.242 22.75 195.092 20.33 195.342 20.23C198.372 18.8 198.202 16.31 198.172 16.03C197.862 13.54 194.002 11.59 192.442 11.01C181.272 8.33 171.922 13.59 167.342 16.97L166.532 17.56L165.672 17.04C150.402 7.84 132.862 2.98 114.942 2.98C90.4225 2.98 66.9225 12.05 48.7725 28.51C30.7525 44.86 19.4625 67.14 16.9725 91.23L16.8925 92.02L16.1825 92.4C14.5325 93.28 12.8225 93.56 11.2325 93.2C8.48246 92.58 6.54246 89.9 7.00246 87.33C7.38246 85.21 9.08247 83.87 10.4425 82.8L10.6725 82.62C11.5925 81.89 12.6725 80.82 12.5225 79.88C12.4125 79.14 11.3425 78.54 10.3625 78.66C9.31246 78.79 8.22246 79.51 7.12246 80.79C4.51246 83.81 3.11246 88.63 3.79246 92.26C4.23246 94.6 5.45246 96.32 7.42246 97.37C8.77246 98.09 10.4225 98.53 12.6125 98.77C13.2225 98.84 13.9225 98.88 14.4125 98.69L16.4925 97.87L16.4525 100.54C16.4525 100.85 16.4425 101.17 16.4425 101.49C16.4425 120.28 21.7525 138.56 31.8025 154.33C41.5825 169.69 55.3825 182.03 71.7125 190.02L73.1225 190.71L72.2825 192.23L67.9025 202.19C67.6825 202.7 67.7225 203.2 68.0425 203.69C68.5925 204.54 69.8125 205.09 71.1325 205.09H80.5625C81.9925 205.09 83.2725 204.46 83.7525 203.52L87.5125 196.13L88.6925 196.46C105.732 201.16 124.142 201.16 141.182 196.46L142.362 196.13H142.382Z" fill="#FFEEA6"/>
<path d="M114.953 191.26C164.526 191.26 204.713 151.073 204.713 101.5C204.713 51.9272 164.526 11.7402 114.953 11.7402C65.3803 11.7402 25.1934 51.9272 25.1934 101.5C25.1934 151.073 65.3803 191.26 114.953 191.26Z" fill="#FFFAE6"/>
<path d="M174.472 129.85C184.441 129.85 192.522 122.333 192.522 113.06C192.522 103.787 184.441 96.27 174.472 96.27C164.503 96.27 156.422 103.787 156.422 113.06C156.422 122.333 164.503 129.85 174.472 129.85Z" fill="#FFDA40"/>
<path d="M174.471 126.24C182.302 126.24 188.651 120.339 188.651 113.06C188.651 105.781 182.302 99.8799 174.471 99.8799C166.64 99.8799 160.291 105.781 160.291 113.06C160.291 120.339 166.64 126.24 174.471 126.24Z" fill="#FFEEA6"/>
<path d="M165.132 150.85C177.586 150.85 187.682 141.462 187.682 129.88C187.682 118.299 177.586 108.91 165.132 108.91C152.678 108.91 142.582 118.299 142.582 129.88C142.582 141.462 152.678 150.85 165.132 150.85Z" fill="#FFDA40"/>
<path d="M165.132 146.35C174.913 146.35 182.842 138.976 182.842 129.88C182.842 120.784 174.913 113.41 165.132 113.41C155.351 113.41 147.422 120.784 147.422 129.88C147.422 138.976 155.351 146.35 165.132 146.35Z" fill="#FFEEA6"/>
<path d="M63.9224 107.31C73.8304 107.31 81.8624 99.8423 81.8624 90.6302C81.8624 81.4181 73.8304 73.9502 63.9224 73.9502C54.0144 73.9502 45.9824 81.4181 45.9824 90.6302C45.9824 99.8423 54.0144 107.31 63.9224 107.31Z" fill="#FFDA40"/>
<path d="M63.922 103.73C71.7037 103.73 78.012 97.8652 78.012 90.6303C78.012 83.3953 71.7037 77.5303 63.922 77.5303C56.1403 77.5303 49.832 83.3953 49.832 90.6303C49.832 97.8652 56.1403 103.73 63.922 103.73Z" fill="#FFEEA6"/>
<path d="M68.393 152.53C80.5985 152.53 90.493 143.33 90.493 131.98C90.493 120.631 80.5985 111.43 68.393 111.43C56.1875 111.43 46.293 120.631 46.293 131.98C46.293 143.33 56.1875 152.53 68.393 152.53Z" fill="#FFDA40"/>
<path d="M68.3932 148.12C77.9809 148.12 85.7532 140.894 85.7532 131.98C85.7532 123.066 77.9809 115.84 68.3932 115.84C58.8055 115.84 51.0332 123.066 51.0332 131.98C51.0332 140.894 58.8055 148.12 68.3932 148.12Z" fill="#FFEEA6"/>
<path d="M154.153 164.52C154.413 168.04 154.343 170.08 154.253 171.1C154.193 171.74 153.963 172.35 153.573 172.86C152.283 174.54 149.723 176.31 149.723 176.31C149.723 176.31 140.623 182.97 123.283 181C113.763 179.92 109.003 175.9 107.513 174.41C107.133 174.03 106.913 173.54 106.873 173.01C106.683 170.5 106.973 165.02 106.973 165.02L154.143 164.52H154.153Z" fill="#FFC52F"/>
<path d="M113.922 156.99C112.202 157.63 110.572 158.52 109.292 159.8C107.672 161.41 106.672 163.73 107.082 165.96C107.572 168.61 109.872 170.57 112.282 171.86C117.582 174.71 123.842 175.34 129.882 175.12C136.122 174.88 142.402 173.76 147.992 171.04C151.372 169.4 155.982 165.93 153.422 161.75C152.572 160.37 151.192 159.38 149.752 158.59C143.222 154.97 135.352 154.73 127.862 154.94C123.622 155.06 119.332 155.31 115.272 156.54C114.822 156.68 114.372 156.83 113.922 156.99Z" fill="#FFDA40"/>
<path d="M116.704 158.32C115.274 158.86 113.914 159.59 112.844 160.66C111.494 162 110.664 163.93 111.004 165.78C111.414 167.98 113.334 169.61 115.334 170.68C119.744 173.05 124.964 173.58 129.994 173.39C135.184 173.19 140.424 172.26 145.084 170C147.894 168.63 151.744 165.75 149.604 162.28C148.894 161.13 147.744 160.31 146.554 159.65C141.114 156.64 134.564 156.44 128.324 156.62C124.794 156.72 121.214 156.93 117.834 157.95C117.454 158.06 117.084 158.19 116.714 158.33L116.704 158.32Z" fill="#FFEEA6"/>
<path d="M163.432 156.22C163.692 159.74 163.622 161.78 163.532 162.8C163.472 163.44 163.242 164.05 162.852 164.56C161.562 166.24 159.002 168.01 159.002 168.01C159.002 168.01 149.902 174.67 132.562 172.7C123.042 171.62 118.282 167.6 116.792 166.11C116.412 165.73 116.192 165.24 116.152 164.71C115.962 162.2 116.252 156.72 116.252 156.72L163.422 156.22H163.432Z" fill="#FFC52F"/>
<path d="M123.192 148.69C121.472 149.33 119.842 150.22 118.562 151.5C116.942 153.11 115.942 155.43 116.352 157.66C116.842 160.31 119.142 162.27 121.552 163.56C126.852 166.41 133.112 167.04 139.152 166.82C145.392 166.58 151.672 165.46 157.262 162.74C160.642 161.1 165.252 157.63 162.692 153.45C161.842 152.07 160.462 151.08 159.022 150.29C152.492 146.67 144.622 146.43 137.132 146.64C132.892 146.76 128.602 147.01 124.542 148.24C124.092 148.38 123.642 148.53 123.192 148.69Z" fill="#FFDA40"/>
<path d="M125.972 150.03C124.542 150.57 123.182 151.3 122.112 152.37C120.762 153.71 119.932 155.64 120.272 157.49C120.682 159.69 122.602 161.32 124.602 162.39C129.012 164.76 134.232 165.29 139.262 165.1C144.452 164.9 149.692 163.97 154.352 161.71C157.162 160.34 161.012 157.46 158.872 153.99C158.162 152.84 157.012 152.02 155.822 151.36C150.382 148.35 143.832 148.15 137.592 148.33C134.062 148.43 130.482 148.64 127.102 149.66C126.722 149.77 126.352 149.9 125.982 150.04L125.972 150.03Z" fill="#FFEEA6"/>
<path d="M160.302 146.45C160.562 149.97 160.492 152.01 160.402 153.03C160.342 153.67 160.112 154.28 159.722 154.79C158.432 156.47 155.872 158.24 155.872 158.24C155.872 158.24 146.772 164.9 129.432 162.93C119.912 161.85 115.152 157.83 113.662 156.34C113.282 155.96 113.062 155.47 113.022 154.94C112.832 152.43 113.122 146.95 113.122 146.95L160.292 146.45H160.302Z" fill="#FFC52F"/>
<path d="M120.071 138.92C118.351 139.56 116.721 140.45 115.441 141.73C113.821 143.34 112.821 145.66 113.231 147.89C113.721 150.54 116.021 152.5 118.431 153.79C123.731 156.64 129.991 157.27 136.031 157.05C142.271 156.81 148.551 155.69 154.141 152.97C157.521 151.33 162.131 147.86 159.571 143.68C158.721 142.3 157.341 141.31 155.901 140.52C149.371 136.9 141.501 136.66 134.011 136.87C129.771 136.99 125.481 137.24 121.421 138.47C120.971 138.61 120.521 138.76 120.071 138.92Z" fill="#FFDA40"/>
<path d="M122.852 140.25C121.422 140.79 120.062 141.52 118.992 142.59C117.642 143.93 116.812 145.86 117.152 147.71C117.562 149.91 119.482 151.54 121.482 152.61C125.892 154.98 131.112 155.51 136.142 155.32C141.332 155.12 146.572 154.19 151.232 151.93C154.042 150.56 157.892 147.68 155.752 144.21C155.042 143.06 153.892 142.24 152.702 141.58C147.262 138.57 140.712 138.37 134.472 138.55C130.942 138.65 127.362 138.86 123.982 139.88C123.602 139.99 123.232 140.12 122.862 140.26L122.852 140.25Z" fill="#FFEEA6"/>
<path d="M165.423 137.03C165.683 140.55 165.613 142.59 165.523 143.61C165.463 144.25 165.233 144.86 164.843 145.37C163.553 147.05 160.993 148.82 160.993 148.82C160.993 148.82 151.893 155.48 134.553 153.51C125.033 152.43 120.273 148.41 118.783 146.92C118.403 146.54 118.183 146.05 118.143 145.52C117.953 143.01 118.243 137.53 118.243 137.53L165.413 137.03H165.423Z" fill="#FFC52F"/>
<path d="M125.182 129.5C123.462 130.14 121.832 131.03 120.552 132.31C118.932 133.92 117.932 136.24 118.342 138.47C118.832 141.12 121.132 143.08 123.542 144.37C128.842 147.22 135.102 147.85 141.142 147.63C147.382 147.39 153.662 146.27 159.252 143.55C162.632 141.91 167.242 138.44 164.682 134.26C163.832 132.88 162.452 131.89 161.012 131.1C154.482 127.48 146.612 127.24 139.122 127.45C134.882 127.57 130.592 127.82 126.532 129.05C126.082 129.19 125.632 129.34 125.182 129.5Z" fill="#FFDA40"/>
<path d="M127.962 130.83C126.532 131.37 125.172 132.1 124.102 133.17C122.752 134.51 121.922 136.44 122.262 138.29C122.672 140.49 124.592 142.12 126.592 143.19C131.002 145.56 136.222 146.09 141.252 145.9C146.442 145.7 151.682 144.77 156.342 142.51C159.152 141.14 163.002 138.26 160.862 134.79C160.152 133.64 159.002 132.82 157.812 132.16C152.372 129.15 145.822 128.95 139.582 129.13C136.052 129.23 132.472 129.44 129.092 130.46C128.712 130.57 128.342 130.7 127.972 130.84L127.962 130.83Z" fill="#FFEEA6"/>
<path d="M158.893 127.82C159.153 131.34 159.083 133.38 158.993 134.4C158.933 135.04 158.703 135.65 158.313 136.16C157.023 137.84 154.463 139.61 154.463 139.61C154.463 139.61 145.363 146.27 128.023 144.3C118.503 143.22 113.743 139.2 112.253 137.71C111.873 137.33 111.653 136.84 111.613 136.31C111.423 133.8 111.713 128.32 111.713 128.32L158.883 127.82H158.893Z" fill="#FFC52F"/>
<path d="M118.662 120.28C116.942 120.92 115.312 121.81 114.032 123.09C112.412 124.7 111.412 127.02 111.822 129.25C112.312 131.9 114.612 133.86 117.022 135.15C122.322 138 128.582 138.63 134.622 138.41C140.862 138.17 147.142 137.05 152.732 134.33C156.112 132.69 160.722 129.22 158.162 125.04C157.312 123.66 155.932 122.67 154.492 121.88C147.962 118.26 140.092 118.02 132.602 118.23C128.362 118.35 124.072 118.6 120.012 119.83C119.562 119.97 119.112 120.12 118.662 120.28Z" fill="#FFDA40"/>
<path d="M121.444 121.62C120.014 122.16 118.654 122.89 117.584 123.96C116.234 125.3 115.404 127.23 115.744 129.08C116.154 131.28 118.074 132.91 120.074 133.98C124.484 136.35 129.704 136.88 134.734 136.69C139.924 136.49 145.164 135.56 149.824 133.3C152.634 131.93 156.484 129.05 154.344 125.58C153.634 124.43 152.484 123.61 151.294 122.95C145.854 119.94 139.304 119.74 133.064 119.92C129.534 120.02 125.954 120.23 122.574 121.25C122.194 121.36 121.824 121.49 121.454 121.63L121.444 121.62Z" fill="#FFEEA6"/>
<path d="M155.252 118.96C155.502 122.23 155.432 124.13 155.342 125.07C155.292 125.66 155.072 126.23 154.712 126.7C153.512 128.26 151.132 129.91 151.132 129.91C151.132 129.91 142.682 136.1 126.562 134.27C117.712 133.26 113.292 129.53 111.902 128.14C111.552 127.79 111.352 127.33 111.312 126.84C111.142 124.51 111.402 119.42 111.402 119.42L155.242 118.96H155.252Z" fill="#FFC52F"/>
<path d="M117.851 111.96C116.251 112.56 114.741 113.38 113.541 114.57C112.041 116.07 111.111 118.23 111.491 120.29C111.941 122.75 114.091 124.57 116.321 125.77C121.251 128.42 127.061 129.01 132.671 128.8C138.471 128.58 144.311 127.54 149.501 125.01C152.641 123.48 156.931 120.26 154.541 116.38C153.751 115.09 152.471 114.18 151.131 113.44C145.061 110.08 137.751 109.85 130.791 110.05C126.851 110.16 122.861 110.4 119.091 111.54C118.671 111.67 118.251 111.81 117.841 111.96H117.851Z" fill="#FFDA40"/>
<path d="M120.442 113.2C119.112 113.7 117.852 114.38 116.852 115.37C115.602 116.62 114.822 118.41 115.142 120.13C115.522 122.17 117.302 123.69 119.162 124.69C123.262 126.89 128.112 127.38 132.782 127.21C137.612 127.03 142.472 126.16 146.802 124.06C149.422 122.79 152.992 120.11 151.002 116.88C150.342 115.81 149.272 115.05 148.162 114.44C143.112 111.65 137.012 111.46 131.212 111.62C127.932 111.71 124.602 111.91 121.462 112.86C121.112 112.97 120.762 113.08 120.422 113.21L120.442 113.2Z" fill="#FFEEA6"/>
<path d="M117.393 168.76C117.643 172.12 117.573 174.08 117.493 175.05C117.443 175.66 117.223 176.24 116.843 176.73C115.613 178.34 113.163 180.03 113.163 180.03C113.163 180.03 104.463 186.4 87.8832 184.51C78.7732 183.47 74.2332 179.64 72.8032 178.21C72.4432 177.85 72.2332 177.38 72.1932 176.87C72.0132 174.47 72.2932 169.23 72.2932 169.23L117.393 168.76Z" fill="#FFC52F"/>
<path d="M78.9225 161.55C77.2825 162.17 75.7225 163.01 74.4925 164.24C72.9425 165.78 71.9925 168 72.3825 170.13C72.8525 172.66 75.0525 174.53 77.3525 175.77C82.4225 178.5 88.4025 179.1 94.1825 178.88C100.142 178.65 106.152 177.58 111.502 174.98C114.732 173.41 119.142 170.09 116.692 166.1C115.882 164.78 114.562 163.83 113.192 163.08C106.952 159.62 99.4225 159.39 92.2625 159.59C88.2025 159.71 84.1025 159.95 80.2225 161.12C79.7925 161.25 79.3625 161.39 78.9325 161.55H78.9225Z" fill="#FFDA40"/>
<path d="M81.583 162.83C80.213 163.34 78.913 164.05 77.893 165.06C76.603 166.34 75.803 168.19 76.133 169.96C76.523 172.06 78.363 173.62 80.273 174.65C84.493 176.92 89.483 177.42 94.283 177.24C99.253 177.05 104.253 176.16 108.713 174C111.403 172.69 115.073 169.94 113.033 166.62C112.353 165.52 111.253 164.74 110.113 164.11C104.913 161.24 98.643 161.04 92.673 161.21C89.293 161.31 85.873 161.51 82.643 162.48C82.283 162.59 81.923 162.71 81.573 162.84L81.583 162.83Z" fill="#FFEEA6"/>
<path d="M114.682 158.91C114.932 162.27 114.862 164.23 114.782 165.2C114.732 165.81 114.512 166.39 114.132 166.88C112.902 168.49 110.452 170.18 110.452 170.18C110.452 170.18 101.752 176.55 85.1722 174.66C76.0622 173.62 71.5222 169.79 70.0922 168.36C69.7322 168 69.5222 167.53 69.4822 167.02C69.3022 164.62 69.5822 159.38 69.5822 159.38L114.682 158.91Z" fill="#FFC52F"/>
<path d="M76.2018 151.71C74.5618 152.33 73.0018 153.17 71.7718 154.4C70.2218 155.94 69.2718 158.16 69.6618 160.29C70.1318 162.82 72.3318 164.69 74.6318 165.93C79.7018 168.66 85.6818 169.26 91.4618 169.04C97.4218 168.81 103.432 167.74 108.782 165.14C112.012 163.57 116.422 160.25 113.972 156.26C113.162 154.94 111.842 153.99 110.472 153.24C104.232 149.78 96.7018 149.55 89.5418 149.75C85.4818 149.87 81.3818 150.11 77.5018 151.28C77.0718 151.41 76.6418 151.55 76.2118 151.71H76.2018Z" fill="#FFDA40"/>
<path d="M78.8623 152.99C77.4923 153.5 76.1923 154.21 75.1723 155.22C73.8823 156.5 73.0823 158.35 73.4123 160.12C73.8023 162.22 75.6423 163.78 77.5523 164.81C81.7723 167.08 86.7623 167.58 91.5623 167.4C96.5323 167.21 101.532 166.32 105.992 164.16C108.682 162.85 112.352 160.1 110.312 156.78C109.632 155.68 108.532 154.9 107.392 154.27C102.192 151.4 95.9223 151.2 89.9523 151.37C86.5723 151.47 83.1523 151.67 79.9223 152.64C79.5623 152.75 79.2023 152.87 78.8523 153L78.8623 152.99Z" fill="#FFEEA6"/>
<path d="M109.192 149.57C109.442 152.93 109.372 154.89 109.292 155.86C109.242 156.47 109.022 157.05 108.642 157.54C107.412 159.15 104.962 160.84 104.962 160.84C104.962 160.84 96.262 167.21 79.682 165.32C70.572 164.28 66.032 160.45 64.602 159.02C64.242 158.66 64.032 158.19 63.992 157.68C63.812 155.28 64.092 150.04 64.092 150.04L109.192 149.57Z" fill="#FFC52F"/>
<path d="M70.7115 142.36C69.0715 142.98 67.5115 143.82 66.2815 145.05C64.7315 146.59 63.7815 148.81 64.1715 150.94C64.6415 153.47 66.8415 155.34 69.1415 156.58C74.2115 159.31 80.1915 159.91 85.9715 159.69C91.9315 159.46 97.9416 158.39 103.292 155.79C106.522 154.22 110.932 150.9 108.482 146.91C107.672 145.59 106.352 144.64 104.982 143.89C98.7415 140.43 91.2115 140.2 84.0515 140.4C79.9915 140.52 75.8915 140.76 72.0115 141.93C71.5815 142.06 71.1515 142.2 70.7215 142.36H70.7115Z" fill="#FFDA40"/>
<path d="M73.3721 143.64C72.0021 144.15 70.7021 144.86 69.6821 145.87C68.3921 147.15 67.5921 149 67.9221 150.77C68.3121 152.87 70.1521 154.43 72.0621 155.46C76.2821 157.73 81.2721 158.23 86.0721 158.05C91.0421 157.86 96.0421 156.97 100.502 154.81C103.192 153.5 106.862 150.75 104.822 147.43C104.142 146.33 103.042 145.55 101.902 144.92C96.7021 142.05 90.4321 141.85 84.4621 142.02C81.0821 142.12 77.6621 142.32 74.4321 143.29C74.0721 143.4 73.7121 143.52 73.3621 143.65L73.3721 143.64Z" fill="#FFEEA6"/>
<path d="M117.983 141.51C118.233 144.87 118.163 146.83 118.083 147.8C118.033 148.41 117.813 148.99 117.433 149.48C116.203 151.09 113.753 152.78 113.753 152.78C113.753 152.78 105.053 159.15 88.473 157.26C79.363 156.22 74.823 152.39 73.393 150.96C73.033 150.6 72.823 150.13 72.783 149.62C72.603 147.22 72.883 141.98 72.883 141.98L117.983 141.51Z" fill="#FFC52F"/>
<path d="M79.5123 134.31C77.8723 134.93 76.3123 135.77 75.0823 137C73.5323 138.54 72.5823 140.76 72.9723 142.89C73.4423 145.42 75.6423 147.29 77.9423 148.53C83.0123 151.26 88.9923 151.86 94.7723 151.64C100.732 151.41 106.742 150.34 112.092 147.74C115.322 146.17 119.732 142.85 117.282 138.86C116.472 137.54 115.152 136.59 113.782 135.84C107.542 132.38 100.012 132.15 92.8523 132.35C88.7923 132.47 84.6923 132.71 80.8123 133.88C80.3823 134.01 79.9523 134.15 79.5223 134.31H79.5123Z" fill="#FFDA40"/>
<path d="M82.1728 135.59C80.8028 136.1 79.5028 136.81 78.4828 137.82C77.1928 139.1 76.3928 140.95 76.7228 142.72C77.1128 144.82 78.9529 146.38 80.8629 147.41C85.0829 149.68 90.0728 150.18 94.8728 150C99.8428 149.81 104.843 148.92 109.303 146.76C111.993 145.45 115.663 142.7 113.623 139.38C112.943 138.28 111.843 137.5 110.703 136.87C105.503 134 99.2328 133.8 93.2628 133.97C89.8828 134.07 86.4628 134.27 83.2328 135.24C82.8728 135.35 82.5128 135.47 82.1628 135.6L82.1728 135.59Z" fill="#FFEEA6"/>
<path d="M115.772 131.71C116.022 135.07 115.952 137.03 115.872 138C115.822 138.61 115.602 139.19 115.222 139.68C113.992 141.29 111.542 142.98 111.542 142.98C111.542 142.98 102.842 149.35 86.2621 147.46C77.1521 146.42 72.6121 142.59 71.1821 141.16C70.8221 140.8 70.6121 140.33 70.5721 139.82C70.3921 137.42 70.6721 132.18 70.6721 132.18L115.772 131.71Z" fill="#FFC52F"/>
<path d="M77.2916 124.5C75.6516 125.12 74.0916 125.96 72.8616 127.19C71.3116 128.73 70.3616 130.95 70.7516 133.08C71.2216 135.61 73.4216 137.48 75.7216 138.72C80.7916 141.45 86.7716 142.05 92.5516 141.83C98.5116 141.6 104.522 140.53 109.872 137.93C113.102 136.36 117.512 133.04 115.062 129.05C114.252 127.73 112.932 126.78 111.562 126.03C105.322 122.57 97.7916 122.34 90.6316 122.54C86.5716 122.66 82.4716 122.9 78.5916 124.07C78.1616 124.2 77.7316 124.34 77.3016 124.5H77.2916Z" fill="#FFDA40"/>
<path d="M79.9521 125.78C78.5821 126.29 77.2821 127 76.2621 128.01C74.9721 129.29 74.1721 131.14 74.5021 132.91C74.8921 135.01 76.7321 136.57 78.6421 137.6C82.8621 139.87 87.8521 140.37 92.6521 140.19C97.6221 140 102.622 139.11 107.082 136.95C109.772 135.64 113.442 132.89 111.402 129.57C110.722 128.47 109.622 127.69 108.482 127.06C103.282 124.19 97.0121 123.99 91.0421 124.16C87.6621 124.26 84.2421 124.46 81.0121 125.43C80.6521 125.54 80.2921 125.66 79.9421 125.79L79.9521 125.78Z" fill="#FFEEA6"/>
<path d="M111.163 122.34C111.413 125.7 111.343 127.66 111.263 128.63C111.213 129.24 110.993 129.82 110.613 130.31C109.383 131.92 106.933 133.61 106.933 133.61C106.933 133.61 98.2327 139.98 81.6527 138.09C72.5427 137.05 68.0027 133.22 66.5727 131.79C66.2127 131.43 66.0027 130.96 65.9627 130.45C65.7827 128.05 66.0627 122.81 66.0627 122.81L111.163 122.34Z" fill="#FFC52F"/>
<path d="M72.692 115.14C71.052 115.76 69.492 116.6 68.262 117.83C66.712 119.37 65.762 121.59 66.152 123.72C66.622 126.25 68.822 128.12 71.122 129.36C76.192 132.09 82.172 132.69 87.952 132.47C93.912 132.24 99.922 131.17 105.272 128.57C108.502 127 112.912 123.68 110.462 119.69C109.652 118.37 108.332 117.42 106.962 116.67C100.722 113.21 93.192 112.98 86.032 113.18C81.972 113.3 77.872 113.54 73.992 114.71C73.562 114.84 73.132 114.98 72.702 115.14H72.692Z" fill="#FFDA40"/>
<path d="M75.3525 116.42C73.9825 116.93 72.6825 117.64 71.6625 118.65C70.3725 119.93 69.5725 121.78 69.9025 123.55C70.2925 125.65 72.1325 127.21 74.0425 128.24C78.2625 130.51 83.2525 131.01 88.0525 130.83C93.0225 130.64 98.0225 129.75 102.483 127.59C105.173 126.28 108.843 123.53 106.803 120.21C106.123 119.11 105.023 118.33 103.883 117.7C98.6825 114.83 92.4125 114.63 86.4425 114.8C83.0625 114.9 79.6425 115.1 76.4125 116.07C76.0525 116.18 75.6925 116.3 75.3425 116.43L75.3525 116.42Z" fill="#FFEEA6"/>
<path d="M74.1019 148.28C72.4219 151.35 70.3119 153.73 70.3119 153.73C68.4119 155.87 65.7019 157.34 62.8619 157.66C60.2619 157.96 57.6219 157.5 55.1719 156.63C54.0219 156.22 52.9119 155.73 51.8619 155.12C49.5519 153.79 47.5219 152 45.9519 149.84C43.1519 146.01 41.3919 140.71 43.6319 136.2C44.4519 134.55 45.4119 132.96 46.5019 131.48L74.1119 148.27L74.1019 148.28Z" fill="#FFC52F"/>
<path d="M74.1014 148.287C77.798 142.21 74.6133 133.523 66.9882 128.885C59.363 124.247 50.1849 125.414 46.4882 131.491C42.7916 137.569 45.9763 146.255 53.6015 150.893C61.2267 155.531 70.4048 154.365 74.1014 148.287Z" fill="#FFDA40"/>
<path d="M70.6319 146.178C73.4015 141.624 71.0183 135.118 65.3089 131.645C59.5994 128.172 52.7258 129.048 49.9562 133.602C47.1866 138.155 49.5698 144.661 55.2793 148.134C60.9887 151.607 67.8623 150.731 70.6319 146.178Z" fill="#FFEEA6"/>
<path d="M65.9231 134.32C64.1531 137.54 61.9431 140.04 61.9431 140.04C59.9431 142.29 57.1031 143.83 54.1231 144.17C51.3931 144.48 48.6231 144 46.0531 143.09C44.8531 142.66 43.6831 142.14 42.5731 141.51C40.1531 140.11 38.0231 138.23 36.3731 135.97C33.4431 131.95 31.5931 126.39 33.9431 121.65C34.8031 119.92 35.8031 118.24 36.9531 116.7L65.9231 134.32Z" fill="#FFC52F"/>
<path d="M65.9143 134.325C69.7946 127.946 66.4528 118.828 58.4501 113.96C50.4475 109.093 40.8144 110.318 36.9341 116.698C33.0538 123.077 36.3956 132.195 44.3983 137.063C52.4009 141.93 62.034 140.705 65.9143 134.325Z" fill="#FFDA40"/>
<path d="M62.2738 132.111C65.1812 127.331 62.6801 120.502 56.6876 116.857C50.695 113.212 43.4802 114.132 40.5728 118.912C37.6655 123.692 40.1665 130.521 46.1591 134.166C52.1516 137.811 59.3664 136.891 62.2738 132.111Z" fill="#FFEEA6"/>
<path d="M78.9125 120.5C77.2325 123.57 75.1225 125.95 75.1225 125.95C73.2225 128.09 70.5125 129.56 67.6725 129.88C65.0725 130.18 62.4325 129.72 59.9825 128.85C58.8325 128.44 57.7225 127.95 56.6725 127.34C54.3625 126.01 52.3325 124.22 50.7625 122.06C47.9625 118.23 46.2025 112.93 48.4425 108.42C49.2625 106.77 50.2225 105.18 51.3125 103.7L78.9225 120.49L78.9125 120.5Z" fill="#FFC52F"/>
<path d="M78.9159 120.507C82.6125 114.429 79.4278 105.743 71.8026 101.105C64.1775 96.4667 54.9993 97.6336 51.3027 103.711C47.6061 109.789 50.7908 118.475 58.416 123.113C66.0411 127.751 75.2193 126.584 78.9159 120.507Z" fill="#FFDA40"/>
<path d="M75.4464 118.397C78.216 113.844 75.8328 107.337 70.1233 103.865C64.4139 100.392 57.5403 101.268 54.7707 105.821C52.0011 110.375 54.3843 116.881 60.0937 120.354C65.8032 123.827 72.6768 122.951 75.4464 118.397Z" fill="#FFEEA6"/>
<path d="M197.823 102.04C196.143 105.11 194.033 107.49 194.033 107.49C192.133 109.63 189.423 111.1 186.583 111.42C183.983 111.72 181.343 111.26 178.893 110.39C177.743 109.98 176.633 109.49 175.583 108.88C173.273 107.55 171.243 105.76 169.673 103.6C166.873 99.7702 165.113 94.4702 167.353 89.9602C168.173 88.3102 169.133 86.7202 170.223 85.2402L197.833 102.03L197.823 102.04Z" fill="#FFC52F"/>
<path d="M197.824 102.037C201.521 95.9595 198.336 87.2729 190.711 82.6349C183.086 77.9969 173.908 79.1639 170.211 85.2413C166.514 91.3188 169.699 100.005 177.324 104.643C184.949 109.281 194.127 108.115 197.824 102.037Z" fill="#FFDA40"/>
<path d="M194.355 99.9275C197.124 95.3741 194.741 88.8676 189.032 85.3949C183.322 81.9221 176.448 82.7981 173.679 87.3515C170.909 91.9049 173.292 98.4114 179.002 101.884C184.711 105.357 191.585 104.481 194.355 99.9275Z" fill="#FFEEA6"/>
<path d="M110.023 115.96C110.243 118.89 110.183 120.59 110.103 121.44C110.053 121.97 109.863 122.48 109.533 122.9C108.453 124.3 106.323 125.78 106.323 125.78C106.323 125.78 98.7431 131.33 84.3031 129.68C76.3731 128.78 72.4131 125.44 71.1631 124.19C70.8531 123.88 70.6631 123.47 70.6331 123.02C70.4731 120.93 70.7131 116.37 70.7131 116.37L109.993 115.96H110.023Z" fill="#FFC52F"/>
<path d="M76.5126 109.69C75.0826 110.23 73.7226 110.96 72.6526 112.03C71.3026 113.37 70.4726 115.31 70.8126 117.16C71.2226 119.36 73.1426 121 75.1426 122.07C79.5526 124.44 84.7726 124.97 89.7926 124.78C94.9826 124.58 100.223 123.65 104.883 121.38C107.693 120.01 111.543 117.12 109.403 113.64C108.693 112.49 107.543 111.67 106.353 111.01C100.913 108 94.3626 107.79 88.1226 107.97C84.5926 108.07 81.0126 108.28 77.6426 109.3C77.2626 109.41 76.8926 109.54 76.5226 109.68L76.5126 109.69Z" fill="#FFDA40"/>
<path d="M78.833 110.8C77.643 111.25 76.513 111.86 75.623 112.75C74.503 113.87 73.803 115.47 74.093 117.01C74.433 118.84 76.033 120.2 77.693 121.09C81.373 123.06 85.713 123.5 89.903 123.34C94.233 123.18 98.593 122.4 102.473 120.52C104.813 119.38 108.013 116.98 106.233 114.09C105.643 113.13 104.683 112.45 103.693 111.9C99.163 109.4 93.703 109.23 88.503 109.38C85.563 109.46 82.583 109.64 79.773 110.49C79.463 110.58 79.143 110.69 78.843 110.8H78.833Z" fill="#FFEEA6"/>
<path d="M113.453 107.95C113.673 110.88 113.613 112.58 113.533 113.43C113.483 113.96 113.293 114.47 112.963 114.89C111.883 116.29 109.753 117.77 109.753 117.77C109.753 117.77 102.173 123.32 87.7328 121.67C79.8028 120.77 75.8428 117.43 74.5928 116.18C74.2828 115.87 74.0928 115.46 74.0628 115.01C73.9028 112.92 74.1428 108.36 74.1428 108.36L113.423 107.95H113.453Z" fill="#FFC52F"/>
<path d="M79.9422 101.68C78.5122 102.22 77.1522 102.95 76.0822 104.02C74.7322 105.36 73.9022 107.3 74.2422 109.15C74.6522 111.35 76.5722 112.99 78.5722 114.06C82.9822 116.43 88.2022 116.96 93.2222 116.77C98.4122 116.57 103.652 115.64 108.312 113.37C111.122 112 114.972 109.11 112.832 105.63C112.122 104.48 110.972 103.66 109.782 103C104.342 99.9902 97.7922 99.7802 91.5522 99.9602C88.0222 100.06 84.4422 100.27 81.0722 101.29C80.6922 101.4 80.3222 101.53 79.9522 101.67L79.9422 101.68Z" fill="#FFDA40"/>
<path d="M82.2529 102.79C81.0629 103.24 79.9329 103.85 79.0429 104.74C77.9229 105.86 77.2229 107.46 77.5129 109C77.8529 110.83 79.4529 112.19 81.1129 113.08C84.7929 115.05 89.1329 115.49 93.3229 115.33C97.6529 115.17 102.013 114.39 105.893 112.51C108.233 111.37 111.433 108.97 109.653 106.08C109.063 105.12 108.103 104.44 107.113 103.89C102.583 101.39 97.1229 101.22 91.9229 101.37C88.9829 101.45 86.0029 101.63 83.1929 102.48C82.8829 102.57 82.5629 102.68 82.2629 102.79H82.2529Z" fill="#FFEEA6"/>
<path d="M108.853 100.28C109.073 103.21 109.013 104.91 108.933 105.76C108.883 106.29 108.693 106.8 108.363 107.22C107.283 108.62 105.153 110.1 105.153 110.1C105.153 110.1 97.5732 115.65 83.1332 114C75.2032 113.1 71.2432 109.76 69.9932 108.51C69.6832 108.2 69.4932 107.79 69.4632 107.34C69.3032 105.25 69.5432 100.69 69.5432 100.69L108.823 100.28H108.853Z" fill="#FFC52F"/>
<path d="M75.3426 94.0098C73.9126 94.5498 72.5526 95.2798 71.4826 96.3498C70.1326 97.6898 69.3026 99.6298 69.6426 101.48C70.0526 103.68 71.9726 105.32 73.9726 106.39C78.3826 108.76 83.6026 109.29 88.6226 109.1C93.8126 108.9 99.0526 107.97 103.713 105.7C106.523 104.33 110.373 101.44 108.233 97.9598C107.523 96.8098 106.373 95.9898 105.183 95.3298C99.7426 92.3198 93.1926 92.1098 86.9526 92.2898C83.4226 92.3898 79.8426 92.5998 76.4726 93.6198C76.0926 93.7298 75.7226 93.8598 75.3526 93.9998L75.3426 94.0098Z" fill="#FFDA40"/>
<path d="M77.6533 95.1199C76.4633 95.5699 75.3333 96.1799 74.4433 97.0699C73.3233 98.1899 72.6233 99.7899 72.9133 101.33C73.2533 103.16 74.8533 104.52 76.5133 105.41C80.1933 107.38 84.5333 107.82 88.7233 107.66C93.0533 107.5 97.4133 106.72 101.293 104.84C103.633 103.7 106.833 101.3 105.053 98.4099C104.463 97.4499 103.503 96.7699 102.513 96.2199C97.9833 93.7199 92.5233 93.5499 87.3233 93.6999C84.3833 93.7799 81.4033 93.9599 78.5933 94.8099C78.2833 94.8999 77.9633 95.0099 77.6633 95.1199H77.6533Z" fill="#FFEEA6"/>
<path d="M116.013 94.4697C116.233 97.3997 116.173 99.0997 116.093 99.9497C116.043 100.48 115.853 100.99 115.523 101.41C114.443 102.81 112.313 104.29 112.313 104.29C112.313 104.29 104.733 109.84 90.2934 108.19C82.3634 107.29 78.4034 103.95 77.1534 102.7C76.8434 102.39 76.6534 101.98 76.6234 101.53C76.4634 99.4397 76.7034 94.8797 76.7034 94.8797L115.983 94.4697H116.013Z" fill="#FFC52F"/>
<path d="M82.5028 88.19C81.0728 88.73 79.7128 89.46 78.6428 90.53C77.2928 91.87 76.4628 93.81 76.8028 95.66C77.2128 97.86 79.1328 99.5 81.1328 100.57C85.5428 102.94 90.7628 103.47 95.7828 103.28C100.973 103.08 106.213 102.15 110.873 99.88C113.683 98.51 117.533 95.62 115.393 92.14C114.683 90.99 113.533 90.17 112.343 89.51C106.903 86.5 100.353 86.29 94.1128 86.47C90.5828 86.57 87.0028 86.78 83.6328 87.8C83.2528 87.91 82.8828 88.04 82.5128 88.18L82.5028 88.19Z" fill="#FFDA40"/>
<path d="M84.8134 89.3098C83.6234 89.7598 82.4934 90.3698 81.6034 91.2598C80.4834 92.3798 79.7834 93.9798 80.0734 95.5198C80.4134 97.3498 82.0134 98.7098 83.6734 99.5998C87.3534 101.57 91.6934 102.01 95.8834 101.85C100.213 101.69 104.573 100.91 108.453 99.0298C110.793 97.8898 113.993 95.4898 112.213 92.5998C111.623 91.6398 110.663 90.9598 109.673 90.4098C105.143 87.9098 99.6834 87.7398 94.4834 87.8898C91.5434 87.9698 88.5634 88.1498 85.7534 88.9998C85.4434 89.0898 85.1234 89.1998 84.8234 89.3098H84.8134Z" fill="#FFEEA6"/>
<path d="M110.613 87.5298C110.813 90.1998 110.753 91.7598 110.693 92.5298C110.653 93.0198 110.473 93.4798 110.173 93.8598C109.193 95.1398 107.243 96.4798 107.243 96.4798C107.243 96.4798 100.333 101.54 87.1531 100.04C79.9131 99.2198 76.3031 96.1698 75.1731 95.0298C74.8831 94.7398 74.7231 94.3698 74.6931 93.9598C74.5531 92.0498 74.7731 87.8898 74.7731 87.8898L110.613 87.5098V87.5298Z" fill="#FFC52F"/>
<path d="M80.0427 81.7998C78.7327 82.2898 77.5027 82.9598 76.5227 83.9398C75.2927 85.1698 74.5327 86.9298 74.8427 88.6198C75.2127 90.6298 76.9627 92.1198 78.7927 93.0998C82.8227 95.2698 87.5727 95.7498 92.1627 95.5698C96.9027 95.3898 101.673 94.5398 105.923 92.4698C108.493 91.2198 111.993 88.5898 110.043 85.4098C109.393 84.3598 108.343 83.6098 107.253 83.0098C102.293 80.2598 96.3127 80.0798 90.6227 80.2398C87.4027 80.3298 84.1427 80.5198 81.0527 81.4598C80.7127 81.5598 80.3627 81.6798 80.0327 81.7998H80.0427Z" fill="#FFDA40"/>
<path d="M82.1536 82.8199C81.0636 83.2299 80.0336 83.7899 79.2236 84.5999C78.2036 85.6199 77.5636 87.0799 77.8236 88.4899C78.1336 90.1599 79.5936 91.3999 81.1136 92.2199C84.4636 94.0199 88.4336 94.4199 92.2536 94.2799C96.2036 94.1299 100.184 93.4199 103.714 91.6999C105.854 90.6599 108.774 88.4699 107.144 85.8299C106.604 84.9599 105.734 84.3299 104.824 83.8299C100.694 81.5499 95.7136 81.3899 90.9636 81.5299C88.2736 81.6099 85.5636 81.7599 82.9936 82.5399C82.7036 82.6299 82.4236 82.7199 82.1436 82.8299L82.1536 82.8199Z" fill="#FFEEA6"/>
<path d="M108.323 79.1401C108.533 81.9501 108.473 83.5801 108.403 84.3901C108.363 84.9001 108.173 85.3801 107.863 85.7901C106.833 87.1301 104.793 88.5401 104.793 88.5401C104.793 88.5401 97.5333 93.8601 83.7033 92.2801C76.1033 91.4101 72.3133 88.2101 71.1233 87.0201C70.8233 86.7201 70.6533 86.3301 70.6133 85.9001C70.4633 83.9001 70.6933 79.5301 70.6933 79.5301L108.323 79.1401Z" fill="#FFC52F"/>
<path d="M76.2239 73.13C74.8539 73.64 73.5539 74.35 72.5239 75.37C71.2339 76.66 70.4339 78.51 70.7639 80.28C71.1539 82.39 72.9939 83.95 74.9139 84.99C79.1439 87.26 84.1339 87.77 88.9539 87.59C93.9339 87.4 98.9439 86.51 103.404 84.34C106.104 83.03 109.784 80.26 107.734 76.93C107.054 75.83 105.954 75.04 104.814 74.41C99.6039 71.52 93.3239 71.33 87.3539 71.5C83.9639 71.6 80.5439 71.8 77.3139 72.78C76.9539 72.89 76.5939 73.01 76.2439 73.14L76.2239 73.13Z" fill="#FFDA40"/>
<path d="M78.4439 74.1999C77.3039 74.6299 76.2139 75.2099 75.3639 76.0599C74.2939 77.1299 73.6239 78.6699 73.8939 80.1399C74.2239 81.8899 75.7539 83.1899 77.3439 84.0499C80.8639 85.9399 85.0239 86.3599 89.0339 86.2099C93.1739 86.0499 97.3539 85.3099 101.074 83.4999C103.324 82.4099 106.384 80.1099 104.684 77.3399C104.124 76.4199 103.204 75.7699 102.244 75.2399C97.9039 72.8399 92.6739 72.6799 87.6939 72.8199C84.8739 72.8999 82.0239 73.0699 79.3239 73.8799C79.0239 73.9699 78.7239 74.0699 78.4339 74.1799L78.4439 74.1999Z" fill="#FFEEA6"/>
<path d="M112.622 71.1704C112.832 73.9804 112.772 75.6104 112.702 76.4204C112.662 76.9304 112.472 77.4104 112.162 77.8204C111.132 79.1604 109.092 80.5704 109.092 80.5704C109.092 80.5704 101.832 85.8904 88.0021 84.3104C80.4021 83.4404 76.6121 80.2404 75.4221 79.0504C75.1221 78.7504 74.9521 78.3604 74.9121 77.9304C74.7621 75.9304 74.9921 71.5604 74.9921 71.5604L112.622 71.1704Z" fill="#FFC52F"/>
<path d="M80.5227 65.1602C79.1527 65.6702 77.8527 66.3802 76.8227 67.4002C75.5327 68.6902 74.7327 70.5402 75.0627 72.3102C75.4527 74.4202 77.2927 75.9802 79.2127 77.0202C83.4427 79.2902 88.4327 79.8002 93.2527 79.6202C98.2327 79.4302 103.243 78.5402 107.703 76.3702C110.403 75.0602 114.083 72.2902 112.033 68.9602C111.353 67.8602 110.253 67.0702 109.113 66.4402C103.903 63.5502 97.6227 63.3602 91.6527 63.5302C88.2627 63.6302 84.8427 63.8302 81.6127 64.8102C81.2527 64.9202 80.8927 65.0402 80.5427 65.1702L80.5227 65.1602Z" fill="#FFDA40"/>
<path d="M82.7427 66.2302C81.6027 66.6602 80.5127 67.2402 79.6627 68.0902C78.5927 69.1602 77.9227 70.7002 78.1927 72.1702C78.5227 73.9202 80.0527 75.2202 81.6427 76.0802C85.1627 77.9702 89.3227 78.3902 93.3327 78.2402C97.4727 78.0802 101.653 77.3402 105.373 75.5302C107.623 74.4402 110.683 72.1402 108.983 69.3702C108.423 68.4502 107.503 67.8002 106.543 67.2702C102.203 64.8702 96.9727 64.7102 91.9927 64.8502C89.1727 64.9302 86.3227 65.1002 83.6227 65.9102C83.3227 66.0002 83.0227 66.1002 82.7327 66.2102L82.7427 66.2302Z" fill="#FFEEA6"/>
<path d="M114.253 63.6201C114.463 66.4301 114.403 68.0601 114.333 68.8701C114.293 69.3801 114.103 69.8601 113.793 70.2701C112.763 71.6101 110.723 73.0201 110.723 73.0201C110.723 73.0201 103.463 78.3401 89.633 76.7601C82.033 75.8901 78.243 72.6901 77.053 71.5001C76.753 71.2001 76.583 70.8101 76.543 70.3801C76.393 68.3801 76.623 64.0101 76.623 64.0101L114.253 63.6201Z" fill="#FFC52F"/>
<path d="M82.1535 57.6099C80.7835 58.1199 79.4835 58.8299 78.4535 59.8499C77.1635 61.1399 76.3635 62.9899 76.6935 64.7599C77.0835 66.8699 78.9235 68.4299 80.8435 69.4699C85.0735 71.7399 90.0635 72.2499 94.8835 72.0699C99.8635 71.8799 104.874 70.9899 109.334 68.8199C112.034 67.5099 115.714 64.7399 113.664 61.4099C112.984 60.3099 111.884 59.5199 110.744 58.8899C105.534 55.9999 99.2535 55.8099 93.2836 55.9799C89.8935 56.0799 86.4735 56.2799 83.2435 57.2599C82.8835 57.3699 82.5236 57.4899 82.1736 57.6199L82.1535 57.6099Z" fill="#FFDA40"/>
<path d="M84.3735 58.6702C83.2335 59.1002 82.1435 59.6802 81.2935 60.5302C80.2235 61.6002 79.5535 63.1402 79.8235 64.6102C80.1535 66.3602 81.6835 67.6602 83.2735 68.5202C86.7935 70.4102 90.9535 70.8302 94.9635 70.6802C99.1035 70.5202 103.284 69.7802 107.004 67.9702C109.254 66.8802 112.314 64.5802 110.614 61.8102C110.054 60.8902 109.134 60.2402 108.174 59.7102C103.834 57.3102 98.6035 57.1502 93.6235 57.2902C90.8035 57.3702 87.9535 57.5402 85.2535 58.3502C84.9535 58.4402 84.6535 58.5402 84.3635 58.6502L84.3735 58.6702Z" fill="#FFEEA6"/>
<path d="M156.353 111.36C156.573 114.29 156.513 115.99 156.433 116.84C156.383 117.37 156.193 117.88 155.863 118.3C154.783 119.7 152.653 121.18 152.653 121.18C152.653 121.18 145.073 126.73 130.633 125.08C122.703 124.18 118.743 120.84 117.493 119.59C117.183 119.28 116.993 118.87 116.963 118.42C116.803 116.33 117.043 111.77 117.043 111.77L156.323 111.36H156.353Z" fill="#FFC52F"/>
<path d="M122.843 105.08C121.413 105.62 120.053 106.35 118.983 107.42C117.633 108.76 116.803 110.7 117.143 112.55C117.553 114.75 119.473 116.39 121.473 117.46C125.883 119.83 131.103 120.36 136.123 120.17C141.313 119.97 146.553 119.04 151.213 116.77C154.023 115.4 157.873 112.51 155.733 109.03C155.023 107.88 153.873 107.06 152.683 106.4C147.243 103.39 140.693 103.18 134.453 103.36C130.923 103.46 127.343 103.67 123.973 104.69C123.593 104.8 123.223 104.93 122.853 105.07L122.843 105.08Z" fill="#FFDA40"/>
<path d="M125.163 106.2C123.973 106.65 122.843 107.26 121.953 108.15C120.833 109.27 120.133 110.87 120.423 112.41C120.763 114.24 122.363 115.6 124.023 116.49C127.703 118.46 132.043 118.9 136.233 118.74C140.563 118.58 144.923 117.8 148.803 115.92C151.143 114.78 154.343 112.38 152.563 109.49C151.973 108.53 151.013 107.85 150.023 107.3C145.493 104.8 140.033 104.63 134.833 104.78C131.893 104.86 128.913 105.04 126.103 105.89C125.793 105.98 125.473 106.09 125.173 106.2H125.163Z" fill="#FFEEA6"/>
<path d="M153.632 102.72C153.853 105.65 153.793 107.35 153.713 108.2C153.663 108.73 153.472 109.24 153.142 109.66C152.062 111.06 149.933 112.54 149.933 112.54C149.933 112.54 142.352 118.09 127.912 116.44C119.982 115.54 116.022 112.2 114.772 110.95C114.462 110.64 114.272 110.23 114.242 109.78C114.082 107.69 114.323 103.13 114.323 103.13L153.603 102.72H153.632Z" fill="#FFC52F"/>
<path d="M120.122 96.4502C118.692 96.9902 117.332 97.7202 116.262 98.7902C114.912 100.13 114.082 102.07 114.422 103.92C114.832 106.12 116.752 107.76 118.752 108.83C123.162 111.2 128.382 111.73 133.402 111.54C138.592 111.34 143.832 110.41 148.492 108.14C151.302 106.77 155.152 103.88 153.012 100.4C152.302 99.2502 151.152 98.4302 149.962 97.7702C144.522 94.7602 137.972 94.5502 131.732 94.7302C128.202 94.8302 124.622 95.0402 121.252 96.0602C120.872 96.1702 120.502 96.3002 120.132 96.4402L120.122 96.4502Z" fill="#FFDA40"/>
<path d="M122.442 97.5603C121.252 98.0103 120.122 98.6203 119.232 99.5103C118.112 100.63 117.412 102.23 117.702 103.77C118.042 105.6 119.642 106.96 121.302 107.85C124.982 109.82 129.322 110.26 133.512 110.1C137.842 109.94 142.202 109.16 146.082 107.28C148.422 106.14 151.622 103.74 149.842 100.85C149.252 99.8903 148.292 99.2103 147.302 98.6603C142.772 96.1603 137.312 95.9903 132.112 96.1403C129.172 96.2203 126.192 96.4003 123.382 97.2503C123.072 97.3403 122.752 97.4503 122.452 97.5603H122.442Z" fill="#FFEEA6"/>
<path d="M160.472 96.8599C160.692 99.7899 160.632 101.49 160.552 102.34C160.502 102.87 160.312 103.38 159.982 103.8C158.902 105.2 156.772 106.68 156.772 106.68C156.772 106.68 149.192 112.23 134.752 110.58C126.822 109.68 122.862 106.34 121.612 105.09C121.302 104.78 121.112 104.37 121.082 103.92C120.922 101.83 121.162 97.2699 121.162 97.2699L160.442 96.8599H160.472Z" fill="#FFC52F"/>
<path d="M126.962 90.5899C125.532 91.1299 124.172 91.8599 123.102 92.9299C121.752 94.2699 120.922 96.2099 121.262 98.0599C121.672 100.26 123.592 101.9 125.592 102.97C130.002 105.34 135.222 105.87 140.242 105.68C145.432 105.48 150.672 104.55 155.332 102.28C158.142 100.91 161.992 98.0199 159.852 94.5399C159.142 93.3899 157.992 92.5699 156.802 91.9099C151.362 88.8999 144.812 88.6899 138.572 88.8699C135.042 88.9699 131.462 89.1799 128.092 90.1999C127.712 90.3099 127.342 90.4399 126.972 90.5799L126.962 90.5899Z" fill="#FFDA40"/>
<path d="M129.272 91.6999C128.082 92.1499 126.952 92.7599 126.062 93.6499C124.942 94.7699 124.242 96.3699 124.532 97.9099C124.872 99.7399 126.472 101.1 128.132 101.99C131.812 103.96 136.152 104.4 140.342 104.24C144.672 104.08 149.032 103.3 152.912 101.42C155.252 100.28 158.452 97.8799 156.672 94.9899C156.082 94.0299 155.122 93.3499 154.132 92.7999C149.602 90.2999 144.142 90.1299 138.942 90.2799C136.002 90.3599 133.022 90.5399 130.212 91.3899C129.902 91.4799 129.582 91.5899 129.282 91.6999H129.272Z" fill="#FFEEA6"/>
<path d="M157.412 88.71C157.632 91.64 157.572 93.34 157.492 94.19C157.442 94.72 157.252 95.23 156.922 95.65C155.842 97.05 153.712 98.53 153.712 98.53C153.712 98.53 146.132 104.08 131.692 102.43C123.762 101.53 119.802 98.19 118.552 96.94C118.242 96.63 118.052 96.22 118.022 95.77C117.862 93.68 118.102 89.12 118.102 89.12L157.382 88.71H157.412Z" fill="#FFC52F"/>
<path d="M123.901 82.44C122.471 82.98 121.111 83.71 120.041 84.78C118.691 86.12 117.861 88.06 118.201 89.91C118.611 92.11 120.531 93.75 122.531 94.82C126.941 97.19 132.161 97.72 137.181 97.53C142.371 97.33 147.611 96.4 152.271 94.13C155.081 92.76 158.931 89.87 156.791 86.39C156.081 85.24 154.931 84.42 153.741 83.76C148.301 80.75 141.751 80.54 135.511 80.72C131.981 80.82 128.401 81.03 125.031 82.05C124.651 82.16 124.281 82.29 123.911 82.43L123.901 82.44Z" fill="#FFDA40"/>
<path d="M126.212 83.55C125.022 84 123.892 84.61 123.002 85.5C121.882 86.62 121.182 88.22 121.472 89.76C121.812 91.59 123.412 92.95 125.072 93.84C128.752 95.81 133.092 96.25 137.282 96.09C141.612 95.93 145.972 95.15 149.852 93.27C152.192 92.13 155.392 89.73 153.612 86.84C153.022 85.88 152.062 85.2 151.072 84.65C146.542 82.15 141.082 81.98 135.882 82.13C132.942 82.21 129.962 82.39 127.152 83.24C126.842 83.33 126.522 83.44 126.222 83.55H126.212Z" fill="#FFEEA6"/>
<path d="M156.992 82.5503C157.192 85.2203 157.132 86.7803 157.072 87.5503C157.032 88.0403 156.852 88.5003 156.552 88.8803C155.572 90.1603 153.622 91.5003 153.622 91.5003C153.622 91.5003 146.712 96.5603 133.532 95.0603C126.292 94.2403 122.682 91.1903 121.552 90.0503C121.262 89.7603 121.102 89.3903 121.072 88.9803C120.932 87.0703 121.152 82.9103 121.152 82.9103L156.992 82.5303V82.5503Z" fill="#FFC52F"/>
<path d="M126.412 76.8301C125.102 77.3201 123.872 77.9901 122.892 78.9701C121.662 80.2001 120.902 81.9601 121.212 83.6501C121.582 85.6601 123.332 87.1501 125.162 88.1301C129.192 90.3001 133.942 90.7801 138.532 90.6001C143.272 90.4201 148.042 89.5701 152.292 87.5001C154.862 86.2501 158.362 83.6201 156.412 80.4401C155.762 79.3901 154.712 78.6401 153.622 78.0401C148.662 75.2901 142.682 75.1101 136.992 75.2701C133.772 75.3601 130.512 75.5501 127.422 76.4901C127.082 76.5901 126.732 76.7101 126.402 76.8301H126.412Z" fill="#FFDA40"/>
<path d="M128.533 77.8502C127.443 78.2602 126.413 78.8202 125.603 79.6302C124.583 80.6502 123.943 82.1102 124.203 83.5202C124.513 85.1902 125.973 86.4302 127.493 87.2502C130.843 89.0502 134.813 89.4502 138.633 89.3102C142.583 89.1602 146.563 88.4502 150.093 86.7302C152.233 85.6902 155.153 83.5002 153.523 80.8602C152.983 79.9902 152.113 79.3602 151.203 78.8602C147.073 76.5802 142.093 76.4202 137.343 76.5602C134.653 76.6402 131.943 76.7902 129.373 77.5702C129.083 77.6602 128.803 77.7502 128.523 77.8602L128.533 77.8502Z" fill="#FFEEA6"/>
<path d="M162.832 75.75C163.032 78.42 162.972 79.98 162.912 80.75C162.872 81.24 162.692 81.7 162.392 82.08C161.412 83.36 159.462 84.7 159.462 84.7C159.462 84.7 152.552 89.76 139.372 88.26C132.132 87.44 128.522 84.39 127.392 83.25C127.102 82.96 126.942 82.59 126.912 82.18C126.772 80.27 126.992 76.11 126.992 76.11L162.832 75.73V75.75Z" fill="#FFC52F"/>
<path d="M132.252 70.02C130.942 70.51 129.712 71.1801 128.732 72.1601C127.502 73.3901 126.742 75.15 127.052 76.84C127.422 78.85 129.172 80.34 131.002 81.32C135.032 83.49 139.782 83.97 144.372 83.79C149.112 83.61 153.882 82.7601 158.132 80.6901C160.702 79.4401 164.202 76.81 162.252 73.63C161.602 72.58 160.552 71.8301 159.462 71.2301C154.502 68.4801 148.522 68.3 142.832 68.46C139.612 68.55 136.352 68.74 133.262 69.68C132.922 69.78 132.572 69.9 132.242 70.02H132.252Z" fill="#FFDA40"/>
<path d="M134.372 71.0401C133.282 71.4501 132.252 72.0101 131.442 72.8201C130.422 73.8401 129.782 75.3001 130.042 76.7101C130.352 78.3801 131.812 79.6201 133.332 80.4401C136.682 82.2401 140.652 82.6401 144.472 82.5001C148.422 82.3501 152.402 81.6401 155.932 79.9201C158.072 78.8801 160.992 76.6901 159.362 74.0501C158.822 73.1801 157.952 72.5501 157.042 72.0501C152.912 69.7701 147.932 69.6101 143.182 69.7501C140.492 69.8301 137.782 69.9801 135.212 70.7601C134.922 70.8501 134.642 70.9401 134.362 71.0501L134.372 71.0401Z" fill="#FFEEA6"/>
<path d="M157.373 69.8799C157.573 72.5499 157.513 74.1099 157.453 74.8799C157.413 75.3699 157.233 75.8299 156.933 76.2099C155.953 77.4899 154.003 78.8299 154.003 78.8299C154.003 78.8299 147.093 83.8899 133.913 82.3899C126.673 81.5699 123.063 78.5199 121.933 77.3799C121.643 77.0899 121.483 76.7199 121.453 76.3099C121.313 74.3999 121.533 70.2399 121.533 70.2399L157.373 69.8599V69.8799Z" fill="#FFC52F"/>
<path d="M126.803 64.1499C125.493 64.6399 124.263 65.3099 123.283 66.2899C122.053 67.5199 121.293 69.2799 121.603 70.9699C121.973 72.9799 123.723 74.4699 125.553 75.4499C129.583 77.6199 134.333 78.0999 138.923 77.9199C143.663 77.7399 148.433 76.8899 152.683 74.8199C155.253 73.5699 158.753 70.9399 156.803 67.7599C156.153 66.7099 155.103 65.9599 154.013 65.3599C149.053 62.6099 143.073 62.4299 137.383 62.5899C134.163 62.6799 130.903 62.8699 127.813 63.8099C127.473 63.9099 127.123 64.0299 126.793 64.1499H126.803Z" fill="#FFDA40"/>
<path d="M128.913 65.17C127.823 65.58 126.793 66.14 125.983 66.95C124.963 67.97 124.323 69.43 124.583 70.84C124.893 72.51 126.353 73.75 127.873 74.57C131.223 76.37 135.193 76.77 139.013 76.63C142.963 76.48 146.943 75.77 150.473 74.05C152.613 73.01 155.533 70.82 153.903 68.18C153.363 67.31 152.493 66.68 151.583 66.18C147.453 63.9 142.473 63.74 137.723 63.88C135.033 63.96 132.323 64.11 129.753 64.89C129.463 64.98 129.183 65.07 128.903 65.18L128.913 65.17Z" fill="#FFEEA6"/>
<path d="M151.912 63.0703C152.112 65.7403 152.052 67.3003 151.992 68.0703C151.952 68.5603 151.772 69.0203 151.472 69.4003C150.492 70.6803 148.542 72.0203 148.542 72.0203C148.542 72.0203 141.632 77.0803 128.452 75.5803C121.212 74.7603 117.602 71.7103 116.472 70.5703C116.182 70.2803 116.022 69.9103 115.992 69.5003C115.852 67.5903 116.072 63.4303 116.072 63.4303L151.912 63.0503V63.0703Z" fill="#FFC52F"/>
<path d="M121.342 57.3501C120.032 57.8401 118.802 58.5101 117.822 59.4901C116.592 60.7201 115.832 62.4801 116.142 64.1701C116.512 66.1801 118.262 67.6701 120.092 68.6501C124.122 70.8201 128.872 71.3001 133.462 71.1201C138.202 70.9401 142.972 70.0901 147.222 68.0201C149.792 66.7701 153.292 64.1401 151.342 60.9601C150.692 59.9101 149.642 59.1601 148.552 58.5601C143.592 55.8101 137.612 55.6301 131.922 55.7901C128.702 55.8801 125.442 56.0701 122.352 57.0101C122.012 57.1101 121.662 57.2301 121.332 57.3501H121.342Z" fill="#FFDA40"/>
<path d="M123.452 58.3599C122.362 58.7699 121.332 59.3299 120.522 60.1399C119.502 61.1599 118.862 62.6199 119.122 64.0299C119.432 65.6999 120.892 66.9399 122.412 67.7599C125.762 69.5599 129.732 69.9599 133.552 69.8199C137.502 69.6699 141.482 68.9599 145.012 67.2399C147.152 66.1999 150.072 64.0099 148.442 61.3699C147.902 60.4999 147.032 59.8699 146.122 59.3699C141.992 57.0899 137.012 56.9299 132.262 57.0699C129.572 57.1499 126.862 57.2999 124.292 58.0799C124.002 58.1699 123.722 58.2599 123.442 58.3699L123.452 58.3599Z" fill="#FFEEA6"/>
<path d="M150.862 54.7603C151.052 57.2303 150.992 58.6603 150.932 59.3703C150.892 59.8203 150.732 60.2403 150.452 60.6003C149.542 61.7803 147.752 63.0203 147.752 63.0203C147.752 63.0203 141.372 67.6903 129.212 66.3103C122.532 65.5503 119.202 62.7403 118.152 61.6903C117.892 61.4303 117.732 61.0803 117.702 60.7103C117.572 58.9503 117.772 55.1103 117.772 55.1103L150.842 54.7603H150.862Z" fill="#FFC52F"/>
<path d="M122.652 49.48C121.442 49.93 120.302 50.55 119.402 51.45C118.272 52.58 117.562 54.21 117.852 55.77C118.192 57.63 119.812 59 121.492 59.91C125.212 61.91 129.592 62.35 133.832 62.19C138.202 62.02 142.612 61.24 146.532 59.33C148.902 58.18 152.132 55.75 150.332 52.82C149.732 51.85 148.762 51.16 147.762 50.6C143.182 48.06 137.672 47.89 132.412 48.04C129.442 48.13 126.432 48.3 123.582 49.16C123.262 49.26 122.952 49.36 122.642 49.48H122.652Z" fill="#FFDA40"/>
<path d="M124.602 50.4203C123.602 50.8003 122.642 51.3103 121.892 52.0603C120.952 53.0003 120.362 54.3503 120.602 55.6503C120.892 57.1903 122.232 58.3303 123.632 59.0903C126.722 60.7503 130.382 61.1203 133.912 60.9903C137.552 60.8503 141.222 60.2003 144.492 58.6103C146.462 57.6503 149.162 55.6303 147.662 53.2003C147.162 52.3903 146.362 51.8203 145.522 51.3603C141.712 49.2503 137.112 49.1103 132.742 49.2403C130.262 49.3103 127.762 49.4603 125.392 50.1703C125.132 50.2503 124.862 50.3403 124.602 50.4303V50.4203Z" fill="#FFEEA6"/>
<path d="M107.133 56.8198C107.333 59.4898 107.273 61.0498 107.213 61.8198C107.173 62.3098 106.993 62.7698 106.693 63.1498C105.713 64.4298 103.763 65.7698 103.763 65.7698C103.763 65.7698 96.8526 70.8298 83.6726 69.3298C76.4326 68.5098 72.8226 65.4598 71.6926 64.3198C71.4026 64.0298 71.2426 63.6598 71.2126 63.2498C71.0726 61.3398 71.2926 57.1798 71.2926 57.1798L107.133 56.7998V56.8198Z" fill="#FFC52F"/>
<path d="M76.5525 51.0899C75.2425 51.5799 74.0125 52.2499 73.0325 53.2299C71.8025 54.4599 71.0425 56.2199 71.3525 57.9099C71.7225 59.9199 73.4725 61.4099 75.3025 62.3899C79.3325 64.5599 84.0825 65.0399 88.6725 64.8599C93.4125 64.6799 98.1825 63.8299 102.433 61.7599C105.003 60.5099 108.503 57.8799 106.553 54.6999C105.903 53.6499 104.853 52.8999 103.763 52.2999C98.8025 49.5499 92.8225 49.3699 87.1325 49.5299C83.9125 49.6199 80.6525 49.8099 77.5625 50.7499C77.2225 50.8499 76.8725 50.9699 76.5425 51.0899H76.5525Z" fill="#FFDA40"/>
<path d="M78.6732 52.1099C77.5832 52.5199 76.5532 53.0799 75.7432 53.8899C74.7232 54.9099 74.0832 56.3699 74.3432 57.7799C74.6532 59.4499 76.1132 60.6899 77.6332 61.5099C80.9832 63.3099 84.9532 63.7099 88.7732 63.5699C92.7232 63.4199 96.7032 62.7099 100.233 60.9899C102.373 59.9499 105.293 57.7599 103.663 55.1199C103.123 54.2499 102.253 53.6199 101.343 53.1199C97.2132 50.8399 92.2332 50.6799 87.4832 50.8199C84.7932 50.8999 82.0832 51.0499 79.5132 51.8299C79.2232 51.9199 78.9432 52.0099 78.6632 52.1199L78.6732 52.1099Z" fill="#FFEEA6"/>
<path d="M111.733 49.6396C111.923 52.1896 111.873 53.6696 111.803 54.4096C111.763 54.8696 111.593 55.3096 111.313 55.6796C110.373 56.8996 108.523 58.1796 108.523 58.1796C108.523 58.1796 101.933 63.0097 89.3734 61.5797C82.4734 60.7897 79.0334 57.8897 77.9534 56.8097C77.6834 56.5397 77.5234 56.1796 77.4934 55.7896C77.3534 53.9696 77.5634 49.9996 77.5634 49.9996L111.723 49.6396H111.733Z" fill="#FFC52F"/>
<path d="M82.5841 44.1798C81.3341 44.6498 80.1541 45.2898 79.2241 46.2198C78.0541 47.3898 77.3241 49.0698 77.6241 50.6798C77.9741 52.5998 79.6441 54.0198 81.3841 54.9498C85.2241 57.0098 89.7541 57.4698 94.1241 57.3098C98.6441 57.1398 103.194 56.3298 107.244 54.3598C109.694 53.1698 113.034 50.6598 111.174 47.6298C110.564 46.6298 109.554 45.9098 108.524 45.3398C103.794 42.7198 98.0941 42.5398 92.6741 42.6998C89.6041 42.7898 86.4941 42.9698 83.5541 43.8598C83.2241 43.9598 82.9041 44.0698 82.5741 44.1898L82.5841 44.1798Z" fill="#FFDA40"/>
<path d="M84.6028 45.1497C83.5628 45.5397 82.5828 46.0697 81.8028 46.8397C80.8228 47.8097 80.2228 49.2097 80.4728 50.5497C80.7728 52.1397 82.1628 53.3197 83.6028 54.0997C86.8028 55.8197 90.5728 56.1997 94.2228 56.0597C97.9828 55.9197 101.773 55.2397 105.153 53.5997C107.193 52.6097 109.973 50.5197 108.423 48.0097C107.913 47.1797 107.073 46.5797 106.213 46.1097C102.273 43.9297 97.5228 43.7897 93.0028 43.9197C90.4428 43.9897 87.8528 44.1397 85.4128 44.8797C85.1428 44.9597 84.8728 45.0497 84.6028 45.1497Z" fill="#FFEEA6"/>
<path d="M103.733 42.8498C103.913 45.1998 103.863 46.5598 103.803 47.2398C103.763 47.6698 103.613 48.0698 103.353 48.4098C102.493 49.5298 100.783 50.7098 100.783 50.7098C100.783 50.7098 94.7126 55.1598 83.1326 53.8398C76.7726 53.1198 73.6026 50.4398 72.6026 49.4398C72.3526 49.1898 72.2026 48.8598 72.1826 48.4998C72.0526 46.8298 72.2526 43.1698 72.2526 43.1698L103.743 42.8398L103.733 42.8498Z" fill="#FFC52F"/>
<path d="M76.8718 37.82C75.7218 38.25 74.6318 38.84 73.7818 39.7C72.7018 40.78 72.0318 42.33 72.3118 43.81C72.6418 45.58 74.1818 46.89 75.7818 47.75C79.3218 49.65 83.5018 50.08 87.5318 49.92C91.6918 49.76 95.8918 49.01 99.6218 47.2C101.882 46.1 104.952 43.79 103.242 41C102.672 40.08 101.752 39.42 100.792 38.89C96.4318 36.48 91.1818 36.31 86.1818 36.46C83.3518 36.54 80.4818 36.71 77.7818 37.53C77.4818 37.62 77.1818 37.72 76.8818 37.83L76.8718 37.82Z" fill="#FFDA40"/>
<path d="M78.723 38.7098C77.763 39.0698 76.863 39.5598 76.143 40.2698C75.243 41.1598 74.683 42.4498 74.913 43.6898C75.183 45.1598 76.463 46.2498 77.803 46.9598C80.753 48.5398 84.233 48.8898 87.583 48.7698C91.053 48.6398 94.543 48.0198 97.653 46.5098C99.533 45.5998 102.093 43.6698 100.673 41.3498C100.203 40.5798 99.433 40.0398 98.633 39.5898C95.003 37.5798 90.623 37.4498 86.463 37.5698C84.103 37.6398 81.723 37.7798 79.463 38.4598C79.213 38.5398 78.963 38.6198 78.713 38.7098H78.723Z" fill="#FFEEA6"/>
<path d="M133.772 50.6002C132.282 53.3202 130.412 55.4302 130.412 55.4302C128.722 57.3302 126.322 58.6302 123.812 58.9202C121.512 59.1802 119.172 58.7802 116.992 58.0102C115.972 57.6502 114.992 57.2102 114.052 56.6702C112.002 55.4902 110.202 53.9002 108.812 51.9902C106.332 48.6002 104.772 43.9002 106.762 39.9002C107.482 38.4402 108.332 37.0202 109.302 35.7202L133.772 50.6002Z" fill="#FFC52F"/>
<path d="M133.769 50.6074C137.047 45.2188 134.226 37.5187 127.469 33.4088C120.712 29.2989 112.577 30.3355 109.3 35.7241C106.022 41.1127 108.843 48.8127 115.6 52.9226C122.357 57.0325 130.491 55.996 133.769 50.6074Z" fill="#FFDA40"/>
<path d="M130.692 48.7367C133.146 44.7024 131.035 38.9377 125.977 35.8611C120.919 32.7844 114.829 33.5607 112.375 37.5951C109.921 41.6294 112.032 47.3941 117.09 50.4707C122.149 53.5474 128.239 52.7711 130.692 48.7367Z" fill="#FFEEA6"/>
<path d="M146.323 52.5402C144.913 55.1202 143.143 57.1102 143.143 57.1102C141.543 58.9002 139.273 60.1402 136.893 60.4102C134.713 60.6602 132.503 60.2802 130.443 59.5502C129.483 59.2102 128.553 58.7902 127.663 58.2902C125.723 57.1702 124.023 55.6702 122.703 53.8702C120.363 50.6602 118.883 46.2202 120.763 42.4302C121.453 41.0502 122.253 39.7102 123.173 38.4702L146.313 52.5502L146.323 52.5402Z" fill="#FFC52F"/>
<path d="M146.323 52.5437C149.423 47.4477 146.756 40.1662 140.367 36.2802C133.978 32.3942 126.286 33.375 123.187 38.4711C120.087 43.5671 122.753 50.8485 129.142 54.7346C135.531 58.6206 143.223 57.6397 146.323 52.5437Z" fill="#FFDA40"/>
<path d="M143.417 50.7764C145.739 46.9591 143.743 41.5054 138.958 38.5952C134.174 35.6849 128.413 36.4203 126.091 40.2376C123.769 44.0549 125.765 49.5086 130.55 52.4188C135.335 55.3291 141.096 54.5938 143.417 50.7764Z" fill="#FFEEA6"/>
<path d="M187.583 91.8498C186.173 94.4298 184.403 96.4198 184.403 96.4198C182.803 98.2098 180.533 99.4498 178.153 99.7198C175.973 99.9698 173.763 99.5898 171.703 98.8598C170.743 98.5198 169.813 98.0998 168.923 97.5998C166.983 96.4798 165.283 94.9798 163.963 93.1798C161.623 89.9698 160.143 85.5298 162.023 81.7398C162.713 80.3598 163.513 79.0198 164.433 77.7798L187.573 91.8598L187.583 91.8498Z" fill="#FFC52F"/>
<path d="M187.579 91.8498C190.678 86.7538 188.012 79.4724 181.623 75.5864C175.234 71.7003 167.542 72.6812 164.442 77.7772C161.343 82.8732 164.009 90.1547 170.398 94.0407C176.787 97.9267 184.479 96.9459 187.579 91.8498Z" fill="#FFDA40"/>
<path d="M184.673 90.0831C186.995 86.2658 184.999 80.812 180.214 77.9018C175.43 74.9916 169.669 75.7269 167.347 79.5442C165.025 83.3615 167.021 88.8153 171.806 91.7255C176.59 94.6357 182.351 93.9004 184.673 90.0831Z" fill="#FFEEA6"/>
</g>
<defs>
<clipPath id="clip0_113_24994">
<rect width="224.92" height="208.1" fill="white" transform="translate(0.632812)"/>
</clipPath>
</defs>
</svg>
