<svg width="100%" height="100%" viewBox="0 0 226 209" fill="none" xmlns="http://www.w3.org/2000/svg">
<g clip-path="url(#clip0_113_24986)">
<path d="M219.062 87.35H214.182C211.252 66.63 201.962 47.96 188.362 33.35C190.772 23.75 196.132 21.63 196.132 21.63C200.402 19.62 199.902 15.86 199.902 15.86C199.402 11.84 193.122 9.58 193.122 9.58C181.522 6.76 171.902 11.93 166.692 15.77C151.632 6.71 134.012 1.5 115.172 1.5C63.462 1.5 20.912 40.76 15.712 91.1C14.502 91.74 13.122 92.06 11.792 91.76C9.94199 91.34 8.37199 89.49 8.71199 87.62C9.00199 85.97 10.512 84.87 11.832 83.83C13.152 82.79 14.492 81.35 14.242 79.69C13.982 78.02 12.082 76.99 10.402 77.21C8.72199 77.43 7.32199 78.57 6.21199 79.84C1.88199 84.84 0.00199127 95.04 6.94199 98.72C8.70199 99.65 10.692 100.07 12.672 100.29C13.512 100.38 14.402 100.42 15.182 100.11C15.182 100.57 15.162 101.04 15.162 101.5C15.162 140.98 38.042 175.12 71.272 191.37C71.222 191.46 71.162 191.54 71.132 191.63L66.752 201.6C65.672 204.05 68.022 206.6 71.362 206.6H80.792C82.792 206.6 84.582 205.65 85.322 204.21L88.532 197.91C97.012 200.25 105.952 201.5 115.172 201.5C124.392 201.5 133.332 200.24 141.812 197.91L145.022 204.21C145.752 205.65 147.552 206.6 149.552 206.6H158.982C162.322 206.6 164.672 204.05 163.592 201.6L159.212 191.63C159.172 191.54 159.112 191.46 159.072 191.37C186.102 178.15 206.282 153.09 212.872 122.95H219.072C221.942 122.95 224.292 120.6 224.292 117.73V92.57C224.292 89.7 221.942 87.35 219.072 87.35H219.062Z" fill="#FFF3C0"/>
<path d="M158.981 208.1H149.551C146.981 208.1 144.681 206.84 143.681 204.89L141.031 199.67C124.201 204.09 106.141 204.09 89.3212 199.67L86.6712 204.89C85.6812 206.84 83.3812 208.1 80.8012 208.1H71.3712C69.0212 208.1 66.8812 207.04 65.7712 205.34C64.9012 204.01 64.7612 202.42 65.3912 200.99L69.3112 192.06C53.0612 183.82 39.3212 171.36 29.5012 155.95C19.2112 139.79 13.7412 121.09 13.6712 101.85C13.2712 101.85 12.8812 101.82 12.5112 101.78C9.93121 101.5 7.94121 100.95 6.24121 100.05C3.46121 98.58 1.67121 96.09 1.07121 92.85C0.221214 88.33 1.87121 82.58 5.08121 78.87C6.68121 77.02 8.41121 75.96 10.2112 75.73C12.5412 75.42 15.3212 76.86 15.7212 79.47C16.0112 81.37 15.0112 83.23 12.7612 85.02L12.5312 85.2C11.4712 86.04 10.3712 86.9 10.1912 87.89C10.0212 88.87 10.9612 90.04 12.1312 90.3C12.9212 90.48 13.6912 90.33 14.3212 90.09C17.0612 65.59 28.6512 42.96 47.0012 26.31C65.6912 9.34 89.9012 0 115.171 0C133.301 0 151.061 4.83 166.601 13.98C171.861 10.3 181.701 5.27 193.461 8.13L193.611 8.18C194.341 8.44 200.771 10.89 201.371 15.68C201.401 15.87 201.961 20.55 196.751 23C196.501 23.11 192.241 24.99 190.001 32.95C203.611 47.8 212.391 66.05 215.451 85.86H219.041C222.751 85.86 225.761 88.87 225.761 92.58V117.74C225.761 121.45 222.751 124.46 219.041 124.46H214.041C207.331 153.45 187.631 178.56 161.021 192.07L164.941 201C165.571 202.43 165.431 204.02 164.561 205.35C163.451 207.05 161.301 208.11 158.961 208.11L158.981 208.1ZM142.601 196.13L146.361 203.52C146.841 204.46 148.121 205.09 149.551 205.09H158.981C160.301 205.09 161.521 204.54 162.071 203.69C162.391 203.2 162.441 202.7 162.211 202.19L157.751 192.09L156.981 190.71L158.401 190.01C185.221 176.89 205.031 151.69 211.391 122.62L211.651 121.44H219.051C221.101 121.44 222.771 119.77 222.771 117.72V92.56C222.771 90.51 221.101 88.84 219.051 88.84H212.861L212.681 87.55C209.851 67.58 201.061 49.19 187.251 34.37L186.691 33.77L186.891 32.98C189.461 22.75 195.311 20.33 195.561 20.23C198.591 18.8 198.421 16.31 198.391 16.03C198.081 13.54 194.221 11.59 192.661 11.01C181.491 8.33 172.141 13.59 167.551 16.97L166.741 17.56L165.881 17.04C150.611 7.84 133.071 2.98 115.151 2.98C90.6312 2.98 67.1312 12.05 48.9812 28.51C30.9612 44.86 19.6712 67.14 17.1812 91.23L17.1012 92.02L16.3912 92.4C14.7412 93.28 13.0212 93.56 11.4412 93.2C8.69121 92.58 6.75121 89.9 7.21121 87.33C7.59121 85.21 9.29121 83.87 10.6512 82.8L10.8812 82.62C11.8012 81.89 12.8812 80.82 12.7312 79.88C12.6112 79.14 11.5412 78.53 10.5712 78.66C9.52121 78.79 8.43121 79.51 7.33121 80.79C4.72121 83.81 3.32121 88.63 4.00121 92.25C4.44121 94.59 5.66121 96.31 7.63121 97.36C8.98121 98.08 10.6312 98.52 12.8212 98.76C13.4312 98.83 14.1312 98.87 14.6212 98.68L16.7012 97.86L16.6612 100.57C16.6612 100.87 16.6612 101.17 16.6612 101.47C16.6612 120.26 21.9712 138.54 32.0212 154.31C41.8012 169.67 55.6012 182.01 71.9312 190L73.3512 190.7L72.5012 192.22L68.1212 202.18C67.9012 202.69 67.9512 203.19 68.2612 203.68C68.8112 204.53 70.0312 205.08 71.3512 205.08H80.7812C82.2112 205.08 83.4912 204.45 83.9712 203.51L87.7312 196.12L88.9112 196.45C105.951 201.15 124.351 201.15 141.401 196.45L142.581 196.12L142.601 196.13Z" fill="#FFEEA6"/>
<path d="M115.172 191.26C164.745 191.26 204.932 151.073 204.932 101.5C204.932 51.9272 164.745 11.7402 115.172 11.7402C65.599 11.7402 25.4121 51.9272 25.4121 101.5C25.4121 151.073 65.599 191.26 115.172 191.26Z" fill="#FFFAE6"/>
<path d="M158.471 167.15C158.731 170.67 158.661 172.71 158.571 173.73C158.511 174.37 158.281 174.98 157.891 175.49C156.601 177.17 154.042 178.94 154.042 178.94C154.042 178.94 144.941 185.6 127.601 183.63C118.081 182.55 113.321 178.53 111.831 177.04C111.451 176.66 111.231 176.17 111.191 175.64C111.001 173.13 111.291 167.65 111.291 167.65L158.461 167.15H158.471Z" fill="#FFC52F"/>
<path d="M118.231 159.61C116.511 160.25 114.881 161.14 113.601 162.42C111.981 164.03 110.981 166.35 111.391 168.58C111.881 171.23 114.181 173.19 116.591 174.48C121.891 177.33 128.151 177.96 134.191 177.74C140.431 177.5 146.711 176.38 152.301 173.66C155.681 172.02 160.291 168.55 157.731 164.37C156.881 162.99 155.501 162 154.061 161.21C147.531 157.59 139.661 157.35 132.171 157.56C127.931 157.68 123.641 157.93 119.581 159.16C119.131 159.3 118.681 159.45 118.231 159.61Z" fill="#FFDA40"/>
<path d="M121.011 160.95C119.581 161.49 118.221 162.22 117.151 163.29C115.801 164.63 114.971 166.56 115.311 168.41C115.721 170.61 117.641 172.24 119.641 173.31C124.051 175.68 129.271 176.21 134.301 176.02C139.491 175.82 144.731 174.89 149.391 172.63C152.201 171.26 156.051 168.38 153.911 164.91C153.201 163.76 152.051 162.94 150.861 162.28C145.421 159.27 138.871 159.07 132.631 159.25C129.101 159.35 125.521 159.56 122.141 160.58C121.761 160.69 121.391 160.82 121.021 160.96L121.011 160.95Z" fill="#FFEEA6"/>
<path d="M169.051 161.68C169.311 165.09 169.231 167.08 169.151 168.06C169.101 168.68 168.871 169.27 168.491 169.76C167.241 171.39 164.761 173.11 164.761 173.11C164.761 173.11 155.941 179.57 139.111 177.66C129.871 176.61 125.261 172.72 123.811 171.27C123.441 170.9 123.231 170.43 123.191 169.91C123.011 167.48 123.291 162.16 123.291 162.16L169.051 161.68Z" fill="#FFC52F"/>
<path d="M130.021 154.37C128.351 155 126.771 155.85 125.521 157.1C123.951 158.66 122.981 160.92 123.381 163.08C123.851 165.65 126.091 167.55 128.421 168.8C133.561 171.57 139.631 172.18 145.491 171.96C151.541 171.73 157.641 170.64 163.061 168C166.341 166.41 170.811 163.04 168.321 158.99C167.501 157.65 166.151 156.69 164.761 155.92C158.431 152.41 150.791 152.17 143.521 152.38C139.401 152.5 135.241 152.74 131.311 153.93C130.871 154.06 130.431 154.21 130.001 154.37H130.021Z" fill="#FFDA40"/>
<path d="M132.721 155.67C131.331 156.19 130.011 156.9 128.981 157.94C127.671 159.24 126.861 161.11 127.201 162.91C127.601 165.04 129.461 166.62 131.401 167.67C135.681 169.97 140.741 170.48 145.621 170.3C150.661 170.11 155.741 169.2 160.261 167.01C162.991 165.68 166.721 162.89 164.641 159.52C163.951 158.4 162.841 157.61 161.681 156.97C156.401 154.05 150.051 153.86 143.991 154.03C140.561 154.13 137.091 154.33 133.821 155.32C133.451 155.43 133.091 155.55 132.731 155.69L132.721 155.67Z" fill="#FFEEA6"/>
<path d="M117.612 170.38C117.862 173.74 117.792 175.7 117.712 176.67C117.662 177.28 117.442 177.86 117.062 178.35C115.832 179.96 113.382 181.65 113.382 181.65C113.382 181.65 104.682 188.02 88.1019 186.13C78.9919 185.09 74.4519 181.26 73.0219 179.83C72.6619 179.47 72.4519 179 72.4119 178.49C72.2319 176.09 72.5119 170.85 72.5119 170.85L117.612 170.38Z" fill="#FFC52F"/>
<path d="M79.1412 163.17C77.5012 163.79 75.9412 164.63 74.7112 165.86C73.1612 167.4 72.2112 169.62 72.6012 171.75C73.0712 174.28 75.2712 176.15 77.5712 177.39C82.6412 180.12 88.6212 180.72 94.4012 180.5C100.361 180.27 106.371 179.2 111.721 176.6C114.951 175.03 119.361 171.71 116.911 167.72C116.101 166.4 114.781 165.45 113.411 164.7C107.171 161.24 99.6412 161.01 92.4812 161.21C88.4212 161.33 84.3212 161.57 80.4412 162.74C80.0112 162.87 79.5812 163.01 79.1512 163.17H79.1412Z" fill="#FFDA40"/>
<path d="M81.8017 164.45C80.4317 164.96 79.1318 165.67 78.1118 166.68C76.8218 167.96 76.0217 169.81 76.3517 171.58C76.7417 173.68 78.5817 175.24 80.4917 176.27C84.7117 178.54 89.7018 179.04 94.5018 178.86C99.4718 178.67 104.472 177.78 108.932 175.62C111.622 174.31 115.292 171.56 113.252 168.24C112.572 167.14 111.472 166.36 110.332 165.73C105.132 162.86 98.8617 162.66 92.8918 162.83C89.5118 162.93 86.0918 163.13 82.8618 164.1C82.5018 164.21 82.1418 164.33 81.7918 164.46L81.8017 164.45Z" fill="#FFEEA6"/>
<path d="M108.642 162.89C108.892 166.17 108.822 168.08 108.732 169.03C108.682 169.63 108.462 170.19 108.102 170.67C106.902 172.24 104.512 173.89 104.512 173.89C104.512 173.89 96.0318 180.11 79.8518 178.26C70.9718 177.25 66.5418 173.51 65.1418 172.11C64.7918 171.76 64.5818 171.3 64.5518 170.8C64.3818 168.46 64.6418 163.35 64.6418 163.35L108.642 162.89Z" fill="#FFC52F"/>
<path d="M71.1115 155.86C69.5115 156.46 67.9915 157.29 66.7915 158.48C65.2815 159.98 64.3515 162.15 64.7315 164.23C65.1915 166.7 67.3415 168.53 69.5815 169.73C74.5215 172.39 80.3615 172.98 85.9915 172.77C91.8115 172.55 97.6715 171.5 102.882 168.96C106.032 167.43 110.332 164.19 107.942 160.29C107.152 159 105.862 158.08 104.522 157.34C98.4315 153.97 91.0915 153.74 84.1015 153.94C80.1415 154.05 76.1415 154.29 72.3615 155.43C71.9415 155.56 71.5215 155.7 71.1015 155.85L71.1115 155.86Z" fill="#FFDA40"/>
<path d="M73.7126 157.11C72.3726 157.61 71.1126 158.3 70.1126 159.29C68.8526 160.54 68.0826 162.34 68.4026 164.07C68.7826 166.12 70.5726 167.64 72.4426 168.64C76.5626 170.85 81.4226 171.34 86.1126 171.16C90.9626 170.98 95.8426 170.11 100.183 168C102.813 166.73 106.393 164.04 104.403 160.8C103.743 159.73 102.673 158.96 101.553 158.35C96.4826 155.55 90.3726 155.36 84.5426 155.52C81.2426 155.61 77.9126 155.81 74.7626 156.76C74.4126 156.87 74.0626 156.98 73.7126 157.11Z" fill="#FFEEA6"/>
<path d="M121.121 161.86C119.441 164.93 117.331 167.31 117.331 167.31C115.431 169.45 112.721 170.92 109.881 171.24C107.281 171.54 104.641 171.08 102.191 170.21C101.041 169.8 99.9315 169.31 98.8815 168.7C96.5715 167.37 94.5415 165.58 92.9715 163.42C90.1715 159.59 88.4115 154.29 90.6515 149.78C91.4715 148.13 92.4315 146.54 93.5215 145.06L121.131 161.85L121.121 161.86Z" fill="#FFC52F"/>
<path d="M121.129 161.861C124.825 155.784 121.641 147.097 114.016 142.459C106.39 137.821 97.2122 138.988 93.5156 145.066C89.819 151.143 93.0037 159.83 100.629 164.468C108.254 169.106 117.432 167.939 121.129 161.861Z" fill="#FFDA40"/>
<path d="M117.659 159.752C120.429 155.198 118.046 148.692 112.336 145.219C106.627 141.746 99.7531 142.622 96.9835 147.176C94.214 151.729 96.5972 158.236 102.307 161.708C108.016 165.181 114.89 164.305 117.659 159.752Z" fill="#FFEEA6"/>
</g>
<defs>
<clipPath id="clip0_113_24986">
<rect width="224.92" height="208.1" fill="white" transform="translate(0.851562)"/>
</clipPath>
</defs>
</svg>
