<svg width="226" height="209" viewBox="0 0 226 209" fill="none" xmlns="http://www.w3.org/2000/svg">
<g clip-path="url(#clip0_113_24992)">
<path d="M218.992 87.35H214.112C211.182 66.63 201.892 47.96 188.292 33.35C190.702 23.75 196.062 21.63 196.062 21.63C200.332 19.62 199.832 15.86 199.832 15.86C199.332 11.84 193.052 9.58 193.052 9.58C181.452 6.76 171.832 11.93 166.622 15.77C151.562 6.71 133.942 1.5 115.102 1.5C63.3917 1.5 20.8417 40.76 15.6417 91.1C14.4317 91.74 13.0517 92.06 11.7217 91.76C9.87168 91.34 8.30168 89.49 8.64168 87.62C8.93168 85.97 10.4417 84.87 11.7617 83.83C13.0817 82.79 14.4217 81.35 14.1717 79.69C13.9117 78.02 12.0117 76.99 10.3317 77.21C8.65168 77.43 7.25168 78.57 6.14168 79.84C1.81168 84.84 -0.0683212 95.04 6.87168 98.72C8.63168 99.65 10.6217 100.07 12.6017 100.29C13.4417 100.38 14.3317 100.42 15.1117 100.11C15.1117 100.57 15.0917 101.04 15.0917 101.5C15.0917 140.98 37.9717 175.12 71.2017 191.37C71.1517 191.46 71.0917 191.54 71.0617 191.63L66.6817 201.6C65.6017 204.05 67.9517 206.6 71.2917 206.6H80.7217C82.7217 206.6 84.5117 205.65 85.2517 204.21L88.4617 197.91C96.9417 200.25 105.882 201.5 115.102 201.5C124.322 201.5 133.262 200.24 141.742 197.91L144.952 204.21C145.682 205.65 147.482 206.6 149.482 206.6H158.912C162.252 206.6 164.602 204.05 163.522 201.6L159.142 191.63C159.102 191.54 159.042 191.46 159.002 191.37C186.032 178.15 206.212 153.09 212.802 122.95H219.002C221.872 122.95 224.222 120.6 224.222 117.73V92.57C224.222 89.7 221.872 87.35 219.002 87.35H218.992Z" fill="#FFF3C0"/>
<path d="M158.911 208.1H149.481C146.911 208.1 144.611 206.84 143.611 204.89L140.961 199.67C124.131 204.09 106.071 204.09 89.2509 199.67L86.6009 204.89C85.6109 206.84 83.3009 208.1 80.7309 208.1H71.3009C68.9509 208.1 66.8109 207.04 65.7009 205.34C64.8309 204.01 64.6909 202.42 65.3209 200.99L69.2409 192.06C52.9909 183.82 39.2509 171.36 29.4309 155.95C19.1409 139.79 13.6709 121.09 13.6009 101.85C13.2009 101.85 12.8109 101.82 12.4409 101.78C9.8609 101.5 7.8709 100.95 6.1709 100.05C3.3909 98.58 1.6009 96.09 1.0009 92.85C0.150902 88.33 1.8009 82.58 5.0109 78.87C6.6109 77.02 8.3409 75.96 10.1409 75.73C12.4709 75.43 15.2509 76.86 15.6509 79.47C15.9409 81.37 14.9409 83.23 12.6909 85.02L12.4609 85.2C11.4009 86.04 10.2909 86.9 10.1209 87.89C9.9509 88.87 10.8909 90.04 12.0609 90.3C12.8509 90.48 13.6209 90.33 14.2509 90.09C16.9909 65.59 28.5709 42.96 46.9309 26.31C65.6209 9.34 89.8309 0 115.101 0C133.231 0 150.991 4.83 166.531 13.98C171.791 10.3 181.631 5.27 193.391 8.13L193.541 8.18C194.271 8.44 200.701 10.89 201.301 15.68C201.321 15.87 201.891 20.55 196.681 23C196.431 23.11 192.171 24.99 189.931 32.95C203.541 47.8 212.321 66.05 215.381 85.86H218.971C222.681 85.86 225.691 88.87 225.691 92.58V117.74C225.691 121.45 222.681 124.46 218.971 124.46H213.971C207.261 153.45 187.561 178.56 160.951 192.07L164.871 201C165.501 202.43 165.361 204.02 164.491 205.35C163.381 207.05 161.231 208.11 158.891 208.11L158.911 208.1ZM142.531 196.13L146.291 203.52C146.771 204.46 148.051 205.09 149.481 205.09H158.911C160.231 205.09 161.451 204.54 162.001 203.69C162.321 203.2 162.371 202.7 162.141 202.19L157.681 192.09L156.921 190.71L158.331 190.02C185.151 176.9 204.961 151.7 211.321 122.63L211.581 121.45H218.981C221.031 121.45 222.701 119.78 222.701 117.73V92.57C222.701 90.52 221.031 88.85 218.981 88.85H212.791L212.611 87.56C209.781 67.59 200.991 49.2 187.181 34.38L186.621 33.78L186.821 32.99C189.391 22.76 195.241 20.34 195.491 20.24C198.521 18.81 198.351 16.32 198.321 16.04C198.011 13.55 194.151 11.6 192.591 11.02C181.411 8.34 172.071 13.6 167.491 16.98L166.681 17.57L165.821 17.05C150.551 7.85 133.011 2.99 115.091 2.99C90.5709 2.99 67.0709 12.06 48.9209 28.52C30.9009 44.87 19.6109 67.15 17.1209 91.24L17.0409 92.03L16.3309 92.41C14.6809 93.29 12.9609 93.57 11.3809 93.21C8.6309 92.59 6.6909 89.91 7.1509 87.34C7.5309 85.22 9.2309 83.88 10.5909 82.81L10.8209 82.63C11.7409 81.9 12.8209 80.83 12.6709 79.89C12.5609 79.15 11.4909 78.55 10.5109 78.67C9.4609 78.8 8.3709 79.52 7.2709 80.8C4.6609 83.82 3.2609 88.64 3.9409 92.27C4.3809 94.61 5.6009 96.33 7.5709 97.38C8.9209 98.1 10.5709 98.54 12.7609 98.78C13.3709 98.85 14.0709 98.89 14.5609 98.7L16.6409 97.88L16.6009 100.55C16.6009 100.86 16.5909 101.18 16.5909 101.5C16.5909 120.29 21.9009 138.57 31.9509 154.34C41.7309 169.7 55.5309 182.04 71.8609 190.03L73.2709 190.72L72.4309 192.24L68.0509 202.2C67.8309 202.71 67.8709 203.21 68.1909 203.7C68.7409 204.55 69.9609 205.1 71.2809 205.1H80.7109C82.1409 205.1 83.4209 204.47 83.9009 203.53L87.6609 196.14L88.8409 196.47C105.881 201.17 124.281 201.17 141.331 196.47L142.511 196.14L142.531 196.13Z" fill="#FFEEA6"/>
<path d="M115.102 191.26C164.675 191.26 204.862 151.073 204.862 101.5C204.862 51.9272 164.675 11.7402 115.102 11.7402C65.5287 11.7402 25.3418 51.9272 25.3418 101.5C25.3418 151.073 65.5287 191.26 115.102 191.26Z" fill="#FFFAE6"/>
<path d="M179.7 135.17C189.669 135.17 197.75 127.653 197.75 118.38C197.75 109.107 189.669 101.59 179.7 101.59C169.732 101.59 161.65 109.107 161.65 118.38C161.65 127.653 169.732 135.17 179.7 135.17Z" fill="#FFDA40"/>
<path d="M179.7 131.56C187.531 131.56 193.88 125.659 193.88 118.38C193.88 111.101 187.531 105.2 179.7 105.2C171.868 105.2 165.52 111.101 165.52 118.38C165.52 125.659 171.868 131.56 179.7 131.56Z" fill="#FFEEA6"/>
<path d="M165.28 150.85C177.734 150.85 187.83 141.462 187.83 129.88C187.83 118.299 177.734 108.91 165.28 108.91C152.826 108.91 142.73 118.299 142.73 129.88C142.73 141.462 152.826 150.85 165.28 150.85Z" fill="#FFDA40"/>
<path d="M165.28 146.35C175.061 146.35 182.99 138.976 182.99 129.88C182.99 120.784 175.061 113.41 165.28 113.41C155.499 113.41 147.57 120.784 147.57 129.88C147.57 138.976 155.499 146.35 165.28 146.35Z" fill="#FFEEA6"/>
<path d="M68.5414 152.53C80.7469 152.53 90.6414 143.33 90.6414 131.98C90.6414 120.631 80.7469 111.43 68.5414 111.43C56.3359 111.43 46.4414 120.631 46.4414 131.98C46.4414 143.33 56.3359 152.53 68.5414 152.53Z" fill="#FFDA40"/>
<path d="M68.5416 148.12C78.1293 148.12 85.9016 140.894 85.9016 131.98C85.9016 123.066 78.1293 115.84 68.5416 115.84C58.954 115.84 51.1816 123.066 51.1816 131.98C51.1816 140.894 58.954 148.12 68.5416 148.12Z" fill="#FFEEA6"/>
<path d="M154.302 164.52C154.562 168.04 154.492 170.08 154.402 171.1C154.342 171.74 154.112 172.35 153.722 172.86C152.432 174.54 149.872 176.31 149.872 176.31C149.872 176.31 140.772 182.97 123.432 181C113.912 179.92 109.152 175.9 107.662 174.41C107.282 174.03 107.062 173.54 107.022 173.01C106.832 170.5 107.122 165.02 107.122 165.02L154.292 164.52H154.302Z" fill="#FFC52F"/>
<path d="M114.071 156.99C112.351 157.63 110.721 158.52 109.441 159.8C107.821 161.41 106.821 163.73 107.231 165.96C107.721 168.61 110.021 170.57 112.431 171.86C117.731 174.71 123.991 175.34 130.031 175.12C136.271 174.88 142.551 173.76 148.141 171.04C151.521 169.4 156.131 165.93 153.571 161.75C152.721 160.37 151.341 159.38 149.901 158.59C143.371 154.97 135.501 154.73 128.011 154.94C123.771 155.06 119.481 155.31 115.421 156.54C114.971 156.68 114.521 156.83 114.071 156.99Z" fill="#FFDA40"/>
<path d="M116.852 158.32C115.422 158.86 114.062 159.59 112.992 160.66C111.642 162 110.812 163.93 111.152 165.78C111.562 167.98 113.482 169.61 115.482 170.68C119.892 173.05 125.112 173.58 130.142 173.39C135.332 173.19 140.572 172.26 145.232 170C148.042 168.63 151.892 165.75 149.752 162.28C149.042 161.13 147.892 160.31 146.702 159.65C141.262 156.64 134.712 156.44 128.472 156.62C124.942 156.72 121.362 156.93 117.982 157.95C117.602 158.06 117.232 158.19 116.862 158.33L116.852 158.32Z" fill="#FFEEA6"/>
<path d="M161.581 155.22C161.841 158.74 161.771 160.78 161.681 161.8C161.621 162.44 161.391 163.05 161.001 163.56C159.711 165.24 157.151 167.01 157.151 167.01C157.151 167.01 148.051 173.67 130.711 171.7C121.191 170.62 116.431 166.6 114.941 165.11C114.561 164.73 114.341 164.24 114.301 163.71C114.111 161.2 114.401 155.72 114.401 155.72L161.571 155.22H161.581Z" fill="#FFC52F"/>
<path d="M121.34 147.69C119.62 148.33 117.99 149.22 116.71 150.5C115.09 152.11 114.09 154.43 114.5 156.66C114.99 159.31 117.29 161.27 119.7 162.56C125 165.41 131.26 166.04 137.3 165.82C143.54 165.58 149.82 164.46 155.41 161.74C158.79 160.1 163.4 156.63 160.84 152.45C159.99 151.07 158.61 150.08 157.17 149.29C150.64 145.67 142.77 145.43 135.28 145.64C131.04 145.76 126.75 146.01 122.69 147.24C122.24 147.38 121.79 147.53 121.34 147.69Z" fill="#FFDA40"/>
<path d="M124.12 149.03C122.69 149.57 121.33 150.3 120.26 151.37C118.91 152.71 118.08 154.64 118.42 156.49C118.83 158.69 120.75 160.32 122.75 161.39C127.16 163.76 132.38 164.29 137.41 164.1C142.6 163.9 147.84 162.97 152.5 160.71C155.31 159.34 159.16 156.46 157.02 152.99C156.31 151.84 155.16 151.02 153.97 150.36C148.53 147.35 141.98 147.15 135.74 147.33C132.21 147.43 128.63 147.64 125.25 148.66C124.87 148.77 124.5 148.9 124.13 149.04L124.12 149.03Z" fill="#FFEEA6"/>
<path d="M161.45 145.45C161.71 148.97 161.64 151.01 161.55 152.03C161.49 152.67 161.26 153.28 160.87 153.79C159.58 155.47 157.02 157.24 157.02 157.24C157.02 157.24 147.92 163.9 130.58 161.93C121.06 160.85 116.3 156.83 114.81 155.34C114.43 154.96 114.21 154.47 114.17 153.94C113.98 151.43 114.27 145.95 114.27 145.95L161.44 145.45H161.45Z" fill="#FFC52F"/>
<path d="M121.219 137.92C119.499 138.56 117.869 139.45 116.589 140.73C114.969 142.34 113.969 144.66 114.379 146.89C114.869 149.54 117.169 151.5 119.579 152.79C124.879 155.64 131.139 156.27 137.179 156.05C143.419 155.81 149.699 154.69 155.289 151.97C158.669 150.33 163.279 146.86 160.719 142.68C159.869 141.3 158.489 140.31 157.049 139.52C150.519 135.9 142.649 135.66 135.159 135.87C130.919 135.99 126.629 136.24 122.569 137.47C122.119 137.61 121.669 137.76 121.219 137.92Z" fill="#FFDA40"/>
<path d="M124.001 139.25C122.571 139.79 121.211 140.52 120.141 141.59C118.791 142.93 117.961 144.86 118.301 146.71C118.711 148.91 120.631 150.54 122.631 151.61C127.041 153.98 132.261 154.51 137.291 154.32C142.481 154.12 147.721 153.19 152.381 150.93C155.191 149.56 159.041 146.68 156.901 143.21C156.191 142.06 155.041 141.24 153.851 140.58C148.411 137.57 141.861 137.37 135.621 137.55C132.091 137.65 128.511 137.86 125.131 138.88C124.751 138.99 124.381 139.12 124.011 139.26L124.001 139.25Z" fill="#FFEEA6"/>
<path d="M166.571 136.03C166.831 139.55 166.761 141.59 166.671 142.61C166.611 143.25 166.381 143.86 165.991 144.37C164.701 146.05 162.141 147.82 162.141 147.82C162.141 147.82 153.041 154.48 135.701 152.51C126.181 151.43 121.421 147.41 119.931 145.92C119.551 145.54 119.331 145.05 119.291 144.52C119.101 142.01 119.391 136.53 119.391 136.53L166.561 136.03H166.571Z" fill="#FFC52F"/>
<path d="M126.33 128.5C124.61 129.14 122.98 130.03 121.7 131.31C120.08 132.92 119.08 135.24 119.49 137.47C119.98 140.12 122.28 142.08 124.69 143.37C129.99 146.22 136.25 146.85 142.29 146.63C148.53 146.39 154.81 145.27 160.4 142.55C163.78 140.91 168.39 137.44 165.83 133.26C164.98 131.88 163.6 130.89 162.16 130.1C155.63 126.48 147.76 126.24 140.27 126.45C136.03 126.57 131.74 126.82 127.68 128.05C127.23 128.19 126.78 128.34 126.33 128.5Z" fill="#FFDA40"/>
<path d="M129.11 129.83C127.68 130.37 126.32 131.1 125.25 132.17C123.9 133.51 123.07 135.44 123.41 137.29C123.82 139.49 125.74 141.12 127.74 142.19C132.15 144.56 137.37 145.09 142.4 144.9C147.59 144.7 152.83 143.77 157.49 141.51C160.3 140.14 164.15 137.26 162.01 133.79C161.3 132.64 160.15 131.82 158.96 131.16C153.52 128.15 146.97 127.95 140.73 128.13C137.2 128.23 133.62 128.44 130.24 129.46C129.86 129.57 129.49 129.7 129.12 129.84L129.11 129.83Z" fill="#FFEEA6"/>
<path d="M159.042 126.82C159.302 130.34 159.232 132.38 159.142 133.4C159.082 134.04 158.852 134.65 158.462 135.16C157.172 136.84 154.612 138.61 154.612 138.61C154.612 138.61 145.512 145.27 128.172 143.3C118.652 142.22 113.892 138.2 112.402 136.71C112.022 136.33 111.802 135.84 111.762 135.31C111.572 132.8 111.862 127.32 111.862 127.32L159.032 126.82H159.042Z" fill="#FFC52F"/>
<path d="M118.811 119.28C117.091 119.92 115.461 120.81 114.181 122.09C112.561 123.7 111.561 126.02 111.971 128.25C112.461 130.9 114.761 132.86 117.171 134.15C122.471 137 128.731 137.63 134.771 137.41C141.011 137.17 147.291 136.05 152.881 133.33C156.261 131.69 160.871 128.22 158.311 124.04C157.461 122.66 156.081 121.67 154.641 120.88C148.111 117.26 140.241 117.02 132.751 117.23C128.511 117.35 124.221 117.6 120.161 118.83C119.711 118.97 119.261 119.12 118.811 119.28Z" fill="#FFDA40"/>
<path d="M121.593 120.62C120.163 121.16 118.803 121.89 117.733 122.96C116.383 124.3 115.553 126.23 115.893 128.08C116.303 130.28 118.223 131.91 120.223 132.98C124.633 135.35 129.853 135.88 134.883 135.69C140.073 135.49 145.313 134.56 149.973 132.3C152.783 130.93 156.633 128.05 154.493 124.58C153.783 123.43 152.633 122.61 151.443 121.95C146.003 118.94 139.453 118.74 133.213 118.92C129.683 119.02 126.103 119.23 122.723 120.25C122.343 120.36 121.973 120.49 121.603 120.63L121.593 120.62Z" fill="#FFEEA6"/>
<path d="M155.4 117.96C155.65 121.23 155.58 123.13 155.49 124.07C155.44 124.66 155.22 125.23 154.86 125.7C153.66 127.26 151.28 128.91 151.28 128.91C151.28 128.91 142.83 135.1 126.71 133.27C117.86 132.26 113.44 128.53 112.05 127.14C111.7 126.79 111.5 126.33 111.46 125.84C111.29 123.51 111.55 118.42 111.55 118.42L155.39 117.96H155.4Z" fill="#FFC52F"/>
<path d="M118 110.96C116.4 111.56 114.89 112.38 113.69 113.57C112.19 115.07 111.26 117.23 111.64 119.29C112.09 121.75 114.24 123.57 116.47 124.77C121.4 127.42 127.21 128.01 132.82 127.8C138.62 127.58 144.46 126.54 149.65 124.01C152.79 122.48 157.08 119.26 154.69 115.38C153.9 114.09 152.62 113.18 151.28 112.44C145.21 109.08 137.9 108.85 130.94 109.05C127 109.16 123.01 109.4 119.24 110.54C118.82 110.67 118.4 110.81 117.99 110.96H118Z" fill="#FFDA40"/>
<path d="M120.591 112.2C119.261 112.7 118.001 113.38 117.001 114.37C115.751 115.62 114.971 117.41 115.291 119.13C115.671 121.17 117.451 122.69 119.311 123.69C123.411 125.89 128.261 126.38 132.931 126.21C137.761 126.03 142.621 125.16 146.951 123.06C149.571 121.79 153.141 119.11 151.151 115.88C150.491 114.81 149.421 114.05 148.311 113.44C143.261 110.65 137.161 110.46 131.361 110.62C128.081 110.71 124.751 110.91 121.611 111.86C121.261 111.97 120.911 112.08 120.571 112.21L120.591 112.2Z" fill="#FFEEA6"/>
<path d="M117.542 168.76C117.792 172.12 117.722 174.08 117.642 175.05C117.592 175.66 117.372 176.24 116.992 176.73C115.762 178.34 113.312 180.03 113.312 180.03C113.312 180.03 104.612 186.4 88.0316 184.51C78.9216 183.47 74.3816 179.64 72.9516 178.21C72.5916 177.85 72.3816 177.38 72.3416 176.87C72.1616 174.47 72.4416 169.23 72.4416 169.23L117.542 168.76Z" fill="#FFC52F"/>
<path d="M79.0709 161.55C77.4309 162.17 75.8709 163.01 74.6409 164.24C73.0909 165.78 72.1409 168 72.5309 170.13C73.0009 172.66 75.2009 174.53 77.5009 175.77C82.5709 178.5 88.5509 179.1 94.3309 178.88C100.291 178.65 106.301 177.58 111.651 174.98C114.881 173.41 119.291 170.09 116.841 166.1C116.031 164.78 114.711 163.83 113.341 163.08C107.101 159.62 99.5709 159.39 92.4109 159.59C88.3509 159.71 84.2509 159.95 80.3709 161.12C79.9409 161.25 79.5109 161.39 79.0809 161.55H79.0709Z" fill="#FFDA40"/>
<path d="M81.7314 162.83C80.3614 163.34 79.0614 164.05 78.0414 165.06C76.7514 166.34 75.9514 168.19 76.2814 169.96C76.6714 172.06 78.5114 173.62 80.4214 174.65C84.6414 176.92 89.6314 177.42 94.4314 177.24C99.4014 177.05 104.401 176.16 108.861 174C111.551 172.69 115.221 169.94 113.181 166.62C112.501 165.52 111.401 164.74 110.261 164.11C105.061 161.24 98.7914 161.04 92.8214 161.21C89.4414 161.31 86.0214 161.51 82.7914 162.48C82.4314 162.59 82.0714 162.71 81.7214 162.84L81.7314 162.83Z" fill="#FFEEA6"/>
<path d="M112.831 158.91C113.081 162.27 113.011 164.23 112.931 165.2C112.881 165.81 112.661 166.39 112.281 166.88C111.051 168.49 108.601 170.18 108.601 170.18C108.601 170.18 99.9007 176.55 83.3207 174.66C74.2107 173.62 69.6707 169.79 68.2407 168.36C67.8807 168 67.6707 167.53 67.6307 167.02C67.4507 164.62 67.7307 159.38 67.7307 159.38L112.831 158.91Z" fill="#FFC52F"/>
<path d="M74.3502 151.71C72.7102 152.33 71.1502 153.17 69.9202 154.4C68.3702 155.94 67.4202 158.16 67.8102 160.29C68.2802 162.82 70.4802 164.69 72.7802 165.93C77.8502 168.66 83.8302 169.26 89.6102 169.04C95.5702 168.81 101.58 167.74 106.93 165.14C110.16 163.57 114.57 160.25 112.12 156.26C111.31 154.94 109.99 153.99 108.62 153.24C102.38 149.78 94.8502 149.55 87.6902 149.75C83.6302 149.87 79.5302 150.11 75.6502 151.28C75.2202 151.41 74.7902 151.55 74.3602 151.71H74.3502Z" fill="#FFDA40"/>
<path d="M77.0107 152.99C75.6407 153.5 74.3407 154.21 73.3207 155.22C72.0307 156.5 71.2307 158.35 71.5607 160.12C71.9507 162.22 73.7907 163.78 75.7007 164.81C79.9207 167.08 84.9107 167.58 89.7107 167.4C94.6807 167.21 99.6807 166.32 104.141 164.16C106.831 162.85 110.501 160.1 108.461 156.78C107.781 155.68 106.681 154.9 105.541 154.27C100.341 151.4 94.0707 151.2 88.1007 151.37C84.7207 151.47 81.3007 151.67 78.0707 152.64C77.7107 152.75 77.3507 152.87 77.0007 153L77.0107 152.99Z" fill="#FFEEA6"/>
<path d="M109.34 149.57C109.59 152.93 109.52 154.89 109.44 155.86C109.39 156.47 109.17 157.05 108.79 157.54C107.56 159.15 105.11 160.84 105.11 160.84C105.11 160.84 96.4104 167.21 79.8304 165.32C70.7204 164.28 66.1804 160.45 64.7504 159.02C64.3904 158.66 64.1804 158.19 64.1404 157.68C63.9604 155.28 64.2404 150.04 64.2404 150.04L109.34 149.57Z" fill="#FFC52F"/>
<path d="M70.86 142.36C69.22 142.98 67.66 143.82 66.43 145.05C64.88 146.59 63.93 148.81 64.32 150.94C64.79 153.47 66.99 155.34 69.29 156.58C74.36 159.31 80.34 159.91 86.12 159.69C92.08 159.46 98.09 158.39 103.44 155.79C106.67 154.22 111.08 150.9 108.63 146.91C107.82 145.59 106.5 144.64 105.13 143.89C98.89 140.43 91.36 140.2 84.2 140.4C80.14 140.52 76.04 140.76 72.16 141.93C71.73 142.06 71.3 142.2 70.87 142.36H70.86Z" fill="#FFDA40"/>
<path d="M73.5205 143.64C72.1505 144.15 70.8505 144.86 69.8305 145.87C68.5405 147.15 67.7405 149 68.0705 150.77C68.4605 152.87 70.3005 154.43 72.2105 155.46C76.4305 157.73 81.4205 158.23 86.2205 158.05C91.1905 157.86 96.1905 156.97 100.651 154.81C103.34 153.5 107.011 150.75 104.971 147.43C104.291 146.33 103.19 145.55 102.05 144.92C96.8505 142.05 90.5805 141.85 84.6105 142.02C81.2305 142.12 77.8105 142.32 74.5805 143.29C74.2205 143.4 73.8605 143.52 73.5105 143.65L73.5205 143.64Z" fill="#FFEEA6"/>
<path d="M118.131 142.51C118.381 145.87 118.311 147.83 118.231 148.8C118.181 149.41 117.961 149.99 117.581 150.48C116.351 152.09 113.901 153.78 113.901 153.78C113.901 153.78 105.201 160.15 88.6214 158.26C79.5114 157.22 74.9714 153.39 73.5414 151.96C73.1814 151.6 72.9714 151.13 72.9314 150.62C72.7514 148.22 73.0314 142.98 73.0314 142.98L118.131 142.51Z" fill="#FFC52F"/>
<path d="M79.6608 135.31C78.0208 135.93 76.4608 136.77 75.2308 138C73.6808 139.54 72.7308 141.76 73.1208 143.89C73.5908 146.42 75.7908 148.29 78.0908 149.53C83.1608 152.26 89.1408 152.86 94.9208 152.64C100.881 152.41 106.891 151.34 112.241 148.74C115.471 147.17 119.881 143.85 117.431 139.86C116.621 138.54 115.301 137.59 113.931 136.84C107.691 133.38 100.161 133.15 93.0008 133.35C88.9408 133.47 84.8408 133.71 80.9608 134.88C80.5308 135.01 80.1008 135.15 79.6708 135.31H79.6608Z" fill="#FFDA40"/>
<path d="M82.3213 136.59C80.9513 137.1 79.6513 137.81 78.6313 138.82C77.3413 140.1 76.5413 141.95 76.8713 143.72C77.2613 145.82 79.1013 147.38 81.0113 148.41C85.2313 150.68 90.2213 151.18 95.0213 151C99.9913 150.81 104.991 149.92 109.451 147.76C112.141 146.45 115.811 143.7 113.771 140.38C113.091 139.28 111.991 138.5 110.851 137.87C105.651 135 99.3813 134.8 93.4113 134.97C90.0313 135.07 86.6113 135.27 83.3813 136.24C83.0213 136.35 82.6613 136.47 82.3113 136.6L82.3213 136.59Z" fill="#FFEEA6"/>
<path d="M115.921 132.71C116.171 136.07 116.101 138.03 116.021 139C115.971 139.61 115.751 140.19 115.371 140.68C114.141 142.29 111.691 143.98 111.691 143.98C111.691 143.98 102.991 150.35 86.4105 148.46C77.3005 147.42 72.7605 143.59 71.3305 142.16C70.9705 141.8 70.7605 141.33 70.7205 140.82C70.5405 138.42 70.8205 133.18 70.8205 133.18L115.921 132.71Z" fill="#FFC52F"/>
<path d="M77.4401 125.5C75.8001 126.12 74.2401 126.96 73.0101 128.19C71.4601 129.73 70.5101 131.95 70.9001 134.08C71.3701 136.61 73.5701 138.48 75.8701 139.72C80.9401 142.45 86.9201 143.05 92.7001 142.83C98.6601 142.6 104.67 141.53 110.02 138.93C113.25 137.36 117.66 134.04 115.21 130.05C114.4 128.73 113.08 127.78 111.71 127.03C105.47 123.57 97.9401 123.34 90.7801 123.54C86.7201 123.66 82.6201 123.9 78.7401 125.07C78.3101 125.2 77.8801 125.34 77.4501 125.5H77.4401Z" fill="#FFDA40"/>
<path d="M80.1006 126.78C78.7306 127.29 77.4306 128 76.4106 129.01C75.1206 130.29 74.3206 132.14 74.6506 133.91C75.0406 136.01 76.8806 137.57 78.7906 138.6C83.0106 140.87 88.0006 141.37 92.8006 141.19C97.7706 141 102.771 140.11 107.231 137.95C109.921 136.64 113.591 133.89 111.551 130.57C110.871 129.47 109.771 128.69 108.631 128.06C103.431 125.19 97.1606 124.99 91.1906 125.16C87.8106 125.26 84.3906 125.46 81.1606 126.43C80.8006 126.54 80.4406 126.66 80.0906 126.79L80.1006 126.78Z" fill="#FFEEA6"/>
<path d="M111.311 123.34C111.561 126.7 111.491 128.66 111.411 129.63C111.361 130.24 111.141 130.82 110.761 131.31C109.531 132.92 107.081 134.61 107.081 134.61C107.081 134.61 98.3811 140.98 81.8011 139.09C72.6911 138.05 68.1511 134.22 66.7211 132.79C66.3611 132.43 66.1511 131.96 66.1111 131.45C65.9311 129.05 66.2111 123.81 66.2111 123.81L111.311 123.34Z" fill="#FFC52F"/>
<path d="M72.8405 116.14C71.2005 116.76 69.6405 117.6 68.4105 118.83C66.8605 120.37 65.9105 122.59 66.3005 124.72C66.7705 127.25 68.9705 129.12 71.2705 130.36C76.3405 133.09 82.3205 133.69 88.1005 133.47C94.0605 133.24 100.07 132.17 105.42 129.57C108.65 128 113.06 124.68 110.61 120.69C109.8 119.37 108.48 118.42 107.11 117.67C100.87 114.21 93.3405 113.98 86.1805 114.18C82.1205 114.3 78.0205 114.54 74.1405 115.71C73.7105 115.84 73.2805 115.98 72.8505 116.14H72.8405Z" fill="#FFDA40"/>
<path d="M75.501 117.42C74.131 117.93 72.831 118.64 71.811 119.65C70.521 120.93 69.721 122.78 70.051 124.55C70.441 126.65 72.281 128.21 74.191 129.24C78.411 131.51 83.401 132.01 88.201 131.83C93.171 131.64 98.171 130.75 102.631 128.59C105.321 127.28 108.991 124.53 106.951 121.21C106.271 120.11 105.171 119.33 104.031 118.7C98.831 115.83 92.561 115.63 86.591 115.8C83.211 115.9 79.791 116.1 76.561 117.07C76.201 117.18 75.841 117.3 75.491 117.43L75.501 117.42Z" fill="#FFEEA6"/>
<path d="M74.2504 148.28C72.5704 151.35 70.4604 153.73 70.4604 153.73C68.5604 155.87 65.8504 157.34 63.0104 157.66C60.4104 157.96 57.7704 157.5 55.3204 156.63C54.1704 156.22 53.0604 155.73 52.0104 155.12C49.7004 153.79 47.6704 152 46.1004 149.84C43.3004 146.01 41.5404 140.71 43.7804 136.2C44.6004 134.55 45.5604 132.96 46.6504 131.48L74.2604 148.27L74.2504 148.28Z" fill="#FFC52F"/>
<path d="M74.2499 148.287C77.9465 142.21 74.7618 133.523 67.1366 128.885C59.5114 124.247 50.3333 125.414 46.6367 131.491C42.9401 137.569 46.1248 146.255 53.75 150.893C61.3751 155.531 70.5532 154.365 74.2499 148.287Z" fill="#FFDA40"/>
<path d="M70.7803 146.178C73.5499 141.624 71.1667 135.118 65.4573 131.645C59.7479 128.172 52.8742 129.048 50.1046 133.602C47.335 138.155 49.7183 144.661 55.4277 148.134C61.1371 151.607 68.0108 150.731 70.7803 146.178Z" fill="#FFEEA6"/>
<path d="M66.0715 134.32C64.3015 137.54 62.0915 140.04 62.0915 140.04C60.0915 142.29 57.2515 143.83 54.2715 144.17C51.5415 144.48 48.7715 144 46.2015 143.09C45.0015 142.66 43.8315 142.14 42.7215 141.51C40.3015 140.11 38.1715 138.23 36.5215 135.97C33.5915 131.95 31.7415 126.39 34.0915 121.65C34.9515 119.92 35.9515 118.24 37.1015 116.7L66.0715 134.32Z" fill="#FFC52F"/>
<path d="M66.0627 134.325C69.943 127.946 66.6012 118.828 58.5986 113.96C50.5959 109.093 40.9629 110.318 37.0826 116.698C33.2022 123.077 36.5441 132.195 44.5467 137.063C52.5494 141.93 62.1824 140.705 66.0627 134.325Z" fill="#FFDA40"/>
<path d="M62.4222 132.111C65.3296 127.331 62.8285 120.502 56.836 116.857C50.8434 113.212 43.6286 114.132 40.7213 118.912C37.8139 123.692 40.315 130.521 46.3075 134.166C52.3001 137.811 59.5149 136.891 62.4222 132.111Z" fill="#FFEEA6"/>
<path d="M68.3109 114.36C66.6309 117.43 64.5209 119.81 64.5209 119.81C62.6209 121.95 59.9109 123.42 57.0709 123.74C54.4709 124.04 51.8309 123.58 49.3809 122.71C48.2309 122.3 47.1209 121.81 46.0709 121.2C43.7609 119.87 41.7309 118.08 40.1609 115.92C37.3609 112.09 35.6009 106.79 37.8409 102.28C38.6609 100.63 39.6209 99.0401 40.7109 97.5601L68.3209 114.35L68.3109 114.36Z" fill="#FFC52F"/>
<path d="M68.3124 114.37C72.009 108.293 68.8243 99.6059 61.1991 94.9679C53.5739 90.3299 44.3958 91.4969 40.6992 97.5744C37.0026 103.652 40.1873 112.338 47.8125 116.976C55.4376 121.614 64.6157 120.448 68.3124 114.37Z" fill="#FFDA40"/>
<path d="M64.8428 112.261C67.6124 107.707 65.2292 101.201 59.5198 97.7279C53.8104 94.2551 46.9367 95.1311 44.1671 99.6845C41.3975 104.238 43.7808 110.744 49.4902 114.217C55.1996 117.69 62.0733 116.814 64.8428 112.261Z" fill="#FFEEA6"/>
<path d="M110.172 115.96C110.392 118.89 110.332 120.59 110.252 121.44C110.202 121.97 110.012 122.48 109.682 122.9C108.602 124.3 106.472 125.78 106.472 125.78C106.472 125.78 98.8916 131.33 84.4516 129.68C76.5216 128.78 72.5616 125.44 71.3116 124.19C71.0016 123.88 70.8116 123.47 70.7816 123.02C70.6216 120.93 70.8616 116.37 70.8616 116.37L110.142 115.96H110.172Z" fill="#FFC52F"/>
<path d="M76.661 109.69C75.231 110.23 73.871 110.96 72.801 112.03C71.451 113.37 70.621 115.31 70.961 117.16C71.371 119.36 73.291 121 75.291 122.07C79.701 124.44 84.921 124.97 89.941 124.78C95.131 124.58 100.371 123.65 105.031 121.38C107.841 120.01 111.691 117.12 109.551 113.64C108.841 112.49 107.691 111.67 106.501 111.01C101.061 108 94.511 107.79 88.271 107.97C84.741 108.07 81.161 108.28 77.791 109.3C77.411 109.41 77.041 109.54 76.671 109.68L76.661 109.69Z" fill="#FFDA40"/>
<path d="M78.9814 110.8C77.7914 111.25 76.6614 111.86 75.7714 112.75C74.6514 113.87 73.9514 115.47 74.2414 117.01C74.5814 118.84 76.1814 120.2 77.8414 121.09C81.5214 123.06 85.8614 123.5 90.0514 123.34C94.3814 123.18 98.7414 122.4 102.621 120.52C104.961 119.38 108.161 116.98 106.381 114.09C105.791 113.13 104.831 112.45 103.841 111.9C99.3114 109.4 93.8514 109.23 88.6514 109.38C85.7114 109.46 82.7314 109.64 79.9214 110.49C79.6114 110.58 79.2914 110.69 78.9914 110.8H78.9814Z" fill="#FFEEA6"/>
<path d="M113.601 107.95C113.821 110.88 113.761 112.58 113.681 113.43C113.631 113.96 113.441 114.47 113.111 114.89C112.031 116.29 109.901 117.77 109.901 117.77C109.901 117.77 102.321 123.32 87.8812 121.67C79.9512 120.77 75.9912 117.43 74.7412 116.18C74.4312 115.87 74.2412 115.46 74.2112 115.01C74.0512 112.92 74.2913 108.36 74.2913 108.36L113.571 107.95H113.601Z" fill="#FFC52F"/>
<path d="M80.0907 101.68C78.6607 102.22 77.3007 102.95 76.2307 104.02C74.8807 105.36 74.0507 107.3 74.3907 109.15C74.8007 111.35 76.7207 112.99 78.7207 114.06C83.1307 116.43 88.3507 116.96 93.3707 116.77C98.5607 116.57 103.801 115.64 108.461 113.37C111.271 112 115.121 109.11 112.981 105.63C112.271 104.48 111.121 103.66 109.931 103C104.491 99.9902 97.9407 99.7802 91.7007 99.9602C88.1707 100.06 84.5907 100.27 81.2207 101.29C80.8407 101.4 80.4707 101.53 80.1007 101.67L80.0907 101.68Z" fill="#FFDA40"/>
<path d="M82.4013 102.79C81.2113 103.24 80.0813 103.85 79.1913 104.74C78.0713 105.86 77.3713 107.46 77.6613 109C78.0013 110.83 79.6013 112.19 81.2613 113.08C84.9413 115.05 89.2813 115.49 93.4713 115.33C97.8013 115.17 102.161 114.39 106.041 112.51C108.381 111.37 111.581 108.97 109.801 106.08C109.211 105.12 108.251 104.44 107.261 103.89C102.731 101.39 97.2713 101.22 92.0713 101.37C89.1313 101.45 86.1513 101.63 83.3413 102.48C83.0313 102.57 82.7113 102.68 82.4113 102.79H82.4013Z" fill="#FFEEA6"/>
<path d="M109.002 99.2798C109.222 102.21 109.162 103.91 109.082 104.76C109.032 105.29 108.842 105.8 108.512 106.22C107.432 107.62 105.302 109.1 105.302 109.1C105.302 109.1 97.7216 114.65 83.2816 113C75.3516 112.1 71.3916 108.76 70.1416 107.51C69.8316 107.2 69.6416 106.79 69.6116 106.34C69.4516 104.25 69.6916 99.6898 69.6916 99.6898L108.972 99.2798H109.002Z" fill="#FFC52F"/>
<path d="M75.4911 93.0098C74.0611 93.5498 72.7011 94.2798 71.6311 95.3498C70.2811 96.6898 69.4511 98.6298 69.7911 100.48C70.2011 102.68 72.1211 104.32 74.1211 105.39C78.5311 107.76 83.7511 108.29 88.7711 108.1C93.9611 107.9 99.2011 106.97 103.861 104.7C106.671 103.33 110.521 100.44 108.381 96.9598C107.671 95.8098 106.521 94.9898 105.331 94.3298C99.8911 91.3198 93.3411 91.1098 87.1011 91.2898C83.5711 91.3898 79.9911 91.5998 76.6211 92.6198C76.2411 92.7298 75.8711 92.8598 75.5011 92.9998L75.4911 93.0098Z" fill="#FFDA40"/>
<path d="M77.8017 94.1199C76.6117 94.5699 75.4817 95.1799 74.5917 96.0699C73.4717 97.1899 72.7717 98.7899 73.0617 100.33C73.4017 102.16 75.0017 103.52 76.6617 104.41C80.3417 106.38 84.6817 106.82 88.8717 106.66C93.2017 106.5 97.5617 105.72 101.442 103.84C103.782 102.7 106.982 100.3 105.202 97.4099C104.612 96.4499 103.652 95.7699 102.662 95.2199C98.1317 92.7199 92.6717 92.5499 87.4717 92.6999C84.5317 92.7799 81.5517 92.9599 78.7417 93.8099C78.4317 93.8999 78.1117 94.0099 77.8117 94.1199H77.8017Z" fill="#FFEEA6"/>
<path d="M113.162 93.4697C113.382 96.3997 113.322 98.0997 113.242 98.9497C113.192 99.4797 113.002 99.9897 112.672 100.41C111.592 101.81 109.462 103.29 109.462 103.29C109.462 103.29 101.882 108.84 87.4418 107.19C79.5118 106.29 75.5518 102.95 74.3018 101.7C73.9918 101.39 73.8018 100.98 73.7718 100.53C73.6118 98.4397 73.8518 93.8797 73.8518 93.8797L113.132 93.4697H113.162Z" fill="#FFC52F"/>
<path d="M79.6512 87.19C78.2212 87.73 76.8612 88.46 75.7912 89.53C74.4412 90.87 73.6112 92.81 73.9512 94.66C74.3612 96.86 76.2812 98.5 78.2812 99.57C82.6912 101.94 87.9112 102.47 92.9312 102.28C98.1212 102.08 103.361 101.15 108.021 98.88C110.831 97.51 114.681 94.62 112.541 91.14C111.831 89.99 110.681 89.17 109.491 88.51C104.051 85.5 97.5012 85.29 91.2612 85.47C87.7312 85.57 84.1512 85.78 80.7812 86.8C80.4012 86.91 80.0312 87.04 79.6612 87.18L79.6512 87.19Z" fill="#FFDA40"/>
<path d="M81.9619 88.3098C80.7719 88.7598 79.6419 89.3698 78.7519 90.2598C77.6319 91.3798 76.9319 92.9798 77.2219 94.5198C77.5619 96.3498 79.1619 97.7098 80.8219 98.5998C84.5019 100.57 88.8419 101.01 93.0319 100.85C97.3619 100.69 101.722 99.9098 105.602 98.0298C107.942 96.8898 111.142 94.4898 109.362 91.5998C108.772 90.6398 107.812 89.9598 106.822 89.4098C102.292 86.9098 96.8319 86.7398 91.6319 86.8898C88.6919 86.9698 85.7119 87.1498 82.9019 87.9998C82.5919 88.0898 82.2719 88.1998 81.9719 88.3098H81.9619Z" fill="#FFEEA6"/>
<path d="M110.762 86.5298C110.962 89.1998 110.902 90.7598 110.842 91.5298C110.802 92.0198 110.622 92.4798 110.322 92.8598C109.342 94.1398 107.392 95.4798 107.392 95.4798C107.392 95.4798 100.482 100.54 87.3015 99.0398C80.0615 98.2198 76.4515 95.1698 75.3215 94.0298C75.0315 93.7398 74.8715 93.3698 74.8415 92.9598C74.7015 91.0498 74.9215 86.8898 74.9215 86.8898L110.762 86.5098V86.5298Z" fill="#FFC52F"/>
<path d="M80.1912 80.7998C78.8812 81.2898 77.6512 81.9598 76.6712 82.9398C75.4412 84.1698 74.6812 85.9298 74.9912 87.6198C75.3612 89.6298 77.1112 91.1198 78.9412 92.0998C82.9712 94.2698 87.7212 94.7498 92.3112 94.5698C97.0512 94.3898 101.821 93.5398 106.071 91.4698C108.641 90.2198 112.141 87.5898 110.191 84.4098C109.541 83.3598 108.491 82.6098 107.401 82.0098C102.441 79.2598 96.4612 79.0798 90.7712 79.2398C87.5512 79.3298 84.2912 79.5198 81.2012 80.4598C80.8612 80.5598 80.5112 80.6798 80.1812 80.7998H80.1912Z" fill="#FFDA40"/>
<path d="M82.3021 81.8199C81.2121 82.2299 80.1821 82.7899 79.3721 83.5999C78.3521 84.6199 77.7121 86.0799 77.9721 87.4899C78.2821 89.1599 79.7421 90.3999 81.2621 91.2199C84.6121 93.0199 88.5821 93.4199 92.4021 93.2799C96.3521 93.1299 100.332 92.4199 103.862 90.6999C106.002 89.6599 108.922 87.4699 107.292 84.8299C106.752 83.9599 105.882 83.3299 104.972 82.8299C100.842 80.5499 95.8621 80.3899 91.1121 80.5299C88.4221 80.6099 85.7121 80.7599 83.1421 81.5399C82.8521 81.6299 82.5721 81.7199 82.2921 81.8299L82.3021 81.8199Z" fill="#FFEEA6"/>
<path d="M115.88 78.4902C116.09 81.3002 116.03 82.9302 115.96 83.7402C115.92 84.2502 115.73 84.7302 115.42 85.1402C114.39 86.4802 112.35 87.8902 112.35 87.8902C112.35 87.8902 105.09 93.2102 91.2599 91.6302C83.6599 90.7602 79.8699 87.5602 78.6799 86.3702C78.3799 86.0702 78.2099 85.6802 78.1699 85.2502C78.0199 83.2502 78.2499 78.8802 78.2499 78.8802L115.88 78.4902Z" fill="#FFC52F"/>
<path d="M83.7805 72.4801C82.4105 72.9901 81.1105 73.7001 80.0805 74.7201C78.7905 76.0101 77.9905 77.8601 78.3205 79.6301C78.7105 81.7401 80.5505 83.3001 82.4705 84.3401C86.7005 86.6101 91.6905 87.1201 96.5105 86.9401C101.491 86.7501 106.5 85.8601 110.96 83.6901C113.66 82.3801 117.34 79.6101 115.291 76.2801C114.611 75.1801 113.51 74.3901 112.37 73.7601C107.16 70.8701 100.88 70.6801 94.9105 70.8501C91.5205 70.9501 88.1005 71.1501 84.8705 72.1301C84.5105 72.2401 84.1505 72.3601 83.8005 72.4901L83.7805 72.4801Z" fill="#FFDA40"/>
<path d="M86.0005 73.55C84.8605 73.98 83.7705 74.56 82.9205 75.41C81.8505 76.48 81.1805 78.02 81.4505 79.49C81.7805 81.24 83.3105 82.54 84.9005 83.4C88.4205 85.29 92.5805 85.71 96.5905 85.56C100.73 85.4 104.91 84.66 108.63 82.85C110.88 81.76 113.94 79.46 112.24 76.69C111.68 75.77 110.76 75.12 109.8 74.59C105.46 72.19 100.231 72.03 95.2505 72.17C92.4305 72.25 89.5805 72.42 86.8805 73.23C86.5805 73.32 86.2805 73.42 85.9905 73.53L86.0005 73.55Z" fill="#FFEEA6"/>
<path d="M156.502 110.36C156.722 113.29 156.662 114.99 156.582 115.84C156.532 116.37 156.342 116.88 156.012 117.3C154.932 118.7 152.802 120.18 152.802 120.18C152.802 120.18 145.222 125.73 130.782 124.08C122.852 123.18 118.892 119.84 117.642 118.59C117.332 118.28 117.142 117.87 117.112 117.42C116.952 115.33 117.192 110.77 117.192 110.77L156.472 110.36H156.502Z" fill="#FFC52F"/>
<path d="M122.991 104.08C121.561 104.62 120.201 105.35 119.131 106.42C117.781 107.76 116.951 109.7 117.291 111.55C117.701 113.75 119.621 115.39 121.621 116.46C126.031 118.83 131.251 119.36 136.271 119.17C141.461 118.97 146.701 118.04 151.361 115.77C154.171 114.4 158.021 111.51 155.881 108.03C155.171 106.88 154.021 106.06 152.831 105.4C147.391 102.39 140.841 102.18 134.601 102.36C131.071 102.46 127.491 102.67 124.121 103.69C123.741 103.8 123.371 103.93 123.001 104.07L122.991 104.08Z" fill="#FFDA40"/>
<path d="M125.311 105.2C124.121 105.65 122.991 106.26 122.101 107.15C120.981 108.27 120.281 109.87 120.571 111.41C120.911 113.24 122.511 114.6 124.171 115.49C127.851 117.46 132.191 117.9 136.381 117.74C140.711 117.58 145.071 116.8 148.951 114.92C151.291 113.78 154.491 111.38 152.711 108.49C152.121 107.53 151.161 106.85 150.171 106.3C145.641 103.8 140.181 103.63 134.981 103.78C132.041 103.86 129.061 104.04 126.251 104.89C125.941 104.98 125.621 105.09 125.321 105.2H125.311Z" fill="#FFEEA6"/>
<path d="M153.781 102.72C154.001 105.65 153.941 107.35 153.861 108.2C153.811 108.73 153.621 109.24 153.291 109.66C152.211 111.06 150.081 112.54 150.081 112.54C150.081 112.54 142.501 118.09 128.061 116.44C120.131 115.54 116.171 112.2 114.921 110.95C114.611 110.64 114.421 110.23 114.391 109.78C114.231 107.69 114.471 103.13 114.471 103.13L153.751 102.72H153.781Z" fill="#FFC52F"/>
<path d="M120.27 96.4502C118.84 96.9902 117.48 97.7202 116.41 98.7902C115.06 100.13 114.23 102.07 114.57 103.92C114.98 106.12 116.9 107.76 118.9 108.83C123.31 111.2 128.53 111.73 133.55 111.54C138.74 111.34 143.98 110.41 148.64 108.14C151.45 106.77 155.3 103.88 153.16 100.4C152.45 99.2502 151.3 98.4302 150.11 97.7702C144.67 94.7602 138.12 94.5502 131.88 94.7302C128.35 94.8302 124.77 95.0402 121.4 96.0602C121.02 96.1702 120.65 96.3002 120.28 96.4402L120.27 96.4502Z" fill="#FFDA40"/>
<path d="M122.591 97.5603C121.401 98.0103 120.271 98.6203 119.381 99.5103C118.261 100.63 117.561 102.23 117.851 103.77C118.191 105.6 119.791 106.96 121.451 107.85C125.131 109.82 129.471 110.26 133.661 110.1C137.991 109.94 142.351 109.16 146.231 107.28C148.571 106.14 151.771 103.74 149.991 100.85C149.401 99.8903 148.441 99.2103 147.451 98.6603C142.921 96.1603 137.461 95.9903 132.261 96.1403C129.321 96.2203 126.341 96.4003 123.531 97.2503C123.221 97.3403 122.901 97.4503 122.601 97.5603H122.591Z" fill="#FFEEA6"/>
<path d="M160.621 96.8599C160.841 99.7899 160.781 101.49 160.701 102.34C160.651 102.87 160.461 103.38 160.131 103.8C159.051 105.2 156.921 106.68 156.921 106.68C156.921 106.68 149.341 112.23 134.901 110.58C126.971 109.68 123.011 106.34 121.761 105.09C121.451 104.78 121.261 104.37 121.231 103.92C121.071 101.83 121.311 97.2699 121.311 97.2699L160.591 96.8599H160.621Z" fill="#FFC52F"/>
<path d="M127.11 90.5899C125.68 91.1299 124.32 91.8599 123.25 92.9299C121.9 94.2699 121.07 96.2099 121.41 98.0599C121.82 100.26 123.74 101.9 125.74 102.97C130.15 105.34 135.37 105.87 140.39 105.68C145.58 105.48 150.82 104.55 155.48 102.28C158.29 100.91 162.14 98.0199 160 94.5399C159.29 93.3899 158.14 92.5699 156.95 91.9099C151.51 88.8999 144.96 88.6899 138.72 88.8699C135.19 88.9699 131.61 89.1799 128.24 90.1999C127.86 90.3099 127.49 90.4399 127.12 90.5799L127.11 90.5899Z" fill="#FFDA40"/>
<path d="M129.421 91.6999C128.231 92.1499 127.101 92.7599 126.211 93.6499C125.091 94.7699 124.391 96.3699 124.681 97.9099C125.021 99.7399 126.621 101.1 128.281 101.99C131.961 103.96 136.301 104.4 140.491 104.24C144.821 104.08 149.181 103.3 153.061 101.42C155.401 100.28 158.601 97.8799 156.821 94.9899C156.231 94.0299 155.271 93.3499 154.281 92.7999C149.751 90.2999 144.291 90.1299 139.091 90.2799C136.151 90.3599 133.171 90.5399 130.361 91.3899C130.051 91.4799 129.731 91.5899 129.431 91.6999H129.421Z" fill="#FFEEA6"/>
<path d="M154.111 90.4702C154.331 93.4002 154.271 95.1002 154.191 95.9502C154.141 96.4802 153.951 96.9902 153.621 97.4102C152.541 98.8102 150.411 100.29 150.411 100.29C150.411 100.29 142.831 105.84 128.391 104.19C120.461 103.29 116.501 99.9502 115.251 98.7002C114.941 98.3902 114.751 97.9802 114.721 97.5302C114.561 95.4402 114.801 90.8802 114.801 90.8802L154.081 90.4702H154.111Z" fill="#FFC52F"/>
<path d="M120.6 84.2002C119.17 84.7402 117.81 85.4702 116.74 86.5402C115.39 87.8802 114.56 89.8202 114.9 91.6702C115.31 93.8702 117.23 95.5102 119.23 96.5802C123.64 98.9502 128.86 99.4802 133.88 99.2902C139.07 99.0902 144.31 98.1602 148.97 95.8902C151.78 94.5202 155.63 91.6302 153.49 88.1502C152.78 87.0002 151.63 86.1802 150.44 85.5202C145 82.5102 138.45 82.3002 132.21 82.4802C128.68 82.5802 125.1 82.7902 121.73 83.8102C121.35 83.9202 120.98 84.0502 120.61 84.1902L120.6 84.2002Z" fill="#FFDA40"/>
<path d="M122.921 85.3103C121.731 85.7603 120.601 86.3703 119.711 87.2603C118.591 88.3803 117.891 89.9803 118.181 91.5203C118.521 93.3503 120.121 94.7103 121.781 95.6003C125.461 97.5703 129.801 98.0103 133.991 97.8503C138.321 97.6903 142.681 96.9103 146.561 95.0303C148.901 93.8903 152.101 91.4903 150.321 88.6003C149.731 87.6403 148.771 86.9603 147.781 86.4103C143.251 83.9103 137.791 83.7403 132.591 83.8903C129.651 83.9703 126.671 84.1503 123.861 85.0003C123.551 85.0903 123.231 85.2003 122.931 85.3103H122.921Z" fill="#FFEEA6"/>
<path d="M137.181 84.3904C135.631 87.2304 133.681 89.4304 133.681 89.4304C131.921 91.4104 129.421 92.7704 126.791 93.0704C124.391 93.3404 121.951 92.9204 119.681 92.1204C118.621 91.7504 117.591 91.2904 116.621 90.7304C114.491 89.5004 112.611 87.8404 111.161 85.8504C108.581 82.3104 106.951 77.4104 109.021 73.2404C109.781 71.7204 110.661 70.2404 111.671 68.8804L137.181 84.4004V84.3904Z" fill="#FFC52F"/>
<path d="M137.179 84.3969C140.597 78.7772 137.658 70.7478 130.613 66.4628C123.568 62.1778 115.086 63.2599 111.668 68.8797C108.25 74.4994 111.189 82.5288 118.234 86.8138C125.279 91.0988 133.761 90.0167 137.179 84.3969Z" fill="#FFDA40"/>
<path d="M133.975 82.448C136.536 78.2391 134.334 72.2259 129.059 69.0172C123.784 65.8085 117.432 66.6193 114.872 70.8283C112.312 75.0372 114.513 81.0504 119.788 84.2591C125.063 87.4678 131.415 86.657 133.975 82.448Z" fill="#FFEEA6"/>
</g>
<defs>
<clipPath id="clip0_113_24992">
<rect width="224.93" height="208.1" fill="white" transform="translate(0.78125)"/>
</clipPath>
</defs>
</svg>
