<svg width="100%" height="100%" viewBox="0 0 70 70" fill="none" xmlns="http://www.w3.org/2000/svg">
<g clip-path="url(#clip0_45_28020)">
<path d="M30.4104 13.8151C30.4104 13.8151 30.2082 12.3765 31.3175 12.2783C32.4268 12.18 41.804 12.6654 41.804 12.6654C41.804 12.6654 44.3924 13.0929 44.427 13.6302L40.8391 18.3217L31.0749 17.8364L30.4104 13.8151V13.8151Z" fill="#757482"/>
<path d="M30.7167 12.55C30.7167 12.55 30.89 15.1904 33.126 15.5312C35.3619 15.8721 38.1352 15.7335 38.1352 15.7335C38.1352 15.7335 39.7934 15.6641 40.3712 14.9535C40.9489 14.2428 41.4632 13.5553 42.6591 12.8331C42.6591 12.8331 44.1324 12.9428 44.4329 13.6246L40.8449 18.3161L31.0807 17.8307C31.0807 17.8307 29.5958 13.6939 30.7225 12.5442L30.7167 12.55Z" fill="#59586B"/>
<path d="M22.9918 12.0008C22.9918 12.0008 16.6075 11.631 11.8178 23.5445L7.88901 35.9434C7.88901 35.9434 4.20286 49.2031 11.8178 52.8893C11.8178 52.8893 17.5897 54.975 22.9918 50.4338L26.1869 47.3658C26.1869 47.3658 28.6424 43.9281 31.8374 43.9281H38.1004C38.1004 43.9281 40.9257 43.9281 43.3812 47.1232C45.8367 50.3182 47.1887 52.2826 47.1887 52.2826C47.1887 52.2826 50.7477 57.8061 56.2769 57.0723C61.8061 56.3385 63.2737 49.0934 63.5221 45.1645C63.7705 41.2357 63.7821 29.692 61.1937 22.4526C61.1937 22.4526 57.7502 14.2252 51.4872 13.8554L46.1545 13.3816C46.1545 13.3816 43.4794 13.3816 41.8905 15.0687L40.5155 16.5305C40.3537 16.698 40.1688 16.8367 39.955 16.9291C39.3079 17.218 37.7711 17.7438 35.5987 17.4491C35.5987 17.4491 34.0676 17.4433 32.7618 17.0562C31.8259 16.7789 31.1036 16.022 30.8148 15.0918L30.4219 13.8265C30.4219 13.8265 30.0406 12.3937 28.4979 12.0008H22.9918Z" fill="#DFE7EA"/>
<path d="M23.315 18.697C22.7661 18.801 22.1941 19.0089 21.8821 19.4712C21.6337 19.8409 21.5874 20.3089 21.5874 20.7538C21.5874 21.1987 21.6105 21.6551 21.4777 22.0769C21.0906 23.3075 19.7212 22.984 18.7448 23.0186C18.1382 23.0418 17.5026 23.1862 17.0809 23.6195C16.6418 24.076 16.5378 24.7519 16.5031 25.3875C16.4626 26.0692 16.4858 26.751 16.5609 27.427C16.6186 27.9701 16.7631 28.571 17.2311 28.8483C17.8608 29.2181 18.7159 28.7848 19.3746 29.1025C20.0044 29.403 20.1488 30.2349 20.1084 30.9283C20.0679 31.6216 19.935 32.3727 20.2759 32.9793C20.6688 33.6727 21.5528 33.9211 22.3559 33.9615C22.9741 33.9962 23.5981 33.9442 24.2047 33.8113C24.5918 33.7304 24.9905 33.5975 25.2562 33.3029C25.9727 32.494 25.2158 31.0843 25.8167 30.1887C26.25 29.5416 27.1629 29.4838 27.9371 29.5416C28.7113 29.5994 29.5779 29.6918 30.1788 29.2007C30.8317 28.6634 30.8606 27.6985 30.8375 26.855L30.797 25.4279C30.7855 24.9715 30.7566 24.4688 30.4388 24.1395C29.6935 23.348 28.1393 24.2146 27.3478 23.4635C26.9664 23.1053 26.9375 22.5218 26.9375 21.996L26.926 20.2396C26.926 19.812 26.9029 19.3383 26.5967 19.0378C26.3944 18.8356 26.0998 18.7547 25.8167 18.7027C25.0078 18.5467 24.17 18.541 23.3612 18.6912L23.3092 18.7027L23.315 18.697Z" fill="#757482"/>
<path d="M40.8796 24.7696C40.8045 24.7985 40.7236 24.8331 40.6485 24.8736C39.6721 25.3705 39.0654 26.5144 39.1925 27.6006C39.4525 29.877 42.6938 31.073 44.1093 29.0682C44.5542 28.4326 44.6813 27.6064 44.5195 26.8438C44.3982 26.2718 44.1209 25.7229 43.6991 25.3127C42.9711 24.6078 41.8156 24.3998 40.8738 24.7696H40.8796Z" fill="#FFE36E"/>
<path d="M45.5823 20.7078C45.5071 20.7367 45.4263 20.7714 45.3511 20.8118C44.3747 21.3087 43.7681 22.4527 43.8952 23.5389C44.1552 25.8153 47.3964 27.0112 48.812 25.0064C49.2568 24.3709 49.384 23.5447 49.2222 22.782C49.1009 22.21 48.8235 21.6611 48.4018 21.2509C47.6738 20.546 46.5182 20.3381 45.5765 20.7078H45.5823Z" fill="#FF9D8A"/>
<path d="M49.8116 25.5089C49.7538 25.532 49.696 25.5551 49.6382 25.584C48.6502 26.0636 48.0205 27.1844 48.1245 28.2764C48.3556 30.7955 52.1342 31.8875 53.2839 29.4031C53.5324 28.86 53.5844 28.236 53.4746 27.6524C53.3648 27.0689 53.099 26.5084 52.6773 26.0925C51.9493 25.3587 50.7706 25.1334 49.8116 25.5031V25.5089Z" fill="#86D8FF"/>
<path d="M45.0217 29.6165C44.9466 29.6454 44.8657 29.6801 44.7906 29.7205C43.8142 30.2174 43.2075 31.3614 43.3346 32.4476C43.5946 34.724 46.8359 35.9199 48.2514 33.9151C48.6963 33.2795 48.8234 32.4533 48.6616 31.6907C48.5403 31.1187 48.263 30.5698 47.8412 30.1596C47.1132 29.4547 45.9577 29.2467 45.0159 29.6165H45.0217Z" fill="#9EF57A"/>
</g>
<defs>
<clipPath id="clip0_45_28020">
<rect width="56.6153" height="45.1293" fill="white" transform="translate(7 12)"/>
</clipPath>
</defs>
</svg>
