<svg width="74" height="54" viewBox="0 0 74 54" fill="none" xmlns="http://www.w3.org/2000/svg">
<g clip-path="url(#clip0_45_28581)">
<path d="M19.3279 37.1316L47.3669 12.5715C47.7794 12.2109 48.4113 12.2704 48.7495 12.7053L54.057 19.5515C54.3655 19.9492 54.3135 20.5178 53.9343 20.8523L26.163 45.3716C25.7579 45.7284 25.1372 45.68 24.7952 45.2601L19.2164 38.4547C18.8893 38.057 18.9377 37.4698 19.3242 37.1316H19.3279Z" fill="#8D8DFF"/>
<path fill-rule="evenodd" clip-rule="evenodd" d="M25.3405 36.4723L23.1997 33.7219L23.493 33.4937L25.6338 36.244L25.3405 36.4723Z" fill="#E7DBFF"/>
<path fill-rule="evenodd" clip-rule="evenodd" d="M21.107 37.9774L19.9399 36.4721L20.2337 36.2444L21.4007 37.7497L21.107 37.9774Z" fill="#E7DBFF"/>
<path fill-rule="evenodd" clip-rule="evenodd" d="M22.7386 36.6321L21.5679 35.1269L21.8613 34.8987L23.032 36.404L22.7386 36.6321Z" fill="#E7DBFF"/>
<path fill-rule="evenodd" clip-rule="evenodd" d="M25.7757 33.9227L24.605 32.4212L24.8981 32.1926L26.0689 33.6942L25.7757 33.9227Z" fill="#E7DBFF"/>
<path fill-rule="evenodd" clip-rule="evenodd" d="M27.4029 32.5771L26.2358 31.0755L26.5293 30.8474L27.6964 32.349L27.4029 32.5771Z" fill="#E7DBFF"/>
<path fill-rule="evenodd" clip-rule="evenodd" d="M41.0474 20.6129L39.8804 19.1114L40.1738 18.8833L41.3409 20.3849L41.0474 20.6129Z" fill="#E7DBFF"/>
<path fill-rule="evenodd" clip-rule="evenodd" d="M42.6793 19.2675L41.5122 17.7659L41.8057 17.5378L42.9727 19.0394L42.6793 19.2675Z" fill="#E7DBFF"/>
<path fill-rule="evenodd" clip-rule="evenodd" d="M46.2466 16.16L45.0796 14.6547L45.3733 14.427L46.5404 15.9323L46.2466 16.16Z" fill="#E7DBFF"/>
<path fill-rule="evenodd" clip-rule="evenodd" d="M47.8785 14.8112L46.7114 13.3096L47.0049 13.0815L48.1719 14.5831L47.8785 14.8112Z" fill="#E7DBFF"/>
<path fill-rule="evenodd" clip-rule="evenodd" d="M30.2614 32.2279L28.1206 29.4776L28.4139 29.2493L30.5547 31.9996L30.2614 32.2279Z" fill="#E7DBFF"/>
<path fill-rule="evenodd" clip-rule="evenodd" d="M40.4008 23.3667L38.2637 20.6126L38.5573 20.3848L40.6944 23.1389L40.4008 23.3667Z" fill="#E7DBFF"/>
<path fill-rule="evenodd" clip-rule="evenodd" d="M45.4553 18.7843L43.3145 16.034L43.6077 15.8057L45.7486 18.556L45.4553 18.7843Z" fill="#E7DBFF"/>
<path d="M24.0592 21.8744C24.0592 21.8744 19.9151 18.7077 20.6473 15.4593C20.6473 15.4593 21.2977 12.2927 25.4419 11.1516C25.4419 11.1516 27.3931 10.5012 28.9356 11.8838L32.184 15.5411C32.184 15.5411 27.1478 18.5479 24.0592 21.8781V21.8744Z" fill="#FF8B85"/>
<path d="M34.6074 18.3806L50.6674 36.9567C50.6674 36.9567 49.1918 37.6072 48.1288 38.3134L32.1841 19.555C32.1841 19.555 33.6002 18.217 34.6111 18.3806H34.6074Z" fill="#FFEDA1"/>
<path d="M28.1997 22.6921L43.9995 41.9225L42.3456 44.0373L26.3711 24.9742C26.3711 24.9742 26.687 23.3017 28.1997 22.6921Z" fill="#FFDC48"/>
<path d="M32.1845 19.555L48.133 38.3133L44 41.9222C44 41.9222 33.2958 29.7946 28.2002 22.6919C28.2002 22.6919 30.6941 19.7966 32.1808 19.5513L32.1845 19.555Z" fill="#FCE170"/>
<path d="M24.0596 21.8744C24.0596 21.8744 24.5093 23.4428 26.3714 24.9704C26.3714 24.9704 27.6611 22.8779 29.1961 21.8744C29.1961 21.8744 32.9314 18.5702 34.6114 18.3769C34.6114 18.3769 34.708 17.6596 34.2285 17.2768L32.188 15.5374C32.188 15.5374 27.2151 18.3286 24.0633 21.8744H24.0596Z" fill="#FFF6E2"/>
<path d="M44 41.9227L49.6977 45.5279C49.6977 45.5279 50.0397 44.7474 50.8685 44.6024L48.133 38.3137L44 41.9227Z" fill="#FFF6E2"/>
<path d="M48.1284 38.3134C48.1284 38.3134 49.8864 37.098 50.6669 36.9568L51.362 44.6281C51.362 44.6281 51.3954 44.5984 50.8676 44.5984L48.1321 38.3097L48.1284 38.3134Z" fill="#FCF7EE"/>
<path d="M43.9996 41.9224L42.3457 44.0372L49.4521 46.0256L49.6974 45.5276L43.9996 41.9224Z" fill="#FFEDD2"/>
<path d="M49.4517 46.0258C49.4517 46.0258 49.6747 44.3087 51.3621 44.6283L52.8562 46.3343C52.8562 46.3343 53.0494 47.7541 51.4513 47.9956L49.4517 46.0221V46.0258Z" fill="#706E7D"/>
</g>
<defs>
<clipPath id="clip0_45_28581">
<rect width="35.2569" height="37" fill="white" transform="translate(19 11)"/>
</clipPath>
</defs>
</svg>
