<svg width="74" height="54" viewBox="0 0 74 54" fill="none" xmlns="http://www.w3.org/2000/svg">
<g clip-path="url(#clip0_45_28582)">
<path d="M26.7901 31.1106C26.7901 31.1106 34.2741 34.142 43.7302 32.0736L44.4659 15.4724L37.5519 13.5581L28.0419 14.7098L26.4742 20.2448L26.2046 28.4491L26.7862 31.1106H26.7901Z" fill="#FFE05C"/>
<path d="M41.434 38.9027L40.7368 43.0279L41.6073 46.8181C41.6073 46.8181 42.3815 47.08 43.6102 45.6433L46.1216 44.0525L45.9136 31.8501L42.2737 33.1674C42.2737 33.1674 40.9101 36.8882 41.4301 38.8988L41.434 38.9027Z" fill="#7373F9"/>
<path d="M32.9761 13.1342C33.2187 11.6436 34.0969 9.89874 35.2871 8.9512C36.747 7.79182 38.9232 7.70708 40.5487 8.6161C42.1741 9.52512 43.2218 11.3277 43.3682 13.1882L41.1842 12.8299C40.9338 12.1674 40.6334 11.5088 40.1827 10.9657C39.7321 10.4226 39.1042 9.99118 38.3994 9.89874C37.5982 9.79089 36.7739 10.1414 36.2039 10.7192C35.6338 11.2969 35.2948 12.0711 35.1369 12.8646C34.5283 12.9532 33.5538 13.2806 32.9761 13.1381V13.1342Z" fill="#AED5FF"/>
<path d="M48.2437 32.4431V41.5949C48.2437 41.5949 50.3506 41.8415 51.0131 40.6628C51.0131 40.6628 51.9529 38.8987 52.0338 36.7879C52.1147 34.681 52.1416 32.1504 52.1416 32.1504L48.2437 32.4393V32.4431Z" fill="#FFE05C"/>
<path d="M48.5718 32.655C48.5718 32.655 49.5809 33.3137 50.5631 33.0402C51.6455 32.7359 52.1424 32.1543 52.1424 32.1543C52.1424 32.1543 52.2387 32.2082 51.8727 31.7653C51.5068 31.3223 50.4476 30.8601 50.4476 30.8601C50.4476 30.8601 48.6796 31.2954 48.5718 32.655Z" fill="#FFE783"/>
<path d="M23.188 38.1206C23.188 38.1206 22.8953 42.6965 23.6233 43.3783C24.3513 44.06 31.5695 45.2965 31.5695 45.2965C31.5695 45.2965 39.5157 47.1838 41.6034 46.8218C41.6034 46.8218 41.0603 41.2367 41.43 38.9025L23.1842 38.1206H23.188Z" fill="#8D8DFF"/>
<path d="M25.6957 31.022C25.6957 31.022 22.6259 31.4611 22.2369 33.0827C22.2369 33.0827 21.2816 36.8998 23.1882 38.1208C23.1882 38.1208 30.8764 39.9311 34.7474 40.1276C38.6223 40.324 40.4673 40.817 41.1568 39.4997C41.1568 39.4997 41.5689 38.9489 41.7076 37.5546C41.8462 36.1602 41.9233 34.6465 42.4163 34.0764L44.0148 33.1828L44.893 32.7938C44.893 32.7938 45.2127 32.1043 43.7259 32.0774L26.7858 31.1144C26.7858 31.1144 26.547 31.0566 25.6919 31.0258L25.6957 31.022Z" fill="#ABABFF"/>
<path d="M35.8956 35.5206C35.8301 35.536 35.7685 35.5552 35.7145 35.5899C35.599 35.6669 35.5296 35.7979 35.4719 35.925C35.0674 36.834 34.9288 37.8394 34.9057 38.8331C34.8826 39.8269 34.9711 40.8206 34.9981 41.8144C35.0097 42.2535 35.0135 42.7003 35.1291 43.124C35.391 44.0792 36.092 44.3411 37.0164 44.2449C37.2552 44.2217 37.5018 44.164 37.6866 44.0099C37.9332 43.8019 38.014 43.4591 38.0641 43.1355C38.4031 40.9439 37.9447 38.6444 38.6111 36.5297C38.6843 36.3025 38.7574 36.0252 38.5957 35.848C38.5186 35.7632 38.3992 35.7286 38.2875 35.6978C37.5672 35.5052 36.8123 35.4358 36.0689 35.4936C36.0111 35.4975 35.9495 35.5052 35.8917 35.5167L35.8956 35.5206Z" fill="#FFE05C"/>
<path d="M36.462 41.0366C36.462 41.0366 35.4374 41.0366 35.4528 41.9687C35.4682 42.9008 35.7532 43.3399 36.3272 43.4593C36.9011 43.5787 37.6368 43.2629 37.6214 42.5542C37.606 41.8454 37.4095 41.0481 36.462 41.0327V41.0366Z" fill="#AED5FF"/>
<path d="M24.1668 34.4345C24.1668 34.4345 24.1359 34.4499 24.1244 34.4576C23.9973 34.5347 23.9048 34.6618 23.8278 34.7889C23.4888 35.359 23.3925 36.0369 23.354 36.6994C23.2963 37.697 23.3579 38.6946 23.3309 39.6922C23.3194 40.1274 23.2924 40.5704 23.381 40.998C23.5659 41.8723 24.1128 42.1612 24.9602 42.1304C25.2992 42.1188 25.6728 42.0418 25.8731 41.7683C26.0272 41.5526 26.0387 41.2714 26.0426 41.0057C26.058 39.5189 25.9771 38.0321 26.0888 36.5492C26.108 36.2795 26.1389 36.0022 26.2506 35.7557C26.3931 35.4437 26.6704 35.1124 26.5086 34.812C26.4239 34.6502 26.2352 34.5732 26.058 34.5193C25.5919 34.3768 25.1027 34.3151 24.6136 34.3382C24.4556 34.3459 24.2977 34.3613 24.159 34.4345H24.1668Z" fill="#FFE05C"/>
<path d="M24.3554 39.3958C24.3554 39.3958 23.6929 39.546 23.7237 40.2701C23.7545 40.9942 24.0241 41.5489 24.5826 41.5643C25.1412 41.5797 25.561 41.2061 25.561 40.6553C25.561 40.1045 25.3068 39.1723 24.3554 39.3958Z" fill="#AED5FF"/>
<path d="M49.0304 31.7419C49.327 31.3028 50.1897 30.8791 50.702 31.0216C50.8792 27.0081 50.7444 23.0831 50.2206 19.1004C50.0703 17.9564 49.8431 16.7777 49.1575 15.8456C48.3255 14.7132 46.9504 14.1316 45.61 13.7117C41.115 12.2981 36.2887 12.1364 31.6281 12.822C30.095 13.0492 28.4657 13.4229 27.4142 14.5668C26.5476 15.5105 26.224 16.8201 25.9929 18.0796C25.1956 22.4283 25.1994 26.6306 25.6963 31.0216C25.7156 31.0216 26.0314 31.0601 26.0507 31.0601C26.4628 31.0794 26.3781 31.0871 26.7902 31.1102C26.3473 26.723 26.4012 21.8775 27.3564 17.5751C27.5221 16.824 28.0806 16.1615 28.589 15.7609C29.2477 15.2409 30.1413 14.8403 30.9463 14.6015C34.047 13.6694 37.2016 13.9005 40.3369 14.7093C41.5733 15.029 42.8983 15.5875 43.426 16.7469C43.6918 17.3247 43.7188 17.9834 43.738 18.6189C43.8882 23.1871 43.8767 27.5049 43.7303 32.0693C44.4313 32.1078 44.5508 32.3274 44.7588 32.6663C44.9667 33.0053 44.986 33.4213 45.0014 33.818L45.09 36.3679C45.1401 37.8739 45.194 39.3838 45.1516 40.8898C45.1016 42.6771 44.8127 44.6684 43.4106 45.7778C43.3644 45.8163 43.3259 45.8471 43.2874 45.8856C42.8483 46.2246 42.1819 46.6752 41.6119 46.8216C41.6119 46.8216 43.1564 46.9988 44.7588 46.7561L45.3018 46.6829C46.2995 46.448 46.7501 45.9703 47.532 45.3117C48.8147 44.2255 49.7083 42.7426 50.3515 41.1903C50.0049 41.6602 49.2114 41.5292 48.8339 41.0863C48.4565 40.6433 48.3833 40.0194 48.3448 39.4377C48.2061 37.3732 48.2831 35.2971 48.5682 33.2479C48.6413 32.7241 48.7376 32.181 49.0342 31.738L49.0304 31.7419Z" fill="#8D8DFF"/>
</g>
<defs>
<clipPath id="clip0_45_28582">
<rect width="30.1555" height="38.8875" fill="white" transform="translate(22 8)"/>
</clipPath>
</defs>
</svg>
