<svg width="100%" height="100%" viewBox="0 0 74 54" fill="none" xmlns="http://www.w3.org/2000/svg">
<g clip-path="url(#clip0_45_28583)">
<path d="M52.5121 29.3176C52.5121 29.3176 51.6878 31.49 52.2155 31.4708C52.747 31.4515 53.6406 29.6373 53.6406 29.6373" fill="#D4D3DD"/>
<path d="M52.8389 29.6333L52.2149 31.4706L49.8037 29.0941L50.1311 27.9077L52.8389 29.6333Z" fill="#67CFFD"/>
<path d="M26.2544 40.3759C26.2544 40.3759 25.6613 42.194 28.2805 44.5859C30.8997 46.9779 33.8655 46.0226 33.8655 46.0226L34.6012 45.1175L27.2713 39.7173L26.2544 40.3759Z" fill="#D4D3DD"/>
<path d="M28.6849 33.4353C28.6849 33.4353 26.4625 35.496 26.0426 37.2678C25.6228 39.0358 25.7383 40.7768 28.8274 43.6502C31.9166 46.5198 35.0442 46.2656 36.7891 45.5607C36.7891 45.5607 38.9807 44.4052 39.8974 42.4369L28.6849 33.4392V33.4353Z" fill="#94DEFF"/>
<path d="M46.6261 27.569C46.6261 27.569 42.3237 27.2801 40.6135 30.192C38.9033 33.104 40.7522 37.0366 41.6766 38.1382C42.601 39.2398 45.59 44.1085 49.6921 41.6703C49.6921 41.6703 51.6604 40.6573 52.4808 38.3385L46.6223 27.5728L46.6261 27.569Z" fill="#94DEFF"/>
<path d="M45.7326 27.6C45.6902 27.6077 45.644 27.6154 45.6017 27.6231C44.2843 27.8773 43.5795 29.2717 43.4601 30.5119C43.3638 31.5404 43.6026 32.5726 43.9184 33.5587C44.3691 34.9646 44.9931 36.3358 45.9329 37.4759C46.8727 38.6161 48.1477 39.5174 49.5959 39.8178C50.3971 39.9873 51.3292 39.9295 51.8993 39.3402C52.2074 39.0244 52.3654 38.593 52.4848 38.1693C53.4439 34.7527 52.0919 30.8124 49.2377 28.6978C48.2555 27.9698 46.9729 27.4151 45.7288 27.6038L45.7326 27.6Z" fill="#5CD1FF"/>
<path d="M46.5145 29.5566C45.9175 30.1343 45.5285 30.9432 45.5092 31.7867C45.4861 32.8421 45.9021 33.8551 46.4221 34.7757C46.8805 35.5846 47.4351 36.3549 48.1824 36.9096C48.9296 37.4643 49.8887 37.7724 50.8016 37.5914C52.323 37.2871 53.3168 35.6385 53.2551 34.0863C53.1897 32.534 52.2845 31.1281 51.1636 30.0496C50.6051 29.5142 49.9734 29.0289 49.23 28.8132C48.217 28.5166 47.2233 28.8748 46.5184 29.5604L46.5145 29.5566Z" fill="#D4D3DD"/>
<path d="M33.9235 32.576C33.9235 32.576 33.9658 28.3429 38.1912 22.5152C38.1912 22.5152 44.0922 15.2893 48.6103 15.7707L49.4307 13.6368C49.4307 13.6368 40.4214 13.009 35.364 19.5031C35.364 19.5031 30.1911 27.9886 31.6856 32.2024L33.9273 32.576H33.9235Z" fill="#C5F0FF"/>
<path d="M50.7016 13.6254C52.1113 14.754 53.81 15.794 55.0464 17.1074C56.0979 18.2283 56.1287 20.108 56.0209 21.5331C55.7089 25.5698 53.6906 30.6041 53.6906 30.6041L49.6616 27.5457L51.1176 20.2929L50.7055 13.6216L50.7016 13.6254Z" fill="#5CD1FF"/>
<path d="M31.6818 32.2103H31.7126C31.832 29.0326 32.6332 25.8703 34.17 23.0932C35.7069 20.3161 37.991 17.9318 40.7758 16.4065C42.8904 15.2471 45.4442 14.5885 47.7206 15.3858C48.3022 15.5861 48.8607 15.8865 49.2767 16.341C49.8853 17.0035 50.1318 17.9241 50.2396 18.8177C50.463 20.6666 50.178 22.5694 49.423 24.2718C49.0379 25.1385 48.5294 25.9782 48.4408 26.918C48.3523 27.8617 48.8722 28.9556 49.8044 29.0981C49.3691 26.814 50.7981 24.7225 51.5069 22.6541C52.2657 20.4509 52.5045 17.9588 51.8766 15.6939C51.1872 13.1903 49.2959 11.9885 46.7499 12.0001C44.1269 12.0116 41.9352 13.0516 39.7551 14.392C37.6674 15.6747 35.8224 17.4195 34.3395 19.357C33.7117 20.1774 33.1416 21.044 32.6447 21.9531C30.8845 25.15 29.9793 28.8092 30.0486 32.4607L31.6856 32.2103H31.6818Z" fill="#94DEFF"/>
<path d="M47.6975 28.8477C47.6975 28.8477 46.3571 29.2714 46.7038 31.9677C47.0543 34.66 49.6234 37.8146 52.0192 36.9904C52.0192 36.9904 55.066 34.9836 51.9113 30.866C51.9113 30.866 49.8391 27.958 47.6975 28.8477Z" fill="#D9F1FC"/>
<path d="M29.9748 32.4569C29.9748 32.4569 25.9805 33.7434 29.9555 39.186C31.8583 41.7936 35.14 43.9545 38.5026 43.1726C41.1835 42.5486 40.7906 39.4441 39.6928 37.626C38.9687 36.4204 37.9942 35.3727 36.985 34.4021C36.985 34.4021 33.869 31.3168 29.9748 32.4569Z" fill="#706E7D"/>
<path d="M32.6253 36.0044C32.5021 36.1392 32.3981 36.3125 32.348 36.5513C32.2478 37.0251 32.3557 37.5258 32.5868 37.9534C32.8179 38.3809 33.1607 38.7353 33.542 39.0357C34.166 39.5288 34.9595 39.8947 35.7414 39.7483C35.9032 39.7175 36.065 39.6636 36.1998 39.5673C36.2845 39.5057 36.3577 39.4248 36.4155 39.34C35.8878 37.5798 34.1352 36.0776 32.6253 36.0082V36.0044Z" fill="#474752"/>
<path d="M36.4883 38.0303C36.342 37.6759 36.0993 37.3678 35.8451 37.0789C35.4753 36.6591 35.067 36.2623 34.5778 35.9889C33.977 35.6537 33.1565 35.5074 32.6828 35.9272C32.6597 35.9465 32.6443 35.9773 32.625 36.0004C34.1349 36.0697 35.8875 37.5719 36.4151 39.3322C36.4575 39.2744 36.496 39.2128 36.523 39.1512C36.6771 38.7968 36.6347 38.3847 36.4883 38.0303Z" fill="#595864"/>
<path d="M32.2631 29.3252L39.0807 27.6997C39.0807 27.6997 39.6469 27.4686 39.8857 26.6482C39.8549 26.4787 39.8164 26.2977 39.7586 26.1051L28.3689 14.7192C28.3689 14.7192 26.9861 13.1323 24.8446 13.8218C24.8446 13.8218 18.3543 15.5281 18.3351 15.532C18.104 15.5936 17.896 15.6475 17.6995 15.7977C17.4723 15.9711 17.3529 16.2253 17.272 16.4949L29.1277 28.6665C29.1277 28.6665 30.0637 29.9338 32.2631 29.329V29.3252Z" fill="#E8F2F7"/>
<path d="M39.0807 27.6999L32.2631 29.3253C30.0599 29.93 29.1277 28.6628 29.1277 28.6628L17.272 16.4912C17.2103 16.6877 17.168 16.8918 17.1256 17.0844C17.0486 17.4542 16.8598 18.1398 17.168 18.4479L28.8042 30.0841C28.8042 30.0841 29.5283 31.2782 31.5389 30.9662L39.4043 28.7784C39.4043 28.7784 40.1399 28.139 39.8857 26.6483C39.6469 27.4649 39.0807 27.6999 39.0807 27.6999Z" fill="#C4C3D1"/>
<path d="M19.1245 16.9149L22.3947 20.1658L30.0366 18.1591L26.8088 14.8889L19.1245 16.9149Z" fill="#BCE8FF"/>
<path d="M23.519 21.0285L24.8633 22.4922L28.3915 21.5678L27.0087 20.0232L23.519 21.0285Z" fill="#CFCFE2"/>
<path d="M28.3921 20.4663L29.7364 21.8491L33.1259 20.9863L31.7431 19.5842L28.3921 20.4663Z" fill="#86D8FF"/>
<path d="M26.1426 23.9328L29.3049 27.2338L36.9622 25.0845L33.7999 21.8413L26.1426 23.9328Z" fill="#CCCCDB"/>
<path d="M35.4639 29.0363C35.2713 29.0671 35.0864 29.1288 34.917 29.2174C34.8476 29.252 34.7783 29.2944 34.7244 29.356C34.6897 29.3945 34.6628 29.4485 34.6859 29.4947C34.7051 29.5371 34.759 29.5486 34.8053 29.5563C35.0056 29.5833 35.2059 29.5371 35.4023 29.487C35.5564 29.4485 35.7143 29.41 35.8491 29.3252C35.9223 29.279 35.9993 29.1943 35.9608 29.1134C35.8953 28.9631 35.5949 29.0171 35.4639 29.0363Z" fill="#686867"/>
</g>
<defs>
<clipPath id="clip0_45_28583">
<rect width="39.0608" height="34.2076" fill="white" transform="translate(17 12)"/>
</clipPath>
</defs>
</svg>
