<svg width="74" height="54" viewBox="0 0 74 54" fill="none" xmlns="http://www.w3.org/2000/svg">
<g clip-path="url(#clip0_45_28584)">
<path d="M55.227 34.4496C55.227 34.4496 55.8048 36.2637 55.5891 37.8584C55.3734 39.453 53.5053 41.8296 51.1711 42.9543C48.8369 44.0828 46.2216 45.404 40.7597 45.9895C40.7597 45.9895 30.7798 46.6135 25.8765 44.0058C25.8765 44.0058 20.9424 41.6793 20.0256 37.8314C20.0256 37.8314 19.6867 34.8078 20.1605 33.7139L55.227 34.4457V34.4496Z" fill="#FFBE92"/>
<path d="M55.2277 31.9578V34.4499C55.2277 34.4499 54.7617 36.7109 50.6364 39.0412C46.5112 41.3715 38.6613 41.7374 38.6613 41.7374C38.6613 41.7374 31.4738 41.903 27.3332 40.1389C27.3332 40.1389 20.3384 37.6776 20.165 33.718V32.4161L55.2316 31.9578H55.2277Z" fill="#B76C4F"/>
<path d="M20.9233 32.5314C20.9233 32.5314 22.3177 35.5358 27.4791 36.6721C27.4791 36.6721 30.9457 37.5156 33.7382 37.5464C33.7382 37.5464 26.3466 31.8766 20.9233 32.5314Z" fill="#CC816D"/>
<path d="M43.8301 37.2381C43.8301 37.2381 52.901 35.1659 54.5804 32.4812L47.782 33.552L43.8339 37.2381H43.8301Z" fill="#CC816D"/>
<path d="M17.0406 31.1331C17.0406 31.1331 17.0139 32.2809 17.9614 32.4158C18.9089 32.5467 20.0683 32.4158 20.0683 32.4158C20.0683 32.4158 21.2084 32.4889 22.1367 32.878C23.065 33.2709 32.421 36.8723 32.421 36.8723C32.421 36.8723 34.6396 37.9161 35.4947 38.6749C36.3498 39.4337 37.1086 39.9075 37.1086 39.9075C37.1086 39.9075 38.3411 41.0091 40.0475 40.231C40.0475 40.231 40.8063 39.6224 41.6228 38.829C42.4394 38.0316 44.3152 36.9493 44.3152 36.9493L49.2108 34.1991L17.0406 31.1331Z" fill="#FFC761"/>
<path d="M19.4706 29.2893C19.4706 29.2893 17.0405 30.748 17.0405 31.1332C17.4641 31.6617 19.5339 31.4418 21.3646 31.5228L19.4706 29.2893Z" fill="#FFD78D"/>
<path d="M24.4634 32.8782L30.4914 35.5243L28.0802 32.8782H24.4634Z" fill="#FFD78D"/>
<path d="M33.7378 36.5221L37.0696 38.7985C37.0696 38.7985 37.8862 39.696 38.9454 39.5958C40.0046 39.4957 40.5978 38.5366 40.5978 38.5366C40.5978 38.5366 41.9267 37.2385 43.2209 36.6723C44.5151 36.1061 47.7814 34.238 47.7814 34.238L41.9844 31.9578L33.7378 36.5221Z" fill="#FFD78D"/>
<path d="M28.0801 32.8784C28.0801 32.8784 24.783 33.3637 22.3641 32.3314C19.9451 31.2991 18.9552 29.8971 18.9552 29.8971C18.9552 29.8971 18.701 29.0651 18.9706 28.2485L28.0762 32.8784H28.0801Z" fill="#FF8D73"/>
<path d="M28.08 32.8782C28.08 32.8782 27.922 33.3789 28.08 33.6485C28.2379 33.9182 30.3525 36.4411 35.0093 36.6414C39.6661 36.8455 42.9016 36.0212 44.4847 34.5922C44.4847 34.5922 44.9623 34.2456 44.9584 33.3712L28.08 32.8782Z" fill="#FF8D73"/>
<path d="M44.9619 33.3751C44.9619 33.3751 45.116 34.1455 45.4973 34.2803C45.8786 34.4151 50.0886 34.0762 50.0886 34.0762C50.0886 34.0762 54.7955 33.2211 55.6275 31.3992C55.6275 31.3992 56.1821 29.6274 55.589 27.2739L44.9619 33.3751Z" fill="#FF8D73"/>
<path d="M19.7597 26.3071C19.7597 26.3071 18.296 27.6167 19.3206 29.1112C20.3451 30.6057 24.0274 31.2952 24.0274 31.2952L19.7597 26.3071Z" fill="#FF9D8D"/>
<path d="M28.0796 32.8782C28.0796 32.8782 30.3521 34.4574 32.7364 34.7078C35.1206 34.9543 41.4337 35.2971 43.2171 33.6177L28.0796 32.8782Z" fill="#FF9D8D"/>
<path d="M44.9619 33.3751C44.9619 33.3751 51.1248 32.5046 53.197 31.3992C55.2693 30.2937 55.5581 28.2523 55.5928 27.2739L44.9658 33.3751H44.9619Z" fill="#FF9D8D"/>
<path d="M20.1613 23.291C20.1613 23.291 19.7145 24.7932 19.7607 26.3069C19.8069 27.8245 22.2412 32.7394 33.1263 33.7485C33.1263 33.7485 45.9874 34.8501 50.9023 31.268C50.9023 31.268 54.2995 29.6618 55.586 27.2698C55.586 27.2698 55.8325 23.029 55.066 21.8889L20.1613 23.291Z" fill="#FFBE92"/>
<path d="M30.5715 13.7541C30.5715 13.7541 20.5107 16.5543 20.1602 23.2911C20.1602 23.2911 23.049 29.4462 36.2567 29.2575C49.4644 29.0687 55.0688 21.8929 55.0688 21.8929C55.0688 21.8929 54.1058 16.7315 45.0965 14.1932C45.0965 14.1932 40.459 11.832 30.5715 13.7541Z" fill="#FFC299"/>
<path d="M38.3486 24.0001C38.0982 23.7767 37.921 23.5148 37.8363 23.2375C37.7592 22.9832 38.0019 22.3901 38.5103 22.7136C38.7569 22.8715 38.8108 23.1335 38.7376 23.3607C38.6644 23.588 38.4911 23.7921 38.3447 24.0001H38.3486Z" fill="#FFF5F0"/>
<path d="M28.6958 22.3784C28.7074 22.0471 28.7959 21.7428 28.95 21.5001C29.0925 21.2767 29.7011 21.0765 29.7781 21.6696C29.8167 21.9585 29.651 22.1665 29.4315 22.2589C29.2119 22.3514 28.9462 22.3552 28.6958 22.3784Z" fill="#FFF5F0"/>
<path d="M34.7896 17.529C34.8627 17.2517 34.9937 17.0129 35.1709 16.8357C35.3327 16.6739 35.8873 16.62 35.8411 17.1361C35.818 17.3865 35.6369 17.5329 35.4366 17.5675C35.2364 17.6022 35.0091 17.556 34.7934 17.529H34.7896Z" fill="#FFF5F0"/>
<path d="M47.3503 22.1126C47.0268 22.024 46.7533 21.8661 46.553 21.6581C46.372 21.4655 46.3258 20.8261 46.9266 20.8877C47.2194 20.9185 47.3812 21.1304 47.4158 21.3653C47.4505 21.6003 47.385 21.8584 47.3465 22.1126H47.3503Z" fill="#FFF5F0"/>
<path d="M50.7324 17.837C50.4782 17.968 50.2009 18.0373 49.9158 18.045C49.6578 18.0527 49.1031 17.7715 49.4922 17.4826C49.6809 17.344 49.9428 17.3555 50.1547 17.448C50.3665 17.5404 50.5437 17.6983 50.7286 17.837H50.7324Z" fill="#FFF5F0"/>
<path d="M24.5786 18.5188C24.7404 18.2877 24.9561 18.0913 25.2026 17.9526C25.4299 17.8255 26.0461 17.814 25.842 18.2492C25.7418 18.4611 25.503 18.5728 25.2719 18.592C25.0408 18.6113 24.8097 18.5535 24.5825 18.515L24.5786 18.5188Z" fill="#FFF5F0"/>
<path d="M29.8403 18.6345C29.9559 18.3765 30.1331 18.1454 30.3488 17.9643C30.5491 17.7987 31.1538 17.6716 31.0305 18.1415C30.9728 18.3688 30.7571 18.5228 30.5337 18.5806C30.3102 18.6384 30.0714 18.6268 29.8403 18.6345Z" fill="#FFF5F0"/>
<path d="M28.9194 16.0809C29.1351 15.9422 29.3893 15.8382 29.659 15.7804C29.9093 15.7227 30.5102 15.7958 30.2059 16.0655C30.0557 16.1964 29.7976 16.2388 29.5704 16.2234C29.3431 16.208 29.1313 16.1386 28.9194 16.0809Z" fill="#FFF5F0"/>
<path d="M33.4526 15.8499C33.6683 15.7112 33.9226 15.6072 34.1922 15.5495C34.4425 15.4917 35.0434 15.5649 34.7391 15.8345C34.5889 15.9655 34.3308 16.0078 34.1036 15.9924C33.8763 15.977 33.6645 15.9077 33.4526 15.8499Z" fill="#FFF5F0"/>
<path d="M35.6758 14.59C35.9339 14.5323 36.2112 14.5246 36.4885 14.5669C36.7427 14.6054 37.2627 14.929 36.8621 15.0908C36.6695 15.1717 36.4115 15.1139 36.2112 15.0022C36.0109 14.8905 35.8491 14.7364 35.6758 14.59Z" fill="#FFF5F0"/>
<path d="M46.4486 16.2926C46.2098 16.4467 45.9401 16.5468 45.659 16.5815C45.4009 16.6123 44.8231 16.3889 45.1813 16.0654C45.3547 15.9075 45.6166 15.8959 45.84 15.9652C46.0595 16.0346 46.2521 16.1732 46.4524 16.2965L46.4486 16.2926Z" fill="#FFF5F0"/>
<path d="M41.8429 16.2616C41.6041 16.4118 41.3345 16.512 41.0533 16.5467C40.7953 16.5775 40.2175 16.3579 40.5719 16.0344C40.7452 15.8764 41.0071 15.8649 41.2305 15.9342C41.4539 16.0036 41.6426 16.1422 41.8429 16.2616Z" fill="#FFF5F0"/>
<path d="M40.6565 20.6798C40.3368 20.6067 40.071 20.4719 39.8823 20.2831C39.709 20.1098 39.6859 19.5089 40.2829 19.5474C40.5718 19.5667 40.7258 19.7593 40.7528 19.9788C40.7798 20.1984 40.7066 20.4449 40.6565 20.6798Z" fill="#FFF5F0"/>
<path d="M40.637 14.8212C40.4752 15.0022 40.2672 15.1525 40.0361 15.268C39.8243 15.372 39.2619 15.4028 39.4776 15.0677C39.5816 14.9059 39.805 14.8135 40.0169 14.7904C40.2287 14.7673 40.4329 14.8019 40.637 14.8212Z" fill="#FFF5F0"/>
<path d="M39.0455 17.9873C38.7142 17.9218 38.4407 17.7909 38.2482 17.606C38.071 17.4365 38.0633 16.8318 38.6834 16.8549C38.9839 16.8664 39.1418 17.059 39.1649 17.2786C39.188 17.4981 39.1033 17.7485 39.0493 17.9873H39.0455Z" fill="#FFF5F0"/>
<path d="M34.2233 20.5757C34.1309 20.2945 34.1116 20.0095 34.1694 19.7514C34.2195 19.5165 34.6625 19.1313 34.9051 19.6012C35.0245 19.8285 34.9475 20.0634 34.7973 20.2175C34.647 20.3716 34.4275 20.4679 34.2233 20.5757Z" fill="#FFF5F0"/>
<path d="M45.032 19.1388C44.7084 19.1003 44.4272 18.9963 44.2192 18.8307C44.0267 18.6766 43.9419 18.0834 44.5389 18.0565C44.8278 18.0449 45.0012 18.2182 45.0512 18.4301C45.1013 18.6419 45.0512 18.8961 45.032 19.1388Z" fill="#FFF5F0"/>
</g>
<defs>
<clipPath id="clip0_45_28584">
<rect width="38.8644" height="33.0598" fill="white" transform="translate(17 13)"/>
</clipPath>
</defs>
</svg>
