<svg width="100%" height="100%" viewBox="0 0 74 54" fill="none" xmlns="http://www.w3.org/2000/svg">
<g clip-path="url(#clip0_45_28585)">
<path d="M32.6083 15.2098C32.6083 15.2098 32.4734 14.2507 33.213 14.1853C33.9525 14.1198 40.204 14.4433 40.204 14.4433C40.204 14.4433 41.9295 14.7284 41.9527 15.0866L39.5607 18.2142L33.0512 17.8907L32.6083 15.2098Z" fill="#757482"/>
<path d="M32.8128 14.3666C32.8128 14.3666 32.9283 16.1269 34.419 16.3542C35.9096 16.5814 37.7584 16.489 37.7584 16.489C37.7584 16.489 38.8639 16.4428 39.2491 15.969C39.6343 15.4952 39.9771 15.0369 40.7744 14.5554C40.7744 14.5554 41.7566 14.6286 41.9569 15.0831L39.5649 18.2107L33.0554 17.8872C33.0554 17.8872 32.0655 15.1293 32.8166 14.3628L32.8128 14.3666Z" fill="#59586B"/>
<path d="M27.6627 14.0006C27.6627 14.0006 23.4065 13.7541 20.2133 21.6964L17.5941 29.9623C17.5941 29.9623 15.1367 38.8022 20.2133 41.2596C20.2133 41.2596 24.0613 42.6501 27.6627 39.6226L29.7927 37.5773C29.7927 37.5773 31.4297 35.2855 33.5597 35.2855H37.7351C37.7351 35.2855 39.6186 35.2855 41.2556 37.4155C42.8926 39.5456 43.7939 40.8552 43.7939 40.8552C43.7939 40.8552 46.1666 44.5375 49.8527 44.0483C53.5389 43.5591 54.5172 38.729 54.6829 36.1098C54.8485 33.4906 54.8562 25.7947 53.1306 20.9685C53.1306 20.9685 50.8349 15.4835 46.6596 15.237L43.1044 14.9212C43.1044 14.9212 41.3211 14.9212 40.2618 16.0459L39.3451 17.0204C39.2373 17.1321 39.114 17.2245 38.9715 17.2862C38.5401 17.4787 37.5155 17.8293 36.0672 17.6328C36.0672 17.6328 35.0465 17.629 34.176 17.3709C33.552 17.186 33.0706 16.6814 32.878 16.0613L32.6161 15.2178C32.6161 15.2178 32.3618 14.2625 31.3334 14.0006H27.6627Z" fill="#DFE7EA"/>
<path d="M27.8786 18.4648C27.5127 18.5341 27.1313 18.6728 26.9233 18.9809C26.7577 19.2275 26.7269 19.5394 26.7269 19.836C26.7269 20.1326 26.7423 20.4369 26.6537 20.7181C26.3957 21.5385 25.4828 21.3228 24.8318 21.3459C24.4274 21.3613 24.0037 21.4576 23.7225 21.7465C23.4298 22.0508 23.3605 22.5015 23.3373 22.9252C23.3104 23.3797 23.3258 23.8342 23.3759 24.2848C23.4144 24.6469 23.5107 25.0475 23.8227 25.2324C24.2425 25.4789 24.8126 25.19 25.2517 25.4018C25.6715 25.6021 25.7678 26.1568 25.7409 26.619C25.7139 27.0812 25.6253 27.5819 25.8526 27.9864C26.1145 28.4486 26.7038 28.6142 27.2392 28.6412C27.6513 28.6643 28.0673 28.6296 28.4718 28.541C28.7298 28.4871 28.9956 28.3985 29.1728 28.2021C29.6504 27.6628 29.1458 26.723 29.5464 26.126C29.8353 25.6946 30.4439 25.6561 30.96 25.6946C31.4761 25.7331 32.0539 25.7947 32.4545 25.4673C32.8897 25.1091 32.909 24.4659 32.8936 23.9035L32.8666 22.9521C32.8589 22.6478 32.8397 22.3127 32.6278 22.0932C32.1309 21.5655 31.0948 22.1432 30.5671 21.6425C30.3129 21.4037 30.2936 21.0147 30.2936 20.6642L30.2859 19.4932C30.2859 19.2082 30.2705 18.8923 30.0664 18.6921C29.9316 18.5572 29.7351 18.5033 29.5464 18.4687C29.0072 18.3647 28.4486 18.3608 27.9094 18.4609L27.8747 18.4687L27.8786 18.4648Z" fill="#757482"/>
<path d="M39.588 22.513C39.538 22.5322 39.484 22.5553 39.434 22.5823C38.783 22.9136 38.3786 23.6762 38.4633 24.4003C38.6367 25.9179 40.7975 26.7153 41.7412 25.3787C42.0378 24.955 42.1225 24.4042 42.0147 23.8958C41.9338 23.5144 41.7489 23.1485 41.4677 22.875C40.9824 22.4051 40.212 22.2665 39.5842 22.513H39.588Z" fill="#FFE36E"/>
<path d="M42.7228 19.805C42.6727 19.8242 42.6188 19.8473 42.5687 19.8743C41.9178 20.2056 41.5133 20.9682 41.5981 21.6923C41.7714 23.2099 43.9323 24.0073 44.8759 22.6707C45.1725 22.247 45.2573 21.6962 45.1494 21.1878C45.0685 20.8064 44.8837 20.4405 44.6025 20.167C44.1171 19.6971 43.3468 19.5585 42.719 19.805H42.7228Z" fill="#FF9D8A"/>
<path d="M45.5423 23.006C45.5038 23.0214 45.4653 23.0368 45.4268 23.0561C44.7681 23.3758 44.3483 24.123 44.4176 24.851C44.5717 26.5304 47.0907 27.2584 47.8573 25.6021C48.0229 25.2401 48.0575 24.8241 47.9844 24.435C47.9112 24.046 47.734 23.6724 47.4528 23.3951C46.9675 22.9059 46.1817 22.7557 45.5423 23.0022V23.006Z" fill="#86D8FF"/>
<path d="M42.3498 25.7449C42.2997 25.7642 42.2458 25.7873 42.1957 25.8142C41.5447 26.1455 41.1403 26.9081 41.225 27.6323C41.3984 29.1499 43.5592 29.9472 44.5029 28.6106C44.7995 28.1869 44.8842 27.6361 44.7764 27.1277C44.6955 26.7464 44.5106 26.3805 44.2294 26.107C43.7441 25.6371 42.9737 25.4984 42.3459 25.7449H42.3498Z" fill="#9EF57A"/>
</g>
<defs>
<clipPath id="clip0_45_28585">
<rect width="37.7435" height="30.0862" fill="white" transform="translate(17 14)"/>
</clipPath>
</defs>
</svg>
