<svg width="74" height="54" viewBox="0 0 74 54" fill="none" xmlns="http://www.w3.org/2000/svg">
<g clip-path="url(#clip0_45_28586)">
<path d="M28.8589 13.6672L24.5796 14.5724C24.5796 14.5724 23.6282 14.9037 22.4881 16.1902C22.4881 16.1902 17.4615 20.8007 17.6965 21.2938L22.7577 27.0136C22.7577 27.0136 23.8593 26.9443 23.8593 27.5991L23.2738 38.8116H44.397L43.6266 27.5298C43.6266 27.5298 43.4841 26.7171 44.6781 26.9559L50.0205 21.1821L44.293 15.5277C44.293 15.5277 43.6959 14.5955 42.7677 14.4299C42.7677 14.4299 39.9289 13.6441 38.6154 13.6672H28.8589Z" fill="#C5F0FF"/>
<path d="M29.687 13.1667C29.687 13.1667 28.7356 13.132 28.7741 14.3299C28.8088 15.5317 29.7794 18.382 32.6297 18.8288C35.48 19.2756 37.3443 17.1263 37.8835 16.4792C38.4228 15.8321 38.781 14.0411 38.4767 13.4517C38.4767 13.4517 37.741 12.4849 37.0438 13.3785C37.0438 13.3785 36.1117 16.9106 34.1049 16.822C32.0982 16.7334 31.1814 15.5509 30.9503 14.4378C30.9503 14.4378 30.6114 13.0203 29.6947 13.1667H29.687Z" fill="#9BE5F9"/>
<path d="M30.6499 13.7369C30.6499 13.7369 30.7423 16.464 33.5541 16.7683C33.5541 16.7683 36.6741 17.269 36.9514 13.6676C36.9514 13.6676 33.1728 13.3594 30.6538 13.7369H30.6499Z" fill="#D9F1FC"/>
<path d="M49.5918 21.2056L44.8567 26.3802C44.5451 26.7207 44.5686 27.2495 44.9091 27.5611L45.3069 27.9251C45.6475 28.2367 46.1762 28.2133 46.4878 27.8727L51.2229 22.6981C51.5345 22.3575 51.511 21.8288 51.1705 21.5172L50.7727 21.1532C50.4321 20.8415 49.9034 20.865 49.5918 21.2056Z" fill="#9BE5F9"/>
<path d="M16.2193 22.7026L20.9543 27.8773C21.2659 28.2178 21.7946 28.2413 22.1352 27.9296L22.533 27.5656C22.8736 27.254 22.897 26.7253 22.5854 26.3847L17.8504 21.2101C17.5387 20.8695 17.01 20.8461 16.6695 21.1577L16.2717 21.5217C15.9311 21.8334 15.9076 22.3621 16.2193 22.7026Z" fill="#9BE5F9"/>
<path d="M23.6207 40.4719H43.6923C44.2603 40.4719 44.7207 40.0123 44.7207 39.4454C44.7207 38.8785 44.2603 38.4189 43.6923 38.4189H23.6207C23.0527 38.4189 22.5923 38.8785 22.5923 39.4454C22.5923 40.0123 23.0527 40.4719 23.6207 40.4719Z" fill="#9BE5F9"/>
<path d="M53.8564 24.2676C53.8564 24.2676 57.1728 23.3971 59.7458 25.3807L58.9755 26.4978L55.1391 26.9022L53.8564 24.2676Z" fill="#FFBFB8"/>
<path d="M49.127 28.8088L52.4781 24.984C52.4781 24.984 53.2985 24.2137 53.857 24.2676C53.857 24.2676 54.6543 25.5425 57.0655 25.7005C59.4806 25.8584 59.7464 25.3808 59.7464 25.3808C59.7464 25.3808 60.251 25.9893 59.9582 26.8945L54.793 33.3924L53.884 35.5417L49.986 34.4825L46.8545 30.5575L47.5709 29.2595L49.127 28.8165V28.8088Z" fill="#FF9D8A"/>
<path d="M41.4966 34.2476C41.4966 34.2476 40.7417 34.3785 39.3435 36.6665L37.1056 40.11C37.1056 40.11 36.2929 41.6353 36.9592 43.1336C37.6217 44.6319 40.7956 48.2218 43.7692 48.0985C43.7692 48.0985 44.8014 48.0754 45.8607 46.9931C45.8607 46.9931 50.4944 42.837 50.8333 41.8433L41.5005 34.2514L41.4966 34.2476Z" fill="#757482"/>
<path d="M41.4962 34.2473C41.4962 34.2473 40.7991 36.6046 43.5531 38.9272C46.3071 41.2498 47.5705 42.1473 49.5272 42.0472C49.5272 42.0472 50.5132 42.2513 51.3645 41.4694C52.2157 40.6875 52.1695 39.5551 52.1695 39.5551C52.1695 39.5551 52.2889 39.012 52.6895 38.6114C53.0901 38.2108 54.5075 36.2002 54.5075 36.2002C54.5075 36.2002 55.4281 35.7765 54.7926 33.3884L54.288 33.893C54.288 33.893 54.2071 34.7442 53.5985 34.8097C53.5985 34.8097 52.4276 34.9561 51.1257 33.9276C51.1257 33.9276 49.0226 32.4678 48.5103 31.4895C47.998 30.5111 47.5474 29.5636 48.5912 29.2092C48.5912 29.2092 48.7761 29.1784 49.1266 28.8086C49.1266 28.8086 47.3895 28.5506 46.9234 28.9858L44.0808 31.9401C44.0808 31.9401 43.3913 32.437 43.037 32.4524C42.6826 32.4678 41.6542 33.1188 41.4924 34.2473H41.4962Z" fill="#FFE05C"/>
</g>
<defs>
<clipPath id="clip0_45_28586">
<rect width="44.0489" height="35.0974" fill="white" transform="translate(16 13)"/>
</clipPath>
</defs>
</svg>
