<svg width="74" height="54" viewBox="0 0 74 54" fill="none" xmlns="http://www.w3.org/2000/svg">
<g clip-path="url(#clip0_45_28587)">
<path d="M37.7422 48.6735C37.7422 48.6735 39.6566 48.4578 43.5276 46.5203C43.5276 46.5203 51.9899 42.6454 52.4213 41.0701C52.4213 41.0701 53.2225 36.8716 53.6809 29.0371C53.6809 29.0371 38.085 33.5784 37.3994 35.6737L37.7422 48.6735Z" fill="#FFB850"/>
<path d="M44.9644 33.5589C44.9644 33.5589 49.2976 32.7116 51.0078 30.516L52.0671 25.3662L50.2798 21.4682L27.3579 14.354C27.3579 14.354 23.225 17.7513 24.3613 18.5678L36.0129 23.1515C36.0129 23.1515 44.8758 29.3451 44.9644 33.5628V33.5589Z" fill="#FF7866"/>
<path d="M50.6341 24.3455C50.6341 24.3455 49.8522 23.0705 47.9609 22.5775C47.9609 22.5775 49.8522 20.3165 49.6056 18.7527C49.6056 18.7527 54.0891 20.355 55.364 21.4682L50.6341 24.3455Z" fill="#FFD092"/>
<path d="M50.6348 24.3455C50.6348 24.3455 51.2934 24.8385 51.0045 30.5122L54.9526 28.3321C54.9526 28.3321 55.6113 27.7967 55.5689 27.1804L55.981 22.5737C55.981 22.5737 56.0234 21.5876 55.3647 21.4644C55.3647 21.4644 53.5544 22.1615 50.6348 24.3416V24.3455Z" fill="#FFBF73"/>
<path d="M30.2742 33.5667C30.2742 33.5667 30.3512 33.9866 29.9429 33.871L24.2307 31.8835C24.2307 31.8835 23.5605 31.6331 23.2986 30.2041C23.2986 30.2041 21.0415 25.998 23.0405 24.4573C23.0405 24.4573 28.5524 26.5912 30.2819 26.568L30.2742 33.5667Z" fill="#FF7866"/>
<path d="M38.2856 29.6111C38.2856 29.6111 37.7232 34.9111 38.2856 35.6738C38.2856 35.6738 39.8571 35.6198 42.3954 34.6299L44.9646 33.5591C44.9646 33.5591 45.2804 28.5711 44.7566 27.5388L38.2856 29.6149V29.6111Z" fill="#FFBF73"/>
<path d="M38.2861 29.6108C38.2861 29.6108 37.9934 34.0056 38.2861 35.6735C38.2861 35.6735 37.5004 35.9662 34.7579 35.1843L30.2783 33.5665C30.2783 33.5665 29.8276 32.8809 29.8276 31.3595L29.9047 29.1062L30.0742 27.5L38.2861 29.6146V29.6108Z" fill="#FFD092"/>
<path d="M36.0127 23.1514L30.5586 26.2829C30.5586 26.2829 29.9192 26.722 30.0733 27.5L36.032 29.4028C36.032 29.4028 38.0927 29.9921 40.0532 29.2064L44.7601 27.5385C44.7601 27.5385 44.3595 26.5871 41.6633 25.3122L36.0204 23.1514H36.0127Z" fill="#FFDAA9"/>
<path d="M22.9401 24.8425C22.9401 24.8425 22.6359 30.1348 23.8684 31.3635L19.4119 29.1565C19.4119 29.1565 18.0214 28.4054 18.0792 26.7221C18.0792 26.7221 17.8905 23.2247 18.0869 22.1462C18.0869 22.1462 22.0581 23.5675 22.9401 24.8425Z" fill="#FFD092"/>
<path d="M34.0523 13.3641C34.0523 13.3641 33.4168 9.09247 29.8231 6.46556C29.8231 6.46556 26.1408 4.23924 24.2688 9.49306C24.2688 9.49306 22.6241 15.679 25.1586 17.4123C25.1586 17.4123 28.4249 20.0816 31.8183 19.5C31.8183 19.5 30.2006 14.9241 34.0485 13.3641H34.0523Z" fill="#FF8B85"/>
<path d="M34.0525 13.364C34.0525 13.364 36.8335 13.5797 37.7386 14.8739C37.7386 14.8739 35.6664 16.8807 35.8936 18.2057C35.8936 18.2057 35.7973 19.9737 36.637 21.4681C36.637 21.4681 34.923 21.7647 33.856 20.925C32.7891 20.0854 32.3346 19.6309 31.8184 19.5037C31.8184 19.5037 30.1352 14.8624 34.0486 13.3679L34.0525 13.364Z" fill="#FF7E7B"/>
<path d="M37.7424 14.8739C37.7424 14.8739 42.7998 11.5422 45.0569 11.6076C47.314 11.6731 48.9973 12.9018 49.2553 14.5196C49.5134 16.1373 49.7638 16.0025 49.6058 18.7565C49.6058 18.7565 50.095 21.1215 46.4089 24.0643C46.4089 24.0643 43.2697 25.1312 40.716 24.0643C40.716 24.0643 37.7732 22.6969 36.6408 21.472C36.6408 21.472 34.2142 17.5317 37.7424 14.8778V14.8739Z" fill="#FF8B85"/>
<path d="M37.7424 48.6733C37.7424 48.6733 26.2411 45.6612 21.2222 41.1431C21.2222 41.1431 20.7215 39.4945 20.5751 37.7728C20.5751 37.7728 19.9318 32.4342 19.9511 29.4221L37.4035 35.6774L37.7463 48.6771L37.7424 48.6733Z" fill="#FFC25F"/>
<path d="M24.3613 18.5681C24.3613 18.5681 27.5853 19.7005 29.1375 20.4478L25.5862 22.2466C25.5862 22.2466 23.0864 23.4214 22.94 24.8465C22.94 24.8465 17.8403 23.1787 18.0868 22.1503C18.0868 22.1503 17.6939 21.1218 24.3613 18.572V18.5681Z" fill="#FFDAA9"/>
<path d="M29.1378 20.4475C29.1378 20.4475 23.3409 22.5737 23.0366 24.4572C23.0366 24.4572 28.6217 26.9917 30.278 26.568L36.0094 23.1515L29.1378 20.4475Z" fill="#FF7D73"/>
<path d="M32.8932 13.8187C32.8932 13.8187 28.2942 10.9106 28.3982 8.69196C28.3982 8.69196 28.664 7.79449 29.5615 8.42618C29.5615 8.42618 30.0892 8.9038 30.2471 9.37757C30.405 9.85134 32.1498 13.1331 32.8894 13.8187H32.8932Z" fill="#FFABA9"/>
<path d="M38.1782 15.0858C38.1782 15.0858 42.1417 13.287 43.6246 13.183C43.6246 13.183 45.4735 12.9635 45.3541 13.4449C45.2347 13.9264 43.1894 14.1074 43.1894 14.1074C43.1894 14.1074 40.7435 14.3501 38.1782 15.0819V15.0858Z" fill="#FFABA9"/>
</g>
<defs>
<clipPath id="clip0_45_28587">
<rect width="37.9823" height="42.6738" fill="white" transform="translate(18 6)"/>
</clipPath>
</defs>
</svg>
