<svg width="74" height="54" viewBox="0 0 74 54" fill="none" xmlns="http://www.w3.org/2000/svg">
<g clip-path="url(#clip0_45_28588)">
<path d="M18.3582 28.7295L27.0439 22.5166L38.8843 37.9006L30.5876 44.3061C30.5876 44.3061 29.278 45.4231 28.1109 43.9171L18.6971 31.3487C18.6971 31.3487 17.3875 30.0853 18.3582 28.7295Z" fill="#8DEF67"/>
<path d="M21.8284 28.1016C21.8284 28.1016 22.4447 30.7671 21.0889 31.4681L28.1068 40.5352C28.1068 40.5352 30.1598 40.0845 31.4732 41.19L37.7786 36.46L27.841 23.5488L21.8323 28.0978L21.8284 28.1016Z" fill="#7CDE6C"/>
<path d="M26.0962 28.6757L26.751 29.4961C26.751 29.4961 25.9729 31.0946 26.4236 32.0806C26.8742 33.0667 27.4482 34.0758 29.6244 33.6098C29.6244 33.6098 31.6774 33.1476 31.9239 34.0489C32.1704 34.9502 31.1844 35.3623 30.6105 35.4432C30.0366 35.5241 29.4357 35.6474 29.4357 35.6474L29.8863 37.0148C29.8863 37.0148 31.0534 37.3653 31.9624 36.5371L32.7444 37.5232L33.7304 36.6951L32.9678 35.6474C32.9678 35.6474 33.8883 34.3763 33.5417 33.2939C33.1912 32.2116 31.7275 31.3873 30.1406 31.6069C28.5536 31.8264 28.1684 31.734 28.0105 31.3526C28.0105 31.3526 27.7255 30.7479 28.5459 30.3512C29.3663 29.9545 30.1829 29.8813 30.1829 29.8813L29.4318 28.3174L27.8526 28.9145L27.0399 27.9939L26.0962 28.6757Z" fill="white"/>
<path d="M34.5625 16.8084L46.5377 32.3696L55.2465 25.9448C55.2465 25.9448 55.755 25.2053 54.8729 23.9188L45.5208 12.0168C45.5208 12.0168 44.0956 10.2874 42.8091 11.3389L34.5664 16.8084H34.5625Z" fill="#8DEF67"/>
<path d="M41.6535 13.8464C41.6535 13.8464 43.3367 15.3717 45.3666 14.2663L52.1689 22.8865C52.1689 22.8865 50.8901 24.3271 51.2444 26.4841L45.3936 30.879L35.5908 18.145L41.6535 13.8464Z" fill="#7CDE6C"/>
<path d="M37.3554 20.5024C37.3554 20.5024 38.2452 19.0773 40.5601 17.9718C42.875 16.8664 45.9025 18.1143 46.7923 19.0773C46.7923 19.0773 48.5371 20.8568 48.2867 23.8496C48.2867 23.8496 47.501 27.4703 43.5105 28.4371L37.3516 20.5024H37.3554Z" fill="#6BC758"/>
<path d="M18 30.4282V33.6098C18 33.6098 18.0732 34.2299 18.547 34.7923L27.4985 46.6712C27.4985 46.6712 28.5192 48.2388 29.9135 47.3221L39.8203 39.9344C39.8203 39.9344 39.828 38.6518 38.8843 37.9007L30.5876 44.3062L27.8952 43.6283L18 30.4282Z" fill="#E2FFD2"/>
<path d="M46.5415 32.3695V34.7923L51.8685 31.1023C51.8685 31.1023 52.6735 30.5669 53.2551 29.446L55.2504 25.9409L46.5415 32.3657V32.3695Z" fill="#E2FFD2"/>
<path d="M27.0437 22.5169C27.0437 22.5169 26.6239 21.5578 27.5059 20.9684L33.1911 17.005C33.1911 17.005 33.6225 16.4619 34.5624 16.8085C34.5624 16.8085 45.8404 30.4284 46.5375 32.3697V34.7925C46.5375 34.7925 46.4451 36.4025 45.486 37.0804L41.3916 40.2312C41.3916 40.2312 40.4363 41.0285 39.4195 40.2312L39.82 39.9307C39.82 39.9307 39.7546 38.7559 38.8841 37.897L27.0437 22.5169Z" fill="#DFE3E5"/>
</g>
<defs>
<clipPath id="clip0_45_28588">
<rect width="37.3969" height="36.6111" fill="white" transform="translate(18 11)"/>
</clipPath>
</defs>
</svg>
