<svg width="100%" height="100%" viewBox="0 0 74 54" fill="none" xmlns="http://www.w3.org/2000/svg">
<g clip-path="url(#clip0_45_28589)">
<path d="M33.0227 22.5376C33.0227 22.5376 31.5089 24.66 31.3549 25.7192C31.2047 26.7784 29.5869 28.296 26.9099 27.8916C24.2329 27.4872 20.3427 29.2551 19.3836 33.3958C19.3836 33.3958 17.2612 38.041 22.9696 44.0536C28.6779 50.0663 34.8908 46.7807 34.8908 46.7807C34.8908 46.7807 38.627 44.7084 38.8312 41.3767C39.0353 38.0449 38.4267 36.3771 40.6492 35.314C40.6492 35.314 43.7345 34.8749 45.0787 32.6639C45.0787 32.6639 45.8607 30.8613 44.8361 30.2258C43.8154 29.5902 42.7677 30.0601 42.7677 30.0601C42.7677 30.0601 40.8572 30.8998 38.6809 28.3037L36.9785 26.2893C36.9785 26.2893 36.2697 25.9233 36.4007 24.2209C36.5317 22.5184 36.4546 21.8135 35.8499 21.4707C35.8499 21.4707 34.2514 20.5116 33.015 22.5338L33.0227 22.5376Z" fill="#FF9D8D"/>
<path d="M34.8292 27.984L37.9107 30.9729C37.9107 30.9729 38.3536 31.932 40.1293 31.7202C41.905 31.5083 41.7162 31.5083 41.7162 31.5083C41.7162 31.5083 42.5097 31.2888 42.8833 31.7471C43.2569 32.2055 41.4581 33.049 41.4581 33.049C41.4581 33.049 37.5833 33.7269 37.3483 35.1983C37.3483 35.1983 37.0363 37.2051 37.252 39.0039C37.4677 40.8027 37.071 42.1315 36.0426 42.717C36.0426 42.717 34.5481 43.6029 33.381 43.3718C33.381 43.3718 32.2177 43.1368 32.1792 41.808C32.1792 41.808 31.9789 40.1286 31.536 39.6125C31.093 39.0963 28.3621 36.4155 28.3621 36.4155C28.3621 36.4155 26.2359 34.4549 27.2181 33.076C28.2003 31.6971 29.6948 31.4428 29.6948 31.4428C29.6948 31.4428 31.0738 31.5122 31.6785 29.9715C32.2871 28.4308 33.1961 26.6551 34.8292 27.9878V27.984Z" fill="white"/>
<path d="M34.8291 27.984L45.6256 18.031C45.6256 18.031 47.8288 19.2328 48.345 20.9776C48.345 20.9776 39.8441 30.4029 37.9105 30.973L34.8291 27.984Z" fill="#FFBE92"/>
<path d="M48.168 20.5232C48.168 20.5232 48.168 21.3243 48.8844 21.2473C49.6008 21.1703 54.092 15.8895 54.092 15.8895C54.092 15.8895 54.5735 14.8803 54.4001 14.1523L48.168 20.5232Z" fill="#FC7365"/>
<path d="M45.6253 18.031C45.6253 18.031 45.3094 15.6544 45.8834 14.5374C46.4573 13.4204 48.3446 13.2201 48.3446 13.2201L51.6649 12.1917C51.6649 12.1917 53.0977 11.6178 54.0106 12.4498C54.9273 13.2779 54.3264 14.7107 53.7525 15.3964C53.1786 16.082 49.3885 21.0123 48.1636 20.5231L45.6214 18.031H45.6253Z" fill="#FF9D8D"/>
<path d="M24.4562 37.2357C24.4562 37.2357 24.0287 37.8674 24.3329 38.2371C24.6372 38.6069 27.9652 41.7268 27.9652 41.7268C27.9652 41.7268 28.4967 42.5241 29.2324 41.9733L29.8256 41.4225C29.8256 41.4225 30.1915 40.8294 29.6022 40.3017L26.3359 37.097C26.3359 37.097 25.6618 36.2381 25.0686 36.6078L24.4562 37.2395V37.2357Z" fill="#595864"/>
<path d="M34.2089 37.6443C34.2089 37.6443 33.4733 38.2375 33.6774 38.9693C33.8815 39.7012 34.2975 40.0093 34.9446 40.0093C35.5917 40.0093 36.104 39.3969 36.104 38.7421C36.104 38.0873 35.4723 36.9664 34.2051 37.6405L34.2089 37.6443Z" fill="#595864"/>
<path d="M33.7393 40.6987C33.7393 40.6987 33.2964 40.9336 33.4196 41.3034C33.5429 41.6732 33.6777 41.9197 34.0975 41.8581C34.5174 41.7964 34.6406 41.5114 34.6291 41.2264C34.6175 40.9413 34.2709 40.3597 33.7393 40.6948V40.6987Z" fill="#595864"/>
</g>
<defs>
<clipPath id="clip0_45_28589">
<rect width="35.4864" height="35.679" fill="white" transform="translate(19 12)"/>
</clipPath>
</defs>
</svg>
