<svg width="179" height="186" viewBox="0 0 179 186" fill="none" xmlns="http://www.w3.org/2000/svg">
<path d="M162.255 163.461C168.562 168.008 175.954 164.382 176.84 163.928C177.726 163.473 179.277 162.564 178.612 160.57C177.948 158.576 175.907 159.544 175.907 159.544L173.156 160.628C168.691 161.969 167.886 160.535 167.886 160.535C167.886 160.535 172.806 154.881 172.573 151.861C172.34 148.853 169.437 144.201 164.82 144.563C160.203 144.924 158 149.937 158 149.937C156.099 154.204 157.72 157.702 157.72 157.702C153.301 156.746 151.11 154.869 151.11 154.869C151.028 156.303 150.398 160.022 150.398 160.022C152.917 161.864 162.255 163.461 162.255 163.461ZM162.442 151.418C163.06 150.45 165.694 147.174 167.478 150.45C169.274 153.726 163.596 157.48 163.596 157.48C161.381 154.951 161.812 152.386 162.43 151.418H162.442Z" fill="#CACACE"/>
<path d="M58.6324 7.86759C64.4734 6.35198 70.4891 5.51257 76.5632 5.44262C107.796 5.06955 138.307 25.1222 149.522 53.5923C158.371 76.0466 154.71 102.523 141.116 122.436C126.205 144.272 99.4722 145.986 74.523 146.266C56.6388 146.464 38.1834 142.279 24.1116 131.495C1.48238 114.158 -5.59434 81.3979 4.47862 55.0729C13.2925 32.0474 34.4177 14.1515 58.6324 7.86759Z" fill="#EDEDEC"/>
<path d="M61.1841 106.825C61.359 107.315 61.837 107.781 62.7813 108.177C67.6429 110.253 73.3556 110.474 78.2288 108.41C83.1021 106.347 86.9961 101.94 88.0803 96.752C89.1645 91.5756 87.2292 85.7929 83.0322 82.5752L63.8772 102.511C62.6298 103.817 60.7061 105.438 61.1841 106.813V106.825Z" fill="#9493A3"/>
<path d="M59.1561 78.3318C58.5732 78.5767 58.0136 78.8448 57.4656 79.1479C48.6401 84.0328 47.0312 97.1836 54.5277 103.992C58.8413 107.909 65.1719 109.192 70.8729 107.991C77.2734 106.627 83.091 101.999 85.073 95.7613C87.0433 89.524 84.595 81.9343 78.9173 78.6699C75.8511 76.9095 72.1903 76.4781 68.6461 76.5481C65.4167 76.6064 62.129 77.0844 59.1678 78.3318H59.1561Z" fill="#B4B2B7"/>
<path d="M65.6852 88.8145C65.6852 88.8145 64.9507 84.6058 61.9894 85.0488C59.0282 85.4918 60.4972 93.6178 60.4972 93.6178C60.4972 93.6178 60.2756 100.03 63.4817 100.461C63.4817 100.461 65.5919 100.053 66.0466 95.7163C66.4896 91.3677 65.6852 88.8145 65.6852 88.8145Z" fill="#EDEDEC"/>
<path d="M76.025 88.2771C76.025 88.2771 75.2906 84.0684 72.3293 84.5114C69.368 84.9545 70.837 93.0804 70.837 93.0804C70.837 93.0804 70.6155 99.4926 73.8216 99.924C73.8216 99.924 75.9318 99.5159 76.3865 95.179C76.8295 90.8304 76.025 88.2771 76.025 88.2771Z" fill="#EDEDEC"/>
<path d="M19.8082 34.8229C19.8082 34.8229 12.2768 9.87366 19.8082 1.9109C27.3396 -6.06353 49.9222 13.4995 49.9222 13.4995C49.9222 13.4995 30.4408 22.4299 19.8082 34.8346V34.8229Z" fill="#EDEDEC"/>
<path d="M106.898 13.9422C106.898 13.9422 121.507 -0.386165 129.924 1.38593C129.924 1.38593 140.557 4.63866 136.126 33.4119C136.126 33.4119 125.937 20.5758 106.898 13.9305V13.9422Z" fill="#EDEDEC"/>
<path d="M129.085 3.65C129.085 3.65 129.027 3.65 129.003 3.65C127.779 3.60336 126.695 4.36117 125.716 5.09565C123.174 6.99599 120.644 8.91965 118.137 10.8783C115.736 12.7436 109.58 17.0107 112.588 20.5782C113.323 21.4409 114.348 21.9888 115.363 22.5135L129.749 29.9749C130.624 30.4296 131.801 30.8377 132.489 30.1382C132.781 29.835 132.886 29.4153 132.979 29.0073C134.459 22.2803 134.424 15.2152 132.897 8.49994C132.408 6.35477 131.265 3.81322 129.085 3.67331V3.65Z" fill="#B4B2B7"/>
<path d="M24.6601 3.31993C25.3013 3.12174 26.0358 3.04013 26.8752 3.08676C28.5423 3.18003 30.1862 3.66969 31.6435 4.48579C33.3806 5.47676 34.8146 6.91076 36.2253 8.3331L42.2644 14.4072C42.894 15.0484 43.5702 15.7945 43.5235 16.6923C43.4769 17.6716 42.5792 18.3711 41.7748 18.9307L26.7936 29.2835C26.0358 29.8081 25.0798 30.356 24.2287 29.9713C23.5642 29.6682 23.2727 28.8871 23.0512 28.1876C21.5123 23.0928 17.1636 5.61666 24.6367 3.33159L24.6601 3.31993Z" fill="#B4B2B7"/>
<path d="M55.5559 123.278C55.5559 123.278 53.1193 116.423 48.2344 118.428" stroke="#83828B" stroke-width="1.16585" stroke-miterlimit="10" stroke-linecap="round"/>
<path d="M39.3162 86.1308C42.6837 86.1308 45.4136 83.4009 45.4136 80.0334C45.4136 76.6659 42.6837 73.936 39.3162 73.936C35.9487 73.936 33.2188 76.6659 33.2188 80.0334C33.2188 83.4009 35.9487 86.1308 39.3162 86.1308Z" fill="#28120D"/>
<path d="M36.8665 82.6126C37.3622 82.6126 37.7642 82.2106 37.7642 81.7148C37.7642 81.2191 37.3622 80.8171 36.8665 80.8171C36.3707 80.8171 35.9688 81.2191 35.9688 81.7148C35.9688 82.2106 36.3707 82.6126 36.8665 82.6126Z" fill="white"/>
<path d="M97.9216 83.5212C101.289 83.5212 104.019 80.7913 104.019 77.4238C104.019 74.0563 101.289 71.3264 97.9216 71.3264C94.5541 71.3264 91.8242 74.0563 91.8242 77.4238C91.8242 80.7913 94.5541 83.5212 97.9216 83.5212Z" fill="#28120D"/>
<path d="M95.6243 79.9985C96.1201 79.9985 96.522 79.5966 96.522 79.1008C96.522 78.605 96.1201 78.2031 95.6243 78.2031C95.1285 78.2031 94.7266 78.605 94.7266 79.1008C94.7266 79.5966 95.1285 79.9985 95.6243 79.9985Z" fill="white"/>
<path d="M144.939 125.236C144.939 125.236 159.022 142.992 152.703 159.162C152.703 159.162 142.945 182.235 116.375 180.288C115.081 180.194 113.787 180.544 112.726 181.279C110.896 182.549 107.585 184.461 103.423 185.044C88.3365 187.189 72.6675 185.044 72.6675 185.044C72.6675 185.044 65.4625 184.974 62.408 178.854C62.1282 178.282 61.3704 178.166 60.9507 178.632C59.54 180.183 56.6953 182.922 53.8273 183.354C36.7126 185.989 28.8198 182.491 28.8198 182.491C28.8198 182.491 24.1331 181.523 22.3143 175.694C19.0733 165.353 17.103 156.096 23.9465 149.532C23.9465 149.532 26.9428 146.478 31.7111 146.874L53.5242 147.271C53.5242 147.271 59.7965 147.399 67.0248 139.704C74.2531 131.998 144.95 125.224 144.95 125.224L144.939 125.236Z" fill="#EDEDEC"/>
<path d="M10.6928 130.9C10.2381 132.906 10.2498 135.109 10.5996 137.079C11.5439 142.419 14.9948 147.455 20.0896 149.566C22.1765 150.428 24.4149 150.813 26.63 151.198C33.2521 152.34 39.8974 153.494 46.6127 153.658C49.6906 153.728 52.8151 153.588 55.7413 152.643C58.6676 151.699 61.4074 149.869 62.923 147.199C65.8027 142.162 63.5059 135.365 59.0407 131.658C54.5755 127.951 48.548 126.761 42.7538 126.447C36.9595 126.132 31.1069 126.575 25.3942 125.572C22.6078 125.083 19.8098 124.255 17.0117 124.616C13.316 125.094 11.4157 127.752 10.6928 130.9Z" fill="#DCDCE2"/>
<path d="M74.5932 129.129C73.7888 129.338 73.0077 129.618 72.2499 129.968C66.0825 132.848 63.4943 141.918 67.3533 147.701C68.7873 149.857 71.1773 151.163 73.5673 152.154C80.4808 155.01 88.1288 155.815 95.5902 155.372C103.052 154.929 110.408 153.273 117.648 151.373C127.01 148.913 136.675 145.789 143.46 138.898C146.48 135.844 148.881 131.903 148.998 127.613C149.114 123.323 146.398 118.799 142.201 117.878C140.219 117.447 138.144 117.82 136.162 118.274C131.627 119.312 127.185 120.734 122.906 122.541C120.866 123.393 118.861 124.337 116.75 124.943C113.136 125.992 109.336 126.074 105.582 126.214C96.7677 126.552 87.9655 127.251 79.2216 128.336C77.6711 128.522 76.1088 128.732 74.6049 129.14L74.5932 129.129Z" fill="#DCDCE2"/>
<path d="M53.8281 120.173C53.8281 120.173 58.4566 118.517 58.8879 115.16C58.8879 115.16 61.8142 118.319 67.0489 118.774" stroke="#83828B" stroke-width="1.16585" stroke-linecap="round" stroke-linejoin="round"/>
</svg>
