<svg width="360" height="345" viewBox="0 0 360 345" fill="none" xmlns="http://www.w3.org/2000/svg">
<g clip-path="url(#clip0_370_81872)">
<path d="M141.746 204.602C144.062 200.734 142.806 195.726 138.939 193.41C138.83 193.345 138.725 193.294 138.61 193.238C140.177 189.551 138.835 185.182 135.294 183.061C131.754 180.94 127.277 181.824 124.757 184.94C124.648 184.875 124.559 184.797 124.45 184.731C120.583 182.415 115.575 183.671 113.259 187.538C111.79 189.989 111.769 192.888 112.916 195.277C111.96 195.926 111.131 196.774 110.5 197.827C108.184 201.694 109.44 206.702 113.307 209.018C115.132 210.111 117.217 210.398 119.146 209.999C119.705 211.888 120.942 213.592 122.767 214.684C126.634 217.001 131.642 215.745 133.958 211.878C134.589 210.825 134.946 209.694 135.067 208.545C137.723 208.434 140.265 207.033 141.728 204.591L141.746 204.602Z" fill="white"/>
<path d="M131.739 199.867C132.517 198.569 132.095 196.885 130.797 196.107C130.76 196.085 130.724 196.064 130.688 196.042C131.209 194.8 130.765 193.338 129.576 192.625C128.387 191.913 126.879 192.206 126.04 193.258C126.003 193.236 125.967 193.214 125.931 193.193C124.632 192.415 122.949 192.837 122.171 194.135C121.676 194.962 121.673 195.934 122.053 196.742C121.738 196.96 121.455 197.247 121.243 197.601C120.465 198.899 120.887 200.583 122.185 201.36C122.803 201.73 123.498 201.826 124.149 201.685C124.339 202.317 124.755 202.899 125.363 203.263C126.661 204.041 128.345 203.619 129.122 202.321C129.335 201.966 129.454 201.582 129.497 201.201C130.383 201.164 131.245 200.693 131.739 199.867Z" fill="#86BCFC"/>
<path d="M286.501 124.604C284.184 120.736 285.44 115.728 289.308 113.412C289.417 113.347 289.522 113.296 289.636 113.24C288.069 109.553 289.412 105.184 292.952 103.063C296.493 100.942 300.969 101.826 303.489 104.942C303.598 104.877 303.687 104.799 303.796 104.733C307.664 102.417 312.672 103.673 314.988 107.54C316.456 109.991 316.478 112.89 315.331 115.279C316.287 115.927 317.115 116.776 317.746 117.829C320.063 121.696 318.807 126.704 314.939 129.02C313.115 130.113 311.029 130.4 309.1 130.001C308.542 131.89 307.305 133.593 305.48 134.686C301.613 137.003 296.605 135.747 294.288 131.88C293.657 130.827 293.301 129.696 293.18 128.547C290.523 128.436 287.982 127.035 286.519 124.593L286.501 124.604Z" fill="white"/>
<path d="M296.507 119.869C295.73 118.571 296.152 116.887 297.45 116.109C297.486 116.087 297.523 116.066 297.559 116.044C297.037 114.802 297.481 113.34 298.67 112.627C299.86 111.915 301.368 112.208 302.207 113.26C302.243 113.238 302.28 113.216 302.316 113.195C303.614 112.417 305.298 112.839 306.076 114.137C306.57 114.963 306.573 115.936 306.193 116.744C306.509 116.962 306.792 117.249 307.004 117.603C307.782 118.901 307.359 120.585 306.061 121.362C305.444 121.732 304.749 121.828 304.097 121.687C303.908 122.319 303.492 122.901 302.884 123.265C301.586 124.043 299.902 123.621 299.124 122.322C298.912 121.968 298.793 121.584 298.749 121.202C297.864 121.165 297.002 120.695 296.507 119.869Z" fill="#86BCFC"/>
<path d="M98.0248 236.38C99.855 232.044 97.8261 227.051 93.4907 225.221C93.3686 225.169 93.2523 225.132 93.1259 225.091C94.2078 221.051 92.1825 216.731 88.2135 215.055C84.2444 213.38 79.7461 214.946 77.5956 218.535C77.4735 218.483 77.3702 218.416 77.248 218.364C72.9126 216.534 67.9193 218.563 66.0891 222.898C64.9291 225.646 65.3298 228.645 66.864 230.947C65.9705 231.757 65.2376 232.755 64.7392 233.935C62.909 238.271 64.9379 243.264 69.2734 245.094C71.319 245.958 73.5165 245.95 75.4521 245.257C76.305 247.127 77.8323 248.707 79.8779 249.571C84.2134 251.401 89.2067 249.372 91.0368 245.037C91.5352 243.856 91.7389 242.635 91.6961 241.43C94.4261 240.928 96.8488 239.109 98.0045 236.371L98.0248 236.38Z" fill="white"/>
<path d="M86.9894 232.945C87.6037 231.49 86.9216 229.811 85.4662 229.197C85.4255 229.18 85.3848 229.162 85.3441 229.145C85.7022 227.786 85.03 226.339 83.6968 225.776C82.3636 225.213 80.8478 225.736 80.1334 226.945C80.0927 226.928 80.052 226.911 80.0113 226.894C78.556 226.28 76.8771 226.962 76.2627 228.417C75.8718 229.343 76.0107 230.349 76.5212 231.128C76.2267 231.4 75.9762 231.737 75.8086 232.134C75.1943 233.59 75.8764 235.269 77.3318 235.883C78.0238 236.175 78.7563 236.173 79.4092 235.933C79.6969 236.558 80.2119 237.099 80.8937 237.387C82.3491 238.001 84.028 237.319 84.6423 235.863C84.8099 235.467 84.8772 235.051 84.8664 234.651C85.7764 234.484 86.5984 233.871 86.9894 232.945Z" fill="#CDE7FC"/>
<path d="M330.157 155.067C328.327 150.732 330.356 145.739 334.691 143.908C334.813 143.857 334.929 143.82 335.056 143.778C333.974 139.739 335.999 135.418 339.968 133.743C343.937 132.067 348.436 133.634 350.586 137.222C350.708 137.171 350.811 137.103 350.934 137.052C355.269 135.221 360.262 137.25 362.093 141.586C363.253 144.334 362.852 147.333 361.318 149.635C362.211 150.445 362.944 151.442 363.442 152.623C365.273 156.958 363.244 161.952 358.908 163.782C356.863 164.645 354.665 164.638 352.73 163.944C351.877 165.815 350.349 167.395 348.304 168.259C343.968 170.089 338.975 168.06 337.145 163.724C336.646 162.544 336.443 161.323 336.486 160.118C333.755 159.615 331.333 157.796 330.177 155.059L330.157 155.067Z" fill="white"/>
<path d="M341.192 151.633C340.578 150.177 341.26 148.499 342.715 147.884C342.756 147.867 342.797 147.85 342.838 147.833C342.479 146.473 343.152 145.026 344.485 144.463C345.818 143.901 347.334 144.424 348.048 145.633C348.089 145.616 348.13 145.599 348.17 145.581C349.626 144.967 351.305 145.649 351.919 147.105C352.31 148.031 352.171 149.037 351.66 149.816C351.955 150.087 352.205 150.425 352.373 150.822C352.987 152.277 352.305 153.956 350.85 154.57C350.158 154.863 349.425 154.86 348.772 154.62C348.485 155.245 347.97 155.786 347.288 156.074C345.833 156.688 344.154 156.006 343.539 154.551C343.372 154.154 343.304 153.739 343.315 153.339C342.405 153.171 341.583 152.559 341.192 151.633Z" fill="#CDE7FC"/>
<path d="M58.0094 213.882C59.97 208.312 57.0464 202.212 51.4766 200.252C51.3269 200.199 51.1701 200.166 51.0204 200.113C52.0669 194.974 49.1962 189.711 44.1055 187.919C39.0148 186.127 33.4844 188.421 31.0769 193.093C30.9272 193.04 30.7845 192.968 30.6347 192.915C25.0649 190.954 18.965 193.878 17.0044 199.448C15.764 202.971 16.4915 206.705 18.5905 209.475C17.5383 210.552 16.693 211.869 16.1624 213.377C14.2018 218.946 17.1254 225.046 22.6952 227.007C25.3304 227.935 28.0744 227.756 30.4509 226.742C31.6678 229.021 33.6951 230.879 36.3303 231.807C41.9001 233.767 48 230.844 49.9606 225.274C50.4947 223.757 50.6578 222.21 50.5121 220.711C53.8896 219.881 56.789 217.413 58.0293 213.889L58.0094 213.882Z" fill="white"/>
<path d="M43.936 210.42C44.5965 208.544 43.6134 206.492 41.7368 205.832C41.6869 205.814 41.637 205.797 41.5871 205.779C41.9373 204.051 40.9761 202.288 39.2592 201.684C37.5423 201.079 35.6887 201.852 34.8793 203.418C34.8294 203.4 34.7795 203.383 34.7296 203.365C32.8531 202.705 30.8018 203.688 30.1412 205.564C29.7231 206.752 29.9665 208.005 30.6705 208.937C30.3198 209.296 30.0278 209.743 29.8486 210.252C29.1881 212.128 30.1712 214.18 32.0478 214.84C32.9362 215.153 33.8542 215.095 34.6598 214.75C35.062 215.52 35.751 216.144 36.6394 216.456C38.516 217.117 40.5673 216.134 41.2278 214.257C41.407 213.748 41.4559 213.227 41.4109 212.717C42.5435 212.432 43.5178 211.608 43.936 210.42Z" fill="#86BCFC"/>
<path d="M153.28 221.294C151.819 218.523 148.392 217.471 145.631 218.927C145.556 218.967 145.481 219.006 145.411 219.055C143.791 216.799 140.711 216.019 138.184 217.352C135.657 218.685 134.562 221.667 135.509 224.278C135.434 224.318 135.354 224.348 135.279 224.387C132.518 225.843 131.456 229.275 132.912 232.036C133.836 233.786 135.549 234.857 137.384 235.025C137.42 235.82 137.627 236.62 138.027 237.378C139.488 240.149 142.914 241.201 145.676 239.745C146.986 239.053 147.899 237.926 148.363 236.628C149.687 236.983 151.142 236.862 152.452 236.17C155.223 234.709 156.275 231.283 154.819 228.522C154.424 227.773 153.88 227.15 153.24 226.663C154.123 225.048 154.222 223.034 153.299 221.284L153.28 221.294Z" fill="white"/>
<path d="M146.864 225.528C146.375 224.601 145.217 224.243 144.29 224.732C144.262 224.746 144.244 224.756 144.215 224.771C143.669 224.007 142.636 223.75 141.784 224.199C140.932 224.648 140.561 225.646 140.883 226.529C140.855 226.543 140.836 226.553 140.808 226.568C139.882 227.057 139.523 228.215 140.012 229.141C140.323 229.731 140.894 230.088 141.511 230.146C141.521 230.415 141.594 230.688 141.727 230.941C142.216 231.868 143.374 232.226 144.3 231.737C144.74 231.505 145.054 231.124 145.205 230.686C145.648 230.799 146.144 230.765 146.584 230.533C147.511 230.044 147.869 228.886 147.38 227.959C147.247 227.706 147.063 227.493 146.846 227.332C147.147 226.79 147.175 226.118 146.864 225.528Z" fill="#CDE7FC"/>
<path d="M257.977 101.325C259.438 98.5545 262.864 97.5022 265.626 98.9586C265.701 98.998 265.775 99.0375 265.845 99.0864C267.466 96.8305 270.545 96.05 273.073 97.3829C275.6 98.7158 276.695 101.698 275.748 104.309C275.823 104.349 275.903 104.379 275.978 104.418C278.739 105.875 279.801 109.306 278.344 112.067C277.421 113.818 275.708 114.888 273.873 115.056C273.836 115.851 273.63 116.651 273.23 117.409C271.769 120.18 268.342 121.232 265.581 119.776C264.271 119.085 263.358 117.957 262.894 116.66C261.57 117.014 260.115 116.893 258.804 116.202C256.034 114.741 254.982 111.314 256.438 108.553C256.833 107.804 257.377 107.182 258.017 106.694C257.133 105.079 257.035 103.066 257.958 101.315L257.977 101.325Z" fill="white"/>
<path d="M264.393 105.559C264.882 104.632 266.04 104.274 266.967 104.763C266.995 104.778 267.013 104.788 267.041 104.802C267.588 104.038 268.621 103.781 269.473 104.23C270.324 104.68 270.696 105.677 270.374 106.56C270.402 106.575 270.42 106.585 270.448 106.599C271.375 107.088 271.733 108.246 271.245 109.173C270.934 109.762 270.363 110.119 269.746 110.177C269.735 110.446 269.663 110.719 269.53 110.972C269.041 111.899 267.883 112.257 266.957 111.768C266.517 111.536 266.203 111.156 266.052 110.717C265.609 110.83 265.113 110.796 264.673 110.564C263.746 110.075 263.388 108.917 263.876 107.99C264.01 107.738 264.194 107.524 264.411 107.363C264.11 106.822 264.082 106.149 264.393 105.559Z" fill="#CDE7FC"/>
<path d="M175.889 231.091C176.764 228.936 175.722 226.487 173.574 225.615C173.516 225.592 173.458 225.568 173.397 225.552C173.902 223.552 172.872 221.43 170.907 220.633C168.941 219.835 166.723 220.64 165.693 222.427C165.635 222.403 165.58 222.372 165.521 222.348C163.374 221.477 160.917 222.516 160.046 224.664C159.494 226.025 159.705 227.51 160.488 228.633C160.054 229.034 159.698 229.534 159.459 230.123C158.585 232.279 159.626 234.728 161.774 235.599C162.793 236.013 163.87 235.992 164.829 235.634C165.261 236.556 166.026 237.324 167.046 237.738C169.201 238.612 171.65 237.57 172.521 235.422C172.757 234.84 172.851 234.233 172.822 233.637C174.161 233.366 175.352 232.458 175.904 231.097L175.889 231.091Z" fill="white"/>
<path d="M170.416 229.473C170.708 228.753 170.358 227.923 169.637 227.631C169.615 227.622 169.601 227.616 169.579 227.607C169.751 226.931 169.403 226.222 168.741 225.953C168.078 225.684 167.334 225.951 166.987 226.556C166.965 226.547 166.95 226.541 166.928 226.532C166.208 226.24 165.379 226.59 165.086 227.311C164.9 227.77 164.971 228.265 165.233 228.643C165.085 228.778 164.964 228.949 164.885 229.146C164.592 229.867 164.943 230.696 165.664 230.988C166.006 231.127 166.372 231.123 166.694 230.999C166.841 231.305 167.098 231.57 167.44 231.709C168.161 232.001 168.99 231.651 169.282 230.93C169.362 230.733 169.395 230.526 169.383 230.326C169.834 230.238 170.23 229.932 170.416 229.473Z" fill="#86BCFC"/>
<path d="M189.227 210.914C189.227 208.857 187.559 207.197 185.509 207.197C185.454 207.197 185.398 207.197 185.343 207.204C185.092 205.397 183.543 204 181.667 204C179.79 204 178.241 205.397 177.99 207.204C177.935 207.204 177.879 207.197 177.824 207.197C175.774 207.197 174.106 208.864 174.106 210.914C174.106 212.214 174.773 213.36 175.788 214.021C175.565 214.493 175.44 215.021 175.44 215.584C175.44 217.641 177.108 219.302 179.158 219.302C180.131 219.302 181.006 218.927 181.673 218.315C182.334 218.927 183.216 219.302 184.189 219.302C186.246 219.302 187.907 217.634 187.907 215.584C187.907 215.028 187.782 214.5 187.559 214.021C188.567 213.353 189.241 212.214 189.241 210.914H189.227Z" fill="white"/>
<path d="M184.204 211.4C184.204 210.712 183.641 210.149 182.953 210.149C182.932 210.149 182.918 210.149 182.897 210.149C182.814 209.538 182.293 209.072 181.661 209.072C181.028 209.072 180.507 209.538 180.424 210.149C180.403 210.149 180.389 210.149 180.368 210.149C179.68 210.149 179.117 210.712 179.117 211.4C179.117 211.838 179.34 212.22 179.68 212.443C179.604 212.602 179.562 212.783 179.562 212.971C179.562 213.659 180.125 214.222 180.813 214.222C181.139 214.222 181.438 214.096 181.661 213.888C181.883 214.089 182.182 214.222 182.508 214.222C183.196 214.222 183.759 213.659 183.759 212.971C183.759 212.783 183.717 212.602 183.641 212.443C183.982 212.22 184.204 211.838 184.204 211.4Z" fill="#86BCFC"/>
<path d="M167.274 212.107C167.274 210.588 166.043 209.361 164.528 209.361C164.487 209.361 164.446 209.361 164.405 209.366C164.22 208.032 163.076 207 161.69 207C160.304 207 159.16 208.032 158.975 209.366C158.934 209.366 158.893 209.361 158.852 209.361C157.338 209.361 156.106 210.593 156.106 212.107C156.106 213.067 156.599 213.913 157.348 214.401C157.184 214.75 157.091 215.14 157.091 215.556C157.091 217.075 158.323 218.302 159.837 218.302C160.556 218.302 161.203 218.025 161.695 217.573C162.183 218.025 162.835 218.302 163.553 218.302C165.072 218.302 166.299 217.07 166.299 215.556C166.299 215.145 166.207 214.755 166.043 214.401C166.787 213.908 167.285 213.067 167.285 212.107H167.274Z" fill="white"/>
<path d="M163.565 212.465C163.565 211.957 163.149 211.542 162.641 211.542C162.625 211.542 162.615 211.542 162.6 211.542C162.538 211.09 162.153 210.746 161.686 210.746C161.219 210.746 160.834 211.09 160.773 211.542C160.757 211.542 160.747 211.542 160.731 211.542C160.223 211.542 159.808 211.957 159.808 212.465C159.808 212.789 159.972 213.071 160.223 213.235C160.167 213.353 160.136 213.487 160.136 213.625C160.136 214.134 160.552 214.549 161.06 214.549C161.301 214.549 161.522 214.457 161.686 214.303C161.85 214.452 162.071 214.549 162.312 214.549C162.82 214.549 163.236 214.134 163.236 213.625C163.236 213.487 163.205 213.353 163.149 213.235C163.4 213.071 163.565 212.789 163.565 212.465Z" fill="#CDE7FC"/>
<path d="M247.01 82.1088C247.01 80.5896 248.242 79.3629 249.756 79.3629C249.797 79.3629 249.838 79.3629 249.879 79.368C250.064 78.0336 251.208 77.002 252.594 77.002C253.98 77.002 255.124 78.0336 255.309 79.368C255.35 79.368 255.391 79.3629 255.432 79.3629C256.946 79.3629 258.178 80.5947 258.178 82.1088C258.178 83.0686 257.686 83.9155 256.936 84.403C257.1 84.7521 257.193 85.1421 257.193 85.5579C257.193 87.0771 255.961 88.3038 254.447 88.3038C253.728 88.3038 253.082 88.0266 252.589 87.5749C252.101 88.0266 251.449 88.3038 250.731 88.3038C249.212 88.3038 247.985 87.0719 247.985 85.5579C247.985 85.1473 248.077 84.7572 248.242 84.403C247.497 83.9103 247 83.0686 247 82.1088H247.01Z" fill="white"/>
<path d="M250.72 82.4674C250.72 81.9593 251.135 81.5436 251.643 81.5436C251.659 81.5436 251.669 81.5436 251.684 81.5436C251.746 81.0919 252.131 80.748 252.598 80.748C253.065 80.748 253.45 81.0919 253.512 81.5436C253.527 81.5436 253.537 81.5436 253.553 81.5436C254.061 81.5436 254.477 81.9593 254.477 82.4674C254.477 82.7908 254.312 83.0731 254.061 83.2373C254.117 83.3554 254.148 83.4888 254.148 83.6274C254.148 84.1355 253.732 84.5512 253.224 84.5512C252.983 84.5512 252.762 84.4589 252.598 84.3049C252.434 84.4537 252.213 84.5512 251.972 84.5512C251.464 84.5512 251.048 84.1355 251.048 83.6274C251.048 83.4888 251.079 83.3554 251.135 83.2373C250.884 83.0731 250.72 82.7908 250.72 82.4674Z" fill="#86BCFC"/>
<path d="M99.7621 166.426C97.0255 160.956 90.3664 158.738 84.8963 161.475C84.7449 161.551 84.6124 161.641 84.461 161.716C81.3791 157.235 75.3969 155.59 70.4 158.09C65.4031 160.59 63.1234 166.369 64.8708 171.517C64.7194 171.593 64.568 171.645 64.4165 171.721C58.9464 174.457 56.7285 181.116 59.4651 186.587C61.198 190.05 64.5017 192.208 68.0843 192.628C68.132 194.19 68.4967 195.77 69.2401 197.256C71.9767 202.726 78.6358 204.944 84.1059 202.207C86.6895 200.915 88.5347 198.738 89.4948 196.234C92.0694 196.981 94.9136 196.801 97.5067 195.503C102.977 192.767 105.195 186.107 102.458 180.637C101.715 179.152 100.669 177.912 99.4474 176.937C101.259 173.818 101.514 169.881 99.781 166.417L99.7621 166.426Z" fill="white"/>
<path d="M87.0348 174.427C86.1162 172.591 83.8729 171.843 82.0369 172.762C81.9896 172.786 81.9328 172.814 81.8855 172.838C80.8487 171.333 78.842 170.775 77.1574 171.618C75.4729 172.461 74.7161 174.401 75.2986 176.133C75.2513 176.157 75.204 176.18 75.1472 176.209C73.3112 177.127 72.564 179.371 73.4825 181.207C74.0649 182.371 75.1725 183.094 76.3793 183.236C76.3936 183.761 76.5168 184.291 76.7677 184.793C77.6862 186.629 79.9296 187.376 81.7656 186.458C82.6362 186.022 83.2513 185.288 83.5776 184.451C84.4485 184.701 85.3997 184.64 86.2703 184.204C88.1063 183.286 88.8535 181.042 87.935 179.206C87.6841 178.705 87.3338 178.288 86.922 177.962C87.5322 176.911 87.6171 175.591 87.0348 174.427Z" fill="#CDE7FC"/>
<path d="M328.484 86.4284C331.221 80.9583 337.88 78.7403 343.35 81.4769C343.501 81.5527 343.634 81.6426 343.785 81.7184C346.867 77.2374 352.849 75.5919 357.846 78.0918C362.843 80.5917 365.123 86.3706 363.375 91.5191C363.527 91.5948 363.678 91.6469 363.83 91.7227C369.3 94.4593 371.518 101.118 368.781 106.588C367.048 110.052 363.744 112.209 360.162 112.63C360.114 114.192 359.749 115.772 359.006 117.258C356.269 122.728 349.61 124.946 344.14 122.209C341.557 120.917 339.711 118.739 338.751 116.236C336.177 116.983 333.333 116.802 330.739 115.505C325.269 112.769 323.051 106.109 325.788 100.639C326.531 99.1535 327.577 97.9139 328.799 96.9393C326.987 93.8201 326.732 89.8827 328.465 86.4189L328.484 86.4284Z" fill="white"/>
<path d="M341.211 94.4286C342.13 92.5926 344.373 91.8454 346.209 92.7639C346.257 92.7876 346.313 92.816 346.361 92.8396C347.397 91.335 349.404 90.777 351.089 91.6198C352.773 92.4625 353.53 94.403 352.947 96.135C352.995 96.1586 353.042 96.1823 353.099 96.2107C354.935 97.1292 355.682 99.3726 354.764 101.209C354.181 102.373 353.074 103.096 351.867 103.238C351.853 103.763 351.729 104.293 351.478 104.795C350.56 106.631 348.317 107.378 346.481 106.46C345.61 106.024 344.995 105.29 344.668 104.453C343.798 104.703 342.846 104.642 341.976 104.206C340.14 103.287 339.393 101.044 340.311 99.2081C340.562 98.7066 340.912 98.2902 341.324 97.9637C340.714 96.913 340.629 95.5926 341.211 94.4286Z" fill="#86BCFC"/>
<path d="M187 263.561H80V301.561H187V263.561Z" fill="#C0F1FC"/>
<path d="M80.5648 263.526H74.9473V301.659H80.5648V263.526Z" fill="#4BABF9"/>
<path d="M192.998 263.526H187.381V301.659H192.998V263.526Z" fill="#4BABF9"/>
<path d="M115.129 263.526H109.512V301.659H115.129V263.526Z" fill="#4BABF9"/>
<path d="M157.817 263.526H152.199V301.659H157.817V263.526Z" fill="#4BABF9"/>
<path d="M213 259.561H64L78.4796 238.561H197.999L213 259.561Z" fill="#CDE7FC"/>
<path d="M202.797 233.58H75.4053C73.5246 233.58 72 235.105 72 236.985C72 238.866 73.5246 240.391 75.4053 240.391H202.797C204.678 240.391 206.203 238.866 206.203 236.985C206.203 235.105 204.678 233.58 202.797 233.58Z" fill="#4BABF9"/>
<path d="M220.121 257.439H57.4053C55.5246 257.439 54 258.964 54 260.845C54 262.725 55.5246 264.25 57.4053 264.25L220.121 264.25C222.001 264.25 223.526 262.725 223.526 260.845C223.526 258.964 222.001 257.439 220.121 257.439Z" fill="#4BABF9"/>
<path d="M228.31 313.979H38.9703C37.3298 313.979 36 315.309 36 316.95V321.03C36 322.671 37.3298 324 38.9703 324H228.31C229.95 324 231.28 322.671 231.28 321.03V316.95C231.28 315.309 229.95 313.979 228.31 313.979Z" fill="#4BABF9"/>
<path d="M210.076 306.164H57.2046C55.5642 306.164 54.2344 307.494 54.2344 309.134V311.347C54.2344 312.987 55.5642 314.317 57.2046 314.317H210.076C211.716 314.317 213.046 312.987 213.046 311.347V309.134C213.046 307.494 211.716 306.164 210.076 306.164Z" fill="#CDE7FC"/>
<path d="M196.83 299.414H70.4585C68.8181 299.414 67.4883 300.744 67.4883 302.384V303.232C67.4883 304.872 68.8181 306.202 70.4585 306.202H196.83C198.47 306.202 199.8 304.872 199.8 303.232V302.384C199.8 300.744 198.47 299.414 196.83 299.414Z" fill="white"/>
<path d="M125 287.561C125 284.799 127.239 282.561 130 282.561H138C140.761 282.561 143 284.799 143 287.561V299.561H125V287.561Z" fill="#86BCFC"/>
<rect x="117" y="267.561" width="34" height="10" rx="3" fill="white"/>
<path d="M126 275.561C127.657 275.561 129 274.217 129 272.561C129 270.904 127.657 269.561 126 269.561C124.343 269.561 123 270.904 123 272.561C123 274.217 124.343 275.561 126 275.561Z" fill="#4BABF9"/>
<path d="M134 275.561C135.657 275.561 137 274.217 137 272.561C137 270.904 135.657 269.561 134 269.561C132.343 269.561 131 270.904 131 272.561C131 274.217 132.343 275.561 134 275.561Z" fill="#4BABF9"/>
<path d="M142 275.561C143.657 275.561 145 274.217 145 272.561C145 270.904 143.657 269.561 142 269.561C140.343 269.561 139 270.904 139 272.561C139 274.217 140.343 275.561 142 275.561Z" fill="#4BABF9"/>
<path fill-rule="evenodd" clip-rule="evenodd" d="M195.75 205.865C195.754 205.854 195.758 205.844 195.762 205.833C201.312 191.081 208.282 176.418 219.622 165.399C224.172 160.981 229.852 157.05 236.222 157C247.142 156.921 254.152 166.769 258.392 175.396C259.882 178.434 261.302 181.501 262.642 184.599C265.332 190.803 267.722 197.127 269.802 203.56C271.559 208.979 273.095 214.809 271.656 220.299C282.631 227.549 291.478 237.813 296.251 249.841C303.841 268.962 300.701 291.507 289.041 308.463C276.251 327.057 253.321 328.516 231.921 328.754C216.581 328.923 200.751 325.359 188.681 316.176C169.271 301.414 163.201 273.518 171.841 251.102C174.66 243.792 178.947 237.089 184.292 231.279C182.815 225.411 179.918 211.16 184.992 205.834C187.368 203.34 191.489 204.015 195.75 205.865Z" fill="#1699F2" fill-opacity="0.6"/>
</g>
<defs>
<clipPath id="clip0_370_81872">
<rect width="360" height="345" fill="white"/>
</clipPath>
</defs>
</svg>
