<svg width="360" height="345" viewBox="0 0 360 345" fill="none" xmlns="http://www.w3.org/2000/svg">
<g clip-path="url(#clip0_370_81876)">
<path d="M142.317 278.642C142.233 278.515 142.094 278.433 141.942 278.421C137.947 278.095 132.387 278.593 127.93 281.858C123.816 284.872 120.734 290.176 120.61 299.101C119.208 296.192 116.985 292.618 113.979 289.435C110.104 285.33 104.892 281.836 98.4314 281.31C98.2365 281.294 98.0503 281.393 97.9547 281.564C96.1779 284.732 94.4599 289.817 94.9061 295.047C95.281 299.442 97.1854 303.919 101.81 307.412C101.125 307.283 100.419 307.197 99.7085 307.171C97.676 307.096 95.5702 307.517 93.8356 308.897C93.6694 309.029 93.6049 309.252 93.6747 309.452C94.3908 311.509 96.0084 314.406 98.56 316.428C100.696 318.121 103.482 319.195 106.895 318.656C105.121 320.175 103.121 322.075 101.609 323.918C100.599 325.15 99.7738 326.396 99.4026 327.512C99.216 328.073 99.1326 328.634 99.2263 329.159C99.3227 329.699 99.6009 330.168 100.073 330.527C100.545 330.888 100.936 331.163 101.259 331.361C101.575 331.554 101.858 331.693 102.11 331.754C102.372 331.817 102.682 331.812 102.934 331.594C103.154 331.405 103.227 331.136 103.261 330.951C103.298 330.753 103.311 330.522 103.323 330.31L103.325 330.274C103.336 330.062 103.348 329.849 103.374 329.63C103.43 329.167 103.547 328.731 103.822 328.371C104.516 327.46 105.936 325.759 107.346 324.231C108.005 323.516 108.657 322.846 109.228 322.314C108.904 323.33 108.722 324.53 108.87 325.784C109.124 327.943 110.353 330.199 113.378 331.895C113.509 331.968 113.666 331.979 113.806 331.924C115 331.454 116.716 329.912 117.202 326.979C117.909 328.972 118.917 331.155 120.262 333.158C122.575 336.6 125.934 339.572 130.535 340.019C130.697 340.035 130.856 339.971 130.962 339.848C132.377 338.211 134.011 335.346 134.426 331.96C134.724 329.531 134.391 326.844 132.917 324.172C135.718 326.087 139.228 327.659 142.848 328.017C145.42 328.272 148.059 327.914 150.531 326.619C153.003 325.324 155.274 323.109 157.141 319.705C157.198 319.601 157.216 319.479 157.192 319.363C156.343 315.27 153.71 311.146 149.258 308.589C145.651 306.517 140.88 305.491 134.947 306.308C138.097 304.503 141.34 301.758 143.494 298.246C145.064 295.689 146.061 292.717 146.013 289.407C145.965 286.097 144.872 282.483 142.317 278.642Z" fill="#FFF0B0" stroke="#FFF0B0" stroke-linejoin="round"/>
<path d="M178.403 279.398C178.291 279.293 178.138 279.245 177.987 279.268C174.22 279.832 169.181 281.497 165.762 285.487C162.618 289.156 160.917 294.704 162.699 302.931C160.774 300.561 157.968 297.775 154.538 295.507C150.064 292.549 144.482 290.444 138.388 291.358C138.194 291.387 138.036 291.526 137.981 291.714C137.024 295.031 136.536 300.109 138.082 304.854C139.374 308.817 142.082 312.526 147.058 314.763C146.43 314.795 145.794 314.866 145.165 314.989C143.266 315.361 141.404 316.208 140.095 317.866C139.963 318.032 139.951 318.264 140.065 318.443C141.174 320.193 143.3 322.524 146.102 323.844C148.427 324.939 151.214 325.332 154.227 324.133C152.93 325.909 151.516 328.069 150.53 330.074C149.863 331.433 149.368 332.767 149.266 333.883C149.214 334.444 149.259 334.986 149.461 335.457C149.67 335.941 150.033 336.318 150.553 336.551C151.068 336.782 151.489 336.952 151.832 337.066C152.167 337.176 152.462 337.245 152.712 337.247C152.972 337.248 153.267 337.175 153.46 336.91C153.627 336.68 153.636 336.408 153.628 336.228C153.619 336.035 153.581 335.817 153.545 335.619L153.54 335.586C153.504 335.387 153.469 335.188 153.446 334.981C153.397 334.543 153.412 334.12 153.585 333.733C154.03 332.742 154.973 330.863 155.946 329.145C156.381 328.376 156.819 327.647 157.217 327.046C157.15 328.036 157.249 329.152 157.645 330.247C158.351 332.196 159.982 334.021 163.153 334.936C163.297 334.978 163.452 334.953 163.576 334.867C164.574 334.177 165.813 332.404 165.662 329.634C166.741 331.302 168.128 333.071 169.78 334.608C172.666 337.292 176.422 339.318 180.783 338.734C180.944 338.712 181.084 338.614 181.159 338.47C182.115 336.647 183.007 333.639 182.657 330.414C182.409 328.126 181.536 325.739 179.64 323.604C182.627 324.746 186.176 325.421 189.568 324.973C192.005 324.651 194.372 323.747 196.381 322.011C198.391 320.275 200.013 317.731 201.003 314.176C201.035 314.061 201.025 313.939 200.975 313.831C199.301 310.225 195.969 306.977 191.293 305.575C187.531 304.447 182.934 304.522 177.672 306.519C180.162 304.174 182.523 300.964 183.741 297.293C184.64 294.585 184.919 291.617 184.157 288.562C183.395 285.507 181.6 282.398 178.403 279.398Z" fill="white" stroke="white" stroke-linejoin="round"/>
<path d="M111.608 329.912C111.754 329.869 111.873 329.761 111.931 329.619C114.739 322.644 116.925 312.455 113.585 302.726C110.392 293.422 102.186 284.655 84.9507 279.521C91.178 278.804 99.7402 276.79 107.973 272.763C117.492 268.106 126.617 260.733 131.137 249.509C131.21 249.328 131.171 249.121 131.036 248.979C126.362 244.042 118.228 238.147 108.652 236.041C100.098 234.159 90.4168 235.309 81.0814 242.808C82.1291 241.127 83.0759 239.272 83.7632 237.318C85.0155 233.759 85.417 229.839 83.9506 226.064C83.8737 225.866 83.6801 225.738 83.4679 225.745C79.417 225.881 73.3722 227.157 68.3785 230.566C63.8578 233.652 60.2076 238.484 59.6888 245.739C57.8955 241.382 55.3208 235.972 52.5344 231.741C50.8873 229.239 49.1384 227.107 47.4023 225.859C46.5314 225.234 45.635 224.81 44.7331 224.697C43.8166 224.582 42.9268 224.792 42.1029 225.377C41.1931 226.023 40.4918 226.563 39.9699 227.021C39.4543 227.474 39.0858 227.869 38.8707 228.23C38.6507 228.598 38.5508 229.004 38.7233 229.401C38.8784 229.757 39.2056 229.981 39.4997 230.136C39.806 230.298 40.1868 230.441 40.5687 230.583L40.6355 230.607C41.0088 230.746 41.3995 230.891 41.794 231.068C42.6298 231.443 43.4326 231.94 43.9945 232.731C45.2561 234.508 47.5354 238.034 49.5071 241.447C50.4928 243.152 51.3968 244.821 52.057 246.223C52.2891 246.716 52.4894 247.173 52.6519 247.583C50.8897 246.045 48.3684 244.539 45.3841 243.983C41.4939 243.258 36.8765 244.159 32.2175 248.571C32.1085 248.674 32.0517 248.821 32.0627 248.971C32.2468 251.477 34.3633 255.965 40.6705 258.306C36.2533 258.323 30.979 258.868 25.8973 260.384C18.4581 262.604 11.355 266.932 8.0376 274.811C7.97464 274.96 7.98816 275.131 8.07386 275.269C10.1951 278.679 14.3834 283.168 20.1637 285.774C24.8094 287.869 30.4719 288.74 36.881 286.875C31.2992 290.886 25.7261 296.789 22.7771 303.758C20.9017 308.19 20.0844 313.062 21.015 318.149C21.9459 323.236 24.6183 328.499 29.6605 333.724C29.7431 333.809 29.8535 333.863 29.9718 333.874C37.7111 334.628 46.5007 332.231 53.5136 325.726C59.6274 320.056 64.3612 311.293 65.8989 298.848C67.088 306.1 70.3067 314.61 76.0432 321.167C79.729 325.379 84.4609 328.793 90.365 330.537C96.27 332.281 103.314 332.345 111.608 329.912Z" fill="#FFAF22" stroke="#FFAF22" stroke-linejoin="round"/>
<path d="M56.2717 246.274C68.7551 284.267 98.6065 305.435 98.6065 323.345" stroke="#FFC931" stroke-width="2" stroke-linecap="round" stroke-linejoin="round"/>
<path d="M19.3645 273.412C29.1341 274.317 51.1698 272.652 61.1565 258.758" stroke="#FFC931" stroke-width="2" stroke-linecap="round" stroke-linejoin="round"/>
<path d="M36.7327 321.175C41.2556 307.968 53.9922 280.143 68.7551 274.498" stroke="#FFC931" stroke-width="2" stroke-linecap="round" stroke-linejoin="round"/>
<path d="M65.4985 265.271C76.5345 258.216 103.491 245.407 123.03 250.617" stroke="#FFC931" stroke-width="2" stroke-linecap="round" stroke-linejoin="round"/>
<path d="M60.6138 254.416C63.6894 248.084 72.0116 234.225 80.6956 229.449" stroke="#FFC931" stroke-width="2" stroke-linecap="round" stroke-linejoin="round"/>
<path d="M87.2087 254.959C93.5409 255.864 107.399 258.867 112.175 263.643" stroke="#FFC931" stroke-width="2" stroke-linecap="round" stroke-linejoin="round"/>
<path d="M26.4202 309.777C28.2293 305.977 35.2128 297.836 48.6731 295.665" stroke="#FFC931" stroke-width="2" stroke-linecap="round" stroke-linejoin="round"/>
<path d="M82.8661 293.494C80.1524 295.303 75.4847 300.767 78.5241 308.148" stroke="#FFC931" stroke-width="2" stroke-linecap="round" stroke-linejoin="round"/>
<path d="M90.4651 303.807C94.8071 301.636 104.468 300.767 108.376 314.662" stroke="#FFC931" stroke-width="2" stroke-linecap="round" stroke-linejoin="round"/>
<path d="M32.9333 280.468C34.0189 280.107 36.8412 277.972 39.4464 272.327" stroke="#FFC931" stroke-width="2" stroke-linecap="round" stroke-linejoin="round"/>
<path d="M26.9629 264.728C33.6568 263.462 48.2388 262.014 53.015 266.356" stroke="#FFC931" stroke-width="2" stroke-linecap="round" stroke-linejoin="round"/>
<path d="M306.675 68.3399C306.528 68.3826 306.409 68.4903 306.351 68.6321C304.247 73.819 302.594 81.414 305.069 88.6845C307.403 95.5399 313.367 101.994 325.785 105.869C321.207 106.448 315.116 107.929 309.245 110.782C302.152 114.23 295.334 119.706 291.941 128.069C291.867 128.25 291.906 128.458 292.04 128.6C295.514 132.288 301.564 136.696 308.7 138.285C314.914 139.668 321.93 138.906 328.735 133.721C328.095 134.81 327.522 135.986 327.087 137.215C326.143 139.874 325.831 142.817 326.927 145.659C327.004 145.857 327.197 145.986 327.409 145.979C330.435 145.886 334.95 144.945 338.689 142.407C341.97 140.18 344.643 136.725 345.178 131.587C346.492 134.74 348.31 138.529 350.274 141.528C351.495 143.392 352.799 144.995 354.105 145.938C354.761 146.412 355.446 146.74 356.144 146.83C356.856 146.921 357.55 146.758 358.189 146.307C358.867 145.828 359.393 145.425 359.786 145.082C360.172 144.745 360.459 144.441 360.63 144.157C360.805 143.864 360.899 143.517 360.749 143.17C360.616 142.863 360.34 142.679 360.116 142.56C359.88 142.435 359.59 142.325 359.308 142.22L359.259 142.201C358.982 142.097 358.696 141.99 358.407 141.86C357.797 141.585 357.226 141.226 356.829 140.664C355.898 139.347 354.215 136.728 352.759 134.194C352.032 132.927 351.366 131.69 350.88 130.652C350.796 130.472 350.718 130.299 350.646 130.133C351.935 131.168 353.669 132.127 355.689 132.509C358.619 133.063 362.09 132.388 365.585 129.095C365.695 128.992 365.752 128.845 365.741 128.695C365.611 126.864 364.144 123.699 359.893 121.881C363.043 121.828 366.707 121.413 370.248 120.366C375.795 118.727 381.118 115.509 383.616 109.617C383.68 109.467 383.667 109.296 383.581 109.158C382.002 106.605 378.883 103.245 374.569 101.287C371.261 99.785 367.26 99.114 362.744 100.25C366.719 97.2857 370.614 93.0592 372.728 88.0985C374.137 84.7927 374.758 81.1515 374.072 77.3448C373.385 73.5373 371.397 69.6024 367.649 65.6989C367.567 65.6131 367.456 65.5595 367.338 65.5477C361.559 64.97 354.992 66.744 349.745 71.5857C345.307 75.681 341.841 81.9439 340.571 90.7684C339.597 85.5489 337.245 79.5911 333.195 74.9385C330.453 71.7885 326.926 69.23 322.52 67.9162C318.112 66.6021 312.857 66.5432 306.675 68.3399Z" fill="#FFAF22" stroke="#FFAF22" stroke-linejoin="round"/>
<path d="M347.635 130.659C338.439 102.43 316.317 86.6584 316.351 73.3613" stroke="#FFF0B0" stroke-width="2" stroke-linecap="round" stroke-linejoin="round"/>
<path d="M375.087 110.583C367.835 109.893 351.473 111.087 344.032 121.384" stroke="#FFF0B0" stroke-width="2" stroke-linecap="round" stroke-linejoin="round"/>
<path d="M362.281 75.091C358.898 84.8874 349.389 105.521 338.419 109.684" stroke="#FFF0B0" stroke-width="2" stroke-linecap="round" stroke-linejoin="round"/>
<path d="M340.823 116.539C332.617 121.757 312.58 131.215 298.084 127.31" stroke="#FFF0B0" stroke-width="2" stroke-linecap="round" stroke-linejoin="round"/>
<path d="M324.687 124.153C319.987 123.47 309.705 121.214 306.168 117.659" stroke="#FFF0B0" stroke-width="2" stroke-linecap="round" stroke-linejoin="round"/>
<path d="M327.98 95.5544C329.998 94.2164 333.473 90.1689 331.231 84.6831" stroke="#FFF0B0" stroke-width="2" stroke-linecap="round" stroke-linejoin="round"/>
<path d="M322.358 87.8837C319.131 89.4873 311.957 90.1137 309.082 79.791" stroke="#FFF0B0" stroke-width="2" stroke-linecap="round" stroke-linejoin="round"/>
<path d="M365.028 105.319C364.221 105.586 362.122 107.165 360.177 111.351" stroke="#FFF0B0" stroke-width="2" stroke-linecap="round" stroke-linejoin="round"/>
<rect x="315" y="126" width="68" height="68" rx="34" fill="white"/>
<rect x="279" y="90" width="24" height="24" rx="12" fill="white"/>
<rect x="287.164" y="92.8105" width="5.4166" height="6.77075" rx="2.7083" transform="rotate(44.4147 287.164 92.8105)" fill="#FFF0B0"/>
<rect x="334" y="187" width="36" height="36" rx="18" fill="#FFF0B0"/>
<rect x="347.135" y="191.002" width="9.09882" height="12.9556" rx="4.54941" transform="rotate(34.6308 347.135 191.002)" fill="#FFC931"/>
<rect x="336.328" y="133" width="12.5522" height="16.7363" rx="6.27611" transform="rotate(33.8752 336.328 133)" fill="#FFC931"/>
<rect x="325.674" y="152" width="6.4162" height="6.59037" rx="3.2081" transform="rotate(33.8752 325.674 152)" fill="#FFC931"/>
<rect x="306.82" y="145" width="5.41819" height="14.0471" rx="2.7091" transform="rotate(79.6679 306.82 145)" fill="#FFF0B0"/>
<rect x="307.165" y="154" width="5.41819" height="18.8625" rx="2.7091" transform="rotate(36.288 307.165 154)" fill="#FFAF22"/>
<rect x="287.082" y="117" width="5.41819" height="15.1402" rx="2.7091" transform="rotate(84.9602 287.082 117)" fill="#FFAF22"/>
<rect x="315.577" y="194.149" width="5.41819" height="25.352" rx="2.7091" transform="rotate(172.745 315.577 194.149)" fill="#FFC931"/>
<rect x="346.158" y="65.4805" width="5.41819" height="40.1202" rx="2.7091" transform="rotate(-173.102 346.158 65.4805)" fill="#FFC931"/>
<rect x="339.779" y="64.6904" width="5.41819" height="15.7781" rx="2.7091" transform="rotate(158.697 339.779 64.6904)" fill="#FFF0B0"/>
<rect x="165.759" y="306.438" width="28.2112" height="28.2112" rx="14.1056" transform="rotate(116.163 165.759 306.438)" fill="#FFAF22"/>
<rect x="165.758" y="275.169" width="16.2572" height="16.2572" rx="8.12861" transform="rotate(116.163 165.758 275.169)" fill="#FFAF22"/>
<rect x="132.758" y="273.216" width="7.29174" height="7.29174" rx="3.64587" transform="rotate(116.163 132.758 273.216)" fill="#FFAF22"/>
<rect x="124.239" y="278.692" width="10.6392" height="10.6392" rx="5.3196" transform="rotate(116.163 124.239 278.692)" fill="white"/>
<rect x="129.545" y="297.769" width="15.3497" height="15.3497" rx="7.67483" transform="rotate(116.163 129.545 297.769)" fill="white"/>
<rect x="124.549" y="298.527" width="3.46429" height="4.33036" rx="1.73214" transform="rotate(136.234 124.549 298.527)" fill="#FFAF22"/>
<rect x="121.205" y="213.998" width="25.8177" height="25.8177" rx="12.9088" transform="rotate(125.933 121.205 213.998)" fill="white"/>
<rect x="112.019" y="213.23" width="6.52529" height="9.29117" rx="3.26264" transform="rotate(140.195 112.019 213.23)" fill="#FFC931"/>
<rect x="157.059" y="307.176" width="7.69396" height="10.2586" rx="3.84698" transform="rotate(127.55 157.059 307.176)" fill="white"/>
<rect x="160.745" y="275.594" width="4.43379" height="5.91172" rx="2.21689" transform="rotate(127.55 160.745 275.594)" fill="white"/>
<rect x="130.51" y="273.406" width="1.98866" height="2.65154" rx="0.994329" transform="rotate(127.55 130.51 273.406)" fill="white"/>
<rect x="120.959" y="278.971" width="2.9016" height="3.8688" rx="1.4508" transform="rotate(127.55 120.959 278.971)" fill="#FFF0B0"/>
<rect x="87.738" y="219.148" width="5.41819" height="14.0471" rx="2.7091" transform="rotate(149.864 87.738 219.148)" fill="#FFF0B0"/>
<rect x="119.398" y="227.437" width="5.41819" height="14.0471" rx="2.7091" transform="rotate(-94.219 119.398 227.437)" fill="#FFF0B0"/>
<rect x="120.761" y="218.433" width="5.41819" height="14.0471" rx="2.7091" transform="rotate(-125.85 120.761 218.433)" fill="#FFAF22"/>
<rect x="127.052" y="233.816" width="5.41819" height="14.0471" rx="2.7091" transform="rotate(110.053 127.052 233.816)" fill="#FFC931"/>
<rect x="157.316" y="240" width="5.41819" height="35.262" rx="2.7091" transform="rotate(39.2622 157.316 240)" fill="#FFAF22"/>
<rect x="84.8416" y="194.783" width="5.41819" height="14.0471" rx="2.7091" transform="rotate(-8.31608 84.8416 194.783)" fill="#FFAF22"/>
<path fill-rule="evenodd" clip-rule="evenodd" d="M168.581 263.466C168.351 263.324 168.136 263.141 167.943 262.913C167.903 262.863 167.863 262.814 167.823 262.774C163.023 257.008 164.523 247.876 170.963 244.31C170.983 244.3 171.006 244.288 171.028 244.275C171.051 244.263 171.073 244.251 171.093 244.241C171.093 244.241 164.723 234.511 174.743 229.651C174.743 229.651 166.983 213.438 181.503 207.523C181.503 207.523 182.383 189.886 200.893 193.312C200.893 193.312 198.743 186.37 205.713 185.106C205.713 185.106 205.263 173.882 214.793 169.6C224.343 165.318 248.733 165.178 258.523 178.105C258.523 178.105 262.323 183.891 263.223 186.848C263.223 186.848 268.923 182.865 274.043 186.301C280.153 190.404 276.523 197.723 276.523 197.723C276.523 197.723 293.243 200.452 293.613 222.033C293.613 222.033 310.013 227.649 302.763 247.587C302.763 247.587 307.773 258.84 298.353 264.726C298.338 264.735 298.324 264.744 298.309 264.753C301.574 281.378 297.759 299.284 288.114 313.354C275.324 332.007 252.394 333.471 230.994 333.71C227.971 333.743 224.929 333.631 221.9 333.359L222.023 343.34C222.033 344.057 222.033 344.813 221.573 345.441C220.953 346.287 219.683 346.656 218.503 346.925C211.723 348.448 204.373 348.339 197.673 346.636C196.863 346.437 196.023 346.188 195.473 345.68C194.883 345.142 194.713 344.395 194.573 343.698C193.693 339.207 193.383 334.636 193.653 330.094C193.676 329.698 193.686 329.27 193.697 328.822L193.697 328.822C193.724 327.671 193.753 326.392 194.02 325.202C191.842 323.98 189.746 322.613 187.754 321.092C170.495 307.925 163.783 284.34 168.581 263.466Z" fill="#FFAF22" fill-opacity="0.7"/>
</g>
<defs>
<clipPath id="clip0_370_81876">
<rect width="360" height="345" fill="white"/>
</clipPath>
</defs>
</svg>
