<svg width="100%" height="100%" viewBox="0 0 170 154" fill="none" xmlns="http://www.w3.org/2000/svg">
<g clip-path="url(#clip0_113_23992)">
<path d="M18.1703 31.0003C13.4703 22.6003 4.33026 23.4603 3.22026 23.6003C2.11026 23.7403 0.130263 24.0803 0.000263381 26.7803C-0.119737 29.4803 2.39026 29.2703 2.39026 29.2703H5.68026C10.8703 29.7603 11.1203 31.8703 11.1203 31.8703C11.1203 31.8703 3.78026 34.6803 2.72026 40.0303C1.97026 43.7903 2.78026 49.2603 7.53026 51.4503C12.6103 53.7903 17.0503 49.1703 17.0503 49.1703C20.7603 44.9703 20.5103 40.0303 20.5103 40.0303C24.7103 43.2403 26.2203 46.5203 26.2203 46.5203C26.8903 44.8403 29.0603 40.6903 29.0603 40.6903C27.2003 37.3003 18.1603 31.0103 18.1603 31.0103L18.1703 31.0003ZM13.0503 45.3003C12.0103 46.1703 8.28026 47.1303 7.91026 43.6703C7.40026 38.9103 14.3203 37.5103 14.3203 37.5103C15.5903 41.5803 14.0903 44.4403 13.0503 45.3003Z" fill="#FFAF22"/>
<path d="M158.36 41.1902C156.96 41.1402 156.39 41.0402 156.39 41.0402L153.75 40.5502C147.8 26.3202 131.82 17.1102 131.82 17.1102C130.93 14.1902 131.32 8.95017 131.32 8.95017C131.58 2.18017 128.62 0.570171 128.62 0.570171C124.75 -1.37983 116.01 4.67017 116.01 4.67017C116.47 -3.50983 108.65 1.54017 108.65 1.54017C98.6399 7.29017 93.2999 19.4202 93.2999 19.4202L60.6499 19.2402C35.2599 20.4802 22.3899 49.0002 22.3899 49.0002C16.9699 56.7002 13.3099 92.3702 31.2899 115.2C49.2699 138.02 89.3099 137.53 89.3099 137.53C131.19 142.23 146.7 119.3 146.7 119.3C154.55 107.48 155.01 94.0702 160.82 81.2902C162.52 77.5502 164.31 72.8002 166.36 69.2402C167.26 67.6902 167.98 67.6602 167.98 67.6602L158.35 41.2102L158.36 41.1902Z" fill="#FFF0B0"/>
<path d="M61.5398 120.74C61.5398 120.74 56.3298 115.02 49.4898 124.62C49.4898 124.62 44.4898 129.83 41.4598 131.95C38.4198 134.07 33.1798 137.84 40.0498 145.48C45.9298 152.02 54.3098 145.48 58.0498 141.74C61.7898 138 66.3498 133.31 66.3498 133.31C66.3498 133.31 69.1898 126.11 61.5398 120.74Z" fill="#FFAF22"/>
<path d="M116.81 135.79C116.81 135.79 117.9 138.04 120.64 137.54C123.38 137.04 125.26 136.7 125.26 136.7C125.26 136.7 126.83 136.55 126.86 138.59C126.95 145.05 127.37 148.03 133.33 148.03C142.29 148.03 142.34 145.96 142.29 138.59C142.27 134.94 142.41 130.53 140.01 127.16C138.63 125.23 135.4 124.08 133.03 123.86C126.83 123.29 112.43 123.22 116.8 135.78L116.81 135.79Z" fill="#FFAF22"/>
<path d="M159.241 41.5601C159.441 41.6601 159.641 41.7801 159.821 41.9001C163.361 44.2401 165.941 47.8101 167.801 51.6301C168.381 52.8201 168.901 54.0501 169.221 55.3401C169.611 56.8801 169.711 58.4801 169.691 60.0701C169.661 61.9501 169.441 63.8201 169.051 65.6501C168.791 66.8701 167.971 68.1801 166.511 67.7401C165.901 67.5601 165.401 67.1301 164.931 66.7001C161.331 63.4001 158.311 59.3401 156.841 54.6801C155.701 51.0601 155.531 47.1401 156.341 43.4301C156.521 42.5801 156.871 41.6301 157.681 41.3501C158.191 41.1701 158.731 41.3201 159.231 41.5701L159.241 41.5601Z" fill="#FFC931"/>
<path d="M115.941 4.65018C115.881 4.92018 115.811 5.18018 115.741 5.43018C114.361 10.0702 114.111 15.0402 115.021 19.8002C115.331 21.4202 115.771 23.1002 115.331 24.6802C114.751 26.7602 112.831 28.1402 111.031 29.3402L108.071 31.3202C107.271 31.8602 106.251 32.4102 105.411 31.9402C104.841 31.6202 104.581 30.9502 104.401 30.3202C101.631 21.0802 103.771 7.73018 112.751 2.35018C113.541 1.88018 114.571 1.49018 115.351 1.99018C116.181 2.52018 116.161 3.62018 115.941 4.64018V4.65018Z" fill="#FFC931"/>
<path d="M128.27 2.58008C127.48 2.58008 126.7 2.99008 126.13 3.56008C125.45 4.24008 125.02 5.12008 124.64 6.00008C123.48 8.71008 122.82 11.5401 122.35 14.4301C122.25 15.0301 122.3 15.7201 122.74 16.1501C123.13 16.5301 123.71 16.6001 124.25 16.6501C126.79 16.8801 129.33 17.0401 131.87 17.1201C131.42 15.0601 131.23 12.9501 131.3 10.8501C131.36 9.04008 131.6 7.20008 131.17 5.44008C130.85 4.17008 130.03 2.87008 128.74 2.63008C128.59 2.60008 128.43 2.59008 128.28 2.59008L128.27 2.58008Z" fill="#FFC931"/>
<path d="M63.4803 23.67C62.8903 23.68 62.3003 23.69 61.7103 23.71C60.8203 23.73 59.9003 23.76 59.1003 24.15C58.0103 24.68 56.5303 26.64 58.1003 27.52C58.6103 27.81 59.2303 27.82 59.8103 27.83C61.2703 27.84 62.7303 27.84 64.1903 27.84H82.0203C82.7703 27.84 83.6303 27.79 84.0703 27.19C84.6203 26.45 84.1803 25.42 83.7303 24.61C83.5503 24.28 83.3403 23.94 83.0103 23.77C82.7703 23.65 82.4903 23.65 82.2303 23.64C75.9803 23.54 69.7203 23.55 63.4703 23.67H63.4803Z" fill="#FED752"/>
<path d="M158.96 48.4702C158.96 48.4702 156.57 46.3602 158.01 51.5402C159.44 56.7202 161.49 60.4702 163.67 61.2902C163.67 61.2902 165.02 62.0902 164.03 58.1902C163.44 55.8702 162.46 53.6702 161.22 51.6202C160.5 50.4302 159.67 49.1902 158.97 48.4802L158.96 48.4702Z" fill="#FFF4C7"/>
<path d="M162.98 47.2803C162.98 47.2803 160.79 45.3403 162.1 50.0903C163.41 54.8403 165.29 58.2803 167.29 59.0303C167.29 59.0303 168.53 59.7603 167.62 56.1803C167.08 54.0503 166.18 52.0303 165.04 50.1503C164.38 49.0603 163.62 47.9203 162.98 47.2703V47.2803Z" fill="#FFF4C7"/>
<path d="M116.041 126.03C116.041 126.03 110.831 120.31 103.991 129.91C103.991 129.91 98.9908 135.12 95.9608 137.24C92.9208 139.36 87.6808 143.13 94.5508 150.77C100.431 157.31 108.811 150.77 112.551 147.03C116.291 143.29 120.851 138.6 120.851 138.6C120.851 138.6 123.691 131.4 116.041 126.03Z" fill="#FFC931"/>
<path d="M58.7399 125.54C58.7399 125.54 51.4099 129.77 54.0199 134.66C56.6299 139.55 62.4899 138.79 63.6199 138.6C64.7499 138.41 67.5299 137.92 67.8499 140.36C68.1799 142.8 66.6699 149.56 74.7099 149.5C85.1299 149.42 82.8499 143.94 83.3399 139.71C83.8299 135.48 81.1999 126.2 73.2199 124.08C65.2399 121.96 58.7299 125.55 58.7299 125.55L58.7399 125.54Z" fill="#FFC931"/>
<path d="M137.56 51.9701C140.366 51.9701 142.64 49.6957 142.64 46.8901C142.64 44.0845 140.366 41.8101 137.56 41.8101C134.755 41.8101 132.48 44.0845 132.48 46.8901C132.48 49.6957 134.755 51.9701 137.56 51.9701Z" fill="#2B110C"/>
<path d="M140.37 45.8501C140.784 45.8501 141.12 45.5143 141.12 45.1001C141.12 44.6859 140.784 44.3501 140.37 44.3501C139.956 44.3501 139.62 44.6859 139.62 45.1001C139.62 45.5143 139.956 45.8501 140.37 45.8501Z" fill="white"/>
<path fill-rule="evenodd" clip-rule="evenodd" d="M137.574 69.1004C137.574 69.1004 137.574 69.1004 137.574 69.1005C137.574 69.1011 137.574 69.1022 137.575 69.1039C137.578 69.1091 137.584 69.1195 137.593 69.1348C137.611 69.1653 137.64 69.2149 137.682 69.2807C137.766 69.4122 137.899 69.6073 138.085 69.8417C138.458 70.3112 139.037 70.9317 139.853 71.5158C141.462 72.6684 144.049 73.7234 147.933 73.1026C148.478 73.0154 148.991 73.3868 149.078 73.9322C149.165 74.4775 148.794 74.9903 148.248 75.0775C143.812 75.7866 140.699 74.5817 138.688 73.1418C137.694 72.4296 136.983 71.6707 136.519 71.0849C136.286 70.7916 136.113 70.5401 135.996 70.3569C135.938 70.2653 135.893 70.1905 135.862 70.136C135.846 70.1087 135.833 70.0865 135.824 70.0697L135.813 70.0486L135.809 70.0412L135.807 70.0383L135.806 70.037C135.806 70.0364 135.806 70.0359 136.691 69.57L135.806 70.0359C135.548 69.5472 135.736 68.9425 136.225 68.6852C136.712 68.4285 137.315 68.6145 137.574 69.1004ZM137.574 69.1004C137.573 69.1001 137.573 69.1 137.573 69.1L137.574 69.1004ZM137.573 69.1L137.573 69.1L137.573 69.1Z" fill="#FFAF22"/>
</g>
<defs>
<clipPath id="clip0_113_23992">
<rect width="169.68" height="153.56" fill="white"/>
</clipPath>
</defs>
</svg>
