<svg width="100%" height="100%" viewBox="0 0 157 188" fill="none" xmlns="http://www.w3.org/2000/svg">
<g clip-path="url(#clip0_113_23999)">
<path d="M124.622 88.7598C124.622 88.7598 129.352 96.2298 130.072 101.35C130.072 101.35 135.052 105.51 137.642 108.61L134.522 98.2298C134.522 98.2298 128.652 91.1098 124.632 88.7598H124.622Z" fill="#4BABF9"/>
<path d="M117.092 65.2698C123.102 67.6998 129.292 70.2398 133.882 74.8298C135.072 76.0198 136.182 77.4298 136.432 79.0898C136.662 80.6598 136.102 82.2498 135.252 83.5998C133.962 85.6598 132.042 87.2298 129.922 88.3998C128.622 89.1198 124.692 91.4598 123.522 90.0898L113.102 77.8498C112.962 77.6898 112.822 77.5198 112.782 77.3098C112.742 77.0998 112.822 76.8798 112.892 76.6698L117.082 65.2598L117.092 65.2698Z" fill="#1699F2"/>
<path d="M142.793 127.61C143.543 127.53 144.293 127.47 145.053 127.43C145.693 127.39 146.053 127.31 146.683 127.22C147.123 127.16 148.273 126.87 148.683 126.71C150.693 125.91 152.133 124.79 153.573 123.17C153.673 123.06 153.773 122.94 153.873 122.82C154.373 122.22 154.833 121.54 154.953 120.76C155.073 119.98 154.723 119.09 154.003 118.79C153.383 118.53 152.653 118.75 152.113 119.15C151.573 119.55 151.173 120.1 150.723 120.6C149.993 121.42 149.113 122.12 148.153 122.65C147.633 122.94 147.033 123.18 146.453 123.11C146.253 123.09 146.113 122.91 146.143 122.71C146.333 121.5 146.663 120.32 146.863 119.12C147.083 117.81 147.143 116.44 146.693 115.19C146.143 113.66 144.853 112.46 143.373 111.77C141.903 111.08 140.173 110.85 138.653 111.4C136.653 112.13 135.303 114.1 134.823 116.17C134.163 119 134.963 122.14 136.893 124.31C136.993 124.42 136.943 124.6 136.793 124.63C134.903 125.07 132.933 125.13 131.023 124.81C130.813 125.31 130.513 127.29 130.913 128.57C130.953 128.71 131.013 128.86 131.133 128.95C131.233 129.02 132.663 129.1 132.783 129.1C134.783 129.21 136.763 128.98 138.683 128.41C140.033 128.01 141.413 127.77 142.803 127.62L142.793 127.61ZM138.543 117.75C138.543 117.75 138.543 117.69 138.543 117.66C138.563 117.02 138.713 116.37 139.063 115.83C139.413 115.29 139.983 114.88 140.623 114.81C141.103 114.76 141.603 114.91 141.993 115.2C142.383 115.49 142.683 115.9 142.853 116.35C143.123 117.05 143.113 117.84 143.013 118.58C142.863 119.64 142.533 120.66 142.043 121.61C141.943 121.8 141.803 122.06 141.593 122.15C141.383 122.24 141.063 122.07 140.873 121.97C140.113 121.56 139.503 120.92 139.093 120.16C138.683 119.4 138.523 118.6 138.533 117.77L138.543 117.75Z" fill="#4BABF9"/>
<path d="M37.5925 153.04C35.6225 154.87 35.9225 158.24 35.7925 160.5C35.5425 164.82 35.8225 169.16 36.6325 173.44C36.7625 174.11 36.9125 174.81 37.4525 175.32C37.9625 175.8 38.7225 176.04 39.4625 176.23C45.5925 177.85 52.3125 177.95 58.5125 176.51C59.5925 176.26 60.7525 175.9 61.3225 175.1C61.7425 174.51 61.7425 173.79 61.7325 173.1L61.5125 154.53C61.5125 153.87 61.4725 153.15 60.9725 152.63C60.2925 151.92 59.0325 151.85 57.9325 151.84L43.4925 151.68C42.1525 151.67 40.7925 151.65 39.5225 152C38.7025 152.23 38.0725 152.59 37.5825 153.05L37.5925 153.04Z" fill="#4BABF9"/>
<path d="M117.333 151.83C119.303 153.66 119.003 157.03 119.133 159.29C119.383 163.61 119.103 167.95 118.293 172.23C118.163 172.9 118.013 173.6 117.473 174.11C116.963 174.59 116.203 174.83 115.463 175.02C109.333 176.64 102.613 176.74 96.4129 175.3C95.3329 175.05 94.1729 174.69 93.6029 173.89C93.1829 173.3 93.1829 172.58 93.1929 171.89L93.4129 153.32C93.4129 152.66 93.4529 151.94 93.9529 151.42C94.6329 150.71 95.8929 150.64 96.9929 150.63L111.433 150.47C112.773 150.46 114.133 150.44 115.403 150.79C116.223 151.02 116.853 151.38 117.343 151.84L117.333 151.83Z" fill="#4BABF9"/>
<path d="M29.5427 161.5C27.3827 163.44 27.7227 166.99 27.5827 169.38C27.3127 173.94 27.6227 178.53 28.5027 183.04C28.6427 183.74 28.8127 184.49 29.4027 185.03C29.9527 185.54 30.7927 185.79 31.6027 185.99C38.3027 187.7 45.6527 187.81 52.4327 186.28C53.6127 186.01 54.8827 185.64 55.5027 184.79C55.9627 184.16 55.9627 183.4 55.9527 182.68L55.7127 163.06C55.7127 162.36 55.6727 161.6 55.1227 161.05C54.3827 160.3 53.0027 160.23 51.8027 160.21L36.0127 160.04C34.5527 160.02 33.0627 160.01 31.6727 160.38C30.7827 160.62 30.0827 161 29.5527 161.49L29.5427 161.5Z" fill="#86BCFC"/>
<path d="M112.802 161.5C114.962 163.44 114.622 166.99 114.762 169.38C115.032 173.94 114.722 178.53 113.842 183.04C113.702 183.74 113.532 184.49 112.942 185.03C112.392 185.54 111.552 185.79 110.742 185.99C104.042 187.7 96.6921 187.81 89.9121 186.28C88.7321 186.01 87.4621 185.64 86.8421 184.79C86.3821 184.16 86.3821 183.4 86.3921 182.68L86.6321 163.06C86.6321 162.36 86.6721 161.6 87.2221 161.05C87.9621 160.3 89.3421 160.23 90.5421 160.21L106.332 160.04C107.792 160.02 109.282 160.01 110.672 160.38C111.562 160.62 112.262 161 112.792 161.49L112.802 161.5Z" fill="#86BCFC"/>
<path d="M51.2925 54.3002C56.3025 53.0002 61.4625 52.2802 66.6725 52.2202C93.4625 51.9002 119.632 69.1002 129.252 93.5202C136.842 112.78 133.702 135.49 122.042 152.57C109.252 171.3 86.3225 172.77 64.9225 173.01C49.5825 173.18 33.7525 169.59 21.6825 160.34C2.27247 145.47 -3.79753 117.37 4.84247 94.7902C12.4025 75.0402 30.5225 59.6902 51.2925 54.3002Z" fill="#CDE7FC"/>
<path d="M58.3029 120.54C58.4329 120.97 56.6229 124.3 57.4029 124.68C61.4829 126.67 65.4329 128.2 73.7929 126.06C78.9029 124.75 81.7529 120.71 82.8029 117.33C84.1529 113 82.7529 106.13 75.7429 101.43C69.9829 106.84 67.5729 115.78 61.8129 121.19C60.6829 122.25 57.9429 119.33 58.2929 120.53L58.3029 120.54Z" fill="#4BABF9"/>
<path d="M58.8427 100.27C58.3327 100.45 57.8427 100.66 57.3527 100.9C49.5727 104.7 47.6227 115.88 53.7427 122.05C57.2627 125.59 62.6327 126.98 67.5627 126.2C73.1027 125.32 78.2927 121.61 80.2627 116.35C82.2327 111.09 80.4627 104.48 75.7427 101.44C73.1927 99.7998 70.0727 99.2598 67.0427 99.1598C64.2727 99.0698 61.4327 99.3298 58.8427 100.27Z" fill="#86BCFC"/>
<path d="M64.0026 109.53C63.8926 109.02 63.7426 108.52 63.5226 108.03C63.2426 107.39 62.8426 106.78 62.2526 106.42C61.6626 106.06 60.8426 105.99 60.2926 106.41C59.7726 106.8 59.5926 107.5 59.4726 108.15C59.1426 110.06 59.2126 111.9 59.3426 113.82C59.4426 115.4 59.3826 116.99 60.1926 118.42C60.3826 118.76 60.6426 119.1 61.0026 119.25C61.4326 119.43 61.9426 119.32 62.3326 119.06C62.7226 118.8 62.9926 118.4 63.2026 117.98C63.8226 116.78 64.0026 115.41 64.1226 114.07C64.2626 112.56 64.3226 111 64.0126 109.53H64.0026Z" fill="#CDE7FC"/>
<path d="M72.362 109.53C72.252 109.02 72.102 108.52 71.882 108.03C71.602 107.39 71.202 106.78 70.612 106.42C70.022 106.06 69.202 105.99 68.652 106.41C68.132 106.8 67.952 107.5 67.832 108.15C67.502 110.06 67.572 111.9 67.702 113.82C67.802 115.4 67.742 116.99 68.552 118.42C68.742 118.76 69.002 119.1 69.362 119.25C69.792 119.43 70.302 119.32 70.692 119.06C71.082 118.8 71.352 118.4 71.562 117.98C72.182 116.78 72.362 115.41 72.482 114.07C72.622 112.56 72.682 111 72.372 109.53H72.362Z" fill="#CDE7FC"/>
<path d="M17.9922 77.4198C17.9922 77.4198 11.5322 56.0198 17.9922 49.1898C24.4522 42.3598 43.8222 59.1298 43.8222 59.1298C43.8222 59.1298 27.1122 66.7898 17.9922 77.4298V77.4198Z" fill="#CDE7FC"/>
<path d="M92.6924 59.51C92.6924 59.51 102.842 49.56 110.132 48.68C111.712 48.49 113.322 49.01 114.442 50.15C116.882 52.63 120.372 59.25 117.762 76.22C117.762 76.22 109.022 65.21 92.6924 59.51Z" fill="#CDE7FC"/>
<path d="M110.502 52.8501C109.672 52.8201 108.792 53.1401 108.022 53.5001C105.952 54.4801 104.082 55.7901 102.232 57.1001C100.532 58.3001 98.8224 59.5001 97.3724 60.9501C96.3524 61.9701 95.4124 63.3601 95.8524 64.6901C96.2324 65.8201 97.4624 66.4801 98.5924 67.0301L110.172 72.6601C111.602 73.3501 113.432 74.2601 113.932 72.2401C114.892 68.3101 115.012 64.2201 114.482 60.2201C114.242 58.3901 113.862 56.5501 113.052 54.8601C112.712 54.1501 112.252 53.4301 111.512 53.0801C111.192 52.9301 110.852 52.8601 110.502 52.8501Z" fill="#4BABF9"/>
<path d="M22.5325 52.5498C23.0725 52.3498 23.6925 52.2298 24.4125 52.2098C25.8425 52.1698 27.2725 52.4498 28.5625 53.0198C30.1025 53.6998 31.4025 54.7598 32.6925 55.8098L38.1825 60.3098C38.7525 60.7798 39.3725 61.3398 39.3825 62.0698C39.3825 62.8698 38.6725 63.4898 38.0125 63.9998L25.7725 73.3998C25.1525 73.8798 24.3625 74.3898 23.6225 74.1298C23.0325 73.9298 22.7425 73.3198 22.5225 72.7598C20.9325 68.7498 16.2725 54.9098 22.5425 52.5598L22.5325 52.5498Z" fill="#4BABF9"/>
<path d="M73.643 139.38C70.803 139.38 68.633 138.24 68.593 138.22C68.103 137.96 67.923 137.35 68.193 136.86C68.453 136.38 69.063 136.19 69.543 136.46C69.803 136.6 75.583 139.59 79.963 134.18C80.313 133.75 80.943 133.68 81.373 134.03C81.803 134.38 81.873 135.01 81.523 135.44C79.003 138.55 76.073 139.39 73.643 139.39V139.38Z" fill="#4BABF9"/>
<path d="M42.4927 104.46C45.3811 104.46 47.7227 102.118 47.7227 99.23C47.7227 96.3416 45.3811 94 42.4927 94C39.6042 94 37.2627 96.3416 37.2627 99.23C37.2627 102.118 39.6042 104.46 42.4927 104.46Z" fill="#2B110C"/>
<path d="M40.8325 98.1601C41.2578 98.1601 41.6025 97.8154 41.6025 97.3901C41.6025 96.9649 41.2578 96.6201 40.8325 96.6201C40.4072 96.6201 40.0625 96.9649 40.0625 97.3901C40.0625 97.8154 40.4072 98.1601 40.8325 98.1601Z" fill="white"/>
<path d="M90.5122 104.46C93.4007 104.46 95.7422 102.118 95.7422 99.23C95.7422 96.3416 93.4007 94 90.5122 94C87.6238 94 85.2822 96.3416 85.2822 99.23C85.2822 102.118 87.6238 104.46 90.5122 104.46Z" fill="#2B110C"/>
<path d="M88.852 98.1601C89.2773 98.1601 89.622 97.8154 89.622 97.3901C89.622 96.9649 89.2773 96.6201 88.852 96.6201C88.4268 96.6201 88.082 96.9649 88.082 97.3901C88.082 97.8154 88.4268 98.1601 88.852 98.1601Z" fill="white"/>
<path d="M134.513 98.2302L146.413 110.67C147.993 112.32 149.113 114.35 149.653 116.57C150.973 121.95 153.483 132.33 154.253 136.98C155.113 142.13 156.473 151.29 156.983 154.73C157.093 155.5 156.613 156.23 155.863 156.44L148.023 158.57C146.843 158.89 145.653 158.12 145.453 156.91L137.913 110.29C137.733 109.17 137.473 108.05 137.143 106.96L134.513 98.2202V98.2302Z" fill="#1699F2"/>
<path d="M29.313 71.82C29.063 71.83 28.823 71.79 28.603 71.66C28.323 71.5 28.123 71.22 27.953 70.95C25.913 67.78 25.383 63.82 25.783 60.07C26.183 56.32 27.443 52.72 28.763 49.19C34.313 34.33 41.283 19.56 52.623 8.45999C57.173 4.00999 62.853 0.0499924 69.223 -7.56019e-06C80.143 -0.0800076 87.153 9.83999 91.393 18.53C92.8829 21.59 94.303 24.68 95.643 27.8C98.333 34.05 100.723 40.42 102.803 46.9C104.593 52.46 106.153 58.45 104.573 64.07C104.273 65.13 103.883 66.34 104.493 67.25C104.953 67.95 105.913 68.29 106.163 69.09C106.443 69.97 105.623 70.88 104.733 71.08C103.843 71.28 102.913 70.96 102.043 70.67C85.313 64.99 67.283 63.17 49.763 65.39C43.213 66.22 36.583 67.66 30.973 71.15C30.473 71.46 29.883 71.79 29.333 71.82H29.313Z" fill="#1699F2"/>
<path d="M93.2721 60.0602C93.2721 60.0602 79.4921 57.0302 63.6821 58.0202C63.5021 58.0302 63.3321 57.8702 63.3121 57.6502C63.2121 56.7802 63.1821 56.2002 63.1421 55.7502C62.5821 49.2902 62.8721 43.4402 64.0221 37.5202C65.3221 30.7902 68.4821 24.8402 71.7421 19.1802C71.8721 18.9502 71.8421 18.6602 71.6021 18.5402C71.4221 18.4502 70.1321 18.0702 70.1321 18.0702C69.3421 17.7602 69.3521 17.9902 69.1021 18.3602C68.8521 18.7302 68.5221 19.2002 68.2921 19.5802C66.7421 22.0902 65.3721 24.6202 64.1521 27.3802C62.5921 30.9202 61.3621 34.8202 60.6321 38.7402C59.5221 44.7502 59.6821 50.9202 59.9921 57.1202L60.0221 57.5502L60.0421 57.8602C60.0421 57.8602 60.0621 58.2302 59.6021 58.2402C57.8721 58.3002 52.6621 58.6602 45.9421 60.0202C45.8321 60.0402 45.7221 59.9502 45.7121 59.8102C45.7121 59.7602 45.7121 59.7002 45.6921 59.6302C44.6621 53.1102 45.5921 44.7002 46.9321 39.2002C48.3921 33.2202 49.6621 29.5602 51.7121 24.6802C52.1621 23.6202 52.7221 22.2802 53.1021 21.1802C53.2121 20.8702 52.3321 20.6002 52.0621 20.4802C51.8921 20.4002 51.5421 20.2502 51.1821 20.1502C50.6321 20.0002 50.5321 20.6102 49.6321 22.6002C46.2321 30.1502 45.2921 32.4602 43.5121 41.4302C43.4421 41.7602 42.7621 46.4702 42.4921 46.7802C42.3421 46.9502 41.8121 47.1802 41.5321 47.3102C37.0721 49.3002 30.6921 51.4102 26.7021 54.4602C25.7621 55.1802 23.4021 58.6402 24.5821 59.5502C28.0721 55.8302 37.3221 51.9402 42.2121 50.2102C42.3621 50.1602 42.5021 50.3102 42.4821 50.4902C42.2521 52.6402 42.2321 56.8202 42.6621 60.3002C42.6821 60.4302 42.6121 60.5402 42.5021 60.5702C36.1021 62.0902 29.6521 64.6002 26.5421 68.7402L27.6021 71.0302C27.6021 71.0302 31.0221 66.9302 37.7021 64.9502C46.1521 62.4402 54.1521 61.5502 59.6521 61.2802C60.9621 61.2202 65.3021 61.0502 66.6121 61.0302C74.5421 60.8802 92.0721 61.2602 104.102 66.5002L105.482 64.2602C105.482 64.2602 101.742 61.9602 93.3021 60.0902L93.2721 60.0602Z" fill="#C0F1FC"/>
</g>
<defs>
<clipPath id="clip0_113_23999">
<rect width="156" height="187.36" fill="white" transform="translate(0.879883)"/>
</clipPath>
</defs>
</svg>
