<svg width="100%" height="100%" viewBox="0 0 155 193" fill="none" xmlns="http://www.w3.org/2000/svg">
<g clip-path="url(#clip0_113_24000)">
<path d="M142.793 132.88C143.543 132.8 144.293 132.74 145.053 132.7C145.693 132.66 146.053 132.58 146.683 132.49C147.123 132.43 148.273 132.14 148.683 131.98C150.693 131.18 152.133 130.06 153.573 128.44C153.673 128.33 153.773 128.21 153.873 128.09C154.373 127.49 154.833 126.81 154.953 126.03C155.073 125.25 154.723 124.36 154.003 124.06C153.383 123.8 152.653 124.02 152.113 124.42C151.573 124.82 151.173 125.37 150.723 125.87C149.993 126.69 149.113 127.39 148.153 127.92C147.633 128.21 147.033 128.45 146.453 128.38C146.253 128.36 146.113 128.18 146.143 127.98C146.333 126.77 146.663 125.59 146.863 124.39C147.083 123.08 147.143 121.71 146.693 120.46C146.143 118.93 144.853 117.73 143.373 117.04C141.903 116.35 140.173 116.12 138.653 116.67C136.653 117.4 135.303 119.37 134.823 121.44C134.163 124.27 134.963 127.41 136.893 129.58C136.993 129.69 136.943 129.87 136.793 129.9C134.903 130.34 132.933 130.4 131.023 130.08C130.813 130.58 130.513 132.56 130.913 133.84C130.953 133.98 131.013 134.13 131.133 134.22C131.233 134.29 132.663 134.37 132.783 134.37C134.783 134.48 136.763 134.25 138.683 133.68C140.033 133.28 141.413 133.04 142.803 132.89L142.793 132.88ZM138.543 123.02C138.543 123.02 138.543 122.96 138.543 122.93C138.563 122.29 138.713 121.64 139.063 121.1C139.413 120.56 139.983 120.15 140.623 120.08C141.103 120.03 141.603 120.18 141.993 120.47C142.383 120.76 142.683 121.17 142.853 121.62C143.123 122.32 143.113 123.11 143.013 123.85C142.863 124.91 142.533 125.93 142.043 126.88C141.943 127.07 141.803 127.33 141.593 127.42C141.383 127.51 141.063 127.34 140.873 127.24C140.113 126.83 139.503 126.19 139.093 125.43C138.683 124.67 138.523 123.87 138.533 123.04L138.543 123.02Z" fill="#FF816C"/>
<path d="M37.5925 158.31C35.6225 160.14 35.9225 163.51 35.7925 165.77C35.5425 170.09 35.8225 174.43 36.6325 178.71C36.7625 179.38 36.9125 180.08 37.4525 180.59C37.9625 181.07 38.7225 181.31 39.4625 181.5C45.5925 183.12 52.3125 183.22 58.5125 181.78C59.5925 181.53 60.7525 181.17 61.3225 180.37C61.7425 179.78 61.7425 179.06 61.7325 178.37L61.5125 159.8C61.5125 159.14 61.4725 158.42 60.9725 157.9C60.2925 157.19 59.0325 157.12 57.9325 157.11L43.4925 156.95C42.1525 156.94 40.7925 156.92 39.5225 157.27C38.7025 157.5 38.0725 157.86 37.5825 158.32L37.5925 158.31Z" fill="#FF816C"/>
<path d="M117.333 157.11C119.303 158.94 119.003 162.31 119.133 164.57C119.383 168.89 119.103 173.23 118.293 177.51C118.163 178.18 118.013 178.88 117.473 179.39C116.963 179.87 116.203 180.11 115.463 180.3C109.333 181.92 102.613 182.02 96.4129 180.58C95.3329 180.33 94.1729 179.97 93.6029 179.17C93.1829 178.58 93.1829 177.86 93.1929 177.17L93.4129 158.6C93.4129 157.94 93.4529 157.22 93.9529 156.7C94.6329 155.99 95.8929 155.92 96.9929 155.91L111.433 155.75C112.773 155.74 114.133 155.72 115.403 156.07C116.223 156.3 116.853 156.66 117.343 157.12L117.333 157.11Z" fill="#FF816C"/>
<path d="M29.5427 166.77C27.3827 168.71 27.7227 172.26 27.5827 174.65C27.3127 179.21 27.6227 183.8 28.5027 188.31C28.6427 189.01 28.8127 189.76 29.4027 190.3C29.9527 190.81 30.7927 191.06 31.6027 191.26C38.3027 192.97 45.6527 193.08 52.4327 191.55C53.6127 191.28 54.8827 190.91 55.5027 190.06C55.9627 189.43 55.9627 188.67 55.9527 187.95L55.7127 168.33C55.7127 167.63 55.6727 166.87 55.1227 166.32C54.3827 165.57 53.0027 165.5 51.8027 165.48L36.0127 165.31C34.5527 165.29 33.0627 165.28 31.6727 165.65C30.7827 165.89 30.0827 166.27 29.5527 166.76L29.5427 166.77Z" fill="#FF9578"/>
<path d="M112.802 166.77C114.962 168.71 114.622 172.26 114.762 174.65C115.032 179.21 114.722 183.8 113.842 188.31C113.702 189.01 113.532 189.76 112.942 190.3C112.392 190.81 111.552 191.06 110.742 191.26C104.042 192.97 96.6921 193.08 89.9121 191.55C88.7321 191.28 87.4621 190.91 86.8421 190.06C86.3821 189.43 86.3821 188.67 86.3921 187.95L86.6321 168.33C86.6321 167.63 86.6721 166.87 87.2221 166.32C87.9621 165.57 89.3421 165.5 90.5421 165.48L106.332 165.31C107.792 165.29 109.282 165.28 110.672 165.65C111.562 165.89 112.262 166.27 112.792 166.76L112.802 166.77Z" fill="#FF9578"/>
<path d="M51.2925 59.5702C56.3025 58.2702 61.4625 57.5502 66.6725 57.4902C93.4625 57.1702 119.632 74.3702 129.252 98.7902C136.842 118.05 133.702 140.76 122.042 157.84C109.252 176.57 86.3225 178.04 64.9225 178.28C49.5825 178.45 33.7525 174.86 21.6825 165.61C2.27247 150.74 -3.79753 122.64 4.84247 100.06C12.4025 80.3102 30.5225 64.9602 51.2925 59.5702Z" fill="#FCC9BB"/>
<path d="M58.3029 125.81C58.4329 126.24 56.6229 129.57 57.4029 129.95C61.4829 131.94 65.4329 133.47 73.7929 131.33C78.9029 130.02 81.7529 125.98 82.8029 122.6C84.1529 118.27 82.7529 111.4 75.7429 106.7C69.9829 112.11 67.5729 121.05 61.8129 126.46C60.6829 127.52 57.9429 124.6 58.2929 125.8L58.3029 125.81Z" fill="#FF816C"/>
<path d="M58.8427 105.54C58.3327 105.72 57.8427 105.93 57.3527 106.17C49.5727 109.97 47.6227 121.15 53.7427 127.32C57.2627 130.86 62.6327 132.25 67.5627 131.47C73.1027 130.59 78.2927 126.88 80.2627 121.62C82.2327 116.36 80.4627 109.75 75.7427 106.71C73.1927 105.07 70.0727 104.53 67.0427 104.43C64.2727 104.34 61.4327 104.6 58.8427 105.54Z" fill="#FF9578"/>
<path d="M64.0026 114.8C63.8926 114.29 63.7426 113.79 63.5226 113.3C63.2426 112.66 62.8426 112.05 62.2526 111.69C61.6626 111.33 60.8426 111.26 60.2926 111.68C59.7726 112.07 59.5926 112.77 59.4726 113.42C59.1426 115.33 59.2126 117.17 59.3426 119.09C59.4426 120.67 59.3826 122.26 60.1926 123.69C60.3826 124.03 60.6426 124.37 61.0026 124.52C61.4326 124.7 61.9426 124.59 62.3326 124.33C62.7226 124.07 62.9926 123.67 63.2026 123.25C63.8226 122.05 64.0026 120.68 64.1226 119.34C64.2626 117.83 64.3226 116.27 64.0126 114.8H64.0026Z" fill="#FCC9BB"/>
<path d="M72.362 114.8C72.252 114.29 72.102 113.79 71.882 113.3C71.602 112.66 71.202 112.05 70.612 111.69C70.022 111.33 69.202 111.26 68.652 111.68C68.132 112.07 67.952 112.77 67.832 113.42C67.502 115.33 67.572 117.17 67.702 119.09C67.802 120.67 67.742 122.26 68.552 123.69C68.742 124.03 69.002 124.37 69.362 124.52C69.792 124.7 70.302 124.59 70.692 124.33C71.082 124.07 71.352 123.67 71.562 123.25C72.182 122.05 72.362 120.68 72.482 119.34C72.622 117.83 72.682 116.27 72.372 114.8H72.362Z" fill="#FCC9BB"/>
<path d="M17.9922 82.7005C17.9922 82.7005 11.5322 61.3005 17.9922 54.4705C24.4522 47.6405 43.8222 64.4105 43.8222 64.4105C43.8222 64.4105 27.1122 72.0705 17.9922 82.7105V82.7005Z" fill="#FCC9BB"/>
<path d="M92.6924 64.7805C92.6924 64.7805 102.842 54.8305 110.132 53.9505C111.712 53.7605 113.322 54.2805 114.442 55.4205C116.882 57.9005 120.372 64.5205 117.762 81.4905C117.762 81.4905 109.022 70.4805 92.6924 64.7805Z" fill="#FCC9BB"/>
<path d="M110.502 58.1201C109.672 58.0901 108.792 58.4101 108.022 58.7701C105.952 59.7501 104.082 61.0601 102.232 62.3701C100.532 63.5701 98.8224 64.7701 97.3724 66.2201C96.3524 67.2401 95.4124 68.6301 95.8524 69.9601C96.2324 71.0901 97.4624 71.7501 98.5924 72.3001L110.172 77.9301C111.602 78.6201 113.432 79.5301 113.932 77.5101C114.892 73.5801 115.012 69.4901 114.482 65.4901C114.242 63.6601 113.862 61.8201 113.052 60.1301C112.712 59.4201 112.252 58.7001 111.512 58.3501C111.192 58.2001 110.852 58.1301 110.502 58.1201Z" fill="#FF816C"/>
<path d="M22.5325 57.8203C23.0725 57.6203 23.6925 57.5003 24.4125 57.4803C25.8425 57.4403 27.2725 57.7203 28.5625 58.2903C30.1025 58.9703 31.4025 60.0303 32.6925 61.0803L38.1825 65.5803C38.7525 66.0503 39.3725 66.6103 39.3825 67.3403C39.3825 68.1403 38.6725 68.7603 38.0125 69.2703L25.7725 78.6703C25.1525 79.1503 24.3625 79.6603 23.6225 79.4003C23.0325 79.2003 22.7425 78.5903 22.5225 78.0303C20.9325 74.0203 16.2725 60.1803 22.5425 57.8303L22.5325 57.8203Z" fill="#FF816C"/>
<path d="M73.643 144.65C70.803 144.65 68.633 143.51 68.593 143.49C68.103 143.23 67.923 142.62 68.193 142.13C68.453 141.65 69.063 141.46 69.543 141.73C69.803 141.87 75.583 144.86 79.963 139.45C80.313 139.02 80.943 138.95 81.373 139.3C81.803 139.65 81.873 140.28 81.523 140.71C79.003 143.82 76.073 144.66 73.643 144.66V144.65Z" fill="#FF816C"/>
<path d="M42.4927 109.74C45.3811 109.74 47.7227 107.399 47.7227 104.51C47.7227 101.622 45.3811 99.2803 42.4927 99.2803C39.6042 99.2803 37.2627 101.622 37.2627 104.51C37.2627 107.399 39.6042 109.74 42.4927 109.74Z" fill="#2B110C"/>
<path d="M40.8325 103.43C41.2578 103.43 41.6025 103.085 41.6025 102.66C41.6025 102.235 41.2578 101.89 40.8325 101.89C40.4072 101.89 40.0625 102.235 40.0625 102.66C40.0625 103.085 40.4072 103.43 40.8325 103.43Z" fill="white"/>
<path d="M90.5122 109.74C93.4007 109.74 95.7422 107.399 95.7422 104.51C95.7422 101.622 93.4007 99.2803 90.5122 99.2803C87.6238 99.2803 85.2822 101.622 85.2822 104.51C85.2822 107.399 87.6238 109.74 90.5122 109.74Z" fill="#2B110C"/>
<path d="M88.852 103.43C89.2773 103.43 89.622 103.085 89.622 102.66C89.622 102.235 89.2773 101.89 88.852 101.89C88.4268 101.89 88.082 102.235 88.082 102.66C88.082 103.085 88.4268 103.43 88.852 103.43Z" fill="white"/>
<path d="M32.6229 9.85028C32.5629 9.12028 32.4929 8.40028 32.4029 7.68028C32.1329 5.45028 31.5329 -1.44972 35.1028 1.68028C39.3328 5.38028 43.0329 14.9103 53.0229 8.69028C63.0129 2.47028 68.6029 -3.85972 74.4929 2.94028C78.4429 7.50028 84.1729 16.1003 91.0829 16.6703C97.7529 17.2303 101.843 11.2703 103.763 6.85028C103.763 6.85028 106.073 2.74028 106.193 8.73028C106.313 14.7203 104.403 36.4803 100.813 52.8503C97.2229 69.2203 94.6529 75.2903 94.6529 75.2903C94.6529 75.2903 74.8229 42.2303 36.6229 71.1003C36.6229 71.1003 33.9829 26.0703 32.6129 9.85028H32.6229Z" fill="#FC644F"/>
<path d="M41.9525 74.9904C41.5325 75.0904 40.6325 75.0204 40.2125 74.9304C39.0725 74.7004 38.4225 74.1004 37.6025 73.1204C33.8925 68.6704 30.4925 63.8504 27.4425 58.7104C25.1525 54.8604 23.0125 50.6204 22.6825 45.9004C22.6225 45.0704 22.7625 44.0004 23.4225 43.7804C24.0225 43.5804 24.5625 44.2304 25.0125 44.7504C26.9325 46.9604 29.8625 47.5904 32.4625 46.9104C35.0625 46.2304 37.3625 44.3804 39.3025 42.1904C45.9725 34.6804 48.7225 23.5704 52.6925 13.6704C53.2225 12.3604 53.8425 10.9804 54.9325 10.3504C56.4625 9.4604 58.2825 10.4004 59.6725 11.5704C63.4525 14.7404 66.0225 19.5504 69.1825 23.5804C73.9625 29.6704 80.0725 33.9604 86.1525 38.0304C91.2925 41.4704 96.5425 44.8604 102.253 46.5304C105.003 47.3304 107.963 47.7004 110.623 46.5504C111.113 46.3404 111.683 46.0904 112.123 46.4304C112.673 46.8604 112.553 47.8504 112.373 48.6004C110.213 57.2104 105.823 64.8104 101.123 71.6404C100.153 73.0504 99.8625 75.4504 96.9825 75.3304C92.3525 75.1404 85.4725 73.9204 81.8525 73.1104C68.4625 70.1104 56.2025 68.3904 43.9825 74.2204C43.3825 74.5104 42.5825 74.8304 41.9525 74.9804V74.9904Z" fill="#FF9578"/>
</g>
<defs>
<clipPath id="clip0_113_24000">
<rect width="153.96" height="192.63" fill="white" transform="translate(0.879883)"/>
</clipPath>
</defs>
</svg>
