<svg width="100%" height="100%" viewBox="0 0 72 72" fill="none" xmlns="http://www.w3.org/2000/svg">
<g clip-path="url(#clip0_152_44584)">
<path d="M21.4956 54.4219C20.9899 54.4842 20.4882 54.6086 20.0837 54.9081C19.4224 55.4021 19.1618 56.2812 19.1462 57.1097C19.1307 57.9382 19.3096 58.755 19.3329 59.5796C19.3874 61.3261 18.2166 64.2356 19.2785 65.8148C20.2276 67.2306 22.9815 67.5651 24.3779 66.6044C25.3386 65.9431 25.7937 64.7607 26.0271 63.6171C26.3227 62.1702 26.3499 60.6804 26.3733 59.2023C26.3966 57.876 26.3694 56.4134 25.4825 55.4255C24.5762 54.4219 23.0631 54.2547 21.7212 54.3869C21.6473 54.3947 21.5695 54.4025 21.4956 54.4103V54.4219Z" fill="#FFAF22"/>
<path d="M53.4219 54.4219C52.9162 54.4842 52.4145 54.6086 52.0099 54.9081C51.3487 55.4021 51.0881 56.2812 51.0725 57.1097C51.057 57.9382 51.2359 58.755 51.2592 59.5796C51.3137 61.3261 50.1429 64.2356 51.2048 65.8148C52.1538 67.2306 54.9077 67.5651 56.3041 66.6044C57.2649 65.9431 57.72 64.7607 57.9533 63.6171C58.249 62.1702 58.2762 60.6804 58.2995 59.2023C58.3229 57.876 58.2956 56.4134 57.4088 55.4255C56.5025 54.4219 54.9894 54.2547 53.6475 54.3869C53.5736 54.3947 53.4958 54.4025 53.4219 54.4103V54.4219Z" fill="#FFAF22"/>
<path d="M26.6805 20.0637C26.6805 20.0637 30.578 21.1762 38.3962 20.0637C38.3962 20.0637 48.101 10.7324 46.2184 7.65565C46.2184 7.65565 45.351 3.96824 41.8969 6.40317C41.8969 6.40317 40.1777 2.0973 36.5681 5.57078C36.5681 5.57078 34.2693 2.25678 31.177 5.24405C31.177 5.24405 29.1271 2.86746 26.6766 5.24405C26.6766 5.24405 23.2382 7.11498 26.6766 20.0637H26.6805Z" fill="#D8D8EA"/>
<path d="M10.0677 20.7282C8.23955 17.4609 4.68439 17.7954 4.25263 17.8499C3.82088 17.9043 3.05072 18.0366 3.00016 19.0829C2.95348 20.1331 3.92979 20.0514 3.92979 20.0514H5.20949C7.22823 20.242 7.32548 21.0627 7.32548 21.0627C7.32548 21.0627 4.47045 22.1557 4.05815 24.2367C3.76642 25.6992 4.08149 27.8269 5.92908 28.6787C7.90504 29.5889 9.63205 27.7919 9.63205 27.7919C11.0751 26.1582 10.9779 24.2367 10.9779 24.2367C12.6115 25.4853 13.1989 26.7611 13.1989 26.7611C13.4595 26.1076 14.3036 24.4934 14.3036 24.4934C13.5801 23.1748 10.0638 20.7282 10.0638 20.7282H10.0677ZM8.07618 26.2905C7.67166 26.6289 6.22081 27.0023 6.07689 25.6564C5.87852 23.805 8.57017 23.2604 8.57017 23.2604C9.06416 24.8435 8.48071 25.9559 8.07618 26.2905Z" fill="#FFAF22"/>
<path d="M64.5969 24.6921C64.0523 24.6727 63.8306 24.6338 63.8306 24.6338L62.8037 24.4432C60.4894 18.9082 54.2737 15.3258 54.2737 15.3258C53.9275 14.19 54.0792 12.1518 54.0792 12.1518C54.1803 9.51851 53.029 8.89227 53.029 8.89227C51.5237 8.13378 48.1241 10.487 48.1241 10.487C48.303 7.30528 45.2613 9.26957 45.2613 9.26957C41.3677 11.5061 39.2906 16.2243 39.2906 16.2243L26.5909 16.1543C16.715 16.6366 11.709 27.73 11.709 27.73C9.60076 30.725 8.17713 44.5995 15.1708 53.4796C22.1644 62.3559 37.7387 62.1653 37.7387 62.1653C54.0286 63.9934 60.0615 55.0744 60.0615 55.0744C63.1149 50.4768 63.2938 45.2607 65.5537 40.2897C66.215 38.835 66.9112 36.9874 67.7086 35.6027C68.0587 34.9998 68.3387 34.9881 68.3387 34.9881L64.593 24.6999L64.5969 24.6921Z" fill="#FFF0B0"/>
<path d="M64.9393 24.8332C65.0171 24.8721 65.0949 24.9187 65.1649 24.9654C66.5419 25.8756 67.5454 27.2642 68.2689 28.7501C68.4945 29.2129 68.6967 29.6914 68.8212 30.1931C68.9729 30.7921 69.0118 31.4145 69.004 32.033C68.9924 32.7642 68.9068 33.4916 68.7551 34.2034C68.654 34.6779 68.335 35.1875 67.7671 35.0163C67.5298 34.9463 67.3353 34.7791 67.1525 34.6118C65.7523 33.3282 64.5776 31.749 64.0058 29.9364C63.5624 28.5284 63.4962 27.0036 63.8113 25.5605C63.8813 25.2299 64.0175 24.8604 64.3325 24.7515C64.5309 24.6815 64.7409 24.7398 64.9354 24.8371L64.9393 24.8332Z" fill="#FFC931"/>
<path d="M48.097 10.4789C48.0736 10.584 48.0464 10.6851 48.0192 10.7823C47.4824 12.5871 47.3851 14.5203 47.7391 16.3718C47.8597 17.0019 48.0308 17.6554 47.8597 18.27C47.6341 19.079 46.8873 19.6158 46.1871 20.0825L45.0358 20.8527C44.7246 21.0627 44.3279 21.2767 44.0011 21.0939C43.7794 20.9694 43.6783 20.7088 43.6083 20.4637C42.5308 16.8697 43.3632 11.677 46.8561 9.58431C47.1634 9.40149 47.5641 9.2498 47.8675 9.44428C48.1903 9.65043 48.1825 10.0783 48.097 10.475V10.4789Z" fill="#FFC931"/>
<path d="M52.8928 9.67383C52.5856 9.67383 52.2822 9.8333 52.0604 10.055C51.796 10.3195 51.6287 10.6618 51.4809 11.0041C51.0297 12.0582 50.773 13.159 50.5902 14.2831C50.5513 14.5165 50.5707 14.7849 50.7419 14.9521C50.8935 15.0999 51.1192 15.1272 51.3292 15.1466C52.3172 15.2361 53.3051 15.2983 54.2931 15.3294C54.1181 14.5281 54.0442 13.7074 54.0714 12.8906C54.0948 12.1866 54.1881 11.4709 54.0208 10.7863C53.8964 10.2923 53.5774 9.78663 53.0757 9.69328C53.0173 9.68161 52.9551 9.67772 52.8967 9.67772L52.8928 9.67383Z" fill="#FFC931"/>
<path d="M27.6919 17.8741C27.4624 17.878 27.2329 17.8819 27.0035 17.8897C26.6573 17.8975 26.2994 17.9091 25.9882 18.0608C25.5643 18.267 24.9886 19.0294 25.5993 19.3717C25.7977 19.4845 26.0388 19.4883 26.2644 19.4922C26.8323 19.4961 27.4002 19.4961 27.9681 19.4961H34.9034C35.1951 19.4961 35.5296 19.4767 35.7008 19.2433C35.9147 18.9555 35.7436 18.5548 35.5685 18.2398C35.4985 18.1114 35.4168 17.9791 35.2885 17.913C35.1951 17.8663 35.0862 17.8663 34.9851 17.8625C32.554 17.8236 30.1191 17.8275 27.688 17.8741H27.6919Z" fill="#FED752"/>
<path d="M64.8303 27.5248C64.8303 27.5248 63.9006 26.7041 64.4607 28.7189C65.017 30.7338 65.8144 32.1924 66.6623 32.5114C66.6623 32.5114 67.1874 32.8225 66.8023 31.3055C66.5728 30.4031 66.1917 29.5474 65.7093 28.75C65.4293 28.2872 65.1064 27.8048 64.8342 27.5287L64.8303 27.5248Z" fill="#FFF4C7"/>
<path d="M66.3939 27.0568C66.3939 27.0568 65.5421 26.3022 66.0516 28.1498C66.5612 29.9974 67.2924 31.3355 68.0704 31.6272C68.0704 31.6272 68.5527 31.9111 68.1987 30.5186C67.9887 29.6901 67.6386 28.9044 67.1952 28.1732C66.9385 27.7492 66.6429 27.3058 66.3939 27.0529V27.0568Z" fill="#FFF4C7"/>
<path d="M43.4683 56.086C42.9626 56.1482 42.4608 56.2727 42.0563 56.5722C41.3951 57.0662 41.1345 57.9453 41.1189 58.7738C41.1033 59.6023 41.2823 60.4191 41.3056 61.2437C41.3601 62.9902 40.1893 65.8996 41.2511 67.4788C42.2002 68.8947 44.9541 69.2292 46.3505 68.2685C47.3113 67.6072 47.7664 66.4247 47.9997 65.2812C48.2953 63.8342 48.3226 62.3445 48.3459 60.8664C48.3693 59.54 48.342 58.0775 47.4552 57.0895C46.5489 56.086 45.0358 55.9187 43.6939 56.051C43.62 56.0588 43.5422 56.0665 43.4683 56.0743V56.086Z" fill="#FFC931"/>
<path d="M29.8467 56.086C29.341 56.1482 28.8393 56.2727 28.4347 56.5722C27.7735 57.0662 27.5129 57.9453 27.4973 58.7738C27.4818 59.6023 27.6607 60.4191 27.684 61.2437C27.7385 62.9902 26.5677 65.8996 27.6296 67.4788C28.5786 68.8947 31.3325 69.2292 32.7289 68.2685C33.6897 67.6072 34.1448 66.4247 34.3782 65.2812C34.6738 63.8342 34.701 62.3445 34.7243 60.8664C34.7477 59.54 34.7204 58.0775 33.8336 57.0895C32.9273 56.086 31.4142 55.9187 30.0723 56.051C29.9984 56.0588 29.9206 56.0665 29.8467 56.0743V56.086Z" fill="#FFC931"/>
<path d="M56.5067 28.8816C57.598 28.8816 58.4827 27.9969 58.4827 26.9056C58.4827 25.8144 57.598 24.9297 56.5067 24.9297C55.4154 24.9297 54.5308 25.8144 54.5308 26.9056C54.5308 27.9969 55.4154 28.8816 56.5067 28.8816Z" fill="#2B110C"/>
<path d="M57.5993 26.5014C57.7605 26.5014 57.8911 26.3708 57.8911 26.2097C57.8911 26.0486 57.7605 25.918 57.5993 25.918C57.4382 25.918 57.3076 26.0486 57.3076 26.2097C57.3076 26.3708 57.4382 26.5014 57.5993 26.5014Z" fill="white"/>
<path d="M59.6569 37.9524C56.9342 37.9524 55.8723 35.9998 55.8256 35.9103C55.7245 35.7197 55.7984 35.4863 55.989 35.3852C56.1796 35.2841 56.413 35.358 56.5141 35.5486C56.5608 35.6341 57.6382 37.5712 60.5399 37.1044C60.7499 37.0694 60.9522 37.2133 60.9872 37.4273C61.0222 37.6412 60.8783 37.8396 60.6644 37.8746C60.3065 37.9329 59.972 37.9563 59.6569 37.9563V37.9524Z" fill="#FFAF22"/>
<path d="M32.6355 25.163C32.6355 25.163 28.423 26.3688 19.9629 25.163C19.9629 25.163 9.46859 15.0732 11.5029 11.7436C11.5029 11.7436 12.4403 7.75672 16.1744 10.39C16.1744 10.39 18.0337 5.73409 21.935 9.48763C21.935 9.48763 24.4205 5.90523 27.7656 9.13367C27.7656 9.13367 29.9788 6.56259 32.6316 9.13367C32.6316 9.13367 36.3501 11.1563 32.6316 25.1591L32.6355 25.163Z" fill="#EBEBFF"/>
</g>
<defs>
<clipPath id="clip0_152_44584">
<rect width="66" height="64.8175" fill="white" transform="translate(3 4)"/>
</clipPath>
</defs>
</svg>
