<svg width="100%" height="100%" viewBox="0 0 157 182" fill="none" xmlns="http://www.w3.org/2000/svg">
<g clip-path="url(#clip0_113_24002)">
<path d="M144.85 122C145.6 121.92 146.35 121.86 147.11 121.82C147.75 121.78 148.11 121.7 148.74 121.61C149.18 121.55 150.33 121.26 150.74 121.1C152.75 120.3 154.19 119.18 155.63 117.56C155.73 117.45 155.83 117.33 155.93 117.21C156.43 116.61 156.89 115.93 157.01 115.15C157.13 114.37 156.78 113.48 156.06 113.18C155.44 112.92 154.71 113.14 154.17 113.54C153.63 113.94 153.23 114.49 152.78 114.99C152.05 115.81 151.17 116.51 150.21 117.04C149.69 117.33 149.09 117.57 148.51 117.5C148.31 117.48 148.17 117.3 148.2 117.1C148.39 115.89 148.72 114.71 148.92 113.51C149.14 112.2 149.2 110.83 148.75 109.58C148.2 108.05 146.91 106.85 145.43 106.16C143.96 105.47 142.23 105.24 140.71 105.79C138.71 106.52 137.36 108.49 136.88 110.56C136.22 113.39 137.02 116.53 138.95 118.7C139.05 118.81 139 118.99 138.85 119.02C136.96 119.46 134.99 119.52 133.08 119.2C132.87 119.7 132.57 121.68 132.97 122.96C133.01 123.1 133.07 123.25 133.19 123.34C133.29 123.41 134.72 123.49 134.84 123.49C136.84 123.6 138.82 123.37 140.74 122.8C142.09 122.4 143.47 122.16 144.86 122.01L144.85 122ZM140.6 112.14C140.6 112.14 140.6 112.08 140.6 112.05C140.62 111.41 140.77 110.76 141.12 110.22C141.47 109.68 142.04 109.27 142.68 109.2C143.16 109.15 143.66 109.3 144.05 109.59C144.44 109.88 144.74 110.29 144.91 110.74C145.18 111.44 145.17 112.23 145.07 112.97C144.92 114.03 144.59 115.05 144.1 116C144 116.19 143.86 116.45 143.65 116.54C143.44 116.63 143.12 116.46 142.93 116.36C142.17 115.95 141.56 115.31 141.15 114.55C140.74 113.79 140.58 112.99 140.59 112.16L140.6 112.14Z" fill="#FFAF22"/>
<path d="M39.6502 147.43C37.6802 149.26 37.9802 152.63 37.8502 154.89C37.6002 159.21 37.8802 163.55 38.6902 167.83C38.8202 168.5 38.9702 169.2 39.5102 169.71C40.0202 170.19 40.7802 170.43 41.5202 170.62C47.6502 172.24 54.3702 172.34 60.5702 170.9C61.6502 170.65 62.8102 170.29 63.3802 169.49C63.8002 168.9 63.8002 168.18 63.7902 167.49L63.5702 148.92C63.5702 148.26 63.5302 147.54 63.0302 147.02C62.3502 146.31 61.0902 146.24 59.9902 146.23L45.5502 146.07C44.2102 146.06 42.8502 146.04 41.5802 146.39C40.7602 146.62 40.1302 146.98 39.6402 147.44L39.6502 147.43Z" fill="#FFAF22"/>
<path d="M119.391 146.22C121.361 148.05 121.061 151.42 121.191 153.68C121.441 158 121.161 162.34 120.351 166.62C120.221 167.29 120.071 167.99 119.531 168.5C119.021 168.98 118.261 169.22 117.521 169.41C111.391 171.03 104.671 171.13 98.4705 169.69C97.3905 169.44 96.2305 169.08 95.6605 168.28C95.2405 167.69 95.2405 166.97 95.2505 166.28L95.4705 147.71C95.4705 147.05 95.5105 146.33 96.0105 145.81C96.6905 145.1 97.9505 145.03 99.0505 145.02L113.491 144.86C114.831 144.85 116.191 144.83 117.461 145.18C118.281 145.41 118.911 145.77 119.401 146.23L119.391 146.22Z" fill="#FFAF22"/>
<path d="M31.6003 155.89C29.4403 157.83 29.7803 161.38 29.6403 163.77C29.3703 168.33 29.6803 172.92 30.5603 177.43C30.7003 178.13 30.8703 178.88 31.4603 179.42C32.0103 179.93 32.8503 180.18 33.6603 180.38C40.3603 182.09 47.7103 182.2 54.4903 180.67C55.6703 180.4 56.9403 180.03 57.5603 179.18C58.0203 178.55 58.0203 177.79 58.0103 177.07L57.7703 157.45C57.7703 156.75 57.7303 155.99 57.1803 155.44C56.4403 154.69 55.0603 154.62 53.8603 154.6L38.0703 154.43C36.6103 154.41 35.1203 154.4 33.7303 154.77C32.8403 155.01 32.1403 155.39 31.6103 155.88L31.6003 155.89Z" fill="#FFC931"/>
<path d="M114.861 155.89C117.021 157.83 116.681 161.38 116.821 163.77C117.091 168.33 116.781 172.92 115.901 177.43C115.761 178.13 115.591 178.88 115.001 179.42C114.451 179.93 113.611 180.18 112.801 180.38C106.101 182.09 98.7507 182.2 91.9707 180.67C90.7907 180.4 89.5207 180.03 88.9007 179.18C88.4407 178.55 88.4406 177.79 88.4506 177.07L88.6907 157.45C88.6907 156.75 88.7306 155.99 89.2806 155.44C90.0206 154.69 91.4006 154.62 92.6006 154.6L108.391 154.43C109.851 154.41 111.341 154.4 112.731 154.77C113.621 155.01 114.321 155.39 114.851 155.88L114.861 155.89Z" fill="#FFC931"/>
<path d="M53.3501 48.6903C58.3601 47.3903 63.5201 46.6703 68.7301 46.6103C95.5201 46.2903 121.69 63.4904 131.31 87.9104C138.9 107.17 135.76 129.88 124.1 146.96C111.31 165.69 88.3801 167.16 66.9801 167.4C51.6401 167.57 35.8101 163.98 23.7401 154.73C4.33009 139.86 -1.73991 111.76 6.90009 89.1803C14.4601 69.4303 32.5801 54.0803 53.3501 48.6903Z" fill="#FFF0B0"/>
<path d="M60.3605 114.93C60.4905 115.36 58.6805 118.69 59.4605 119.07C63.5405 121.06 67.4905 122.59 75.8505 120.45C80.9605 119.14 83.8105 115.1 84.8605 111.72C86.2105 107.39 84.8105 100.52 77.8005 95.8203C72.0405 101.23 69.6305 110.17 63.8705 115.58C62.7405 116.64 60.0005 113.72 60.3505 114.92L60.3605 114.93Z" fill="#FFAF22"/>
<path d="M60.9003 94.6599C60.3903 94.8399 59.9003 95.0499 59.4103 95.2899C51.6303 99.0899 49.6803 110.27 55.8003 116.44C59.3203 119.98 64.6903 121.37 69.6203 120.59C75.1603 119.71 80.3503 116 82.3203 110.74C84.2903 105.48 82.5203 98.8699 77.8003 95.8299C75.2503 94.1899 72.1303 93.6499 69.1003 93.5499C66.3303 93.4599 63.4903 93.7199 60.9003 94.6599Z" fill="#FFC931"/>
<path d="M66.0505 103.92C65.9405 103.41 65.7905 102.91 65.5705 102.42C65.2905 101.78 64.8905 101.17 64.3005 100.81C63.7105 100.45 62.8905 100.38 62.3405 100.8C61.8205 101.19 61.6405 101.89 61.5205 102.54C61.1905 104.45 61.2605 106.29 61.3905 108.21C61.4905 109.79 61.4305 111.38 62.2405 112.81C62.4305 113.15 62.6905 113.49 63.0505 113.64C63.4805 113.82 63.9905 113.71 64.3805 113.45C64.7705 113.19 65.0405 112.79 65.2505 112.37C65.8705 111.17 66.0505 109.8 66.1705 108.46C66.3105 106.95 66.3705 105.39 66.0605 103.92H66.0505Z" fill="#FFF0B0"/>
<path d="M74.4206 103.92C74.3106 103.41 74.1606 102.91 73.9406 102.42C73.6606 101.78 73.2606 101.17 72.6706 100.81C72.0806 100.45 71.2606 100.38 70.7106 100.8C70.1906 101.19 70.0106 101.89 69.8906 102.54C69.5606 104.45 69.6306 106.29 69.7606 108.21C69.8606 109.79 69.8006 111.38 70.6106 112.81C70.8006 113.15 71.0606 113.49 71.4206 113.64C71.8506 113.82 72.3606 113.71 72.7506 113.45C73.1406 113.19 73.4106 112.79 73.6206 112.37C74.2406 111.17 74.4206 109.8 74.5406 108.46C74.6806 106.95 74.7406 105.39 74.4306 103.92H74.4206Z" fill="#FFF0B0"/>
<path d="M75.7006 133.77C72.8606 133.77 70.6906 132.63 70.6506 132.61C70.1606 132.35 69.9806 131.74 70.2506 131.25C70.5106 130.77 71.1206 130.58 71.6006 130.85C71.8606 130.99 77.6406 133.98 82.0206 128.57C82.3706 128.14 83.0006 128.07 83.4306 128.42C83.8606 128.77 83.9306 129.4 83.5806 129.83C81.0606 132.94 78.1306 133.78 75.7006 133.78V133.77Z" fill="#FFAF22"/>
<path d="M44.5503 98.8604C47.4388 98.8604 49.7803 96.5188 49.7803 93.6304C49.7803 90.7419 47.4388 88.4004 44.5503 88.4004C41.6619 88.4004 39.3203 90.7419 39.3203 93.6304C39.3203 96.5188 41.6619 98.8604 44.5503 98.8604Z" fill="#2B110C"/>
<path d="M42.8901 92.5503C43.3154 92.5503 43.6601 92.2055 43.6601 91.7803C43.6601 91.355 43.3154 91.0103 42.8901 91.0103C42.4649 91.0103 42.1201 91.355 42.1201 91.7803C42.1201 92.2055 42.4649 92.5503 42.8901 92.5503Z" fill="white"/>
<path d="M92.5708 98.8604C95.4593 98.8604 97.8008 96.5188 97.8008 93.6304C97.8008 90.7419 95.4593 88.4004 92.5708 88.4004C89.6824 88.4004 87.3408 90.7419 87.3408 93.6304C87.3408 96.5188 89.6824 98.8604 92.5708 98.8604Z" fill="#2B110C"/>
<path d="M90.9106 92.5503C91.3359 92.5503 91.6806 92.2055 91.6806 91.7803C91.6806 91.355 91.3359 91.0103 90.9106 91.0103C90.4854 91.0103 90.1406 91.355 90.1406 91.7803C90.1406 92.2055 90.4854 92.5503 90.9106 92.5503Z" fill="white"/>
<path d="M66.6404 57.8302C66.6404 57.8302 46.8204 56.6601 30.9304 71.3102C30.9304 71.3102 13.7304 83.5502 8.37041 95.5502C7.54041 97.4002 5.22041 97.8401 3.93041 96.3102C3.89041 96.2601 3.85041 96.2102 3.81041 96.1702C-0.98959 90.3801 0.51041 81.2102 6.95041 77.6301C6.99041 77.6102 7.04041 77.5801 7.08041 77.5602C7.08041 77.5602 0.710409 67.7902 10.7304 62.9102C10.7304 62.9102 2.97041 46.6301 17.4904 40.6902C17.4904 40.6902 18.3704 22.9802 36.8804 26.4202C36.8804 26.4202 34.7304 19.4502 41.7004 18.1802C41.7004 18.1802 41.2504 6.91015 50.7804 2.61015C60.3304 -1.68985 84.7204 -1.82985 94.5104 11.1502C94.5104 11.1502 98.3104 16.9602 99.2104 19.9302C99.2104 19.9302 104.91 15.9302 110.03 19.3801C116.14 23.5001 112.51 30.8502 112.51 30.8502C112.51 30.8502 129.23 33.5901 129.6 55.2602C129.6 55.2602 146 60.9002 138.75 80.9202C138.75 80.9202 143.76 92.2202 134.34 98.1301C133.06 98.9302 131.39 98.3402 130.77 96.9102C127.51 89.4502 115.68 67.6002 86.4704 59.2502C86.4704 59.2502 73.9804 57.4102 66.6404 57.8402V57.8302Z" fill="#5B4428"/>
<path d="M66.6409 57.83L67.8809 43.7C67.9009 43.46 68.0909 43.27 68.3209 43.27H69.8109C70.0409 43.27 70.2309 43.47 70.2309 43.72V57.78L66.6309 57.83H66.6409Z" fill="#725836"/>
<path d="M43.7908 50.7202C41.3108 48.7302 38.7108 46.8902 36.0208 45.1902C33.2608 43.4502 30.3608 41.8402 27.2008 41.0202C25.7508 40.6402 24.1908 40.4502 22.7908 40.9702C20.1708 41.9502 19.0708 45.0402 18.7108 47.8202C17.9508 53.7602 19.1708 59.7602 20.6008 65.5802C21.6108 69.6802 24.3808 69.2002 27.3508 67.0902L44.1308 55.1502C45.0008 54.5302 45.9908 53.5902 45.6408 52.5802C45.4908 52.1502 45.1308 51.8302 44.7808 51.5402C44.4508 51.2702 44.1208 51.0002 43.7808 50.7302L43.7908 50.7202Z" fill="#FFF0B0"/>
<path d="M24.9704 45.0403C25.4504 44.8603 26.0004 44.7603 26.6204 44.7403C27.8804 44.7103 29.1404 44.9503 30.2804 45.4503C31.6404 46.0503 33.5704 47.0003 34.7004 47.9303L39.5304 51.8903C40.0404 52.3003 40.5804 52.8003 40.5904 53.4403C40.5904 54.1403 39.9604 54.6903 39.3804 55.1403C35.7904 57.9003 31.4004 60.6403 27.8104 63.4003C27.2604 63.8203 26.5704 64.2703 25.9204 64.0403C25.4004 63.8603 25.1504 63.3303 24.9504 62.8403C23.5504 59.3103 19.4404 47.1203 24.9604 45.0403H24.9704Z" fill="#FFC931"/>
<path d="M118.01 41.0799C116.93 39.9799 115.38 39.4799 113.85 39.6599C106.81 40.5099 97.0104 50.1199 97.0104 50.1199C97.0104 50.1199 91.9304 55.0099 98.7904 59.5099L112.02 67.2299C112.02 67.2299 119.85 73.3899 121.21 66.2499C123.73 49.8599 120.36 43.4699 118.01 41.0799Z" fill="#FFF0B0"/>
<path d="M113.691 44.4101C112.891 44.3901 112.041 44.6901 111.301 45.0401C109.301 45.9901 107.501 47.2501 105.711 48.5201C104.071 49.6801 102.421 50.8401 101.021 52.2401C100.031 53.2301 99.1208 54.5601 99.5508 55.8501C99.9208 56.9401 101.111 57.5801 102.201 58.1101C105.931 59.9201 109.711 62.3301 113.431 64.1401C114.811 64.8101 116.581 65.6801 117.061 63.7401C117.991 59.9501 118.051 55.4001 117.541 51.5401C117.311 49.7701 116.941 47.9901 116.151 46.3701C115.821 45.6801 115.381 44.9901 114.661 44.6501C114.351 44.5001 114.021 44.4301 113.681 44.4201L113.691 44.4101Z" fill="#FFC931"/>
</g>
<defs>
<clipPath id="clip0_113_24002">
<rect width="156.02" height="181.75" fill="white" transform="translate(0.799805)"/>
</clipPath>
</defs>
</svg>
