<svg width="100%" height="100%" viewBox="0 0 157 174" fill="none" xmlns="http://www.w3.org/2000/svg">
<g clip-path="url(#clip0_113_24004)">
<path d="M123.621 88.7598C123.621 88.7598 128.351 96.2298 129.071 101.35C129.071 101.35 134.051 105.51 136.641 108.61L133.521 98.2298C133.521 98.2298 127.651 91.1098 123.631 88.7598H123.621Z" fill="#4BABF9"/>
<path d="M116.091 65.2698C122.101 67.6998 128.291 70.2398 132.881 74.8298C134.071 76.0198 135.181 77.4298 135.431 79.0898C135.661 80.6598 135.101 82.2498 134.251 83.5998C132.961 85.6598 131.041 87.2298 128.921 88.3998C127.621 89.1198 123.691 91.4598 122.521 90.0898L112.101 77.8498C111.961 77.6898 111.821 77.5198 111.781 77.3098C111.741 77.0998 111.821 76.8798 111.891 76.6698L116.081 65.2598L116.091 65.2698Z" fill="#1699F2"/>
<path d="M141.792 127.61C142.542 127.53 143.292 127.47 144.052 127.43C144.692 127.39 145.052 127.31 145.682 127.22C146.122 127.16 147.272 126.87 147.682 126.71C149.692 125.91 151.132 124.79 152.572 123.17C152.672 123.06 152.772 122.94 152.872 122.82C153.372 122.22 153.832 121.54 153.952 120.76C154.072 119.98 153.722 119.09 153.002 118.79C152.382 118.53 151.652 118.75 151.112 119.15C150.572 119.55 150.172 120.1 149.722 120.6C148.992 121.42 148.112 122.12 147.152 122.65C146.632 122.94 146.032 123.18 145.452 123.11C145.252 123.09 145.112 122.91 145.142 122.71C145.332 121.5 145.662 120.32 145.862 119.12C146.082 117.81 146.142 116.44 145.692 115.19C145.142 113.66 143.852 112.46 142.372 111.77C140.902 111.08 139.172 110.85 137.652 111.4C135.652 112.13 134.302 114.1 133.822 116.17C133.162 119 133.962 122.14 135.892 124.31C135.992 124.42 135.942 124.6 135.792 124.63C133.902 125.07 131.932 125.13 130.022 124.81C129.812 125.31 129.512 127.29 129.912 128.57C129.952 128.71 130.012 128.86 130.132 128.95C130.232 129.02 131.662 129.1 131.782 129.1C133.782 129.21 135.762 128.98 137.682 128.41C139.032 128.01 140.412 127.77 141.802 127.62L141.792 127.61ZM137.542 117.75C137.542 117.75 137.542 117.69 137.542 117.66C137.562 117.02 137.712 116.37 138.062 115.83C138.412 115.29 138.982 114.88 139.622 114.81C140.102 114.76 140.602 114.91 140.992 115.2C141.382 115.49 141.682 115.9 141.852 116.35C142.122 117.05 142.112 117.84 142.012 118.58C141.862 119.64 141.532 120.66 141.042 121.61C140.942 121.8 140.802 122.06 140.592 122.15C140.382 122.24 140.062 122.07 139.872 121.97C139.112 121.56 138.502 120.92 138.092 120.16C137.682 119.4 137.522 118.6 137.532 117.77L137.542 117.75Z" fill="#4BABF9"/>
<path d="M50.2915 54.3002C55.3015 53.0002 60.4615 52.2802 65.6715 52.2202C92.4615 51.9002 118.631 69.1002 128.251 93.5202C135.841 112.78 132.701 135.49 121.041 152.57C108.251 171.3 85.3215 172.77 63.9215 173.01C48.5815 173.18 32.7515 169.59 20.6815 160.34C1.2715 145.47 -4.7985 117.37 3.8415 94.7902C11.4015 75.0402 29.5215 59.6902 50.2915 54.3002Z" fill="#CDE7FC"/>
<path d="M57.3019 120.54C57.4319 120.97 55.6219 124.3 56.4019 124.68C60.4819 126.67 64.4319 128.2 72.7919 126.06C77.9019 124.75 80.7519 120.71 81.8019 117.33C83.1519 113 81.7519 106.13 74.7419 101.43C68.9819 106.84 66.5719 115.78 60.8119 121.19C59.6819 122.25 56.9419 119.33 57.2919 120.53L57.3019 120.54Z" fill="#4BABF9"/>
<path d="M57.8417 100.27C57.3317 100.45 56.8417 100.66 56.3517 100.9C48.5717 104.7 46.6217 115.88 52.7417 122.05C56.2617 125.59 61.6317 126.98 66.5617 126.2C72.1017 125.32 77.2917 121.61 79.2617 116.35C81.2317 111.09 79.4617 104.48 74.7417 101.44C72.1917 99.7998 69.0717 99.2598 66.0417 99.1598C63.2717 99.0698 60.4317 99.3298 57.8417 100.27Z" fill="#86BCFC"/>
<path d="M63.0016 109.53C62.8916 109.02 62.7416 108.52 62.5216 108.03C62.2416 107.39 61.8416 106.78 61.2516 106.42C60.6616 106.06 59.8416 105.99 59.2916 106.41C58.7716 106.8 58.5916 107.5 58.4716 108.15C58.1416 110.06 58.2116 111.9 58.3416 113.82C58.4416 115.4 58.3816 116.99 59.1916 118.42C59.3816 118.76 59.6416 119.1 60.0016 119.25C60.4316 119.43 60.9416 119.32 61.3316 119.06C61.7216 118.8 61.9916 118.4 62.2016 117.98C62.8216 116.78 63.0016 115.41 63.1216 114.07C63.2616 112.56 63.3216 111 63.0116 109.53H63.0016Z" fill="#CDE7FC"/>
<path d="M71.361 109.53C71.251 109.02 71.101 108.52 70.881 108.03C70.601 107.39 70.201 106.78 69.611 106.42C69.021 106.06 68.201 105.99 67.651 106.41C67.131 106.8 66.951 107.5 66.831 108.15C66.501 110.06 66.571 111.9 66.701 113.82C66.801 115.4 66.741 116.99 67.551 118.42C67.741 118.76 68.001 119.1 68.361 119.25C68.791 119.43 69.301 119.32 69.691 119.06C70.081 118.8 70.351 118.4 70.561 117.98C71.181 116.78 71.361 115.41 71.481 114.07C71.621 112.56 71.681 111 71.371 109.53H71.361Z" fill="#CDE7FC"/>
<path d="M16.9912 77.4198C16.9912 77.4198 10.5312 56.0198 16.9912 49.1898C23.4512 42.3498 42.8212 59.1298 42.8212 59.1298C42.8212 59.1298 26.1112 66.7898 16.9912 77.4298V77.4198Z" fill="#CDE7FC"/>
<path d="M91.6914 59.51C91.6914 59.51 101.841 49.56 109.131 48.68C110.711 48.49 112.321 49.01 113.441 50.15C115.881 52.63 119.371 59.25 116.761 76.22C116.761 76.22 108.021 65.21 91.6914 59.51Z" fill="#CDE7FC"/>
<path d="M109.501 52.8501C108.671 52.8201 107.791 53.1401 107.021 53.5001C104.951 54.4801 103.081 55.7901 101.231 57.1001C99.5314 58.3001 97.8214 59.5001 96.3714 60.9501C95.3514 61.9701 94.4114 63.3601 94.8514 64.6901C95.2314 65.8201 96.4614 66.4801 97.5914 67.0301L109.171 72.6601C110.601 73.3501 112.431 74.2601 112.931 72.2401C113.891 68.3101 114.011 64.2201 113.481 60.2201C113.241 58.3901 112.861 56.5501 112.051 54.8601C111.711 54.1501 111.251 53.4301 110.511 53.0801C110.191 52.9301 109.851 52.8601 109.501 52.8501Z" fill="#4BABF9"/>
<path d="M21.5315 52.5498C22.0715 52.3498 22.6915 52.2298 23.4115 52.2098C24.8415 52.1698 26.2715 52.4498 27.5615 53.0198C29.1015 53.6998 30.4015 54.7598 31.6915 55.8098L37.1815 60.3098C37.7515 60.7798 38.3715 61.3398 38.3815 62.0698C38.3815 62.8698 37.6715 63.4898 37.0115 63.9998L24.7715 73.3998C24.1515 73.8798 23.3615 74.3898 22.6215 74.1298C22.0315 73.9298 21.7415 73.3198 21.5215 72.7598C19.9315 68.7498 15.2715 54.9098 21.5415 52.5598L21.5315 52.5498Z" fill="#4BABF9"/>
<path d="M72.642 139.38C69.802 139.38 67.632 138.24 67.592 138.22C67.102 137.96 66.922 137.35 67.192 136.86C67.452 136.38 68.062 136.19 68.542 136.46C68.802 136.6 74.582 139.59 78.962 134.18C79.312 133.75 79.942 133.68 80.372 134.03C80.802 134.38 80.872 135.01 80.522 135.44C78.002 138.55 75.072 139.39 72.642 139.39V139.38Z" fill="#4BABF9"/>
<path d="M41.4917 104.46C44.3802 104.46 46.7217 102.118 46.7217 99.23C46.7217 96.3416 44.3802 94 41.4917 94C38.6033 94 36.2617 96.3416 36.2617 99.23C36.2617 102.118 38.6033 104.46 41.4917 104.46Z" fill="#2B110C"/>
<path d="M39.8315 98.1601C40.2568 98.1601 40.6015 97.8154 40.6015 97.3901C40.6015 96.9649 40.2568 96.6201 39.8315 96.6201C39.4063 96.6201 39.0615 96.9649 39.0615 97.3901C39.0615 97.8154 39.4063 98.1601 39.8315 98.1601Z" fill="white"/>
<path d="M89.5113 104.46C92.3997 104.46 94.7412 102.118 94.7412 99.23C94.7412 96.3416 92.3997 94 89.5113 94C86.6228 94 84.2812 96.3416 84.2812 99.23C84.2812 102.118 86.6228 104.46 89.5113 104.46Z" fill="#2B110C"/>
<path d="M87.8511 98.1601C88.2763 98.1601 88.6211 97.8154 88.6211 97.3901C88.6211 96.9649 88.2763 96.6201 87.8511 96.6201C87.4258 96.6201 87.0811 96.9649 87.0811 97.3901C87.0811 97.8154 87.4258 98.1601 87.8511 98.1601Z" fill="white"/>
<path d="M133.512 98.2302L145.412 110.67C146.992 112.32 148.112 114.35 148.652 116.57C149.972 121.95 152.482 132.33 153.252 136.98C154.112 142.13 155.472 151.29 155.982 154.73C156.092 155.5 155.612 156.23 154.862 156.44L147.022 158.57C145.842 158.89 144.652 158.12 144.452 156.91L136.912 110.29C136.732 109.17 136.472 108.05 136.142 106.96L133.512 98.2202V98.2302Z" fill="#1699F2"/>
<path d="M28.312 71.82C28.062 71.83 27.822 71.79 27.602 71.66C27.322 71.5 27.122 71.22 26.952 70.95C24.912 67.78 24.382 63.82 24.782 60.07C25.182 56.32 26.442 52.72 27.762 49.19C33.312 34.33 40.282 19.56 51.622 8.45999C56.172 4.00999 61.852 0.0499924 68.222 -7.56019e-06C79.142 -0.0800076 86.152 9.83999 90.392 18.53C91.882 21.59 93.302 24.68 94.642 27.8C97.332 34.05 99.722 40.42 101.802 46.9C103.592 52.46 105.152 58.45 103.572 64.07C103.272 65.13 102.882 66.34 103.492 67.25C103.952 67.95 104.912 68.29 105.162 69.09C105.442 69.97 104.622 70.88 103.732 71.08C102.842 71.28 101.912 70.96 101.042 70.67C84.312 64.99 66.282 63.17 48.762 65.39C42.212 66.22 35.582 67.66 29.972 71.15C29.472 71.46 28.882 71.79 28.332 71.82H28.312Z" fill="#1699F2"/>
<path d="M92.2711 60.0602C92.2711 60.0602 78.4911 57.0302 62.6811 58.0202C62.5011 58.0302 62.3311 57.8702 62.3111 57.6502C62.2111 56.7802 62.1811 56.2002 62.1411 55.7502C61.5811 49.2902 61.8711 43.4402 63.0211 37.5202C64.3211 30.7902 67.4811 24.8402 70.7411 19.1802C70.8711 18.9502 70.8411 18.6602 70.6011 18.5402C70.4211 18.4502 69.1311 18.0702 69.1311 18.0702C68.3411 17.7602 68.3511 17.9902 68.1011 18.3602C67.8511 18.7302 67.5211 19.2002 67.2911 19.5802C65.7411 22.0902 64.3711 24.6202 63.1511 27.3802C61.5911 30.9202 60.3611 34.8202 59.6311 38.7402C58.5211 44.7502 58.6811 50.9202 58.9911 57.1202L59.0211 57.5502L59.0411 57.8602C59.0411 57.8602 59.0611 58.2302 58.6011 58.2402C56.8711 58.3002 51.6611 58.6602 44.9411 60.0202C44.8311 60.0402 44.7211 59.9502 44.7111 59.8102C44.7111 59.7602 44.7111 59.7002 44.6911 59.6302C43.6611 53.1102 44.5911 44.7002 45.9311 39.2002C47.3911 33.2202 48.6611 29.5602 50.7111 24.6802C51.1611 23.6202 51.7211 22.2802 52.1011 21.1802C52.2111 20.8702 51.3311 20.6002 51.0611 20.4802C50.8911 20.4002 50.5411 20.2502 50.1811 20.1502C49.6311 20.0002 49.5311 20.6102 48.6311 22.6002C45.2311 30.1502 44.2911 32.4602 42.5111 41.4302C42.4411 41.7602 41.7611 46.4702 41.4911 46.7802C41.3411 46.9502 40.8111 47.1802 40.5311 47.3102C36.0711 49.3002 29.6911 51.4102 25.7011 54.4602C24.7611 55.1802 22.4011 58.6402 23.5811 59.5502C27.0711 55.8302 36.3211 51.9402 41.2111 50.2102C41.3611 50.1602 41.5011 50.3102 41.4811 50.4902C41.2511 52.6402 41.2311 56.8202 41.6611 60.3002C41.6811 60.4302 41.6111 60.5402 41.5011 60.5702C35.1011 62.0902 28.6511 64.6002 25.5411 68.7402L26.6011 71.0302C26.6011 71.0302 30.0211 66.9302 36.7011 64.9502C45.1511 62.4402 53.1511 61.5502 58.6511 61.2802C59.9611 61.2202 64.3011 61.0502 65.6111 61.0302C73.5411 60.8802 91.0711 61.2602 103.101 66.5002L104.481 64.2602C104.481 64.2602 100.741 61.9602 92.3011 60.0902L92.2711 60.0602Z" fill="#C0F1FC"/>
</g>
<defs>
<clipPath id="clip0_113_24004">
<rect width="156" height="173.02" fill="white" transform="translate(0.378906)"/>
</clipPath>
</defs>
</svg>
