<svg width="100%" height="100%" viewBox="0 0 89 80" fill="none" xmlns="http://www.w3.org/2000/svg">
<g clip-path="url(#clip0_195_4231)">
<path d="M81.5231 45.8108C81.9523 45.765 82.3815 45.7307 82.8163 45.7078C83.1825 45.6849 83.3885 45.6391 83.749 45.5876C84.0008 45.5533 84.6588 45.3873 84.8934 45.2958C86.0436 44.838 86.8675 44.1971 87.6915 43.2702C87.7487 43.2072 87.806 43.1386 87.8632 43.0699C88.1493 42.7266 88.4125 42.3375 88.4812 41.8912C88.5498 41.4448 88.3496 40.9356 87.9376 40.7639C87.5828 40.6151 87.1651 40.741 86.8561 40.9699C86.5471 41.1988 86.3182 41.5135 86.0607 41.7996C85.643 42.2688 85.1395 42.6694 84.5902 42.9726C84.2926 43.1386 83.9493 43.2759 83.6174 43.2358C83.503 43.2244 83.4229 43.1214 83.44 43.007C83.5488 42.3146 83.7376 41.6394 83.852 40.9527C83.9779 40.2032 84.0122 39.4192 83.7547 38.704C83.44 37.8285 82.7019 37.1419 81.855 36.747C81.0139 36.3522 80.024 36.2206 79.1542 36.5353C78.0098 36.953 77.2373 38.0803 76.9627 39.2647C76.585 40.8841 77.0428 42.6808 78.1471 43.9225C78.2044 43.9854 78.1757 44.0884 78.0899 44.1056C77.0084 44.3574 75.8812 44.3917 74.7883 44.2086C74.6681 44.4947 74.4965 45.6277 74.7253 46.3601C74.7482 46.4402 74.7826 46.526 74.8512 46.5775C74.9085 46.6176 75.7267 46.6634 75.7954 46.6634C76.9398 46.7263 78.0727 46.5947 79.1714 46.2685C79.9439 46.0396 80.7335 45.9023 81.5289 45.8165L81.5231 45.8108ZM79.0913 40.1688C79.0913 40.1688 79.0913 40.1345 79.0913 40.1173C79.1027 39.7511 79.1885 39.3792 79.3888 39.0702C79.5891 38.7612 79.9152 38.5266 80.2815 38.4865C80.5561 38.4579 80.8422 38.5438 81.0654 38.7097C81.2885 38.8756 81.4602 39.1102 81.5575 39.3677C81.712 39.7683 81.7062 40.2203 81.649 40.6437C81.5632 41.2503 81.3744 41.8339 81.094 42.3775C81.0368 42.4862 80.9567 42.635 80.8365 42.6865C80.7163 42.738 80.5332 42.6407 80.4245 42.5835C79.9896 42.3489 79.6406 41.9827 79.406 41.5478C79.1714 41.113 79.0798 40.6552 79.0855 40.1803L79.0913 40.1688Z" fill="#FFAF22"/>
<path d="M21.3272 60.3619C20.1999 61.4091 20.3716 63.3374 20.2972 64.6306C20.1541 67.1025 20.3144 69.5859 20.7778 72.0349C20.8522 72.4183 20.9381 72.8188 21.2471 73.1107C21.5389 73.3853 21.9737 73.5227 22.3972 73.6314C25.9048 74.5583 29.75 74.6156 33.2977 73.7916C33.9157 73.6486 34.5794 73.4426 34.9056 72.9848C35.1459 72.6472 35.1459 72.2352 35.1402 71.8404L35.0143 61.2145C35.0143 60.8369 34.9914 60.4249 34.7053 60.1273C34.3162 59.7211 33.5952 59.681 32.9658 59.6753L24.7032 59.5837C23.9364 59.578 23.1582 59.5666 22.4315 59.7668C21.9623 59.8985 21.6018 60.1045 21.3214 60.3677L21.3272 60.3619Z" fill="#FFAF22"/>
<path d="M66.9546 59.6696C68.0818 60.7167 67.9102 62.645 67.9846 63.9382C68.1276 66.4102 67.9674 68.8935 67.5039 71.3426C67.4295 71.7259 67.3437 72.1265 67.0347 72.4183C66.7429 72.693 66.308 72.8303 65.8846 72.939C62.377 73.866 58.5317 73.9232 54.9841 73.0992C54.3661 72.9562 53.7023 72.7502 53.3762 72.2924C53.1358 71.9548 53.1358 71.5428 53.1416 71.148L53.2675 60.5222C53.2675 60.1445 53.2903 59.7325 53.5764 59.435C53.9655 59.0287 54.6865 58.9887 55.3159 58.9829L63.5786 58.8914C64.3453 58.8857 65.1235 58.8742 65.8502 59.0745C66.3194 59.2061 66.6799 59.4121 66.9603 59.6753L66.9546 59.6696Z" fill="#FFAF22"/>
<path d="M16.7209 65.2028C15.485 66.3129 15.6795 68.3442 15.5994 69.7118C15.4449 72.321 15.6223 74.9475 16.1259 77.5281C16.206 77.9286 16.3032 78.3578 16.6408 78.6668C16.9555 78.9586 17.4362 79.1017 17.8997 79.2161C21.7335 80.1946 25.9392 80.2575 29.8187 79.382C30.4939 79.2275 31.2206 79.0158 31.5754 78.5295C31.8386 78.169 31.8386 77.7341 31.8329 77.3221L31.6956 66.0954C31.6956 65.6949 31.6727 65.26 31.358 64.9453C30.9345 64.5162 30.1449 64.4761 29.4582 64.4647L20.4231 64.3674C19.5877 64.3559 18.7351 64.3502 17.9397 64.5619C17.4305 64.6993 17.0299 64.9167 16.7267 65.1971L16.7209 65.2028Z" fill="#FFC931"/>
<path d="M64.3623 65.2028C65.5983 66.3129 65.4037 68.3442 65.4839 69.7118C65.6384 72.321 65.461 74.9475 64.9574 77.5281C64.8773 77.9286 64.78 78.3578 64.4424 78.6668C64.1277 78.9586 63.6471 79.1017 63.1836 79.2161C59.3498 80.1946 55.1441 80.2575 51.2646 79.382C50.5894 79.2275 49.8627 79.0158 49.5079 78.5295C49.2447 78.169 49.2447 77.7341 49.2504 77.3221L49.3877 66.0954C49.3877 65.6949 49.4106 65.26 49.7253 64.9453C50.1488 64.5162 50.9384 64.4761 51.6251 64.4647L60.6602 64.3674C61.4956 64.3559 62.3482 64.3502 63.1435 64.5619C63.6528 64.6993 64.0533 64.9167 64.3566 65.1971L64.3623 65.2028Z" fill="#FFC931"/>
<path d="M29.1662 3.8624C32.033 3.11854 34.9855 2.70655 37.9667 2.67222C53.2961 2.48911 68.2707 12.331 73.7753 26.3043C78.1184 37.325 76.3216 50.3197 69.6497 60.093C62.3312 70.8104 49.2106 71.6516 36.9654 71.7889C28.1877 71.8862 19.1297 69.8319 12.2232 64.539C1.11672 56.0303 -2.35657 39.9514 2.58728 27.031C6.91315 15.7299 17.2815 6.94659 29.1662 3.8624Z" fill="#FFF0B0"/>
<path d="M33.1774 41.7653C33.2517 42.0113 32.2161 43.9168 32.6624 44.1342C34.997 45.2729 37.2572 46.1484 42.0408 44.9238C44.9648 44.1743 46.5956 41.8625 47.1964 39.9285C47.9689 37.4508 47.1678 33.5198 43.1566 30.8304C39.8607 33.9261 38.4817 39.0416 35.1858 42.1372C34.5392 42.7437 32.9714 41.0729 33.1716 41.7595L33.1774 41.7653Z" fill="#FFAF22"/>
<path d="M33.4866 30.1667C33.1948 30.2697 32.9144 30.3898 32.634 30.5272C28.1822 32.7015 27.0664 39.0988 30.5683 42.6293C32.5825 44.6549 35.6552 45.4503 38.4762 45.004C41.6462 44.5004 44.616 42.3775 45.7432 39.3677C46.8705 36.3579 45.8576 32.5757 43.1568 30.8362C41.6977 29.8977 39.9124 29.5887 38.1787 29.5315C36.5937 29.48 34.9686 29.6288 33.4866 30.1667Z" fill="#FFC931"/>
<path d="M36.4389 35.4653C36.3759 35.1735 36.2901 34.8874 36.1642 34.607C36.004 34.2408 35.7751 33.8917 35.4375 33.6857C35.0999 33.4797 34.6307 33.4397 34.316 33.68C34.0184 33.9032 33.9154 34.3037 33.8468 34.6757C33.6579 35.7686 33.698 36.8214 33.7724 37.9201C33.8296 38.8241 33.7953 39.7339 34.2588 40.5522C34.3675 40.7468 34.5163 40.9413 34.7222 41.0271C34.9683 41.1301 35.2601 41.0672 35.4833 40.9184C35.7064 40.7696 35.8609 40.5408 35.9811 40.3004C36.3359 39.6138 36.4389 38.8299 36.5075 38.0631C36.5876 37.1991 36.622 36.3064 36.4446 35.4653H36.4389Z" fill="#FFF0B0"/>
<path d="M41.2226 35.4653C41.1596 35.1735 41.0738 34.8874 40.9479 34.607C40.7877 34.2408 40.5588 33.8917 40.2212 33.6857C39.8836 33.4797 39.4144 33.4397 39.0997 33.68C38.8021 33.9032 38.6991 34.3037 38.6305 34.6757C38.4416 35.7686 38.4817 36.8214 38.5561 37.9201C38.6133 38.8241 38.579 39.7339 39.0425 40.5522C39.1512 40.7468 39.2999 40.9413 39.5059 41.0271C39.752 41.1301 40.0438 41.0672 40.267 40.9184C40.4901 40.7696 40.6446 40.5408 40.7648 40.3004C41.1196 39.6138 41.2226 38.8299 41.2912 38.0631C41.3713 37.1991 41.4057 36.3064 41.2283 35.4653H41.2226Z" fill="#FFF0B0"/>
<path d="M10.1116 17.0918C10.1116 17.0918 6.41517 4.8466 10.1116 0.938435C13.8081 -2.97545 24.8917 6.62615 24.8917 6.62615C24.8917 6.62615 15.3301 11.0092 10.1116 17.0975V17.0918Z" fill="#FFF0B0"/>
<path d="M52.8555 6.84359C52.8555 6.84359 58.6633 1.15015 62.8347 0.64661C63.7388 0.537891 64.6601 0.835437 65.3009 1.48775C66.6971 2.90682 68.6941 6.69482 67.2007 16.4051C67.2007 16.4051 62.1996 10.1052 52.8555 6.84359Z" fill="#FFF0B0"/>
<path d="M63.0465 3.03271C62.5716 3.01554 62.068 3.19864 61.6275 3.40464C60.443 3.9654 59.373 4.71499 58.3144 5.46458C57.3416 6.15122 56.3632 6.83787 55.5335 7.66757C54.9498 8.25122 54.4119 9.04658 54.6637 9.80761C54.8812 10.4542 55.585 10.8319 56.2316 11.1466L62.8577 14.3681C63.6759 14.7629 64.7231 15.2836 65.0092 14.1278C65.5585 11.879 65.6272 9.53868 65.3239 7.24986C65.1866 6.20272 64.9691 5.14986 64.5056 4.18284C64.3111 3.77657 64.0479 3.36458 63.6245 3.16431C63.4413 3.07848 63.2468 3.03843 63.0465 3.03271Z" fill="#FFC931"/>
<path d="M12.7096 2.86104C13.0186 2.7466 13.3733 2.67794 13.7853 2.66649C14.6036 2.64361 15.4218 2.80382 16.16 3.12998C17.0412 3.51908 17.785 4.12562 18.5232 4.72643L21.6646 7.30136C21.9907 7.57029 22.3455 7.89073 22.3512 8.30844C22.3512 8.7662 21.945 9.12097 21.5673 9.41279L14.5635 14.7915C14.2088 15.0662 13.7567 15.358 13.3333 15.2092C12.9957 15.0948 12.8297 14.7457 12.7039 14.4253C11.794 12.1308 9.12757 4.21145 12.7153 2.86677L12.7096 2.86104Z" fill="#FFC931"/>
<path d="M41.955 52.5456C40.33 52.5456 39.0883 51.8933 39.0654 51.8819C38.785 51.7331 38.682 51.384 38.8365 51.1037C38.9853 50.829 39.3343 50.7203 39.609 50.8748C39.7578 50.9549 43.0651 52.6658 45.5714 49.5702C45.7716 49.3241 46.1321 49.2841 46.3782 49.4843C46.6242 49.6846 46.6643 50.0451 46.464 50.2911C45.022 52.0707 43.3455 52.5513 41.955 52.5513V52.5456Z" fill="#FFAF22"/>
<path d="M24.1308 32.5642C25.7836 32.5642 27.1235 31.2244 27.1235 29.5716C27.1235 27.9188 25.7836 26.5789 24.1308 26.5789C22.478 26.5789 21.1382 27.9188 21.1382 29.5716C21.1382 31.2244 22.478 32.5642 24.1308 32.5642Z" fill="#2B110C"/>
<path d="M23.1808 28.9593C23.4242 28.9593 23.6214 28.7621 23.6214 28.5187C23.6214 28.2754 23.4242 28.0781 23.1808 28.0781C22.9375 28.0781 22.7402 28.2754 22.7402 28.5187C22.7402 28.7621 22.9375 28.9593 23.1808 28.9593Z" fill="white"/>
<path d="M51.6079 32.5642C53.2607 32.5642 54.6005 31.2244 54.6005 29.5716C54.6005 27.9188 53.2607 26.5789 51.6079 26.5789C49.9551 26.5789 48.6152 27.9188 48.6152 29.5716C48.6152 31.2244 49.9551 32.5642 51.6079 32.5642Z" fill="#2B110C"/>
<path d="M50.6584 28.9593C50.9017 28.9593 51.099 28.7621 51.099 28.5187C51.099 28.2754 50.9017 28.0781 50.6584 28.0781C50.415 28.0781 50.2178 28.2754 50.2178 28.5187C50.2178 28.7621 50.415 28.9593 50.6584 28.9593Z" fill="white"/>
<path d="M4.11523 22.4019C4.11523 22.4019 21.453 23.14 30.9345 17.5152C40.4159 11.8904 42.7333 3.47903 42.7333 3.47903C42.7333 3.47903 32.2906 -1.36183 23.9879 5.66485C23.9879 5.66485 23.4958 10.7003 19.353 13.2752L12.807 17.5152L7.57134 19.7983C7.57134 19.7983 -0.0675938 22.07 4.11523 22.4019Z" fill="#FED752"/>
<path d="M19.45 20.3133C17.8249 21.6351 16.1655 22.934 14.3059 23.8839C13.665 24.21 13.007 24.4961 12.3489 24.7822C12.1944 24.8509 12.0228 24.931 11.977 25.0912C11.8854 25.4002 12.2917 25.6005 12.6064 25.652C14.1571 25.8923 15.7421 25.7721 17.3042 25.6005C30.3219 24.17 43.1851 19.1975 53.8796 11.6501C54.4918 11.221 55.127 10.7403 55.3959 10.0422C55.8308 8.90353 55.1327 7.64468 54.303 6.74632C51.4935 3.69646 47.1218 2.54633 42.9791 2.52344C42.4355 2.52344 41.8804 2.53489 41.3712 2.71799C40.8333 2.91254 40.3813 3.27875 39.9349 3.63924L19.9078 19.9414C19.7533 20.0673 19.5988 20.1931 19.45 20.3133Z" fill="#FED752"/>
<path d="M47.0074 10.7346C47.0074 10.7346 51.3047 19.352 63.7387 20.5193C63.7387 20.5193 66.5997 20.6166 68.6883 20.5193C68.6883 20.5193 72.9569 19.5465 65.6957 13.6071C58.4344 7.66757 52.5922 6.33433 52.5922 6.33433C52.5922 6.33433 45.4568 6.09973 47.0017 10.7289L47.0074 10.7346Z" fill="#FED752"/>
</g>
<defs>
<clipPath id="clip0_195_4231">
<rect width="88.0967" height="80" fill="white"/>
</clipPath>
</defs>
</svg>
