<svg width="100%" height="100%" viewBox="0 0 155 179" fill="none" xmlns="http://www.w3.org/2000/svg">
<g clip-path="url(#clip0_113_24005)">
<path d="M141.792 132.88C142.542 132.8 143.292 132.74 144.052 132.7C144.692 132.66 145.052 132.58 145.682 132.49C146.122 132.43 147.272 132.14 147.682 131.98C149.692 131.18 151.132 130.06 152.572 128.44C152.672 128.33 152.772 128.21 152.872 128.09C153.372 127.49 153.832 126.81 153.952 126.03C154.072 125.25 153.722 124.36 153.002 124.06C152.382 123.8 151.652 124.02 151.112 124.42C150.572 124.82 150.172 125.37 149.722 125.87C148.992 126.69 148.112 127.39 147.152 127.92C146.632 128.21 146.032 128.45 145.452 128.38C145.252 128.36 145.112 128.18 145.142 127.98C145.332 126.77 145.662 125.59 145.862 124.39C146.082 123.08 146.142 121.71 145.692 120.46C145.142 118.93 143.852 117.73 142.372 117.04C140.902 116.35 139.172 116.12 137.652 116.67C135.652 117.4 134.302 119.37 133.822 121.44C133.162 124.27 133.962 127.41 135.892 129.58C135.992 129.69 135.942 129.87 135.792 129.9C133.902 130.34 131.932 130.4 130.022 130.08C129.812 130.58 129.512 132.56 129.912 133.84C129.952 133.98 130.012 134.13 130.132 134.22C130.232 134.29 131.662 134.37 131.782 134.37C133.782 134.48 135.762 134.25 137.682 133.68C139.032 133.28 140.412 133.04 141.802 132.89L141.792 132.88ZM137.542 123.02C137.542 123.02 137.542 122.96 137.542 122.93C137.562 122.29 137.712 121.64 138.062 121.1C138.412 120.56 138.982 120.15 139.622 120.08C140.102 120.03 140.602 120.18 140.992 120.47C141.382 120.76 141.682 121.17 141.852 121.62C142.122 122.32 142.112 123.11 142.012 123.85C141.862 124.91 141.532 125.93 141.042 126.88C140.942 127.07 140.802 127.33 140.592 127.42C140.382 127.51 140.062 127.34 139.872 127.24C139.112 126.83 138.502 126.19 138.092 125.43C137.682 124.67 137.522 123.87 137.532 123.04L137.542 123.02Z" fill="#FF816C"/>
<path d="M50.2915 59.5702C55.3015 58.2702 60.4615 57.5502 65.6715 57.4902C92.4615 57.1702 118.631 74.3702 128.251 98.7902C135.841 118.05 132.701 140.76 121.041 157.84C108.251 176.57 85.3215 178.04 63.9215 178.28C48.5815 178.45 32.7515 174.86 20.6815 165.61C1.2715 150.74 -4.7985 122.64 3.8415 100.06C11.4015 80.3102 29.5215 64.9602 50.2915 59.5702Z" fill="#FCC9BB"/>
<path d="M57.3019 125.81C57.4319 126.24 55.6219 129.57 56.4019 129.95C60.4819 131.94 64.4319 133.47 72.7919 131.33C77.9019 130.02 80.7519 125.98 81.8019 122.6C83.1519 118.27 81.7519 111.4 74.7419 106.7C68.9819 112.11 66.5719 121.05 60.8119 126.46C59.6819 127.52 56.9419 124.6 57.2919 125.8L57.3019 125.81Z" fill="#FF816C"/>
<path d="M57.8417 105.54C57.3317 105.72 56.8417 105.93 56.3517 106.17C48.5717 109.97 46.6217 121.15 52.7417 127.32C56.2617 130.86 61.6317 132.25 66.5617 131.47C72.1017 130.59 77.2917 126.88 79.2617 121.62C81.2317 116.36 79.4617 109.75 74.7417 106.71C72.1917 105.07 69.0717 104.53 66.0417 104.43C63.2717 104.34 60.4317 104.6 57.8417 105.54Z" fill="#FF9578"/>
<path d="M63.0016 114.8C62.8916 114.29 62.7416 113.79 62.5216 113.3C62.2416 112.66 61.8416 112.05 61.2516 111.69C60.6616 111.33 59.8416 111.26 59.2916 111.68C58.7716 112.07 58.5916 112.77 58.4716 113.42C58.1416 115.33 58.2116 117.17 58.3416 119.09C58.4416 120.67 58.3816 122.26 59.1916 123.69C59.3816 124.03 59.6416 124.37 60.0016 124.52C60.4316 124.7 60.9416 124.59 61.3316 124.33C61.7216 124.07 61.9916 123.67 62.2016 123.25C62.8216 122.05 63.0016 120.68 63.1216 119.34C63.2616 117.83 63.3216 116.27 63.0116 114.8H63.0016Z" fill="#FCC9BB"/>
<path d="M71.361 114.8C71.251 114.29 71.101 113.79 70.881 113.3C70.601 112.66 70.201 112.05 69.611 111.69C69.021 111.33 68.201 111.26 67.651 111.68C67.131 112.07 66.951 112.77 66.831 113.42C66.501 115.33 66.571 117.17 66.701 119.09C66.801 120.67 66.741 122.26 67.551 123.69C67.741 124.03 68.001 124.37 68.361 124.52C68.791 124.7 69.301 124.59 69.691 124.33C70.081 124.07 70.351 123.67 70.561 123.25C71.181 122.05 71.361 120.68 71.481 119.34C71.621 117.83 71.681 116.27 71.371 114.8H71.361Z" fill="#FCC9BB"/>
<path d="M16.9912 82.7001C16.9912 82.7001 10.5312 61.3001 16.9912 54.4701C23.4512 47.6301 42.8212 64.4101 42.8212 64.4101C42.8212 64.4101 26.1112 72.0701 16.9912 82.7101V82.7001Z" fill="#FCC9BB"/>
<path d="M91.6914 64.7805C91.6914 64.7805 101.841 54.8305 109.131 53.9505C110.711 53.7605 112.321 54.2805 113.441 55.4205C115.881 57.9005 119.371 64.5205 116.761 81.4905C116.761 81.4905 108.021 70.4805 91.6914 64.7805Z" fill="#FCC9BB"/>
<path d="M109.501 58.1201C108.671 58.0901 107.791 58.4101 107.021 58.7701C104.951 59.7501 103.081 61.0601 101.231 62.3701C99.5314 63.5701 97.8214 64.7701 96.3714 66.2201C95.3514 67.2401 94.4114 68.6301 94.8514 69.9601C95.2314 71.0901 96.4614 71.7501 97.5914 72.3001L109.171 77.9301C110.601 78.6201 112.431 79.5301 112.931 77.5101C113.891 73.5801 114.011 69.4901 113.481 65.4901C113.241 63.6601 112.861 61.8201 112.051 60.1301C111.711 59.4201 111.251 58.7001 110.511 58.3501C110.191 58.2001 109.851 58.1301 109.501 58.1201Z" fill="#FF816C"/>
<path d="M21.5315 57.8203C22.0715 57.6203 22.6915 57.5003 23.4115 57.4803C24.8415 57.4403 26.2715 57.7203 27.5615 58.2903C29.1015 58.9703 30.4015 60.0303 31.6915 61.0803L37.1815 65.5803C37.7515 66.0503 38.3715 66.6103 38.3815 67.3403C38.3815 68.1403 37.6715 68.7603 37.0115 69.2703L24.7715 78.6703C24.1515 79.1503 23.3615 79.6603 22.6215 79.4003C22.0315 79.2003 21.7415 78.5903 21.5215 78.0303C19.9315 74.0203 15.2715 60.1803 21.5415 57.8303L21.5315 57.8203Z" fill="#FF816C"/>
<path d="M72.642 144.65C69.802 144.65 67.632 143.51 67.592 143.49C67.102 143.23 66.922 142.62 67.192 142.13C67.452 141.65 68.062 141.46 68.542 141.73C68.802 141.87 74.582 144.86 78.962 139.45C79.312 139.02 79.942 138.95 80.372 139.3C80.802 139.65 80.872 140.28 80.522 140.71C78.002 143.82 75.072 144.66 72.642 144.66V144.65Z" fill="#FF816C"/>
<path d="M41.4917 109.74C44.3802 109.74 46.7217 107.399 46.7217 104.51C46.7217 101.622 44.3802 99.2803 41.4917 99.2803C38.6033 99.2803 36.2617 101.622 36.2617 104.51C36.2617 107.399 38.6033 109.74 41.4917 109.74Z" fill="#2B110C"/>
<path d="M39.8315 103.43C40.2568 103.43 40.6015 103.085 40.6015 102.66C40.6015 102.235 40.2568 101.89 39.8315 101.89C39.4063 101.89 39.0615 102.235 39.0615 102.66C39.0615 103.085 39.4063 103.43 39.8315 103.43Z" fill="white"/>
<path d="M89.5113 109.74C92.3997 109.74 94.7412 107.399 94.7412 104.51C94.7412 101.622 92.3997 99.2803 89.5113 99.2803C86.6228 99.2803 84.2812 101.622 84.2812 104.51C84.2812 107.399 86.6228 109.74 89.5113 109.74Z" fill="#2B110C"/>
<path d="M87.8511 103.43C88.2763 103.43 88.6211 103.085 88.6211 102.66C88.6211 102.235 88.2763 101.89 87.8511 101.89C87.4258 101.89 87.0811 102.235 87.0811 102.66C87.0811 103.085 87.4258 103.43 87.8511 103.43Z" fill="white"/>
<path d="M31.6219 9.85028C31.5619 9.12028 31.4919 8.40028 31.4019 7.68028C31.1319 5.45028 30.5319 -1.44972 34.1019 1.68028C38.3319 5.38028 42.0319 14.9103 52.0219 8.69028C62.0119 2.47028 67.6019 -3.85972 73.4919 2.94028C77.4419 7.50028 83.1719 16.1003 90.0819 16.6703C96.7519 17.2303 100.842 11.2703 102.762 6.85028C102.762 6.85028 105.072 2.74028 105.192 8.73028C105.312 14.7203 103.402 36.4803 99.8119 52.8503C96.2219 69.2203 93.6519 75.2903 93.6519 75.2903C93.6519 75.2903 73.8219 42.2303 35.6219 71.1003C35.6219 71.1003 32.9819 26.0703 31.6119 9.85028H31.6219Z" fill="#FC644F"/>
<path d="M40.9515 74.9904C40.5315 75.0904 39.6315 75.0204 39.2115 74.9304C38.0715 74.7004 37.4215 74.1004 36.6015 73.1204C32.8915 68.6704 29.4915 63.8504 26.4415 58.7104C24.1515 54.8604 22.0115 50.6204 21.6815 45.9004C21.6215 45.0704 21.7615 44.0004 22.4215 43.7804C23.0215 43.5804 23.5615 44.2304 24.0115 44.7504C25.9315 46.9604 28.8615 47.5904 31.4615 46.9104C34.0615 46.2304 36.3615 44.3804 38.3015 42.1904C44.9715 34.6804 47.7215 23.5704 51.6915 13.6704C52.2215 12.3604 52.8415 10.9804 53.9315 10.3504C55.4615 9.4604 57.2815 10.4004 58.6715 11.5704C62.4515 14.7404 65.0215 19.5504 68.1815 23.5804C72.9615 29.6704 79.0715 33.9604 85.1515 38.0304C90.2915 41.4704 95.5415 44.8604 101.252 46.5304C104.002 47.3304 106.962 47.7004 109.622 46.5504C110.112 46.3404 110.682 46.0904 111.122 46.4304C111.672 46.8604 111.552 47.8504 111.372 48.6004C109.212 57.2104 104.822 64.8104 100.122 71.6404C99.1515 73.0504 98.8615 75.4504 95.9815 75.3304C91.3515 75.1404 84.4715 73.9204 80.8515 73.1104C67.4615 70.1104 55.2015 68.3904 42.9815 74.2204C42.3815 74.5104 41.5815 74.8304 40.9515 74.9804V74.9904Z" fill="#FF9578"/>
</g>
<defs>
<clipPath id="clip0_113_24005">
<rect width="153.96" height="178.29" fill="white" transform="translate(0.378906)"/>
</clipPath>
</defs>
</svg>
