<svg width="100%" height="100%" viewBox="0 0 102 80" fill="none" xmlns="http://www.w3.org/2000/svg">
<g clip-path="url(#clip0_195_19860)">
<path d="M16.2559 48.4601C16.2559 48.4601 3.47286 49.3928 2.60883 60.1674C2.60883 60.1674 2.34561 63.8467 4.48566 65.8723C4.48566 65.8723 5.17231 69.1682 2.59738 70.6731L0.0224609 72.178C0.0224609 72.178 1.04671 73.4368 7.74151 73.2709C14.4363 73.105 23.088 69.4257 24.4785 65.8723C24.4785 65.8723 33.2332 52.7344 16.2559 48.4601Z" fill="#FED752"/>
<path d="M84.8861 47.7677C84.8861 47.7677 97.6691 48.7004 98.5332 59.475C98.5332 59.475 98.7964 63.1543 96.6563 65.1799C96.6563 65.1799 95.9697 68.4758 98.5446 69.9807L101.12 71.4856C101.12 71.4856 100.095 72.7445 93.4005 72.5785C86.7057 72.4126 78.0539 68.7333 76.6635 65.1799C76.6635 65.1799 67.9087 52.0421 84.8861 47.7677Z" fill="#FED752"/>
<path d="M91.7526 45.8108C92.1818 45.765 92.611 45.7307 93.0458 45.7078C93.412 45.6849 93.618 45.6391 93.9785 45.5876C94.2303 45.5533 94.8883 45.3873 95.1229 45.2958C96.2731 44.838 97.097 44.1971 97.921 43.2702C97.9782 43.2072 98.0355 43.1386 98.0927 43.0699C98.3788 42.7266 98.642 42.3375 98.7107 41.8912C98.7793 41.4448 98.5791 40.9356 98.1671 40.7639C97.8123 40.6151 97.3946 40.741 97.0856 40.9699C96.7766 41.1988 96.5477 41.5135 96.2902 41.7996C95.8725 42.2688 95.369 42.6694 94.8197 42.9726C94.5221 43.1386 94.1788 43.2759 93.8469 43.2358C93.7325 43.2244 93.6524 43.1214 93.6695 43.007C93.7783 42.3146 93.9671 41.6394 94.0815 40.9527C94.2074 40.2032 94.2417 39.4192 93.9842 38.704C93.6695 37.8285 92.9314 37.1419 92.0845 36.747C91.2434 36.3522 90.2535 36.2206 89.3837 36.5353C88.2393 36.953 87.4668 38.0803 87.1922 39.2647C86.8145 40.8841 87.2723 42.6808 88.3766 43.9225C88.4339 43.9854 88.4052 44.0884 88.3194 44.1056C87.2379 44.3574 86.1107 44.3917 85.0178 44.2086C84.8976 44.4947 84.726 45.6277 84.9548 46.3601C84.9777 46.4402 85.0121 46.526 85.0807 46.5775C85.1379 46.6176 85.9562 46.6634 86.0249 46.6634C87.1693 46.7263 88.3022 46.5947 89.4009 46.2685C90.1734 46.0396 90.963 45.9023 91.7584 45.8165L91.7526 45.8108ZM89.3208 40.1688C89.3208 40.1688 89.3208 40.1345 89.3208 40.1173C89.3322 39.7511 89.418 39.3792 89.6183 39.0702C89.8186 38.7612 90.1447 38.5266 90.511 38.4865C90.7856 38.4579 91.0717 38.5438 91.2949 38.7097C91.518 38.8756 91.6897 39.1102 91.787 39.3677C91.9415 39.7683 91.9357 40.2203 91.8785 40.6437C91.7927 41.2503 91.6039 41.8339 91.3235 42.3775C91.2663 42.4862 91.1862 42.635 91.066 42.6865C90.9458 42.738 90.7627 42.6407 90.654 42.5835C90.2191 42.3489 89.8701 41.9827 89.6355 41.5478C89.4009 41.113 89.3093 40.6552 89.3151 40.1803L89.3208 40.1688Z" fill="#FFAF22"/>
<path d="M31.5567 60.3619C30.4294 61.4091 30.6011 63.3374 30.5267 64.6306C30.3836 67.1025 30.5438 69.5859 31.0073 72.0349C31.0817 72.4183 31.1676 72.8188 31.4765 73.1107C31.7684 73.3853 32.2032 73.5227 32.6267 73.6314C36.1343 74.5583 39.9795 74.6156 43.5272 73.7916C44.1452 73.6486 44.8089 73.4426 45.1351 72.9848C45.3754 72.6472 45.3754 72.2352 45.3697 71.8404L45.2438 61.2145C45.2438 60.8369 45.2209 60.4249 44.9348 60.1273C44.5457 59.7211 43.8247 59.681 43.1953 59.6753L34.9327 59.5837C34.1659 59.578 33.3877 59.5666 32.661 59.7668C32.1918 59.8985 31.8313 60.1045 31.5509 60.3677L31.5567 60.3619Z" fill="#FFAF22"/>
<path d="M77.1841 59.6696C78.3113 60.7167 78.1397 62.645 78.2141 63.9382C78.3571 66.4102 78.1969 68.8935 77.7334 71.3426C77.659 71.7259 77.5732 72.1265 77.2642 72.4183C76.9724 72.693 76.5375 72.8303 76.1141 72.939C72.6064 73.866 68.7612 73.9232 65.2136 73.0992C64.5956 72.9562 63.9318 72.7502 63.6057 72.2924C63.3653 71.9548 63.3653 71.5428 63.3711 71.148L63.4969 60.5222C63.4969 60.1445 63.5198 59.7325 63.8059 59.435C64.195 59.0287 64.916 58.9887 65.5454 58.9829L73.8081 58.8914C74.5748 58.8857 75.353 58.8742 76.0797 59.0745C76.5489 59.2061 76.9094 59.4121 77.1898 59.6753L77.1841 59.6696Z" fill="#FFAF22"/>
<path d="M26.9504 65.2028C25.7145 66.3129 25.909 68.3442 25.8289 69.7118C25.6744 72.321 25.8518 74.9475 26.3553 77.5281C26.4355 77.9286 26.5327 78.3578 26.8703 78.6668C27.185 78.9586 27.6657 79.1017 28.1292 79.2161C31.963 80.1946 36.1687 80.2575 40.0482 79.382C40.7234 79.2275 41.4501 79.0158 41.8049 78.5295C42.0681 78.169 42.0681 77.7341 42.0624 77.3221L41.925 66.0954C41.925 65.6949 41.9022 65.26 41.5874 64.9453C41.164 64.5162 40.3744 64.4761 39.6877 64.4647L30.6526 64.3674C29.8172 64.3559 28.9646 64.3502 28.1692 64.5619C27.66 64.6993 27.2594 64.9167 26.9562 65.1971L26.9504 65.2028Z" fill="#FFC931"/>
<path d="M74.5865 65.2028C75.8224 66.3129 75.6279 68.3442 75.708 69.7118C75.8625 72.321 75.6851 74.9475 75.1815 77.5281C75.1014 77.9286 75.0042 78.3578 74.6666 78.6668C74.3518 78.9586 73.8712 79.1017 73.4077 79.2161C69.5739 80.1946 65.3682 80.2575 61.4887 79.382C60.8135 79.2275 60.0868 79.0158 59.732 78.5295C59.4688 78.169 59.4688 77.7341 59.4745 77.3221L59.6118 66.0954C59.6118 65.6949 59.6347 65.26 59.9495 64.9453C60.3729 64.5162 61.1625 64.4761 61.8492 64.4647L70.8843 64.3674C71.7197 64.3559 72.5723 64.3502 73.3677 64.5619C73.8769 64.6993 74.2775 64.9167 74.5807 65.1971L74.5865 65.2028Z" fill="#FFC931"/>
<path d="M39.3957 3.8624C42.2624 3.11854 45.215 2.70655 48.1962 2.67222C63.5256 2.48911 78.5002 12.331 84.0048 26.3043C88.3478 37.325 86.5511 50.3197 79.8792 60.093C72.5607 70.8104 59.44 71.6516 47.1949 71.7889C38.4172 71.8862 29.3592 69.8319 22.4527 64.539C11.3462 56.0303 7.87292 39.9514 12.8168 27.031C17.1369 15.7299 27.511 6.94659 39.3957 3.8624Z" fill="#FFF0B0"/>
<path d="M43.4015 41.7653C43.4759 42.0113 42.4402 43.9168 42.8865 44.1342C45.2211 45.2729 47.4813 46.1484 52.2649 44.9238C55.1889 44.1743 56.8197 41.8625 57.4205 39.9285C58.193 37.4508 57.3919 33.5198 53.3807 30.8304C50.0848 33.9261 48.7058 39.0416 45.4099 42.1372C44.7633 42.7437 43.1955 41.0729 43.3958 41.7595L43.4015 41.7653Z" fill="#FFAF22"/>
<path d="M43.7161 30.1667C43.4242 30.2697 43.1439 30.3898 42.8635 30.5272C38.4117 32.7015 37.2959 39.0988 40.7978 42.6293C42.812 44.6549 45.8847 45.4503 48.7057 45.004C51.8757 44.5004 54.8455 42.3775 55.9727 39.3677C57.0999 36.3579 56.0871 32.5757 53.3863 30.8362C51.9272 29.8977 50.1419 29.5887 48.4081 29.5315C46.8231 29.48 45.1981 29.6288 43.7161 30.1667Z" fill="#FFC931"/>
<path d="M46.663 35.4653C46.6 35.1735 46.5142 34.8874 46.3883 34.607C46.2281 34.2408 45.9992 33.8917 45.6616 33.6857C45.324 33.4797 44.8548 33.4397 44.5401 33.68C44.2426 33.9032 44.1396 34.3037 44.0709 34.6757C43.8821 35.7686 43.9221 36.8214 43.9965 37.9201C44.0537 38.8241 44.0194 39.7339 44.4829 40.5522C44.5916 40.7468 44.7404 40.9413 44.9464 41.0271C45.1924 41.1301 45.4842 41.0672 45.7074 40.9184C45.9306 40.7696 46.0851 40.5408 46.2052 40.3004C46.56 39.6138 46.663 38.8299 46.7316 38.0631C46.8118 37.1991 46.8461 36.3064 46.6687 35.4653H46.663Z" fill="#FFF0B0"/>
<path d="M51.452 35.4653C51.3891 35.1735 51.3033 34.8874 51.1774 34.607C51.0172 34.2408 50.7883 33.8917 50.4507 33.6857C50.1131 33.4797 49.6439 33.4397 49.3292 33.68C49.0316 33.9032 48.9286 34.3037 48.86 34.6757C48.6711 35.7686 48.7112 36.8214 48.7856 37.9201C48.8428 38.8241 48.8085 39.7339 49.2719 40.5522C49.3807 40.7468 49.5294 40.9413 49.7354 41.0271C49.9815 41.1301 50.2733 41.0672 50.4965 40.9184C50.7196 40.7696 50.8741 40.5408 50.9943 40.3004C51.3491 39.6138 51.452 38.8299 51.5207 38.0631C51.6008 37.1991 51.6352 36.3064 51.4578 35.4653H51.452Z" fill="#FFF0B0"/>
<path d="M20.3416 17.0918C20.3416 17.0918 16.6452 4.8466 20.3416 0.938435C24.038 -2.97545 35.1217 6.62615 35.1217 6.62615C35.1217 6.62615 25.5601 11.0092 20.3416 17.0975V17.0918Z" fill="#FFF0B0"/>
<path d="M63.0853 6.84359C63.0853 6.84359 68.8875 1.15015 73.0589 0.64661C73.9629 0.537891 74.8842 0.835437 75.5251 1.48775C76.9212 2.90682 78.9182 6.69482 77.4248 16.4051C77.4248 16.4051 72.4237 10.1052 63.0796 6.84359H63.0853Z" fill="#FFF0B0"/>
<path d="M73.2706 3.03271C72.7957 3.01554 72.2922 3.19864 71.8516 3.40464C70.6671 3.9654 69.5971 4.71499 68.5385 5.46458C67.5658 6.15122 66.5873 6.83787 65.7576 7.66757C65.1739 8.25122 64.6361 9.04658 64.8878 9.80761C65.1053 10.4542 65.8091 10.8319 66.4557 11.1466L73.0818 14.3681C73.9001 14.7629 74.9472 15.2836 75.2333 14.1278C75.7826 11.879 75.8513 9.53868 75.548 7.24986C75.4107 6.20272 75.1933 5.14986 74.7298 4.18284C74.5352 3.77657 74.272 3.36458 73.8486 3.16431C73.6655 3.07848 73.4709 3.03843 73.2706 3.03271Z" fill="#FFC931"/>
<path d="M22.9391 2.86104C23.2481 2.7466 23.6028 2.67794 24.0148 2.66649C24.8331 2.64361 25.6513 2.80382 26.3895 3.12998C27.2707 3.51908 28.0145 4.12562 28.7527 4.72643L31.8941 7.30136C32.2202 7.57029 32.575 7.89073 32.5807 8.30844C32.5807 8.7662 32.1745 9.12097 31.7968 9.41279L24.793 14.7915C24.4382 15.0662 23.9862 15.358 23.5628 15.2092C23.2252 15.0948 23.0592 14.7457 22.9333 14.4253C22.0235 12.1308 19.3571 4.21145 22.9448 2.86677L22.9391 2.86104Z" fill="#FFC931"/>
<path d="M52.1845 52.5456C50.5595 52.5456 49.3178 51.8933 49.2949 51.8819C49.0145 51.7331 48.9115 51.384 49.066 51.1037C49.2148 50.829 49.5638 50.7203 49.8385 50.8748C49.9872 50.9549 53.2946 52.6658 55.8008 49.5702C56.0011 49.3241 56.3616 49.2841 56.6077 49.4843C56.8537 49.6846 56.8938 50.0451 56.6935 50.2911C55.2573 52.0707 53.575 52.5513 52.1845 52.5513V52.5456Z" fill="#FFAF22"/>
<path d="M34.3603 32.5642C36.0131 32.5642 37.3529 31.2244 37.3529 29.5716C37.3529 27.9188 36.0131 26.5789 34.3603 26.5789C32.7075 26.5789 31.3677 27.9188 31.3677 29.5716C31.3677 31.2244 32.7075 32.5642 34.3603 32.5642Z" fill="#2B110C"/>
<path d="M33.4108 28.9593C33.6541 28.9593 33.8514 28.7621 33.8514 28.5187C33.8514 28.2754 33.6541 28.0781 33.4108 28.0781C33.1675 28.0781 32.9702 28.2754 32.9702 28.5187C32.9702 28.7621 33.1675 28.9593 33.4108 28.9593Z" fill="white"/>
<path d="M61.8378 32.5642C63.4906 32.5642 64.8305 31.2244 64.8305 29.5716C64.8305 27.9188 63.4906 26.5789 61.8378 26.5789C60.1851 26.5789 58.8452 27.9188 58.8452 29.5716C58.8452 31.2244 60.1851 32.5642 61.8378 32.5642Z" fill="#2B110C"/>
<path d="M60.8879 28.9593C61.1312 28.9593 61.3285 28.7621 61.3285 28.5187C61.3285 28.2754 61.1312 28.0781 60.8879 28.0781C60.6445 28.0781 60.4473 28.2754 60.4473 28.5187C60.4473 28.7621 60.6445 28.9593 60.8879 28.9593Z" fill="white"/>
<path d="M14.5965 22.4419C14.5965 22.4419 25.7717 24.9024 31.6883 15.3694C31.6883 15.3694 35.0929 23.8152 50.5139 23.9525C50.5139 23.9525 78.1399 24.1414 81.5789 21.7324C81.5789 21.7324 78.632 16.5825 77.2187 15.6899C77.2187 15.6899 75.6108 16.7942 72.3835 14.8144C69.1563 12.8346 67.331 12.0507 67.331 12.0507C67.331 12.0507 62.7533 9.79617 63.0738 8.34849C63.3942 6.90654 63.6917 5.84796 63.6917 5.84796C63.6917 5.84796 48.3967 -1.84248 34.063 5.83651C34.063 5.83651 35.3619 7.77629 32.1919 10.2482L25.0221 15.4496C25.0221 15.4496 21.4916 17.4866 19.7349 15.8043C19.7349 15.8043 15.5178 19.0258 14.5908 22.4419H14.5965Z" fill="#FED752"/>
</g>
<defs>
<clipPath id="clip0_195_19860">
<rect width="101.097" height="80" fill="white"/>
</clipPath>
</defs>
</svg>
