<svg width="326" height="247" viewBox="0 0 326 247" fill="none" xmlns="http://www.w3.org/2000/svg">
<g clip-path="url(#clip0_152_44558)">
<path d="M288.051 183.496C288.801 183.417 289.551 183.357 290.311 183.317C290.951 183.277 291.311 183.198 291.941 183.108C292.381 183.048 293.531 182.759 293.941 182.6C295.951 181.803 297.391 180.688 298.831 179.075C298.931 178.965 299.031 178.846 299.131 178.726C299.631 178.129 300.091 177.451 300.211 176.675C300.331 175.898 299.981 175.012 299.261 174.713C298.641 174.454 297.911 174.673 297.371 175.071C296.831 175.47 296.431 176.017 295.981 176.515C295.251 177.332 294.371 178.029 293.411 178.557C292.891 178.846 292.291 179.085 291.711 179.015C291.511 178.995 291.371 178.816 291.401 178.617C291.591 177.412 291.921 176.236 292.121 175.041C292.341 173.737 292.401 172.372 291.951 171.128C291.401 169.604 290.111 168.409 288.631 167.722C287.161 167.035 285.431 166.806 283.911 167.353C281.911 168.08 280.561 170.042 280.081 172.104C279.421 174.922 280.221 178.049 282.151 180.21C282.251 180.32 282.201 180.499 282.051 180.529C280.161 180.967 278.191 181.027 276.281 180.708C276.071 181.206 275.771 183.178 276.171 184.452C276.211 184.592 276.271 184.741 276.391 184.831C276.491 184.901 277.921 184.98 278.041 184.98C280.041 185.09 282.021 184.861 283.941 184.293C285.291 183.895 286.671 183.656 288.061 183.506L288.051 183.496ZM283.801 173.677C283.801 173.677 283.801 173.617 283.801 173.587C283.821 172.95 283.971 172.303 284.321 171.765C284.671 171.227 285.241 170.819 285.881 170.749C286.361 170.699 286.861 170.849 287.251 171.138C287.641 171.426 287.941 171.835 288.111 172.283C288.381 172.98 288.371 173.767 288.271 174.504C288.121 175.559 287.791 176.575 287.301 177.521C287.201 177.71 287.061 177.969 286.851 178.059C286.641 178.149 286.321 177.979 286.131 177.88C285.371 177.471 284.761 176.834 284.351 176.077C283.941 175.32 283.781 174.524 283.791 173.697L283.801 173.677Z" fill="#FFAF22"/>
<path d="M182.851 208.821C180.881 210.644 181.181 214 181.051 216.251C180.801 220.553 181.081 224.875 181.891 229.137C182.021 229.804 182.171 230.502 182.711 231.01C183.221 231.488 183.981 231.727 184.721 231.916C190.851 233.529 197.571 233.629 203.771 232.195C204.851 231.946 206.011 231.587 206.581 230.79C207.001 230.203 207.001 229.486 206.991 228.799L206.771 210.305C206.771 209.648 206.731 208.931 206.231 208.413C205.551 207.706 204.291 207.636 203.191 207.626L188.751 207.467C187.411 207.457 186.051 207.437 184.781 207.786C183.961 208.015 183.331 208.373 182.841 208.831L182.851 208.821Z" fill="#FFAF22"/>
<path d="M262.59 207.616C264.56 209.439 264.26 212.795 264.39 215.046C264.64 219.348 264.36 223.67 263.55 227.932C263.42 228.599 263.27 229.297 262.73 229.804C262.22 230.282 261.46 230.521 260.72 230.711C254.59 232.324 247.87 232.424 241.67 230.99C240.59 230.741 239.43 230.382 238.86 229.585C238.44 228.998 238.44 228.281 238.45 227.594L238.67 209.1C238.67 208.443 238.71 207.726 239.21 207.208C239.89 206.501 241.15 206.431 242.25 206.421L256.69 206.262C258.03 206.252 259.39 206.232 260.66 206.581C261.48 206.81 262.11 207.168 262.6 207.626L262.59 207.616Z" fill="#FFAF22"/>
<path d="M174.8 217.246C172.64 219.178 172.98 222.713 172.84 225.093C172.57 229.635 172.88 234.206 173.76 238.697C173.9 239.394 174.07 240.141 174.66 240.679C175.21 241.187 176.05 241.436 176.86 241.635C183.56 243.338 190.91 243.447 197.69 241.924C198.87 241.655 200.14 241.286 200.76 240.44C201.22 239.812 201.22 239.056 201.21 238.339L200.97 218.8C200.97 218.102 200.93 217.346 200.38 216.798C199.64 216.051 198.26 215.981 197.06 215.961L181.27 215.792C179.81 215.772 178.32 215.762 176.93 216.131C176.04 216.37 175.34 216.748 174.81 217.236L174.8 217.246Z" fill="#FFC931"/>
<path d="M258.061 217.246C260.221 219.178 259.881 222.713 260.021 225.093C260.291 229.635 259.981 234.206 259.101 238.697C258.961 239.394 258.791 240.141 258.201 240.679C257.651 241.187 256.811 241.436 256.001 241.635C249.301 243.338 241.951 243.447 235.171 241.924C233.991 241.655 232.721 241.286 232.101 240.44C231.641 239.812 231.641 239.056 231.651 238.339L231.891 218.8C231.891 218.102 231.931 217.346 232.481 216.798C233.221 216.051 234.601 215.981 235.801 215.961L251.591 215.792C253.051 215.772 254.541 215.762 255.931 216.131C256.821 216.37 257.521 216.748 258.051 217.236L258.061 217.246Z" fill="#FFC931"/>
<path d="M196.551 110.489C201.561 109.194 206.721 108.477 211.931 108.417C238.721 108.099 264.891 125.228 274.511 149.547C282.101 168.728 278.961 191.344 267.301 208.353C254.511 227.006 231.581 228.47 210.181 228.709C194.841 228.878 179.011 225.303 166.941 216.091C147.531 201.283 141.461 173.299 150.101 150.812C157.661 131.143 175.781 115.857 196.551 110.489Z" fill="#FFF0B0"/>
<path d="M203.561 176.455C203.691 176.883 201.881 180.199 202.661 180.578C206.741 182.56 210.691 184.083 219.051 181.952C224.161 180.648 227.011 176.624 228.061 173.258C229.411 168.946 228.011 162.104 221.001 157.424C215.241 162.812 212.831 171.715 207.071 177.102C205.941 178.158 203.201 175.25 203.551 176.445L203.561 176.455Z" fill="#FFAF22"/>
<path d="M204.101 156.27C203.591 156.449 203.101 156.658 202.611 156.897C194.831 160.681 192.881 171.815 199.001 177.96C202.521 181.485 207.891 182.869 212.821 182.093C218.361 181.216 223.551 177.521 225.521 172.283C227.491 167.045 225.721 160.462 221.001 157.435C218.451 155.801 215.331 155.264 212.301 155.164C209.531 155.074 206.691 155.333 204.101 156.27Z" fill="#FFC931"/>
<path d="M209.251 165.491C209.141 164.983 208.991 164.485 208.771 163.997C208.491 163.36 208.091 162.752 207.501 162.394C206.911 162.035 206.091 161.965 205.541 162.384C205.021 162.772 204.841 163.469 204.721 164.117C204.391 166.019 204.461 167.851 204.591 169.763C204.691 171.337 204.631 172.92 205.441 174.344C205.631 174.683 205.891 175.021 206.251 175.171C206.681 175.35 207.191 175.24 207.581 174.982C207.971 174.723 208.241 174.324 208.451 173.906C209.071 172.711 209.251 171.347 209.371 170.012C209.511 168.508 209.571 166.955 209.261 165.491H209.251Z" fill="#FFF0B0"/>
<path d="M217.621 165.491C217.511 164.983 217.361 164.485 217.141 163.997C216.861 163.36 216.461 162.752 215.871 162.394C215.281 162.035 214.461 161.965 213.911 162.384C213.391 162.772 213.211 163.469 213.091 164.117C212.761 166.019 212.831 167.851 212.961 169.763C213.061 171.337 213.001 172.92 213.811 174.344C214.001 174.683 214.261 175.021 214.621 175.171C215.051 175.35 215.561 175.24 215.951 174.982C216.341 174.723 216.611 174.324 216.821 173.906C217.441 172.711 217.621 171.347 217.741 170.012C217.881 168.508 217.941 166.955 217.631 165.491H217.621Z" fill="#FFF0B0"/>
<path d="M218.901 195.217C216.061 195.217 213.891 194.082 213.851 194.062C213.361 193.803 213.181 193.196 213.451 192.708C213.711 192.23 214.321 192.04 214.801 192.309C215.061 192.449 220.841 195.426 225.221 190.039C225.571 189.611 226.201 189.541 226.631 189.889C227.061 190.238 227.131 190.865 226.781 191.294C224.261 194.391 221.331 195.227 218.901 195.227V195.217Z" fill="#FFAF22"/>
<path d="M187.751 160.452C190.639 160.452 192.981 158.12 192.981 155.244C192.981 152.367 190.639 150.035 187.751 150.035C184.862 150.035 182.521 152.367 182.521 155.244C182.521 158.12 184.862 160.452 187.751 160.452Z" fill="#2B110C"/>
<path d="M186.091 154.167C186.516 154.167 186.861 153.824 186.861 153.401C186.861 152.977 186.516 152.634 186.091 152.634C185.665 152.634 185.321 152.977 185.321 153.401C185.321 153.824 185.665 154.167 186.091 154.167Z" fill="white"/>
<path d="M235.771 160.452C238.659 160.452 241.001 158.12 241.001 155.244C241.001 152.367 238.659 150.035 235.771 150.035C232.882 150.035 230.541 152.367 230.541 155.244C230.541 158.12 232.882 160.452 235.771 160.452Z" fill="#2B110C"/>
<path d="M234.111 154.167C234.536 154.167 234.881 153.824 234.881 153.401C234.881 152.977 234.536 152.634 234.111 152.634C233.685 152.634 233.341 152.977 233.341 153.401C233.341 153.824 233.685 154.167 234.111 154.167Z" fill="white"/>
<path d="M209.841 119.591C209.841 119.591 190.021 118.426 174.131 133.015C174.131 133.015 156.931 145.205 151.571 157.155C150.741 158.998 148.421 159.436 147.131 157.912C147.091 157.862 147.051 157.813 147.011 157.773C142.211 152.007 143.711 142.875 150.151 139.309C150.191 139.289 150.241 139.26 150.281 139.24C150.281 139.24 143.911 129.51 153.931 124.65C153.931 124.65 146.171 108.437 160.691 102.522C160.691 102.522 161.571 84.8848 180.081 88.3106C180.081 88.3106 177.931 81.3694 184.901 80.1046C184.901 80.1046 184.451 68.8811 193.981 64.5989C203.531 60.3166 227.921 60.1772 237.711 73.1036C237.711 73.1036 241.511 78.8897 242.411 81.8474C242.411 81.8474 248.111 77.8639 253.231 81.2997C259.341 85.4027 255.711 92.7224 255.711 92.7224C255.711 92.7224 272.431 95.451 272.801 117.032C272.801 117.032 289.201 122.648 281.951 142.586C281.951 142.586 286.961 153.839 277.541 159.725C276.261 160.521 274.591 159.934 273.971 158.51C270.711 151.081 258.881 129.321 229.671 121.005C229.671 121.005 217.181 119.173 209.841 119.601V119.591Z" fill="#5B4428"/>
<path d="M209.841 119.591L211.081 105.519C211.101 105.28 211.291 105.091 211.521 105.091H213.011C213.241 105.091 213.431 105.29 213.431 105.539V119.541L209.831 119.591H209.841Z" fill="#725836"/>
<path d="M186.991 112.51C184.511 110.528 181.911 108.696 179.221 107.003C176.461 105.27 173.561 103.667 170.401 102.85C168.951 102.472 167.391 102.283 165.991 102.8C163.371 103.776 162.271 106.854 161.911 109.622C161.151 115.538 162.371 121.513 163.801 127.309C164.811 131.392 167.581 130.914 170.551 128.813L187.331 116.922C188.201 116.304 189.191 115.368 188.841 114.363C188.691 113.934 188.331 113.616 187.981 113.327C187.651 113.058 187.321 112.789 186.981 112.52L186.991 112.51Z" fill="#FFF0B0"/>
<path d="M168.171 106.854C168.651 106.675 169.201 106.575 169.821 106.555C171.081 106.525 172.341 106.764 173.481 107.262C174.841 107.86 176.771 108.806 177.901 109.732L182.731 113.676C183.241 114.084 183.781 114.582 183.791 115.219C183.791 115.916 183.161 116.464 182.581 116.912C178.991 119.661 174.601 122.39 171.011 125.138C170.461 125.556 169.771 126.005 169.121 125.776C168.601 125.596 168.351 125.069 168.151 124.581C166.751 121.065 162.641 108.925 168.161 106.854H168.171Z" fill="#FFC931"/>
<path d="M261.211 102.91C260.131 101.814 258.581 101.316 257.051 101.496C250.011 102.342 240.211 111.913 240.211 111.913C240.211 111.913 235.131 116.782 241.991 121.264L255.221 128.952C255.221 128.952 263.051 135.087 264.411 127.976C266.931 111.654 263.561 105.29 261.211 102.91Z" fill="#FFF0B0"/>
<path d="M256.891 106.227C256.091 106.207 255.241 106.505 254.501 106.854C252.501 107.8 250.7 109.055 248.91 110.32C247.27 111.475 245.62 112.63 244.22 114.024C243.23 115.01 242.321 116.335 242.751 117.619C243.121 118.705 244.31 119.342 245.4 119.87C249.13 121.673 252.911 124.073 256.63 125.875C258.01 126.542 259.78 127.409 260.26 125.477C261.19 121.702 261.25 117.171 260.74 113.327C260.51 111.564 260.14 109.792 259.351 108.178C259.021 107.491 258.581 106.804 257.861 106.466C257.551 106.316 257.22 106.246 256.88 106.236L256.891 106.227Z" fill="#FFC931"/>
</g>
<defs>
<clipPath id="clip0_152_44558">
<rect width="156.02" height="181" fill="white" transform="translate(144 62)"/>
</clipPath>
</defs>
</svg>
