<svg width="326" height="247" viewBox="0 0 326 247" fill="none" xmlns="http://www.w3.org/2000/svg">
<g clip-path="url(#clip0_152_44550)">
<path d="M270.743 145.116C270.743 145.116 275.473 152.532 276.193 157.615C276.193 157.615 281.173 161.745 283.763 164.822L280.643 154.517C280.643 154.517 274.773 147.449 270.753 145.116H270.743Z" fill="#4BABF9"/>
<path d="M263.213 121.797C269.223 124.209 275.413 126.731 280.003 131.288C281.193 132.469 282.303 133.869 282.553 135.517C282.783 137.075 282.223 138.654 281.373 139.994C280.083 142.039 278.163 143.598 276.043 144.759C274.743 145.474 270.813 147.797 269.643 146.437L259.223 134.286C259.083 134.127 258.943 133.958 258.903 133.75C258.863 133.541 258.943 133.323 259.013 133.114L263.203 121.787L263.213 121.797Z" fill="#1699F2"/>
<path d="M288.913 183.684C289.663 183.604 290.413 183.545 291.173 183.505C291.813 183.465 292.173 183.386 292.803 183.297C293.243 183.237 294.393 182.949 294.803 182.79C296.813 181.996 298.253 180.884 299.693 179.276C299.793 179.167 299.893 179.048 299.993 178.929C300.493 178.333 300.953 177.658 301.073 176.884C301.193 176.109 300.843 175.226 300.123 174.928C299.503 174.67 298.773 174.888 298.233 175.285C297.693 175.682 297.293 176.228 296.843 176.725C296.113 177.539 295.233 178.234 294.273 178.76C293.753 179.048 293.153 179.286 292.573 179.217C292.373 179.197 292.233 179.018 292.263 178.819C292.453 177.618 292.783 176.447 292.983 175.256C293.203 173.955 293.263 172.595 292.813 171.354C292.263 169.835 290.973 168.644 289.493 167.959C288.023 167.274 286.293 167.046 284.773 167.592C282.773 168.316 281.423 170.272 280.943 172.327C280.283 175.136 281.083 178.254 283.013 180.408C283.113 180.517 283.063 180.696 282.913 180.726C281.023 181.162 279.053 181.222 277.143 180.904C276.933 181.401 276.633 183.366 277.033 184.637C277.073 184.776 277.133 184.925 277.253 185.014C277.353 185.084 278.783 185.163 278.903 185.163C280.903 185.272 282.883 185.044 284.803 184.478C286.153 184.081 287.533 183.843 288.923 183.694L288.913 183.684ZM284.663 173.895C284.663 173.895 284.663 173.836 284.663 173.806C284.683 173.171 284.833 172.525 285.183 171.989C285.533 171.453 286.103 171.046 286.743 170.977C287.223 170.927 287.723 171.076 288.113 171.364C288.503 171.652 288.803 172.059 288.973 172.506C289.243 173.201 289.233 173.985 289.133 174.719C288.983 175.772 288.653 176.784 288.163 177.727C288.063 177.916 287.923 178.174 287.713 178.264C287.503 178.353 287.183 178.184 286.993 178.085C286.233 177.678 285.623 177.042 285.213 176.288C284.803 175.533 284.643 174.739 284.653 173.915L284.663 173.895Z" fill="#4BABF9"/>
<path d="M183.713 208.929C181.743 210.746 182.043 214.092 181.913 216.335C181.663 220.624 181.943 224.932 182.753 229.181C182.883 229.847 183.033 230.541 183.573 231.048C184.083 231.524 184.843 231.763 185.583 231.951C191.713 233.559 198.433 233.659 204.633 232.229C205.713 231.981 206.873 231.624 207.443 230.829C207.863 230.244 207.863 229.529 207.853 228.844L207.633 210.409C207.633 209.753 207.593 209.039 207.093 208.522C206.413 207.818 205.153 207.748 204.053 207.738L189.613 207.579C188.273 207.569 186.913 207.55 185.643 207.897C184.823 208.125 184.193 208.483 183.703 208.939L183.713 208.929Z" fill="#4BABF9"/>
<path d="M263.453 207.728C265.423 209.545 265.123 212.891 265.253 215.134C265.503 219.423 265.223 223.731 264.413 227.98C264.283 228.645 264.133 229.34 263.593 229.847C263.083 230.323 262.323 230.561 261.583 230.75C255.453 232.358 248.733 232.457 242.533 231.028C241.453 230.78 240.293 230.422 239.723 229.628C239.303 229.042 239.303 228.328 239.313 227.643L239.533 209.207C239.533 208.552 239.573 207.837 240.073 207.321C240.753 206.616 242.013 206.547 243.113 206.537L257.553 206.378C258.893 206.368 260.253 206.348 261.523 206.696C262.343 206.924 262.973 207.282 263.463 207.738L263.453 207.728Z" fill="#4BABF9"/>
<path d="M175.663 217.328C173.503 219.254 173.843 222.778 173.703 225.151C173.433 229.678 173.743 234.235 174.623 238.712C174.763 239.407 174.933 240.151 175.523 240.687C176.073 241.194 176.913 241.442 177.723 241.641C184.423 243.338 191.773 243.447 198.553 241.928C199.733 241.66 201.003 241.293 201.623 240.449C202.083 239.824 202.083 239.069 202.073 238.355L201.833 218.877C201.833 218.182 201.793 217.428 201.243 216.882C200.503 216.137 199.123 216.068 197.923 216.048L182.133 215.879C180.673 215.859 179.183 215.849 177.793 216.216C176.903 216.455 176.203 216.832 175.673 217.318L175.663 217.328Z" fill="#86BCFC"/>
<path d="M258.923 217.328C261.083 219.254 260.743 222.778 260.883 225.151C261.153 229.678 260.843 234.235 259.963 238.712C259.823 239.407 259.653 240.151 259.063 240.687C258.513 241.194 257.673 241.442 256.863 241.641C250.163 243.338 242.813 243.447 236.033 241.928C234.853 241.66 233.583 241.293 232.963 240.449C232.503 239.824 232.503 239.069 232.513 238.355L232.753 218.877C232.753 218.182 232.793 217.428 233.343 216.882C234.083 216.137 235.463 216.068 236.663 216.048L252.453 215.879C253.913 215.859 255.403 215.849 256.793 216.216C257.683 216.455 258.383 216.832 258.913 217.318L258.923 217.328Z" fill="#86BCFC"/>
<path d="M197.413 110.906C202.423 109.616 207.583 108.901 212.793 108.841C239.583 108.524 265.753 125.599 275.373 149.841C282.963 168.962 279.823 191.507 268.163 208.463C255.373 227.057 232.443 228.516 211.043 228.754C195.703 228.923 179.873 225.359 167.803 216.176C148.393 201.414 142.323 173.518 150.963 151.102C158.523 131.496 176.643 116.257 197.413 110.906Z" fill="#CDE7FC"/>
<path d="M204.423 176.666C204.553 177.092 202.743 180.398 203.523 180.776C207.603 182.751 211.553 184.27 219.913 182.146C225.023 180.845 227.873 176.834 228.923 173.479C230.273 169.18 228.873 162.36 221.863 157.694C216.103 163.065 213.693 171.94 207.933 177.311C206.803 178.363 204.063 175.464 204.413 176.656L204.423 176.666Z" fill="#4BABF9"/>
<path d="M204.962 156.542C204.452 156.721 203.962 156.93 203.472 157.168C195.692 160.94 193.742 172.039 199.862 178.164C203.382 181.679 208.752 183.058 213.682 182.284C219.222 181.411 224.412 177.727 226.382 172.506C228.352 167.284 226.582 160.722 221.862 157.704C219.312 156.076 216.192 155.54 213.162 155.44C210.392 155.351 207.552 155.609 204.962 156.542Z" fill="#86BCFC"/>
<path d="M210.123 165.735C210.013 165.229 209.863 164.732 209.643 164.246C209.363 163.611 208.963 163.005 208.373 162.648C207.783 162.29 206.963 162.221 206.413 162.638C205.893 163.025 205.713 163.72 205.593 164.365C205.263 166.261 205.333 168.088 205.463 169.994C205.563 171.562 205.503 173.141 206.313 174.561C206.503 174.898 206.763 175.236 207.123 175.385C207.553 175.563 208.063 175.454 208.453 175.196C208.843 174.938 209.113 174.541 209.323 174.124C209.943 172.932 210.123 171.572 210.243 170.242C210.383 168.743 210.443 167.194 210.133 165.735H210.123Z" fill="#CDE7FC"/>
<path d="M218.483 165.735C218.373 165.229 218.223 164.732 218.003 164.246C217.723 163.611 217.323 163.005 216.733 162.648C216.143 162.29 215.323 162.221 214.773 162.638C214.253 163.025 214.073 163.72 213.953 164.365C213.623 166.261 213.693 168.088 213.823 169.994C213.923 171.562 213.863 173.141 214.673 174.561C214.863 174.898 215.123 175.236 215.483 175.385C215.913 175.563 216.423 175.454 216.813 175.196C217.203 174.938 217.473 174.541 217.683 174.124C218.303 172.932 218.483 171.572 218.603 170.242C218.743 168.743 218.803 167.194 218.493 165.735H218.483Z" fill="#CDE7FC"/>
<path d="M164.113 133.859C164.113 133.859 157.653 112.614 164.113 105.834C170.573 99.0532 189.943 115.701 189.943 115.701C189.943 115.701 173.233 123.306 164.113 133.869V133.859Z" fill="#CDE7FC"/>
<path d="M238.812 116.079C238.812 116.079 248.962 106.201 256.252 105.327C257.832 105.139 259.442 105.655 260.562 106.786C263.003 109.248 266.493 115.82 263.882 132.667C263.882 132.667 255.142 121.737 238.812 116.079Z" fill="#CDE7FC"/>
<path d="M256.623 109.467C255.793 109.437 254.913 109.755 254.143 110.112C252.073 111.085 250.203 112.385 248.353 113.686C246.653 114.877 244.943 116.069 243.493 117.508C242.473 118.521 241.533 119.9 241.973 121.221C242.353 122.343 243.583 122.998 244.713 123.544L256.293 129.133C257.723 129.818 259.553 130.721 260.053 128.716C261.013 124.815 261.133 120.754 260.603 116.783C260.363 114.967 259.983 113.14 259.173 111.462C258.833 110.757 258.373 110.043 257.633 109.695C257.313 109.546 256.973 109.477 256.623 109.467Z" fill="#4BABF9"/>
<path d="M168.653 109.169C169.193 108.971 169.813 108.852 170.533 108.832C171.963 108.792 173.393 109.07 174.683 109.636C176.223 110.311 177.523 111.363 178.813 112.406L184.303 116.873C184.873 117.34 185.493 117.896 185.503 118.62C185.503 119.414 184.793 120.03 184.133 120.536L171.893 129.868C171.273 130.345 170.483 130.851 169.743 130.593C169.153 130.394 168.863 129.789 168.643 129.233C167.053 125.252 162.393 111.512 168.663 109.179L168.653 109.169Z" fill="#4BABF9"/>
<path d="M219.763 195.369C216.923 195.369 214.753 194.237 214.713 194.217C214.223 193.959 214.043 193.354 214.313 192.867C214.573 192.391 215.183 192.202 215.663 192.47C215.923 192.609 221.703 195.577 226.083 190.207C226.433 189.78 227.063 189.71 227.493 190.058C227.923 190.405 227.993 191.031 227.643 191.457C225.123 194.545 222.193 195.379 219.763 195.379V195.369Z" fill="#4BABF9"/>
<path d="M188.613 160.702C191.501 160.702 193.843 158.378 193.843 155.51C193.843 152.643 191.501 150.318 188.613 150.318C185.724 150.318 183.383 152.643 183.383 155.51C183.383 158.378 185.724 160.702 188.613 160.702Z" fill="#2B110C"/>
<path d="M186.953 154.448C187.378 154.448 187.723 154.106 187.723 153.683C187.723 153.261 187.378 152.919 186.953 152.919C186.527 152.919 186.183 153.261 186.183 153.683C186.183 154.106 186.527 154.448 186.953 154.448Z" fill="white"/>
<path d="M236.632 160.702C239.521 160.702 241.862 158.378 241.862 155.51C241.862 152.643 239.521 150.318 236.632 150.318C233.744 150.318 231.402 152.643 231.402 155.51C231.402 158.378 233.744 160.702 236.632 160.702Z" fill="#2B110C"/>
<path d="M234.973 154.448C235.398 154.448 235.743 154.106 235.743 153.683C235.743 153.261 235.398 152.919 234.973 152.919C234.547 152.919 234.203 153.261 234.203 153.683C234.203 154.106 234.547 154.448 234.973 154.448Z" fill="white"/>
<path d="M280.633 154.518L292.533 166.867C294.113 168.505 295.233 170.521 295.773 172.725C297.093 178.066 299.603 188.37 300.373 192.986C301.233 198.099 302.593 207.193 303.103 210.608C303.213 211.372 302.733 212.097 301.983 212.305L294.143 214.42C292.963 214.737 291.773 213.973 291.573 212.772L284.033 166.49C283.853 165.378 283.593 164.266 283.263 163.184L280.633 154.508V154.518Z" fill="#1699F2"/>
<path d="M175.433 128.299C175.183 128.309 174.943 128.269 174.723 128.14C174.443 127.981 174.243 127.704 174.073 127.435C172.033 124.288 171.503 120.357 171.903 116.634C172.303 112.912 173.563 109.338 174.883 105.833C180.433 91.0813 187.403 76.4185 198.743 65.3991C203.293 60.9814 208.973 57.0501 215.343 57.0005C226.263 56.9211 233.273 66.7691 237.513 75.396C239.003 78.4338 240.423 81.5013 241.763 84.5987C244.453 90.8033 246.843 97.1271 248.923 103.56C250.713 109.08 252.273 115.026 250.693 120.605C250.393 121.658 250.003 122.859 250.613 123.762C251.073 124.457 252.033 124.795 252.283 125.589C252.563 126.463 251.743 127.366 250.853 127.565C249.963 127.763 249.033 127.445 248.163 127.158C231.433 121.519 213.403 119.712 195.883 121.916C189.333 122.74 182.703 124.169 177.093 127.634C176.593 127.942 176.003 128.269 175.453 128.299H175.433Z" fill="#1699F2"/>
<path d="M239.393 116.625C239.393 116.625 225.613 113.617 209.803 114.6C209.623 114.61 209.453 114.451 209.433 114.232C209.333 113.369 209.303 112.793 209.263 112.346C208.703 105.933 208.993 100.126 210.143 94.2485C211.443 87.5674 214.603 81.6606 217.863 76.0417C217.993 75.8133 217.963 75.5254 217.723 75.4063C217.543 75.317 216.253 74.9397 216.253 74.9397C215.463 74.632 215.473 74.8603 215.223 75.2276C214.973 75.5949 214.643 76.0615 214.413 76.4388C212.863 78.9305 211.493 81.4422 210.273 84.1821C208.713 87.6964 207.483 91.5681 206.753 95.4597C205.643 101.426 205.803 107.551 206.113 113.706L206.143 114.133L206.163 114.441C206.163 114.441 206.183 114.808 205.723 114.818C203.993 114.878 198.783 115.235 192.063 116.585C191.953 116.605 191.843 116.516 191.833 116.377C191.833 116.327 191.833 116.268 191.813 116.198C190.783 109.725 191.713 101.376 193.053 95.9163C194.513 89.9797 195.783 86.3463 197.833 81.5017C198.283 80.4494 198.843 79.1192 199.223 78.0271C199.333 77.7194 198.453 77.4514 198.183 77.3322C198.013 77.2528 197.663 77.1039 197.303 77.0046C196.753 76.8557 196.653 77.4613 195.753 79.4368C192.353 86.932 191.413 89.2253 189.633 98.1302C189.563 98.4578 188.883 103.134 188.613 103.441C188.463 103.61 187.933 103.838 187.653 103.967C183.193 105.943 176.813 108.038 172.823 111.066C171.883 111.78 169.523 115.215 170.703 116.119C174.193 112.426 183.443 108.564 188.333 106.846C188.483 106.797 188.623 106.946 188.603 107.124C188.373 109.259 188.353 113.408 188.783 116.863C188.803 116.992 188.733 117.101 188.623 117.131C182.223 118.64 175.773 121.132 172.663 125.242L173.723 127.515C173.723 127.515 177.143 123.445 183.823 121.479C192.273 118.988 200.273 118.104 205.773 117.836C207.083 117.777 211.423 117.608 212.733 117.588C220.663 117.439 238.193 117.816 250.223 123.018L251.603 120.794C251.603 120.794 247.863 118.511 239.423 116.655L239.393 116.625Z" fill="#C0F1FC"/>
</g>
<defs>
<clipPath id="clip0_152_44550">
<rect width="156" height="186" fill="white" transform="translate(147 57)"/>
</clipPath>
</defs>
</svg>
