<svg width="326" height="247" viewBox="0 0 326 247" fill="none" xmlns="http://www.w3.org/2000/svg">
<g clip-path="url(#clip0_152_44548)">
<g clip-path="url(#clip1_152_44548)">
<path d="M115.131 164.211C115.191 165.53 113.901 167.268 113.901 167.268C113.901 167.268 111.001 169.635 112.361 170.884C113.721 172.142 116.441 175.339 125.871 175.538L148.891 174.48C148.891 174.48 173.391 161.175 174.601 150.417C174.601 150.417 162.551 139.03 144.761 125.496C138.761 142.157 130.861 157.219 115.131 164.201V164.211Z" fill="#C7C9D1"/>
<path d="M144.761 125.506C137.241 119.782 128.701 113.689 119.601 107.906C88.9705 88.4386 83.3105 73.5358 83.3105 73.5358C83.3105 73.5358 81.1905 60.2611 76.3205 61.0302C71.4505 61.7993 66.7105 69.6503 70.0905 78.0905C70.0905 78.0905 73.2505 84.2334 69.3205 83.9737C65.4005 83.724 60.0605 82.0959 58.1705 85.9415C56.2805 89.787 62.8705 96.4593 62.8705 96.4593C62.8705 96.4593 67.3705 100.255 64.6105 101.693C61.8405 103.132 56.2205 103.212 57.0905 106.847C57.9605 110.483 61.5305 114.079 64.9905 115.547C68.4505 117.006 67.1005 121.62 64.9605 121.77C62.8205 121.92 55.2205 126.515 63.6805 131.958C72.1405 137.402 74.5705 138.351 72.5205 140.049C70.4705 141.747 67.4705 142.276 69.7205 145.483C71.9705 148.689 77.0905 153.414 88.6105 152.285C88.6105 152.285 97.0205 153.543 94.6105 155.122C92.1905 156.7 90.3005 158.747 93.3505 160.186C96.4005 161.634 104.851 163.941 111.401 162.893C114.241 162.433 115.091 163.202 115.131 164.211C130.861 157.229 138.761 142.167 144.761 125.506Z" fill="#D5D8E0"/>
<path d="M280.451 192.548C279.641 193.357 278.951 194.226 278.351 195.135C279.601 196.044 280.541 197.313 281.461 198.561C285.471 203.985 289.471 209.419 293.481 214.843C295.321 217.33 296.481 218.888 299.231 220.226C301.921 221.535 304.691 222.484 307.681 222.823C308.611 222.923 309.631 222.953 310.381 222.404C311.831 221.335 311.251 219.008 310.211 217.53C309.211 216.121 307.871 214.703 307.881 213.005C299.191 203.995 288.941 184.088 280.461 192.558L280.451 192.548Z" fill="#C7C9D1"/>
<path d="M367.721 185.676C367.081 183.629 365.051 183.119 363.201 182.959C361.481 182.81 359.661 182.85 358.241 181.711C357.611 181.211 357.171 180.462 357.171 179.653C357.151 178.215 358.281 177.616 359.281 177.026C361.791 175.548 364.031 173.63 365.871 171.383C367.141 169.835 368.281 167.907 367.131 165.819C366.611 164.88 365.721 164.191 364.721 163.822C362.321 162.943 359.861 163.642 357.501 164.281C339.281 169.285 319.581 171.772 301.671 165.759C295.741 163.772 289.691 160.835 283.541 161.954C280.251 162.553 277.371 164.501 274.201 165.559C272.391 166.159 266.541 163.951 264.481 166.498L264.451 166.528L266.411 191.11C266.531 192.638 267.911 193.747 269.441 193.577C272.611 193.218 275.841 193.297 278.351 195.125C278.951 194.216 279.641 193.357 280.451 192.538C288.931 184.068 299.191 203.975 307.871 212.985C307.871 212.905 307.861 212.835 307.871 212.765C310.051 212.665 312.071 213.894 313.731 215.302C315.391 216.72 316.871 218.379 318.771 219.457C320.671 220.536 323.181 220.916 324.971 219.667C326.761 218.419 326.991 215.212 325.041 214.233C324.371 213.894 323.481 213.784 323.171 213.105C322.691 212.046 324.141 211.157 325.291 210.967C330.161 210.148 335.191 211.227 339.771 213.065C340.921 213.524 342.091 214.044 343.331 214.113C344.571 214.183 345.941 213.694 346.521 212.595C347.141 211.417 346.671 209.908 345.811 208.899C344.951 207.891 343.751 207.211 342.671 206.442C341.371 205.513 340.201 204.415 339.201 203.176C338.181 201.928 337.351 199.95 339.001 198.931C339.851 198.402 340.951 198.531 341.791 199.071C345.721 201.578 350.241 203.166 354.871 203.686C357.061 203.935 360.021 203.366 359.911 200.909C359.851 199.64 358.961 198.561 357.781 198.072C355.491 197.123 353.411 195.685 351.701 193.897C351.351 193.537 351.001 193.058 351.131 192.578C351.251 192.129 351.741 191.899 352.181 191.759C354.371 191.08 356.721 191.4 359.001 191.56C361.701 191.759 364.621 191.669 366.631 189.632C367.651 188.593 368.151 187.065 367.711 185.676H367.721Z" fill="#D5D8E0"/>
<path d="M288.021 183.319C288.771 183.239 289.521 183.179 290.281 183.139C290.921 183.099 291.281 183.019 291.911 182.929C292.351 182.869 293.501 182.58 293.911 182.42C295.921 181.621 297.361 180.502 298.801 178.884C298.901 178.774 299.001 178.654 299.101 178.534C299.601 177.935 300.061 177.256 300.181 176.477C300.301 175.698 299.951 174.809 299.231 174.509C298.611 174.249 297.881 174.469 297.341 174.869C296.801 175.268 296.401 175.818 295.951 176.317C295.221 177.136 294.341 177.835 293.381 178.365C292.861 178.654 292.261 178.894 291.681 178.824C291.481 178.804 291.341 178.624 291.371 178.425C291.561 177.216 291.891 176.037 292.091 174.839C292.311 173.53 292.371 172.162 291.921 170.913C291.371 169.385 290.081 168.186 288.601 167.497C287.131 166.808 285.401 166.578 283.881 167.128C281.881 167.857 280.531 169.824 280.051 171.892C279.391 174.719 280.191 177.855 282.121 180.023C282.221 180.133 282.171 180.312 282.021 180.342C280.131 180.782 278.161 180.842 276.251 180.522C276.041 181.022 275.741 182.999 276.141 184.278C276.181 184.418 276.241 184.567 276.361 184.657C276.461 184.727 277.891 184.807 278.011 184.807C280.011 184.917 281.991 184.687 283.911 184.118C285.261 183.718 286.641 183.479 288.031 183.329L288.021 183.319ZM283.771 173.47C283.771 173.47 283.771 173.41 283.771 173.38C283.791 172.741 283.941 172.092 284.291 171.553C284.641 171.013 285.211 170.604 285.851 170.534C286.331 170.484 286.831 170.634 287.221 170.923C287.611 171.213 287.911 171.622 288.081 172.072C288.351 172.771 288.341 173.56 288.241 174.299C288.091 175.358 287.761 176.377 287.271 177.326C287.171 177.516 287.031 177.775 286.821 177.865C286.611 177.955 286.291 177.785 286.101 177.685C285.341 177.276 284.731 176.637 284.321 175.878C283.911 175.118 283.751 174.319 283.761 173.49L283.771 173.47Z" fill="#C7C9D1"/>
<path d="M182.83 208.72C180.86 210.548 181.16 213.914 181.03 216.171C180.78 220.486 181.06 224.821 181.87 229.097C182 229.766 182.15 230.465 182.69 230.974C183.2 231.454 183.96 231.694 184.7 231.883C190.83 233.501 197.55 233.601 203.75 232.163C204.83 231.913 205.99 231.554 206.56 230.755C206.98 230.165 206.98 229.446 206.97 228.757L206.75 210.208C206.75 209.549 206.71 208.83 206.21 208.31C205.53 207.601 204.27 207.531 203.17 207.521L188.73 207.362C187.39 207.352 186.03 207.332 184.76 207.681C183.94 207.911 183.31 208.271 182.82 208.73L182.83 208.72Z" fill="#C7C9D1"/>
<path d="M262.571 207.511C264.541 209.339 264.241 212.705 264.371 214.962C264.621 219.277 264.341 223.612 263.531 227.888C263.401 228.557 263.251 229.256 262.711 229.765C262.201 230.245 261.441 230.485 260.701 230.674C254.571 232.292 247.851 232.392 241.651 230.954C240.571 230.704 239.411 230.345 238.841 229.546C238.421 228.956 238.421 228.237 238.431 227.548L238.651 208.999C238.651 208.34 238.691 207.621 239.191 207.102C239.871 206.392 241.131 206.322 242.231 206.312L256.671 206.153C258.011 206.143 259.371 206.123 260.641 206.472C261.461 206.702 262.091 207.062 262.581 207.521L262.571 207.511Z" fill="#C7C9D1"/>
<path d="M174.771 217.17C172.611 219.108 172.951 222.654 172.811 225.041C172.541 229.596 172.851 234.181 173.731 238.685C173.871 239.385 174.041 240.134 174.631 240.673C175.181 241.183 176.021 241.432 176.831 241.632C183.531 243.34 190.881 243.45 197.661 241.922C198.841 241.652 200.111 241.282 200.731 240.433C201.191 239.804 201.191 239.045 201.181 238.326L200.941 218.728C200.941 218.029 200.901 217.27 200.351 216.721C199.611 215.972 198.231 215.902 197.031 215.882L181.241 215.712C179.781 215.692 178.291 215.682 176.901 216.052C176.011 216.291 175.311 216.671 174.781 217.16L174.771 217.17Z" fill="#D5D8E0"/>
<path d="M258.031 217.17C260.191 219.108 259.851 222.654 259.991 225.041C260.261 229.596 259.951 234.181 259.071 238.685C258.931 239.385 258.761 240.134 258.171 240.673C257.621 241.183 256.781 241.432 255.971 241.632C249.271 243.34 241.921 243.45 235.141 241.922C233.961 241.652 232.691 241.282 232.071 240.433C231.611 239.804 231.611 239.045 231.621 238.326L231.861 218.728C231.861 218.029 231.901 217.27 232.451 216.721C233.191 215.972 234.571 215.902 235.771 215.882L251.561 215.712C253.021 215.692 254.511 215.682 255.901 216.052C256.791 216.291 257.491 216.671 258.021 217.16L258.031 217.17Z" fill="#D5D8E0"/>
<path d="M196.53 110.094C201.54 108.795 206.7 108.076 211.91 108.016C238.7 107.696 264.87 124.877 274.49 149.269C282.08 168.506 278.94 191.19 267.28 208.25C254.49 226.959 231.56 228.427 210.16 228.667C194.82 228.837 178.99 225.251 166.92 216.011C147.51 201.159 141.44 173.091 150.08 150.537C157.64 130.81 175.76 115.477 196.53 110.094Z" fill="#E8EDED"/>
<path d="M203.53 176.257C203.66 176.686 201.85 180.013 202.63 180.392C206.71 182.38 210.66 183.908 219.02 181.771C224.13 180.462 226.98 176.427 228.03 173.051C229.38 168.726 227.98 161.864 220.97 157.169C215.21 162.573 212.8 171.502 207.04 176.906C205.91 177.965 203.17 175.048 203.52 176.247L203.53 176.257Z" fill="#C7C9D1"/>
<path d="M204.07 156.01C203.56 156.19 203.07 156.4 202.58 156.639C194.8 160.435 192.85 171.602 198.97 177.765C202.49 181.301 207.86 182.689 212.79 181.91C218.33 181.031 223.52 177.326 225.49 172.072C227.46 166.818 225.69 160.215 220.97 157.179C218.42 155.541 215.3 155.001 212.27 154.901C209.5 154.812 206.66 155.071 204.07 156.01Z" fill="#D5D8E0"/>
<path d="M209.231 165.26C209.121 164.75 208.971 164.251 208.751 163.762C208.471 163.122 208.071 162.513 207.481 162.153C206.891 161.794 206.071 161.724 205.521 162.143C205.001 162.533 204.821 163.232 204.701 163.881C204.371 165.789 204.441 167.627 204.571 169.545C204.671 171.123 204.611 172.711 205.421 174.14C205.611 174.479 205.871 174.819 206.231 174.969C206.661 175.148 207.171 175.039 207.561 174.779C207.951 174.519 208.221 174.12 208.431 173.7C209.051 172.501 209.231 171.133 209.351 169.795C209.491 168.286 209.551 166.728 209.241 165.26H209.231Z" fill="#E8EDED"/>
<path d="M217.6 165.26C217.49 164.75 217.34 164.251 217.12 163.762C216.84 163.122 216.44 162.513 215.85 162.153C215.26 161.794 214.44 161.724 213.89 162.143C213.37 162.533 213.19 163.232 213.07 163.881C212.74 165.789 212.81 167.627 212.94 169.545C213.04 171.123 212.98 172.711 213.79 174.14C213.98 174.479 214.24 174.819 214.6 174.969C215.03 175.148 215.54 175.039 215.93 174.779C216.32 174.519 216.59 174.12 216.8 173.7C217.42 172.501 217.6 171.133 217.72 169.795C217.86 168.286 217.92 166.728 217.61 165.26H217.6Z" fill="#E8EDED"/>
<path d="M163.221 133.187C163.221 133.187 156.761 111.812 163.221 104.99C169.681 98.1576 189.051 114.918 189.051 114.918C189.051 114.918 172.341 122.569 163.221 133.197V133.187Z" fill="#E8EDED"/>
<path d="M237.92 115.297C237.92 115.297 248.07 105.359 255.36 104.48C256.94 104.29 258.55 104.809 259.67 105.948C262.11 108.425 265.6 115.038 262.99 131.988C262.99 131.988 254.25 120.991 237.92 115.297Z" fill="#E8EDED"/>
<path d="M255.73 108.646C254.9 108.616 254.02 108.935 253.25 109.295C251.18 110.274 249.31 111.582 247.46 112.891C245.76 114.089 244.05 115.288 242.6 116.736C241.58 117.755 240.64 119.143 241.08 120.472C241.46 121.601 242.69 122.26 243.82 122.809L255.4 128.433C256.83 129.122 258.66 130.031 259.16 128.013C260.12 124.088 260.24 120.002 259.71 116.007C259.47 114.179 259.09 112.341 258.28 110.653C257.94 109.944 257.48 109.225 256.74 108.875C256.42 108.725 256.08 108.655 255.73 108.646Z" fill="#C7C9D1"/>
<path d="M167.761 108.345C168.301 108.146 168.921 108.026 169.641 108.006C171.071 107.966 172.501 108.245 173.791 108.815C175.331 109.494 176.631 110.553 177.921 111.602L183.411 116.096C183.981 116.566 184.601 117.125 184.611 117.854C184.611 118.653 183.901 119.273 183.241 119.782L171.001 129.171C170.381 129.651 169.591 130.16 168.851 129.9C168.261 129.701 167.971 129.091 167.751 128.532C166.161 124.527 161.501 110.703 167.771 108.355L167.761 108.345Z" fill="#C7C9D1"/>
<path d="M218.88 195.076C216.04 195.076 213.87 193.937 213.83 193.917C213.34 193.657 213.16 193.048 213.43 192.559C213.69 192.079 214.3 191.889 214.78 192.159C215.04 192.299 220.82 195.285 225.2 189.882C225.55 189.452 226.18 189.382 226.61 189.732C227.04 190.081 227.11 190.711 226.76 191.14C224.25 194.247 221.31 195.086 218.88 195.086V195.076Z" fill="#C7C9D1"/>
<path d="M187.721 160.196C190.609 160.196 192.951 157.857 192.951 154.972C192.951 152.087 190.609 149.748 187.721 149.748C184.832 149.748 182.491 152.087 182.491 154.972C182.491 157.857 184.832 160.196 187.721 160.196Z" fill="#2B110C"/>
<path d="M186.061 153.903C186.486 153.903 186.831 153.559 186.831 153.134C186.831 152.71 186.486 152.365 186.061 152.365C185.635 152.365 185.291 152.71 185.291 153.134C185.291 153.559 185.635 153.903 186.061 153.903Z" fill="white"/>
<path d="M235.741 160.196C238.629 160.196 240.971 157.857 240.971 154.972C240.971 152.087 238.629 149.748 235.741 149.748C232.852 149.748 230.511 152.087 230.511 154.972C230.511 157.857 232.852 160.196 235.741 160.196Z" fill="#2B110C"/>
<path d="M234.09 153.903C234.516 153.903 234.86 153.559 234.86 153.134C234.86 152.71 234.516 152.365 234.09 152.365C233.665 152.365 233.32 152.71 233.32 153.134C233.32 153.559 233.665 153.903 234.09 153.903Z" fill="white"/>
</g>
</g>
<defs>
<clipPath id="clip0_152_44548">
<rect width="326" height="247" fill="white"/>
</clipPath>
<clipPath id="clip1_152_44548">
<rect width="310.88" height="182" fill="white" transform="translate(57 61)"/>
</clipPath>
</defs>
</svg>
