<svg width="326" height="247" viewBox="0 0 326 247" fill="none" xmlns="http://www.w3.org/2000/svg">
<g clip-path="url(#clip0_152_44554)">
<path d="M288.952 183.28C289.702 183.2 290.452 183.14 291.212 183.1C291.852 183.06 292.212 182.98 292.842 182.89C293.282 182.83 294.432 182.54 294.842 182.38C296.852 181.58 298.292 180.461 299.732 178.841C299.832 178.731 299.932 178.611 300.032 178.491C300.532 177.892 300.992 177.212 301.112 176.432C301.232 175.652 300.882 174.763 300.162 174.463C299.542 174.203 298.812 174.423 298.272 174.823C297.732 175.222 297.332 175.772 296.882 176.272C296.152 177.092 295.272 177.792 294.312 178.321C293.792 178.611 293.192 178.851 292.612 178.781C292.412 178.761 292.272 178.581 292.302 178.381C292.492 177.172 292.822 175.992 293.022 174.793C293.242 173.483 293.302 172.113 292.852 170.864C292.302 169.334 291.012 168.135 289.532 167.445C288.062 166.755 286.332 166.525 284.812 167.075C282.812 167.805 281.462 169.774 280.982 171.844C280.322 174.673 281.122 177.812 283.052 179.981C283.152 180.091 283.102 180.271 282.952 180.301C281.062 180.741 279.092 180.801 277.182 180.481C276.972 180.981 276.672 182.96 277.072 184.24C277.112 184.38 277.172 184.529 277.292 184.619C277.392 184.689 278.822 184.769 278.942 184.769C280.942 184.879 282.922 184.649 284.842 184.08C286.192 183.68 287.572 183.44 288.962 183.29L288.952 183.28ZM284.702 173.423C284.702 173.423 284.702 173.363 284.702 173.333C284.722 172.693 284.872 172.044 285.222 171.504C285.572 170.964 286.142 170.554 286.782 170.484C287.262 170.434 287.762 170.584 288.152 170.874C288.542 171.164 288.842 171.574 289.012 172.024C289.282 172.723 289.272 173.513 289.172 174.253C289.022 175.312 288.692 176.332 288.202 177.282C288.102 177.472 287.962 177.732 287.752 177.822C287.542 177.912 287.222 177.742 287.032 177.642C286.272 177.232 285.662 176.592 285.252 175.832C284.842 175.073 284.682 174.273 284.692 173.443L284.702 173.423Z" fill="#5FD147"/>
<path d="M183.752 208.691C181.782 210.52 182.082 213.889 181.952 216.148C181.702 220.467 181.982 224.806 182.792 229.084C182.922 229.754 183.072 230.454 183.612 230.964C184.122 231.444 184.882 231.683 185.622 231.873C191.752 233.493 198.472 233.593 204.672 232.153C205.752 231.903 206.912 231.543 207.482 230.744C207.902 230.154 207.902 229.434 207.892 228.744L207.672 210.18C207.672 209.521 207.632 208.801 207.132 208.281C206.452 207.571 205.192 207.501 204.092 207.491L189.652 207.331C188.312 207.321 186.952 207.301 185.682 207.651C184.862 207.881 184.232 208.241 183.742 208.701L183.752 208.691Z" fill="#5FD147"/>
<path d="M263.492 207.492C265.462 209.321 265.162 212.69 265.292 214.949C265.542 219.268 265.262 223.606 264.452 227.885C264.322 228.555 264.172 229.255 263.632 229.764C263.122 230.244 262.362 230.484 261.622 230.674C255.492 232.294 248.772 232.394 242.572 230.954C241.492 230.704 240.332 230.344 239.762 229.545C239.342 228.955 239.342 228.235 239.352 227.545L239.572 208.981C239.572 208.321 239.612 207.602 240.112 207.082C240.792 206.372 242.052 206.302 243.152 206.292L257.592 206.132C258.932 206.122 260.292 206.102 261.562 206.452C262.382 206.682 263.012 207.042 263.502 207.502L263.492 207.492Z" fill="#5FD147"/>
<path d="M175.702 217.159C173.542 219.098 173.882 222.647 173.742 225.036C173.472 229.595 173.782 234.183 174.662 238.692C174.802 239.392 174.972 240.141 175.562 240.681C176.112 241.191 176.952 241.441 177.762 241.641C184.462 243.35 191.812 243.46 198.592 241.931C199.772 241.661 201.042 241.291 201.662 240.441C202.122 239.811 202.122 239.052 202.112 238.332L201.872 218.718C201.872 218.019 201.832 217.259 201.282 216.709C200.542 215.959 199.162 215.889 197.962 215.869L182.172 215.699C180.712 215.679 179.222 215.669 177.832 216.039C176.942 216.279 176.242 216.659 175.712 217.149L175.702 217.159Z" fill="#7DDD6F"/>
<path d="M258.962 217.159C261.122 219.098 260.782 222.647 260.922 225.036C261.192 229.595 260.882 234.183 260.002 238.692C259.862 239.392 259.692 240.141 259.102 240.681C258.552 241.191 257.712 241.441 256.902 241.641C250.202 243.35 242.852 243.46 236.072 241.931C234.892 241.661 233.622 241.291 233.002 240.441C232.542 239.811 232.542 239.052 232.552 238.332L232.792 218.718C232.792 218.019 232.832 217.259 233.382 216.709C234.122 215.959 235.502 215.889 236.702 215.869L252.492 215.699C253.952 215.679 255.442 215.669 256.832 216.039C257.722 216.279 258.422 216.659 258.952 217.149L258.962 217.159Z" fill="#7DDD6F"/>
<path d="M197.452 109.993C202.462 108.693 207.622 107.974 212.832 107.914C239.622 107.594 265.792 124.788 275.412 149.2C283.002 168.454 279.862 191.157 268.202 208.231C255.412 226.955 232.482 228.424 211.082 228.664C195.742 228.834 179.912 225.246 167.842 215.999C148.432 201.123 142.362 173.032 151.002 150.47C158.562 130.726 176.682 115.381 197.452 109.993Z" fill="#CEFFC7"/>
<path d="M204.462 176.212C204.592 176.642 202.782 179.971 203.562 180.351C207.642 182.34 211.592 183.87 219.952 181.73C225.062 180.421 227.912 176.382 228.962 173.003C230.312 168.675 228.912 161.807 221.902 157.108C216.142 162.517 213.732 171.454 207.972 176.862C206.842 177.922 204.102 175.003 204.452 176.202L204.462 176.212Z" fill="#5FD147"/>
<path d="M205.001 155.949C204.491 156.129 204.001 156.338 203.511 156.578C195.731 160.377 193.781 171.554 199.901 177.722C203.421 181.26 208.791 182.65 213.721 181.87C219.261 180.99 224.451 177.282 226.421 172.023C228.391 166.765 226.621 160.157 221.901 157.118C219.351 155.479 216.231 154.939 213.201 154.839C210.431 154.749 207.591 155.009 205.001 155.949Z" fill="#7DDD6F"/>
<path d="M210.162 165.205C210.052 164.695 209.902 164.195 209.682 163.705C209.402 163.066 209.002 162.456 208.412 162.096C207.822 161.736 207.002 161.666 206.452 162.086C205.932 162.476 205.752 163.176 205.632 163.825C205.302 165.735 205.372 167.574 205.502 169.494C205.602 171.073 205.542 172.663 206.352 174.092C206.542 174.432 206.802 174.772 207.162 174.922C207.592 175.102 208.102 174.992 208.492 174.732C208.882 174.472 209.152 174.072 209.362 173.652C209.982 172.453 210.162 171.083 210.282 169.744C210.422 168.234 210.482 166.675 210.172 165.205H210.162Z" fill="#CEFFC7"/>
<path d="M218.522 165.205C218.412 164.695 218.262 164.195 218.042 163.705C217.762 163.066 217.362 162.456 216.772 162.096C216.182 161.736 215.362 161.666 214.812 162.086C214.292 162.476 214.112 163.176 213.992 163.825C213.662 165.735 213.732 167.574 213.862 169.494C213.962 171.073 213.902 172.663 214.712 174.092C214.902 174.432 215.162 174.772 215.522 174.922C215.952 175.102 216.462 174.992 216.852 174.732C217.242 174.472 217.512 174.072 217.722 173.652C218.342 172.453 218.522 171.083 218.642 169.744C218.782 168.234 218.842 166.675 218.532 165.205H218.522Z" fill="#CEFFC7"/>
<path d="M164.152 133.105C164.152 133.105 157.692 111.712 164.152 104.885C170.612 98.0468 189.982 114.821 189.982 114.821C189.982 114.821 173.272 122.479 164.152 133.115V133.105Z" fill="#CEFFC7"/>
<path d="M238.852 115.192C238.852 115.192 249.002 105.245 256.292 104.365C257.872 104.176 259.482 104.695 260.602 105.835C263.042 108.314 266.532 114.932 263.922 131.897C263.922 131.897 255.182 120.89 238.852 115.192Z" fill="#CEFFC7"/>
<path d="M256.662 108.534C255.832 108.504 254.952 108.824 254.182 109.184C252.112 110.164 250.242 111.473 248.392 112.783C246.692 113.982 244.982 115.182 243.532 116.632C242.512 117.651 241.572 119.041 242.012 120.37C242.392 121.5 243.622 122.16 244.752 122.71L256.332 128.338C257.762 129.028 259.592 129.937 260.092 127.918C261.052 123.989 261.172 119.9 260.642 115.902C260.402 114.072 260.022 112.233 259.212 110.544C258.872 109.834 258.412 109.114 257.672 108.764C257.352 108.614 257.012 108.544 256.662 108.534Z" fill="#5FD147"/>
<path d="M168.692 108.244C169.232 108.044 169.852 107.924 170.572 107.904C172.002 107.864 173.432 108.144 174.722 108.714C176.262 109.394 177.562 110.453 178.852 111.503L184.342 116.002C184.912 116.471 185.532 117.031 185.542 117.761C185.542 118.561 184.832 119.18 184.172 119.69L171.932 129.087C171.312 129.567 170.522 130.077 169.782 129.817C169.192 129.617 168.902 129.007 168.682 128.447C167.092 124.439 162.432 110.603 168.702 108.254L168.692 108.244Z" fill="#5FD147"/>
<path d="M219.802 195.035C216.962 195.035 214.792 193.896 214.752 193.876C214.262 193.616 214.082 193.006 214.352 192.516C214.612 192.036 215.222 191.846 215.702 192.116C215.962 192.256 221.742 195.245 226.122 189.837C226.472 189.407 227.102 189.337 227.532 189.687C227.962 190.037 228.032 190.667 227.682 191.097C225.172 194.206 222.232 195.045 219.802 195.045V195.035Z" fill="#5FD147"/>
<path d="M188.652 160.137C191.54 160.137 193.882 157.796 193.882 154.909C193.882 152.021 191.54 149.681 188.652 149.681C185.763 149.681 183.422 152.021 183.422 154.909C183.422 157.796 185.763 160.137 188.652 160.137Z" fill="#2B110C"/>
<path d="M186.992 153.839C187.417 153.839 187.762 153.495 187.762 153.07C187.762 152.644 187.417 152.3 186.992 152.3C186.566 152.3 186.222 152.644 186.222 153.07C186.222 153.495 186.566 153.839 186.992 153.839Z" fill="white"/>
<path d="M236.671 160.137C239.56 160.137 241.901 157.796 241.901 154.909C241.901 152.021 239.56 149.681 236.671 149.681C233.783 149.681 231.441 152.021 231.441 154.909C231.441 157.796 233.783 160.137 236.671 160.137Z" fill="#2B110C"/>
<path d="M235.012 153.839C235.437 153.839 235.782 153.495 235.782 153.07C235.782 152.644 235.437 152.3 235.012 152.3C234.586 152.3 234.242 152.644 234.242 153.07C234.242 153.495 234.586 153.839 235.012 153.839Z" fill="white"/>
<path d="M192.742 74.6052C193.152 70.8264 194.632 66.5078 196.622 63.3589C197.422 62.0893 198.432 60.8997 199.732 60.2499C201.052 59.5901 202.632 59.5501 203.972 60.1599C205.482 60.8397 206.602 62.2592 207.332 63.8187C208.062 65.3782 208.422 67.1076 208.782 68.8071L200.672 71.7761L196.692 73.2357C195.572 73.6455 193.892 74.6552 192.752 74.6052H192.742Z" fill="#7DDD6F"/>
<path d="M215.992 68.7767L217.042 65.9576C217.642 64.3582 218.242 62.7487 219.162 61.3391C220.082 59.9296 221.352 58.71 222.892 58.2301C224.362 57.7703 225.952 58.0202 227.382 58.61C230.552 59.9296 232.912 62.8786 234.542 66.0776C236.172 69.2766 237.562 73.7851 238.882 77.134C239.212 77.9637 240.112 79.4533 238.702 79.0934C237.632 78.8235 234.522 76.9541 233.502 76.5242C231.342 75.6245 230.832 74.9547 228.672 74.055C227.632 73.6251 216.352 68.8967 216.002 68.7667L215.992 68.7767Z" fill="#7DDD6F"/>
<path d="M180.322 125.449C180.015 123.749 179.818 122.633 179.732 122.1C179.142 118.581 178.702 115.002 178.822 111.413C178.992 106.135 180.452 100.727 183.822 96.8579C184.452 96.1282 185.182 95.3984 185.352 94.4187C185.462 93.7689 185.312 93.1091 185.192 92.4693C183.972 85.5216 187.662 78.3239 193.072 74.2553C198.482 70.1866 205.302 68.827 211.912 68.6971C217.602 68.5871 223.342 69.3269 228.682 71.4362C234.012 73.5455 238.932 77.0743 242.362 81.9228C246.882 88.3007 248.582 96.518 248.702 104.515C248.812 111.623 247.772 118.681 246.872 125.739C246.722 126.918 245.612 127.648 244.562 127.258C240.762 125.859 232.722 123.929 231.682 123.699C226.512 122.56 221.262 121.88 215.992 121.65C205.452 121.2 194.622 121.91 184.732 125.819C184.212 126.018 183.422 126.388 182.552 126.728C181.582 127.098 180.512 126.528 180.312 125.449H180.322Z" fill="#40AF25"/>
<path d="M250.392 102.056C241.362 94.568 229.702 89.4096 218.392 87.6902C215.242 87.2104 212.082 87.0104 208.932 87.0604C209.502 86.7005 210.032 86.2607 210.602 85.7708C212.042 84.5312 213.492 83.2816 214.662 81.7121C214.792 81.5422 215.002 81.1923 215.012 80.9624C215.012 80.6725 214.872 80.4426 214.702 80.2426C214.142 79.5428 213.412 78.6331 212.672 79.033C212.382 79.193 211.882 79.6228 211.622 79.8427C210.162 81.0823 208.742 82.212 207.282 83.4516C207.162 83.5615 207.012 83.6715 206.862 83.6315C206.622 83.5815 206.552 83.2316 206.532 82.9517C206.232 78.1833 206.802 73.3349 208.202 68.8263C206.852 68.7863 205.492 68.9463 204.172 69.2962C203.862 69.3761 203.542 69.4761 203.292 69.686C202.862 70.0359 202.652 70.6457 202.492 71.2355C201.452 75.1043 201.742 79.2529 201.722 83.3016C201.722 83.6315 201.682 84.0314 201.422 84.1913C201.232 84.3013 201.012 84.2313 200.812 84.1514C199.222 83.5515 197.682 82.7618 196.222 81.8121C195.932 81.6222 195.622 81.4122 195.282 81.4322C194.702 81.4722 194.332 82.132 194.082 82.7318C193.962 83.0217 193.832 83.5116 193.892 83.8215C193.962 84.1913 194.252 84.4413 194.532 84.6512C196.102 85.8708 197.722 87.0104 199.382 88.0801C194.512 89.0498 189.712 90.7192 185.052 93.1384C184.622 93.3584 184.152 93.8682 184.172 94.378C184.172 94.418 183.282 95.4077 183.292 95.4377C183.362 95.8276 183.752 96.1075 184.132 96.1375C184.542 96.1775 184.942 95.9975 185.332 95.8276C200.102 89.3097 218.212 88.44 232.932 95.1278C236.182 96.6073 239.302 98.3867 242.402 100.196C243.952 101.106 245.492 102.026 247.052 102.925C247.552 103.215 250.942 105.504 250.402 103.215C250.282 102.725 250.782 102.375 250.402 102.066L250.392 102.056Z" fill="#CEFFC7"/>
</g>
<defs>
<clipPath id="clip0_152_44554">
<rect width="153.96" height="185" fill="white" transform="translate(147 58)"/>
</clipPath>
</defs>
</svg>
