<svg width="326" height="247" viewBox="0 0 326 247" fill="none" xmlns="http://www.w3.org/2000/svg">
<g clip-path="url(#clip0_152_44552)">
<path d="M287.913 183.446C288.663 183.366 289.413 183.307 290.173 183.267C290.813 183.227 291.173 183.147 291.803 183.057C292.243 182.998 293.393 182.708 293.803 182.549C295.813 181.752 297.253 180.635 298.693 179.021C298.793 178.911 298.893 178.791 298.993 178.672C299.493 178.074 299.953 177.396 300.073 176.618C300.193 175.841 299.843 174.954 299.123 174.655C298.503 174.396 297.773 174.615 297.233 175.014C296.693 175.412 296.293 175.961 295.843 176.459C295.113 177.276 294.233 177.974 293.273 178.502C292.753 178.791 292.153 179.031 291.573 178.961C291.373 178.941 291.233 178.761 291.263 178.562C291.453 177.356 291.783 176.18 291.983 174.984C292.203 173.678 292.263 172.313 291.813 171.067C291.263 169.542 289.973 168.346 288.493 167.658C287.023 166.97 285.293 166.741 283.773 167.289C281.773 168.017 280.423 169.98 279.943 172.043C279.283 174.864 280.083 177.994 282.013 180.157C282.113 180.266 282.063 180.446 281.913 180.476C280.023 180.914 278.053 180.974 276.143 180.655C275.933 181.154 275.633 183.127 276.033 184.403C276.073 184.542 276.133 184.692 276.253 184.782C276.353 184.851 277.783 184.931 277.903 184.931C279.903 185.041 281.883 184.812 283.803 184.243C285.153 183.845 286.533 183.606 287.923 183.456L287.913 183.446ZM283.663 173.618C283.663 173.618 283.663 173.559 283.663 173.529C283.683 172.891 283.833 172.243 284.183 171.705C284.533 171.166 285.103 170.758 285.743 170.688C286.223 170.638 286.723 170.788 287.113 171.077C287.503 171.366 287.803 171.774 287.973 172.223C288.243 172.921 288.233 173.708 288.133 174.446C287.983 175.502 287.653 176.519 287.163 177.466C287.063 177.655 286.923 177.914 286.713 178.004C286.503 178.094 286.183 177.924 285.993 177.825C285.233 177.416 284.623 176.778 284.213 176.02C283.803 175.263 283.643 174.466 283.653 173.638L283.663 173.618Z" fill="#FF816C"/>
<path d="M182.713 208.792C180.743 210.616 181.043 213.975 180.913 216.228C180.663 220.534 180.943 224.86 181.753 229.126C181.883 229.793 182.033 230.491 182.573 230.999C183.083 231.478 183.843 231.717 184.583 231.906C190.713 233.521 197.433 233.621 203.633 232.186C204.713 231.936 205.873 231.578 206.443 230.78C206.863 230.192 206.863 229.474 206.853 228.787L206.633 210.277C206.633 209.62 206.593 208.902 206.093 208.384C205.413 207.676 204.153 207.606 203.053 207.596L188.613 207.437C187.273 207.427 185.913 207.407 184.643 207.756C183.823 207.985 183.193 208.344 182.703 208.802L182.713 208.792Z" fill="#FF816C"/>
<path d="M262.453 207.596C264.423 209.42 264.123 212.779 264.253 215.032C264.503 219.338 264.223 223.663 263.413 227.929C263.283 228.597 263.133 229.295 262.593 229.803C262.083 230.282 261.323 230.521 260.583 230.71C254.453 232.325 247.733 232.425 241.533 230.989C240.453 230.74 239.293 230.381 238.723 229.584C238.303 228.996 238.303 228.278 238.313 227.59L238.533 209.081C238.533 208.423 238.573 207.706 239.073 207.187C239.753 206.48 241.013 206.41 242.113 206.4L256.553 206.24C257.893 206.231 259.253 206.211 260.523 206.559C261.343 206.789 261.973 207.148 262.463 207.606L262.453 207.596Z" fill="#FF816C"/>
<path d="M174.663 217.225C172.503 219.158 172.843 222.697 172.703 225.079C172.433 229.624 172.743 234.199 173.623 238.694C173.763 239.392 173.933 240.14 174.523 240.678C175.073 241.186 175.913 241.435 176.723 241.635C183.423 243.339 190.773 243.449 197.553 241.924C198.733 241.655 200.003 241.286 200.623 240.439C201.083 239.811 201.083 239.053 201.073 238.335L200.833 218.78C200.833 218.082 200.793 217.324 200.243 216.776C199.503 216.029 198.123 215.959 196.923 215.939L181.133 215.77C179.673 215.75 178.183 215.74 176.793 216.108C175.903 216.348 175.203 216.726 174.673 217.215L174.663 217.225Z" fill="#FF9578"/>
<path d="M257.923 217.225C260.083 219.158 259.743 222.697 259.883 225.079C260.153 229.624 259.843 234.199 258.963 238.694C258.823 239.392 258.653 240.14 258.063 240.678C257.513 241.186 256.673 241.435 255.863 241.635C249.163 243.339 241.813 243.449 235.033 241.924C233.853 241.655 232.583 241.286 231.963 240.439C231.503 239.811 231.503 239.053 231.513 238.335L231.753 218.78C231.753 218.082 231.793 217.324 232.343 216.776C233.083 216.029 234.463 215.959 235.663 215.939L251.453 215.77C252.913 215.75 254.403 215.74 255.793 216.108C256.683 216.348 257.383 216.726 257.913 217.215L257.923 217.225Z" fill="#FF9578"/>
<path d="M196.413 110.375C201.423 109.08 206.583 108.362 211.793 108.302C238.583 107.983 264.753 125.127 274.373 149.467C281.963 168.664 278.823 191.3 267.163 208.324C254.373 226.993 231.443 228.458 210.043 228.697C194.703 228.867 178.873 225.288 166.803 216.069C147.393 201.247 141.323 173.239 149.963 150.733C157.523 131.048 175.643 115.748 196.413 110.375Z" fill="#FCC9BB"/>
<path d="M203.423 176.399C203.553 176.828 201.743 180.147 202.523 180.526C206.603 182.509 210.553 184.034 218.913 181.901C224.023 180.595 226.873 176.569 227.923 173.2C229.273 168.884 227.873 162.036 220.863 157.352C215.103 162.744 212.693 171.655 206.933 177.047C205.803 178.103 203.063 175.193 203.413 176.389L203.423 176.399Z" fill="#FF816C"/>
<path d="M203.962 156.195C203.452 156.375 202.962 156.584 202.472 156.823C194.692 160.611 192.742 171.754 198.862 177.904C202.382 181.432 207.752 182.818 212.682 182.04C218.222 181.163 223.412 177.466 225.382 172.223C227.352 166.98 225.582 160.392 220.862 157.361C218.312 155.727 215.192 155.189 212.162 155.089C209.392 154.999 206.552 155.258 203.962 156.195Z" fill="#FF9578"/>
<path d="M209.123 165.424C209.013 164.916 208.863 164.418 208.643 163.929C208.363 163.291 207.963 162.683 207.373 162.325C206.783 161.966 205.963 161.896 205.413 162.315C204.893 162.703 204.713 163.401 204.593 164.049C204.263 165.953 204.333 167.787 204.463 169.7C204.563 171.275 204.503 172.86 205.313 174.285C205.503 174.624 205.763 174.963 206.123 175.113C206.553 175.292 207.063 175.182 207.453 174.923C207.843 174.664 208.113 174.265 208.323 173.847C208.943 172.651 209.123 171.285 209.243 169.95C209.383 168.445 209.443 166.89 209.133 165.424H209.123Z" fill="#FCC9BB"/>
<path d="M217.483 165.424C217.373 164.916 217.223 164.418 217.003 163.929C216.723 163.291 216.323 162.683 215.733 162.325C215.143 161.966 214.323 161.896 213.773 162.315C213.253 162.703 213.073 163.401 212.953 164.049C212.623 165.953 212.693 167.787 212.823 169.7C212.923 171.275 212.863 172.86 213.673 174.285C213.863 174.624 214.123 174.963 214.483 175.113C214.913 175.292 215.423 175.182 215.813 174.923C216.203 174.664 216.473 174.265 216.683 173.847C217.303 172.651 217.483 171.285 217.603 169.95C217.743 168.445 217.803 166.89 217.493 165.424H217.483Z" fill="#FCC9BB"/>
<path d="M163.113 133.43C163.113 133.43 156.653 112.1 163.113 105.292C169.573 98.4846 188.943 115.2 188.943 115.2C188.943 115.2 172.233 122.835 163.113 133.44V133.43Z" fill="#FCC9BB"/>
<path d="M237.812 115.568C237.812 115.568 247.962 105.651 255.252 104.774C256.832 104.584 258.442 105.102 259.562 106.239C262.003 108.711 265.493 115.309 262.882 132.224C262.882 132.224 254.142 121.25 237.812 115.568Z" fill="#FCC9BB"/>
<path d="M255.623 108.931C254.793 108.901 253.913 109.22 253.143 109.579C251.073 110.555 249.203 111.861 247.353 113.167C245.653 114.363 243.943 115.559 242.493 117.004C241.473 118.021 240.533 119.406 240.973 120.732C241.353 121.858 242.583 122.516 243.713 123.064L255.293 128.676C256.723 129.364 258.553 130.271 259.053 128.257C260.013 124.34 260.133 120.263 259.603 116.277C259.363 114.453 258.983 112.619 258.173 110.934C257.833 110.226 257.373 109.509 256.633 109.16C256.313 109.01 255.973 108.941 255.623 108.931Z" fill="#FF816C"/>
<path d="M167.653 108.631C168.193 108.431 168.813 108.312 169.533 108.292C170.963 108.252 172.393 108.531 173.683 109.099C175.223 109.777 176.523 110.833 177.813 111.88L183.303 116.365C183.873 116.834 184.493 117.392 184.503 118.12C184.503 118.917 183.793 119.535 183.133 120.043L170.893 129.413C170.273 129.891 169.483 130.399 168.743 130.14C168.153 129.941 167.863 129.333 167.643 128.775C166.053 124.778 161.393 110.983 167.663 108.641L167.653 108.631Z" fill="#FF816C"/>
<path d="M218.763 195.177C215.923 195.177 213.753 194.041 213.713 194.021C213.223 193.762 213.043 193.154 213.313 192.665C213.573 192.187 214.183 191.998 214.663 192.267C214.923 192.406 220.703 195.386 225.083 189.994C225.433 189.566 226.063 189.496 226.493 189.845C226.923 190.193 226.993 190.821 226.643 191.25C224.123 194.35 221.193 195.187 218.763 195.187V195.177Z" fill="#FF816C"/>
<path d="M187.613 160.382C190.501 160.382 192.843 158.048 192.843 155.169C192.843 152.29 190.501 149.956 187.613 149.956C184.724 149.956 182.383 152.29 182.383 155.169C182.383 158.048 184.724 160.382 187.613 160.382Z" fill="#2B110C"/>
<path d="M185.953 154.092C186.378 154.092 186.723 153.748 186.723 153.324C186.723 152.9 186.378 152.557 185.953 152.557C185.527 152.557 185.183 152.9 185.183 153.324C185.183 153.748 185.527 154.092 185.953 154.092Z" fill="white"/>
<path d="M235.632 160.382C238.521 160.382 240.862 158.048 240.862 155.169C240.862 152.29 238.521 149.956 235.632 149.956C232.744 149.956 230.402 152.29 230.402 155.169C230.402 158.048 232.744 160.382 235.632 160.382Z" fill="#2B110C"/>
<path d="M233.973 154.092C234.398 154.092 234.743 153.748 234.743 153.324C234.743 152.9 234.398 152.557 233.973 152.557C233.547 152.557 233.203 152.9 233.203 153.324C233.203 153.748 233.547 154.092 233.973 154.092Z" fill="white"/>
<path d="M177.742 60.8181C177.682 60.0905 177.612 59.3728 177.522 58.6552C177.252 56.4325 176.652 49.555 180.222 52.6748C184.452 56.3627 188.152 65.8615 198.142 59.6619C208.132 53.4622 213.722 47.1529 219.612 53.9307C223.562 58.4758 229.292 67.0476 236.202 67.6158C242.872 68.1739 246.962 62.2334 248.882 57.8279C248.882 57.8279 251.192 53.7313 251.312 59.7017C251.432 65.6722 249.522 87.361 245.932 103.677C242.342 119.994 239.772 126.044 239.772 126.044C239.772 126.044 219.942 93.0922 181.742 121.868C181.742 121.868 179.102 76.985 177.732 60.8181H177.742Z" fill="#FC644F"/>
<path d="M187.073 125.745C186.653 125.844 185.753 125.775 185.333 125.685C184.193 125.456 183.543 124.858 182.723 123.881C179.013 119.445 175.613 114.641 172.563 109.518C170.273 105.68 168.133 101.454 167.803 96.7498C167.743 95.9225 167.883 94.856 168.543 94.6367C169.143 94.4374 169.683 95.0852 170.133 95.6035C172.053 97.8063 174.983 98.4342 177.583 97.7565C180.183 97.0787 182.483 95.2347 184.423 93.0519C191.093 85.5665 193.843 74.4928 197.813 64.6252C198.343 63.3195 198.963 61.944 200.053 61.316C201.583 60.429 203.403 61.3659 204.793 62.5321C208.573 65.6917 211.143 70.486 214.303 74.5028C219.083 80.5729 225.193 84.8488 231.273 88.9055C236.413 92.3343 241.663 95.7132 247.373 97.3777C250.123 98.1751 253.083 98.5439 255.743 97.3976C256.233 97.1883 256.803 96.9392 257.243 97.278C257.793 97.7066 257.673 98.6934 257.493 99.4409C255.333 108.023 250.943 115.598 246.243 122.406C245.273 123.811 244.983 126.203 242.103 126.084C237.473 125.894 230.593 124.678 226.973 123.871C213.583 120.881 201.323 119.166 189.103 124.977C188.503 125.266 187.703 125.585 187.073 125.735V125.745Z" fill="#FF9578"/>
</g>
<defs>
<clipPath id="clip0_152_44552">
<rect width="153.96" height="192" fill="white" transform="translate(146 51)"/>
</clipPath>
</defs>
</svg>
