<svg width="36" height="40" viewBox="0 0 36 40" fill="none" xmlns="http://www.w3.org/2000/svg">
<g clip-path="url(#clip0_588_32877)">
<path d="M18.5009 39.9862C18.5009 39.9862 20.2946 39.7841 23.9218 37.9687C23.9218 37.9687 31.8511 34.338 32.2553 32.8618C32.2553 32.8618 33.006 28.9279 33.4355 21.5869C33.4355 21.5869 18.8221 25.8421 18.1797 27.8054L18.5009 39.9862Z" fill="#F7CA72"/>
<path d="M25.2678 25.8237C25.2678 25.8237 29.3281 25.0297 30.9305 22.9725L31.923 18.1471L30.2484 14.4947L8.77048 7.82861C8.77048 7.82861 4.89788 11.0119 5.96257 11.777L16.8802 16.0719C16.8802 16.0719 25.1848 21.8753 25.2678 25.8273V25.8237Z" fill="#F9C2AF"/>
<path d="M30.5809 17.1916C30.5809 17.1916 29.8483 15.997 28.0762 15.535C28.0762 15.535 29.8483 13.4165 29.6173 11.9512C29.6173 11.9512 33.8183 13.4526 35.0129 14.4956L30.5809 17.1916Z" fill="#F9DAA2"/>
<path d="M30.5801 17.1908C30.5801 17.1908 31.1972 17.6528 30.9266 22.9691L34.6259 20.9263C34.6259 20.9263 35.2431 20.4246 35.2034 19.8472L35.5895 15.5306C35.5895 15.5306 35.6292 14.6067 35.0121 14.4912C35.0121 14.4912 33.3158 15.1445 30.5801 17.1872V17.1908Z" fill="#FFD180"/>
<path d="M11.5032 25.831C11.5032 25.831 11.5754 26.2244 11.1929 26.1161L5.84052 24.2538C5.84052 24.2538 5.21253 24.0192 4.96711 22.6802C4.96711 22.6802 2.85216 18.7391 4.7253 17.2954C4.7253 17.2954 9.88996 19.2949 11.5105 19.2732L11.5032 25.831Z" fill="#F4C1AB"/>
<path d="M19.0096 22.1243C19.0096 22.1243 18.4827 27.0905 19.0096 27.8051C19.0096 27.8051 20.4821 27.7546 22.8605 26.827L25.2678 25.8237C25.2678 25.8237 25.5638 21.1499 25.0729 20.1826L19.0096 22.1279V22.1243Z" fill="#FFD180"/>
<path d="M19.0096 22.1238C19.0096 22.1238 18.7353 26.2418 19.0096 27.8046C19.0096 27.8046 18.2734 28.0789 15.7037 27.3462L11.5063 25.8304C11.5063 25.8304 11.084 25.1879 11.084 23.7623L11.1562 21.651L11.315 20.146L19.0096 22.1274V22.1238Z" fill="#FFD592"/>
<path d="M16.8807 16.0718L11.7702 19.006C11.7702 19.006 11.1711 19.4174 11.3154 20.1465L16.8987 21.9294C16.8987 21.9294 18.8296 22.4816 20.6667 21.7453L25.077 20.1826C25.077 20.1826 24.7017 19.2911 22.1753 18.0965L16.8879 16.0718H16.8807Z" fill="#FFE6B3"/>
<path d="M4.63122 17.6558C4.63122 17.6558 4.3461 22.6147 5.50102 23.766L1.32526 21.698C1.32526 21.698 0.022366 20.9942 0.0765029 19.417C0.0765029 19.417 -0.100344 16.14 0.0837212 15.1294C0.0837212 15.1294 3.80473 16.4612 4.63122 17.6558Z" fill="#FFD592"/>
<path d="M15.0436 6.90098C15.0436 6.90098 14.4481 2.89845 11.0808 0.437027C11.0808 0.437027 7.63044 -1.64905 5.8764 3.2738C5.8764 3.2738 4.3353 9.07006 6.71011 10.6942C6.71011 10.6942 9.77065 13.1953 12.9503 12.6503C12.9503 12.6503 11.4345 8.36267 15.04 6.90098H15.0436Z" fill="#F7C1A9"/>
<path d="M15.0438 6.90137C15.0438 6.90137 17.6496 7.10348 18.4978 8.31615C18.4978 8.31615 16.5561 10.1965 16.769 11.438C16.769 11.438 16.6788 13.0946 17.4656 14.495C17.4656 14.495 15.8595 14.7729 14.8598 13.9861C13.8601 13.1993 13.4342 12.7734 12.9506 12.6543C12.9506 12.6543 11.3734 8.30532 15.0402 6.90498L15.0438 6.90137Z" fill="#FFD7C0"/>
<path d="M18.5016 8.31534C18.5016 8.31534 23.2404 5.19344 25.3553 5.2548C27.4703 5.31615 29.0475 6.46747 29.2893 7.9833C29.5311 9.49913 29.7657 9.37281 29.6177 11.9533C29.6177 11.9533 30.0761 14.1693 26.6222 16.9267C26.6222 16.9267 23.6807 17.9264 21.2879 16.9267C21.2879 16.9267 18.5305 15.6455 17.4694 14.4978C17.4694 14.4978 15.1957 10.8056 18.5016 8.31895V8.31534Z" fill="#F7C1A9"/>
<path d="M18.501 39.9862C18.501 39.9862 7.72418 37.1638 3.02149 32.9303C3.02149 32.9303 2.5523 31.3856 2.41515 29.7723C2.41515 29.7723 1.81243 24.7701 1.83048 21.9478L18.1834 27.809L18.5046 39.9898L18.501 39.9862Z" fill="#FFD180"/>
<path d="M5.96355 11.7769C5.96355 11.7769 8.9844 12.8379 10.4389 13.5381L7.11126 15.2236C7.11126 15.2236 4.76893 16.3244 4.63179 17.6597C4.63179 17.6597 -0.1467 16.097 0.084284 15.1333C0.084284 15.1333 -0.283847 14.1697 5.96355 11.7805V11.7769Z" fill="#FFE6B3"/>
<path d="M10.4376 13.5386C10.4376 13.5386 5.00582 15.5308 4.7207 17.2957C4.7207 17.2957 9.95394 19.6705 11.5059 19.2735L16.8762 16.0722L10.4376 13.5386Z" fill="#F9CDB7"/>
<path d="M13.9576 7.32635C13.9576 7.32635 9.64832 4.60145 9.74577 2.5226C9.74577 2.5226 9.9948 1.68167 10.8357 2.27357C10.8357 2.27357 11.3302 2.7211 11.4782 3.16502C11.6261 3.60894 13.2611 6.68392 13.954 7.32635H13.9576Z" fill="#F4B098"/>
<path d="M18.9082 8.51477C18.9082 8.51477 22.622 6.82931 24.0115 6.73186C24.0115 6.73186 25.7439 6.52614 25.632 6.97728C25.5201 7.42843 23.6037 7.59805 23.6037 7.59805C23.6037 7.59805 21.3119 7.82543 18.9082 8.51116V8.51477Z" fill="#F4B098"/>
</g>
<defs>
<clipPath id="clip0_588_32877">
<rect width="35.5896" height="39.9855" fill="white"/>
</clipPath>
</defs>
</svg>
