<svg width="36" height="36" viewBox="0 0 36 36" fill="none" xmlns="http://www.w3.org/2000/svg">
<g clip-path="url(#clip0_588_32897)">
<path d="M13.9278 10.466C13.9278 10.466 12.4246 12.5736 12.2716 13.6255C12.1186 14.6774 10.5159 16.1844 7.85746 15.7828C5.19905 15.3812 1.33576 17.1369 0.383324 21.2526C0.383324 21.2526 -1.72427 25.8656 3.94444 31.8365C9.61315 37.8074 15.7829 34.5446 15.7829 34.5446C15.7829 34.5446 19.4932 32.4867 19.696 29.1781C19.8987 25.8694 19.2943 24.2132 21.5014 23.1575C21.5014 23.1575 24.5652 22.7214 25.9002 20.5258C25.9002 20.5258 26.6767 18.7357 25.6592 18.1046C24.6417 17.4735 23.6052 17.9401 23.6052 17.9401C23.6052 17.9401 21.7079 18.774 19.5468 16.1959L17.8561 14.1954C17.8561 14.1954 17.1523 13.832 17.2824 12.1414C17.4124 10.4507 17.3359 9.7507 16.7354 9.41028C16.7354 9.41028 15.148 8.45784 13.9201 10.466H13.9278Z" fill="#FFBA8E"/>
<path d="M15.7219 15.875L18.7819 18.8432C18.7819 18.8432 19.2218 19.7957 20.9851 19.5853C22.7485 19.3749 22.5611 19.3749 22.5611 19.3749C22.5611 19.3749 23.349 19.1569 23.7201 19.6121C24.0911 20.0673 22.3048 20.9049 22.3048 20.9049C22.3048 20.9049 18.4568 21.5781 18.2235 23.0393C18.2235 23.0393 17.9136 25.0322 18.1278 26.8185C18.342 28.6047 17.9481 29.9244 16.9268 30.5058C16.9268 30.5058 15.4427 31.3856 14.2837 31.156C14.2837 31.156 13.1285 30.9227 13.0903 29.6031C13.0903 29.6031 12.8914 27.9354 12.4515 27.4228C12.0116 26.9103 9.29965 24.248 9.29965 24.248C9.29965 24.248 7.18822 22.3011 8.16361 20.9317C9.13899 19.5624 10.6231 19.3099 10.6231 19.3099C10.6231 19.3099 11.9925 19.3787 12.593 17.8487C13.1935 16.3187 14.1001 14.5554 15.7219 15.8788V15.875Z" fill="white"/>
<path d="M15.7207 15.8746L26.4423 5.99072C26.4423 5.99072 28.6302 7.18414 29.1428 8.91688C29.1428 8.91688 20.7009 18.2768 18.7807 18.8429L15.7207 15.8746Z" fill="#EAC7A7"/>
<path d="M28.9688 8.4648C28.9688 8.4648 28.9687 9.26041 29.6802 9.18391C30.3917 9.10741 34.8517 3.86328 34.8517 3.86328C34.8517 3.86328 35.3298 2.86112 35.1577 2.13818L28.9688 8.4648Z" fill="#F2A277"/>
<path d="M26.4435 5.99033C26.4435 5.99033 26.1299 3.63028 26.6998 2.52102C27.2697 1.41176 29.144 1.21286 29.144 1.21286L32.4412 0.191571C32.4412 0.191571 33.8641 -0.378361 34.7706 0.447848C35.6772 1.27406 35.0843 2.69315 34.5144 3.374C33.9444 4.05486 30.1806 8.95092 28.9642 8.46513L26.4397 5.99033H26.4435Z" fill="#FFBA8E"/>
<path d="M5.42041 25.0624C5.42041 25.0624 4.99583 25.6898 5.29801 26.057C5.60019 26.4242 8.90502 29.5224 8.90502 29.5224C8.90502 29.5224 9.43288 30.3142 10.1635 29.7673L10.7525 29.2203C10.7525 29.2203 11.1159 28.6312 10.5307 28.1072L7.28703 24.9247C7.28703 24.9247 6.61765 24.0718 6.02859 24.439L5.42041 25.0663V25.0624Z" fill="#95939E"/>
<path d="M15.1064 25.4685C15.1064 25.4685 14.3758 26.0576 14.5785 26.7844C14.7812 27.5111 15.1943 27.8171 15.837 27.8171C16.4796 27.8171 16.9883 27.2089 16.9883 26.5587C16.9883 25.9084 16.361 24.7953 15.1025 25.4647L15.1064 25.4685Z" fill="#95939E"/>
<path d="M14.6398 28.5002C14.6398 28.5002 14.1999 28.7335 14.3223 29.1007C14.4447 29.4679 14.5786 29.7127 14.9955 29.6515C15.4124 29.5903 15.5348 29.3073 15.5234 29.0242C15.5119 28.7412 15.1676 28.1636 14.6398 28.4964V28.5002Z" fill="#95939E"/>
</g>
<defs>
<clipPath id="clip0_588_32897">
<rect width="35.2401" height="35.4314" fill="white"/>
</clipPath>
</defs>
</svg>
