<svg width="100%" height="100%" viewBox="0 0 292 293" fill="none" xmlns="http://www.w3.org/2000/svg">
<g clip-path="url(#clip0_797_38887)">
<path d="M223.12 218.245C229.68 219.455 234.08 213.935 234.6 213.245C235.12 212.555 235.99 211.295 234.74 209.995C233.49 208.695 232.27 210.195 232.27 210.195L230.54 212.045C227.57 214.725 226.41 213.905 226.41 213.905C226.41 213.905 228.15 207.715 226.86 205.465C225.57 203.215 221.62 200.675 218.17 202.655C214.73 204.635 214.86 209.315 214.86 209.315C214.96 213.315 217.49 215.435 217.49 215.435C213.71 216.325 211.32 215.665 211.32 215.665C211.79 216.805 212.66 219.925 212.66 219.925C215.29 220.435 223.11 218.245 223.11 218.245H223.12ZM218.85 208.835C218.98 207.855 219.81 204.345 222.4 206.235C224.99 208.125 221.97 213.105 221.97 213.105C219.32 211.955 218.72 209.805 218.84 208.825L218.85 208.835Z" fill="#FCE8BB"/>
<path d="M117.939 244.925C115.969 246.755 116.269 250.125 116.139 252.385C115.889 256.705 116.169 261.045 116.979 265.325C117.109 265.995 117.259 266.695 117.799 267.205C118.309 267.685 119.069 267.925 119.809 268.115C125.939 269.735 132.659 269.835 138.859 268.395C139.939 268.145 141.099 267.785 141.669 266.985C142.089 266.395 142.089 265.675 142.079 264.985L141.859 246.415C141.859 245.755 141.819 245.035 141.319 244.515C140.639 243.805 139.379 243.735 138.279 243.725L123.839 243.565C122.499 243.555 121.139 243.535 119.869 243.885C119.049 244.115 118.419 244.475 117.929 244.935L117.939 244.925Z" fill="#FCD890"/>
<path d="M197.678 243.725C199.648 245.555 199.348 248.925 199.478 251.185C199.728 255.505 199.448 259.845 198.638 264.125C198.508 264.795 198.358 265.495 197.818 266.005C197.308 266.485 196.548 266.725 195.808 266.915C189.678 268.535 182.958 268.635 176.758 267.195C175.678 266.945 174.518 266.585 173.948 265.785C173.528 265.195 173.528 264.475 173.538 263.785L173.758 245.215C173.758 244.555 173.798 243.835 174.298 243.315C174.978 242.605 176.238 242.535 177.338 242.525L191.778 242.365C193.118 242.355 194.478 242.335 195.748 242.685C196.568 242.915 197.198 243.275 197.688 243.735L197.678 243.725Z" fill="#FCD890"/>
<path d="M109.89 253.385C107.73 255.325 108.07 258.875 107.93 261.265C107.66 265.825 107.97 270.415 108.85 274.925C108.99 275.625 109.16 276.375 109.75 276.915C110.3 277.425 111.14 277.675 111.95 277.875C118.65 279.585 126 279.695 132.78 278.165C133.96 277.895 135.23 277.525 135.85 276.675C136.31 276.045 136.31 275.285 136.3 274.565L136.06 254.945C136.06 254.245 136.02 253.485 135.47 252.935C134.73 252.185 133.35 252.115 132.15 252.095L116.36 251.925C114.9 251.905 113.41 251.895 112.02 252.265C111.13 252.505 110.43 252.885 109.9 253.375L109.89 253.385Z" fill="#F9E2AF"/>
<path d="M193.139 253.385C195.299 255.325 194.959 258.875 195.099 261.265C195.369 265.825 195.059 270.415 194.179 274.925C194.039 275.625 193.869 276.375 193.279 276.915C192.729 277.425 191.889 277.675 191.079 277.875C184.379 279.585 177.029 279.695 170.249 278.165C169.069 277.895 167.799 277.525 167.179 276.675C166.719 276.045 166.719 275.285 166.729 274.565L166.969 254.945C166.969 254.245 167.009 253.485 167.559 252.935C168.299 252.185 169.679 252.115 170.879 252.095L186.669 251.925C188.129 251.905 189.619 251.895 191.009 252.265C191.899 252.505 192.599 252.885 193.129 253.375L193.139 253.385Z" fill="#F9E2AF"/>
<path d="M131.639 146.185C136.649 144.885 141.809 144.165 147.019 144.105C173.809 143.785 199.979 160.985 209.599 185.405C217.189 204.665 214.049 227.375 202.389 244.455C189.599 263.185 166.669 264.655 145.269 264.895C129.929 265.065 114.099 261.475 102.029 252.225C82.6192 237.355 76.5492 209.255 85.1892 186.675C92.7492 166.925 110.869 151.575 131.639 146.185V146.185Z" fill="#FFEDC1"/>
<path d="M139.659 216.655C139.789 217.085 140.179 217.505 140.969 217.885C145.049 219.875 149.929 220.315 154.189 218.765C158.449 217.215 161.989 213.605 163.149 209.225C164.309 204.845 162.909 199.795 159.449 196.855L142.159 213.085C141.029 214.145 139.309 215.455 139.659 216.655V216.655Z" fill="#EFC25E"/>
<path d="M139.19 192.155C138.68 192.335 138.19 192.545 137.7 192.785C129.92 196.585 127.97 207.765 134.09 213.935C137.61 217.475 142.98 218.865 147.91 218.085C153.45 217.205 158.64 213.495 160.61 208.235C162.58 202.975 160.81 196.365 156.09 193.325C153.54 191.685 150.42 191.145 147.39 191.045C144.62 190.955 141.78 191.215 139.19 192.155V192.155Z" fill="#FFD56F"/>
<path d="M144.317 201.425C144.317 201.425 143.877 197.785 141.317 198.035C138.757 198.285 139.657 205.305 139.657 205.305C139.657 205.305 139.187 210.795 141.907 211.305C141.907 211.305 143.737 211.045 144.307 207.345C144.887 203.645 144.307 201.415 144.307 201.415L144.317 201.425Z" fill="#FFEDC1"/>
<path d="M153.2 201.425C153.2 201.425 152.76 197.785 150.2 198.035C147.64 198.285 148.54 205.305 148.54 205.305C148.54 205.305 148.07 210.795 150.79 211.305C150.79 211.305 152.62 211.045 153.19 207.345C153.76 203.645 153.19 201.415 153.19 201.415L153.2 201.425Z" fill="#FFEDC1"/>
<path d="M98.3399 169.315C98.3399 169.315 91.8799 147.915 98.3399 141.085C104.8 134.245 124.17 151.025 124.17 151.025C124.17 151.025 107.46 158.685 98.3399 169.325V169.315Z" fill="#FFEDC1"/>
<path d="M173.039 151.395C173.039 151.395 185.569 139.115 192.789 140.635C192.789 140.635 201.909 143.425 198.109 168.105C198.109 168.105 189.369 157.095 173.039 151.395V151.395Z" fill="#FFEDC1"/>
<path d="M192.068 142.565C192.068 142.565 192.018 142.565 191.998 142.565C190.948 142.525 190.018 143.175 189.178 143.805C186.998 145.435 184.828 147.085 182.678 148.765C180.618 150.365 175.338 154.025 177.918 157.085C178.548 157.825 179.428 158.295 180.298 158.745L192.638 165.145C193.388 165.535 194.398 165.885 194.988 165.285C195.238 165.025 195.328 164.665 195.408 164.315C196.678 158.545 196.648 152.485 195.338 146.725C194.918 144.885 193.938 142.705 192.068 142.585V142.565Z" fill="#FFD56F"/>
<path d="M102.49 142.295C103.04 142.125 103.67 142.055 104.39 142.095C105.82 142.175 107.23 142.595 108.48 143.295C109.97 144.145 111.2 145.375 112.41 146.595L117.59 151.805C118.13 152.355 118.71 152.995 118.67 153.765C118.63 154.605 117.86 155.205 117.17 155.685L104.32 164.565C103.67 165.015 102.85 165.485 102.12 165.155C101.55 164.895 101.3 164.225 101.11 163.625C99.7902 159.255 96.0602 144.265 102.47 142.305L102.49 142.295Z" fill="#FFD56F"/>
<path d="M149.418 229.225C149.418 229.225 156.108 232.855 161.098 226.695" stroke="#FFAA42" stroke-width="1.2" stroke-miterlimit="10" stroke-linecap="round"/>
<path d="M122.839 196.355C125.728 196.355 128.069 194.013 128.069 191.125C128.069 188.237 125.728 185.895 122.839 185.895C119.951 185.895 117.609 188.237 117.609 191.125C117.609 194.013 119.951 196.355 122.839 196.355Z" fill="#28120D"/>
<path d="M121.18 190.045C121.605 190.045 121.95 189.7 121.95 189.275C121.95 188.85 121.605 188.505 121.18 188.505C120.755 188.505 120.41 188.85 120.41 189.275C120.41 189.7 120.755 190.045 121.18 190.045Z" fill="white"/>
<path d="M170.859 196.355C173.747 196.355 176.089 194.013 176.089 191.125C176.089 188.237 173.747 185.895 170.859 185.895C167.97 185.895 165.629 188.237 165.629 191.125C165.629 194.013 167.97 196.355 170.859 196.355Z" fill="#28120D"/>
<path d="M169.2 190.045C169.625 190.045 169.97 189.7 169.97 189.275C169.97 188.85 169.625 188.505 169.2 188.505C168.774 188.505 168.43 188.85 168.43 189.275C168.43 189.7 168.774 190.045 169.2 190.045Z" fill="white"/>
<path d="M79.7383 53.7949L82.2483 67.3849H89.7583V53.7949H79.7383Z" fill="#FFD56F"/>
<path d="M198.098 112.645L199.348 119.445H203.098V112.645H198.098Z" fill="#A5EE79"/>
<path d="M216.547 51.0146V57.2747H223.347L222.267 51.0146H216.547Z" fill="#FFBA8E"/>
<path d="M123.578 67.3848V75.6548H132.548L131.138 67.3848H123.578Z" fill="#FFD7C0"/>
<path d="M95.67 103.545L84.75 108.895L91.05 121.745L101.19 114.785L95.67 103.545Z" fill="#FFBA8E"/>
<path d="M183.67 82.7847L172.75 88.1447L179.05 100.995L189.19 94.0347L183.67 82.7847Z" fill="#FF6F42"/>
<path d="M23.2383 163.445V170.605L41.1283 174.535V168.995L23.2383 163.445Z" fill="#FF6F42"/>
<path d="M43.0967 53.4649L38.8167 51.7349L32.1367 61.4849L35.4467 62.8249L43.0967 53.4649Z" fill="#FF6F42"/>
<path d="M191.299 13.7549L184.859 26.2749L191.299 30.9249L198.099 19.8349L191.299 13.7549Z" fill="#FFD56F"/>
<path d="M268.757 155.225L256.957 158.795L268.757 165.595V155.225Z" fill="#FFAA42"/>
<path d="M47.0281 100.995L46.9381 88.6548L37.0781 98.0548L47.0281 100.995Z" fill="#A5EE79"/>
<path d="M121.267 28.5646C123.835 28.5646 125.917 26.4828 125.917 23.9146C125.917 21.3465 123.835 19.2646 121.267 19.2646C118.699 19.2646 116.617 21.3465 116.617 23.9146C116.617 26.4828 118.699 28.5646 121.267 28.5646Z" fill="#FF6F42"/>
<path d="M238.419 130.465C240.098 130.465 241.459 129.104 241.459 127.425C241.459 125.746 240.098 124.385 238.419 124.385C236.74 124.385 235.379 125.746 235.379 127.425C235.379 129.104 236.74 130.465 238.419 130.465Z" fill="#FFBA8E"/>
<path d="M248.548 91.1949C250.867 91.1949 252.748 89.3145 252.748 86.9949C252.748 84.6753 250.867 82.7949 248.548 82.7949C246.228 82.7949 244.348 84.6753 244.348 86.9949C244.348 89.3145 246.228 91.1949 248.548 91.1949Z" fill="#FFD56F"/>
</g>
<defs>
<clipPath id="clip0_797_38887">
<rect width="245.52" height="265.49" fill="white" transform="translate(23.2383 13.7549)"/>
</clipPath>
</defs>
</svg>
