<svg width="96" height="144" viewBox="0 0 96 144" fill="none" xmlns="http://www.w3.org/2000/svg">
<path d="M45.706 96.2585C67.5682 96.2585 85.2909 93.4969 85.2909 90.0902C85.2909 86.6835 67.5682 83.9219 45.706 83.9219C23.8439 83.9219 6.12109 86.6835 6.12109 90.0902C6.12109 93.4969 23.8439 96.2585 45.706 96.2585Z" fill="#FCDB92"/>
<path d="M29.334 86.4164C29.334 86.4164 12.248 87.1031 7.80774 89.1744C7.80774 89.1744 6.14835 85.8671 16.0474 85.2835C16.0474 85.2835 29.1394 82.9603 29.334 86.4164Z" fill="#F4C05A"/>
<path d="M0.858272 88.805C0.858272 88.805 0.0915208 85.3603 23.918 84.4791C23.918 84.4791 7.99935 86.4246 7.87347 88.2671C7.87347 88.2671 6.03098 90.5902 14.6712 91.2654C14.6712 91.2654 35.7855 92.8447 55.2632 91.9979C55.2632 91.9979 82.9921 91.1853 81.5616 88.805C81.5616 88.805 81.7104 87.0083 73.7453 85.9897L60.1155 85.6121L63.8119 83.3347C63.8119 83.3347 75.0271 83.7581 83.8733 86.3102C83.8733 86.3102 88.3022 87.4889 88.634 88.805V92.2382L76.1944 96.255L13.79 96.8501L0.858272 88.805Z" fill="#F9CF70"/>
<path d="M95.1324 104.52C95.1324 104.52 94.4458 101.27 88.6322 101.453V103.593L24.9805 108.949L29.3292 114.03L91.1613 112.748L95.1324 104.531V104.52Z" fill="#F7C45E"/>
<path d="M4.26762 119.928C4.26762 119.928 3.90141 117.25 7.64361 116.277L13.1024 123.624L8.68502 122.411L4.27907 119.928H4.26762Z" fill="#F7C45E"/>
<path d="M90.8668 122.53V134.73C90.8668 134.73 89.6767 138.163 86.2434 139.239C82.8102 140.314 59.6361 145.144 42.6874 143.748C42.6874 143.748 12.109 143.53 4.28125 135.268V119.921C4.28125 119.921 14.4893 124.796 31.8499 125.437L90.8668 122.53Z" fill="#FFC064"/>
<path d="M0.859375 88.8093V104.099C0.859375 104.099 6.07786 110.21 33.0858 110.21H55.7679C55.7679 110.21 84.8128 108.814 88.6351 103.584V88.8093C88.6351 88.8093 89.6537 93.1352 57.679 93.6502L31.4378 94.1651C31.4378 94.1651 8.12634 94.5428 0.859375 88.8093Z" fill="#F8D680"/>
<path d="M7.94229 107.751C7.75919 107.866 7.96518 108.003 7.90796 108.77C7.85074 109.536 7.95373 110.303 7.90796 111.047C7.85074 112.581 7.64474 114.103 7.6333 115.636C7.61041 118.371 8.38861 121.427 10.7346 122.834C11.673 123.395 12.7602 123.635 13.8245 123.853C28.8277 126.931 44.1741 128.328 59.4748 127.996C68.424 127.801 77.4419 127.011 85.9906 124.368C88.6571 123.544 91.2892 122.525 93.6124 120.992C94.1502 120.637 94.6995 120.225 94.9513 119.63C95.1459 119.172 95.1459 118.669 95.1459 118.177L95.123 104.524C93.99 106.687 91.6783 107.969 89.3781 108.793C85.1667 110.303 80.6348 110.715 76.1716 111.013C64.9221 111.768 53.6269 111.905 42.366 111.367C36.6783 111.093 31.002 110.646 25.3487 110.017C22.522 109.697 19.6953 109.342 16.8801 108.93C15.5297 108.735 14.1793 108.529 12.8289 108.312C11.8333 108.152 9.36135 107.236 8.44583 107.557C8.17117 107.66 8.01095 107.705 7.93085 107.751H7.94229Z" fill="#FCD37A"/>
<path d="M45.1457 0.443334C45.4891 -0.10598 46.3016 0.100012 47.7435 0.180121C58.2949 0.77521 68.7891 5.14683 75.9531 13.0432C85.5317 23.6061 88.1181 39.0784 86.0238 53.166C84.7764 61.5316 81.8925 69.8972 76.2277 76.1685C70.5973 82.3941 62.3461 86.1706 53.9576 86.3537L49.1397 41.207L46.7365 18.6394L45.5348 7.35553C45.3403 5.55882 45.0313 3.73922 44.9626 1.9425C44.9283 1.17575 44.9855 0.706546 45.1572 0.431889L45.1457 0.443334Z" fill="#FFC064"/>
<path d="M29.3309 86.4169C29.3309 86.4169 32.9129 88.9574 40.8779 88.8087C48.843 88.6599 59.3829 86.1651 67.039 77.5935C74.695 69.0219 79.3528 58.2302 79.4558 45.8249C79.5588 33.4195 74.695 18.9314 68.1376 12.0764C61.5802 5.22142 50.468 -2.61774 33.3935 0.849799C33.3935 0.849799 13.8357 4.71789 6.20248 25.6605C6.20248 25.6605 -2.42632 47.4728 7.77032 66.1266C7.77032 66.1266 16.422 81.6104 29.3309 86.4169Z" fill="#FFD56F"/>
<path d="M32.078 7.54666C32.078 7.54666 7.77084 14.5618 7.77084 40.3453C7.77084 40.3453 3.85698 71.1297 33.6687 82.322C33.6687 82.322 56.2478 87.2544 68.9392 66.8039C68.9392 66.8039 78.2432 48.8482 71.9375 29.2445C71.9375 29.2445 60.4706 -0.384062 32.078 7.5581V7.54666Z" fill="#FFEDC1"/>
<path d="M36.9429 19.4572C35.9359 20.4757 36.6454 24.0348 36.8857 25.2822C32.3768 26.3465 29.2068 31.0614 29.3441 35.6963C29.4814 40.3311 32.5484 44.6112 36.6225 46.8199C38.5108 47.8384 40.6508 48.5022 42.2186 49.967C43.7865 51.4318 44.5303 54.1441 43.0312 55.7005C42.0241 56.7419 40.3876 56.8792 38.9457 56.7075C36.2334 56.3985 33.6242 55.2656 31.5414 53.5146L28.8062 56.5931C28.5659 56.8677 28.3141 57.1653 28.2913 57.5315C28.2684 57.8519 28.4286 58.1495 28.6002 58.4127C30.3397 61.1822 33.3152 63.1391 36.5538 63.6197L36.6225 69.0442C38.3162 69.1472 40.0214 69.1472 41.7151 69.0442V64.6726C41.7151 64.4208 41.7151 64.1576 41.8639 63.9516C42.0355 63.6884 42.3789 63.5854 42.6764 63.4938C46.5903 62.3266 49.7145 58.8132 50.4011 54.7849C51.0878 50.7566 49.3139 46.4079 46.0066 44.0047C43.4546 42.1622 40.2388 41.4755 37.5609 39.839C36.5081 39.1982 35.4896 38.3399 35.1233 37.1611C34.6084 35.5017 35.6154 33.6364 37.126 32.8009C38.6367 31.9655 40.5249 32.0342 42.1729 32.5721C43.8208 33.1099 45.2742 34.0941 46.7162 35.0669L49.5199 30.8555C49.703 30.5808 49.8862 30.2833 49.8633 29.9628C49.8404 29.6653 49.6344 29.4135 49.4398 29.1846C47.5172 27.056 44.6333 25.843 41.7609 25.946L41.6693 19.2626C41.6693 19.0567 37.3778 18.9994 36.9201 19.4343L36.9429 19.4572Z" fill="#FFD56F"/>
</svg>
