<svg width="198" height="186" viewBox="0 0 198 186" fill="none" xmlns="http://www.w3.org/2000/svg">
<path d="M77.1393 152.525C77.1393 152.525 72.5044 147.436 66.4194 155.976C66.4194 155.976 61.9714 160.611 59.2759 162.497C56.5715 164.383 51.9099 167.737 58.0215 174.534C63.2524 180.352 70.7074 174.534 74.0345 171.206C77.3617 167.879 81.4183 163.707 81.4183 163.707C81.4183 163.707 83.9448 157.302 77.1393 152.525V152.525Z" fill="#FCD890"/>
<path d="M162.187 81.1975H159.171C153.878 68.5383 139.662 60.345 139.662 60.345C138.87 57.7474 139.217 53.0858 139.217 53.0858C139.449 47.0631 136.815 45.6308 136.815 45.6308C133.373 43.8961 125.597 49.2783 125.597 49.2783C126.007 42.0012 119.05 46.4938 119.05 46.4938C110.145 51.609 105.394 62.3911 105.394 62.3911L76.3486 62.231C53.7614 63.3341 42.3121 88.7058 42.3121 88.7058C37.4904 95.5558 34.2344 127.288 50.2296 147.598C66.2248 167.899 101.845 167.463 101.845 167.463C139.102 171.644 152.9 151.246 152.9 151.246C159.883 140.73 160.292 128.801 165.461 117.431C166.973 114.104 170.283 109.896 171.831 106.578C155.755 94.5328 162.178 81.2064 162.178 81.2064L162.187 81.1975Z" fill="#FFEDC1"/>
<path d="M126.298 165.918C126.298 165.918 127.267 167.92 129.705 167.475C132.142 167.03 133.815 166.727 133.815 166.727C133.815 166.727 135.212 166.594 135.238 168.409C135.318 174.156 135.692 176.807 140.994 176.807C148.965 176.807 149.009 174.965 148.965 168.409C148.947 165.162 149.072 161.239 146.937 158.241C145.709 156.524 142.836 155.501 140.727 155.305C135.212 154.798 122.401 154.736 126.289 165.909L126.298 165.918Z" fill="#FCD890"/>
<path d="M36.1554 69.7658C30.9423 60.4427 20.8007 61.4035 19.5642 61.5547C18.3276 61.706 16.1392 62.0885 15.9968 65.0776C15.8634 68.0667 18.6479 67.8443 18.6479 67.8443H22.3042C28.06 68.3958 28.3357 70.7266 28.3357 70.7266C28.3357 70.7266 20.1068 75.664 19.0126 79.774C17.9184 83.884 19.1461 91.5613 24.635 93.4829C30.115 95.4044 34.9189 89.9155 34.9189 89.9155C39.0289 85.254 38.762 79.774 38.762 79.774C43.4236 83.3413 45.096 86.9709 45.096 86.9709C45.8433 85.1116 48.2541 80.5034 48.2541 80.5034C46.1902 76.7404 36.1554 69.7569 36.1554 69.7569V69.7658ZM30.4797 85.6365C29.3232 86.5973 24.8129 89.5775 24.2346 84.2932C23.6564 79.0089 31.8853 76.9895 31.8853 76.9895C33.2909 81.4998 31.6273 84.6757 30.4797 85.6365Z" fill="#FFEDC1"/>
<path d="M162.187 81.1975C162.187 81.1975 168.877 83.0479 172.845 93.8834C172.845 93.8834 174.464 99.5858 171.831 106.569C171.831 106.569 156.787 97.0593 162.178 81.1975H162.187Z" fill="#FFD56F"/>
<path d="M125.527 49.2539C125.474 49.4941 125.411 49.7254 125.349 49.9478C124.121 54.0756 123.899 58.4969 124.709 62.7315C124.984 64.1727 125.376 65.6672 124.984 67.0728C124.468 68.9232 122.76 70.1509 121.159 71.2184L118.526 72.9798C117.814 73.4602 116.907 73.9495 116.159 73.5314C115.652 73.2467 115.421 72.6507 115.261 72.0902C112.797 63.8702 114.7 51.9939 122.689 47.2078C123.392 46.7897 124.308 46.4427 125.002 46.8875C125.741 47.359 125.723 48.3376 125.527 49.245V49.2539Z" fill="#FFD56F"/>
<path d="M136.497 47.408C135.794 47.408 135.1 47.7727 134.593 48.2798C133.988 48.8847 133.605 49.6676 133.267 50.4504C132.235 52.8613 131.648 55.3789 131.23 57.9499C131.141 58.4836 131.186 59.0975 131.577 59.48C131.924 59.818 132.44 59.8803 132.92 59.9248C135.18 60.1294 137.44 60.2717 139.699 60.3429C139.299 58.5103 139.13 56.6332 139.192 54.765C139.245 53.1548 139.459 51.518 139.076 49.9522C138.792 48.8224 138.062 47.6659 136.915 47.4524C136.781 47.4258 136.639 47.4169 136.505 47.4169L136.497 47.408Z" fill="#FFD56F"/>
<path d="M78.8666 66.1728C78.3418 66.1817 77.8169 66.1906 77.292 66.2084C76.5003 66.2262 75.6818 66.2529 74.9701 66.5998C74.0005 67.0713 72.6838 68.8149 74.0805 69.5978C74.5342 69.8558 75.0858 69.8647 75.6018 69.8736C76.9006 69.8825 78.1994 69.8825 79.4983 69.8825H95.36C96.0272 69.8825 96.7923 69.838 97.1837 69.3042C97.673 68.6459 97.2816 67.7296 96.8813 67.009C96.7211 66.7155 96.5343 66.413 96.2407 66.2618C96.0272 66.155 95.7781 66.155 95.5468 66.1461C89.9868 66.0571 84.4178 66.066 78.8577 66.1728H78.8666Z" fill="#FFAA42"/>
<path d="M163.806 88.2352C163.806 88.2352 161.68 86.3582 162.961 90.9664C164.242 95.5745 166.057 98.9106 167.997 99.6401C167.997 99.6401 169.197 100.352 168.317 96.8823C167.792 94.8184 166.92 92.8612 165.817 91.0375C165.176 89.9789 164.438 88.8758 163.815 88.2441L163.806 88.2352Z" fill="#FFEDC1"/>
<path d="M167.381 87.1745C167.381 87.1745 165.433 85.4487 166.598 89.6743C167.764 93.9 169.436 96.9603 171.215 97.6275C171.215 97.6275 172.318 98.2769 171.509 95.0921C171.028 93.1972 170.228 91.4002 169.214 89.7277C168.626 88.758 167.95 87.7439 167.381 87.1656V87.1745Z" fill="#FFEDC1"/>
<path d="M125.614 157.235C125.614 157.235 120.979 152.147 114.894 160.687C114.894 160.687 110.446 165.322 107.75 167.208C105.055 169.094 100.384 172.447 106.496 179.244C111.727 185.062 119.182 179.244 122.509 175.917C125.836 172.59 129.893 168.418 129.893 168.418C129.893 168.418 132.419 162.012 125.614 157.235Z" fill="#F9E2AF"/>
<path d="M74.6402 156.796C74.6402 156.796 68.1194 160.559 70.4412 164.909C72.7631 169.26 77.9763 168.583 78.9815 168.414C79.9868 168.245 82.4599 167.809 82.7446 169.98C83.0292 172.151 81.6948 178.165 88.8473 178.111C98.1171 178.04 96.0887 173.165 96.5246 169.402C96.9606 165.639 94.6209 157.383 87.5218 155.497C80.4227 153.611 74.6313 156.805 74.6313 156.805L74.6402 156.796Z" fill="#F9E2AF"/>
<path d="M144.758 91.3473C147.253 91.3473 149.277 89.324 149.277 86.8281C149.277 84.3322 147.253 82.3088 144.758 82.3088C142.262 82.3088 140.238 84.3322 140.238 86.8281C140.238 89.324 142.262 91.3473 144.758 91.3473Z" fill="#28120D"/>
<path d="M147.269 85.9038C147.637 85.9038 147.936 85.605 147.936 85.2365C147.936 84.8681 147.637 84.5693 147.269 84.5693C146.9 84.5693 146.602 84.8681 146.602 85.2365C146.602 85.605 146.9 85.9038 147.269 85.9038Z" fill="white"/>
<path d="M143.992 107.006C143.992 107.006 146.732 112.21 154.134 111.027" stroke="#FFAA42" stroke-width="0.889611" stroke-miterlimit="10" stroke-linecap="round"/>
<path d="M58.965 102.803C58.965 102.803 61.7289 105.053 59.3492 111.498L58.2461 110.116L58.9588 102.803H58.965Z" fill="#F4C05A"/>
<path d="M58.2469 110.114L59.35 111.496C59.35 111.496 62.7274 120.631 56.7782 125.731C56.7782 125.731 50.5997 131.699 39.8353 128.538C39.8353 128.538 33.9666 126.952 31.4258 119.986L58.2469 110.114Z" fill="#F4C05A"/>
<path d="M33.5635 107.676C33.5635 107.676 32.4232 102.39 35.2925 99.7562C35.2925 99.7562 38.9612 99.1985 41.1302 102.458C41.1302 102.458 47.569 99.9421 52.9729 104.02C52.9729 104.02 55.7678 102.309 58.9717 102.799C58.9717 102.799 60.2545 105.495 58.259 110.112C58.259 110.112 61.3266 118.769 55.9103 123.913C55.9103 123.913 48.9076 130.482 38.577 126.763C38.577 126.763 30.9174 124.006 30.5703 116.061C30.5703 116.061 30.7128 111.14 33.5759 107.67H33.5635V107.676Z" fill="#FBEDC5"/>
<path d="M36.7853 102.613C36.7853 102.613 35.5087 104.156 36.178 108.68C36.178 108.68 32.1932 112.491 33.6929 118.149C33.6929 118.149 33.5628 111.927 36.6366 109.473C36.6366 109.473 36.2214 104.119 37.1757 103.487C37.1757 103.487 39.2146 103.425 41.0861 106.492C41.0861 106.492 40.5469 103.927 36.7791 102.619L36.7853 102.613Z" fill="#F4C05A"/>
<path d="M56.7911 105.346L56.63 106.313C56.63 106.313 54.492 106.505 52.7444 107.528C52.7444 107.528 47.5264 102.911 41.0938 106.487C41.0938 106.487 41.069 105.805 42.0482 105.223C43.0211 104.64 48.3134 103.413 52.292 106.71C52.292 106.71 54.4672 105.594 56.7973 105.34L56.7911 105.346Z" fill="#F4C05A"/>
<path d="M37.1782 103.485C37.1782 103.485 35.9202 104.08 36.6391 109.472C36.6391 109.472 33.5653 111.436 33.6954 118.148C33.6954 118.148 35.6537 124.19 44.057 124.76C44.057 124.76 54.3256 124.655 56.2777 117.962C56.2777 117.962 57.2383 113.773 55.1932 110.24C55.1932 110.24 56.7115 107.712 56.6309 106.305C56.6309 106.305 54.5983 106.268 52.7454 107.52C52.7454 107.52 47.4344 102.748 41.0948 106.479C41.0948 106.479 39.4773 103.368 37.1844 103.473L37.1782 103.485Z" fill="#F7D67E"/>
<path d="M49.9425 112.994C49.9921 113.007 50.0417 113.032 50.1036 113.093C50.2338 113.211 50.3515 113.348 50.4569 113.49C50.8845 114.035 51.1695 114.699 51.2811 115.38C51.3864 116.019 51.3493 116.682 51.151 117.289C50.9774 117.816 50.6862 118.299 50.3391 118.727C49.4963 119.755 48.2879 120.462 46.9989 120.778C45.7099 121.1 44.3403 121.057 43.0513 120.747C41.7004 120.425 40.3432 119.749 39.6367 118.547L48.5296 113.707C48.9014 113.502 49.267 113.304 49.6389 113.1C49.7814 113.019 49.8558 112.957 49.9425 112.976V112.988V112.994Z" fill="#F4C05A"/>
<path d="M49.949 113.016C50.1597 113.003 50.4014 113.499 50.5005 113.673C50.9963 114.609 51.2318 115.724 50.9405 116.747C50.7112 117.552 50.1845 118.24 49.5524 118.792C48.4679 119.752 47.0673 120.366 45.6172 120.372L48.0588 116.176L49.2797 114.082L49.5833 113.555C49.6515 113.443 49.7754 113.09 49.887 113.028C49.9056 113.016 49.918 113.016 49.9428 113.016H49.949Z" fill="#F4C05A"/>
<path d="M40.27 111.835C40.0345 112.021 39.8176 112.225 39.6193 112.448C39.0182 113.142 38.6712 114.041 38.5472 114.946C38.4295 115.807 38.5039 116.718 38.8881 117.499C39.3157 118.385 40.1027 119.054 40.9703 119.525C42.2283 120.213 43.697 120.523 45.1348 120.393C46.5725 120.263 47.9545 119.674 49.0451 118.726C49.8074 118.063 50.4395 117.195 50.6564 116.21C50.9105 115.057 50.582 113.818 49.8818 112.87C49.1815 111.922 48.1404 111.265 47.0249 110.911C44.9736 110.273 42.0982 110.428 40.2886 111.822H40.2762L40.27 111.835Z" fill="#FBEDC5"/>
<path d="M43.0189 113.821C43.0189 113.821 43.0561 113.821 43.0747 113.833C43.1862 113.871 43.3287 114.112 43.3969 114.205C43.5828 114.453 43.7254 114.732 43.7625 115.042C43.8431 115.674 43.4217 116.331 42.8082 116.517C42.2009 116.703 41.482 116.387 41.2031 115.817C41.7175 115.234 42.2195 114.658 42.7338 114.075C42.8268 113.976 42.8949 113.827 43.0065 113.821H43.0189Z" fill="#FBEDC5"/>
<path d="M42.8406 113.623C42.7352 113.548 42.6237 113.493 42.4997 113.455C41.9792 113.307 41.5268 113.536 41.2417 113.92C41.0124 114.224 40.8885 114.62 40.9133 114.999C40.9257 115.203 40.9876 115.401 41.0744 115.581C41.0744 114.428 41.88 113.79 42.8344 113.623H42.8406Z" fill="#F4C05A"/>
<path d="M41.0742 115.591C41.1734 115.764 41.3035 115.919 41.4646 116.037C41.7931 116.272 42.2455 116.322 42.6111 116.148C42.797 116.055 42.9581 115.913 43.0883 115.746C43.3672 115.374 43.4911 114.884 43.3857 114.438C43.3114 114.116 43.1069 113.818 42.8342 113.626C41.8798 113.794 41.0742 114.438 41.0742 115.585V115.591Z" fill="#F7D67E"/>
<path d="M47.0853 114.731C47.0853 114.731 47.1225 114.731 47.1411 114.743C47.2526 114.78 47.3951 115.022 47.4633 115.115C47.6492 115.363 47.7918 115.642 47.8289 115.952C47.9095 116.584 47.4881 117.241 46.8746 117.426C46.2673 117.612 45.5484 117.296 45.2695 116.726C45.7839 116.144 46.2859 115.567 46.8002 114.985C46.8932 114.886 46.9613 114.737 47.0729 114.731H47.0853Z" fill="#FBEDC5"/>
<path d="M46.907 114.537C46.8016 114.462 46.6901 114.406 46.5661 114.369C46.0456 114.221 45.5932 114.45 45.3081 114.834C45.0788 115.138 44.9549 115.534 44.9797 115.912C44.9921 116.117 45.0541 116.315 45.1408 116.495C45.1408 115.342 45.9464 114.704 46.9008 114.537H46.907Z" fill="#F4C05A"/>
<path d="M45.1406 116.496C45.2398 116.669 45.3699 116.824 45.531 116.942C45.8595 117.178 46.3119 117.227 46.6775 117.054C46.8634 116.961 47.0245 116.818 47.1547 116.651C47.4336 116.279 47.5575 115.79 47.4521 115.343C47.3778 115.021 47.1733 114.724 46.9006 114.531C45.9462 114.699 45.1406 115.343 45.1406 116.49V116.496Z" fill="#F7D67E"/>
<path d="M50.5339 39.3172C50.5339 39.3172 52.6161 41.4552 49.7841 46.1712L49.0156 44.938L50.5339 39.311V39.3172Z" fill="#F4C05A"/>
<path d="M49.0095 44.9412L49.778 46.1744C49.778 46.1744 51.5256 53.7844 45.8118 56.9636C45.8118 56.9636 39.7882 60.7934 30.9821 56.8644C30.9821 56.8644 26.1608 54.8256 24.8594 49.0313L49.0095 44.9474V44.9412Z" fill="#F4C05A"/>
<path d="M28.225 39.6816C28.225 39.6816 27.909 35.3932 30.6853 33.72C30.6853 33.72 33.8892 33.7819 35.3393 36.6264C35.3393 36.6264 41.1584 35.5295 45.2671 39.4585C45.2671 39.4585 47.8699 38.4979 50.547 39.316C50.547 39.316 51.3093 41.5965 49.0287 44.9429C49.0287 44.9429 50.5718 52.1316 45.3043 55.4223C45.3043 55.4223 38.4998 59.6115 30.1337 55.2983C30.1337 55.2983 23.9304 52.1006 24.6245 45.8353C24.6245 45.8353 25.3558 42.0055 28.2374 39.6816H28.2312H28.225Z" fill="#FBEDC5"/>
<path d="M31.6018 36.1626C31.6018 36.1626 30.319 37.1975 30.3252 40.829C30.3252 40.829 26.4458 43.2707 27.0284 47.8999C27.0284 47.8999 27.6914 43.0166 30.6227 41.5107C30.6227 41.5107 30.9325 37.2657 31.8311 36.9001C31.8311 36.9001 33.5787 37.1293 34.7995 39.7817C34.7995 39.7817 34.6632 37.6995 31.5956 36.1688L31.6018 36.1626Z" fill="#F4C05A"/>
<path d="M48.3601 41.016L48.0998 41.7473C48.0998 41.7473 46.253 41.6047 44.6294 42.1687C44.6294 42.1687 40.7438 37.8493 34.8008 39.7766C34.8008 39.7766 34.8628 39.2374 35.7737 38.9152C36.6785 38.5929 41.3511 38.3512 44.3381 41.4684C44.3381 41.4684 46.3336 40.8921 48.3601 41.0098V41.016Z" fill="#F4C05A"/>
<path d="M31.8301 36.8945C31.8301 36.8945 30.6774 37.1858 30.6217 41.5052C30.6217 41.5052 27.7524 42.6269 27.0273 47.8944C27.0273 47.8944 27.9507 52.8893 35.0588 54.4757C35.0588 54.4757 43.8525 55.7833 46.3499 50.8132C46.3499 50.8132 47.6947 47.6651 46.3809 44.6285C46.3809 44.6285 47.9922 42.8562 48.0975 41.7469C48.0975 41.7469 46.3623 41.4432 44.6271 42.1683C44.6271 42.1683 40.6796 37.7187 34.7985 39.7762C34.7985 39.7762 33.8008 37.1238 31.8301 36.8945V36.8945Z" fill="#F7D67E"/>
<path d="M41.5565 46.0622C41.5937 46.0746 41.637 46.1055 41.6866 46.1613C41.7858 46.2729 41.8663 46.3968 41.9407 46.5207C42.2382 47.0103 42.3993 47.5619 42.4117 48.1134C42.4241 48.6278 42.3063 49.1421 42.0646 49.5945C41.8539 49.9787 41.5441 50.3196 41.1908 50.6108C40.3418 51.2987 39.2202 51.6891 38.0799 51.7635C36.9396 51.8379 35.7746 51.621 34.7087 51.1996C33.5932 50.7596 32.5211 50.0531 32.0625 49.0182L40.2675 46.4402C40.6083 46.3286 40.9492 46.2233 41.29 46.1179C41.4263 46.0746 41.4945 46.0374 41.5689 46.0622H41.5565Z" fill="#F4C05A"/>
<path d="M41.5615 46.0845C41.7474 46.1031 41.8899 46.5245 41.9519 46.6732C42.2618 47.4726 42.3175 48.3774 41.9519 49.1335C41.6606 49.7346 41.1153 50.1994 40.5142 50.5464C39.4731 51.1537 38.1903 51.4388 36.957 51.2529L39.566 48.303L40.8736 46.8281L41.1959 46.4625C41.2702 46.3819 41.419 46.1217 41.5181 46.0969C41.5367 46.0969 41.5491 46.0907 41.5677 46.0969L41.5615 46.0845Z" fill="#F4C05A"/>
<path d="M33.4355 43.8476C33.2124 43.9591 33.0017 44.0893 32.8034 44.238C32.2023 44.6966 31.7995 45.3535 31.5764 46.0476C31.3657 46.7045 31.3161 47.4295 31.5454 48.0926C31.7995 48.8487 32.3944 49.4746 33.0699 49.9641C34.0614 50.6768 35.2761 51.1168 36.5217 51.2098C37.7611 51.3027 39.0191 51.03 40.0664 50.4351C40.8039 50.0199 41.4484 49.4312 41.7583 48.6813C42.1177 47.8137 41.9875 46.7974 41.5104 45.9608C41.027 45.1242 40.2214 44.4673 39.3104 44.0397C37.6372 43.2589 35.1583 42.9924 33.4417 43.8414H33.4355V43.8476Z" fill="#FBEDC5"/>
<path d="M35.5371 45.7737C35.5371 45.7737 35.568 45.7737 35.5866 45.7861C35.6796 45.8295 35.7725 46.0402 35.8159 46.1207C35.9399 46.3376 36.0328 46.5793 36.0266 46.8272C36.0204 47.3292 35.5742 47.7878 35.0289 47.8497C34.4836 47.9117 33.9134 47.5647 33.7461 47.0875C34.2543 46.7033 34.7624 46.3191 35.2706 45.9348C35.3635 45.8667 35.4441 45.7613 35.5371 45.7737V45.7737Z" fill="#FBEDC5"/>
<path d="M35.4087 45.5994C35.3282 45.525 35.2414 45.4693 35.1422 45.4259C34.7146 45.24 34.2994 45.3577 34.0082 45.618C33.7789 45.8225 33.6178 46.1199 33.593 46.4174C33.5806 46.5785 33.6054 46.7397 33.6611 46.8946C33.8037 45.996 34.5721 45.6056 35.4087 45.5994V45.5994Z" fill="#F4C05A"/>
<path d="M33.6602 46.8946C33.7221 47.0433 33.8151 47.1858 33.939 47.2974C34.1931 47.5267 34.5711 47.6258 34.9058 47.5391C35.0793 47.4895 35.2342 47.4027 35.3644 47.2912C35.6494 47.0433 35.8168 46.6715 35.7858 46.3058C35.761 46.0394 35.6246 45.7791 35.4139 45.5994C34.5773 45.5994 33.8089 45.996 33.6664 46.8946H33.6602Z" fill="#F7D67E"/>
<path d="M38.9003 47.0384C38.9003 47.0384 38.9313 47.0384 38.9499 47.0508C39.0429 47.0941 39.1358 47.3048 39.1792 47.3854C39.3032 47.6023 39.3961 47.844 39.3899 48.0919C39.3837 48.5938 38.9375 49.0524 38.3922 49.1144C37.8468 49.1764 37.2767 48.8293 37.1094 48.3521C37.6175 47.9679 38.1257 47.5837 38.6339 47.1995C38.7268 47.1313 38.8074 47.026 38.9003 47.0384V47.0384Z" fill="#FBEDC5"/>
<path d="M38.7681 46.8596C38.6875 46.7853 38.6008 46.7295 38.5016 46.6861C38.074 46.5002 37.6588 46.618 37.3676 46.8782C37.1383 47.0827 36.9771 47.3802 36.9523 47.6777C36.94 47.8388 36.9647 47.9999 37.0205 48.1548C37.163 47.2563 37.9315 46.8658 38.7681 46.8596V46.8596Z" fill="#F4C05A"/>
<path d="M37.0195 48.1507C37.0815 48.2994 37.1745 48.4419 37.2984 48.5535C37.5525 48.7828 37.9305 48.8819 38.2651 48.7952C38.4387 48.7456 38.5936 48.6588 38.7237 48.5473C39.0088 48.2994 39.1761 47.9276 39.1451 47.5619C39.1204 47.2955 38.984 47.0352 38.7733 46.8555C37.9367 46.8555 37.1683 47.2521 37.0257 48.1507H37.0195Z" fill="#F7D67E"/>
<path d="M107.384 44.0681C107.384 44.0681 108.939 45.574 106.727 48.7531L106.145 47.8546L107.378 44.0681H107.384Z" fill="#F4C05A"/>
<path d="M106.153 47.8595L106.735 48.758C106.735 48.758 108.055 54.5028 103.265 56.8453C103.265 56.8453 97.9416 59.8447 90.753 56.269C90.753 56.269 86.9169 54.4594 86.6133 49.9417L106.153 47.8533V47.8595Z" fill="#F4C05A"/>
<path d="M90.3859 43.4754C90.3859 43.4754 90.5842 40.6681 92.8276 39.72C92.8276 39.72 95.2011 39.8811 96.0749 41.7402C96.0749 41.7402 100.487 41.2568 103.412 43.965C103.412 43.965 105.395 43.4258 107.391 44.0641C107.391 44.0641 107.949 45.6196 106.158 47.8506C106.158 47.8506 107.279 53.1863 102.892 55.5846C102.892 55.5846 96.9115 58.7947 90.2062 54.9711C90.2062 54.9711 85.4096 52.2381 86.835 47.6027C86.835 47.6027 87.8947 44.9441 90.3983 43.4754H90.3921H90.3859Z" fill="#FBEDC5"/>
<path d="M93.2998 41.3008C93.2998 41.3008 92.2401 41.9205 91.8992 44.325C91.8992 44.325 88.6024 45.8557 88.5156 49.1835C88.5156 49.1835 89.6125 45.7193 92.0604 44.796C92.0604 44.796 92.6925 41.9825 93.4051 41.778C93.4051 41.778 94.7065 41.9887 95.4316 43.7858C95.4316 43.7858 95.4812 42.4101 93.2936 41.3008H93.2998Z" fill="#F4C05A"/>
<path d="M105.719 45.1231L105.508 45.6127C105.508 45.6127 104.101 45.4515 102.843 45.7738C102.843 45.7738 100.073 42.7434 95.4375 43.7907C95.4375 43.7907 95.5305 43.4375 96.2431 43.2577C96.9558 43.078 100.507 43.0966 102.645 45.2904C102.645 45.2904 104.188 44.9743 105.725 45.1293L105.719 45.1231Z" fill="#F4C05A"/>
<path d="M93.4091 41.7815C93.4091 41.7815 92.5105 41.924 92.0643 44.7995C92.0643 44.7995 89.7094 45.4626 88.5195 49.1871C88.5195 49.1871 88.6683 52.9983 94.4316 54.4918C94.4316 54.4918 101.676 55.8366 103.907 52.0501C103.907 52.0501 105.06 49.7634 104.118 47.5448C104.118 47.5448 105.407 46.3674 105.506 45.6113C105.506 45.6113 104.192 45.3386 102.841 45.7724C102.841 45.7724 100.034 42.6553 95.4355 43.7894C95.4355 43.7894 94.884 42.0046 93.4091 41.7815V41.7815Z" fill="#F7D67E"/>
<path d="M100.283 48.3857C100.283 48.3857 100.345 48.4167 100.376 48.4663C100.444 48.5469 100.506 48.6398 100.556 48.7328C100.767 49.0922 100.866 49.5012 100.853 49.904C100.841 50.2821 100.723 50.6601 100.5 50.9823C100.308 51.2612 100.042 51.5091 99.7442 51.7136C99.0129 52.2094 98.0771 52.4634 97.1352 52.482C96.1932 52.5006 95.2575 52.2899 94.4208 51.9367C93.547 51.5649 92.7414 50.9885 92.4688 50.2015L99.236 48.6088C99.5149 48.5407 99.7875 48.4787 100.06 48.4105C100.166 48.3857 100.228 48.3609 100.283 48.3795V48.3857Z" fill="#F4C05A"/>
<path d="M100.284 48.3984C100.427 48.417 100.52 48.7268 100.563 48.8322C100.768 49.4209 100.774 50.084 100.433 50.6293C100.167 51.0631 99.708 51.3978 99.1936 51.6333C98.3074 52.0547 97.2477 52.2282 96.25 52.0423L98.5677 49.9229L99.6894 48.8941L99.9683 48.6401C100.03 48.5843 100.16 48.4046 100.247 48.386C100.26 48.386 100.272 48.386 100.284 48.386V48.3984Z" fill="#F4C05A"/>
<path d="M94.0503 46.5198C93.8643 46.5879 93.6846 46.6747 93.5173 46.7676C93.003 47.0713 92.6187 47.5175 92.377 48.0071C92.1415 48.4718 92.0362 48.9986 92.1539 49.4882C92.2841 50.0521 92.7055 50.5417 93.2136 50.9321C93.9573 51.5022 94.9117 51.8803 95.9218 51.9918C96.9319 52.1034 97.973 51.9422 98.8592 51.5332C99.4789 51.2482 100.03 50.8267 100.322 50.2876C100.656 49.6679 100.601 48.9242 100.266 48.3045C99.9313 47.691 99.3364 47.2014 98.6485 46.8668C97.3905 46.2595 95.4818 45.9868 94.0689 46.5136H94.0627L94.0503 46.5198Z" fill="#FBEDC5"/>
<path d="M95.5408 47.9573C95.5408 47.9573 95.5656 47.9573 95.578 47.9697C95.6461 48.0069 95.7019 48.1556 95.7329 48.2176C95.8135 48.3787 95.8692 48.5522 95.8444 48.7319C95.8011 49.0975 95.4045 49.4136 94.9645 49.4446C94.5245 49.4694 94.0969 49.1967 94.0039 48.8435C94.4439 48.5832 94.8777 48.3229 95.3177 48.0688C95.3983 48.0254 95.4664 47.9511 95.5408 47.9635V47.9573Z" fill="#FBEDC5"/>
<path d="M95.4532 47.8327C95.3912 47.7769 95.3292 47.7335 95.2549 47.6964C94.9326 47.5476 94.598 47.6158 94.3377 47.7955C94.1394 47.9319 93.9845 48.1364 93.9411 48.3533C93.9163 48.471 93.9225 48.5887 93.9535 48.7003C94.1456 48.0558 94.7901 47.8079 95.4532 47.8327Z" fill="#F4C05A"/>
<path d="M93.957 48.6923C93.9942 48.8038 94.0562 48.9092 94.1429 48.9959C94.3227 49.1694 94.6201 49.2624 94.8928 49.2066C95.0353 49.1819 95.1655 49.1199 95.2832 49.0393C95.5311 48.8658 95.6922 48.6117 95.6922 48.3452C95.6922 48.1531 95.6055 47.961 95.4567 47.8247C94.7936 47.7999 94.1491 48.0478 93.957 48.6923V48.6923Z" fill="#F7D67E"/>
<path d="M98.1261 48.9912C98.1261 48.9912 98.1508 48.9912 98.1632 49.0036C98.2314 49.0408 98.2934 49.1895 98.3244 49.2515C98.4111 49.4126 98.4669 49.5923 98.4483 49.772C98.4111 50.1439 98.0207 50.4661 97.5807 50.4909C97.1407 50.5157 96.7007 50.243 96.6016 49.8774C97.0354 49.6109 97.4692 49.3506 97.903 49.0904C97.9773 49.047 98.0517 48.9726 98.1261 48.985V48.9912Z" fill="#FBEDC5"/>
<path d="M98.0253 48.8549C97.9633 48.7991 97.9013 48.7558 97.8208 48.7186C97.4923 48.5699 97.1577 48.638 96.9036 48.8177C96.7053 48.9603 96.5566 49.1648 96.5132 49.3817C96.4884 49.4994 96.5008 49.6172 96.5318 49.7349C96.7115 49.0842 97.3498 48.8239 98.0191 48.8549H98.0253Z" fill="#F4C05A"/>
<path d="M96.5414 49.7328C96.5785 49.8443 96.6405 49.9497 96.7335 50.0365C96.9194 50.21 97.2168 50.3029 97.4895 50.2472C97.632 50.2162 97.7622 50.1604 97.8737 50.0798C98.1216 49.9063 98.2765 49.6398 98.2703 49.3734C98.2703 49.1813 98.1774 48.9891 98.0225 48.8466C97.3594 48.8218 96.7149 49.0759 96.5352 49.7266L96.5414 49.7328Z" fill="#F7D67E"/>
<path d="M175.402 39.1799C175.402 39.1799 177.329 40.9771 175.675 46.1145L174.906 45.0114L175.408 39.1799H175.402Z" fill="#F4C05A"/>
<path d="M174.898 45.0093L175.666 46.1124C175.666 46.1124 178.021 53.4002 173.869 57.4655C173.869 57.4655 169.556 62.2249 162.039 59.7088C162.039 59.7088 157.943 58.4446 156.164 52.8858L174.892 45.0093H174.898Z" fill="#F4C05A"/>
<path d="M157.665 43.0639C157.665 43.0639 156.872 38.8499 158.873 36.7491C158.873 36.7491 161.433 36.3029 162.951 38.9057C162.951 38.9057 167.45 36.8978 171.218 40.1513C171.218 40.1513 173.17 38.7879 175.407 39.1783C175.407 39.1783 176.3 41.3287 174.905 45.0098C174.905 45.0098 177.049 51.9134 173.263 56.0159C173.263 56.0159 168.374 61.2524 161.16 58.2902C161.16 58.2902 155.812 56.0902 155.57 49.7568C155.57 49.7568 155.669 45.834 157.671 43.0639H157.665V43.0639Z" fill="#FBEDC5"/>
<path d="M159.906 39.0239C159.906 39.0239 159.014 40.2571 159.479 43.8639C159.479 43.8639 156.696 46.9005 157.743 51.412C157.743 51.412 157.651 46.4543 159.801 44.496C159.801 44.496 159.51 40.2262 160.179 39.718C160.179 39.718 161.604 39.6684 162.912 42.1101C162.912 42.1101 162.54 40.065 159.9 39.0239H159.906Z" fill="#F4C05A"/>
<path d="M173.883 41.2048L173.765 41.9732C173.765 41.9732 172.272 42.1219 171.051 42.9399C171.051 42.9399 167.407 39.2589 162.914 42.1095C162.914 42.1095 162.896 41.5642 163.577 41.0994C164.259 40.6346 167.952 39.6555 170.729 42.2893C170.729 42.2893 172.247 41.3969 173.877 41.1986L173.883 41.2048Z" fill="#F4C05A"/>
<path d="M160.188 39.7208C160.188 39.7208 159.308 40.1917 159.81 44.4987C159.81 44.4987 157.666 46.0666 157.753 51.4147C157.753 51.4147 159.122 56.2299 164.991 56.6885C164.991 56.6885 172.161 56.6017 173.524 51.266C173.524 51.266 174.194 47.9257 172.768 45.1123C172.768 45.1123 173.828 43.0982 173.772 41.9765C173.772 41.9765 172.353 41.9455 171.058 42.9433C171.058 42.9433 167.352 39.1382 162.921 42.1128C162.921 42.1128 161.793 39.634 160.188 39.7146V39.7208Z" fill="#F7D67E"/>
<path d="M169.097 47.304C169.128 47.3102 169.165 47.335 169.215 47.3846C169.308 47.4775 169.388 47.5891 169.463 47.7006C169.76 48.1406 169.959 48.6612 170.039 49.2127C170.114 49.7209 170.089 50.2476 169.946 50.7372C169.822 51.1524 169.624 51.5428 169.382 51.8837C168.794 52.7017 167.951 53.2656 167.046 53.5197C166.147 53.7738 165.193 53.7428 164.288 53.4949C163.346 53.2346 162.398 52.6955 161.902 51.7411L168.112 47.8803C168.372 47.7192 168.626 47.5581 168.886 47.397C168.986 47.335 169.035 47.2854 169.097 47.2978V47.304Z" fill="#F4C05A"/>
<path d="M169.104 47.3221C169.253 47.3097 169.42 47.7063 169.488 47.8426C169.835 48.5925 169.996 49.4787 169.798 50.2905C169.637 50.935 169.271 51.4803 168.831 51.9203C168.075 52.6888 167.096 53.1721 166.086 53.1845L167.79 49.8381L168.645 48.1649L168.856 47.7497C168.906 47.6629 168.992 47.3778 169.067 47.3345C169.079 47.3283 169.092 47.3221 169.104 47.3221Z" fill="#F4C05A"/>
<path d="M162.346 46.3777C162.178 46.5265 162.03 46.6876 161.893 46.8673C161.472 47.4189 161.23 48.1377 161.143 48.8628C161.057 49.5507 161.112 50.2757 161.379 50.8954C161.676 51.6019 162.228 52.1349 162.835 52.5129C163.715 53.0644 164.744 53.3123 165.742 53.207C166.746 53.1016 167.712 52.6368 168.468 51.8808C169.001 51.3478 169.441 50.66 169.596 49.8729C169.776 48.9557 169.54 47.9642 169.051 47.2082C168.561 46.4521 167.836 45.9254 167.055 45.6465C165.624 45.1383 163.616 45.2623 162.352 46.3716H162.346V46.3777Z" fill="#FBEDC5"/>
<path d="M164.264 47.967C164.264 47.967 164.289 47.967 164.308 47.9732C164.388 48.0042 164.487 48.1963 164.531 48.2645C164.661 48.4628 164.76 48.6859 164.785 48.9338C164.841 49.4358 164.543 49.9625 164.122 50.1112C163.694 50.26 163.198 50.0059 163 49.5535C163.359 49.0887 163.713 48.6301 164.072 48.1653C164.134 48.0848 164.184 47.967 164.264 47.967V47.967Z" fill="#FBEDC5"/>
<path d="M164.14 47.8126C164.066 47.7568 163.991 47.7073 163.905 47.6825C163.539 47.5647 163.229 47.7506 163.025 48.0543C162.864 48.296 162.777 48.612 162.795 48.9157C162.808 49.0768 162.845 49.2379 162.913 49.3805C162.913 48.4633 163.477 47.9551 164.146 47.8188L164.14 47.8126Z" fill="#F4C05A"/>
<path d="M162.906 49.3724C162.974 49.5087 163.067 49.6327 163.179 49.7256C163.408 49.9116 163.724 49.9549 163.978 49.8124C164.108 49.738 164.22 49.6265 164.313 49.4901C164.511 49.1989 164.598 48.8023 164.524 48.4428C164.468 48.1826 164.325 47.9471 164.139 47.7983C163.476 47.9347 162.906 48.4428 162.906 49.36V49.3724Z" fill="#F7D67E"/>
<path d="M167.104 48.686C167.104 48.686 167.129 48.686 167.147 48.6922C167.228 48.7232 167.327 48.9153 167.371 48.9835C167.501 49.1818 167.6 49.4049 167.625 49.6528C167.68 50.1547 167.383 50.6815 166.962 50.8302C166.534 50.979 166.038 50.7249 165.84 50.2725C166.199 49.8077 166.553 49.3491 166.912 48.8843C166.974 48.8038 167.023 48.686 167.104 48.686V48.686Z" fill="#FBEDC5"/>
<path d="M166.98 48.5357C166.906 48.48 166.831 48.4304 166.745 48.4056C166.379 48.2879 166.069 48.4738 165.865 48.7774C165.703 49.0191 165.617 49.3352 165.635 49.6388C165.648 49.8 165.685 49.9611 165.747 50.1036C165.747 49.1864 166.311 48.6783 166.98 48.5419V48.5357Z" fill="#F4C05A"/>
<path d="M165.746 50.0956C165.814 50.2319 165.907 50.3558 166.019 50.4488C166.248 50.6347 166.564 50.6781 166.818 50.5355C166.948 50.4612 167.06 50.3496 167.153 50.2133C167.351 49.922 167.438 49.5254 167.364 49.166C167.308 48.9057 167.165 48.6702 166.979 48.5215C166.316 48.6578 165.746 49.166 165.746 50.0832V50.0956Z" fill="#F7D67E"/>
<path d="M150.496 0.719971C150.496 0.719971 152.33 1.34588 152.783 5.30583L151.934 4.79767L150.496 0.719971V0.719971Z" fill="#F4C05A"/>
<path d="M151.936 4.79721L152.785 5.30537C152.785 5.30537 156.571 9.50082 155.034 13.4918C155.034 13.4918 153.603 17.9971 147.821 18.561C147.821 18.561 144.704 18.9452 141.828 15.7351L151.936 4.79102V4.79721Z" fill="#F4C05A"/>
<path d="M139.844 8.67706C139.844 8.67706 138.035 6.08047 138.729 4.06021C138.729 4.06021 140.303 2.98811 142.1 4.28331C142.1 4.28331 144.492 1.57517 147.994 2.63488C147.994 2.63488 148.88 1.12898 150.491 0.719971C150.491 0.719971 151.743 1.89742 151.929 4.79767C151.929 4.79767 155.455 8.801 154.178 12.7052C154.178 12.7052 152.505 17.7063 146.791 17.8798C146.791 17.8798 142.552 18.0099 140.47 13.8145C140.47 13.8145 139.342 11.1435 139.838 8.67706H139.844Z" fill="#FBEDC5"/>
<path d="M140.118 5.28027C140.118 5.28027 139.895 6.37716 141.308 8.67009C141.308 8.67009 140.372 11.5518 142.442 14.2785C142.442 14.2785 140.874 10.963 141.711 8.99854C141.711 8.99854 140.224 6.20984 140.515 5.67069C140.515 5.67069 141.451 5.20591 143.068 6.46392C143.068 6.46392 142.194 5.19971 140.125 5.29267L140.118 5.28027Z" fill="#F4C05A"/>
<path d="M150.101 2.54321L150.256 3.09476C150.256 3.09476 149.308 3.6463 148.738 4.56347C148.738 4.56347 145.187 3.18152 143.055 6.45359C143.055 6.45359 142.875 6.09416 143.191 5.5736C143.507 5.05304 145.67 3.28687 148.322 4.22263C148.322 4.22263 149.066 3.16912 150.089 2.54321H150.101Z" fill="#F4C05A"/>
<path d="M140.512 5.66506C140.512 5.66506 140.066 6.24759 141.708 8.99292C141.708 8.99292 140.754 10.6971 142.44 14.2729C142.44 14.2729 144.819 17.1049 148.872 15.6486C148.872 15.6486 153.632 13.43 152.919 9.42671C152.919 9.42671 152.355 6.97266 150.539 5.51014C150.539 5.51014 150.632 3.83072 150.254 3.09326C150.254 3.09326 149.3 3.50227 148.736 4.56198C148.736 4.56198 145.104 3.11805 143.053 6.4521C143.053 6.4521 141.547 5.11972 140.5 5.65887L140.512 5.66506Z" fill="#F7D67E"/>
<path d="M148.763 8.08847C148.763 8.08847 148.818 8.08847 148.862 8.10706C148.949 8.14425 149.042 8.19382 149.122 8.2496C149.451 8.4541 149.748 8.75156 149.965 9.0924C150.169 9.40846 150.312 9.77408 150.368 10.1459C150.411 10.462 150.399 10.7842 150.337 11.0879C150.194 11.8191 149.798 12.4512 149.277 12.8912C148.756 13.3374 148.106 13.5977 147.43 13.7031C146.724 13.8146 145.931 13.734 145.305 13.2383L148.279 8.77016C148.403 8.58424 148.527 8.39833 148.651 8.21241C148.701 8.13805 148.719 8.08847 148.763 8.08228V8.08847Z" fill="#F4C05A"/>
<path d="M148.771 8.09906C148.864 8.04949 149.099 8.26019 149.186 8.33456C149.644 8.73117 150.022 9.28271 150.134 9.89003C150.221 10.3734 150.14 10.8506 149.985 11.2782C149.713 12.0218 149.204 12.6477 148.535 12.9514L148.659 10.1813L148.721 8.79934L148.733 8.4523C148.733 8.37793 148.709 8.16103 148.746 8.10526C148.752 8.09906 148.758 8.09287 148.764 8.08667L148.771 8.09906Z" fill="#F4C05A"/>
<path d="M143.971 9.50277C143.903 9.6515 143.853 9.80643 143.816 9.96755C143.705 10.4695 143.76 11.0211 143.921 11.5354C144.076 12.025 144.33 12.496 144.696 12.8368C145.111 13.221 145.638 13.4193 146.159 13.4875C146.915 13.5929 147.671 13.4503 148.309 13.0785C148.947 12.7067 149.449 12.0994 149.728 11.3619C149.92 10.8413 150.007 10.2464 149.871 9.67009C149.71 9.00081 149.257 8.39968 148.699 8.04025C148.142 7.68082 147.497 7.54448 146.896 7.59406C145.787 7.68082 144.485 8.3687 143.977 9.49658L143.971 9.50277Z" fill="#FBEDC5"/>
<path d="M145.738 9.98984C145.738 9.98984 145.757 9.98364 145.769 9.98364C145.831 9.98364 145.955 10.0766 146.011 10.1138C146.154 10.2067 146.29 10.3307 146.383 10.4856C146.575 10.8079 146.538 11.2541 146.296 11.4771C146.054 11.7064 145.645 11.6879 145.379 11.44C145.478 11.0186 145.571 10.6034 145.67 10.182C145.689 10.1076 145.689 10.0146 145.738 9.98984V9.98984Z" fill="#FBEDC5"/>
<path d="M145.609 9.92228C145.541 9.90369 145.479 9.89749 145.41 9.90369C145.132 9.93468 144.977 10.1516 144.933 10.4181C144.902 10.6288 144.933 10.8704 145.039 11.0688C145.094 11.1741 145.169 11.2671 145.256 11.3476C144.977 10.7279 145.2 10.2135 145.603 9.92228H145.609Z" fill="#F4C05A"/>
<path d="M145.259 11.3458C145.346 11.4202 145.445 11.476 145.551 11.5008C145.761 11.5565 145.984 11.4884 146.108 11.3211C146.177 11.2343 146.214 11.1227 146.232 11.005C146.276 10.7509 146.214 10.4597 146.053 10.2366C145.935 10.0754 145.774 9.96388 145.6 9.91431C145.197 10.2056 144.974 10.7199 145.253 11.3396L145.259 11.3458Z" fill="#F7D67E"/>
<path d="M147.852 9.62168C147.852 9.62168 147.87 9.61548 147.883 9.61548C147.945 9.61548 148.069 9.70844 148.124 9.74562C148.267 9.83858 148.403 9.96252 148.496 10.1175C148.688 10.4397 148.651 10.8859 148.409 11.109C148.168 11.3383 147.759 11.3197 147.492 11.0718C147.591 10.6504 147.684 10.2352 147.783 9.81379C147.802 9.73943 147.802 9.64647 147.852 9.62168V9.62168Z" fill="#FBEDC5"/>
<path d="M147.722 9.55851C147.654 9.53992 147.592 9.53372 147.524 9.53992C147.245 9.57091 147.09 9.78781 147.047 10.0543C147.016 10.265 147.047 10.5067 147.152 10.705C147.208 10.8103 147.282 10.9033 147.369 10.9839C147.09 10.3641 147.313 9.84978 147.716 9.55851H147.722Z" fill="#F4C05A"/>
<path d="M147.373 10.9821C147.459 11.0564 147.559 11.1122 147.664 11.137C147.875 11.1928 148.098 11.1246 148.222 10.9573C148.29 10.8705 148.327 10.759 148.346 10.6412C148.389 10.3871 148.327 10.0959 148.166 9.87279C148.048 9.71166 147.887 9.60011 147.713 9.55054C147.311 9.8418 147.088 10.3562 147.366 10.9759L147.373 10.9821Z" fill="#F7D67E"/>
<path d="M197.037 122.458C197.037 122.458 198.221 123.734 196.455 126.362L196.027 125.637L197.037 122.458V122.458Z" fill="#F4C05A"/>
<path d="M196.023 125.636L196.451 126.361C196.451 126.361 197.324 130.761 193.891 132.434C193.891 132.434 190.26 134.467 185.147 131.976C185.147 131.976 182.346 130.681 181.695 127.328L196.017 125.636H196.023Z" fill="#F4C05A"/>
<path d="M183.875 122.066C183.875 122.066 183.776 119.6 185.449 118.72C185.449 118.72 187.339 118.844 188.132 120.511C188.132 120.511 191.584 120.04 193.927 122.395C193.927 122.395 195.482 121.918 197.044 122.457C197.044 122.457 197.447 123.783 196.034 125.636C196.034 125.636 196.796 129.794 193.623 131.536C193.623 131.536 189.527 133.754 184.681 131.058C184.681 131.058 181.086 129.063 181.625 125.493C181.625 125.493 182.134 123.318 183.881 122.066H183.875Z" fill="#FBEDC5"/>
<path d="M185.94 120.14C185.94 120.14 185.166 120.698 185.091 122.78C185.091 122.78 182.755 124.076 183.003 126.74C183.003 126.74 183.492 123.964 185.252 123.177C185.252 123.177 185.525 120.754 186.058 120.568C186.058 120.568 187.087 120.748 187.75 122.297C187.75 122.297 187.713 121.101 185.934 120.14H185.94Z" fill="#F4C05A"/>
<path d="M195.723 123.368L195.556 123.783C195.556 123.783 194.472 123.653 193.499 123.932C193.499 123.932 191.299 121.354 187.754 122.296C187.754 122.296 187.803 121.992 188.343 121.831C188.882 121.67 191.646 121.658 193.344 123.523C193.344 123.523 194.534 123.244 195.723 123.368V123.368Z" fill="#F4C05A"/>
<path d="M186.055 120.565C186.055 120.565 185.373 120.701 185.25 123.174C185.25 123.174 183.533 123.738 183 126.737C183 126.737 183.446 129.619 187.604 130.722C187.604 130.722 192.76 131.707 194.335 128.931C194.335 128.931 195.19 127.165 194.477 125.386C194.477 125.386 195.462 124.413 195.549 123.781C195.549 123.781 194.533 123.558 193.492 123.93C193.492 123.93 191.255 121.278 187.747 122.294C187.747 122.294 187.214 120.751 186.055 120.565V120.565Z" fill="#F7D67E"/>
<path d="M191.603 126.074C191.603 126.074 191.647 126.098 191.678 126.136C191.733 126.198 191.777 126.272 191.82 126.346C191.981 126.631 192.068 126.954 192.068 127.27C192.068 127.561 191.987 127.852 191.833 128.106C191.696 128.323 191.51 128.509 191.3 128.664C190.785 129.036 190.116 129.228 189.44 129.24C188.765 129.253 188.083 129.098 187.464 128.825C186.813 128.546 186.199 128.106 185.945 127.505L190.835 126.247C191.039 126.191 191.244 126.142 191.448 126.092C191.529 126.074 191.572 126.049 191.609 126.067L191.603 126.074Z" fill="#F4C05A"/>
<path d="M191.602 126.087C191.707 126.099 191.788 126.347 191.819 126.434C191.986 126.898 191.998 127.419 191.763 127.847C191.577 128.181 191.248 128.435 190.883 128.615C190.257 128.931 189.495 129.061 188.77 128.925L190.368 127.307L191.168 126.496L191.366 126.291C191.41 126.248 191.502 126.105 191.564 126.087C191.577 126.087 191.583 126.087 191.595 126.087H191.602Z" fill="#F4C05A"/>
<path d="M186.861 124.591C186.725 124.646 186.601 124.715 186.477 124.795C186.112 125.043 185.857 125.409 185.715 125.799C185.579 126.171 185.535 126.58 185.659 126.97C185.795 127.41 186.13 127.788 186.521 128.08C187.091 128.513 187.797 128.799 188.528 128.885C189.26 128.972 190.01 128.848 190.635 128.538C191.075 128.321 191.472 127.999 191.67 127.584C191.9 127.1 191.844 126.512 191.577 126.022C191.311 125.533 190.846 125.136 190.319 124.863C189.346 124.374 187.89 124.151 186.861 124.591V124.591Z" fill="#FBEDC5"/>
<path d="M188.063 125.749C188.063 125.749 188.081 125.749 188.094 125.762C188.143 125.793 188.199 125.911 188.224 125.96C188.292 126.09 188.342 126.227 188.335 126.369C188.323 126.66 188.05 126.908 187.728 126.927C187.406 126.946 187.077 126.735 186.984 126.456C187.294 126.251 187.598 126.041 187.908 125.836C187.964 125.799 188.013 125.743 188.069 125.749H188.063Z" fill="#FBEDC5"/>
<path d="M187.99 125.65C187.94 125.606 187.891 125.569 187.835 125.544C187.587 125.427 187.339 125.482 187.16 125.625C187.017 125.736 186.918 125.898 186.899 126.071C186.887 126.164 186.899 126.257 186.93 126.344C187.036 125.829 187.494 125.631 187.99 125.65V125.65Z" fill="#F4C05A"/>
<path d="M186.932 126.345C186.963 126.431 187.019 126.512 187.087 126.58C187.229 126.716 187.453 126.785 187.651 126.747C187.756 126.723 187.843 126.679 187.924 126.617C188.097 126.481 188.202 126.276 188.19 126.066C188.178 125.911 188.103 125.762 187.985 125.651C187.496 125.632 187.031 125.836 186.926 126.345H186.932Z" fill="#F7D67E"/>
<path d="M190.016 126.568C190.016 126.568 190.034 126.568 190.047 126.58C190.096 126.611 190.152 126.729 190.177 126.779C190.245 126.909 190.295 127.045 190.288 127.188C190.276 127.479 190.003 127.727 189.681 127.745C189.359 127.764 189.03 127.553 188.938 127.274C189.247 127.07 189.551 126.859 189.861 126.655C189.917 126.617 189.966 126.562 190.022 126.568H190.016Z" fill="#FBEDC5"/>
<path d="M189.943 126.459C189.894 126.416 189.844 126.379 189.788 126.354C189.54 126.236 189.292 126.292 189.113 126.435C188.97 126.546 188.871 126.707 188.852 126.881C188.84 126.974 188.852 127.067 188.883 127.154C188.989 126.639 189.447 126.441 189.943 126.459V126.459Z" fill="#F4C05A"/>
<path d="M188.889 127.154C188.92 127.241 188.976 127.322 189.044 127.39C189.186 127.526 189.41 127.594 189.608 127.557C189.713 127.532 189.8 127.489 189.881 127.427C190.054 127.291 190.159 127.086 190.147 126.876C190.135 126.721 190.06 126.572 189.943 126.46C189.453 126.442 188.988 126.646 188.883 127.154H188.889Z" fill="#F7D67E"/>
<path d="M77.5039 4.72876C77.5039 4.72876 79.5242 5.59636 78.9354 9.61209L78.0617 8.99237L77.5039 4.72876Z" fill="#F4C05A"/>
<path d="M78.0617 8.99023L78.9355 9.60995C78.9355 9.60995 82.282 14.295 79.2887 18.0814C79.2887 18.0814 76.2707 22.3946 69.1627 22.2149C69.1627 22.2149 65.3019 22.1901 62.7734 18.6144L78.0617 8.99023V8.99023Z" fill="#F4C05A"/>
<path d="M62.4158 11.2951C62.4158 11.2951 60.9843 8.46303 62.4034 6.53572C62.4034 6.53572 64.6034 5.66813 66.3944 7.19882C66.3944 7.19882 70.0445 4.80673 73.9548 6.31263C73.9548 6.31263 75.4545 4.91828 77.512 4.71997C77.512 4.71997 78.677 6.05855 78.0697 8.98358C78.0697 8.98358 81.1621 13.4393 78.5035 17.1762C78.5035 17.1762 75.0579 21.9541 68.1358 21.3902C68.1358 21.3902 63.0045 20.9688 61.7031 16.5069C61.7031 16.5069 61.1144 13.6934 62.4158 11.2889V11.2951Z" fill="#FBEDC5"/>
<path d="M63.7181 7.93799C63.7181 7.93799 63.1355 9.00389 64.1705 11.4765C64.1705 11.4765 62.2184 14.2343 63.9288 17.2275C63.9288 17.2275 62.993 13.7137 64.5671 11.8608C64.5671 11.8608 63.5755 8.87995 64.0837 8.37798C64.0837 8.37798 65.3417 8.03714 66.922 9.49966C66.922 9.49966 66.2403 8.1239 63.7181 7.94419V7.93799Z" fill="#F4C05A"/>
<path d="M76.507 6.49326L76.5379 7.06339C76.5379 7.06339 75.2366 7.49099 74.2946 8.3338C74.2946 8.3338 70.4276 6.49326 66.92 9.48646C66.92 9.48646 66.8085 9.10224 67.3352 8.62506C67.862 8.14789 70.9729 6.66058 73.8918 7.93719C73.8918 7.93719 75.0878 6.97663 76.5008 6.48706L76.507 6.49326Z" fill="#F4C05A"/>
<path d="M64.0829 8.37757C64.0829 8.37757 63.3826 8.90432 64.5662 11.8603C64.5662 11.8603 62.9302 13.4344 63.9279 17.227C63.9279 17.227 65.973 20.3628 71.2653 19.4332C71.2653 19.4332 77.6236 17.8344 77.921 13.7443C77.921 13.7443 77.9458 11.222 76.192 9.52403C76.192 9.52403 76.7869 7.86321 76.5453 7.07617C76.5453 7.07617 75.2749 7.36124 74.3019 8.34658C74.3019 8.34658 70.3543 6.43167 66.9273 9.49924C66.9273 9.49924 65.4958 7.97475 64.0891 8.37757H64.0829Z" fill="#F7D67E"/>
<path d="M73.305 11.8636C73.336 11.8636 73.3732 11.8698 73.4228 11.8946C73.5219 11.9442 73.6087 12.0062 73.6955 12.0681C74.0363 12.316 74.3028 12.6507 74.4701 13.0225C74.625 13.3695 74.6932 13.7537 74.6498 14.1256C74.6126 14.4478 74.5011 14.7701 74.34 15.0613C73.9557 15.774 73.305 16.3503 72.549 16.7284C71.793 17.1002 70.9378 17.2861 70.0949 17.2985C69.2088 17.3171 68.2792 17.1374 67.6719 16.561L72.5304 12.4833C72.7349 12.3098 72.9332 12.1425 73.1377 11.9752C73.2183 11.907 73.2555 11.8636 73.3112 11.8574L73.305 11.8636Z" fill="#F4C05A"/>
<path d="M73.3083 11.8786C73.4385 11.8414 73.6554 12.0831 73.7421 12.1699C74.1821 12.6285 74.4734 13.2296 74.4362 13.8493C74.4052 14.3389 74.1697 14.8098 73.8537 15.2189C73.3145 15.9253 72.5275 16.4831 71.6289 16.7062L72.5709 13.9546L73.0418 12.5789L73.1596 12.238C73.1844 12.1637 73.2154 11.9468 73.2773 11.8972C73.2897 11.891 73.2959 11.8848 73.3083 11.8786V11.8786Z" fill="#F4C05A"/>
<path d="M67.1455 12.6497C67.0215 12.7922 66.9162 12.9409 66.8232 13.0959C66.5444 13.5792 66.4514 14.1432 66.501 14.6761C66.5444 15.1843 66.7179 15.6863 67.0587 16.0767C67.4491 16.5167 68.0255 16.777 68.6266 16.9195C69.5004 17.124 70.4547 17.0806 71.3285 16.7894C72.2023 16.4981 72.9832 15.9589 73.5285 15.2587C73.9127 14.7691 74.1854 14.1804 74.1854 13.5854C74.1854 12.8914 73.8074 12.2407 73.2435 11.8069C72.6795 11.3731 71.9421 11.1562 71.1984 11.1252C69.835 11.0694 68.0751 11.5838 67.1455 12.6497V12.6497Z" fill="#FBEDC5"/>
<path d="M69.1224 13.373C69.1224 13.373 69.1472 13.373 69.1596 13.373C69.234 13.373 69.3579 13.4908 69.4137 13.5342C69.5624 13.6457 69.6926 13.7883 69.7545 13.9556C69.8909 14.3026 69.7174 14.7426 69.3641 14.9347C69.0109 15.133 68.5275 15.0587 68.2734 14.7798C68.5089 14.3708 68.7444 13.968 68.9861 13.559C69.0295 13.4846 69.0543 13.3916 69.1224 13.373Z" fill="#FBEDC5"/>
<path d="M68.9838 13.2911C68.9094 13.2663 68.8289 13.2477 68.7545 13.2477C68.4075 13.2415 68.1658 13.4398 68.0356 13.7001C67.9365 13.9046 67.9117 14.1525 67.9799 14.3632C68.0171 14.4747 68.079 14.5801 68.1596 14.6668C68.0047 14.0161 68.4137 13.5266 68.9838 13.2911Z" fill="#F4C05A"/>
<path d="M68.16 14.6665C68.2468 14.7533 68.3459 14.8215 68.4637 14.8586C68.6992 14.9392 68.9904 14.902 69.1888 14.7533C69.2941 14.6727 69.3747 14.5674 69.4304 14.4558C69.5544 14.2017 69.5668 13.9043 69.4366 13.6688C69.3437 13.4953 69.1764 13.3589 68.9842 13.2908C68.4141 13.5325 67.9989 14.0158 68.16 14.6665V14.6665Z" fill="#F7D67E"/>
<path d="M71.7748 13.2778C71.7748 13.2778 71.7996 13.2778 71.812 13.2778C71.8863 13.2778 72.0103 13.3956 72.066 13.439C72.2148 13.5505 72.3449 13.693 72.4069 13.8604C72.5432 14.2074 72.3697 14.6474 72.0165 14.8395C71.6632 15.0378 71.1799 14.9634 70.9258 14.6846C71.1613 14.2756 71.3968 13.8728 71.6384 13.4637C71.6818 13.3894 71.7066 13.2964 71.7748 13.2778Z" fill="#FBEDC5"/>
<path d="M71.6306 13.1959C71.5563 13.1711 71.4757 13.1525 71.3951 13.1525C71.0481 13.1463 70.8064 13.3446 70.6763 13.6049C70.5771 13.8094 70.5523 14.0573 70.6205 14.268C70.6577 14.3795 70.7196 14.4849 70.8002 14.5716C70.6453 13.9209 71.0543 13.4314 71.6244 13.1959H71.6306Z" fill="#F4C05A"/>
<path d="M70.8046 14.5713C70.8913 14.6581 70.9905 14.7262 71.1082 14.7634C71.3437 14.844 71.635 14.8068 71.8333 14.6581C71.9386 14.5775 72.0192 14.4722 72.075 14.3606C72.1989 14.1065 72.2113 13.8091 72.0812 13.5736C71.9882 13.4001 71.8209 13.2637 71.6288 13.1956C71.0586 13.4372 70.6434 13.9206 70.8046 14.5713V14.5713Z" fill="#F7D67E"/>
</svg>
