<svg width="148" height="148" viewBox="0 0 148 148" fill="none" xmlns="http://www.w3.org/2000/svg">
<circle cx="74" cy="73.999" r="69" transform="rotate(-27.8385 74 73.999)" stroke="#FF6F42" stroke-width="8"/>
<circle cx="74.0001" cy="74.0007" r="59.0484" transform="rotate(-27.8385 74.0001 74.0007)" stroke="#FF6F42" stroke-width="2"/>
<path d="M102.18 108.592C102.18 108.591 102.18 108.591 101.692 108.484L102.18 108.591L102.181 108.588C102.781 105.764 101.638 103.34 100.4 101.662C99.7785 100.82 99.1223 100.15 98.622 99.6904C98.3714 99.4604 98.1587 99.2821 98.0074 99.1604C97.9751 99.1344 97.9455 99.111 97.919 99.0901C97.5483 97.3468 96.9031 96.1793 96.3247 95.4343C96.0261 95.0496 95.7475 94.7804 95.5377 94.604C95.4329 94.5158 95.3453 94.4509 95.2811 94.4065C95.249 94.3842 95.2227 94.3671 95.203 94.3546C95.1932 94.3484 95.185 94.3434 95.1785 94.3395L95.1702 94.3345L95.167 94.3327L95.1657 94.3319L95.1651 94.3316C95.1648 94.3314 95.1645 94.3312 94.9152 94.7647L95.1645 94.3312C95.0209 94.2487 94.8457 94.2426 94.6967 94.315C93.5524 94.871 92.7302 95.7291 92.1989 96.4329C91.9319 96.7867 91.7342 97.107 91.6024 97.3406C91.5843 97.3726 91.5675 97.403 91.5518 97.4317C89.1213 97.4199 87.2066 98.4188 85.8977 99.4252C85.2139 99.9509 84.6896 100.483 84.3352 100.884C84.208 101.029 84.1024 101.156 84.0187 101.262C82.7164 100.852 81.5766 101.065 80.751 101.397C80.3023 101.578 79.9443 101.793 79.6971 101.965C79.5732 102.051 79.4762 102.127 79.4086 102.182C79.3747 102.21 79.3481 102.233 79.3291 102.25L79.3063 102.27L79.2992 102.277L79.2968 102.279L79.2958 102.28L79.2954 102.28C79.2952 102.28 79.295 102.281 79.6373 102.645L79.295 102.281C79.2228 102.348 79.1723 102.436 79.1501 102.533C78.7905 104.091 79.4231 105.58 80.0755 106.624C80.4072 107.155 80.7583 107.593 81.026 107.899C81.1423 108.032 81.2436 108.141 81.3217 108.222C81.2284 109.846 81.6433 111.375 82.0799 112.499C82.3105 113.093 82.5504 113.582 82.7334 113.924C82.8249 114.096 82.9025 114.23 82.958 114.324C82.9857 114.37 83.0079 114.406 83.0236 114.432L83.0421 114.461L83.0474 114.469L83.049 114.472L83.0496 114.473L83.0498 114.473C83.0499 114.473 83.05 114.473 83.4696 114.202L83.05 114.473C83.0565 114.484 83.0634 114.493 83.0706 114.503C84.8961 116.92 87.3179 117.727 89.2579 117.93C90.2262 118.031 91.0801 117.983 91.6925 117.91C91.9992 117.873 92.2468 117.83 92.4197 117.796C92.5062 117.778 92.5741 117.763 92.6215 117.752C92.6452 117.747 92.6638 117.742 92.677 117.739L92.6928 117.735L92.6976 117.734L92.6992 117.733L92.6999 117.733C92.6999 117.733 92.7 117.733 92.6956 117.716L92.7001 117.733C96.6567 116.685 99.03 114.408 100.409 112.39C101.097 111.383 101.538 110.442 101.807 109.75C101.942 109.404 102.034 109.119 102.093 108.919C102.122 108.818 102.144 108.739 102.158 108.683C102.165 108.656 102.17 108.634 102.174 108.618L102.178 108.6L102.179 108.594L102.18 108.592L102.18 108.592Z" fill="#FFDDCA" stroke="#FFDDCA" stroke-linejoin="round"/>
<mask id="path-4-outside-1_370_76531" maskUnits="userSpaceOnUse" x="67.5651" y="83.7658" width="47.2937" height="47.2937" fill="black">
<rect fill="white" x="67.5651" y="83.7658" width="47.2937" height="47.2937"/>
<path d="M81.81 103.929C81.81 103.929 81.2763 104.84 84.038 107.885C84.038 107.885 83.0562 111.23 85.2232 114.079C87.3901 116.929 91.5697 116.2 95.224 114.197C98.8783 112.195 100.979 107.254 99.9437 104.71C98.9079 102.166 98.1237 101.941 95.9567 100.378C95.9567 100.378 96.196 98.2966 94.8507 97.0098C94.8507 97.0098 93.2922 97.8353 93.2606 99.7397C93.2606 99.7397 87.901 99.0592 85.5388 104.109C85.5388 104.109 83.1952 102.872 81.8079 103.926L81.81 103.929Z"/>
</mask>
<path d="M81.81 103.929C81.81 103.929 81.2763 104.84 84.038 107.885C84.038 107.885 83.0562 111.23 85.2232 114.079C87.3901 116.929 91.5697 116.2 95.224 114.197C98.8783 112.195 100.979 107.254 99.9437 104.71C98.9079 102.166 98.1237 101.941 95.9567 100.378C95.9567 100.378 96.196 98.2966 94.8507 97.0098C94.8507 97.0098 93.2922 97.8353 93.2606 99.7397C93.2606 99.7397 87.901 99.0592 85.5388 104.109C85.5388 104.109 83.1952 102.872 81.8079 103.926L81.81 103.929Z" fill="#FF6F42"/>
<path d="M81.81 103.929L82.2414 104.182C82.3396 104.014 82.3319 103.805 82.2217 103.645L81.81 103.929ZM84.038 107.885L84.5178 108.026C84.5668 107.859 84.5254 107.678 84.4084 107.549L84.038 107.885ZM95.9567 100.378L95.46 100.321C95.4393 100.501 95.5174 100.678 95.6641 100.783L95.9567 100.378ZM94.8507 97.0098L95.1963 96.6485C95.0406 96.4995 94.807 96.4671 94.6167 96.5679L94.8507 97.0098ZM93.2606 99.7397L93.1976 100.236C93.3386 100.254 93.4806 100.211 93.588 100.118C93.6954 100.024 93.7582 99.8901 93.7605 99.748L93.2606 99.7397ZM85.5388 104.109L85.3053 104.552C85.4263 104.615 85.5681 104.627 85.6978 104.583C85.8275 104.54 85.9337 104.445 85.9917 104.321L85.5388 104.109ZM81.8079 103.926L81.5055 103.528C81.2927 103.69 81.2446 103.99 81.3962 104.21L81.8079 103.926ZM81.81 103.929C81.3786 103.676 81.3782 103.677 81.3777 103.678C81.3776 103.678 81.3771 103.679 81.3768 103.68C81.3762 103.681 81.3755 103.682 81.3749 103.683C81.3736 103.685 81.3724 103.687 81.3711 103.69C81.3685 103.694 81.3658 103.7 81.3631 103.705C81.3577 103.715 81.3521 103.727 81.3464 103.74C81.3351 103.766 81.3238 103.796 81.3133 103.831C81.2924 103.902 81.2759 103.988 81.2704 104.093C81.2596 104.303 81.2934 104.577 81.4162 104.93C81.6593 105.628 82.2654 106.675 83.6676 108.221L84.4084 107.549C83.0489 106.05 82.541 105.119 82.3606 104.601C82.2716 104.345 82.2662 104.201 82.2691 104.145C82.2706 104.117 82.2742 104.109 82.2716 104.117C82.2704 104.121 82.2678 104.129 82.263 104.14C82.2606 104.146 82.2576 104.152 82.2541 104.159C82.2523 104.162 82.2503 104.166 82.2482 104.17C82.2472 104.172 82.2461 104.174 82.2449 104.176C82.2444 104.177 82.2438 104.178 82.2432 104.179C82.2429 104.179 82.2425 104.18 82.2423 104.18C82.2419 104.181 82.2414 104.182 81.81 103.929ZM84.038 107.885C83.5582 107.744 83.5582 107.744 83.5581 107.745C83.5581 107.745 83.558 107.745 83.558 107.745C83.5579 107.745 83.5578 107.746 83.5576 107.746C83.5573 107.747 83.557 107.748 83.5566 107.75C83.5559 107.752 83.5549 107.756 83.5537 107.76C83.5513 107.769 83.5481 107.781 83.5441 107.795C83.5363 107.825 83.5256 107.867 83.5131 107.921C83.4882 108.028 83.456 108.181 83.4249 108.372C83.3629 108.754 83.3046 109.292 83.3181 109.924C83.345 111.188 83.6595 112.849 84.8252 114.382L85.6212 113.777C84.6199 112.46 84.3418 111.025 84.3179 109.903C84.3059 109.343 84.3577 108.867 84.412 108.532C84.4391 108.365 84.4667 108.235 84.487 108.148C84.4971 108.104 84.5054 108.072 84.5109 108.051C84.5136 108.041 84.5157 108.033 84.5168 108.029C84.5174 108.027 84.5178 108.026 84.518 108.025C84.5181 108.025 84.5181 108.025 84.518 108.025C84.518 108.025 84.518 108.025 84.518 108.025C84.5179 108.025 84.5179 108.025 84.5179 108.025C84.5178 108.026 84.5178 108.026 84.038 107.885ZM84.8252 114.382C86.033 115.97 87.7977 116.539 89.6873 116.457C91.5627 116.377 93.5974 115.659 95.4643 114.636L94.9837 113.759C93.1963 114.738 91.314 115.386 89.6443 115.458C87.9888 115.53 86.5803 115.038 85.6212 113.777L84.8252 114.382ZM95.4643 114.636C97.402 113.574 98.9066 111.749 99.7946 109.871C100.673 108.013 101.002 105.983 100.407 104.522L99.4806 104.899C99.9216 105.982 99.7176 107.694 98.8906 109.443C98.0734 111.172 96.7003 112.818 94.9837 113.759L95.4643 114.636ZM100.407 104.522C99.8727 103.209 99.3839 102.449 98.7197 101.815C98.0903 101.213 97.2882 100.722 96.2492 99.9725L95.6641 100.783C96.7921 101.597 97.4657 102 98.0291 102.538C98.5577 103.043 98.979 103.666 99.4806 104.899L100.407 104.522ZM95.9567 100.378C96.4534 100.435 96.4534 100.435 96.4534 100.435C96.4535 100.435 96.4535 100.434 96.4535 100.434C96.4535 100.434 96.4536 100.434 96.4536 100.433C96.4537 100.433 96.4538 100.432 96.4539 100.431C96.4541 100.429 96.4544 100.426 96.4547 100.423C96.4553 100.418 96.4561 100.41 96.457 100.4C96.4587 100.38 96.461 100.353 96.4633 100.319C96.4677 100.251 96.4723 100.154 96.473 100.036C96.4746 99.7997 96.4613 99.4712 96.402 99.0979C96.2844 98.3585 95.9779 97.3961 95.1963 96.6485L94.5051 97.3711C95.0688 97.9103 95.3153 98.6319 95.4144 99.255C95.4633 99.5628 95.4743 99.8351 95.4731 100.029C95.4724 100.126 95.4688 100.203 95.4654 100.253C95.4637 100.278 95.4622 100.297 95.4611 100.309C95.4606 100.314 95.4602 100.318 95.46 100.32C95.4599 100.321 95.4598 100.322 95.4598 100.322C95.4598 100.322 95.4598 100.322 95.4598 100.322C95.4598 100.322 95.4599 100.322 95.4599 100.321C95.4599 100.321 95.4599 100.321 95.4599 100.321C95.4599 100.321 95.46 100.321 95.9567 100.378ZM94.8507 97.0098C94.6167 96.5679 94.6164 96.568 94.6162 96.5682C94.6162 96.5682 94.6159 96.5683 94.6158 96.5684C94.6154 96.5686 94.6151 96.5688 94.6147 96.569C94.614 96.5694 94.6132 96.5698 94.6122 96.5703C94.6104 96.5713 94.6081 96.5725 94.6055 96.574C94.6003 96.5768 94.5936 96.5805 94.5856 96.5851C94.5695 96.5943 94.5478 96.607 94.5214 96.6233C94.4687 96.6558 94.3966 96.7027 94.3117 96.7648C94.1423 96.8886 93.9183 97.0749 93.6932 97.3291C93.2407 97.84 92.7789 98.6327 92.7607 99.7314L93.7605 99.748C93.7739 98.9423 94.1072 98.3699 94.4418 97.9921C94.6103 97.8019 94.7779 97.6627 94.9017 97.5722C94.9634 97.5272 95.0133 97.4948 95.0459 97.4747C95.0622 97.4647 95.0741 97.4577 95.0808 97.4539C95.0841 97.452 95.0862 97.4508 95.0869 97.4505C95.0872 97.4503 95.0872 97.4503 95.0869 97.4505C95.0867 97.4506 95.0864 97.4507 95.0861 97.4509C95.0859 97.451 95.0857 97.4511 95.0855 97.4512C95.0854 97.4513 95.0852 97.4514 95.0851 97.4514C95.0849 97.4515 95.0847 97.4516 94.8507 97.0098ZM93.2606 99.7397C93.3236 99.2436 93.3233 99.2436 93.323 99.2436C93.3229 99.2436 93.3226 99.2435 93.3224 99.2435C93.3219 99.2434 93.3213 99.2434 93.3207 99.2433C93.3194 99.2431 93.3178 99.2429 93.3158 99.2427C93.3119 99.2422 93.3067 99.2416 93.3003 99.2409C93.2874 99.2395 93.2694 99.2376 93.2467 99.2355C93.2012 99.2312 93.1365 99.2259 93.0545 99.2211C92.8908 99.2117 92.6578 99.2044 92.3722 99.2124C91.8022 99.2284 91.016 99.3052 90.1498 99.5495C88.4082 100.041 86.3419 101.212 85.0859 103.898L85.9917 104.321C87.0979 101.956 88.8925 100.943 90.4212 100.512C91.1902 100.295 91.8915 100.226 92.4002 100.212C92.654 100.205 92.8582 100.211 92.9968 100.219C93.0661 100.223 93.1188 100.228 93.1529 100.231C93.17 100.233 93.1825 100.234 93.19 100.235C93.1938 100.235 93.1963 100.236 93.1976 100.236C93.1982 100.236 93.1985 100.236 93.1986 100.236C93.1986 100.236 93.1985 100.236 93.1983 100.236C93.1982 100.236 93.1981 100.236 93.198 100.236C93.1978 100.236 93.1976 100.236 93.2606 99.7397ZM85.5388 104.109C85.7722 103.667 85.7721 103.667 85.7719 103.667C85.7719 103.667 85.7717 103.667 85.7716 103.667C85.7713 103.667 85.7711 103.667 85.7707 103.666C85.7701 103.666 85.7693 103.666 85.7684 103.665C85.7666 103.664 85.7642 103.663 85.7612 103.661C85.7553 103.658 85.7471 103.654 85.7368 103.649C85.7162 103.639 85.687 103.624 85.6501 103.607C85.5764 103.572 85.4713 103.524 85.3415 103.47C85.083 103.364 84.7204 103.232 84.3074 103.136C83.5112 102.949 82.3843 102.86 81.5055 103.528L82.1104 104.324C82.6189 103.938 83.3574 103.94 84.0797 104.109C84.4261 104.19 84.736 104.302 84.9603 104.395C85.0719 104.441 85.1607 104.481 85.2206 104.51C85.2504 104.524 85.273 104.535 85.2874 104.542C85.2946 104.546 85.2998 104.549 85.3028 104.55C85.3043 104.551 85.3053 104.552 85.3057 104.552C85.3059 104.552 85.306 104.552 85.3059 104.552C85.3059 104.552 85.3058 104.552 85.3057 104.552C85.3057 104.552 85.3056 104.552 85.3055 104.552C85.3054 104.552 85.3053 104.552 85.5388 104.109ZM81.3962 104.21L81.3983 104.213L82.2217 103.645L82.2196 103.642L81.3962 104.21Z" fill="#FF6F42" mask="url(#path-4-outside-1_370_76531)"/>
<ellipse cx="92.2101" cy="108.393" rx="4.70968" ry="3.53226" transform="rotate(-27.8385 92.2101 108.393)" fill="#FFDDCA"/>
<circle cx="90.7521" cy="109.163" r="1.17742" transform="rotate(-27.8385 90.7521 109.163)" fill="#FF6F42"/>
<circle cx="93.8757" cy="107.513" r="1.17742" transform="rotate(-27.8385 93.8757 107.513)" fill="#FF6F42"/>
<path d="M55.743 122.464C55.7427 122.464 55.7425 122.464 55.9293 122L55.7425 122.464L55.7393 122.462C53.0687 121.366 51.7115 119.055 51.0238 117.087C50.6784 116.098 50.4952 115.178 50.398 114.506C50.3493 114.17 50.322 113.894 50.3068 113.7C50.3035 113.659 50.3008 113.621 50.2986 113.587C49.0679 112.298 48.4674 111.107 48.1782 110.209C48.029 109.746 47.9637 109.364 47.9363 109.091C47.9226 108.955 47.9184 108.846 47.9179 108.768C47.9176 108.729 47.9183 108.697 47.9191 108.674C47.9195 108.662 47.92 108.653 47.9204 108.645L47.921 108.636L47.9213 108.632L47.9214 108.63L47.9215 108.63C47.9215 108.629 47.9215 108.629 48.42 108.668L47.9215 108.629C47.9343 108.464 48.028 108.316 48.1718 108.234C49.2763 107.602 50.4486 107.407 51.3294 107.365C51.7721 107.344 52.1482 107.361 52.4153 107.384C52.452 107.387 52.4866 107.39 52.5192 107.394C53.8798 105.38 55.7845 104.362 57.3536 103.848C58.1734 103.58 58.9084 103.447 59.4398 103.381C59.6306 103.357 59.7957 103.342 59.9297 103.332C60.3255 102.025 61.1443 101.204 61.8842 100.709C62.2862 100.441 62.6664 100.267 62.9475 100.159C63.0884 100.106 63.2056 100.068 63.2896 100.044C63.3317 100.031 63.3656 100.022 63.3901 100.016L63.4198 100.009L63.4292 100.007L63.4325 100.006L63.4337 100.006L63.4343 100.005C63.4345 100.005 63.4348 100.005 63.5429 100.493L63.4348 100.005C63.5315 99.9839 63.6324 99.9917 63.7247 100.028C65.2144 100.609 66.0879 101.972 66.582 103.099C66.8332 103.672 66.9975 104.209 67.0991 104.603C67.1432 104.774 67.1758 104.919 67.1987 105.029C68.5929 105.868 69.6214 107.073 70.3037 108.067C70.664 108.592 70.9329 109.066 71.1122 109.41C71.202 109.582 71.2697 109.723 71.3154 109.821C71.3383 109.87 71.3557 109.909 71.3676 109.936L71.3815 109.968L71.3854 109.977L71.3866 109.98L71.387 109.981L71.3871 109.981C71.3872 109.981 71.3873 109.981 70.9261 110.175L71.3873 109.981C71.3919 109.992 71.3961 110.004 71.4 110.015C72.3672 112.886 71.6679 115.341 70.7415 117.057C70.2791 117.914 69.7579 118.592 69.3522 119.057C69.149 119.289 68.9737 119.47 68.8478 119.593C68.7847 119.655 68.734 119.702 68.6981 119.735C68.6802 119.751 68.6659 119.764 68.6557 119.773L68.6435 119.784L68.6398 119.787L68.6385 119.788L68.638 119.789C68.638 119.789 68.6379 119.789 68.6264 119.776L68.6378 119.789C65.5411 122.466 62.3225 123.142 59.8782 123.143C58.659 123.144 57.6333 122.977 56.91 122.809C56.5481 122.725 56.261 122.64 56.0621 122.576C55.9627 122.544 55.8852 122.517 55.8314 122.497C55.8045 122.487 55.7835 122.479 55.7686 122.474L55.7509 122.467L55.7455 122.465L55.7437 122.464L55.743 122.464Z" fill="#FFDDCA" stroke="#FFDDCA" stroke-linejoin="round"/>
<mask id="path-10-outside-2_370_76531" maskUnits="userSpaceOnUse" x="37.3075" y="89.0932" width="47.2937" height="47.2937" fill="black">
<rect fill="white" x="37.3075" y="89.0932" width="47.2937" height="47.2937"/>
<path d="M63.3788 103.011C63.3788 103.011 64.4319 103.084 65.3895 107.082C65.3895 107.082 68.7057 108.157 69.837 111.553C70.9684 114.949 68.0098 117.99 64.2955 119.879C60.5812 121.768 55.3161 120.717 53.7989 118.427C52.2817 116.137 52.5385 115.363 52.4692 112.692C52.4692 112.692 50.6154 111.716 50.3112 109.879C50.3112 109.879 51.8717 109.058 53.4623 110.105C53.4623 110.105 55.9224 105.295 61.4251 106.192C61.4251 106.192 61.7247 103.559 63.3775 103.008L63.3788 103.011Z"/>
</mask>
<path d="M63.3788 103.011C63.3788 103.011 64.4319 103.084 65.3895 107.082C65.3895 107.082 68.7057 108.157 69.837 111.553C70.9684 114.949 68.0098 117.99 64.2955 119.879C60.5812 121.768 55.3161 120.717 53.7989 118.427C52.2817 116.137 52.5385 115.363 52.4692 112.692C52.4692 112.692 50.6154 111.716 50.3112 109.879C50.3112 109.879 51.8717 109.058 53.4623 110.105C53.4623 110.105 55.9224 105.295 61.4251 106.192C61.4251 106.192 61.7247 103.559 63.3775 103.008L63.3788 103.011Z" fill="#FF6F42"/>
<path d="M63.3788 103.011L63.3443 103.51C63.1506 103.496 62.9822 103.372 62.9123 103.191L63.3788 103.011ZM65.3895 107.082L65.2353 107.557C65.0696 107.503 64.9438 107.367 64.9032 107.198L65.3895 107.082ZM52.4692 112.692L52.7021 112.249C52.8623 112.334 52.9644 112.498 52.9691 112.679L52.4692 112.692ZM50.3112 109.879L49.8179 109.961C49.7827 109.749 49.8876 109.537 50.0782 109.437L50.3112 109.879ZM53.4623 110.105L53.9075 110.333C53.8427 110.46 53.7272 110.553 53.5898 110.589C53.4523 110.625 53.306 110.601 53.1873 110.523L53.4623 110.105ZM61.4251 106.192L61.9219 106.249C61.9065 106.385 61.836 106.508 61.7269 106.591C61.6179 106.673 61.4797 106.708 61.3447 106.686L61.4251 106.192ZM63.3775 103.008L63.2192 102.533C63.4726 102.449 63.7478 102.578 63.8439 102.828L63.3775 103.008ZM63.3788 103.011C63.4132 102.512 63.4142 102.512 63.4151 102.512C63.4154 102.512 63.4163 102.512 63.4169 102.512C63.4182 102.513 63.4194 102.513 63.4207 102.513C63.4232 102.513 63.4259 102.513 63.4286 102.513C63.4339 102.514 63.4396 102.515 63.4455 102.515C63.4574 102.517 63.4702 102.519 63.4841 102.522C63.5119 102.527 63.5433 102.535 63.5781 102.546C63.6478 102.568 63.7289 102.603 63.8185 102.658C63.9977 102.767 64.205 102.949 64.4271 103.25C64.8667 103.844 65.3895 104.935 65.8757 106.965L64.9032 107.198C64.4319 105.23 63.9494 104.286 63.623 103.844C63.4621 103.627 63.3463 103.541 63.2981 103.512C63.274 103.497 63.2653 103.496 63.2738 103.498C63.2778 103.5 63.2857 103.502 63.2976 103.504C63.3035 103.505 63.3104 103.506 63.3182 103.507C63.3221 103.508 63.3262 103.508 63.3305 103.509C63.3327 103.509 63.335 103.509 63.3373 103.509C63.3384 103.509 63.3396 103.509 63.3408 103.51C63.3413 103.51 63.3422 103.51 63.3425 103.51C63.3434 103.51 63.3443 103.51 63.3788 103.011ZM65.3895 107.082C65.5437 106.606 65.5439 106.606 65.5441 106.606C65.5442 106.606 65.5445 106.606 65.5446 106.606C65.545 106.606 65.5454 106.606 65.5459 106.607C65.5468 106.607 65.5479 106.607 65.5492 106.608C65.5519 106.609 65.5553 106.61 65.5595 106.611C65.568 106.614 65.5795 106.618 65.594 106.623C65.623 106.633 65.6638 106.648 65.715 106.668C65.8175 106.708 65.9619 106.768 66.1374 106.85C66.4878 107.014 66.9651 107.269 67.4797 107.637C68.5078 108.371 69.7028 109.568 70.3114 111.395L69.3627 111.711C68.8399 110.142 67.8111 109.103 66.8983 108.451C66.4425 108.125 66.02 107.899 65.7133 107.755C65.5602 107.684 65.4367 107.633 65.3533 107.601C65.3117 107.584 65.2801 107.573 65.26 107.566C65.2499 107.562 65.2427 107.56 65.2385 107.558C65.2365 107.558 65.2351 107.557 65.2346 107.557C65.2343 107.557 65.2342 107.557 65.2343 107.557C65.2344 107.557 65.2345 107.557 65.2346 107.557C65.2347 107.557 65.2349 107.557 65.2349 107.557C65.2351 107.557 65.2353 107.557 65.3895 107.082ZM70.3114 111.395C70.942 113.288 70.4165 115.066 69.2838 116.581C68.1597 118.084 66.4197 119.36 64.5222 120.325L64.0689 119.433C65.8856 118.509 67.4821 117.32 68.483 115.982C69.4753 114.655 69.8634 113.214 69.3627 111.711L70.3114 111.395ZM64.5222 120.325C62.5526 121.326 60.197 121.54 58.1449 121.214C56.1155 120.892 54.2533 120.019 53.3821 118.704L54.2157 118.151C54.8617 119.126 56.3907 119.923 58.3017 120.227C60.1901 120.526 62.3241 120.321 64.0689 119.433L64.5222 120.325ZM53.3821 118.704C52.5997 117.523 52.2471 116.69 52.0977 115.784C51.9562 114.925 52.0026 113.986 51.9694 112.705L52.9691 112.679C53.0051 114.069 52.9578 114.853 53.0844 115.621C53.2033 116.343 53.4809 117.042 54.2157 118.151L53.3821 118.704ZM52.4692 112.692C52.2363 113.134 52.2362 113.134 52.236 113.134C52.2359 113.134 52.2358 113.134 52.2356 113.134C52.2354 113.134 52.2351 113.134 52.2348 113.134C52.2341 113.133 52.2334 113.133 52.2325 113.132C52.2308 113.131 52.2286 113.13 52.226 113.129C52.2208 113.126 52.2138 113.122 52.2052 113.117C52.1881 113.108 52.1643 113.094 52.1348 113.077C52.0759 113.042 51.9939 112.992 51.8956 112.926C51.6997 112.794 51.4358 112.597 51.161 112.338C50.6167 111.824 49.9946 111.028 49.8179 109.961L50.8045 109.798C50.9319 110.567 51.3889 111.178 51.8476 111.611C52.0742 111.825 52.2929 111.987 52.454 112.096C52.5343 112.15 52.5995 112.19 52.6431 112.216C52.665 112.229 52.6813 112.238 52.6914 112.244C52.6965 112.246 52.7 112.248 52.7018 112.249C52.7027 112.25 52.7032 112.25 52.7033 112.25C52.7033 112.25 52.7032 112.25 52.703 112.25C52.7029 112.25 52.7028 112.25 52.7027 112.25C52.7026 112.25 52.7025 112.25 52.7024 112.25C52.7023 112.25 52.7021 112.249 52.4692 112.692ZM50.3112 109.879C50.0782 109.437 50.0784 109.437 50.0787 109.437C50.0787 109.437 50.079 109.437 50.0791 109.436C50.0794 109.436 50.0798 109.436 50.0802 109.436C50.0809 109.436 50.0817 109.435 50.0827 109.435C50.0846 109.434 50.0868 109.432 50.0895 109.431C50.0948 109.428 50.1016 109.425 50.11 109.421C50.1266 109.413 50.1493 109.402 50.1776 109.389C50.2342 109.364 50.3136 109.331 50.4128 109.296C50.6106 109.226 50.8907 109.146 51.2276 109.103C51.9047 109.018 52.8197 109.083 53.7373 109.688L53.1873 110.523C52.5143 110.08 51.8538 110.032 51.353 110.096C51.1009 110.127 50.8915 110.187 50.7469 110.239C50.6749 110.264 50.62 110.287 50.585 110.303C50.5676 110.311 50.5552 110.316 50.5482 110.32C50.5448 110.322 50.5426 110.323 50.5419 110.323C50.5416 110.323 50.5416 110.323 50.542 110.323C50.5421 110.323 50.5424 110.323 50.5428 110.322C50.543 110.322 50.5432 110.322 50.5434 110.322C50.5435 110.322 50.5437 110.322 50.5437 110.322C50.5439 110.322 50.5441 110.322 50.3112 109.879ZM53.4623 110.105C53.0171 109.878 53.0173 109.878 53.0174 109.877C53.0175 109.877 53.0176 109.877 53.0177 109.877C53.0179 109.876 53.0182 109.876 53.0185 109.875C53.0191 109.874 53.0198 109.873 53.0207 109.871C53.0225 109.867 53.025 109.863 53.028 109.857C53.0341 109.846 53.0427 109.83 53.0537 109.81C53.0758 109.77 53.108 109.713 53.1502 109.643C53.2347 109.502 53.3602 109.306 53.5278 109.074C53.8624 108.613 54.3691 108.007 55.0593 107.429C56.447 106.268 58.5797 105.222 61.5056 105.699L61.3447 106.686C58.7678 106.266 56.9191 107.176 55.7011 108.196C55.0884 108.709 54.6362 109.249 54.3375 109.661C54.1886 109.867 54.0788 110.039 54.0073 110.158C53.9715 110.218 53.9454 110.264 53.9288 110.294C53.9205 110.309 53.9146 110.32 53.911 110.326C53.9093 110.33 53.9081 110.332 53.9075 110.333C53.9072 110.334 53.907 110.334 53.907 110.334C53.907 110.334 53.9071 110.334 53.9071 110.334C53.9072 110.334 53.9073 110.333 53.9073 110.333C53.9074 110.333 53.9075 110.333 53.4623 110.105ZM61.4251 106.192C60.9283 106.136 60.9284 106.135 60.9284 106.135C60.9284 106.135 60.9284 106.135 60.9284 106.135C60.9285 106.135 60.9285 106.134 60.9285 106.134C60.9286 106.133 60.9287 106.132 60.9288 106.131C60.9291 106.129 60.9294 106.127 60.9298 106.123C60.9306 106.117 60.9318 106.107 60.9333 106.096C60.9364 106.073 60.9409 106.041 60.9472 106.001C60.9598 105.92 60.9795 105.806 61.0085 105.669C61.0663 105.395 61.1622 105.022 61.3152 104.626C61.6104 103.863 62.1722 102.883 63.2192 102.533L63.5357 103.482C62.9299 103.684 62.5156 104.295 62.2478 104.987C62.1194 105.319 62.0371 105.638 61.987 105.875C61.9621 105.993 61.9455 106.09 61.9352 106.155C61.9301 106.188 61.9266 106.213 61.9245 106.229C61.9234 106.237 61.9227 106.242 61.9223 106.246C61.9221 106.247 61.9219 106.249 61.9219 106.249C61.9219 106.249 61.9218 106.249 61.9219 106.249C61.9219 106.249 61.9219 106.249 61.9219 106.249C61.9219 106.249 61.9219 106.249 61.9219 106.249C61.9219 106.249 61.9219 106.249 61.4251 106.192ZM63.8439 102.828L63.8453 102.831L62.9123 103.191L62.911 103.188L63.8439 102.828Z" fill="#FF6F42" mask="url(#path-10-outside-2_370_76531)"/>
<ellipse rx="4.70968" ry="3.53226" transform="matrix(-0.884267 0.466981 0.466981 0.884267 61.2012 114.118)" fill="#FFDDCA"/>
<circle r="1.17742" transform="matrix(-0.884267 0.466981 0.466981 0.884267 62.6591 113.347)" fill="#FF6F42"/>
<circle r="1.17742" transform="matrix(-0.884267 0.466981 0.466981 0.884267 59.5355 114.997)" fill="#FF6F42"/>
<path d="M123.81 86.5173C123.81 86.517 123.81 86.5168 123.322 86.4095L123.81 86.5168L123.811 86.5135C124.411 83.6896 123.269 81.2659 122.031 79.588C121.409 78.7454 120.753 78.0754 120.252 77.6162C120.002 77.3862 119.789 77.2079 119.638 77.0862C119.605 77.0602 119.576 77.0367 119.549 77.0159C119.179 75.2726 118.534 74.1051 117.955 73.36C117.657 72.9754 117.378 72.7062 117.168 72.5298C117.063 72.4416 116.976 72.3767 116.911 72.3322C116.879 72.31 116.853 72.2928 116.833 72.2804C116.824 72.2742 116.815 72.2692 116.809 72.2653L116.801 72.2603L116.797 72.2585L116.796 72.2577L116.795 72.2573C116.795 72.2572 116.795 72.257 116.546 72.6905L116.795 72.257C116.651 72.1744 116.476 72.1683 116.327 72.2407C115.183 72.7967 114.361 73.6549 113.829 74.3587C113.562 74.7125 113.365 75.0328 113.233 75.2663C113.215 75.2984 113.198 75.3288 113.182 75.3575C110.752 75.3456 108.837 76.3446 107.528 77.351C106.844 77.8767 106.32 78.4087 105.966 78.8103C105.838 78.9544 105.733 79.0822 105.649 79.1874C104.347 78.7774 103.207 78.9907 102.381 79.3228C101.933 79.5033 101.575 79.7192 101.328 79.8908C101.204 79.9769 101.107 80.0525 101.039 80.1081C101.005 80.1359 100.979 80.1588 100.959 80.1756L100.937 80.196L100.93 80.2025L100.927 80.2048L100.926 80.2056L100.926 80.206C100.926 80.2062 100.925 80.2064 101.268 80.5709L100.925 80.2064C100.853 80.2742 100.803 80.3619 100.78 80.4585C100.421 82.0168 101.053 83.5063 101.706 84.5501C102.038 85.0807 102.389 85.5193 102.656 85.8251C102.773 85.9579 102.874 86.0665 102.952 86.1476C102.859 87.7721 103.274 89.3007 103.71 90.4249C103.941 91.0186 104.181 91.5079 104.364 91.85C104.455 92.0213 104.533 92.1562 104.588 92.2494C104.616 92.296 104.638 92.3322 104.654 92.3574L104.672 92.3868L104.678 92.3952L104.679 92.3977L104.68 92.3986L104.68 92.399C104.68 92.3991 104.68 92.3992 105.1 92.1274L104.68 92.3992C104.687 92.4093 104.694 92.4191 104.701 92.4287C106.526 94.8462 108.948 95.6529 110.888 95.8557C111.857 95.9569 112.711 95.9089 113.323 95.8357C113.63 95.7991 113.877 95.7559 114.05 95.7214C114.137 95.7042 114.204 95.689 114.252 95.678C114.276 95.6724 114.294 95.6679 114.307 95.6646L114.323 95.6606L114.328 95.6593L114.33 95.6589L114.33 95.6587C114.33 95.6587 114.33 95.6587 114.326 95.6417L114.33 95.6587C118.287 94.6103 120.66 92.3334 122.04 90.3156C122.728 89.309 123.168 88.3678 123.437 87.6758C123.572 87.3295 123.664 87.0448 123.723 86.8443C123.753 86.744 123.774 86.6647 123.788 86.6092C123.795 86.5814 123.8 86.5596 123.804 86.5441L123.808 86.5256L123.81 86.5199L123.81 86.518L123.81 86.5173Z" fill="#FFDDCA" stroke="#FFDDCA" stroke-linejoin="round"/>
<mask id="path-16-outside-3_370_76531" maskUnits="userSpaceOnUse" x="89.1955" y="61.6916" width="47.2937" height="47.2937" fill="black">
<rect fill="white" x="89.1955" y="61.6916" width="47.2937" height="47.2937"/>
<path d="M103.44 81.8549C103.44 81.8549 102.907 82.7657 105.668 85.8107C105.668 85.8107 104.687 89.1558 106.854 92.0051C109.021 94.8545 113.2 94.1257 116.854 92.1232C120.509 90.1208 122.61 85.1801 121.574 82.6358C120.538 80.0915 119.754 79.8671 117.587 78.3037C117.587 78.3037 117.826 76.2224 116.481 74.9356C116.481 74.9356 114.923 75.761 114.891 77.6654C114.891 77.6654 109.531 76.985 107.169 82.0352C107.169 82.0352 104.826 80.7979 103.438 81.8519L103.44 81.8549Z"/>
</mask>
<path d="M103.44 81.8549C103.44 81.8549 102.907 82.7657 105.668 85.8107C105.668 85.8107 104.687 89.1558 106.854 92.0051C109.021 94.8545 113.2 94.1257 116.854 92.1232C120.509 90.1208 122.61 85.1801 121.574 82.6358C120.538 80.0915 119.754 79.8671 117.587 78.3037C117.587 78.3037 117.826 76.2224 116.481 74.9356C116.481 74.9356 114.923 75.761 114.891 77.6654C114.891 77.6654 109.531 76.985 107.169 82.0352C107.169 82.0352 104.826 80.7979 103.438 81.8519L103.44 81.8549Z" fill="#FF6F42"/>
<path d="M103.44 81.8549L103.872 82.1077C103.97 81.9402 103.962 81.7311 103.852 81.5712L103.44 81.8549ZM105.668 85.8107L106.148 85.9515C106.197 85.7844 106.156 85.6038 106.039 85.4748L105.668 85.8107ZM117.587 78.3037L117.09 78.2466C117.07 78.4264 117.148 78.6033 117.295 78.7092L117.587 78.3037ZM116.481 74.9356L116.827 74.5742C116.671 74.4253 116.437 74.3929 116.247 74.4937L116.481 74.9356ZM114.891 77.6654L114.828 78.1615C114.969 78.1794 115.111 78.1364 115.218 78.0433C115.326 77.9503 115.389 77.8159 115.391 77.6737L114.891 77.6654ZM107.169 82.0352L106.936 82.4773C107.057 82.5412 107.199 82.5527 107.328 82.5092C107.458 82.4657 107.564 82.3709 107.622 82.247L107.169 82.0352ZM103.438 81.8519L103.136 81.4538C102.923 81.6154 102.875 81.9157 103.027 82.1357L103.438 81.8519ZM103.44 81.8549C103.009 81.6021 103.009 81.6029 103.008 81.6037C103.008 81.604 103.007 81.6048 103.007 81.6053C103.007 81.6064 103.006 81.6075 103.005 81.6086C103.004 81.6108 103.003 81.6131 103.001 81.6155C102.999 81.6203 102.996 81.6253 102.993 81.6306C102.988 81.6413 102.982 81.653 102.977 81.666C102.965 81.6919 102.954 81.7222 102.944 81.7571C102.923 81.8273 102.906 81.9142 102.901 82.019C102.89 82.2285 102.924 82.5026 103.047 82.8553C103.29 83.5536 103.896 84.6006 105.298 86.1466L106.039 85.4748C104.679 83.9759 104.171 83.0449 103.991 82.5266C103.902 82.271 103.897 82.1271 103.899 82.0707C103.901 82.0425 103.905 82.0344 103.902 82.0429C103.901 82.047 103.898 82.0548 103.893 82.0659C103.891 82.0714 103.888 82.0777 103.884 82.0847C103.883 82.0882 103.881 82.0919 103.879 82.0957C103.878 82.0976 103.876 82.0996 103.875 82.1016C103.875 82.1026 103.874 82.1036 103.874 82.1046C103.873 82.1052 103.873 82.1059 103.873 82.1062C103.872 82.107 103.872 82.1077 103.44 81.8549ZM105.668 85.8107C105.189 85.6699 105.189 85.6701 105.188 85.6703C105.188 85.6704 105.188 85.6707 105.188 85.6708C105.188 85.6712 105.188 85.6716 105.188 85.6721C105.188 85.673 105.187 85.6741 105.187 85.6755C105.186 85.6782 105.185 85.6816 105.184 85.6859C105.182 85.6945 105.178 85.7063 105.174 85.7212C105.167 85.7509 105.156 85.793 105.143 85.8465C105.119 85.9535 105.086 86.1065 105.055 86.2977C104.993 86.6797 104.935 87.2178 104.948 87.8501C104.975 89.1134 105.29 90.775 106.456 92.3078L107.252 91.7025C106.25 90.3859 105.972 88.9503 105.948 87.8288C105.936 87.2687 105.988 86.7924 106.042 86.4581C106.069 86.2912 106.097 86.1606 106.117 86.0735C106.128 86.03 106.136 85.9975 106.141 85.9768C106.144 85.9665 106.146 85.9591 106.147 85.9549C106.148 85.9528 106.148 85.9514 106.148 85.9508C106.148 85.9506 106.148 85.9505 106.148 85.9506C106.148 85.9507 106.148 85.9508 106.148 85.9509C106.148 85.951 106.148 85.9512 106.148 85.9512C106.148 85.9514 106.148 85.9515 105.668 85.8107ZM106.456 92.3078C107.663 93.896 109.428 94.4646 111.318 94.3832C113.193 94.3024 115.228 93.5847 117.095 92.5617L116.614 91.6848C114.827 92.6642 112.944 93.3122 111.275 93.3841C109.619 93.4554 108.211 92.9636 107.252 91.7025L106.456 92.3078ZM117.095 92.5617C119.032 91.4999 120.537 89.6749 121.425 87.7964C122.303 85.9387 122.632 83.9083 122.037 82.4473L121.111 82.8244C121.552 83.9076 121.348 85.6197 120.521 87.369C119.704 89.0976 118.331 90.7441 116.614 91.6848L117.095 92.5617ZM122.037 82.4473C121.503 81.1353 121.014 80.3746 120.35 79.7403C119.721 79.1393 118.919 78.6479 117.88 77.8982L117.295 78.7092C118.422 79.523 119.096 79.9255 119.659 80.4635C120.188 80.9684 120.609 81.5921 121.111 82.8244L122.037 82.4473ZM117.587 78.3037C118.084 78.3608 118.084 78.3607 118.084 78.3605C118.084 78.3604 118.084 78.3602 118.084 78.3601C118.084 78.3598 118.084 78.3594 118.084 78.3591C118.084 78.3584 118.084 78.3575 118.084 78.3566C118.084 78.3546 118.085 78.3522 118.085 78.3492C118.086 78.3433 118.086 78.3354 118.087 78.3256C118.089 78.306 118.091 78.2788 118.094 78.2447C118.098 78.1764 118.103 78.0802 118.103 77.9617C118.105 77.7255 118.092 77.397 118.032 77.0237C117.915 76.2843 117.608 75.3219 116.827 74.5742L116.135 75.2969C116.699 75.8361 116.946 76.5577 117.045 77.1807C117.094 77.4886 117.105 77.7609 117.103 77.9551C117.103 78.0519 117.099 78.1283 117.096 78.1789C117.094 78.2042 117.093 78.2229 117.091 78.2344C117.091 78.2402 117.091 78.2442 117.09 78.2462C117.09 78.2473 117.09 78.2478 117.09 78.2479C117.09 78.2479 117.09 78.2478 117.09 78.2476C117.09 78.2475 117.09 78.2474 117.09 78.2472C117.09 78.2471 117.09 78.247 117.09 78.2469C117.09 78.2468 117.09 78.2466 117.587 78.3037ZM116.481 74.9356C116.247 74.4937 116.247 74.4938 116.247 74.4939C116.247 74.494 116.246 74.4941 116.246 74.4942C116.246 74.4944 116.245 74.4945 116.245 74.4947C116.244 74.4951 116.244 74.4956 116.243 74.4961C116.241 74.4971 116.239 74.4983 116.236 74.4997C116.231 74.5026 116.224 74.5063 116.216 74.5109C116.2 74.5201 116.178 74.5328 116.152 74.5491C116.099 74.5815 116.027 74.6285 115.942 74.6906C115.773 74.8144 115.549 75.0006 115.324 75.2549C114.871 75.7658 114.409 76.5584 114.391 77.6571L115.391 77.6737C115.404 76.868 115.738 76.2957 116.072 75.9178C116.241 75.7276 116.408 75.5885 116.532 75.498C116.594 75.4529 116.644 75.4205 116.676 75.4005C116.693 75.3904 116.704 75.3835 116.711 75.3797C116.715 75.3778 116.717 75.3766 116.717 75.3763C116.718 75.3761 116.718 75.3761 116.717 75.3763C116.717 75.3764 116.717 75.3765 116.716 75.3767C116.716 75.3768 116.716 75.3769 116.716 75.377C116.716 75.3771 116.716 75.3772 116.715 75.3772C116.715 75.3773 116.715 75.3774 116.481 74.9356ZM114.891 77.6654C114.954 77.1694 114.954 77.1694 114.953 77.1694C114.953 77.1693 114.953 77.1693 114.953 77.1693C114.952 77.1692 114.952 77.1691 114.951 77.1691C114.95 77.1689 114.948 77.1687 114.946 77.1685C114.942 77.168 114.937 77.1674 114.931 77.1667C114.918 77.1653 114.9 77.1634 114.877 77.1612C114.832 77.157 114.767 77.1516 114.685 77.1469C114.521 77.1374 114.288 77.1302 114.003 77.1382C113.433 77.1542 112.646 77.231 111.78 77.4753C110.039 77.9664 107.972 79.1381 106.716 81.8233L107.622 82.247C108.728 79.882 110.523 78.8688 112.052 78.4377C112.821 78.2208 113.522 78.1521 114.031 78.1378C114.284 78.1307 114.489 78.1372 114.627 78.1452C114.696 78.1492 114.749 78.1536 114.783 78.1568C114.8 78.1584 114.813 78.1598 114.82 78.1606C114.824 78.161 114.827 78.1613 114.828 78.1615C114.829 78.1615 114.829 78.1616 114.829 78.1616C114.829 78.1616 114.829 78.1616 114.829 78.1616C114.829 78.1615 114.828 78.1615 114.828 78.1615C114.828 78.1615 114.828 78.1615 114.891 77.6654ZM107.169 82.0352C107.403 81.593 107.402 81.5929 107.402 81.5928C107.402 81.5928 107.402 81.5927 107.402 81.5927C107.402 81.5925 107.401 81.5924 107.401 81.5922C107.4 81.5919 107.4 81.5915 107.399 81.591C107.397 81.59 107.395 81.5888 107.392 81.5873C107.386 81.5842 107.377 81.58 107.367 81.5748C107.347 81.5645 107.317 81.5501 107.281 81.5325C107.207 81.4975 107.102 81.4496 106.972 81.396C106.713 81.2895 106.351 81.158 105.938 81.0614C105.142 80.8752 104.015 80.7861 103.136 81.4538L103.741 82.25C104.249 81.8637 104.988 81.8662 105.71 82.0351C106.056 82.1161 106.366 82.2281 106.591 82.3205C106.702 82.3665 106.791 82.4071 106.851 82.4356C106.881 82.4498 106.903 82.4609 106.918 82.4682C106.925 82.4718 106.93 82.4745 106.933 82.476C106.935 82.4768 106.936 82.4773 106.936 82.4775C106.936 82.4776 106.936 82.4777 106.936 82.4776C106.936 82.4776 106.936 82.4776 106.936 82.4775C106.936 82.4775 106.936 82.4774 106.936 82.4774C106.936 82.4774 106.936 82.4773 107.169 82.0352ZM103.027 82.1357L103.029 82.1387L103.852 81.5712L103.85 81.5682L103.027 82.1357Z" fill="#FF6F42" mask="url(#path-16-outside-3_370_76531)"/>
<ellipse cx="113.84" cy="86.3187" rx="4.70968" ry="3.53226" transform="rotate(-27.8385 113.84 86.3187)" fill="#FFDDCA"/>
<circle cx="112.382" cy="87.089" r="1.17742" transform="rotate(-27.8385 112.382 87.089)" fill="#FF6F42"/>
<circle cx="115.506" cy="85.4386" r="1.17742" transform="rotate(-27.8385 115.506 85.4386)" fill="#FF6F42"/>
<path d="M44.7089 38.7515C44.577 38.5016 44.5525 38.2705 44.6356 38.0579C44.7256 37.8417 44.892 37.6695 45.135 37.5412C45.3849 37.4092 45.621 37.3689 45.8433 37.4201C46.0657 37.4714 46.2428 37.6219 46.3748 37.8718L50.6635 45.9928C50.7954 46.2427 50.8199 46.4739 50.7368 46.6864C50.6538 46.8989 50.4873 47.0712 50.2374 47.2031C49.9945 47.3314 49.7584 47.3718 49.5291 47.3242C49.3067 47.273 49.1296 47.1224 48.9976 46.8725L44.7089 38.7515ZM45.0859 42.4405C45.3608 42.9611 45.5545 43.4624 45.6671 43.9444C45.7759 44.4196 45.7981 44.865 45.7336 45.2807C45.6691 45.6965 45.5074 46.0793 45.2483 46.4292C44.9925 46.7684 44.6355 47.059 44.1774 47.301C43.7193 47.5429 43.2746 47.6757 42.8432 47.6993C42.4151 47.7123 42.0112 47.6283 41.6315 47.4471C41.2518 47.2659 40.8964 46.9964 40.5654 46.6386C40.2308 46.2739 39.926 45.8312 39.6511 45.3106C39.3761 44.79 39.1842 44.2922 39.0754 43.8171C38.9628 43.335 38.9388 42.8861 39.0033 42.4704C39.0678 42.0546 39.2279 41.6771 39.4837 41.3378C39.7428 40.988 40.1014 40.6921 40.5595 40.4502C41.0176 40.2082 41.4607 40.0808 41.8888 40.0677C42.3202 40.0441 42.7257 40.1229 43.1054 40.304C43.4852 40.4852 43.8424 40.7582 44.177 41.1229C44.508 41.4807 44.811 41.9199 45.0859 42.4405ZM43.4406 45.9058C43.6489 45.7958 43.7949 45.6521 43.8787 45.4747C43.9589 45.2904 43.993 45.0859 43.981 44.8615C43.9759 44.6334 43.9266 44.3887 43.833 44.1274C43.7357 43.8592 43.612 43.5828 43.4617 43.2982C43.3151 43.0206 43.1584 42.766 42.9918 42.5345C42.8251 42.3029 42.649 42.1207 42.4634 41.9879C42.2848 41.8514 42.0987 41.7678 41.9048 41.737C41.7074 41.6992 41.5045 41.7353 41.2963 41.8453C41.0881 41.9553 40.9439 42.1024 40.8637 42.2868C40.7799 42.4642 40.7405 42.667 40.7455 42.8951C40.7576 43.1196 40.8122 43.3659 40.9094 43.6341C41.0067 43.9023 41.1286 44.1752 41.2753 44.4529C41.4255 44.7375 41.584 44.9955 41.7507 45.2271C41.9137 45.4517 42.0845 45.6322 42.2631 45.7687C42.4486 45.9015 42.6401 45.9868 42.8376 46.0246C43.0314 46.0554 43.2324 46.0158 43.4406 45.9058Z" fill="#FF6F42"/>
<path d="M54.6773 33.4739C54.549 33.231 54.5264 33.0033 54.6094 32.7908C54.6994 32.5746 54.8659 32.4023 55.1088 32.274C55.3518 32.1457 55.5844 32.1072 55.8067 32.1584C56.036 32.206 56.2148 32.3513 56.3431 32.5942L59.0923 37.8C59.2206 38.0429 59.2397 38.2725 59.1497 38.4887C59.0667 38.7012 58.9037 38.8716 58.6607 38.9999C58.4178 39.1282 58.1817 39.1685 57.9524 39.121C57.7301 39.0697 57.5547 38.9226 57.4264 38.6797L56.0409 36.056L54.6249 36.8038L55.1032 37.7096C55.2829 38.0497 55.3348 38.3329 55.2591 38.5593C55.1903 38.7821 54.9858 38.9833 54.6457 39.1629L51.6264 40.7574C51.2863 40.937 51.0014 40.9942 50.7717 40.9291C50.542 40.864 50.3374 40.6614 50.1578 40.3213L48.3983 36.9896C48.27 36.7466 48.2423 36.5261 48.3151 36.3278C48.3843 36.1226 48.5404 35.9559 48.7833 35.8276C49.0262 35.6993 49.2519 35.6644 49.4604 35.723C49.6652 35.7746 49.8317 35.9219 49.96 36.1648L50.3669 36.9353L52.2098 35.9621L51.8029 35.1916C51.6746 34.9487 51.6434 34.7299 51.7093 34.5354C51.7785 34.3302 51.9345 34.1634 52.1775 34.0351C52.4204 33.9068 52.6426 33.8738 52.8441 33.936C53.0489 33.9877 53.2155 34.1349 53.3438 34.3779L53.8936 35.419L55.3096 34.6713L54.6773 33.4739ZM53.1999 40.9383C53.4429 40.8101 53.6808 40.7732 53.9138 40.8277C54.1467 40.8822 54.3292 41.0344 54.4611 41.2843L55.1045 42.5024C55.1448 42.5788 55.1808 42.6218 55.2127 42.6317C55.2445 42.6415 55.2986 42.6263 55.3749 42.5859L59.8102 40.2436C60.0323 40.1264 60.237 40.0937 60.4243 40.1457C60.6115 40.1977 60.7638 40.3348 60.8811 40.5569C60.9984 40.779 61.0257 40.9821 60.9631 41.1661C60.9005 41.35 60.7581 41.5007 60.536 41.618L55.1845 44.4441C54.8444 44.6237 54.5648 44.6826 54.3457 44.6208C54.1266 44.5589 53.9291 44.3614 53.7532 44.0282L52.7745 42.175C52.6425 41.9251 52.6197 41.6886 52.706 41.4655C52.7924 41.2424 52.957 41.0666 53.1999 40.9383ZM51.5326 39.1425C51.5729 39.2189 51.6277 39.2387 51.6972 39.2021L53.3318 38.3388C53.4012 38.3022 53.4157 38.2457 53.3754 38.1693L52.8366 37.149L50.9937 38.1222L51.5326 39.1425Z" fill="#FF6F42"/>
<path d="M60.1374 31.7622C59.9153 31.8795 59.7037 31.9158 59.5026 31.8711C59.2978 31.8195 59.1367 31.6826 59.0194 31.4605C58.9021 31.2384 58.8817 31.0317 58.9582 30.8403C59.0311 30.6421 59.1786 30.4843 59.4007 30.367L65.1478 27.3319C65.3699 27.2147 65.5834 27.1818 65.7882 27.2334C65.9893 27.2781 66.1486 27.4115 66.2658 27.6336C66.3831 27.8558 66.4054 28.0659 66.3325 28.2642C66.256 28.4555 66.1067 28.6098 65.8846 28.7271L63.8648 29.7938C64.0054 29.9592 64.1958 30.0761 64.4361 30.1445C64.6764 30.2129 64.9477 30.256 65.2501 30.2739C65.5488 30.2848 65.8681 30.2759 66.2081 30.2473C66.555 30.215 66.9088 30.1791 67.2696 30.1394C67.5043 30.1131 67.7058 30.1754 67.8742 30.3261C68.0458 30.4663 68.143 30.6502 68.1656 30.8779C68.1882 31.1057 68.1258 31.2984 67.9783 31.4562C67.8308 31.614 67.6365 31.7166 67.3952 31.7641C67.0981 31.8234 66.783 31.8655 66.45 31.8905C66.1239 31.9117 65.7993 31.919 65.4761 31.9121C65.1529 31.9052 64.8434 31.8823 64.5476 31.8432C64.2551 31.7935 63.9921 31.7327 63.7588 31.6606C63.6867 31.8939 63.5853 32.1473 63.4544 32.4205C63.3268 32.6832 63.1747 32.9499 62.9982 33.2207C62.8216 33.4915 62.6291 33.7574 62.4207 34.0183C62.2193 34.2756 62.0103 34.5102 61.7938 34.7222C61.6186 34.8946 61.4242 34.9973 61.2108 35.0301C60.9973 35.0629 60.8029 35.0058 60.6276 34.8587C60.4523 34.7116 60.3517 34.5295 60.3258 34.3124C60.3032 34.0847 60.3689 33.8813 60.5229 33.7023C60.7591 33.4267 60.9848 33.1566 61.2001 32.892C61.4224 32.6237 61.6132 32.3631 61.7726 32.1103C61.9284 31.8505 62.0423 31.604 62.1143 31.3706C62.1933 31.1336 62.2042 30.9104 62.1469 30.701L60.1374 31.7622ZM61.7844 37.3769C61.5484 37.5016 61.3333 37.5397 61.1391 37.4913C60.9449 37.443 60.7855 37.3008 60.6609 37.0648C60.5362 36.8288 60.5087 36.617 60.5783 36.4294C60.6478 36.2417 60.8006 36.0856 61.0366 35.961L68.8453 31.8372C69.0813 31.7126 69.2963 31.6744 69.4905 31.7228C69.6847 31.7711 69.8441 31.9133 69.9688 32.1493C70.0934 32.3853 70.1209 32.5971 70.0514 32.7848C69.9818 32.9724 69.829 33.1286 69.593 33.2532L66.5216 34.8752L67.6598 37.0304C67.7954 37.2872 67.8199 37.5184 67.7331 37.724C67.6534 37.9259 67.4851 38.0947 67.2282 38.2303C66.9714 38.3659 66.7337 38.4116 66.515 38.3673C66.3032 38.3193 66.1296 38.1669 65.9939 37.9101L64.8558 35.7549L61.7844 37.3769Z" fill="#FF6F42"/>
<path d="M33.8996 88.6509L33.0513 87.0445C31.6098 87.5205 30.3321 87.5865 29.2184 87.2426C28.1118 86.8759 27.2639 86.1349 26.6748 85.0193C25.9678 83.6807 25.9159 82.3576 26.5188 81.0501C27.1218 79.7425 28.3305 78.6096 30.1451 77.6513C31.9597 76.693 33.5769 76.3336 34.9968 76.5729C36.4166 76.8122 37.48 77.6011 38.187 78.9398C38.7761 80.0553 38.9026 81.1773 38.5665 82.3059C38.2375 83.4117 37.47 84.4257 36.264 85.3479L37.1006 86.932C37.7393 86.5566 38.3443 86.1895 38.9157 85.8307C39.4871 85.4719 40.069 85.079 40.6615 84.652C41.0614 84.3647 41.4419 84.2208 41.803 84.2203C42.1563 84.2049 42.4723 84.371 42.7509 84.7184C43.0216 85.051 43.1537 85.4092 43.1472 85.7931C43.1328 86.1621 42.9598 86.5007 42.6281 86.8091C41.8683 87.4956 40.9871 88.1322 39.9844 88.7188C38.9966 89.2975 37.9746 89.8657 36.9186 90.4234L31.5418 93.2629C31.0658 93.5143 30.6355 93.6179 30.2508 93.5738C29.8661 93.5297 29.548 93.2696 29.2967 92.7937C29.0453 92.3177 29.006 91.901 29.1786 91.5435C29.3512 91.186 29.6755 90.8816 30.1515 90.6303L33.8996 88.6509ZM38.5201 75.1402C38.2452 74.6196 38.1818 74.1395 38.3301 73.6998C38.4932 73.2523 38.835 72.891 39.3556 72.6161C39.891 72.3333 40.3821 72.2547 40.8288 72.3802C41.2755 72.5057 41.6364 72.8287 41.9113 73.3493L43.9496 77.209L45.5559 76.3607C46.0319 76.1094 46.4701 76.0206 46.8705 76.0945C47.2858 76.1605 47.6309 76.4538 47.9058 76.9744C48.1729 77.4801 48.2166 77.923 48.0369 78.3032C47.8721 78.6756 47.5518 78.9874 47.0758 79.2388L45.4695 80.0871L48.0969 85.0623C48.3718 85.5829 48.4277 86.0669 48.2646 86.5145C48.1164 86.9542 47.782 87.3115 47.2614 87.5864C46.7408 87.8613 46.2497 87.94 45.7881 87.8223C45.3414 87.6968 44.9806 87.3738 44.7057 86.8532L38.5201 75.1402ZM35.4985 92.5429C36.0191 92.268 36.5067 92.2007 36.9612 92.3411C37.4158 92.4815 37.7845 92.8194 38.0672 93.3549L38.892 94.9166C38.9784 95.0802 39.0557 95.1725 39.1239 95.1936C39.192 95.2147 39.3079 95.182 39.4716 95.0956L49.3997 89.8525C49.8757 89.6012 50.3143 89.5312 50.7155 89.6427C51.1246 89.769 51.4391 90.0405 51.6591 90.4569C51.879 90.8734 51.9258 91.2862 51.7995 91.6953C51.6731 92.1044 51.372 92.4346 50.896 92.686L39.2054 98.8598C38.4765 99.2447 37.8774 99.3709 37.408 99.2383C36.9534 99.098 36.5376 98.6708 36.1606 97.9569L34.676 95.1458C34.3933 94.6103 34.3221 94.1153 34.4625 93.6607C34.6177 93.1983 34.9631 92.8257 35.4985 92.5429ZM34.7958 80.7306C34.4973 80.1655 34.0429 79.8633 33.4326 79.8242C32.8371 79.7772 32.2047 79.9305 31.5354 80.284C30.8661 80.6374 30.3755 81.0772 30.0637 81.6033C29.7667 82.1215 29.7675 82.6633 30.066 83.2285C30.3644 83.7937 30.8114 84.0997 31.4068 84.1467C32.0172 84.1858 32.657 84.0286 33.3263 83.6751C33.9956 83.3217 34.4788 82.8858 34.7757 82.3676C35.0876 81.8415 35.0942 81.2958 34.7958 80.7306Z" fill="#FF6F42"/>
<path d="M50.8788 71.1245C50.4028 71.3758 49.9493 71.4536 49.5183 71.3579C49.0795 71.2472 48.7344 70.9539 48.483 70.478C48.2316 70.002 48.1879 69.5591 48.3519 69.1491C48.508 68.7243 48.824 68.3862 49.2999 68.1349L61.6153 61.6311C62.0913 61.3798 62.5487 61.3094 62.9875 61.4201C63.4185 61.5158 63.7597 61.8017 64.0111 62.2776C64.2624 62.7536 64.31 63.204 64.154 63.6288C63.99 64.0387 63.6701 64.3694 63.1941 64.6207L58.8659 66.9065C59.1672 67.2609 59.5753 67.5114 60.0902 67.658C60.6051 67.8046 61.1865 67.897 61.8344 67.9352C62.4745 67.9586 63.1588 67.9397 63.8873 67.8783C64.6306 67.8091 65.3888 67.7321 66.1619 67.6472C66.6648 67.5909 67.0966 67.7242 67.4575 68.0473C67.8253 68.3476 68.0334 68.7417 68.0819 69.2297C68.1304 69.7177 67.9966 70.1307 67.6806 70.4688C67.3645 70.8069 66.9481 71.0268 66.4312 71.1286C65.7945 71.2556 65.1193 71.3459 64.4057 71.3994C63.707 71.445 63.0113 71.4605 62.3188 71.4458C61.6262 71.4311 60.963 71.3818 60.3291 71.2981C59.7023 71.1917 59.1388 71.0612 58.6388 70.9068C58.4844 71.4068 58.267 71.9497 57.9865 72.5352C57.7131 73.0981 57.3873 73.6697 57.0089 74.2499C56.6305 74.8301 56.2181 75.3999 55.7716 75.959C55.3399 76.5104 54.8921 77.0132 54.4282 77.4674C54.0527 77.8369 53.6362 78.0568 53.1788 78.1272C52.7214 78.1976 52.3048 78.0751 51.9291 77.76C51.5535 77.4448 51.3379 77.0546 51.2824 76.5893C51.2339 76.1013 51.3747 75.6655 51.7048 75.282C52.2108 74.6914 52.6945 74.1126 53.1559 73.5455C53.6322 72.9706 54.0412 72.4123 54.3828 71.8705C54.7165 71.3138 54.9606 70.7854 55.115 70.2854C55.2843 69.7775 55.3075 69.2992 55.1847 68.8505L50.8788 71.1245ZM54.4079 83.1561C53.9022 83.4231 53.4413 83.5049 53.0252 83.4013C52.609 83.2976 52.2674 82.993 52.0004 82.4873C51.7333 81.9816 51.6743 81.5277 51.8234 81.1256C51.9725 80.7235 52.2998 80.3889 52.8055 80.1219L69.5384 71.2853C70.0441 71.0182 70.505 70.9365 70.9211 71.0401C71.3372 71.1437 71.6788 71.4484 71.9459 71.9541C72.213 72.4598 72.272 72.9137 72.1229 73.3158C71.9738 73.7179 71.6464 74.0524 71.1407 74.3195L64.5592 77.7952L66.9981 82.4135C67.2887 82.9638 67.3411 83.4592 67.1552 83.8998C66.9843 84.3324 66.6236 84.6941 66.0733 84.9847C65.523 85.2753 65.0135 85.3732 64.5449 85.2783C64.0912 85.1755 63.719 84.8489 63.4284 84.2986L60.9895 79.6804L54.4079 83.1561Z" fill="#FF6F42"/>
<path d="M83.9127 64.2648C84.9836 63.6993 86.0163 63.2776 87.0109 62.9996C88.0124 62.699 88.9312 62.5657 89.7671 62.5998C90.603 62.6339 91.3487 62.8393 92.0042 63.2159C92.6596 63.5926 93.1916 64.1677 93.6 64.9411C94.0084 65.7145 94.1834 66.4781 94.1249 67.2318C94.0665 67.9855 93.8156 68.7172 93.3724 69.4268C92.9292 70.1364 92.3011 70.82 91.4881 71.4776C90.6978 72.1422 89.7672 72.7573 88.6963 73.3229C87.6254 73.8884 86.5852 74.3141 85.5758 74.5999C84.5891 74.8927 83.6778 75.022 82.8419 74.9879C82.006 74.9539 81.2603 74.7485 80.6048 74.3718C79.9494 73.9951 79.4174 73.42 79.009 72.6466C78.6005 71.8732 78.4256 71.1096 78.484 70.3559C78.5425 69.6022 78.7934 68.8705 79.2366 68.1609C79.6798 67.4513 80.3004 66.7717 81.0986 66.1219C81.9038 65.4494 82.8418 64.8304 83.9127 64.2648ZM77.4507 62.456C77.3431 63.3688 77.1297 64.2614 76.8105 65.1337C76.4913 66.0061 76.069 66.8093 75.5436 67.5433C75.2152 68.002 74.8274 68.3304 74.3804 68.5285C73.9404 68.7038 73.4844 68.6688 73.0124 68.4234C72.5405 68.1781 72.2501 67.8084 72.1413 67.3142C72.0474 66.8122 72.145 66.2946 72.4341 65.7615C73.1726 64.4584 73.619 63.2146 73.7732 62.0298C73.9274 60.8451 73.7139 59.7025 73.1327 58.6018L72.5082 57.4194C72.2255 56.8839 72.1849 56.4108 72.3864 56C72.5801 55.5743 72.9447 55.2201 73.4801 54.9374C74.0156 54.6546 74.5137 54.5532 74.9744 54.6333C75.4273 54.6984 75.7951 54.9988 76.0779 55.5342L76.7024 56.7167C77.2836 57.8173 78.0685 58.6012 79.057 59.0683C80.0455 59.5354 81.2743 59.809 82.7433 59.8892C83.3309 59.9213 83.7981 60.1216 84.1448 60.4901C84.5065 60.8507 84.6477 61.2802 84.5685 61.7786C84.4893 62.2769 84.2571 62.6658 83.8721 62.9453C83.4941 63.202 83.027 63.344 82.4708 63.3714C81.6287 63.3977 80.7849 63.3487 79.9394 63.2245C79.0861 63.0855 78.2565 62.8293 77.4507 62.456ZM82.2306 52.0567C81.9557 51.5362 81.9072 51.0482 82.0852 50.5928C82.278 50.1295 82.6347 49.7604 83.1553 49.4855C83.6759 49.2106 84.1744 49.128 84.6509 49.2378C85.1422 49.3398 85.5253 49.651 85.8002 50.1716L90.1007 58.3149C90.3756 58.8355 90.4167 59.3274 90.2238 59.7907C90.0458 60.2461 89.6966 60.6112 89.176 60.8861C88.6554 61.1611 88.1494 61.2475 87.6581 61.1456C87.1817 61.0358 86.806 60.7206 86.5311 60.2L84.6341 56.6081L82.3138 57.8334C81.8379 58.0848 81.3883 58.17 80.9652 58.0891C80.542 58.0082 80.1969 57.7149 79.9299 57.2092C79.6628 56.7035 79.6152 56.2531 79.787 55.8581C79.9588 55.463 80.2826 55.1398 80.7586 54.8884L83.0789 53.6631L82.2306 52.0567ZM87.2588 70.601C87.7943 70.3182 88.2655 70.0218 88.6724 69.7118C89.1021 69.4088 89.4413 69.0966 89.6899 68.775C89.9535 68.4456 90.1156 68.1223 90.1762 67.8049C90.2439 67.4648 90.1953 67.1386 90.0303 66.8262C89.8654 66.5139 89.6273 66.2972 89.3161 66.1762C89.012 66.0325 88.6496 65.9766 88.2289 66.0085C87.8232 66.0326 87.374 66.1366 86.8815 66.3206C86.3961 66.4819 85.8856 66.7039 85.3501 66.9867C84.8147 67.2695 84.3361 67.5698 83.9143 67.8877C83.4995 68.1828 83.1603 68.4951 82.8968 68.8245C82.6481 69.146 82.4899 69.4768 82.4222 69.8169C82.3616 70.1343 82.4137 70.4491 82.5787 70.7615C82.7436 71.0738 82.9782 71.3019 83.2823 71.4456C83.5935 71.5666 83.952 71.615 84.3577 71.591C84.7784 71.559 85.2275 71.455 85.7051 71.2789C86.2055 71.1097 86.7234 70.8838 87.2588 70.601Z" fill="#FF6F42"/>
<path d="M104.896 54.2394C106.011 53.6503 107.081 53.1902 108.104 52.8589C109.12 52.5128 110.053 52.3341 110.902 52.3227C111.745 52.2965 112.489 52.4454 113.136 52.7697C113.79 53.0711 114.309 53.5863 114.694 54.3151C115.079 55.0439 115.215 55.7707 115.103 56.4955C114.992 57.2203 114.68 57.927 114.169 58.6155C113.665 59.3189 112.984 59.9924 112.126 60.636C111.29 61.2866 110.329 61.8986 109.243 62.472C108.158 63.0454 107.103 63.4977 106.079 63.829C105.079 64.1672 104.146 64.346 103.281 64.3652C102.424 64.3993 101.665 64.2582 101.003 63.9418C100.342 63.6254 99.8183 63.1029 99.4335 62.3741C99.0486 61.6452 98.9085 60.9298 99.0133 60.2277C99.1251 59.5029 99.4292 58.8002 99.9258 58.1195C100.414 57.424 101.088 56.7544 101.946 56.1108C102.797 55.4523 103.78 54.8286 104.896 54.2394ZM111.178 45.9286C111.684 45.6616 112.133 45.5575 112.525 45.6165C112.933 45.6676 113.27 45.9461 113.537 46.4518C113.804 46.9575 113.844 47.393 113.656 47.7583C113.484 48.1158 113.145 48.428 112.639 48.6951L95.9507 57.5081C95.445 57.7752 94.9884 57.8832 94.581 57.832C94.1884 57.773 93.8586 57.4907 93.5916 56.985C93.3245 56.4793 93.2773 56.0477 93.4499 55.6902C93.6374 55.3249 93.984 55.0087 94.4897 54.7416L99.6434 52.02L98.4534 49.7666C98.1707 49.2312 98.1222 48.7432 98.308 48.3026C98.4939 47.8621 98.8545 47.5005 99.39 47.2177C99.9254 46.9349 100.427 46.841 100.896 46.9359C101.365 47.0308 101.74 47.346 102.023 47.8815L103.213 50.1348L111.178 45.9286ZM94.1272 47.5717C93.6215 47.8388 93.1649 47.9467 92.7575 47.8956C92.3649 47.8366 92.0351 47.5542 91.768 47.0485C91.501 46.5428 91.4538 46.1112 91.6264 45.7538C91.8139 45.3885 92.1605 45.0723 92.6662 44.8052L103.487 39.0909C104.245 38.6903 104.875 38.5672 105.375 38.7216C105.89 38.8682 106.308 39.2464 106.63 39.8562L107.266 41.0609C107.361 41.2394 107.467 41.459 107.586 41.7197C107.696 41.9656 107.808 42.2302 107.919 42.5136C108.046 42.7892 108.161 43.0613 108.265 43.3298C108.369 43.5984 108.457 43.8372 108.529 44.0463C108.667 44.4871 108.635 44.9318 108.434 45.3801C108.234 45.8285 107.835 46.1722 107.239 46.4112C106.642 46.6502 106.161 46.6759 105.796 46.4884C105.422 46.286 105.152 45.9723 104.985 45.5471C104.857 45.2339 104.714 44.891 104.555 44.5183C104.412 44.1378 104.273 43.8211 104.139 43.5683L103.798 42.9213C103.711 42.7576 103.63 42.6767 103.555 42.6784C103.487 42.6573 103.371 42.69 103.208 42.7764L94.1272 47.5717ZM106.345 56.9836C105.14 57.6199 104.21 58.2538 103.554 58.8853C102.906 59.4941 102.707 60.0365 102.958 60.5125C103.21 60.9884 103.77 61.1302 104.638 60.9379C105.53 60.7525 106.578 60.3417 107.782 59.7055C108.987 59.0693 109.91 58.4393 110.551 57.8156C111.214 57.1989 111.42 56.6526 111.169 56.1767C110.917 55.7007 110.35 55.5628 109.467 55.7631C108.59 55.9405 107.55 56.3474 106.345 56.9836Z" fill="#FF6F42"/>
<path d="M25.9546 68.748L96.753 31.3595" stroke="#FF6F42" stroke-width="2" stroke-linecap="round"/>
</svg>
