<svg width="41" height="20" viewBox="0 0 41 20" fill="none" xmlns="http://www.w3.org/2000/svg">
<path d="M11.0971 12.6475L11.0971 12.6475L11.0932 12.6532C10.8936 12.9479 10.6338 13.1816 10.2983 13.3592C9.995 13.5198 9.59579 13.621 9.06515 13.621H7.20915V5.961H9.06515C9.59579 5.961 9.995 6.06224 10.2983 6.22279C10.6261 6.39632 10.8841 6.63137 11.0851 6.93766L11.0951 6.95289L11.1056 6.96775C11.3301 7.28396 11.506 7.67352 11.6203 8.15362L11.6229 8.16452L11.6258 8.17536C11.7564 8.67414 11.8242 9.2115 11.8242 9.791C11.8242 10.3705 11.7564 10.9079 11.6258 11.4066L11.6229 11.4175L11.6203 11.4284C11.5057 11.9099 11.3279 12.3117 11.0971 12.6475ZM16.7912 13.4208L16.7927 13.4165C17.172 12.3258 17.3522 11.1127 17.3522 9.791C17.3522 8.18681 17.1402 6.78795 16.6698 5.63513C16.2168 4.51119 15.5879 3.57227 14.7604 2.86157C13.9581 2.15868 13.0308 1.66759 11.9909 1.39105C11.0197 1.12917 10.0084 1 8.96015 1H4.73915C3.89643 1 3.08127 1.21385 2.48497 1.81624C1.89051 2.41676 1.68115 3.2344 1.68115 4.079V15.482C1.68115 16.3266 1.89051 17.1442 2.48497 17.7448C3.08127 18.3471 3.89643 18.561 4.73915 18.561H8.89715C10.1717 18.561 11.3449 18.3713 12.4014 17.9712C13.4527 17.5729 14.3589 16.9901 15.1005 16.2156C15.8507 15.4326 16.4119 14.4952 16.7912 13.4208ZM35.2534 17.8952L35.261 17.9032L35.2689 17.9111C35.8099 18.4522 36.5079 18.687 37.257 18.687C38.0101 18.687 38.7229 18.4575 39.2606 17.8952C39.7803 17.3519 40 16.6594 40 15.923V4.079C40 3.2449 39.8161 2.41996 39.2466 1.8201C38.6648 1.19164 37.8184 1 36.984 1H34.107C33.4282 1 32.7753 1.1526 32.227 1.54097L32.805 2.357L32.227 1.54097C31.5509 2.01987 31.301 2.76062 31.301 3.512C31.301 4.26338 31.5509 5.00413 32.227 5.48302C32.7753 5.8714 33.4282 6.024 34.107 6.024H34.514V15.923C34.514 16.6594 34.7337 17.352 35.2534 17.8952ZM28.3546 8.03495C27.8096 7.67161 27.1657 7.531 26.4979 7.531H20.2609C19.5932 7.531 18.9493 7.67161 18.4042 8.03495C17.7043 8.50155 17.4549 9.25276 17.4549 10.001C17.4549 10.7492 17.7043 11.5005 18.4042 11.9671C18.9493 12.3304 19.5932 12.471 20.2609 12.471H26.4979C27.1657 12.471 27.8096 12.3304 28.3546 11.9671C29.0545 11.5005 29.3039 10.7492 29.3039 10.001C29.3039 9.25276 29.0545 8.50155 28.3546 8.03495Z" fill="#FF6F42" stroke="white" stroke-width="2"/>
</svg>
