<svg width="44" height="20" viewBox="0 0 44 20" fill="none" xmlns="http://www.w3.org/2000/svg">
<path d="M10.8002 12.9625L10.8002 12.9625L10.7964 12.9682C10.5967 13.2629 10.3369 13.4966 10.0014 13.6742C9.69813 13.8348 9.29891 13.936 8.76828 13.936H6.91228V6.276H8.76828C9.29891 6.276 9.69813 6.37724 10.0014 6.53779C10.3292 6.71132 10.5872 6.94637 10.7882 7.25266L10.7982 7.26789L10.8088 7.28275C11.0332 7.59896 11.2092 7.98852 11.3235 8.46862L11.3261 8.47952L11.3289 8.49036C11.4595 8.98914 11.5273 9.5265 11.5273 10.106C11.5273 10.6855 11.4595 11.2229 11.3289 11.7216L11.3261 11.7325L11.3235 11.7434C11.2088 12.2249 11.0311 12.6267 10.8002 12.9625ZM16.4943 13.7358L16.4958 13.7315C16.8752 12.6408 17.0553 11.4277 17.0553 10.106C17.0553 8.50181 16.8434 7.10295 16.373 5.95013C15.9199 4.82618 15.291 3.88725 14.4635 3.17655C13.6612 2.47365 12.7339 1.98257 11.6939 1.70603C10.7228 1.44417 9.71154 1.315 8.66328 1.315H4.44228C3.59955 1.315 2.78439 1.52886 2.18809 2.13124C1.59364 2.73176 1.38428 3.5494 1.38428 4.394V15.797C1.38428 16.6416 1.59364 17.4592 2.18809 18.0598C2.78439 18.6621 3.59955 18.876 4.44228 18.876H8.60028C9.87482 18.876 11.0481 18.6863 12.1045 18.2862C13.1558 17.8879 14.0621 17.3051 14.8036 16.5306C15.5539 15.7476 16.1151 14.8102 16.4943 13.7358ZM40.1731 13.873H37.969L39.5135 12.1354L39.5168 12.1316C39.8414 11.7629 40.1449 11.3856 40.4273 10.9999C40.7364 10.597 41.0089 10.1764 41.2436 9.73822C41.4842 9.28912 41.6723 8.8262 41.8049 8.35001C41.9582 7.85082 42.0341 7.33595 42.0341 6.809C42.0341 5.92908 41.8828 5.10955 41.5521 4.37284C41.2445 3.6432 40.7951 3.01683 40.2041 2.50948C39.6283 1.98924 38.9438 1.61061 38.1702 1.3633C37.4143 1.1172 36.6021 1 35.7421 1C34.6109 1 33.5404 1.20489 32.5414 1.62381C31.5033 2.05914 30.6526 2.73777 30.0103 3.65051L30.0103 3.65048L30.0049 3.65827C29.6349 4.19483 29.4081 4.79511 29.4081 5.444C29.4081 6.17522 29.7327 6.7943 30.3073 7.22734C30.6027 7.45349 30.9478 7.61725 31.3377 7.67295L31.3377 7.67299L31.347 7.67423C31.6877 7.71966 32.0295 7.69777 32.3628 7.60252L32.394 7.59363L32.4245 7.58274C32.7002 7.48428 32.9643 7.35055 33.2169 7.18818C33.4788 7.01978 33.7229 6.81942 33.9502 6.59211C34.3573 6.18505 34.8417 5.982 35.4691 5.982C35.8218 5.982 36.0752 6.08251 36.2862 6.26441L36.2925 6.26987L36.2989 6.27522C36.4782 6.42461 36.5691 6.59879 36.5691 6.893C36.5691 7.18978 36.5053 7.47983 36.3689 7.77212L36.3657 7.77901L36.3626 7.78594C36.2128 8.12008 36.0125 8.46483 35.756 8.81988C35.4876 9.17709 35.1852 9.53784 34.8475 9.90194C34.4814 10.2821 34.1223 10.6624 33.77 11.0429C33.7698 11.0431 33.7696 11.0433 33.7694 11.0436L30.4346 14.6301C30.4341 14.6306 30.4337 14.631 30.4332 14.6315C30.201 14.8793 29.9929 15.1266 29.8117 15.3736C29.5048 15.7922 29.3871 16.2794 29.3871 16.763C29.3871 17.3583 29.5936 17.953 30.1219 18.3649C30.5602 18.7204 31.0829 18.876 31.6261 18.876H40.1731C40.8516 18.876 41.4861 18.6888 42.0341 18.2917C42.6925 17.8307 43.0001 17.137 43.0001 16.364C43.0001 15.5868 42.6892 14.8898 42.0233 14.4288C41.4744 14.0488 40.8438 13.873 40.1731 13.873ZM28.0578 8.34995C27.5128 7.98661 26.8688 7.846 26.2011 7.846H19.9641C19.2963 7.846 18.6524 7.98661 18.1074 8.34995C17.4075 8.81655 17.1581 9.56776 17.1581 10.316C17.1581 11.0642 17.4075 11.8155 18.1074 12.2821C18.6524 12.6454 19.2963 12.786 19.9641 12.786H26.2011C26.8688 12.786 27.5128 12.6454 28.0578 12.2821C28.7577 11.8155 29.0071 11.0642 29.0071 10.316C29.0071 9.56776 28.7577 8.81655 28.0578 8.34995Z" fill="#FF6F42" stroke="white" stroke-width="2"/>
</svg>
