<svg width="68" height="25" viewBox="0 0 68 25" fill="none" xmlns="http://www.w3.org/2000/svg">
<mask id="path-1-outside-1_1034_80576" maskUnits="userSpaceOnUse" x="0.425537" y="0" width="68" height="25" fill="black">
<rect fill="white" x="0.425537" width="68" height="25"/>
<path d="M5.95354 14.936H8.80954C9.46754 14.936 10.0345 14.81 10.5105 14.558C10.9865 14.306 11.3715 13.963 11.6655 13.529C11.9735 13.081 12.1975 12.563 12.3375 11.975C12.4915 11.387 12.5685 10.764 12.5685 10.106C12.5685 9.448 12.4915 8.825 12.3375 8.237C12.1975 7.649 11.9735 7.138 11.6655 6.704C11.3715 6.256 10.9865 5.906 10.5105 5.654C10.0345 5.402 9.46754 5.276 8.80954 5.276H5.95354V14.936ZM2.42554 4.394C2.42554 3.008 3.11154 2.315 4.48354 2.315H8.70454C9.67054 2.315 10.5945 2.434 11.4765 2.672C12.3725 2.91 13.1635 3.33 13.8495 3.932C14.5355 4.52 15.0815 5.318 15.4875 6.326C15.8935 7.32 16.0965 8.58 16.0965 10.106C16.0965 11.338 15.9285 12.437 15.5925 13.403C15.2565 14.355 14.7665 15.167 14.1225 15.839C13.4925 16.497 12.7155 17.001 11.7915 17.351C10.8675 17.701 9.81754 17.876 8.64154 17.876H4.48354C3.11154 17.876 2.42554 17.183 2.42554 15.797V4.394Z"/>
<path d="M26.2423 8.846C26.7743 8.846 27.2083 8.958 27.5443 9.182C27.8803 9.406 28.0483 9.784 28.0483 10.316C28.0483 10.848 27.8803 11.226 27.5443 11.45C27.2083 11.674 26.7743 11.786 26.2423 11.786H20.0053C19.4733 11.786 19.0393 11.674 18.7033 11.45C18.3673 11.226 18.1993 10.848 18.1993 10.316C18.1993 9.784 18.3673 9.406 18.7033 9.182C19.0393 8.958 19.4733 8.846 20.0053 8.846H26.2423Z"/>
<path d="M37.2324 3.596C37.2324 3.106 37.3724 2.721 37.6524 2.441C37.9464 2.147 38.3384 2 38.8284 2C39.3184 2 39.7034 2.147 39.9834 2.441C40.2774 2.721 40.4244 3.106 40.4244 3.596V16.448C40.4244 16.938 40.2774 17.323 39.9834 17.603C39.7034 17.883 39.3184 18.023 38.8284 18.023C38.3524 18.023 38.0094 17.897 37.7994 17.645C37.5894 17.393 37.4494 17.064 37.3794 16.658C37.0714 17.232 36.6584 17.631 36.1404 17.855C35.6364 18.079 35.0274 18.191 34.3134 18.191C33.6134 18.191 32.9974 18.037 32.4654 17.729C31.9474 17.435 31.5064 17.036 31.1424 16.532C30.7784 16.028 30.5054 15.454 30.3234 14.81C30.1414 14.166 30.0504 13.494 30.0504 12.794C30.0504 12.094 30.1414 11.422 30.3234 10.778C30.5054 10.12 30.7784 9.539 31.1424 9.035C31.5064 8.531 31.9474 8.132 32.4654 7.838C32.9974 7.53 33.6134 7.376 34.3134 7.376C35.6854 7.376 36.6584 7.81 37.2324 8.678V3.596ZM33.1584 12.794C33.1584 13.606 33.3474 14.278 33.7254 14.81C34.1034 15.328 34.6214 15.587 35.2794 15.587C35.9374 15.587 36.4484 15.328 36.8124 14.81C37.1764 14.278 37.3584 13.606 37.3584 12.794C37.3584 11.968 37.1764 11.296 36.8124 10.778C36.4484 10.26 35.9374 10.001 35.2794 10.001C34.6214 10.001 34.1034 10.26 33.7254 10.778C33.3474 11.296 33.1584 11.968 33.1584 12.794Z"/>
<path d="M53.2032 16.469C53.2032 16.959 53.0632 17.337 52.7832 17.603C52.5032 17.869 52.1182 18.002 51.6282 18.002C51.1802 18.002 50.8442 17.876 50.6202 17.624C50.3962 17.372 50.2492 17.064 50.1792 16.7C49.9552 17.148 49.5982 17.505 49.1082 17.771C48.6182 18.051 47.9952 18.191 47.2392 18.191C46.5672 18.191 45.9512 18.051 45.3912 17.771C44.8312 17.491 44.3552 17.106 43.9632 16.616C43.5712 16.126 43.2632 15.552 43.0392 14.894C42.8292 14.236 42.7242 13.522 42.7242 12.752C42.7242 11.982 42.8292 11.275 43.0392 10.631C43.2632 9.973 43.5642 9.406 43.9422 8.93C44.3342 8.454 44.7962 8.083 45.3282 7.817C45.8742 7.537 46.4762 7.397 47.1342 7.397C47.8902 7.397 48.5202 7.53 49.0242 7.796C49.5422 8.062 49.9272 8.398 50.1792 8.804C50.2352 8.44 50.3822 8.146 50.6202 7.922C50.8582 7.684 51.2012 7.565 51.6492 7.565C52.1392 7.565 52.5172 7.719 52.7832 8.027C53.0632 8.321 53.2032 8.713 53.2032 9.203V16.469ZM45.8322 12.794C45.8322 13.606 46.0282 14.278 46.4202 14.81C46.8262 15.328 47.3582 15.587 48.0162 15.587C48.6742 15.587 49.1922 15.328 49.5702 14.81C49.9622 14.278 50.1582 13.606 50.1582 12.794C50.1582 11.982 49.9622 11.317 49.5702 10.799C49.1922 10.267 48.6742 10.001 48.0162 10.001C47.3582 10.001 46.8262 10.267 46.4202 10.799C46.0282 11.317 45.8322 11.982 45.8322 12.794Z"/>
<path d="M60.7291 13.823L62.9341 8.594C63.1161 8.146 63.3961 7.838 63.7741 7.67C64.1661 7.488 64.5861 7.495 65.0341 7.691C65.4821 7.887 65.7761 8.167 65.9161 8.531C66.0561 8.895 66.0211 9.315 65.8111 9.791L61.6531 18.884C61.4011 19.416 61.1561 19.906 60.9181 20.354C60.6801 20.816 60.4071 21.208 60.0991 21.53C59.8051 21.866 59.4621 22.125 59.0701 22.307C58.6781 22.503 58.2161 22.601 57.6841 22.601C57.4181 22.601 57.1521 22.587 56.8861 22.559C56.6341 22.531 56.3681 22.461 56.0881 22.349C55.7801 22.223 55.5421 22.013 55.3741 21.719C55.2061 21.425 55.1711 21.103 55.2691 20.753C55.3671 20.403 55.5561 20.144 55.8361 19.976C56.1161 19.822 56.4171 19.78 56.7391 19.85C56.8511 19.878 56.9771 19.899 57.1171 19.913C57.2571 19.941 57.3901 19.955 57.5161 19.955C57.6981 19.955 57.8591 19.906 57.9991 19.808C58.1531 19.724 58.2861 19.612 58.3981 19.472C58.5101 19.332 58.6081 19.171 58.6921 18.989C58.7761 18.807 58.8531 18.618 58.9231 18.422L59.2381 17.645L55.6471 9.791C55.4371 9.315 55.4021 8.895 55.5421 8.531C55.6821 8.167 55.9761 7.887 56.4241 7.691C56.8721 7.495 57.2851 7.488 57.6631 7.67C58.0551 7.838 58.3421 8.146 58.5241 8.594L60.7291 13.823Z"/>
</mask>
<path d="M5.95354 14.936H8.80954C9.46754 14.936 10.0345 14.81 10.5105 14.558C10.9865 14.306 11.3715 13.963 11.6655 13.529C11.9735 13.081 12.1975 12.563 12.3375 11.975C12.4915 11.387 12.5685 10.764 12.5685 10.106C12.5685 9.448 12.4915 8.825 12.3375 8.237C12.1975 7.649 11.9735 7.138 11.6655 6.704C11.3715 6.256 10.9865 5.906 10.5105 5.654C10.0345 5.402 9.46754 5.276 8.80954 5.276H5.95354V14.936ZM2.42554 4.394C2.42554 3.008 3.11154 2.315 4.48354 2.315H8.70454C9.67054 2.315 10.5945 2.434 11.4765 2.672C12.3725 2.91 13.1635 3.33 13.8495 3.932C14.5355 4.52 15.0815 5.318 15.4875 6.326C15.8935 7.32 16.0965 8.58 16.0965 10.106C16.0965 11.338 15.9285 12.437 15.5925 13.403C15.2565 14.355 14.7665 15.167 14.1225 15.839C13.4925 16.497 12.7155 17.001 11.7915 17.351C10.8675 17.701 9.81754 17.876 8.64154 17.876H4.48354C3.11154 17.876 2.42554 17.183 2.42554 15.797V4.394Z" fill="#FF6F42"/>
<path d="M26.2423 8.846C26.7743 8.846 27.2083 8.958 27.5443 9.182C27.8803 9.406 28.0483 9.784 28.0483 10.316C28.0483 10.848 27.8803 11.226 27.5443 11.45C27.2083 11.674 26.7743 11.786 26.2423 11.786H20.0053C19.4733 11.786 19.0393 11.674 18.7033 11.45C18.3673 11.226 18.1993 10.848 18.1993 10.316C18.1993 9.784 18.3673 9.406 18.7033 9.182C19.0393 8.958 19.4733 8.846 20.0053 8.846H26.2423Z" fill="#FF6F42"/>
<path d="M37.2324 3.596C37.2324 3.106 37.3724 2.721 37.6524 2.441C37.9464 2.147 38.3384 2 38.8284 2C39.3184 2 39.7034 2.147 39.9834 2.441C40.2774 2.721 40.4244 3.106 40.4244 3.596V16.448C40.4244 16.938 40.2774 17.323 39.9834 17.603C39.7034 17.883 39.3184 18.023 38.8284 18.023C38.3524 18.023 38.0094 17.897 37.7994 17.645C37.5894 17.393 37.4494 17.064 37.3794 16.658C37.0714 17.232 36.6584 17.631 36.1404 17.855C35.6364 18.079 35.0274 18.191 34.3134 18.191C33.6134 18.191 32.9974 18.037 32.4654 17.729C31.9474 17.435 31.5064 17.036 31.1424 16.532C30.7784 16.028 30.5054 15.454 30.3234 14.81C30.1414 14.166 30.0504 13.494 30.0504 12.794C30.0504 12.094 30.1414 11.422 30.3234 10.778C30.5054 10.12 30.7784 9.539 31.1424 9.035C31.5064 8.531 31.9474 8.132 32.4654 7.838C32.9974 7.53 33.6134 7.376 34.3134 7.376C35.6854 7.376 36.6584 7.81 37.2324 8.678V3.596ZM33.1584 12.794C33.1584 13.606 33.3474 14.278 33.7254 14.81C34.1034 15.328 34.6214 15.587 35.2794 15.587C35.9374 15.587 36.4484 15.328 36.8124 14.81C37.1764 14.278 37.3584 13.606 37.3584 12.794C37.3584 11.968 37.1764 11.296 36.8124 10.778C36.4484 10.26 35.9374 10.001 35.2794 10.001C34.6214 10.001 34.1034 10.26 33.7254 10.778C33.3474 11.296 33.1584 11.968 33.1584 12.794Z" fill="#FF6F42"/>
<path d="M53.2032 16.469C53.2032 16.959 53.0632 17.337 52.7832 17.603C52.5032 17.869 52.1182 18.002 51.6282 18.002C51.1802 18.002 50.8442 17.876 50.6202 17.624C50.3962 17.372 50.2492 17.064 50.1792 16.7C49.9552 17.148 49.5982 17.505 49.1082 17.771C48.6182 18.051 47.9952 18.191 47.2392 18.191C46.5672 18.191 45.9512 18.051 45.3912 17.771C44.8312 17.491 44.3552 17.106 43.9632 16.616C43.5712 16.126 43.2632 15.552 43.0392 14.894C42.8292 14.236 42.7242 13.522 42.7242 12.752C42.7242 11.982 42.8292 11.275 43.0392 10.631C43.2632 9.973 43.5642 9.406 43.9422 8.93C44.3342 8.454 44.7962 8.083 45.3282 7.817C45.8742 7.537 46.4762 7.397 47.1342 7.397C47.8902 7.397 48.5202 7.53 49.0242 7.796C49.5422 8.062 49.9272 8.398 50.1792 8.804C50.2352 8.44 50.3822 8.146 50.6202 7.922C50.8582 7.684 51.2012 7.565 51.6492 7.565C52.1392 7.565 52.5172 7.719 52.7832 8.027C53.0632 8.321 53.2032 8.713 53.2032 9.203V16.469ZM45.8322 12.794C45.8322 13.606 46.0282 14.278 46.4202 14.81C46.8262 15.328 47.3582 15.587 48.0162 15.587C48.6742 15.587 49.1922 15.328 49.5702 14.81C49.9622 14.278 50.1582 13.606 50.1582 12.794C50.1582 11.982 49.9622 11.317 49.5702 10.799C49.1922 10.267 48.6742 10.001 48.0162 10.001C47.3582 10.001 46.8262 10.267 46.4202 10.799C46.0282 11.317 45.8322 11.982 45.8322 12.794Z" fill="#FF6F42"/>
<path d="M60.7291 13.823L62.9341 8.594C63.1161 8.146 63.3961 7.838 63.7741 7.67C64.1661 7.488 64.5861 7.495 65.0341 7.691C65.4821 7.887 65.7761 8.167 65.9161 8.531C66.0561 8.895 66.0211 9.315 65.8111 9.791L61.6531 18.884C61.4011 19.416 61.1561 19.906 60.9181 20.354C60.6801 20.816 60.4071 21.208 60.0991 21.53C59.8051 21.866 59.4621 22.125 59.0701 22.307C58.6781 22.503 58.2161 22.601 57.6841 22.601C57.4181 22.601 57.1521 22.587 56.8861 22.559C56.6341 22.531 56.3681 22.461 56.0881 22.349C55.7801 22.223 55.5421 22.013 55.3741 21.719C55.2061 21.425 55.1711 21.103 55.2691 20.753C55.3671 20.403 55.5561 20.144 55.8361 19.976C56.1161 19.822 56.4171 19.78 56.7391 19.85C56.8511 19.878 56.9771 19.899 57.1171 19.913C57.2571 19.941 57.3901 19.955 57.5161 19.955C57.6981 19.955 57.8591 19.906 57.9991 19.808C58.1531 19.724 58.2861 19.612 58.3981 19.472C58.5101 19.332 58.6081 19.171 58.6921 18.989C58.7761 18.807 58.8531 18.618 58.9231 18.422L59.2381 17.645L55.6471 9.791C55.4371 9.315 55.4021 8.895 55.5421 8.531C55.6821 8.167 55.9761 7.887 56.4241 7.691C56.8721 7.495 57.2851 7.488 57.6631 7.67C58.0551 7.838 58.3421 8.146 58.5241 8.594L60.7291 13.823Z" fill="#FF6F42"/>
<path d="M5.95354 14.936H8.80954C9.46754 14.936 10.0345 14.81 10.5105 14.558C10.9865 14.306 11.3715 13.963 11.6655 13.529C11.9735 13.081 12.1975 12.563 12.3375 11.975C12.4915 11.387 12.5685 10.764 12.5685 10.106C12.5685 9.448 12.4915 8.825 12.3375 8.237C12.1975 7.649 11.9735 7.138 11.6655 6.704C11.3715 6.256 10.9865 5.906 10.5105 5.654C10.0345 5.402 9.46754 5.276 8.80954 5.276H5.95354V14.936ZM2.42554 4.394C2.42554 3.008 3.11154 2.315 4.48354 2.315H8.70454C9.67054 2.315 10.5945 2.434 11.4765 2.672C12.3725 2.91 13.1635 3.33 13.8495 3.932C14.5355 4.52 15.0815 5.318 15.4875 6.326C15.8935 7.32 16.0965 8.58 16.0965 10.106C16.0965 11.338 15.9285 12.437 15.5925 13.403C15.2565 14.355 14.7665 15.167 14.1225 15.839C13.4925 16.497 12.7155 17.001 11.7915 17.351C10.8675 17.701 9.81754 17.876 8.64154 17.876H4.48354C3.11154 17.876 2.42554 17.183 2.42554 15.797V4.394Z" stroke="white" stroke-width="4" mask="url(#path-1-outside-1_1034_80576)"/>
<path d="M26.2423 8.846C26.7743 8.846 27.2083 8.958 27.5443 9.182C27.8803 9.406 28.0483 9.784 28.0483 10.316C28.0483 10.848 27.8803 11.226 27.5443 11.45C27.2083 11.674 26.7743 11.786 26.2423 11.786H20.0053C19.4733 11.786 19.0393 11.674 18.7033 11.45C18.3673 11.226 18.1993 10.848 18.1993 10.316C18.1993 9.784 18.3673 9.406 18.7033 9.182C19.0393 8.958 19.4733 8.846 20.0053 8.846H26.2423Z" stroke="white" stroke-width="4" mask="url(#path-1-outside-1_1034_80576)"/>
<path d="M37.2324 3.596C37.2324 3.106 37.3724 2.721 37.6524 2.441C37.9464 2.147 38.3384 2 38.8284 2C39.3184 2 39.7034 2.147 39.9834 2.441C40.2774 2.721 40.4244 3.106 40.4244 3.596V16.448C40.4244 16.938 40.2774 17.323 39.9834 17.603C39.7034 17.883 39.3184 18.023 38.8284 18.023C38.3524 18.023 38.0094 17.897 37.7994 17.645C37.5894 17.393 37.4494 17.064 37.3794 16.658C37.0714 17.232 36.6584 17.631 36.1404 17.855C35.6364 18.079 35.0274 18.191 34.3134 18.191C33.6134 18.191 32.9974 18.037 32.4654 17.729C31.9474 17.435 31.5064 17.036 31.1424 16.532C30.7784 16.028 30.5054 15.454 30.3234 14.81C30.1414 14.166 30.0504 13.494 30.0504 12.794C30.0504 12.094 30.1414 11.422 30.3234 10.778C30.5054 10.12 30.7784 9.539 31.1424 9.035C31.5064 8.531 31.9474 8.132 32.4654 7.838C32.9974 7.53 33.6134 7.376 34.3134 7.376C35.6854 7.376 36.6584 7.81 37.2324 8.678V3.596ZM33.1584 12.794C33.1584 13.606 33.3474 14.278 33.7254 14.81C34.1034 15.328 34.6214 15.587 35.2794 15.587C35.9374 15.587 36.4484 15.328 36.8124 14.81C37.1764 14.278 37.3584 13.606 37.3584 12.794C37.3584 11.968 37.1764 11.296 36.8124 10.778C36.4484 10.26 35.9374 10.001 35.2794 10.001C34.6214 10.001 34.1034 10.26 33.7254 10.778C33.3474 11.296 33.1584 11.968 33.1584 12.794Z" stroke="white" stroke-width="4" mask="url(#path-1-outside-1_1034_80576)"/>
<path d="M53.2032 16.469C53.2032 16.959 53.0632 17.337 52.7832 17.603C52.5032 17.869 52.1182 18.002 51.6282 18.002C51.1802 18.002 50.8442 17.876 50.6202 17.624C50.3962 17.372 50.2492 17.064 50.1792 16.7C49.9552 17.148 49.5982 17.505 49.1082 17.771C48.6182 18.051 47.9952 18.191 47.2392 18.191C46.5672 18.191 45.9512 18.051 45.3912 17.771C44.8312 17.491 44.3552 17.106 43.9632 16.616C43.5712 16.126 43.2632 15.552 43.0392 14.894C42.8292 14.236 42.7242 13.522 42.7242 12.752C42.7242 11.982 42.8292 11.275 43.0392 10.631C43.2632 9.973 43.5642 9.406 43.9422 8.93C44.3342 8.454 44.7962 8.083 45.3282 7.817C45.8742 7.537 46.4762 7.397 47.1342 7.397C47.8902 7.397 48.5202 7.53 49.0242 7.796C49.5422 8.062 49.9272 8.398 50.1792 8.804C50.2352 8.44 50.3822 8.146 50.6202 7.922C50.8582 7.684 51.2012 7.565 51.6492 7.565C52.1392 7.565 52.5172 7.719 52.7832 8.027C53.0632 8.321 53.2032 8.713 53.2032 9.203V16.469ZM45.8322 12.794C45.8322 13.606 46.0282 14.278 46.4202 14.81C46.8262 15.328 47.3582 15.587 48.0162 15.587C48.6742 15.587 49.1922 15.328 49.5702 14.81C49.9622 14.278 50.1582 13.606 50.1582 12.794C50.1582 11.982 49.9622 11.317 49.5702 10.799C49.1922 10.267 48.6742 10.001 48.0162 10.001C47.3582 10.001 46.8262 10.267 46.4202 10.799C46.0282 11.317 45.8322 11.982 45.8322 12.794Z" stroke="white" stroke-width="4" mask="url(#path-1-outside-1_1034_80576)"/>
<path d="M60.7291 13.823L62.9341 8.594C63.1161 8.146 63.3961 7.838 63.7741 7.67C64.1661 7.488 64.5861 7.495 65.0341 7.691C65.4821 7.887 65.7761 8.167 65.9161 8.531C66.0561 8.895 66.0211 9.315 65.8111 9.791L61.6531 18.884C61.4011 19.416 61.1561 19.906 60.9181 20.354C60.6801 20.816 60.4071 21.208 60.0991 21.53C59.8051 21.866 59.4621 22.125 59.0701 22.307C58.6781 22.503 58.2161 22.601 57.6841 22.601C57.4181 22.601 57.1521 22.587 56.8861 22.559C56.6341 22.531 56.3681 22.461 56.0881 22.349C55.7801 22.223 55.5421 22.013 55.3741 21.719C55.2061 21.425 55.1711 21.103 55.2691 20.753C55.3671 20.403 55.5561 20.144 55.8361 19.976C56.1161 19.822 56.4171 19.78 56.7391 19.85C56.8511 19.878 56.9771 19.899 57.1171 19.913C57.2571 19.941 57.3901 19.955 57.5161 19.955C57.6981 19.955 57.8591 19.906 57.9991 19.808C58.1531 19.724 58.2861 19.612 58.3981 19.472C58.5101 19.332 58.6081 19.171 58.6921 18.989C58.7761 18.807 58.8531 18.618 58.9231 18.422L59.2381 17.645L55.6471 9.791C55.4371 9.315 55.4021 8.895 55.5421 8.531C55.6821 8.167 55.9761 7.887 56.4241 7.691C56.8721 7.495 57.2851 7.488 57.6631 7.67C58.0551 7.838 58.3421 8.146 58.5241 8.594L60.7291 13.823Z" stroke="white" stroke-width="4" mask="url(#path-1-outside-1_1034_80576)"/>
</svg>
