<svg width="48" height="48" viewBox="0 0 48 48" fill="none" xmlns="http://www.w3.org/2000/svg">
<mask id="mask0_1331_102778" style="mask-type:alpha" maskUnits="userSpaceOnUse" x="0" y="0" width="48" height="48">
<rect width="48" height="48" fill="#D9D9D9"/>
</mask>
<g mask="url(#mask0_1331_102778)">
<path d="M21.7 31.35L17.5 27.15C17.3667 27.0167 17.2167 26.9167 17.05 26.85C16.8833 26.7833 16.7167 26.75 16.55 26.75C16.3833 26.75 16.2167 26.7833 16.05 26.85C15.8833 26.9167 15.7333 27.0333 15.6 27.2C15.3333 27.4667 15.2 27.7917 15.2 28.175C15.2 28.5583 15.3333 28.8833 15.6 29.15L20.65 34.2C20.8167 34.3667 20.9833 34.4833 21.15 34.55C21.3167 34.6167 21.5 34.65 21.7 34.65C21.9 34.65 22.0833 34.6167 22.25 34.55C22.4167 34.4833 22.5833 34.3667 22.75 34.2L32.2 24.75C32.4667 24.4833 32.6 24.1583 32.6 23.775C32.6 23.3917 32.4667 23.0667 32.2 22.8C31.9333 22.5333 31.6083 22.4 31.225 22.4C30.8417 22.4 30.5167 22.5333 30.25 22.8L21.7 31.35ZM11 44C10.2 44 9.5 43.7 8.9 43.1C8.3 42.5 8 41.8 8 41V7C8 6.2 8.3 5.5 8.9 4.9C9.5 4.3 10.2 4 11 4H27.8C28.2 4 28.5917 4.08333 28.975 4.25C29.3583 4.41667 29.6833 4.63333 29.95 4.9L39.1 14.05C39.3667 14.3167 39.5833 14.6417 39.75 15.025C39.9167 15.4083 40 15.8 40 16.2V41C40 41.8 39.7 42.5 39.1 43.1C38.5 43.7 37.8 44 37 44H11ZM27.55 14.8V7H11V41H37V16.3H29.05C28.6167 16.3 28.2583 16.1583 27.975 15.875C27.6917 15.5917 27.55 15.2333 27.55 14.8Z" fill="#FFDA40"/>
</g>
</svg>
