<svg width="100%" height="100%" viewBox="0 0 70 70" fill="none" xmlns="http://www.w3.org/2000/svg">
<g clip-path="url(#clip0_45_28019)">
<path d="M63.3444 42.1765C63.3444 42.1765 64.2111 44.8978 63.8875 47.2898C63.564 49.6817 60.7618 53.2465 57.2605 54.9336C53.7593 56.6265 49.8362 58.6082 41.6435 59.4864C41.6435 59.4864 26.6736 60.4224 19.3186 56.5109C19.3186 56.5109 11.9175 53.0212 10.5424 47.2493C10.5424 47.2493 10.0339 42.7139 10.7446 41.073L63.3444 42.1708V42.1765Z" fill="#FFBE92"/>
<path d="M63.3445 38.4382V42.1764C63.3445 42.1764 62.6454 45.5679 56.4576 49.0634C50.2697 52.5588 38.4948 53.1077 38.4948 53.1077C38.4948 53.1077 27.7137 53.3562 21.5027 50.71C21.5027 50.71 11.0105 47.0181 10.7505 41.0786V39.1258L63.3503 38.4382H63.3445Z" fill="#B76C4F"/>
<path d="M11.8887 39.2997C11.8887 39.2997 13.9802 43.8062 21.7223 45.5107C21.7223 45.5107 26.9221 46.776 31.111 46.8222C31.111 46.8222 20.0236 38.3175 11.8887 39.2997V39.2997Z" fill="#CC816D"/>
<path d="M46.2485 46.36C46.2485 46.36 59.8549 43.2516 62.374 39.2246L52.1764 40.8308L46.2543 46.36H46.2485Z" fill="#CC816D"/>
<path d="M6.06457 37.2024C6.06457 37.2024 6.02446 38.9242 7.44577 39.1264C8.86707 39.3229 10.6061 39.1264 10.6061 39.1264C10.6061 39.1264 12.3163 39.2362 13.7087 39.8198C15.1012 40.4091 29.1351 45.8112 29.1351 45.8112C29.1351 45.8112 32.463 47.3769 33.7457 48.5151C35.0283 49.6533 36.1665 50.364 36.1665 50.364C36.1665 50.364 38.0154 52.0164 40.5749 50.8493C40.5749 50.8493 41.7131 49.9364 42.9379 48.7462C44.1628 47.5503 46.9765 45.9268 46.9765 45.9268L54.3199 41.8015L6.06457 37.2024Z" fill="#FFC761"/>
<path d="M9.70952 34.436C9.70952 34.436 6.06445 36.6241 6.06445 37.2019C6.69985 37.9946 9.80446 37.6648 12.5506 37.7863L9.70952 34.436Z" fill="#FFD78D"/>
<path d="M17.1982 39.8196L26.2403 43.7888L22.6235 39.8196H17.1982Z" fill="#FFD78D"/>
<path d="M31.1108 45.2848L36.1085 48.6994C36.1085 48.6994 37.3334 50.0456 38.9222 49.8953C40.5111 49.7451 41.4009 48.3065 41.4009 48.3065C41.4009 48.3065 43.3941 46.3594 45.3354 45.5101C47.2767 44.6608 52.1762 41.8586 52.1762 41.8586L43.4808 38.4382L31.1108 45.2848V45.2848Z" fill="#FFD78D"/>
<path d="M22.6235 39.819C22.6235 39.819 17.6779 40.547 14.0495 38.9986C10.4211 37.4502 8.93627 35.3471 8.93627 35.3471C8.93627 35.3471 8.55494 34.0991 8.95938 32.8743L22.6178 39.819H22.6235Z" fill="#FF8D73"/>
<path d="M22.6233 39.8196C22.6233 39.8196 22.3865 40.5707 22.6233 40.9751C22.8602 41.3795 26.0322 45.1639 33.0174 45.4644C40.0026 45.7706 44.8558 44.5342 47.2304 42.3906C47.2304 42.3906 47.9468 41.8706 47.9411 40.5591L22.6233 39.8196V39.8196Z" fill="#FF8D73"/>
<path d="M47.9473 40.5644C47.9473 40.5644 48.1784 41.7199 48.7504 41.9222C49.3223 42.1244 55.6373 41.6159 55.6373 41.6159C55.6373 41.6159 62.6976 40.3333 63.9456 37.6005C63.9456 37.6005 64.7776 34.9427 63.8878 31.4126L47.9473 40.5644V40.5644Z" fill="#FF8D73"/>
<path d="M10.1436 29.9629C10.1436 29.9629 7.94812 31.9273 9.48498 34.169C11.0218 36.4108 16.5453 37.445 16.5453 37.445L10.1436 29.9629Z" fill="#FF9D8D"/>
<path d="M22.6235 39.8196C22.6235 39.8196 26.0324 42.1884 29.6087 42.564C33.1851 42.9337 42.6547 43.4479 45.3297 40.9289L22.6235 39.8196V39.8196Z" fill="#FF9D8D"/>
<path d="M47.9473 40.5644C47.9473 40.5644 57.1915 39.2587 60.2999 37.6005C63.4083 35.9423 63.8416 32.8801 63.8936 31.4126L47.953 40.5644H47.9473Z" fill="#FF9D8D"/>
<path d="M10.7446 25.439C10.7446 25.439 10.0744 27.6923 10.1437 29.9629C10.213 32.2393 13.8645 39.6116 30.1922 41.1254C30.1922 41.1254 49.4838 42.7778 56.8561 37.4045C56.8561 37.4045 61.952 34.9953 63.8817 31.4073C63.8817 31.4073 64.2515 25.0461 63.1017 23.3359L10.7446 25.439Z" fill="#FFBE92"/>
<path d="M26.3616 11.1333C26.3616 11.1333 11.2704 15.3337 10.7446 25.4388C10.7446 25.4388 15.0779 34.6715 34.8895 34.3884C54.7011 34.1053 63.1076 23.3415 63.1076 23.3415C63.1076 23.3415 61.6632 15.5994 48.1492 11.7919C48.1492 11.7919 41.1929 8.25024 26.3616 11.1333V11.1333Z" fill="#FFC299"/>
<path d="M38.0263 26.5022C37.6507 26.1671 37.385 25.7742 37.2578 25.3583C37.1423 24.9769 37.5063 24.0872 38.2689 24.5725C38.6387 24.8094 38.7196 25.2023 38.6098 25.5431C38.5 25.884 38.24 26.1902 38.0205 26.5022H38.0263Z" fill="#FFF5F0"/>
<path d="M23.5469 24.0699C23.5642 23.573 23.6971 23.1165 23.9282 22.7525C24.142 22.4174 25.0548 22.117 25.1704 23.0068C25.2282 23.4401 24.9797 23.7521 24.6504 23.8907C24.3211 24.0294 23.9224 24.0352 23.5469 24.0699Z" fill="#FFF5F0"/>
<path d="M32.6875 16.7953C32.7973 16.3793 32.9937 16.0211 33.2595 15.7554C33.5022 15.5127 34.3341 15.4318 34.2648 16.206C34.2301 16.5816 33.9586 16.8011 33.6581 16.8531C33.3577 16.9051 33.0168 16.8358 32.6933 16.7953H32.6875Z" fill="#FFF5F0"/>
<path d="M51.5277 23.6709C51.0424 23.5381 50.6322 23.3012 50.3317 22.9892C50.0602 22.7003 49.9908 21.7412 50.8922 21.8336C51.3313 21.8799 51.5739 22.1976 51.6259 22.5501C51.6779 22.9025 51.5797 23.2896 51.5219 23.6709H51.5277Z" fill="#FFF5F0"/>
<path d="M56.6013 17.2582C56.22 17.4546 55.804 17.5586 55.3765 17.5702C54.9894 17.5817 54.1574 17.16 54.7409 16.7266C55.024 16.5186 55.4169 16.536 55.7347 16.6746C56.0524 16.8133 56.3182 17.0502 56.5955 17.2582H56.6013Z" fill="#FFF5F0"/>
<path d="M17.3706 18.2806C17.6133 17.9339 17.9368 17.6393 18.3066 17.4313C18.6475 17.2406 19.5719 17.2233 19.2657 17.8761C19.1155 18.1939 18.7572 18.3615 18.4106 18.3904C18.0639 18.4192 17.7173 18.3326 17.3764 18.2748L17.3706 18.2806Z" fill="#FFF5F0"/>
<path d="M25.2632 18.4539C25.4365 18.0668 25.7023 17.7201 26.0258 17.4486C26.3263 17.2001 27.2334 17.0095 27.0485 17.7143C26.9618 18.0552 26.6383 18.2863 26.3032 18.373C25.9681 18.4596 25.6098 18.4423 25.2632 18.4539V18.4539Z" fill="#FFF5F0"/>
<path d="M23.8818 14.6231C24.2054 14.4151 24.5867 14.2591 24.9911 14.1725C25.3667 14.0858 26.268 14.1956 25.8116 14.6C25.5862 14.7965 25.1991 14.86 24.8583 14.8369C24.5174 14.8138 24.1996 14.7098 23.8818 14.6231V14.6231Z" fill="#FFF5F0"/>
<path d="M30.6826 14.2765C31.0062 14.0685 31.3875 13.9125 31.7919 13.8258C32.1675 13.7391 33.0688 13.8489 32.6124 14.2533C32.387 14.4498 31.9999 14.5133 31.659 14.4902C31.3182 14.4671 31.0004 14.3631 30.6826 14.2765V14.2765Z" fill="#FFF5F0"/>
<path d="M34.0161 12.3873C34.4032 12.3006 34.8192 12.289 35.2352 12.3526C35.6165 12.4104 36.3965 12.8957 35.7956 13.1383C35.5067 13.2597 35.1196 13.173 34.8192 13.0055C34.5188 12.8379 34.2761 12.6068 34.0161 12.3873Z" fill="#FFF5F0"/>
<path d="M50.1763 14.9411C49.818 15.1722 49.4136 15.3225 48.9918 15.3745C48.6047 15.4207 47.7381 15.0856 48.2754 14.6003C48.5354 14.3634 48.9283 14.346 49.2634 14.45C49.5927 14.554 49.8816 14.762 50.182 14.9469L50.1763 14.9411Z" fill="#FFF5F0"/>
<path d="M43.2659 14.8945C42.9077 15.1198 42.5032 15.2701 42.0814 15.3221C41.6943 15.3683 40.8277 15.039 41.3592 14.5536C41.6192 14.3167 42.0121 14.2994 42.3472 14.4034C42.6823 14.5074 42.9654 14.7154 43.2659 14.8945Z" fill="#FFF5F0"/>
<path d="M41.4862 21.5216C41.0067 21.4118 40.608 21.2096 40.3249 20.9265C40.0649 20.6665 40.0303 19.7652 40.9258 19.823C41.3591 19.8519 41.5902 20.1407 41.6307 20.4701C41.6711 20.7994 41.5613 21.1692 41.4862 21.5216Z" fill="#FFF5F0"/>
<path d="M41.4577 12.734C41.2151 13.0055 40.9031 13.2309 40.5564 13.4042C40.2386 13.5602 39.3951 13.6064 39.7186 13.1038C39.8746 12.8611 40.2097 12.7224 40.5275 12.6878C40.8453 12.6531 41.1515 12.7051 41.4577 12.734V12.734Z" fill="#FFF5F0"/>
<path d="M39.0719 17.483C38.575 17.3848 38.1648 17.1884 37.8759 16.9111C37.6101 16.6568 37.5986 15.7497 38.5288 15.7844C38.9794 15.8017 39.2163 16.0906 39.251 16.42C39.2857 16.7493 39.1585 17.1248 39.0777 17.483H39.0719Z" fill="#FFF5F0"/>
<path d="M31.838 21.3658C31.6993 20.944 31.6704 20.5165 31.7571 20.1294C31.8322 19.7769 32.4966 19.1992 32.8606 19.904C33.0397 20.2449 32.9242 20.5973 32.6988 20.8285C32.4735 21.0596 32.1442 21.204 31.838 21.3658V21.3658Z" fill="#FFF5F0"/>
<path d="M48.0499 19.211C47.5646 19.1532 47.1428 18.9972 46.8308 18.7488C46.5419 18.5177 46.4148 17.6279 47.3104 17.5875C47.7437 17.5702 48.0037 17.8302 48.0788 18.1479C48.1539 18.4657 48.0788 18.847 48.0499 19.211Z" fill="#FFF5F0"/>
</g>
<defs>
<clipPath id="clip0_45_28019">
<rect width="58.2966" height="49.5897" fill="white" transform="translate(6 10)"/>
</clipPath>
</defs>
</svg>
