<svg width="72" height="72" viewBox="0 0 72 72" fill="none" xmlns="http://www.w3.org/2000/svg">
<g clip-path="url(#clip0_152_44582)">
<path d="M10.0696 18.0583C8.2415 14.791 4.68634 15.1255 4.25459 15.1799C3.82283 15.2344 3.05268 15.3666 3.00211 16.4169C2.95543 17.4671 3.93174 17.3854 3.93174 17.3854H5.21145C7.23019 17.576 7.32743 18.3967 7.32743 18.3967C7.32743 18.3967 4.47241 19.4897 4.0601 21.5707C3.76838 23.0332 4.08344 25.1608 5.93104 26.0127C7.90699 26.9229 9.63401 25.1258 9.63401 25.1258C11.0771 23.4922 10.9798 21.5707 10.9798 21.5707C12.6135 22.8193 13.2008 24.0951 13.2008 24.0951C13.4614 23.4416 14.3055 21.8274 14.3055 21.8274C13.582 20.5088 10.0658 18.0622 10.0658 18.0622L10.0696 18.0583ZM8.07814 23.6205C7.67361 23.9589 6.22276 24.3323 6.07884 22.9865C5.88047 21.135 8.57212 20.5905 8.57212 20.5905C9.06611 22.1736 8.48266 23.286 8.07814 23.6205Z" fill="#FFAF22"/>
<path d="M64.5993 22.0222C64.0548 22.0028 63.833 21.9639 63.833 21.9639L62.8062 21.7733C60.4918 16.2383 54.2761 12.6559 54.2761 12.6559C53.9299 11.5201 54.0816 9.4819 54.0816 9.4819C54.1828 6.84859 53.0314 6.22235 53.0314 6.22235C51.5261 5.46386 48.1265 7.81711 48.1265 7.81711C48.3055 4.63536 45.2637 6.59965 45.2637 6.59965C41.3702 8.83621 39.2931 13.5544 39.2931 13.5544L26.5933 13.4844C16.7174 13.9667 11.7114 25.06 11.7114 25.06C9.6032 28.0551 8.17958 41.9296 15.1732 50.8097C22.1668 59.6859 37.7411 59.4953 37.7411 59.4953C54.0311 61.3235 60.0639 52.4045 60.0639 52.4045C63.1173 47.8069 63.2963 42.5908 65.5562 37.6198C66.2174 36.1651 66.9137 34.3175 67.711 32.9327C68.0611 32.3298 68.3412 32.3182 68.3412 32.3182L64.5954 22.03L64.5993 22.0222Z" fill="#FFF0B0"/>
<path d="M26.9398 52.9644C26.9398 52.9644 24.9133 50.7395 22.2527 54.4736C22.2527 54.4736 20.3079 56.5001 19.1293 57.3247C17.9469 58.1493 15.9087 59.6157 18.5809 62.5875C20.868 65.1313 24.1276 62.5875 25.5823 61.1327C27.037 59.678 28.8107 57.8537 28.8107 57.8537C28.8107 57.8537 29.9154 55.0532 26.9398 52.9644Z" fill="#FFAF22"/>
<path d="M48.4374 58.8192C48.4374 58.8192 48.8614 59.6943 49.9272 59.4998C50.9929 59.3054 51.7242 59.1731 51.7242 59.1731C51.7242 59.1731 52.3349 59.1148 52.3466 59.9083C52.3816 62.421 52.5449 63.5801 54.8632 63.5801C58.3483 63.5801 58.3678 62.775 58.3483 59.9083C58.3405 58.4885 58.395 56.7732 57.4615 55.4624C56.9247 54.7117 55.6683 54.2643 54.7465 54.1788C52.3349 53.9571 46.7338 53.9298 48.4335 58.8153L48.4374 58.8192Z" fill="#FFAF22"/>
<path d="M64.9422 22.1652C65.02 22.2041 65.0978 22.2508 65.1678 22.2974C66.5448 23.2076 67.5483 24.5962 68.2718 26.0821C68.4974 26.545 68.6997 27.0234 68.8241 27.5252C68.9758 28.1242 69.0147 28.7465 69.007 29.365C68.9953 30.0962 68.9097 30.8236 68.758 31.5354C68.6569 32.01 68.3379 32.5195 67.77 32.3484C67.5328 32.2784 67.3383 32.1111 67.1555 31.9438C65.7552 30.6602 64.5805 29.081 64.0087 27.2685C63.5653 25.8604 63.4992 24.3356 63.8142 22.8926C63.8842 22.5619 64.0204 22.1924 64.3355 22.0835C64.5338 22.0135 64.7439 22.0718 64.9384 22.1691L64.9422 22.1652Z" fill="#FFC931"/>
<path d="M48.0984 7.80901C48.0751 7.91403 48.0478 8.01516 48.0206 8.11241C47.4838 9.91722 47.3866 11.8504 47.7406 13.7019C47.8611 14.332 48.0323 14.9855 47.8611 15.6C47.6355 16.4091 46.8887 16.9459 46.1886 17.4126L45.0372 18.1828C44.7261 18.3928 44.3293 18.6068 44.0026 18.4239C43.7809 18.2995 43.6797 18.0389 43.6097 17.7938C42.5323 14.1997 43.3647 9.00703 46.8576 6.91439C47.1649 6.73157 47.5655 6.57987 47.8689 6.77436C48.1918 6.98051 48.184 7.40838 48.0984 7.80512V7.80901Z" fill="#FFC931"/>
<path d="M52.8953 7.00391C52.588 7.00391 52.2846 7.16338 52.0629 7.38509C51.7984 7.64959 51.6311 7.99188 51.4833 8.33418C51.0321 9.38828 50.7754 10.4891 50.5926 11.6132C50.5537 11.8466 50.5731 12.1149 50.7443 12.2822C50.896 12.43 51.1216 12.4572 51.3316 12.4767C52.3196 12.5661 53.3076 12.6284 54.2956 12.6595C54.1205 11.8582 54.0466 11.0375 54.0739 10.2207C54.0972 9.51664 54.1905 8.80094 54.0233 8.11635C53.8988 7.62236 53.5799 7.11671 53.0781 7.02335C53.0198 7.01169 52.9575 7.0078 52.8992 7.0078L52.8953 7.00391Z" fill="#FFC931"/>
<path d="M27.6929 15.2081C27.4634 15.212 27.2339 15.2159 27.0044 15.2237C26.6582 15.2314 26.3004 15.2431 25.9892 15.3948C25.5652 15.601 24.9896 16.3633 25.6003 16.7056C25.7986 16.8184 26.0398 16.8223 26.2654 16.8262C26.8333 16.8301 27.4012 16.8301 27.9691 16.8301H34.9044C35.1961 16.8301 35.5306 16.8107 35.7017 16.5773C35.9157 16.2894 35.7445 15.8888 35.5695 15.5737C35.4995 15.4454 35.4178 15.3131 35.2894 15.247C35.1961 15.2003 35.0872 15.2003 34.986 15.1964C32.555 15.1575 30.1201 15.1614 27.689 15.2081H27.6929Z" fill="#FED752"/>
<path d="M64.8317 24.8529C64.8317 24.8529 63.9021 24.0322 64.4622 26.047C65.0184 28.0619 65.8158 29.5205 66.6638 29.8395C66.6638 29.8395 67.1889 30.1506 66.8038 28.6337C66.5743 27.7313 66.1931 26.8755 65.7108 26.0782C65.4307 25.6153 65.1079 25.133 64.8356 24.8568L64.8317 24.8529Z" fill="#FFF4C7"/>
<path d="M66.3968 24.3908C66.3968 24.3908 65.545 23.6362 66.0546 25.4838C66.5641 27.3314 67.2954 28.6695 68.0733 28.9612C68.0733 28.9612 68.5556 29.2451 68.2017 27.8526C67.9916 27.0241 67.6415 26.2384 67.1981 25.5071C66.9414 25.0832 66.6458 24.6398 66.3968 24.3869V24.3908Z" fill="#FFF4C7"/>
<path d="M48.1371 55.023C48.1371 55.023 46.1105 52.7981 43.45 56.5322C43.45 56.5322 41.5052 58.5587 40.3266 59.3833C39.1441 60.2079 37.1059 61.6743 39.7781 64.6461C42.0653 67.1899 45.3248 64.6461 46.7796 63.1913C48.2343 61.7366 50.008 59.9123 50.008 59.9123C50.008 59.9123 51.1127 57.1118 48.1371 55.023Z" fill="#FFC931"/>
<path d="M25.8494 54.8323C25.8494 54.8323 22.9983 56.4777 24.0135 58.3797C25.0287 60.2818 27.308 59.9862 27.7476 59.9123C28.1871 59.8383 29.2684 59.6478 29.3929 60.5968C29.5212 61.5459 28.9339 64.1753 32.0612 64.152C36.1142 64.1209 35.2274 61.9893 35.418 60.344C35.6086 58.6987 34.5856 55.0891 31.4816 54.2644C28.3777 53.4398 25.8455 54.8362 25.8455 54.8362L25.8494 54.8323Z" fill="#FFC931"/>
<path d="M56.5092 26.2156C57.6004 26.2156 58.4851 25.3309 58.4851 24.2396C58.4851 23.1483 57.6004 22.2637 56.5092 22.2637C55.4179 22.2637 54.5332 23.1483 54.5332 24.2396C54.5332 25.3309 55.4179 26.2156 56.5092 26.2156Z" fill="#2B110C"/>
<path d="M57.6023 23.8354C57.7634 23.8354 57.894 23.7048 57.894 23.5437C57.894 23.3826 57.7634 23.252 57.6023 23.252C57.4412 23.252 57.3105 23.3826 57.3105 23.5437C57.3105 23.7048 57.4412 23.8354 57.6023 23.8354Z" fill="white"/>
<path fill-rule="evenodd" clip-rule="evenodd" d="M56.5127 32.8783C56.5127 32.8783 56.5127 32.8783 56.5127 32.8783C56.5129 32.8785 56.5131 32.879 56.5135 32.8796C56.5146 32.8816 56.5169 32.8857 56.5203 32.8916C56.5271 32.9035 56.5386 32.9228 56.555 32.9484C56.5876 32.9996 56.6394 33.0754 56.7118 33.1666C56.8567 33.3492 57.0821 33.5906 57.3993 33.8177C58.0253 34.2661 59.0314 34.6765 60.5421 34.435C60.7543 34.4011 60.9537 34.5455 60.9876 34.7577C61.0215 34.9698 60.8771 35.1692 60.6649 35.2031C58.9395 35.479 57.7284 35.0103 56.9464 34.4502C56.5596 34.1732 56.2832 33.878 56.1024 33.6502C56.0119 33.5361 55.9448 33.4382 55.8993 33.367C55.8765 33.3314 55.8591 33.3023 55.8468 33.2811C55.8407 33.2705 55.8359 33.2618 55.8322 33.2553L55.8278 33.2471L55.8262 33.2442L55.8256 33.243L55.8254 33.2426C55.8253 33.2423 55.8251 33.2421 56.1693 33.0609L55.8251 33.2421C55.7251 33.052 55.798 32.8168 55.9881 32.7167C56.1777 32.6169 56.4122 32.6893 56.5127 32.8783ZM56.5127 32.8783C56.5127 32.8781 56.5126 32.8781 56.5126 32.8781L56.5127 32.8783ZM56.5126 32.8781L56.5126 32.8781L56.5126 32.8781Z" fill="#FFAF22"/>
</g>
<defs>
<clipPath id="clip0_152_44582">
<rect width="66" height="59.7299" fill="white" transform="translate(3 6)"/>
</clipPath>
</defs>
</svg>
