<svg width="72" height="72" viewBox="0 0 72 72" fill="none" xmlns="http://www.w3.org/2000/svg">
<g clip-path="url(#clip0_152_44583)">
<path d="M27.0225 51.5471C28.1622 51.6521 31.3167 52.0061 32.7909 52.7607C33.036 52.8852 33.1449 53.173 33.0438 53.4258C32.9621 53.6359 32.8259 53.8887 32.612 54.0987C32.1491 54.5616 31.5929 55.8569 33.1682 56.3197C34.7435 56.7826 36.5911 57.2455 36.5911 58.7236C36.5911 58.7236 36.6495 59.4081 36.4472 60.1044C36.35 60.4428 36.031 60.6645 35.681 60.6645H26.2329C26.2329 60.6645 25.4939 60.6645 25.5873 58.7236C25.5873 58.7236 25.8284 54.0637 26.4585 51.9322C26.5324 51.6833 26.7658 51.5199 27.0264 51.5432L27.0225 51.5471Z" fill="#FFAF22"/>
<path d="M27.8862 65.2963C27.8862 65.2963 28.6292 65.304 29.4188 65.1251C30.364 64.9073 31.1069 64.1293 31.2119 63.1686C31.2702 62.6357 31.173 62.025 30.7024 61.461C30.7024 61.461 29.7183 60.3758 27.8862 60.6753V65.3001V65.2963Z" fill="#CFCFCF"/>
<path d="M27.8861 65.2967C29.1643 65.2967 30.2005 64.2605 30.2005 62.9823C30.2005 61.7041 29.1643 60.668 27.8861 60.668C26.608 60.668 25.5718 61.7041 25.5718 62.9823C25.5718 64.2605 26.608 65.2967 27.8861 65.2967Z" fill="#DBDEE1"/>
<path d="M27.886 64.065C28.4832 64.065 28.9673 63.5809 28.9673 62.9837C28.9673 62.3865 28.4832 61.9023 27.886 61.9023C27.2888 61.9023 26.8047 62.3865 26.8047 62.9837C26.8047 63.5809 27.2888 64.065 27.886 64.065Z" fill="#525354"/>
<path d="M32.9658 65.2963C32.9658 65.2963 33.7087 65.304 34.4984 65.1251C35.4435 64.9073 36.1865 64.1293 36.2915 63.1686C36.3498 62.6357 36.2526 62.025 35.7819 61.461C35.7819 61.461 34.7979 60.3758 32.9658 60.6753V65.3001V65.2963Z" fill="#CFCFCF"/>
<path d="M32.9662 65.2967C34.2444 65.2967 35.2806 64.2605 35.2806 62.9823C35.2806 61.7041 34.2444 60.668 32.9662 60.668C31.688 60.668 30.6519 61.7041 30.6519 62.9823C30.6519 64.2605 31.688 65.2967 32.9662 65.2967Z" fill="#DBDEE1"/>
<path d="M32.9661 64.065C33.5633 64.065 34.0474 63.5809 34.0474 62.9837C34.0474 62.3865 33.5633 61.9023 32.9661 61.9023C32.3689 61.9023 31.8848 62.3865 31.8848 62.9837C31.8848 63.5809 32.3689 64.065 32.9661 64.065Z" fill="#525354"/>
<path d="M49.377 52.6211C50.5205 52.6288 53.6945 52.7066 55.227 53.3329C55.4799 53.4379 55.6121 53.7141 55.5343 53.9747C55.4682 54.1925 55.3554 54.4531 55.1648 54.6826C54.7447 55.1844 54.3013 56.5224 55.9077 56.8452C57.5142 57.1681 59.3968 57.4715 59.5251 58.9457C59.5251 58.9457 59.6418 59.6225 59.5018 60.3343C59.4357 60.6766 59.1323 60.9294 58.7861 60.9566L49.3731 61.7696C49.3731 61.7696 48.634 61.8318 48.5601 59.8909C48.5601 59.8909 48.4007 55.2271 48.8441 53.0489C48.8947 52.7961 49.1164 52.6133 49.377 52.6133V52.6211Z" fill="#FFAF22"/>
<path d="M51.4192 66.2435C51.4192 66.2435 52.1582 66.189 52.9323 65.9401C53.8541 65.6406 54.5309 64.8043 54.5504 63.8358C54.5621 63.3029 54.4143 62.7 53.8969 62.1788C53.8969 62.1788 52.8234 61.1791 51.0225 61.6381L51.4192 66.2474V66.2435Z" fill="#CFCFCF"/>
<path d="M51.2206 66.2537C52.4988 66.2537 53.535 65.2175 53.535 63.9394C53.535 62.6612 52.4988 61.625 51.2206 61.625C49.9424 61.625 48.9062 62.6612 48.9062 63.9394C48.9062 65.2175 49.9424 66.2537 51.2206 66.2537Z" fill="#DBDEE1"/>
<path d="M51.2205 65.022C51.8177 65.022 52.3018 64.5379 52.3018 63.9407C52.3018 63.3435 51.8177 62.8594 51.2205 62.8594C50.6233 62.8594 50.1392 63.3435 50.1392 63.9407C50.1392 64.5379 50.6233 65.022 51.2205 65.022Z" fill="#525354"/>
<path d="M56.4798 65.8079C56.4798 65.8079 57.2188 65.7535 57.9928 65.5046C58.9147 65.205 59.5915 64.3688 59.6109 63.4002C59.6226 62.8674 59.4748 62.2645 58.9575 61.7432C58.9575 61.7432 57.8839 60.7436 56.083 61.2026L56.4798 65.8118V65.8079Z" fill="#CFCFCF"/>
<path d="M56.2812 65.8182C57.5593 65.8182 58.5955 64.782 58.5955 63.5038C58.5955 62.2256 57.5593 61.1895 56.2812 61.1895C55.003 61.1895 53.9668 62.2256 53.9668 63.5038C53.9668 64.782 55.003 65.8182 56.2812 65.8182Z" fill="#DBDEE1"/>
<path d="M56.281 64.5865C56.8782 64.5865 57.3624 64.1024 57.3624 63.5052C57.3624 62.908 56.8782 62.4238 56.281 62.4238C55.6838 62.4238 55.1997 62.908 55.1997 63.5052C55.1997 64.1024 55.6838 64.5865 56.281 64.5865Z" fill="#525354"/>
<path d="M10.0677 16.0583C8.23955 12.791 4.68439 13.1255 4.25263 13.1799C3.82088 13.2344 3.05072 13.3666 3.00016 14.4169C2.95348 15.4671 3.92979 15.3854 3.92979 15.3854H5.20949C7.22823 15.576 7.32548 16.3967 7.32548 16.3967C7.32548 16.3967 4.47045 17.4897 4.05815 19.5707C3.76642 21.0332 4.08149 23.1608 5.92908 24.0127C7.90504 24.9229 9.63205 23.1258 9.63205 23.1258C11.0751 21.4922 10.9779 19.5707 10.9779 19.5707C12.6115 20.8193 13.1989 22.0951 13.1989 22.0951C13.4595 21.4416 14.3036 19.8274 14.3036 19.8274C13.5801 18.5088 10.0638 16.0622 10.0638 16.0622L10.0677 16.0583ZM8.07618 21.6205C7.67166 21.9589 6.22081 22.3323 6.07689 20.9865C5.87852 19.135 8.57017 18.5905 8.57017 18.5905C9.06416 20.1736 8.48071 21.286 8.07618 21.6205Z" fill="#FFAF22"/>
<path d="M64.5969 20.0222C64.0523 20.0028 63.8306 19.9639 63.8306 19.9639L62.8037 19.7733C60.4894 14.2383 54.2737 10.6559 54.2737 10.6559C53.9275 9.52009 54.0792 7.48189 54.0792 7.48189C54.1803 4.84859 53.029 4.22235 53.029 4.22235C51.5237 3.46386 48.1241 5.81711 48.1241 5.81711C48.303 2.63536 45.2613 4.59965 45.2613 4.59965C41.3677 6.83621 39.2906 11.5544 39.2906 11.5544L26.5909 11.4844C16.715 11.9667 11.709 23.06 11.709 23.06C9.60076 26.0551 8.17713 39.9296 15.1708 48.8097C22.1644 57.6859 37.7387 57.4953 37.7387 57.4953C54.0286 59.3235 60.0615 50.4045 60.0615 50.4045C63.1149 45.8069 63.2938 40.5908 65.5537 35.6198C66.215 34.1651 66.9112 32.3175 67.7086 30.9327C68.0587 30.3298 68.3387 30.3182 68.3387 30.3182L64.593 20.03L64.5969 20.0222Z" fill="#FFF0B0"/>
<path d="M64.9393 20.1652C65.0171 20.2041 65.0949 20.2508 65.1649 20.2974C66.5419 21.2076 67.5454 22.5962 68.2689 24.0821C68.4945 24.545 68.6967 25.0234 68.8212 25.5252C68.9729 26.1242 69.0118 26.7465 69.004 27.365C68.9924 28.0962 68.9068 28.8236 68.7551 29.5354C68.654 30.01 68.335 30.5195 67.7671 30.3484C67.5298 30.2784 67.3353 30.1111 67.1525 29.9438C65.7523 28.6602 64.5776 27.081 64.0058 25.2685C63.5624 23.8604 63.4962 22.3356 63.8113 20.8926C63.8813 20.5619 64.0175 20.1924 64.3325 20.0835C64.5309 20.0135 64.7409 20.0718 64.9354 20.1691L64.9393 20.1652Z" fill="#FFC931"/>
<path d="M48.097 5.80901C48.0736 5.91403 48.0464 6.01516 48.0192 6.11241C47.4824 7.91721 47.3851 9.85038 47.7391 11.7019C47.8597 12.332 48.0308 12.9855 47.8597 13.6C47.6341 14.4091 46.8873 14.9459 46.1871 15.4126L45.0358 16.1828C44.7246 16.3928 44.3279 16.6067 44.0011 16.4239C43.7794 16.2995 43.6783 16.0389 43.6083 15.7938C42.5308 12.1997 43.3632 7.00703 46.8561 4.91439C47.1634 4.73157 47.5641 4.57987 47.8675 4.77436C48.1903 4.98051 48.1825 5.40837 48.097 5.80512V5.80901Z" fill="#FFC931"/>
<path d="M52.8928 5.00391C52.5856 5.00391 52.2822 5.16338 52.0604 5.38509C51.796 5.64959 51.6287 5.99188 51.4809 6.33417C51.0297 7.38828 50.773 8.48905 50.5902 9.61317C50.5513 9.84655 50.5707 10.1149 50.7419 10.2822C50.8935 10.43 51.1192 10.4572 51.3292 10.4767C52.3172 10.5661 53.3051 10.6284 54.2931 10.6595C54.1181 9.85822 54.0442 9.0375 54.0714 8.22067C54.0948 7.51664 54.1881 6.80094 54.0208 6.11635C53.8964 5.62236 53.5774 5.11671 53.0757 5.02335C53.0173 5.01169 52.9551 5.0078 52.8967 5.0078L52.8928 5.00391Z" fill="#FFC931"/>
<path d="M27.6919 13.2081C27.4624 13.212 27.2329 13.2159 27.0035 13.2237C26.6573 13.2314 26.2994 13.2431 25.9882 13.3948C25.5643 13.601 24.9886 14.3633 25.5993 14.7056C25.7977 14.8184 26.0388 14.8223 26.2644 14.8262C26.8323 14.8301 27.4002 14.8301 27.9681 14.8301H34.9034C35.1951 14.8301 35.5296 14.8107 35.7008 14.5773C35.9147 14.2894 35.7436 13.8888 35.5685 13.5737C35.4985 13.4454 35.4168 13.3131 35.2885 13.247C35.1951 13.2003 35.0862 13.2003 34.9851 13.1964C32.554 13.1575 30.1191 13.1614 27.688 13.2081H27.6919Z" fill="#FED752"/>
<path d="M64.8303 22.8549C64.8303 22.8549 63.9006 22.0341 64.4607 24.049C65.017 26.0638 65.8144 27.5225 66.6623 27.8414C66.6623 27.8414 67.1874 28.1526 66.8023 26.6356C66.5728 25.7332 66.1917 24.8775 65.7093 24.0801C65.4293 23.6172 65.1064 23.1349 64.8342 22.8588L64.8303 22.8549Z" fill="#FFF4C7"/>
<path d="M66.3939 22.3908C66.3939 22.3908 65.5421 21.6362 66.0516 23.4838C66.5612 25.3314 67.2924 26.6695 68.0704 26.9612C68.0704 26.9612 68.5527 27.2451 68.1987 25.8526C67.9887 25.0241 67.6386 24.2384 67.1952 23.5071C66.9385 23.0832 66.6429 22.6398 66.3939 22.3869V22.3908Z" fill="#FFF4C7"/>
<path d="M56.5067 24.2156C57.598 24.2156 58.4827 23.3309 58.4827 22.2396C58.4827 21.1483 57.598 20.2637 56.5067 20.2637C55.4154 20.2637 54.5308 21.1483 54.5308 22.2396C54.5308 23.3309 55.4154 24.2156 56.5067 24.2156Z" fill="#2B110C"/>
<path d="M57.5993 21.8354C57.7605 21.8354 57.8911 21.7048 57.8911 21.5437C57.8911 21.3826 57.7605 21.252 57.5993 21.252C57.4382 21.252 57.3076 21.3826 57.3076 21.5437C57.3076 21.7048 57.4382 21.8354 57.5993 21.8354Z" fill="white"/>
<path d="M59.6569 33.2825C56.9342 33.2825 55.8723 31.3298 55.8256 31.2404C55.7245 31.0498 55.7984 30.8164 55.989 30.7153C56.1796 30.6141 56.413 30.688 56.5141 30.8786C56.5608 30.9642 57.6382 32.9013 60.5399 32.4345C60.7499 32.3995 60.9522 32.5434 60.9872 32.7573C61.0222 32.9713 60.8783 33.1697 60.6644 33.2047C60.3065 33.263 59.972 33.2863 59.6569 33.2863V33.2825Z" fill="#FFAF22"/>
<path d="M21.8417 49.4475C22.7519 50.3576 25.2296 52.9287 25.9647 54.6402C26.0853 54.9241 25.9764 55.2509 25.7041 55.3987C25.4824 55.5192 25.1829 55.6437 24.8484 55.6748C24.1171 55.741 22.7052 56.4644 23.7321 57.997C24.7589 59.5295 26.0309 61.2565 24.9651 62.5362C24.9651 62.5362 24.5217 63.1702 23.8488 63.6292C23.522 63.8509 23.0864 63.812 22.783 63.5631L14.603 56.7756C14.603 56.7756 13.9612 56.2427 15.4393 54.6285C15.4393 54.6285 18.9944 50.7699 21.0754 49.3774C21.3166 49.2141 21.6394 49.2413 21.8456 49.4475H21.8417Z" fill="#FFC931"/>
<path d="M12.7129 61.9693C12.7129 61.9693 13.3508 62.5099 14.1637 62.9222C15.1362 63.4123 16.3381 63.2762 17.1199 62.5138C17.5516 62.0937 17.9095 61.4947 17.9056 60.6701C17.9056 60.6701 17.8356 59.0248 16.0347 57.9668L12.7129 61.9693Z" fill="#CFCFCF"/>
<path d="M14.3737 62.5677C15.8108 62.5677 16.9759 61.4026 16.9759 59.9655C16.9759 58.5283 15.8108 57.3633 14.3737 57.3633C12.9365 57.3633 11.7715 58.5283 11.7715 59.9655C11.7715 61.4026 12.9365 62.5677 14.3737 62.5677Z" fill="#DBDEE1"/>
<path d="M14.3737 61.183C15.0461 61.183 15.5912 60.6379 15.5912 59.9655C15.5912 59.2931 15.0461 58.748 14.3737 58.748C13.7013 58.748 13.1562 59.2931 13.1562 59.9655C13.1562 60.6379 13.7013 61.183 14.3737 61.183Z" fill="#525354"/>
<path d="M17.1079 65.6177C17.1079 65.6177 17.7458 66.1584 18.5588 66.5707C19.5312 67.0608 20.7331 66.9246 21.5149 66.1623C21.9467 65.7422 22.3045 65.1432 22.3006 64.3186C22.3006 64.3186 22.2306 62.6732 20.4297 61.6152L17.1079 65.6177Z" fill="#CFCFCF"/>
<path d="M18.7692 66.2161C20.2063 66.2161 21.3714 65.0511 21.3714 63.6139C21.3714 62.1768 20.2063 61.0117 18.7692 61.0117C17.332 61.0117 16.167 62.1768 16.167 63.6139C16.167 65.0511 17.332 66.2161 18.7692 66.2161Z" fill="#DBDEE1"/>
<path d="M18.7692 64.8314C19.4416 64.8314 19.9867 64.2863 19.9867 63.6139C19.9867 62.9416 19.4416 62.3965 18.7692 62.3965C18.0968 62.3965 17.5518 62.9416 17.5518 63.6139C17.5518 64.2863 18.0968 64.8314 18.7692 64.8314Z" fill="#525354"/>
<path d="M40.4227 52.0574C41.7063 52.1779 45.2537 52.5708 46.9107 53.4226C47.1868 53.5627 47.3074 53.8855 47.1946 54.1734C47.1013 54.4106 46.9496 54.6907 46.7123 54.9318C46.1911 55.4531 45.5687 56.9078 47.3346 57.429C49.1005 57.9502 51.1854 58.4675 51.1854 60.1323C51.1854 60.1323 51.2515 60.9025 51.0259 61.6882C50.917 62.0655 50.5553 62.3183 50.1624 62.3183H39.5319C39.5319 62.3183 38.6996 62.3183 38.8046 60.1323C38.8046 60.1323 39.0768 54.889 39.7848 52.493C39.8665 52.213 40.131 52.0301 40.4227 52.0574Z" fill="#FFC931"/>
<path d="M41.395 67.5234C41.395 67.5234 42.2313 67.5351 43.1181 67.3289C44.18 67.0839 45.0163 66.2087 45.133 65.1274C45.1952 64.5284 45.0902 63.8399 44.5612 63.2059C44.5612 63.2059 43.4565 61.9845 41.395 62.3229V67.5234Z" fill="#CFCFCF"/>
<path d="M41.3952 67.5227C42.8323 67.5227 43.9974 66.3577 43.9974 64.9206C43.9974 63.4834 42.8323 62.3184 41.3952 62.3184C39.958 62.3184 38.793 63.4834 38.793 64.9206C38.793 66.3577 39.958 67.5227 41.3952 67.5227Z" fill="#DBDEE1"/>
<path d="M41.3952 66.1381C42.0676 66.1381 42.6127 65.593 42.6127 64.9206C42.6127 64.2482 42.0676 63.7031 41.3952 63.7031C40.7228 63.7031 40.1777 64.2482 40.1777 64.9206C40.1777 65.593 40.7228 66.1381 41.3952 66.1381Z" fill="#525354"/>
<path d="M47.1089 67.5234C47.1089 67.5234 47.9452 67.5351 48.832 67.3289C49.8939 67.0839 50.7302 66.2087 50.8469 65.1274C50.9091 64.5284 50.8041 63.8399 50.2751 63.2059C50.2751 63.2059 49.1704 61.9845 47.1089 62.3229V67.5234Z" fill="#CFCFCF"/>
<path d="M47.109 67.5227C48.5462 67.5227 49.7112 66.3577 49.7112 64.9206C49.7112 63.4834 48.5462 62.3184 47.109 62.3184C45.6719 62.3184 44.5068 63.4834 44.5068 64.9206C44.5068 66.3577 45.6719 67.5227 47.109 67.5227Z" fill="#DBDEE1"/>
<path d="M47.1091 66.1381C47.7815 66.1381 48.3265 65.593 48.3265 64.9206C48.3265 64.2482 47.7815 63.7031 47.1091 63.7031C46.4367 63.7031 45.8916 64.2482 45.8916 64.9206C45.8916 65.593 46.4367 66.1381 47.1091 66.1381Z" fill="#525354"/>
</g>
<defs>
<clipPath id="clip0_152_44583">
<rect width="66" height="63.5223" fill="white" transform="translate(3 4)"/>
</clipPath>
</defs>
</svg>
