<svg width="100%" height="100%" viewBox="0 0 173 176" fill="none" xmlns="http://www.w3.org/2000/svg">
<g clip-path="url(#clip0_169_42843)">
<path d="M166.184 150H7.45684C3.79159 150 0.820312 152.663 0.820312 155.948V169.052C0.820312 172.337 3.79159 175 7.45684 175H166.184C169.849 175 172.82 172.337 172.82 169.052V155.948C172.82 152.663 169.849 150 166.184 150Z" fill="#C7C9D1"/>
<path d="M160.741 108.15C161.491 108.07 162.241 108.01 163.001 107.97C163.641 107.93 164.001 107.85 164.631 107.76C165.071 107.7 166.221 107.41 166.631 107.25C168.641 106.45 170.081 105.33 171.521 103.71C171.621 103.6 171.721 103.48 171.821 103.36C172.321 102.76 172.781 102.08 172.901 101.3C173.021 100.52 172.671 99.63 171.951 99.33C171.331 99.07 170.601 99.29 170.061 99.69C169.521 100.09 169.121 100.64 168.671 101.14C167.941 101.96 167.061 102.66 166.101 103.19C165.581 103.48 164.981 103.72 164.401 103.65C164.201 103.63 164.061 103.45 164.091 103.25C164.281 102.04 164.611 100.86 164.811 99.66C165.031 98.35 165.091 96.98 164.641 95.73C164.091 94.2 162.801 93 161.321 92.31C159.851 91.62 158.121 91.39 156.601 91.94C154.601 92.67 153.251 94.64 152.771 96.71C152.111 99.54 152.911 102.68 154.841 104.85C154.941 104.96 154.891 105.14 154.741 105.17C152.851 105.61 150.881 105.67 148.971 105.35C148.761 105.85 148.461 107.83 148.861 109.11C148.901 109.25 148.961 109.4 149.081 109.49C149.181 109.56 150.611 109.64 150.731 109.64C152.731 109.75 154.711 109.52 156.631 108.95C157.981 108.55 159.361 108.31 160.751 108.16L160.741 108.15ZM156.491 98.29C156.491 98.29 156.491 98.23 156.491 98.2C156.511 97.56 156.661 96.91 157.011 96.37C157.361 95.83 157.931 95.42 158.571 95.35C159.051 95.3 159.551 95.45 159.941 95.74C160.331 96.03 160.631 96.44 160.801 96.89C161.071 97.59 161.061 98.38 160.961 99.12C160.811 100.18 160.481 101.2 159.991 102.15C159.891 102.34 159.751 102.6 159.541 102.69C159.331 102.78 159.011 102.61 158.821 102.51C158.061 102.1 157.451 101.46 157.041 100.7C156.631 99.94 156.471 99.14 156.481 98.31L156.491 98.29Z" fill="#C7C9D1"/>
<path d="M69.2407 34.8398C74.2507 33.5398 79.4107 32.8198 84.6207 32.7598C111.411 32.4398 137.581 49.6398 147.201 74.0598C154.791 93.3198 151.651 116.03 139.991 133.11C127.201 151.84 104.271 153.31 82.8707 153.55C67.5307 153.72 51.7007 150.13 39.6307 140.88C20.2207 126.01 14.1507 97.9098 22.7907 75.3298C30.3507 55.5798 48.4707 40.2298 69.2407 34.8398Z" fill="#E8EDED"/>
<path d="M76.2502 101.08C76.3802 101.51 74.5702 104.84 75.3502 105.22C79.4302 107.21 83.3802 108.74 91.7402 106.6C96.8502 105.29 99.7002 101.25 100.75 97.8702C102.1 93.5402 100.7 86.6702 93.6902 81.9702C87.9302 87.3802 85.5202 96.3202 79.7602 101.73C78.6302 102.79 75.8902 99.8702 76.2402 101.07L76.2502 101.08Z" fill="#C7C9D1"/>
<path d="M76.79 80.8098C76.28 80.9898 75.79 81.1998 75.3 81.4398C67.52 85.2398 65.57 96.4198 71.69 102.59C75.21 106.13 80.58 107.52 85.51 106.74C91.05 105.86 96.24 102.15 98.21 96.8898C100.18 91.6298 98.41 85.0198 93.69 81.9798C91.14 80.3398 88.02 79.7998 84.99 79.6998C82.22 79.6098 79.38 79.8698 76.79 80.8098Z" fill="#D5D8E0"/>
<path d="M81.9401 90.0699C81.8301 89.5599 81.6801 89.0599 81.4601 88.5699C81.1801 87.9299 80.7801 87.3199 80.1901 86.9599C79.6001 86.5999 78.7801 86.5299 78.2301 86.9499C77.7101 87.3399 77.5301 88.0399 77.4101 88.6899C77.0801 90.5999 77.1501 92.4399 77.2801 94.3599C77.3801 95.9399 77.3201 97.5299 78.1301 98.9599C78.3201 99.2999 78.5801 99.6399 78.9401 99.7899C79.3701 99.9699 79.8801 99.8599 80.2701 99.5999C80.6601 99.3399 80.9301 98.9399 81.1401 98.5199C81.7601 97.3199 81.9401 95.9499 82.0601 94.6099C82.2001 93.0999 82.2601 91.5399 81.9501 90.0699H81.9401Z" fill="#E8EDED"/>
<path d="M90.3102 90.0699C90.2002 89.5599 90.0502 89.0599 89.8302 88.5699C89.5502 87.9299 89.1502 87.3199 88.5602 86.9599C87.9702 86.5999 87.1502 86.5299 86.6002 86.9499C86.0802 87.3399 85.9002 88.0399 85.7802 88.6899C85.4502 90.5999 85.5202 92.4399 85.6502 94.3599C85.7502 95.9399 85.6902 97.5299 86.5002 98.9599C86.6902 99.2999 86.9502 99.6399 87.3102 99.7899C87.7402 99.9699 88.2502 99.8599 88.6402 99.5999C89.0302 99.3399 89.3002 98.9399 89.5102 98.5199C90.1302 97.3199 90.3102 95.9499 90.4302 94.6099C90.5702 93.0999 90.6302 91.5399 90.3202 90.0699H90.3102Z" fill="#E8EDED"/>
<path d="M35.9404 57.9599C35.9404 57.9599 29.4804 36.5599 35.9404 29.7299C42.4004 22.8899 61.7704 39.6699 61.7704 39.6699C61.7704 39.6699 45.0604 47.3299 35.9404 57.9699V57.9599Z" fill="#E8EDED"/>
<path d="M110.641 40.05C110.641 40.05 120.791 30.1 128.081 29.22C129.661 29.03 131.271 29.55 132.391 30.69C134.831 33.17 138.321 39.79 135.711 56.76C135.711 56.76 126.971 45.75 110.641 40.05Z" fill="#E8EDED"/>
<path d="M128.44 33.3901C127.61 33.3601 126.73 33.6801 125.96 34.0401C123.89 35.0201 122.02 36.3301 120.17 37.6401C118.47 38.8401 116.76 40.0401 115.31 41.4901C114.29 42.5101 113.35 43.9001 113.79 45.2301C114.17 46.3601 115.4 47.0201 116.53 47.5701L128.11 53.2001C129.54 53.8901 131.37 54.8001 131.87 52.7801C132.83 48.8501 132.95 44.7601 132.42 40.7601C132.18 38.9301 131.8 37.0901 130.99 35.4001C130.65 34.6901 130.19 33.9701 129.45 33.6201C129.13 33.4701 128.79 33.4001 128.44 33.3901Z" fill="#C7C9D1"/>
<path d="M40.4807 33.0899C41.0207 32.8899 41.6407 32.7699 42.3607 32.7499C43.7907 32.7099 45.2207 32.9899 46.5107 33.5599C48.0507 34.2399 49.3507 35.2998 50.6407 36.3498L56.1307 40.8498C56.7007 41.3198 57.3207 41.8799 57.3307 42.6099C57.3307 43.4099 56.6207 44.0299 55.9607 44.5399L43.7207 53.9398C43.1007 54.4198 42.3107 54.9298 41.5707 54.6698C40.9807 54.4698 40.6907 53.8598 40.4707 53.2999C38.8807 49.2899 34.2207 35.4498 40.4907 33.0998L40.4807 33.0899Z" fill="#C7C9D1"/>
<path d="M94.1306 114.34C96.9706 114.34 99.1406 115.48 99.1806 115.5C99.6706 115.76 99.8506 116.37 99.5806 116.86C99.3206 117.34 98.7106 117.53 98.2306 117.26C97.9706 117.12 92.1906 114.13 87.8106 119.54C87.4606 119.97 86.8306 120.04 86.4006 119.69C85.9706 119.34 85.9006 118.71 86.2506 118.28C88.7606 115.17 91.7006 114.33 94.1306 114.33V114.34Z" fill="#C7C9D1"/>
<path d="M60.44 85.0098C63.3284 85.0098 65.67 82.6682 65.67 79.7798C65.67 76.8914 63.3284 74.5498 60.44 74.5498C57.5515 74.5498 55.21 76.8914 55.21 79.7798C55.21 82.6682 57.5515 85.0098 60.44 85.0098Z" fill="#2B110C"/>
<path d="M58.7807 78.7001C59.206 78.7001 59.5507 78.3554 59.5507 77.9302C59.5507 77.5049 59.206 77.1602 58.7807 77.1602C58.3555 77.1602 58.0107 77.5049 58.0107 77.9302C58.0107 78.3554 58.3555 78.7001 58.7807 78.7001Z" fill="white"/>
<path d="M108.46 85.0098C111.349 85.0098 113.69 82.6682 113.69 79.7798C113.69 76.8914 111.349 74.5498 108.46 74.5498C105.572 74.5498 103.23 76.8914 103.23 79.7798C103.23 82.6682 105.572 85.0098 108.46 85.0098Z" fill="#2B110C"/>
<path d="M106.8 78.7001C107.226 78.7001 107.57 78.3554 107.57 77.9302C107.57 77.5049 107.226 77.1602 106.8 77.1602C106.375 77.1602 106.03 77.5049 106.03 77.9302C106.03 78.3554 106.375 78.7001 106.8 78.7001Z" fill="white"/>
<path d="M45.3007 164.41C46.9107 164.95 48.6407 165.22 50.3607 165.31C52.8507 165.44 55.4507 165.21 57.5907 164.05C59.7407 162.88 61.2207 160.9 62.4707 158.92C65.5407 154.04 67.7307 148.71 69.1807 143.24C70.5307 138.18 71.9207 132.35 67.1507 128.37C64.4307 126.09 60.3107 125.3 56.8407 126.44C54.2307 127.3 52.1107 129.12 50.5207 131.21C48.9307 133.3 47.8107 135.64 46.6707 137.95C43.7107 143.94 40.4307 150.02 39.9607 156.59C39.8407 158.33 39.9507 160.18 40.9907 161.63C41.6207 162.51 42.5507 163.18 43.5507 163.69C44.1107 163.98 44.6907 164.22 45.2807 164.42L45.3007 164.41Z" fill="#D5D8E0"/>
<path d="M128.22 164.41C126.61 164.95 124.88 165.22 123.16 165.31C120.67 165.44 118.07 165.21 115.93 164.05C113.78 162.88 112.3 160.9 111.05 158.92C107.98 154.04 105.79 148.71 104.34 143.24C102.99 138.18 101.6 132.35 106.37 128.37C109.09 126.09 113.21 125.3 116.68 126.44C119.29 127.3 121.41 129.12 123 131.21C124.59 133.3 125.71 135.64 126.85 137.95C129.81 143.94 133.09 150.02 133.56 156.59C133.68 158.33 133.57 160.18 132.53 161.63C131.9 162.51 130.97 163.18 129.97 163.69C129.41 163.98 128.83 164.22 128.24 164.42L128.22 164.41Z" fill="#D5D8E0"/>
<path d="M74.4304 136.84C74.2004 136.84 73.9904 136.67 73.9404 136.43C71.6604 124.55 59.0204 121.43 58.9004 121.4C58.6304 121.34 58.4604 121.07 58.5304 120.8C58.6004 120.53 58.8604 120.37 59.1304 120.43C59.2604 120.46 72.5204 123.72 74.9304 136.24C74.9804 136.51 74.8004 136.77 74.5304 136.83C74.5004 136.83 74.4704 136.83 74.4404 136.83L74.4304 136.84Z" fill="#D5D8E0"/>
<path d="M98.8304 136.84C98.8304 136.84 98.7704 136.84 98.7404 136.84C98.4704 136.79 98.2904 136.53 98.3404 136.25C100.74 123.73 114 120.47 114.14 120.44C114.41 120.38 114.68 120.54 114.74 120.81C114.8 121.08 114.64 121.35 114.37 121.41C114.24 121.44 101.61 124.56 99.3304 136.44C99.2804 136.68 99.0704 136.85 98.8404 136.85L98.8304 136.84Z" fill="#D5D8E0"/>
<path d="M52.88 8.34C55.183 8.34 57.05 6.47303 57.05 4.17C57.05 1.86697 55.183 0 52.88 0C50.5769 0 48.71 1.86697 48.71 4.17C48.71 6.47303 50.5769 8.34 52.88 8.34Z" fill="#C7C9D1"/>
<path d="M84.0206 8.34C86.3236 8.34 88.1906 6.47303 88.1906 4.17C88.1906 1.86697 86.3236 0 84.0206 0C81.7176 0 79.8506 1.86697 79.8506 4.17C79.8506 6.47303 81.7176 8.34 84.0206 8.34Z" fill="#C7C9D1"/>
<path d="M115.16 8.34C117.463 8.34 119.33 6.47303 119.33 4.17C119.33 1.86697 117.463 0 115.16 0C112.857 0 110.99 1.86697 110.99 4.17C110.99 6.47303 112.857 8.34 115.16 8.34Z" fill="#C7C9D1"/>
</g>
<defs>
<clipPath id="clip0_169_42843">
<rect width="172.09" height="175.29" fill="white" transform="translate(0.820312)"/>
</clipPath>
</defs>
</svg>
