<svg width="44" height="41" viewBox="0 0 44 41" fill="none" xmlns="http://www.w3.org/2000/svg">
<g clip-path="url(#clip0_84_19546)">
<path d="M4.7118 8.11667C3.49303 5.91728 1.12292 6.14245 0.835088 6.17911C0.547252 6.21577 0.0338152 6.30479 0.000104671 7.01174C-0.0310127 7.71868 0.61986 7.6637 0.61986 7.6637H1.47299C2.81882 7.79199 2.88365 8.34446 2.88365 8.34446C2.88365 8.34446 0.980303 9.08021 0.705432 10.481C0.510949 11.4655 0.720991 12.8977 1.95272 13.4711C3.27002 14.0838 4.42137 12.8742 4.42137 12.8742C5.38341 11.7745 5.31859 10.481 5.31859 10.481C6.4077 11.3215 6.79926 12.1803 6.79926 12.1803C6.97299 11.7404 7.5357 10.6538 7.5357 10.6538C7.05338 9.76621 4.7092 8.11928 4.7092 8.11928L4.7118 8.11667ZM3.38412 11.8609C3.11444 12.0887 2.14721 12.34 2.05126 11.4341C1.91901 10.1878 3.71345 9.82119 3.71345 9.82119C4.04277 10.8868 3.65381 11.6357 3.38412 11.8609Z" fill="#FFAF22"/>
<path d="M41.0649 10.7848C40.7019 10.7717 40.5541 10.7455 40.5541 10.7455L39.8695 10.6172C38.3266 6.89136 34.1828 4.47989 34.1828 4.47989C33.952 3.71534 34.0531 2.34334 34.0531 2.34334C34.1205 0.570734 33.353 0.149184 33.353 0.149184C32.3494 -0.361388 30.0831 1.2227 30.0831 1.2227C30.2023 -0.919091 28.1745 0.403161 28.1745 0.403161C25.5788 1.9087 24.1941 5.08472 24.1941 5.08472L15.7276 5.03759C9.14364 5.36226 5.8063 12.8297 5.8063 12.8297C4.40083 14.8458 3.45175 24.1854 8.11417 30.163C12.7766 36.138 23.1594 36.0097 23.1594 36.0097C34.0194 37.2403 38.0413 31.2365 38.0413 31.2365C40.0769 28.1416 40.1962 24.6305 41.7028 21.2843C42.1436 20.305 42.6078 19.0613 43.1394 18.1292C43.3728 17.7234 43.5595 17.7155 43.5595 17.7155L41.0623 10.79L41.0649 10.7848Z" fill="#FFF0B0"/>
<path d="M15.9586 31.6134C15.9586 31.6134 14.6075 30.1157 12.8339 32.6293C12.8339 32.6293 11.5373 33.9935 10.7516 34.5486C9.96327 35.1036 8.60448 36.0908 10.3859 38.0911C11.9107 39.8035 14.0837 38.0912 15.0536 37.1119C16.0234 36.1326 17.2058 34.9047 17.2058 34.9047C17.2058 34.9047 17.9423 33.0195 15.9586 31.6134Z" fill="#FFAF22"/>
<path d="M30.2903 35.5541C30.2903 35.5541 30.573 36.1432 31.2835 36.0123C31.994 35.8814 32.4815 35.7924 32.4815 35.7924C32.4815 35.7924 32.8886 35.7531 32.8964 36.2872C32.9197 37.9787 33.0286 38.7589 34.5741 38.7589C36.8976 38.7589 36.9105 38.2169 36.8976 36.2872C36.8924 35.3315 36.9287 34.1769 36.3063 33.2945C35.9485 32.7892 35.1109 32.4881 34.4964 32.4304C32.8886 32.2812 29.1545 32.2629 30.2877 35.5515L30.2903 35.5541Z" fill="#FFAF22"/>
<path d="M41.2926 10.8816C41.3444 10.9078 41.3963 10.9392 41.443 10.9706C42.3609 11.5833 43.0299 12.5181 43.5123 13.5183C43.6627 13.8298 43.7975 14.1519 43.8805 14.4897C43.9816 14.8929 44.0075 15.3118 44.0024 15.7281C43.9946 16.2204 43.9375 16.71 43.8364 17.1891C43.769 17.5086 43.5563 17.8516 43.1777 17.7364C43.0196 17.6892 42.8899 17.5767 42.768 17.4641C41.8345 16.6 41.0514 15.537 40.6702 14.3168C40.3746 13.369 40.3305 12.3426 40.5405 11.3712C40.5872 11.1487 40.678 10.8999 40.888 10.8266C41.0203 10.7795 41.1603 10.8188 41.29 10.8842L41.2926 10.8816Z" fill="#FFC931"/>
<path d="M30.0643 1.21753C30.0488 1.28823 30.0306 1.3563 30.0124 1.42176C29.6546 2.63666 29.5898 3.93797 29.8257 5.18429C29.9061 5.60846 30.0202 6.04833 29.9061 6.46203C29.7557 7.00664 29.2578 7.36797 28.7911 7.68217L28.0235 8.20059C27.8161 8.34198 27.5516 8.48599 27.3338 8.36293C27.1859 8.27914 27.1185 8.10371 27.0719 7.93876C26.3536 5.51943 26.9085 2.02397 29.2371 0.615318C29.442 0.492257 29.7091 0.390143 29.9113 0.521059C30.1265 0.65983 30.1214 0.947845 30.0643 1.21491V1.21753Z" fill="#FFC931"/>
<path d="M33.2622 0.675537C33.0574 0.675537 32.8551 0.782888 32.7073 0.932133C32.531 1.11018 32.4195 1.34059 32.3209 1.571C32.0201 2.28057 31.849 3.02155 31.7271 3.77825C31.7012 3.93535 31.7141 4.11601 31.8282 4.2286C31.9294 4.32809 32.0798 4.34642 32.2198 4.35951C32.8784 4.41974 33.5371 4.46163 34.1957 4.48258C34.079 3.9432 34.0298 3.39074 34.0479 2.84089C34.0635 2.36697 34.1257 1.8852 34.0142 1.42438C33.9312 1.09185 33.7186 0.751468 33.3841 0.688629C33.3452 0.680774 33.3037 0.678155 33.2648 0.678155L33.2622 0.675537Z" fill="#FFC931"/>
<path d="M16.461 6.19758C16.308 6.2002 16.155 6.20282 16.002 6.20806C15.7712 6.21329 15.5326 6.22115 15.3252 6.32326C15.0425 6.46203 14.6587 6.97522 15.0659 7.20564C15.1981 7.28157 15.3589 7.28419 15.5093 7.2868C15.8879 7.28942 16.2665 7.28942 16.6451 7.28942H21.2686C21.4631 7.28942 21.6861 7.27633 21.8002 7.11923C21.9428 6.92548 21.8287 6.65579 21.712 6.4437C21.6653 6.3573 21.6109 6.26828 21.5253 6.22377C21.4631 6.19235 21.3905 6.19235 21.3231 6.18973C19.7024 6.16354 18.0791 6.16616 16.4584 6.19758H16.461Z" fill="#FED752"/>
<path d="M41.2205 12.6909C41.2205 12.6909 40.6007 12.1385 40.9742 13.4948C41.345 14.8511 41.8766 15.8329 42.4419 16.0476C42.4419 16.0476 42.7919 16.2571 42.5352 15.2359C42.3822 14.6285 42.1281 14.0525 41.8065 13.5157C41.6198 13.2041 41.4046 12.8795 41.2231 12.6936L41.2205 12.6909Z" fill="#FFF4C7"/>
<path d="M42.2623 12.3793C42.2623 12.3793 41.6944 11.8713 42.0341 13.115C42.3738 14.3587 42.8613 15.2594 43.3799 15.4558C43.3799 15.4558 43.7015 15.647 43.4655 14.7096C43.3255 14.1519 43.0921 13.623 42.7965 13.1307C42.6253 12.8453 42.4282 12.5469 42.2623 12.3767V12.3793Z" fill="#FFF4C7"/>
<path d="M30.0904 32.9987C30.0904 32.9987 28.7394 31.501 26.9657 34.0146C26.9657 34.0146 25.6691 35.3787 24.8834 35.9338C24.0951 36.4889 22.7363 37.476 24.5178 39.4764C26.0425 41.1888 28.2156 39.4764 29.1854 38.4972C30.1552 37.5179 31.3377 36.2899 31.3377 36.2899C31.3377 36.2899 32.0741 34.4047 30.0904 32.9987Z" fill="#FFC931"/>
<path d="M15.232 32.8704C15.232 32.8704 13.3312 33.978 14.008 35.2583C14.6848 36.5387 16.2044 36.3397 16.4974 36.2899C16.7904 36.2402 17.5113 36.1119 17.5943 36.7508C17.6799 37.3896 17.2883 39.1596 19.3732 39.1439C22.0752 39.123 21.484 37.6881 21.611 36.5806C21.7381 35.473 21.0561 33.0432 18.9868 32.4881C16.9175 31.933 15.2294 32.873 15.2294 32.873L15.232 32.8704Z" fill="#FFC931"/>
<path d="M35.6708 13.6072C36.3983 13.6072 36.9881 13.0117 36.9881 12.2771C36.9881 11.5425 36.3983 10.947 35.6708 10.947C34.9433 10.947 34.3535 11.5425 34.3535 12.2771C34.3535 13.0117 34.9433 13.6072 35.6708 13.6072Z" fill="#2B110C"/>
<path d="M36.3996 12.0051C36.507 12.0051 36.594 11.9171 36.594 11.8087C36.594 11.7002 36.507 11.6123 36.3996 11.6123C36.2922 11.6123 36.2051 11.7002 36.2051 11.8087C36.2051 11.9171 36.2922 12.0051 36.3996 12.0051Z" fill="white"/>
<path fill-rule="evenodd" clip-rule="evenodd" d="M35.6748 18.0925C35.6748 18.0925 35.6748 18.0925 35.6748 18.0925C35.6749 18.0927 35.6751 18.093 35.6753 18.0934C35.6761 18.0948 35.6776 18.0975 35.6799 18.1015C35.6844 18.1095 35.6921 18.1225 35.703 18.1397C35.7248 18.1742 35.7593 18.2253 35.8075 18.2866C35.9041 18.4096 36.0544 18.572 36.2659 18.725C36.6832 19.0267 37.3539 19.303 38.3611 19.1404C38.5025 19.1176 38.6355 19.2149 38.6581 19.3576C38.6807 19.5004 38.5844 19.6347 38.443 19.6575C37.2927 19.8432 36.4853 19.5277 35.9639 19.1507C35.706 18.9642 35.5218 18.7655 35.4013 18.6122C35.3409 18.5354 35.2962 18.4695 35.2659 18.4215C35.2507 18.3975 35.2391 18.378 35.2309 18.3637C35.2268 18.3565 35.2236 18.3507 35.2212 18.3463L35.2182 18.3408L35.2172 18.3389L35.2168 18.3381L35.2166 18.3378C35.2165 18.3376 35.2164 18.3375 35.4459 18.2155L35.2164 18.3375C35.1497 18.2095 35.1984 18.0512 35.3251 17.9838C35.4515 17.9166 35.6078 17.9653 35.6748 18.0925ZM35.6748 18.0925C35.6748 18.0925 35.6748 18.0924 35.6748 18.0924L35.6748 18.0925ZM35.6748 18.0924L35.6748 18.0924L35.6748 18.0924Z" fill="#FFAF22"/>
</g>
<defs>
<clipPath id="clip0_84_19546">
<rect width="44" height="40.2069" fill="white"/>
</clipPath>
</defs>
</svg>
