<svg width="100%" height="100%" viewBox="0 0 70 70" fill="none" xmlns="http://www.w3.org/2000/svg">
<path d="M3.613 34.5097L18.4776 23.8186L38.7408 50.2912L24.542 61.3137C24.542 61.3137 22.3008 63.2359 20.3035 60.6443L4.19308 39.0168C4.19308 39.0168 1.95186 36.8428 3.613 34.5097Z" fill="#8DEF67"/>
<path d="M9.55225 33.4291C9.55225 33.4291 10.6069 38.0158 8.28662 39.2221L20.2969 54.8246C20.2969 54.8246 23.8104 54.0491 26.0582 55.9514L36.849 47.8121L19.8421 25.5947L9.55884 33.4225L9.55225 33.4291Z" fill="#7CDE6C"/>
<path d="M16.856 34.4166L17.9766 35.8284C17.9766 35.8284 16.645 38.579 17.4163 40.2758C18.1875 41.9726 19.1697 43.7092 22.8941 42.9072C22.8941 42.9072 26.4075 42.1118 26.8294 43.6628C27.2513 45.2137 25.5638 45.9229 24.5816 46.0621C23.5994 46.2013 22.5711 46.4134 22.5711 46.4134L23.3423 48.7664C23.3423 48.7664 25.3396 49.3696 26.8953 47.9445L28.2334 49.6413L29.9209 48.2163L28.6158 46.4134C28.6158 46.4134 30.1912 44.2262 29.5979 42.3637C28.9981 40.5012 26.4932 39.0828 23.7774 39.4606C21.0615 39.8384 20.4024 39.6793 20.1321 39.0231C20.1321 39.0231 19.6443 37.9825 21.0484 37.2998C22.4524 36.6171 23.8499 36.4912 23.8499 36.4912L22.5645 33.8002L19.8618 34.8275L18.471 33.2434L16.856 34.4166V34.4166Z" fill="white"/>
<path d="M31.3452 13.9955L51.8392 40.773L66.7433 29.7173C66.7433 29.7173 67.6134 28.4447 66.1039 26.2309L50.0989 5.75014C50.0989 5.75014 47.66 2.77413 45.4583 4.5836L31.3518 13.9955H31.3452Z" fill="#8DEF67"/>
<path d="M43.4805 8.89819C43.4805 8.89819 46.3611 11.5229 49.835 9.62065L61.4762 24.4543C61.4762 24.4543 59.2877 26.9332 59.8941 30.645L49.8812 38.2076L33.105 16.2951L43.4805 8.89819V8.89819Z" fill="#7CDE6C"/>
<path d="M36.1238 20.3519C36.1238 20.3519 37.6465 17.8995 41.6082 15.9973C45.5699 14.095 50.751 16.2425 52.2737 17.8995C52.2737 17.8995 55.2598 20.9617 54.8314 26.1118C54.8314 26.1118 53.4866 32.3422 46.6575 34.0058L36.1172 20.3519H36.1238Z" fill="#6BC758"/>
<path d="M3 37.4321V42.9069C3 42.9069 3.12524 43.9741 3.93604 44.9418L19.2554 65.3828C19.2554 65.3828 21.0023 68.0804 23.3885 66.5029L40.3427 53.7903C40.3427 53.7903 40.3559 51.5831 38.7409 50.2906L24.5421 61.3131L19.9344 60.1466L3 37.4321Z" fill="#E2FFD2"/>
<path d="M51.8452 40.773V44.942L60.9617 38.5923C60.9617 38.5923 62.3394 37.671 63.3348 35.7423L66.7493 29.7107L51.8452 40.7663V40.773Z" fill="#E2FFD2"/>
<path d="M18.478 23.8182C18.478 23.8182 17.7595 22.1678 19.269 21.1537L28.9986 14.3334C28.9986 14.3334 29.7369 13.3989 31.3453 13.9954C31.3453 13.9954 50.6461 37.4323 51.8392 40.7729V44.942C51.8392 44.942 51.681 47.7125 50.0397 48.879L43.0326 54.3008C43.0326 54.3008 41.3978 55.6728 39.6576 54.3008L40.3431 53.7838C40.3431 53.7838 40.231 51.7623 38.7413 50.2842L18.478 23.8182Z" fill="#DFE3E5"/>
</svg>
