<svg width="22" height="16" viewBox="0 0 22 16" fill="none" xmlns="http://www.w3.org/2000/svg">
<path d="M7.53085 15.8957C7.34196 15.8957 7.16487 15.866 6.9996 15.8065C6.83432 15.7479 6.68085 15.6478 6.53918 15.5061L0.447513 9.41445C0.187791 9.15473 0.0635962 8.81804 0.0749296 8.40437C0.0872073 7.99165 0.223207 7.65542 0.482929 7.3957C0.742651 7.13598 1.07321 7.00612 1.4746 7.00612C1.87599 7.00612 2.20654 7.13598 2.46626 7.3957L7.53085 12.4603L19.5371 0.454037C19.7968 0.194314 20.1335 0.0644531 20.5472 0.0644531C20.9599 0.0644531 21.2961 0.194314 21.5558 0.454037C21.8156 0.713759 21.9454 1.04998 21.9454 1.4627C21.9454 1.87637 21.8156 2.21306 21.5558 2.47279L8.52251 15.5061C8.38085 15.6478 8.22737 15.7479 8.0621 15.8065C7.89682 15.866 7.71974 15.8957 7.53085 15.8957Z" fill="white"/>
</svg>
