<svg width="22" height="22" viewBox="0 0 22 22" fill="none" xmlns="http://www.w3.org/2000/svg">
<path d="M10.999 12.958L2.45703 21.5C2.1797 21.778 1.85336 21.917 1.47803 21.917C1.10336 21.917 0.777031 21.778 0.499031 21.5C0.221031 21.222 0.0820312 20.8957 0.0820312 20.521C0.0820312 20.1457 0.221031 19.8193 0.499031 19.542L9.04103 11L0.499031 2.45801C0.221031 2.18067 0.0820312 1.85434 0.0820312 1.47901C0.0820312 1.10434 0.221031 0.778008 0.499031 0.500008C0.777031 0.222008 1.10336 0.0830078 1.47803 0.0830078C1.85336 0.0830078 2.1797 0.222008 2.45703 0.500008L10.999 9.04201L19.541 0.500008C19.8184 0.222008 20.1447 0.0830078 20.52 0.0830078C20.8947 0.0830078 21.221 0.222008 21.499 0.500008C21.777 0.778008 21.916 1.10434 21.916 1.47901C21.916 1.85434 21.777 2.18067 21.499 2.45801L12.957 11L21.499 19.542C21.777 19.8193 21.916 20.1457 21.916 20.521C21.916 20.8957 21.777 21.222 21.499 21.5C21.221 21.778 20.8947 21.917 20.52 21.917C20.1447 21.917 19.8184 21.778 19.541 21.5L10.999 12.958Z" fill="#B3B2B8"/>
</svg>
