<svg width="206" height="241" viewBox="0 0 206 241" fill="none" xmlns="http://www.w3.org/2000/svg">
<g clip-path="url(#clip0_518_82160)">
<path d="M43.4093 185.676C43.4093 185.676 21.0693 187.306 19.5593 206.136C19.5593 206.136 19.0993 212.566 22.8393 216.106C22.8393 216.106 24.0393 221.866 19.5393 224.496L15.0393 227.126C15.0393 227.126 16.8293 229.326 28.5293 229.036C40.2293 228.746 55.3493 222.316 57.7793 216.106C57.7793 216.106 73.0793 193.146 43.4093 185.676V185.676Z" fill="#FED752"/>
<path d="M163.349 184.466C163.349 184.466 185.689 186.096 187.199 204.926C187.199 204.926 187.659 211.356 183.919 214.896C183.919 214.896 182.719 220.656 187.219 223.286L191.719 225.916C191.719 225.916 189.929 228.116 178.229 227.826C166.529 227.536 151.409 221.106 148.979 214.896C148.979 214.896 133.679 191.936 163.349 184.466V184.466Z" fill="#FED752"/>
<path d="M175.349 181.046C176.099 180.966 176.849 180.906 177.609 180.866C178.249 180.826 178.609 180.746 179.239 180.656C179.679 180.596 180.829 180.306 181.239 180.146C183.249 179.346 184.689 178.226 186.129 176.606C186.229 176.496 186.329 176.376 186.429 176.256C186.929 175.656 187.389 174.976 187.509 174.196C187.629 173.416 187.279 172.526 186.559 172.226C185.939 171.966 185.209 172.186 184.669 172.586C184.129 172.986 183.729 173.536 183.279 174.036C182.549 174.856 181.669 175.556 180.709 176.086C180.189 176.376 179.589 176.616 179.009 176.546C178.809 176.526 178.669 176.346 178.699 176.146C178.889 174.936 179.219 173.756 179.419 172.556C179.639 171.246 179.699 169.876 179.249 168.626C178.699 167.096 177.409 165.896 175.929 165.206C174.459 164.516 172.729 164.286 171.209 164.836C169.209 165.566 167.859 167.536 167.379 169.606C166.719 172.436 167.519 175.576 169.449 177.746C169.549 177.856 169.499 178.036 169.349 178.066C167.459 178.506 165.489 178.566 163.579 178.246C163.369 178.746 163.069 180.726 163.469 182.006C163.509 182.146 163.569 182.296 163.689 182.386C163.789 182.456 165.219 182.536 165.339 182.536C167.339 182.646 169.319 182.416 171.239 181.846C172.589 181.446 173.969 181.206 175.359 181.056L175.349 181.046ZM171.099 171.186C171.099 171.186 171.099 171.126 171.099 171.096C171.119 170.456 171.269 169.806 171.619 169.266C171.969 168.726 172.539 168.316 173.179 168.246C173.659 168.196 174.159 168.346 174.549 168.636C174.939 168.926 175.239 169.336 175.409 169.786C175.679 170.486 175.669 171.276 175.569 172.016C175.419 173.076 175.089 174.096 174.599 175.046C174.499 175.236 174.359 175.496 174.149 175.586C173.939 175.676 173.619 175.506 173.429 175.406C172.669 174.996 172.059 174.356 171.649 173.596C171.239 172.836 171.079 172.036 171.089 171.206L171.099 171.186Z" fill="#FFAF22"/>
<path d="M70.1492 206.476C68.1792 208.306 68.4792 211.676 68.3492 213.936C68.0992 218.256 68.3792 222.596 69.1892 226.876C69.3192 227.546 69.4692 228.246 70.0092 228.756C70.5192 229.236 71.2792 229.476 72.0192 229.666C78.1492 231.286 84.8692 231.386 91.0692 229.946C92.1492 229.696 93.3092 229.336 93.8792 228.536C94.2992 227.946 94.2992 227.226 94.2892 226.536L94.0692 207.966C94.0692 207.306 94.0292 206.586 93.5292 206.066C92.8492 205.356 91.5892 205.286 90.4892 205.276L76.0492 205.116C74.7092 205.106 73.3492 205.086 72.0792 205.436C71.2592 205.666 70.6292 206.026 70.1392 206.486L70.1492 206.476Z" fill="#FFAF22"/>
<path d="M149.889 205.266C151.859 207.096 151.559 210.466 151.689 212.726C151.939 217.046 151.659 221.386 150.849 225.666C150.719 226.336 150.569 227.036 150.029 227.546C149.519 228.026 148.759 228.266 148.019 228.456C141.889 230.076 135.169 230.176 128.969 228.736C127.889 228.486 126.729 228.126 126.159 227.326C125.739 226.736 125.739 226.016 125.749 225.326L125.969 206.756C125.969 206.096 126.009 205.376 126.509 204.856C127.189 204.146 128.449 204.076 129.549 204.066L143.989 203.906C145.329 203.896 146.689 203.876 147.959 204.226C148.779 204.456 149.409 204.816 149.899 205.276L149.889 205.266Z" fill="#FFAF22"/>
<path d="M62.0993 214.936C59.9393 216.876 60.2793 220.426 60.1393 222.816C59.8693 227.376 60.1793 231.966 61.0593 236.476C61.1993 237.176 61.3693 237.926 61.9593 238.466C62.5093 238.976 63.3493 239.226 64.1593 239.426C70.8593 241.136 78.2093 241.246 84.9893 239.716C86.1693 239.446 87.4393 239.076 88.0593 238.226C88.5193 237.596 88.5193 236.836 88.5093 236.116L88.2693 216.496C88.2693 215.796 88.2293 215.036 87.6793 214.486C86.9393 213.736 85.5593 213.666 84.3593 213.646L68.5693 213.476C67.1093 213.456 65.6193 213.446 64.2293 213.816C63.3393 214.056 62.6393 214.436 62.1093 214.926L62.0993 214.936Z" fill="#FFC931"/>
<path d="M145.349 214.936C147.509 216.876 147.169 220.426 147.309 222.816C147.579 227.376 147.269 231.966 146.389 236.476C146.249 237.176 146.079 237.926 145.489 238.466C144.939 238.976 144.099 239.226 143.289 239.426C136.589 241.136 129.239 241.246 122.459 239.716C121.279 239.446 120.009 239.076 119.389 238.226C118.929 237.596 118.929 236.836 118.939 236.116L119.179 216.496C119.179 215.796 119.219 215.036 119.769 214.486C120.509 213.736 121.889 213.666 123.089 213.646L138.879 213.476C140.339 213.456 141.829 213.446 143.219 213.816C144.109 214.056 144.809 214.436 145.339 214.926L145.349 214.936Z" fill="#FFC931"/>
<path d="M83.8494 107.736C88.8594 106.436 94.0194 105.716 99.2294 105.656C126.019 105.336 152.189 122.536 161.809 146.956C169.399 166.216 166.259 188.926 154.599 206.006C141.809 224.736 118.879 226.206 97.4794 226.446C82.1394 226.616 66.3094 223.026 54.2394 213.776C34.8294 198.906 28.7594 170.806 37.3994 148.226C44.9494 128.476 63.0794 113.126 83.8494 107.736Z" fill="#FFF0B0"/>
<path d="M90.8493 173.976C90.9793 174.406 89.1693 177.736 89.9493 178.116C94.0293 180.106 97.9793 181.636 106.339 179.496C111.449 178.186 114.299 174.146 115.349 170.766C116.699 166.436 115.299 159.566 108.289 154.866C102.529 160.276 100.119 169.216 94.3593 174.626C93.2293 175.686 90.4893 172.766 90.8393 173.966L90.8493 173.976Z" fill="#FFAF22"/>
<path d="M91.3994 153.706C90.8894 153.886 90.3994 154.096 89.9094 154.336C82.1294 158.136 80.1794 169.316 86.2994 175.486C89.8194 179.026 95.1894 180.416 100.119 179.636C105.659 178.756 110.849 175.046 112.819 169.786C114.789 164.526 113.019 157.916 108.299 154.876C105.749 153.236 102.629 152.696 99.5994 152.596C96.8294 152.506 93.9894 152.766 91.3994 153.706V153.706Z" fill="#FFC931"/>
<path d="M96.5493 162.966C96.4393 162.456 96.2893 161.956 96.0693 161.466C95.7893 160.826 95.3893 160.216 94.7993 159.856C94.2093 159.496 93.3893 159.426 92.8393 159.846C92.3193 160.236 92.1393 160.936 92.0193 161.586C91.6893 163.496 91.7592 165.336 91.8892 167.256C91.9892 168.836 91.9292 170.426 92.7392 171.856C92.9292 172.196 93.1893 172.536 93.5493 172.686C93.9793 172.866 94.4892 172.756 94.8792 172.496C95.2692 172.236 95.5393 171.836 95.7493 171.416C96.3693 170.216 96.5492 168.846 96.6692 167.506C96.8092 165.996 96.8692 164.436 96.5592 162.966H96.5493Z" fill="#FFF0B0"/>
<path d="M104.919 162.966C104.809 162.456 104.659 161.956 104.439 161.466C104.159 160.826 103.759 160.216 103.169 159.856C102.579 159.496 101.759 159.426 101.209 159.846C100.689 160.236 100.509 160.936 100.389 161.586C100.059 163.496 100.129 165.336 100.259 167.256C100.359 168.836 100.299 170.426 101.109 171.856C101.299 172.196 101.559 172.536 101.919 172.686C102.349 172.866 102.859 172.756 103.249 172.496C103.639 172.236 103.909 171.836 104.119 171.416C104.739 170.216 104.919 168.846 105.039 167.506C105.179 165.996 105.239 164.436 104.929 162.966H104.919Z" fill="#FFF0B0"/>
<path d="M50.5493 130.856C50.5493 130.856 44.0893 109.456 50.5493 102.626C57.0093 95.7858 76.3793 112.566 76.3793 112.566C76.3793 112.566 59.6693 120.226 50.5493 130.866V130.856Z" fill="#FFF0B0"/>
<path d="M125.249 112.946C125.249 112.946 135.389 102.996 142.679 102.116C144.259 101.926 145.869 102.446 146.989 103.586C149.429 106.066 152.919 112.686 150.309 129.656C150.309 129.656 141.569 118.646 125.239 112.946H125.249Z" fill="#FFF0B0"/>
<path d="M143.049 106.286C142.219 106.256 141.339 106.576 140.569 106.936C138.499 107.916 136.629 109.226 134.779 110.536C133.079 111.736 131.369 112.936 129.919 114.386C128.899 115.406 127.959 116.796 128.399 118.126C128.779 119.256 130.009 119.916 131.139 120.466L142.719 126.096C144.149 126.786 145.979 127.696 146.479 125.676C147.439 121.746 147.559 117.656 147.029 113.656C146.789 111.826 146.409 109.986 145.599 108.296C145.259 107.586 144.799 106.866 144.059 106.516C143.739 106.366 143.399 106.296 143.049 106.286V106.286Z" fill="#FFC931"/>
<path d="M55.0894 105.986C55.6294 105.786 56.2494 105.666 56.9694 105.646C58.3994 105.606 59.8294 105.886 61.1194 106.456C62.6594 107.136 63.9594 108.196 65.2494 109.246L70.7394 113.746C71.3094 114.216 71.9294 114.776 71.9394 115.506C71.9394 116.306 71.2294 116.926 70.5694 117.436L58.3294 126.836C57.7094 127.316 56.9194 127.826 56.1794 127.566C55.5894 127.366 55.2994 126.756 55.0794 126.196C53.4894 122.186 48.8294 108.346 55.0994 105.996L55.0894 105.986Z" fill="#FFC931"/>
<path d="M106.199 192.816C103.359 192.816 101.189 191.676 101.149 191.656C100.659 191.396 100.479 190.786 100.749 190.296C101.009 189.816 101.619 189.626 102.099 189.896C102.359 190.036 108.139 193.026 112.519 187.616C112.869 187.186 113.499 187.116 113.929 187.466C114.359 187.816 114.429 188.446 114.079 188.876C111.569 191.986 108.629 192.826 106.199 192.826V192.816Z" fill="#FFAF22"/>
<path d="M75.0493 157.896C77.9378 157.896 80.2793 155.554 80.2793 152.666C80.2793 149.777 77.9378 147.436 75.0493 147.436C72.1609 147.436 69.8193 149.777 69.8193 152.666C69.8193 155.554 72.1609 157.896 75.0493 157.896Z" fill="#2B110C"/>
<path d="M73.3894 151.596C73.8146 151.596 74.1594 151.251 74.1594 150.826C74.1594 150.401 73.8146 150.056 73.3894 150.056C72.9641 150.056 72.6194 150.401 72.6194 150.826C72.6194 151.251 72.9641 151.596 73.3894 151.596Z" fill="white"/>
<path d="M123.069 157.896C125.958 157.896 128.299 155.554 128.299 152.666C128.299 149.777 125.958 147.436 123.069 147.436C120.181 147.436 117.839 149.777 117.839 152.666C117.839 155.554 120.181 157.896 123.069 157.896Z" fill="#2B110C"/>
<path d="M121.409 151.596C121.835 151.596 122.179 151.251 122.179 150.826C122.179 150.401 121.835 150.056 121.409 150.056C120.984 150.056 120.639 150.401 120.639 150.826C120.639 151.251 120.984 151.596 121.409 151.596Z" fill="white"/>
<path d="M40.5093 140.206C40.5093 140.206 60.0393 144.506 70.3793 127.846C70.3793 127.846 76.3293 142.606 103.279 142.846C103.279 142.846 151.559 143.176 157.569 138.966C157.569 138.966 152.419 129.966 149.949 128.406C149.949 128.406 147.139 130.336 141.499 126.876C135.859 123.416 132.669 122.046 132.669 122.046C132.669 122.046 124.669 118.106 125.229 115.576C125.789 113.056 126.309 111.206 126.309 111.206C126.309 111.206 99.5793 97.7658 74.5293 111.186C74.5293 111.186 76.7993 114.576 71.2593 118.896L58.7293 127.986C58.7293 127.986 52.5593 131.546 49.4893 128.606C49.4893 128.606 42.1193 134.236 40.4993 140.206H40.5093Z" fill="#FED752"/>
</g>
<g clip-path="url(#clip1_518_82160)">
<path d="M47.658 33.8392L49.7639 45.2418H56.0651V33.8392H47.658Z" fill="#FFD25A"/>
<path d="M146.967 83.2166L148.015 88.9221H151.162V83.2166H146.967Z" fill="#8DEF67"/>
<path d="M162.447 31.5067V36.7591H168.152L167.246 31.5067H162.447Z" fill="#FFB585"/>
<path d="M84.4414 45.2418V52.1806H91.9676L90.7845 45.2418H84.4414Z" fill="#FFD4BB"/>
<path d="M61.0239 75.5813L51.8616 80.0701L57.1475 90.8518L65.6553 85.0121L61.0239 75.5813Z" fill="#FFB585"/>
<path d="M134.859 58.163L125.697 62.6602L130.983 73.4418L139.491 67.6021L134.859 58.163Z" fill="#FF632E"/>
<path d="M0.252441 125.84V131.847L15.2628 135.145V130.496L0.252441 125.84Z" fill="#FF632E"/>
<path d="M16.9156 33.5623L13.3245 32.1108L7.71973 40.2914L10.4969 41.4157L16.9156 33.5623Z" fill="#FF632E"/>
<path d="M141.261 0.244202L135.858 10.749L141.261 14.6505L146.967 5.34555L141.261 0.244202Z" fill="#FFD25A"/>
<path d="M206.253 118.943L196.352 121.938L206.253 127.644V118.943Z" fill="#FFA417"/>
<path d="M20.2132 73.4418L20.1377 63.0881L11.8647 70.975L20.2132 73.4418Z" fill="#8DEF67"/>
<path d="M82.5031 12.6703C84.6578 12.6703 86.4046 10.9235 86.4046 8.76877C86.4046 6.61402 84.6578 4.86725 82.5031 4.86725C80.3483 4.86725 78.6016 6.61402 78.6016 8.76877C78.6016 10.9235 80.3483 12.6703 82.5031 12.6703Z" fill="#FF632E"/>
<path d="M180.796 98.1682C182.205 98.1682 183.347 97.0263 183.347 95.6176C183.347 94.2089 182.205 93.0669 180.796 93.0669C179.388 93.0669 178.246 94.2089 178.246 95.6176C178.246 97.0263 179.388 98.1682 180.796 98.1682Z" fill="#FFB585"/>
<path d="M189.296 65.2192C191.242 65.2192 192.82 63.6415 192.82 61.6953C192.82 59.7491 191.242 58.1713 189.296 58.1713C187.35 58.1713 185.772 59.7491 185.772 61.6953C185.772 63.6415 187.35 65.2192 189.296 65.2192Z" fill="#FFD25A"/>
</g>
<defs>
<clipPath id="clip0_518_82160">
<rect width="176.68" height="139.81" fill="white" transform="translate(15.0002 100.986)"/>
</clipPath>
<clipPath id="clip1_518_82160">
<rect width="206" height="240.972" fill="white"/>
</clipPath>
</defs>
</svg>
