<svg width="206" height="242" viewBox="0 0 206 242" fill="none" xmlns="http://www.w3.org/2000/svg">
<g clip-path="url(#clip0_518_81775)">
<path d="M167.792 181.608C168.542 181.528 169.292 181.468 170.052 181.428C170.692 181.388 171.052 181.308 171.682 181.218C172.122 181.158 173.272 180.868 173.682 180.708C175.692 179.908 177.132 178.788 178.572 177.168C178.672 177.058 178.772 176.938 178.872 176.818C179.372 176.218 179.832 175.538 179.952 174.758C180.072 173.978 179.722 173.088 179.002 172.788C178.382 172.528 177.652 172.748 177.112 173.148C176.572 173.548 176.172 174.098 175.722 174.598C174.992 175.418 174.112 176.118 173.152 176.648C172.632 176.938 172.032 177.178 171.452 177.108C171.252 177.088 171.112 176.908 171.142 176.708C171.332 175.498 171.662 174.318 171.862 173.118C172.082 171.808 172.142 170.438 171.692 169.188C171.142 167.658 169.852 166.458 168.372 165.768C166.902 165.078 165.172 164.848 163.652 165.398C161.652 166.128 160.302 168.098 159.822 170.168C159.162 172.998 159.962 176.138 161.892 178.308C161.992 178.418 161.942 178.598 161.792 178.628C159.902 179.068 157.932 179.128 156.022 178.808C155.812 179.308 155.512 181.288 155.912 182.568C155.952 182.708 156.012 182.858 156.132 182.948C156.232 183.018 157.662 183.098 157.782 183.098C159.782 183.208 161.762 182.978 163.682 182.408C165.032 182.008 166.412 181.768 167.802 181.618L167.792 181.608ZM163.542 171.748C163.542 171.748 163.542 171.688 163.542 171.658C163.562 171.018 163.712 170.368 164.062 169.828C164.412 169.288 164.982 168.878 165.622 168.808C166.102 168.758 166.602 168.908 166.992 169.198C167.382 169.488 167.682 169.898 167.852 170.348C168.122 171.048 168.112 171.838 168.012 172.578C167.862 173.638 167.532 174.658 167.042 175.608C166.942 175.798 166.802 176.058 166.592 176.148C166.382 176.238 166.062 176.068 165.872 175.968C165.112 175.558 164.502 174.918 164.092 174.158C163.682 173.398 163.522 172.598 163.532 171.768L163.542 171.748Z" fill="#FFAF22"/>
<path d="M62.5918 207.028C60.6218 208.858 60.9218 212.228 60.7918 214.488C60.5418 218.808 60.8218 223.148 61.6318 227.428C61.7618 228.098 61.9118 228.798 62.4518 229.308C62.9618 229.788 63.7218 230.028 64.4618 230.218C70.5918 231.838 77.3118 231.938 83.5118 230.498C84.5918 230.248 85.7518 229.888 86.3218 229.088C86.7418 228.498 86.7418 227.778 86.7318 227.088L86.5118 208.518C86.5118 207.858 86.4718 207.138 85.9718 206.618C85.2918 205.908 84.0318 205.838 82.9318 205.828L68.4918 205.668C67.1518 205.658 65.7918 205.638 64.5218 205.988C63.7018 206.218 63.0718 206.578 62.5818 207.038L62.5918 207.028Z" fill="#FFAF22"/>
<path d="M142.332 205.828C144.302 207.658 144.002 211.028 144.132 213.288C144.382 217.608 144.102 221.948 143.292 226.228C143.162 226.898 143.012 227.598 142.472 228.108C141.962 228.588 141.202 228.828 140.462 229.018C134.332 230.638 127.612 230.738 121.412 229.298C120.332 229.048 119.172 228.688 118.602 227.888C118.182 227.298 118.182 226.578 118.192 225.888L118.412 207.318C118.412 206.658 118.452 205.938 118.952 205.418C119.632 204.708 120.892 204.638 121.992 204.628L136.432 204.468C137.772 204.458 139.132 204.438 140.402 204.788C141.222 205.018 141.852 205.378 142.342 205.838L142.332 205.828Z" fill="#FFAF22"/>
<path d="M54.5417 215.498C52.3817 217.438 52.7217 220.988 52.5817 223.378C52.3117 227.938 52.6217 232.528 53.5017 237.038C53.6417 237.738 53.8117 238.488 54.4017 239.028C54.9517 239.538 55.7917 239.788 56.6017 239.988C63.3017 241.698 70.6517 241.808 77.4317 240.278C78.6117 240.008 79.8817 239.638 80.5017 238.788C80.9617 238.158 80.9617 237.398 80.9517 236.678L80.7117 217.058C80.7117 216.358 80.6717 215.598 80.1217 215.048C79.3817 214.298 78.0017 214.228 76.8017 214.208L61.0117 214.038C59.5517 214.018 58.0617 214.008 56.6717 214.378C55.7817 214.618 55.0817 214.998 54.5517 215.488L54.5417 215.498Z" fill="#FFC931"/>
<path d="M137.802 215.498C139.962 217.438 139.622 220.988 139.762 223.378C140.032 227.938 139.722 232.528 138.842 237.038C138.702 237.738 138.532 238.488 137.942 239.028C137.392 239.538 136.552 239.788 135.742 239.988C129.042 241.698 121.692 241.808 114.912 240.278C113.732 240.008 112.462 239.638 111.842 238.788C111.382 238.158 111.382 237.398 111.392 236.678L111.632 217.058C111.632 216.358 111.672 215.598 112.222 215.048C112.962 214.298 114.342 214.228 115.542 214.208L131.332 214.038C132.792 214.018 134.282 214.008 135.672 214.378C136.562 214.618 137.262 214.998 137.792 215.488L137.802 215.498Z" fill="#FFC931"/>
<path d="M76.2917 108.298C81.3017 106.998 86.4617 106.278 91.6717 106.218C118.462 105.898 144.632 123.098 154.252 147.518C161.842 166.778 158.702 189.488 147.042 206.568C134.252 225.298 111.322 226.768 89.9217 227.008C74.5817 227.178 58.7517 223.588 46.6817 214.338C27.2717 199.458 21.2017 171.358 29.8417 148.788C37.4017 129.028 55.5217 113.688 76.2917 108.298Z" fill="#FFF0B0"/>
<path d="M83.3017 174.538C83.4317 174.968 81.6217 178.298 82.4017 178.678C86.4817 180.668 90.4317 182.198 98.7917 180.058C103.902 178.748 106.752 174.708 107.802 171.328C109.152 166.998 107.752 160.128 100.742 155.428C94.9817 160.838 92.5717 169.778 86.8117 175.188C85.6817 176.248 82.9417 173.328 83.2917 174.528L83.3017 174.538Z" fill="#FFAF22"/>
<path d="M83.8417 154.268C83.3317 154.448 82.8417 154.658 82.3517 154.898C74.5717 158.698 72.6217 169.878 78.7417 176.048C82.2617 179.588 87.6317 180.978 92.5617 180.198C98.1017 179.318 103.292 175.608 105.262 170.348C107.232 165.088 105.462 158.478 100.742 155.438C98.1917 153.798 95.0717 153.258 92.0417 153.158C89.2717 153.068 86.4317 153.328 83.8417 154.268V154.268Z" fill="#FFC931"/>
<path d="M89.0016 163.528C88.8916 163.018 88.7416 162.518 88.5216 162.028C88.2416 161.388 87.8416 160.778 87.2516 160.418C86.6616 160.058 85.8416 159.988 85.2916 160.408C84.7716 160.798 84.5916 161.498 84.4716 162.148C84.1416 164.058 84.2116 165.898 84.3416 167.818C84.4416 169.398 84.3816 170.988 85.1916 172.418C85.3816 172.758 85.6416 173.098 86.0016 173.248C86.4316 173.428 86.9416 173.318 87.3316 173.058C87.7216 172.798 87.9916 172.398 88.2016 171.978C88.8216 170.778 89.0016 169.408 89.1216 168.068C89.2616 166.558 89.3216 164.998 89.0116 163.528H89.0016Z" fill="#FFF0B0"/>
<path d="M97.3618 163.528C97.2518 163.018 97.1018 162.518 96.8818 162.028C96.6018 161.388 96.2018 160.778 95.6118 160.418C95.0218 160.058 94.2018 159.988 93.6518 160.408C93.1318 160.798 92.9518 161.498 92.8318 162.148C92.5018 164.058 92.5717 165.898 92.7017 167.818C92.8017 169.398 92.7418 170.988 93.5518 172.418C93.7418 172.758 94.0018 173.098 94.3618 173.248C94.7918 173.428 95.3018 173.318 95.6918 173.058C96.0818 172.798 96.3518 172.398 96.5618 171.978C97.1818 170.778 97.3618 169.408 97.4818 168.068C97.6218 166.558 97.6818 164.998 97.3718 163.528H97.3618Z" fill="#FFF0B0"/>
<path d="M42.9917 131.418C42.9917 131.418 36.5317 110.018 42.9917 103.188C49.4517 96.3476 68.8217 113.128 68.8217 113.128C68.8217 113.128 52.1117 120.788 42.9917 131.428V131.418Z" fill="#FFF0B0"/>
<path d="M117.692 113.508C117.692 113.508 127.842 103.558 135.132 102.678C136.712 102.488 138.322 103.008 139.442 104.148C141.882 106.628 145.372 113.248 142.762 130.218C142.762 130.218 134.022 119.208 117.692 113.508V113.508Z" fill="#FFF0B0"/>
<path d="M135.502 106.838C134.672 106.808 133.792 107.128 133.022 107.488C130.952 108.468 129.082 109.778 127.232 111.088C125.532 112.288 123.822 113.488 122.372 114.938C121.352 115.958 120.412 117.348 120.852 118.678C121.232 119.808 122.462 120.468 123.592 121.018L135.172 126.648C136.602 127.338 138.432 128.248 138.932 126.228C139.892 122.298 140.012 118.208 139.482 114.208C139.242 112.378 138.862 110.538 138.052 108.848C137.712 108.138 137.252 107.418 136.512 107.068C136.192 106.918 135.852 106.848 135.502 106.838V106.838Z" fill="#FFC931"/>
<path d="M47.5318 106.548C48.0718 106.348 48.6918 106.228 49.4118 106.208C50.8418 106.168 52.2718 106.448 53.5618 107.018C55.1018 107.698 56.4018 108.758 57.6918 109.808L63.1818 114.308C63.7518 114.778 64.3718 115.338 64.3818 116.068C64.3818 116.868 63.6718 117.488 63.0118 117.998L50.7718 127.398C50.1518 127.878 49.3618 128.388 48.6218 128.128C48.0318 127.928 47.7418 127.318 47.5218 126.758C45.9318 122.748 41.2718 108.908 47.5418 106.558L47.5318 106.548Z" fill="#FFC931"/>
<path d="M67.4917 158.458C70.3802 158.458 72.7217 156.116 72.7217 153.228C72.7217 150.339 70.3802 147.998 67.4917 147.998C64.6033 147.998 62.2617 150.339 62.2617 153.228C62.2617 156.116 64.6033 158.458 67.4917 158.458Z" fill="#2B110C"/>
<path d="M65.8318 152.158C66.257 152.158 66.6018 151.813 66.6018 151.388C66.6018 150.962 66.257 150.618 65.8318 150.618C65.4065 150.618 65.0618 150.962 65.0618 151.388C65.0618 151.813 65.4065 152.158 65.8318 152.158Z" fill="white"/>
<path d="M115.512 158.458C118.4 158.458 120.742 156.116 120.742 153.228C120.742 150.339 118.4 147.998 115.512 147.998C112.623 147.998 110.282 150.339 110.282 153.228C110.282 156.116 112.623 158.458 115.512 158.458Z" fill="#2B110C"/>
<path d="M113.852 152.158C114.277 152.158 114.622 151.813 114.622 151.388C114.622 150.962 114.277 150.618 113.852 150.618C113.427 150.618 113.082 150.962 113.082 151.388C113.082 151.813 113.427 152.158 113.852 152.158Z" fill="white"/>
<path d="M117.482 126.208C116.002 127.038 114.292 127.518 112.672 127.938C104.162 130.128 95.5917 132.278 86.8717 132.788C82.4517 133.048 77.9217 132.868 73.7717 131.138C69.4317 129.328 65.7817 125.918 62.5217 122.248C59.4817 118.818 56.7017 115.108 54.2217 111.168C49.9417 104.348 57.0817 107.388 61.2217 107.128C65.6217 106.848 69.5617 104.208 73.6917 102.498C86.3017 97.2577 100.682 100.798 112.612 107.758C115.302 109.328 117.982 111.148 119.742 113.898C121.492 116.658 122.092 120.568 120.442 123.408C119.712 124.658 118.672 125.548 117.482 126.208Z" fill="#FED752"/>
<path d="M91.1618 181.628C91.1618 181.628 79.8018 177.338 70.2218 184.808C70.2218 184.808 62.9418 187.678 58.3518 184.808C58.3518 184.808 62.5618 191.518 69.0818 193.428C75.5918 195.348 89.5018 195.858 91.1718 181.618L91.1618 181.628Z" fill="#5B4428"/>
<path d="M91.1619 181.628C91.1619 181.628 102.522 177.338 112.102 184.808C112.102 184.808 119.382 187.678 123.972 184.808C123.972 184.808 119.762 191.518 113.242 193.428C106.732 195.348 92.8219 195.858 91.1519 181.618L91.1619 181.628Z" fill="#5B4428"/>
</g>
<g clip-path="url(#clip1_518_81775)">
<path d="M47.658 33.8392L49.7639 45.2418H56.0651V33.8392H47.658Z" fill="#FFD25A"/>
<path d="M146.967 83.2166L148.015 88.9221H151.162V83.2166H146.967Z" fill="#8DEF67"/>
<path d="M162.447 31.5067V36.7591H168.152L167.246 31.5067H162.447Z" fill="#FFB585"/>
<path d="M84.4414 45.2418V52.1806H91.9676L90.7845 45.2418H84.4414Z" fill="#FFD4BB"/>
<path d="M61.0239 75.5813L51.8616 80.0701L57.1475 90.8518L65.6553 85.0121L61.0239 75.5813Z" fill="#FFB585"/>
<path d="M134.859 58.163L125.697 62.6602L130.983 73.4418L139.491 67.6021L134.859 58.163Z" fill="#FF632E"/>
<path d="M0.252441 125.84V131.847L15.2628 135.145V130.496L0.252441 125.84Z" fill="#FF632E"/>
<path d="M16.9156 33.5623L13.3245 32.1108L7.71973 40.2914L10.4969 41.4157L16.9156 33.5623Z" fill="#FF632E"/>
<path d="M141.261 0.244202L135.858 10.749L141.261 14.6505L146.967 5.34555L141.261 0.244202Z" fill="#FFD25A"/>
<path d="M206.253 118.943L196.352 121.938L206.253 127.644V118.943Z" fill="#FFA417"/>
<path d="M20.2132 73.4418L20.1377 63.0881L11.8647 70.975L20.2132 73.4418Z" fill="#8DEF67"/>
<path d="M82.5031 12.6703C84.6578 12.6703 86.4046 10.9235 86.4046 8.76877C86.4046 6.61402 84.6578 4.86725 82.5031 4.86725C80.3483 4.86725 78.6016 6.61402 78.6016 8.76877C78.6016 10.9235 80.3483 12.6703 82.5031 12.6703Z" fill="#FF632E"/>
<path d="M180.796 98.1682C182.205 98.1682 183.347 97.0263 183.347 95.6176C183.347 94.2089 182.205 93.0669 180.796 93.0669C179.388 93.0669 178.246 94.2089 178.246 95.6176C178.246 97.0263 179.388 98.1682 180.796 98.1682Z" fill="#FFB585"/>
<path d="M189.296 65.2192C191.242 65.2192 192.82 63.6415 192.82 61.6953C192.82 59.7491 191.242 58.1713 189.296 58.1713C187.35 58.1713 185.772 59.7491 185.772 61.6953C185.772 63.6415 187.35 65.2192 189.296 65.2192Z" fill="#FFD25A"/>
</g>
<defs>
<clipPath id="clip0_518_81775">
<rect width="153.96" height="141.37" fill="white" transform="translate(26.0002 99.9858)"/>
</clipPath>
<clipPath id="clip1_518_81775">
<rect width="206" height="240.972" fill="white"/>
</clipPath>
</defs>
</svg>
