<svg width="100%" height="100%" viewBox="0 0 246 277" fill="none" xmlns="http://www.w3.org/2000/svg">
<g clip-path="url(#clip0_169_42868)">
<path d="M56.5 40.04L59.01 53.63H66.52V40.04H56.5Z" fill="#FFD25A"/>
<path d="M174.859 98.8901L176.109 105.69H179.859V98.8901H174.859Z" fill="#8DEF67"/>
<path d="M193.311 37.2598V43.5198H200.111L199.031 37.2598H193.311Z" fill="#FFB585"/>
<path d="M100.34 53.6299V61.8999H109.31L107.9 53.6299H100.34Z" fill="#FFD4BB"/>
<path d="M72.4298 89.79L61.5098 95.14L67.8098 107.99L77.9498 101.03L72.4298 89.79Z" fill="#FFB585"/>
<path d="M160.43 69.0298L149.51 74.3898L155.81 87.2398L165.95 80.2798L160.43 69.0298Z" fill="#FF632E"/>
<path d="M0 149.69V156.85L17.89 160.78V155.24L0 149.69Z" fill="#FF632E"/>
<path d="M19.8604 39.71L15.5804 37.98L8.90039 47.73L12.2104 49.07L19.8604 39.71Z" fill="#FF632E"/>
<path d="M168.059 0L161.619 12.52L168.059 17.17L174.859 6.08L168.059 0Z" fill="#FFD25A"/>
<path d="M245.521 141.47L233.721 145.04L245.521 151.84V141.47Z" fill="#FFA417"/>
<path d="M23.7898 87.2399L23.6998 74.8999L13.8398 84.2999L23.7898 87.2399Z" fill="#8DEF67"/>
<path d="M98.0309 14.8098C100.599 14.8098 102.681 12.7279 102.681 10.1598C102.681 7.59164 100.599 5.50977 98.0309 5.50977C95.4627 5.50977 93.3809 7.59164 93.3809 10.1598C93.3809 12.7279 95.4627 14.8098 98.0309 14.8098Z" fill="#FF632E"/>
<path d="M215.181 116.71C216.86 116.71 218.221 115.349 218.221 113.67C218.221 111.991 216.86 110.63 215.181 110.63C213.502 110.63 212.141 111.991 212.141 113.67C212.141 115.349 213.502 116.71 215.181 116.71Z" fill="#FFB585"/>
<path d="M225.309 77.44C227.629 77.44 229.509 75.5596 229.509 73.24C229.509 70.9204 227.629 69.04 225.309 69.04C222.99 69.04 221.109 70.9204 221.109 73.24C221.109 75.5596 222.99 77.44 225.309 77.44Z" fill="#FFD25A"/>
<path d="M115.67 251.58C116.06 251.54 116.45 251.51 116.84 251.49C117.17 251.47 117.36 251.43 117.69 251.38C117.92 251.35 118.51 251.2 118.73 251.11C119.77 250.69 120.52 250.11 121.27 249.27C121.32 249.21 121.37 249.15 121.42 249.09C121.68 248.78 121.92 248.42 121.98 248.02C122.04 247.62 121.86 247.16 121.49 247C121.17 246.86 120.79 246.98 120.51 247.18C120.23 247.38 120.02 247.67 119.79 247.93C119.41 248.36 118.96 248.72 118.45 248.99C118.18 249.14 117.87 249.26 117.57 249.23C117.47 249.22 117.39 249.13 117.41 249.02C117.51 248.39 117.68 247.78 117.79 247.16C117.9 246.48 117.93 245.77 117.7 245.12C117.41 244.32 116.74 243.7 115.98 243.34C115.22 242.98 114.32 242.86 113.53 243.15C112.49 243.53 111.79 244.55 111.54 245.63C111.2 247.1 111.61 248.73 112.62 249.86C112.67 249.92 112.64 250.01 112.57 250.03C111.59 250.26 110.57 250.29 109.57 250.12C109.46 250.38 109.31 251.41 109.51 252.07C109.53 252.14 109.56 252.22 109.62 252.26C109.67 252.29 110.41 252.34 110.47 252.34C111.51 252.4 112.54 252.28 113.53 251.98C114.23 251.77 114.95 251.65 115.67 251.57V251.58ZM113.47 246.46V246.41C113.48 246.08 113.56 245.74 113.74 245.46C113.92 245.18 114.22 244.96 114.55 244.93C114.8 244.9 115.06 244.98 115.26 245.13C115.46 245.28 115.62 245.49 115.71 245.73C115.85 246.1 115.85 246.5 115.79 246.89C115.71 247.44 115.54 247.97 115.28 248.46C115.23 248.56 115.16 248.69 115.05 248.74C114.94 248.79 114.78 248.7 114.68 248.65C114.29 248.44 113.97 248.1 113.76 247.71C113.55 247.32 113.46 246.9 113.47 246.47V246.46Z" fill="#FFAF22"/>
<path d="M68.1809 213.54C70.7809 212.87 73.4609 212.49 76.1609 212.46C90.0709 212.29 103.641 221.22 108.641 233.9C112.581 243.89 110.951 255.68 104.901 264.54C98.2609 274.26 86.3609 275.03 75.2609 275.15C67.3009 275.24 59.0809 273.37 52.8209 268.57C42.7409 260.85 39.6009 246.27 44.0809 234.55C48.0009 224.3 57.4109 216.33 68.1909 213.54H68.1809Z" fill="#FFF0B0"/>
<path d="M71.8218 247.91C71.8918 248.13 70.9518 249.86 71.3618 250.06C73.4818 251.09 75.5318 251.89 79.8718 250.78C82.5218 250.1 84.0018 248 84.5518 246.25C85.2518 244 84.5318 240.44 80.8918 238C77.9018 240.81 76.6518 245.45 73.6618 248.26C73.0718 248.81 71.6518 247.3 71.8418 247.92L71.8218 247.91Z" fill="#FFAF22"/>
<path d="M72.1013 237.39C71.8413 237.48 71.5813 237.59 71.3313 237.72C67.2913 239.69 66.2813 245.5 69.4513 248.7C71.2813 250.54 74.0613 251.26 76.6213 250.85C79.5013 250.39 82.1913 248.47 83.2113 245.74C84.2313 243.01 83.3213 239.58 80.8713 238C79.5513 237.15 77.9313 236.87 76.3513 236.82C74.9113 236.77 73.4413 236.91 72.0913 237.4L72.1013 237.39Z" fill="#FFC931"/>
<path d="M74.7803 242.2C74.7203 241.93 74.6403 241.67 74.5303 241.42C74.3803 241.09 74.1803 240.77 73.8703 240.58C73.5603 240.39 73.1403 240.36 72.8503 240.58C72.5803 240.78 72.4803 241.15 72.4303 241.48C72.2603 242.47 72.2903 243.43 72.3603 244.42C72.4103 245.24 72.3803 246.07 72.8003 246.81C72.9003 246.99 73.0303 247.16 73.2203 247.24C73.4403 247.33 73.7103 247.28 73.9103 247.14C74.1103 247 74.2503 246.8 74.3603 246.58C74.6803 245.96 74.7703 245.25 74.8403 244.55C74.9103 243.77 74.9403 242.96 74.7803 242.19V242.2Z" fill="#FFF0B0"/>
<path d="M79.1202 242.2C79.0602 241.93 78.9802 241.67 78.8702 241.42C78.7202 241.09 78.5202 240.77 78.2102 240.58C77.9002 240.39 77.4802 240.36 77.1902 240.58C76.9202 240.78 76.8202 241.15 76.7702 241.48C76.6002 242.47 76.6302 243.43 76.7002 244.42C76.7502 245.24 76.7202 246.07 77.1402 246.81C77.2402 246.99 77.3702 247.16 77.5602 247.24C77.7802 247.33 78.0502 247.28 78.2502 247.14C78.4502 247 78.5902 246.8 78.7002 246.58C79.0202 245.96 79.1102 245.25 79.1802 244.55C79.2502 243.77 79.2802 242.96 79.1202 242.19V242.2Z" fill="#FFF0B0"/>
<path d="M50.901 225.54C50.901 225.54 47.551 214.43 50.901 210.89C54.251 207.34 64.301 216.05 64.301 216.05C64.301 216.05 55.631 220.03 50.901 225.55V225.54Z" fill="#FFF0B0"/>
<path d="M89.6719 216.24C89.6719 216.24 94.9419 211.08 98.7219 210.62C99.5419 210.52 100.382 210.79 100.962 211.38C102.232 212.67 104.042 216.1 102.682 224.91C102.682 224.91 98.1519 219.19 89.6719 216.24Z" fill="#FFF0B0"/>
<path d="M98.9102 212.78C98.4802 212.77 98.0202 212.93 97.6202 213.12C96.5402 213.63 95.5802 214.31 94.6202 214.99C93.7402 215.61 92.8502 216.24 92.1002 216.99C91.5702 217.52 91.0802 218.24 91.3102 218.93C91.5102 219.52 92.1502 219.86 92.7302 220.15L98.7402 223.07C99.4802 223.43 100.43 223.9 100.69 222.85C101.19 220.81 101.25 218.69 100.98 216.61C100.85 215.66 100.66 214.7 100.24 213.83C100.06 213.46 99.8302 213.09 99.4402 212.91C99.2702 212.83 99.1002 212.79 98.9102 212.79V212.78Z" fill="#FFC931"/>
<path d="M53.2602 212.63C53.5402 212.52 53.8602 212.46 54.2302 212.45C54.9702 212.43 55.7202 212.57 56.3902 212.87C57.1902 213.22 57.8702 213.77 58.5302 214.32L61.3802 216.65C61.6802 216.89 62.0002 217.18 62.0002 217.56C62.0002 217.97 61.6302 218.3 61.2902 218.56L54.9402 223.44C54.6202 223.69 54.2102 223.95 53.8202 223.82C53.5202 223.71 53.3602 223.4 53.2502 223.11C52.4202 221.03 50.0102 213.85 53.2502 212.63H53.2602Z" fill="#FFC931"/>
<path d="M79.7804 257.69C78.3104 257.69 77.1804 257.1 77.1604 257.09C76.9104 256.95 76.8104 256.64 76.9504 256.39C77.0904 256.14 77.4004 256.04 77.6504 256.18C77.7804 256.25 80.7904 257.8 83.0604 255C83.2404 254.78 83.5704 254.74 83.7904 254.92C84.0104 255.1 84.0504 255.43 83.8704 255.65C82.5604 257.26 81.0404 257.7 79.7804 257.7V257.69Z" fill="#FFAF22"/>
<path d="M63.6202 239.57C65.1168 239.57 66.3302 238.357 66.3302 236.86C66.3302 235.364 65.1168 234.15 63.6202 234.15C62.1235 234.15 60.9102 235.364 60.9102 236.86C60.9102 238.357 62.1235 239.57 63.6202 239.57Z" fill="#2B110C"/>
<path d="M62.7516 236.3C62.9725 236.3 63.1516 236.121 63.1516 235.9C63.1516 235.679 62.9725 235.5 62.7516 235.5C62.5307 235.5 62.3516 235.679 62.3516 235.9C62.3516 236.121 62.5307 236.3 62.7516 236.3Z" fill="white"/>
<path d="M88.5401 239.57C90.0368 239.57 91.2501 238.357 91.2501 236.86C91.2501 235.364 90.0368 234.15 88.5401 234.15C87.0434 234.15 85.8301 235.364 85.8301 236.86C85.8301 238.357 87.0434 239.57 88.5401 239.57Z" fill="#2B110C"/>
<path d="M87.6813 236.3C87.9022 236.3 88.0813 236.121 88.0813 235.9C88.0813 235.679 87.9022 235.5 87.6813 235.5C87.4603 235.5 87.2812 235.679 87.2812 235.9C87.2812 236.121 87.4603 236.3 87.6813 236.3Z" fill="white"/>
<path d="M45.4617 230.35C45.4617 230.35 61.1917 231.02 69.7917 225.92C78.3917 220.82 80.4917 213.19 80.4917 213.19C80.4917 213.19 71.0217 208.8 63.4917 215.17C63.4917 215.17 63.0417 219.74 59.2817 222.07L53.3417 225.92L48.5917 227.99C48.5917 227.99 41.6617 230.05 45.4517 230.35H45.4617Z" fill="#FED752"/>
<path d="M59.3714 228.46C57.8914 229.66 56.3914 230.83 54.7014 231.7C54.1214 232 53.5214 232.25 52.9314 232.51C52.7914 232.57 52.6414 232.65 52.5914 232.79C52.5114 233.07 52.8714 233.25 53.1614 233.3C54.5714 233.52 56.0014 233.41 57.4214 233.25C69.2314 231.95 80.8914 227.44 90.6014 220.6C91.1514 220.21 91.7314 219.77 91.9714 219.14C92.3714 218.11 91.7314 216.96 90.9814 216.15C88.4314 213.39 84.4714 212.34 80.7114 212.32C80.2214 212.32 79.7214 212.33 79.2514 212.5C78.7614 212.68 78.3514 213.01 77.9514 213.34L59.7914 228.13C59.6514 228.24 59.5114 228.36 59.3714 228.47V228.46Z" fill="#FED752"/>
<path d="M84.37 219.77C84.37 219.77 88.27 227.59 99.55 228.65C99.55 228.65 102.15 228.74 104.04 228.65C104.04 228.65 107.91 227.77 101.33 222.38C94.75 216.99 89.45 215.79 89.45 215.79C89.45 215.79 82.98 215.58 84.38 219.78L84.37 219.77Z" fill="#FED752"/>
<path d="M204.229 177.73C204.619 177.69 205.009 177.66 205.399 177.64C205.729 177.62 205.919 177.58 206.249 177.53C206.479 177.5 207.069 177.35 207.289 177.26C208.329 176.84 209.079 176.26 209.829 175.42C209.879 175.36 209.929 175.3 209.979 175.24C210.239 174.93 210.479 174.57 210.539 174.17C210.599 173.77 210.419 173.31 210.049 173.15C209.729 173.01 209.349 173.13 209.069 173.33C208.789 173.53 208.579 173.82 208.349 174.08C207.969 174.51 207.519 174.87 207.009 175.14C206.739 175.29 206.429 175.41 206.129 175.38C206.029 175.37 205.949 175.28 205.969 175.17C206.069 174.54 206.239 173.93 206.349 173.31C206.459 172.63 206.489 171.92 206.259 171.27C205.969 170.47 205.299 169.85 204.539 169.49C203.779 169.13 202.879 169.01 202.089 169.3C201.049 169.68 200.349 170.7 200.099 171.78C199.759 173.25 200.169 174.88 201.179 176.01C201.229 176.07 201.199 176.16 201.129 176.18C200.149 176.41 199.129 176.44 198.129 176.27C198.019 176.53 197.869 177.56 198.069 178.22C198.089 178.29 198.119 178.37 198.179 178.41C198.229 178.44 198.969 178.49 199.029 178.49C200.069 178.55 201.099 178.43 202.089 178.13C202.789 177.92 203.509 177.8 204.229 177.72V177.73ZM202.029 172.61V172.56C202.039 172.23 202.119 171.89 202.299 171.61C202.479 171.33 202.779 171.11 203.109 171.08C203.359 171.05 203.619 171.13 203.819 171.28C204.019 171.43 204.179 171.64 204.269 171.88C204.409 172.25 204.409 172.65 204.349 173.04C204.269 173.59 204.099 174.12 203.839 174.61C203.789 174.71 203.719 174.84 203.609 174.89C203.499 174.94 203.339 174.85 203.239 174.8C202.849 174.59 202.529 174.25 202.319 173.86C202.109 173.47 202.019 173.05 202.029 172.62V172.61Z" fill="#FFAF22"/>
<path d="M156.74 139.69C159.34 139.02 162.02 138.64 164.72 138.61C178.63 138.44 192.2 147.37 197.2 160.05C201.14 170.04 199.51 181.83 193.46 190.69C186.82 200.41 174.92 201.18 163.82 201.3C155.86 201.39 147.64 199.52 141.38 194.72C131.3 187 128.16 172.42 132.64 160.7C136.56 150.45 145.97 142.48 156.75 139.69H156.74Z" fill="#FFF0B0"/>
<path d="M160.38 174.06C160.45 174.28 159.51 176.01 159.92 176.21C162.04 177.24 164.09 178.04 168.43 176.93C171.08 176.25 172.56 174.15 173.11 172.4C173.81 170.15 173.09 166.59 169.45 164.15C166.46 166.96 165.21 171.6 162.22 174.41C161.63 174.96 160.21 173.45 160.4 174.07L160.38 174.06Z" fill="#FFAF22"/>
<path d="M160.66 163.54C160.4 163.63 160.14 163.74 159.89 163.87C155.85 165.84 154.84 171.65 158.01 174.85C159.84 176.69 162.62 177.41 165.18 177C168.06 176.54 170.75 174.62 171.77 171.89C172.79 169.16 171.88 165.73 169.43 164.15C168.11 163.3 166.49 163.02 164.91 162.97C163.47 162.92 162 163.06 160.65 163.55L160.66 163.54Z" fill="#FFC931"/>
<path d="M163.339 168.35C163.279 168.08 163.199 167.82 163.089 167.57C162.939 167.24 162.739 166.92 162.429 166.73C162.119 166.54 161.699 166.51 161.409 166.73C161.139 166.93 161.039 167.3 160.989 167.63C160.819 168.62 160.849 169.58 160.919 170.57C160.969 171.39 160.939 172.22 161.359 172.96C161.459 173.14 161.589 173.31 161.779 173.39C161.999 173.48 162.269 173.43 162.469 173.29C162.669 173.15 162.809 172.95 162.919 172.73C163.239 172.11 163.329 171.4 163.399 170.7C163.469 169.92 163.499 169.11 163.339 168.34V168.35Z" fill="#FFF0B0"/>
<path d="M167.679 168.35C167.619 168.08 167.539 167.82 167.429 167.57C167.279 167.24 167.079 166.92 166.769 166.73C166.459 166.54 166.039 166.51 165.749 166.73C165.479 166.93 165.379 167.3 165.329 167.63C165.159 168.62 165.189 169.58 165.259 170.57C165.309 171.39 165.279 172.22 165.699 172.96C165.799 173.14 165.929 173.31 166.119 173.39C166.339 173.48 166.609 173.43 166.809 173.29C167.009 173.15 167.149 172.95 167.259 172.73C167.579 172.11 167.669 171.4 167.739 170.7C167.809 169.92 167.839 169.11 167.679 168.34V168.35Z" fill="#FFF0B0"/>
<path d="M139.46 151.69C139.46 151.69 136.11 140.58 139.46 137.04C142.81 133.49 152.86 142.2 152.86 142.2C152.86 142.2 144.19 146.18 139.46 151.7V151.69Z" fill="#FFF0B0"/>
<path d="M178.23 142.39C178.23 142.39 183.5 137.23 187.28 136.77C188.1 136.67 188.94 136.94 189.52 137.53C190.79 138.82 192.6 142.25 191.24 151.06C191.24 151.06 186.71 145.34 178.23 142.39Z" fill="#FFF0B0"/>
<path d="M187.469 138.93C187.039 138.92 186.579 139.08 186.179 139.27C185.099 139.78 184.139 140.46 183.179 141.14C182.299 141.76 181.409 142.39 180.659 143.14C180.129 143.67 179.639 144.39 179.869 145.08C180.069 145.67 180.709 146.01 181.289 146.3L187.299 149.22C188.039 149.58 188.989 150.05 189.249 149C189.749 146.96 189.809 144.84 189.539 142.76C189.409 141.81 189.219 140.85 188.799 139.98C188.619 139.61 188.389 139.24 187.999 139.06C187.829 138.98 187.659 138.94 187.469 138.94V138.93Z" fill="#FFC931"/>
<path d="M141.819 138.78C142.099 138.67 142.419 138.61 142.789 138.6C143.529 138.58 144.279 138.72 144.949 139.02C145.749 139.37 146.429 139.92 147.089 140.47L149.939 142.8C150.239 143.04 150.559 143.33 150.559 143.71C150.559 144.12 150.189 144.45 149.849 144.71L143.499 149.59C143.179 149.84 142.769 150.1 142.379 149.97C142.079 149.86 141.919 149.55 141.809 149.26C140.979 147.18 138.569 140 141.809 138.78H141.819Z" fill="#FFC931"/>
<path d="M152.169 165.72C153.666 165.72 154.879 164.507 154.879 163.01C154.879 161.514 153.666 160.3 152.169 160.3C150.672 160.3 149.459 161.514 149.459 163.01C149.459 164.507 150.672 165.72 152.169 165.72Z" fill="#2B110C"/>
<path d="M151.31 162.45C151.531 162.45 151.71 162.271 151.71 162.05C151.71 161.829 151.531 161.65 151.31 161.65C151.089 161.65 150.91 161.829 150.91 162.05C150.91 162.271 151.089 162.45 151.31 162.45Z" fill="white"/>
<path d="M177.099 165.72C178.595 165.72 179.809 164.507 179.809 163.01C179.809 161.514 178.595 160.3 177.099 160.3C175.602 160.3 174.389 161.514 174.389 163.01C174.389 164.507 175.602 165.72 177.099 165.72Z" fill="#2B110C"/>
<path d="M176.24 162.45C176.461 162.45 176.64 162.271 176.64 162.05C176.64 161.829 176.461 161.65 176.24 161.65C176.019 161.65 175.84 161.829 175.84 162.05C175.84 162.271 176.019 162.45 176.24 162.45Z" fill="white"/>
<path d="M178.12 148.98C177.35 149.41 176.47 149.66 175.63 149.88C171.21 151.02 166.77 152.13 162.24 152.4C159.95 152.54 157.59 152.44 155.44 151.54C153.19 150.6 151.29 148.83 149.6 146.93C148.02 145.15 146.58 143.23 145.29 141.18C143.07 137.64 146.78 139.22 148.92 139.08C151.2 138.93 153.25 137.56 155.39 136.67C161.94 133.95 169.4 135.79 175.59 139.4C176.98 140.21 178.38 141.16 179.29 142.59C180.2 144.02 180.51 146.05 179.65 147.52C179.27 148.17 178.73 148.63 178.11 148.97L178.12 148.98Z" fill="#FED752"/>
<path d="M164.46 177.75C164.46 177.75 158.56 175.52 153.59 179.4C153.59 179.4 149.81 180.89 147.43 179.4C147.43 179.4 149.62 182.88 153 183.88C156.38 184.87 163.6 185.14 164.46 177.75Z" fill="#5B4428"/>
<path d="M164.459 177.75C164.459 177.75 170.359 175.52 175.329 179.4C175.329 179.4 179.109 180.89 181.489 179.4C181.489 179.4 179.299 182.88 175.919 183.88C172.539 184.87 165.319 185.14 164.459 177.75Z" fill="#5B4428"/>
<path d="M135.38 254.35C135.38 254.35 123.78 255.19 123 264.97C123 264.97 122.76 268.31 124.7 270.15C124.7 270.15 125.32 273.14 122.99 274.5L120.65 275.86C120.65 275.86 121.58 277 127.65 276.85C133.72 276.7 141.57 273.36 142.83 270.14C142.83 270.14 150.77 258.22 135.37 254.35H135.38Z" fill="#FED752"/>
<path d="M197.619 253.72C197.619 253.72 209.219 254.56 209.999 264.34C209.999 264.34 210.239 267.68 208.299 269.52C208.299 269.52 207.679 272.51 210.009 273.87L212.349 275.23C212.349 275.23 211.419 276.37 205.349 276.22C199.279 276.07 191.429 272.73 190.169 269.51C190.169 269.51 182.229 257.59 197.629 253.72H197.619Z" fill="#FED752"/>
<path d="M203.85 251.94C204.24 251.9 204.63 251.87 205.02 251.85C205.35 251.83 205.54 251.79 205.87 251.74C206.1 251.71 206.69 251.56 206.91 251.47C207.95 251.05 208.7 250.47 209.45 249.63C209.5 249.57 209.55 249.51 209.6 249.45C209.86 249.14 210.1 248.78 210.16 248.38C210.22 247.98 210.04 247.52 209.67 247.36C209.35 247.22 208.97 247.34 208.69 247.54C208.41 247.74 208.2 248.03 207.97 248.29C207.59 248.72 207.14 249.08 206.63 249.35C206.36 249.5 206.05 249.62 205.75 249.59C205.65 249.58 205.57 249.49 205.59 249.38C205.69 248.75 205.86 248.14 205.97 247.52C206.08 246.84 206.11 246.13 205.88 245.48C205.59 244.68 204.92 244.06 204.16 243.7C203.4 243.34 202.5 243.22 201.71 243.51C200.67 243.89 199.97 244.91 199.72 245.99C199.38 247.46 199.79 249.09 200.8 250.22C200.85 250.28 200.82 250.37 200.75 250.39C199.77 250.62 198.75 250.65 197.75 250.48C197.64 250.74 197.49 251.77 197.69 252.43C197.71 252.5 197.74 252.58 197.8 252.62C197.85 252.65 198.59 252.7 198.65 252.7C199.69 252.76 200.72 252.64 201.71 252.34C202.41 252.13 203.13 252.01 203.85 251.93V251.94ZM201.65 246.82V246.77C201.66 246.44 201.74 246.1 201.92 245.82C202.1 245.54 202.4 245.32 202.73 245.29C202.98 245.26 203.24 245.34 203.44 245.49C203.64 245.64 203.8 245.85 203.89 246.09C204.03 246.46 204.03 246.86 203.97 247.25C203.89 247.8 203.72 248.33 203.46 248.82C203.41 248.92 203.34 249.05 203.23 249.1C203.12 249.15 202.96 249.06 202.86 249.01C202.47 248.8 202.15 248.46 201.94 248.07C201.73 247.68 201.64 247.26 201.65 246.83V246.82Z" fill="#FFAF22"/>
<path d="M156.37 213.9C158.97 213.23 161.65 212.85 164.35 212.82C178.26 212.65 191.83 221.58 196.83 234.26C200.77 244.25 199.14 256.04 193.09 264.9C186.45 274.62 174.55 275.39 163.45 275.51C155.49 275.6 147.27 273.73 141.01 268.93C130.93 261.21 127.79 246.63 132.27 234.91C136.19 224.66 145.6 216.69 156.38 213.9H156.37Z" fill="#FFF0B0"/>
<path d="M159.999 248.28C160.069 248.5 159.129 250.23 159.539 250.43C161.659 251.46 163.709 252.26 168.049 251.15C170.699 250.47 172.179 248.37 172.729 246.62C173.429 244.37 172.71 240.81 169.07 238.37C166.08 241.18 164.829 245.82 161.839 248.63C161.249 249.18 159.83 247.67 160.02 248.29L159.999 248.28Z" fill="#FFAF22"/>
<path d="M160.281 237.76C160.021 237.85 159.761 237.96 159.511 238.09C155.471 240.06 154.461 245.87 157.631 249.07C159.461 250.91 162.241 251.63 164.801 251.22C167.681 250.76 170.371 248.84 171.391 246.11C172.411 243.38 171.501 239.95 169.051 238.37C167.731 237.52 166.111 237.24 164.531 237.19C163.091 237.14 161.621 237.28 160.271 237.77L160.281 237.76Z" fill="#FFC931"/>
<path d="M162.96 242.56C162.9 242.29 162.82 242.03 162.71 241.78C162.56 241.45 162.36 241.13 162.05 240.94C161.74 240.75 161.32 240.72 161.03 240.94C160.76 241.14 160.66 241.51 160.61 241.84C160.44 242.83 160.47 243.79 160.54 244.78C160.59 245.6 160.56 246.43 160.98 247.17C161.08 247.35 161.21 247.52 161.4 247.6C161.62 247.69 161.89 247.64 162.09 247.5C162.29 247.36 162.43 247.16 162.54 246.94C162.86 246.32 162.95 245.61 163.02 244.91C163.09 244.13 163.12 243.32 162.96 242.55V242.56Z" fill="#FFF0B0"/>
<path d="M167.3 242.56C167.24 242.29 167.16 242.03 167.05 241.78C166.9 241.45 166.7 241.13 166.39 240.94C166.08 240.75 165.66 240.72 165.37 240.94C165.1 241.14 165 241.51 164.95 241.84C164.78 242.83 164.81 243.79 164.88 244.78C164.93 245.6 164.9 246.43 165.32 247.17C165.42 247.35 165.55 247.52 165.74 247.6C165.96 247.69 166.23 247.64 166.43 247.5C166.63 247.36 166.77 247.16 166.88 246.94C167.2 246.32 167.29 245.61 167.36 244.91C167.43 244.13 167.46 243.32 167.3 242.55V242.56Z" fill="#FFF0B0"/>
<path d="M139.081 225.9C139.081 225.9 135.731 214.79 139.081 211.25C142.431 207.7 152.481 216.41 152.481 216.41C152.481 216.41 143.811 220.39 139.081 225.91V225.9Z" fill="#FFF0B0"/>
<path d="M177.85 216.6C177.85 216.6 183.12 211.44 186.9 210.98C187.72 210.88 188.56 211.15 189.14 211.74C190.41 213.03 192.22 216.46 190.86 225.27C190.86 225.27 186.33 219.55 177.85 216.6Z" fill="#FFF0B0"/>
<path d="M187.09 213.14C186.66 213.13 186.2 213.29 185.8 213.48C184.72 213.99 183.76 214.67 182.8 215.35C181.92 215.97 181.03 216.6 180.28 217.35C179.75 217.88 179.26 218.6 179.49 219.29C179.69 219.88 180.33 220.22 180.91 220.51L186.92 223.43C187.66 223.79 188.61 224.26 188.87 223.21C189.37 221.17 189.43 219.05 189.16 216.97C189.03 216.02 188.84 215.06 188.42 214.19C188.24 213.82 188.01 213.45 187.62 213.27C187.45 213.19 187.28 213.15 187.09 213.15V213.14Z" fill="#FFC931"/>
<path d="M141.44 212.99C141.72 212.88 142.04 212.82 142.41 212.81C143.15 212.79 143.9 212.93 144.57 213.23C145.37 213.58 146.05 214.13 146.71 214.68L149.56 217.01C149.86 217.25 150.18 217.54 150.18 217.92C150.18 218.33 149.81 218.66 149.47 218.92L143.12 223.8C142.8 224.05 142.39 224.31 142 224.18C141.7 224.07 141.54 223.76 141.43 223.47C140.6 221.39 138.19 214.21 141.43 212.99H141.44Z" fill="#FFC931"/>
<path d="M167.97 258.05C166.5 258.05 165.37 257.46 165.35 257.45C165.1 257.31 165 257 165.14 256.75C165.28 256.5 165.59 256.4 165.84 256.54C165.97 256.61 168.98 258.17 171.25 255.36C171.43 255.14 171.76 255.1 171.98 255.28C172.2 255.46 172.24 255.79 172.06 256.01C170.75 257.62 169.23 258.06 167.97 258.06V258.05Z" fill="#FFAF22"/>
<path d="M151.8 239.93C153.297 239.93 154.51 238.716 154.51 237.22C154.51 235.723 153.297 234.51 151.8 234.51C150.303 234.51 149.09 235.723 149.09 237.22C149.09 238.716 150.303 239.93 151.8 239.93Z" fill="#2B110C"/>
<path d="M150.941 236.66C151.162 236.66 151.341 236.481 151.341 236.26C151.341 236.039 151.162 235.86 150.941 235.86C150.72 235.86 150.541 236.039 150.541 236.26C150.541 236.481 150.72 236.66 150.941 236.66Z" fill="white"/>
<path d="M176.72 239.93C178.216 239.93 179.43 238.716 179.43 237.22C179.43 235.723 178.216 234.51 176.72 234.51C175.223 234.51 174.01 235.723 174.01 237.22C174.01 238.716 175.223 239.93 176.72 239.93Z" fill="#2B110C"/>
<path d="M175.861 236.66C176.082 236.66 176.261 236.481 176.261 236.26C176.261 236.039 176.082 235.86 175.861 235.86C175.64 235.86 175.461 236.039 175.461 236.26C175.461 236.481 175.64 236.66 175.861 236.66Z" fill="white"/>
<path d="M133.881 230.75C133.881 230.75 144.021 232.98 149.381 224.33C149.381 224.33 152.471 231.99 166.461 232.11C166.461 232.11 191.521 232.28 194.631 230.1C194.631 230.1 191.961 225.43 190.671 224.62C190.671 224.62 189.211 225.62 186.281 223.82C183.351 222.02 181.701 221.31 181.701 221.31C181.701 221.31 177.551 219.26 177.841 217.95C178.131 216.64 178.401 215.68 178.401 215.68C178.401 215.68 164.531 208.7 151.531 215.67C151.531 215.67 152.711 217.43 149.831 219.67L143.331 224.39C143.331 224.39 140.131 226.24 138.531 224.71C138.531 224.71 134.711 227.63 133.871 230.73L133.881 230.75Z" fill="#FED752"/>
<path d="M47.66 180.44C47.66 180.44 44.77 187.84 37.98 189.16C37.98 189.16 34.88 192.09 46.38 195.87C46.38 195.87 55.95 197.85 60.14 197.5L63.53 188.23L47.65 180.44H47.66Z" fill="#FED752"/>
<path d="M113.28 179.92C113.28 179.92 116.17 187.32 122.96 188.64C122.96 188.64 126.06 191.57 114.56 195.35C114.56 195.35 104.99 197.33 100.8 196.98L97.4102 187.71L113.29 179.92H113.28Z" fill="#FED752"/>
<path d="M119.76 176.22C120.15 176.18 120.54 176.15 120.93 176.13C121.26 176.11 121.45 176.07 121.78 176.02C122.01 175.99 122.6 175.84 122.82 175.75C123.86 175.33 124.61 174.75 125.36 173.91C125.41 173.85 125.46 173.79 125.51 173.73C125.77 173.42 126.01 173.06 126.07 172.66C126.13 172.26 125.95 171.8 125.58 171.64C125.26 171.5 124.88 171.62 124.6 171.82C124.32 172.02 124.11 172.31 123.88 172.57C123.5 173 123.05 173.36 122.54 173.63C122.27 173.78 121.96 173.9 121.66 173.87C121.56 173.86 121.48 173.77 121.5 173.66C121.6 173.03 121.77 172.42 121.88 171.8C121.99 171.12 122.02 170.41 121.79 169.76C121.5 168.96 120.83 168.34 120.07 167.98C119.31 167.62 118.41 167.5 117.62 167.79C116.58 168.17 115.88 169.19 115.63 170.27C115.29 171.74 115.7 173.37 116.71 174.5C116.76 174.56 116.73 174.65 116.66 174.67C115.68 174.9 114.66 174.93 113.66 174.76C113.55 175.02 113.4 176.05 113.6 176.71C113.62 176.78 113.65 176.86 113.71 176.9C113.76 176.93 114.5 176.98 114.56 176.98C115.6 177.04 116.63 176.92 117.62 176.62C118.32 176.41 119.04 176.29 119.76 176.21V176.22ZM117.56 171.1V171.05C117.57 170.72 117.65 170.38 117.83 170.1C118.01 169.82 118.31 169.6 118.64 169.57C118.89 169.54 119.15 169.62 119.35 169.77C119.55 169.92 119.71 170.13 119.8 170.37C119.94 170.74 119.94 171.14 119.88 171.53C119.8 172.08 119.63 172.61 119.37 173.1C119.32 173.2 119.25 173.33 119.14 173.38C119.03 173.43 118.87 173.34 118.77 173.29C118.38 173.08 118.06 172.74 117.85 172.35C117.64 171.96 117.55 171.54 117.56 171.11V171.1Z" fill="#FFAF22"/>
<path d="M72.5599 138.31C75.1599 137.64 77.8399 137.26 80.5399 137.23C94.4499 137.06 108.02 145.99 113.02 158.67C116.96 168.66 115.33 180.45 109.28 189.31C102.64 199.03 90.7399 199.8 79.6399 199.92C71.6799 200.01 63.4599 198.14 57.1999 193.34C47.1199 185.62 43.9799 171.04 48.4599 159.32C52.3799 149.07 61.7899 141.1 72.5699 138.31H72.5599Z" fill="#FFF0B0"/>
<path d="M75.9097 172.55C75.9797 172.77 75.0396 174.5 75.4496 174.7C77.5696 175.73 79.6196 176.53 83.9596 175.42C86.6096 174.74 88.0896 172.64 88.6396 170.89C89.3396 168.64 88.6197 165.08 84.9797 162.64C81.9897 165.45 80.7396 170.09 77.7496 172.9C77.1596 173.45 75.7396 171.94 75.9296 172.56L75.9097 172.55Z" fill="#FFAF22"/>
<path d="M76.2009 162.03C75.9409 162.12 75.6809 162.23 75.4309 162.36C71.3909 164.33 70.3809 170.14 73.5509 173.34C75.3809 175.18 78.1609 175.9 80.7209 175.49C83.6009 175.03 86.2909 173.11 87.3109 170.38C88.3309 167.65 87.4209 164.22 84.9709 162.64C83.6509 161.79 82.0309 161.51 80.4509 161.46C79.0109 161.41 77.5409 161.55 76.1909 162.04L76.2009 162.03Z" fill="#FFC931"/>
<path d="M78.8702 166.83C78.8102 166.56 78.7302 166.3 78.6202 166.05C78.4702 165.72 78.2702 165.4 77.9602 165.21C77.6502 165.02 77.2302 164.99 76.9402 165.21C76.6702 165.41 76.5702 165.78 76.5202 166.11C76.3502 167.1 76.3802 168.06 76.4502 169.05C76.5002 169.87 76.4702 170.7 76.8902 171.44C76.9902 171.62 77.1202 171.79 77.3102 171.87C77.5302 171.96 77.8002 171.91 78.0002 171.77C78.2002 171.63 78.3402 171.43 78.4502 171.21C78.7702 170.59 78.8602 169.88 78.9302 169.18C79.0002 168.4 79.0302 167.59 78.8702 166.82V166.83Z" fill="#FFF0B0"/>
<path d="M83.21 166.83C83.15 166.56 83.07 166.3 82.96 166.05C82.81 165.72 82.61 165.4 82.3 165.21C81.99 165.02 81.57 164.99 81.28 165.21C81.01 165.41 80.91 165.78 80.86 166.11C80.69 167.1 80.72 168.06 80.79 169.05C80.84 169.87 80.81 170.7 81.23 171.44C81.33 171.62 81.46 171.79 81.65 171.87C81.87 171.96 82.14 171.91 82.34 171.77C82.54 171.63 82.68 171.43 82.79 171.21C83.11 170.59 83.2 169.88 83.27 169.18C83.34 168.4 83.37 167.59 83.21 166.82V166.83Z" fill="#FFF0B0"/>
<path d="M54.9908 150.17C54.9908 150.17 51.6408 139.06 54.9908 135.52C58.3408 131.97 68.3908 140.68 68.3908 140.68C68.3908 140.68 59.7208 144.66 54.9908 150.18V150.17Z" fill="#FFF0B0"/>
<path d="M93.7598 140.87C93.7598 140.87 99.0298 135.71 102.81 135.25C103.63 135.15 104.47 135.42 105.05 136.01C106.32 137.3 108.13 140.73 106.77 149.54C106.77 149.54 102.24 143.82 93.7598 140.87Z" fill="#FFF0B0"/>
<path d="M103 137.42C102.57 137.41 102.11 137.57 101.71 137.76C100.63 138.27 99.67 138.95 98.71 139.63C97.83 140.25 96.94 140.88 96.19 141.63C95.66 142.16 95.17 142.88 95.4 143.57C95.6 144.16 96.24 144.5 96.82 144.79L102.83 147.71C103.57 148.07 104.52 148.54 104.78 147.49C105.28 145.45 105.34 143.33 105.07 141.25C104.94 140.3 104.75 139.34 104.33 138.47C104.15 138.1 103.92 137.73 103.53 137.55C103.36 137.47 103.19 137.43 103 137.43V137.42Z" fill="#FFC931"/>
<path d="M57.35 137.26C57.63 137.15 57.95 137.09 58.32 137.08C59.06 137.06 59.81 137.2 60.48 137.5C61.28 137.85 61.96 138.4 62.62 138.95L65.47 141.28C65.77 141.52 66.09 141.81 66.09 142.19C66.09 142.6 65.72 142.93 65.38 143.19L59.03 148.07C58.71 148.32 58.3 148.58 57.91 148.45C57.61 148.34 57.45 148.03 57.34 147.74C56.51 145.66 54.1 138.48 57.34 137.26H57.35Z" fill="#FFC931"/>
<path d="M83.88 182.33C82.41 182.33 81.28 181.74 81.26 181.73C81.01 181.59 80.91 181.28 81.05 181.03C81.19 180.78 81.5 180.68 81.75 180.82C81.88 180.89 84.89 182.45 87.16 179.64C87.34 179.42 87.67 179.38 87.89 179.56C88.11 179.74 88.15 180.07 87.97 180.29C86.66 181.9 85.14 182.34 83.88 182.34V182.33Z" fill="#FFAF22"/>
<path d="M67.71 164.2C69.2067 164.2 70.42 162.987 70.42 161.49C70.42 159.994 69.2067 158.78 67.71 158.78C66.2133 158.78 65 159.994 65 161.49C65 162.987 66.2133 164.2 67.71 164.2Z" fill="#2B110C"/>
<path d="M66.8492 160.94C67.0701 160.94 67.2492 160.761 67.2492 160.54C67.2492 160.319 67.0701 160.14 66.8492 160.14C66.6283 160.14 66.4492 160.319 66.4492 160.54C66.4492 160.761 66.6283 160.94 66.8492 160.94Z" fill="white"/>
<path d="M92.6299 164.2C94.1266 164.2 95.3399 162.987 95.3399 161.49C95.3399 159.994 94.1266 158.78 92.6299 158.78C91.1332 158.78 89.9199 159.994 89.9199 161.49C89.9199 162.987 91.1332 164.2 92.6299 164.2Z" fill="#2B110C"/>
<path d="M91.7691 160.94C91.99 160.94 92.1691 160.761 92.1691 160.54C92.1691 160.319 91.99 160.14 91.7691 160.14C91.5482 160.14 91.3691 160.319 91.3691 160.54C91.3691 160.761 91.5482 160.94 91.7691 160.94Z" fill="white"/>
<path d="M47.1094 161.35C47.1394 161.41 47.1894 161.46 47.2394 161.51C47.7094 161.93 50.1194 161.65 50.7694 161.65C53.1294 161.66 55.4894 161.48 57.7794 160.91C61.3094 160.02 64.6994 158.1 66.7494 155.09C68.4594 152.58 69.2994 150.62 69.6394 148.37C69.7394 147.71 70.6494 147.57 70.9394 148.17C71.7094 149.76 72.9194 151.03 74.8494 152.74C78.3694 155.86 82.9694 157.58 87.6194 158.19C91.7994 158.74 96.0394 158.43 100.209 157.76C100.629 157.69 100.719 157.13 100.339 156.94C98.7894 156.14 97.4194 155.01 96.3394 153.64C96.2594 153.54 96.3694 153.4 96.4894 153.45C99.1094 154.47 101.859 155.16 104.649 155.49C105.089 155.54 105.349 155 105.019 154.69C101.429 151.33 97.8894 147.72 96.3294 143.09C96.1094 142.42 95.9194 141.72 95.4994 141.16C95.1794 140.73 94.7394 140.4 94.2894 140.11C92.8094 139.16 91.1494 138.5 89.4294 138.13C84.7894 137.14 79.9894 136.9 75.2694 137.42C72.6694 137.71 69.5694 138.48 67.4994 140.08C68.1794 140.98 68.6594 141.57 68.1694 142.59C67.8094 143.34 67.0594 143.77 66.4294 144.33C65.4894 145.16 64.3294 145.87 63.3494 146.66C62.2294 147.56 60.4994 148.8 58.8094 149.44C56.8494 150.19 56.0594 150.97 54.7794 149.05C54.5394 148.69 50.5894 153.61 50.2994 154.01C49.1394 155.61 48.1894 157.37 47.5094 159.23C47.2594 159.9 46.7694 160.8 47.0894 161.34L47.1094 161.35Z" fill="#FED752"/>
<path d="M99.9802 149.46C100.95 150.25 102.01 150.94 103.11 151.53C104.59 152.32 106.16 152.95 107.76 153.46C108.57 153.72 109.39 153.95 110.22 154.17C110.62 154.28 111.03 154.38 111.43 154.47C111.83 154.56 112.16 154.44 111.83 154.04C109.97 151.74 109.63 150.89 107.54 149.3C107.06 149.89 106.25 150.46 105.52 150.25C104.43 149.94 103.46 149.34 102.46 148.81C100.4 147.7 98.1702 146.84 96.4102 145.31C97.3202 146.91 98.5502 148.29 99.9802 149.45V149.46Z" fill="#FED752"/>
<path d="M65.8098 159.88C65.7098 159.88 65.6198 159.83 65.5798 159.73C65.4498 159.45 64.9798 158.72 64.4198 158.64C64.2798 158.62 64.1798 158.49 64.1998 158.35C64.2198 158.21 64.3498 158.11 64.4898 158.13C65.4398 158.27 66.0198 159.46 66.0398 159.51C66.0998 159.64 66.0398 159.79 65.9198 159.86C65.8798 159.88 65.8498 159.89 65.8098 159.89V159.88Z" fill="#2B110C"/>
<path d="M66.6904 159.24C66.5704 159.24 66.4604 159.15 66.4304 159.02C66.3804 158.72 66.1304 157.88 65.6104 157.65C65.4804 157.59 65.4204 157.44 65.4804 157.31C65.5404 157.18 65.6904 157.12 65.8204 157.18C66.7004 157.57 66.9304 158.88 66.9404 158.93C66.9604 159.07 66.8704 159.2 66.7304 159.23C66.7204 159.23 66.7004 159.23 66.6904 159.23V159.24Z" fill="#2B110C"/>
<path d="M94.5794 159.88C94.5794 159.88 94.4994 159.88 94.4694 159.85C94.3394 159.79 94.2894 159.63 94.3494 159.5C94.3694 159.45 94.9494 158.25 95.8994 158.12C96.0394 158.1 96.1694 158.2 96.1894 158.34C96.2094 158.48 96.1094 158.61 95.9694 158.63C95.4094 158.71 94.9394 159.45 94.8094 159.72C94.7694 159.81 94.6694 159.87 94.5794 159.87V159.88Z" fill="#2B110C"/>
<path d="M93.6909 159.24C93.6909 159.24 93.6609 159.24 93.6509 159.24C93.5109 159.22 93.4109 159.08 93.4409 158.94C93.4409 158.88 93.6809 157.58 94.5609 157.19C94.6909 157.13 94.8409 157.19 94.9009 157.32C94.9609 157.45 94.9009 157.6 94.7709 157.66C94.2509 157.89 94.0009 158.72 93.9509 159.03C93.9309 159.16 93.8209 159.25 93.6909 159.25V159.24Z" fill="#2B110C"/>
</g>
<defs>
<clipPath id="clip0_169_42868">
<rect width="245.52" height="276.86" fill="white"/>
</clipPath>
</defs>
</svg>
