<svg width="48" height="48" viewBox="0 0 48 48" fill="none" xmlns="http://www.w3.org/2000/svg">
<path fill-rule="evenodd" clip-rule="evenodd" d="M9 6C7.89543 6 7 6.89543 7 8V40C7 41.1046 7.89543 42 9 42H23C24.1046 42 25 41.1046 25 40C25 38.8954 24.1046 38 23 38H11V10H23C24.1046 10 25 9.10457 25 8C25 6.89543 24.1046 6 23 6H9ZM31.5858 15.5858C32.3668 14.8047 33.6332 14.8047 34.4142 15.5858L41.4142 22.5858C42.1953 23.3668 42.1953 24.6332 41.4142 25.4142L34.4142 32.4142C33.6332 33.1953 32.3668 33.1953 31.5858 32.4142C30.8047 31.6332 30.8047 30.3668 31.5858 29.5858L35.1716 26L21 26C19.8954 26 19 25.1046 19 24C19 22.8954 19.8954 22 21 22L35.1716 22L31.5858 18.4142C30.8047 17.6332 30.8047 16.3668 31.5858 15.5858Z" fill="#FFDA40"/>
</svg>
