<svg width="138" height="60" viewBox="0 0 138 60" fill="none" xmlns="http://www.w3.org/2000/svg">
<path d="M130 0H8C3.58172 0 0 3.58172 0 8V52C0 56.4183 3.58172 60 8 60H130C134.418 60 138 56.4183 138 52V8C138 3.58172 134.418 0 130 0Z" fill="#A8CAFC"/>
<path d="M42.1699 30.53C42.1699 30.53 43.2899 32.3 43.4599 33.52C43.4599 33.52 44.6399 34.51 45.2599 35.24L44.5199 32.78C44.5199 32.78 43.1299 31.09 42.1699 30.53Z" fill="#4BABF9"/>
<path d="M40.3801 24.9602C41.8101 25.5402 43.2801 26.1402 44.3701 27.2302C44.6501 27.5102 44.9201 27.8502 44.9801 28.2402C45.0401 28.6102 44.9001 28.9902 44.7001 29.3102C44.3901 29.8002 43.9401 30.1702 43.4301 30.4502C43.1201 30.6202 42.1901 31.1802 41.9101 30.8502L39.4401 27.9402C39.4401 27.9402 39.3701 27.8602 39.3701 27.8102C39.3701 27.7602 39.3701 27.7102 39.4001 27.6602L40.3901 24.9502L40.3801 24.9602Z" fill="#1699F2"/>
<path d="M46.4799 39.7602C46.6599 39.7402 46.8399 39.7302 47.0199 39.7202C47.1699 39.7202 47.2599 39.6902 47.4099 39.6702C47.5099 39.6602 47.7899 39.5902 47.8899 39.5502C48.3699 39.3602 48.7099 39.0902 49.0499 38.7102C49.0699 38.6802 49.0999 38.6602 49.1199 38.6302C49.2399 38.4902 49.3499 38.3302 49.3799 38.1402C49.4099 37.9502 49.3299 37.7402 49.1499 37.6702C48.9999 37.6102 48.8299 37.6702 48.6999 37.7502C48.5699 37.8302 48.4799 37.9802 48.3699 38.0902C48.1999 38.2802 47.9899 38.4502 47.7599 38.5802C47.6399 38.6502 47.4899 38.7102 47.3599 38.6902C47.3099 38.6902 47.2799 38.6402 47.2899 38.6002C47.3299 38.3102 47.4099 38.0302 47.4599 37.7502C47.5099 37.4402 47.5299 37.1102 47.4199 36.8202C47.2899 36.4602 46.9799 36.1702 46.6299 36.0102C46.2799 35.8502 45.8699 35.7902 45.5099 35.9202C45.0399 36.0902 44.7199 36.5602 44.5999 37.0502C44.4399 37.7202 44.6299 38.4702 45.0899 38.9802C45.1099 39.0102 45.0999 39.0502 45.0699 39.0602C44.6199 39.1602 44.1499 39.1802 43.6999 39.1002C43.6499 39.2202 43.5799 39.6902 43.6699 39.9902C43.6799 40.0202 43.6899 40.0602 43.7199 40.0802C43.7399 40.1002 44.0799 40.1102 44.1099 40.1202C44.5799 40.1502 45.0599 40.0902 45.5099 39.9602C45.8299 39.8602 46.1599 39.8102 46.4899 39.7702L46.4799 39.7602ZM45.4699 37.4202V37.4002C45.4699 37.2502 45.5099 37.0902 45.5899 36.9702C45.6699 36.8502 45.8099 36.7402 45.9599 36.7302C46.0699 36.7202 46.1899 36.7502 46.2899 36.8202C46.3899 36.8902 46.4499 36.9902 46.4999 37.0902C46.5599 37.2602 46.5599 37.4402 46.5399 37.6202C46.5099 37.8702 46.4299 38.1102 46.3099 38.3402C46.2899 38.3902 46.2499 38.4502 46.1999 38.4702C46.1499 38.4902 46.0699 38.4502 46.0299 38.4302C45.8499 38.3302 45.6999 38.1802 45.6099 38.0002C45.5199 37.8202 45.4699 37.6302 45.4799 37.4302L45.4699 37.4202Z" fill="#4BABF9"/>
<path d="M24.76 22.35C25.95 22.04 27.17 21.87 28.41 21.86C34.77 21.78 40.98 25.87 43.27 31.67C45.07 36.24 44.33 41.63 41.56 45.69C38.52 50.14 33.08 50.49 28 50.54C24.36 50.58 20.6 49.73 17.73 47.53C13.12 44 11.68 37.33 13.73 31.97C15.52 27.28 19.83 23.64 24.76 22.36V22.35Z" fill="#CDE7FC"/>
<path d="M26.42 38.0801C26.45 38.1801 26.02 38.9701 26.21 39.0601C27.18 39.5301 28.12 39.9 30.1 39.39C31.31 39.08 31.99 38.12 32.24 37.32C32.56 36.29 32.23 34.66 30.56 33.55C29.19 34.83 28.62 36.9601 27.25 38.2401C26.98 38.4901 26.33 37.8001 26.42 38.0801Z" fill="#4BABF9"/>
<path d="M26.5499 33.2702C26.4299 33.3102 26.3099 33.3602 26.1999 33.4202C24.3499 34.3202 23.8899 36.9802 25.3399 38.4402C26.1799 39.2802 27.4499 39.6102 28.6199 39.4202C29.9399 39.2102 31.1699 38.3302 31.6399 37.0802C32.1099 35.8302 31.6899 34.2602 30.5699 33.5402C29.9599 33.1502 29.2199 33.0202 28.4999 33.0002C27.8399 32.9802 27.1699 33.0402 26.5499 33.2602V33.2702Z" fill="#86BCFC"/>
<path d="M27.7799 35.4701C27.7499 35.3501 27.7199 35.2301 27.6699 35.1101C27.5999 34.9601 27.5099 34.8101 27.3699 34.7301C27.2299 34.6501 27.0399 34.6301 26.8999 34.7301C26.7799 34.8201 26.7299 34.9901 26.7099 35.1401C26.6299 35.5901 26.6499 36.0301 26.6799 36.4901C26.6999 36.8601 26.6899 37.2401 26.8799 37.5801C26.9299 37.6601 26.9899 37.7401 27.0699 37.7801C27.1699 37.8201 27.2899 37.8001 27.3899 37.7301C27.4899 37.6601 27.5499 37.5701 27.5999 37.4701C27.7499 37.1901 27.7899 36.8601 27.8199 36.5401C27.8499 36.1801 27.8699 35.8101 27.7899 35.4601L27.7799 35.4701Z" fill="#CDE7FC"/>
<path d="M29.7599 35.4701C29.7299 35.3501 29.6999 35.2301 29.6499 35.1101C29.5799 34.9601 29.4899 34.8101 29.3499 34.7301C29.2099 34.6501 29.0199 34.6301 28.8799 34.7301C28.7599 34.8201 28.7099 34.9901 28.6899 35.1401C28.6099 35.5901 28.6299 36.0301 28.6599 36.4901C28.6799 36.8601 28.6699 37.2401 28.8599 37.5801C28.9099 37.6601 28.9699 37.7401 29.0499 37.7801C29.1499 37.8201 29.2699 37.8001 29.3699 37.7301C29.4699 37.6601 29.5299 37.5701 29.5799 37.4701C29.7299 37.1901 29.7699 36.8601 29.7999 36.5401C29.8299 36.1801 29.8499 35.8101 29.7699 35.4601L29.7599 35.4701Z" fill="#CDE7FC"/>
<path d="M16.8499 27.8402C16.8499 27.8402 15.3199 22.7602 16.8499 21.1402C18.3799 19.5202 22.9799 23.5002 22.9799 23.5002C22.9799 23.5002 19.0099 25.3202 16.8499 27.8402Z" fill="#CDE7FC"/>
<path d="M34.5901 23.59C34.5901 23.59 37.0001 21.23 38.7301 21.02C39.1101 20.97 39.4901 21.1 39.7501 21.37C40.3301 21.96 41.1601 23.53 40.5401 27.56C40.5401 27.56 38.4701 24.95 34.5901 23.59Z" fill="#CDE7FC"/>
<path d="M38.8201 22.01C38.6201 22.01 38.4101 22.08 38.2301 22.16C37.7401 22.39 37.3001 22.7 36.8601 23.01C36.4601 23.29 36.0501 23.58 35.7101 23.92C35.4701 24.16 35.2401 24.49 35.3501 24.81C35.4401 25.08 35.7301 25.24 36.0001 25.37L38.7501 26.71C39.0901 26.87 39.5301 27.09 39.6401 26.61C39.8701 25.68 39.9001 24.71 39.7701 23.76C39.7101 23.32 39.6201 22.89 39.4301 22.49C39.3501 22.32 39.2401 22.15 39.0601 22.07C38.9801 22.03 38.9001 22.02 38.8201 22.01Z" fill="#4BABF9"/>
<path d="M17.9301 21.9401C18.0601 21.8901 18.2101 21.8601 18.3801 21.8601C18.7201 21.8601 19.0601 21.9201 19.3701 22.0501C19.7401 22.2101 20.0501 22.4601 20.3501 22.7101L21.6501 23.7801C21.7901 23.8901 21.9301 24.0201 21.9401 24.2001C21.9401 24.3901 21.7701 24.5401 21.6101 24.6601L18.7001 26.8901C18.5501 27.0001 18.3701 27.1201 18.1901 27.0601C18.0501 27.0101 17.9801 26.8701 17.9301 26.7401C17.5501 25.7901 16.4501 22.5001 17.9301 21.9401Z" fill="#4BABF9"/>
<path d="M30.07 42.5501C29.4 42.5501 28.88 42.2801 28.87 42.2701C28.75 42.2101 28.71 42.0601 28.77 41.9501C28.83 41.8301 28.98 41.7901 29.09 41.8501C29.15 41.8801 30.52 42.6001 31.57 41.3101C31.65 41.2101 31.8 41.1901 31.9 41.2701C32 41.3501 32.02 41.5001 31.94 41.6001C31.34 42.3401 30.65 42.5401 30.07 42.5401V42.5501Z" fill="#4BABF9"/>
<path d="M22.6699 34.26C23.3548 34.26 23.9099 33.7049 23.9099 33.02C23.9099 32.3352 23.3548 31.78 22.6699 31.78C21.9851 31.78 21.4299 32.3352 21.4299 33.02C21.4299 33.7049 21.9851 34.26 22.6699 34.26Z" fill="#2B110C"/>
<path d="M22.2801 32.7601C22.3795 32.7601 22.4601 32.6796 22.4601 32.5801C22.4601 32.4807 22.3795 32.4001 22.2801 32.4001C22.1807 32.4001 22.1001 32.4807 22.1001 32.5801C22.1001 32.6796 22.1807 32.7601 22.2801 32.7601Z" fill="white"/>
<path d="M34.0701 34.26C34.7549 34.26 35.3101 33.7049 35.3101 33.02C35.3101 32.3352 34.7549 31.78 34.0701 31.78C33.3852 31.78 32.8301 32.3352 32.8301 33.02C32.8301 33.7049 33.3852 34.26 34.0701 34.26Z" fill="#2B110C"/>
<path d="M33.68 32.7601C33.7794 32.7601 33.86 32.6796 33.86 32.5801C33.86 32.4807 33.7794 32.4001 33.68 32.4001C33.5806 32.4001 33.5 32.4807 33.5 32.5801C33.5 32.6796 33.5806 32.7601 33.68 32.7601Z" fill="white"/>
<path d="M44.52 32.78L47.35 35.73C47.72 36.12 47.99 36.6 48.12 37.13C48.43 38.41 49.03 40.87 49.21 41.98C49.41 43.2 49.74 45.38 49.86 46.19C49.89 46.37 49.77 46.55 49.59 46.6L47.73 47.11C47.45 47.19 47.17 47 47.12 46.72L45.33 35.65C45.29 35.38 45.23 35.12 45.15 34.86L44.53 32.79L44.52 32.78Z" fill="#1699F2"/>
<path d="M19.5399 26.5101C19.4799 26.5101 19.4199 26.5101 19.3699 26.4701C19.2999 26.4301 19.2599 26.3701 19.2099 26.3001C18.7299 25.5501 18.5999 24.6101 18.6899 23.7201C18.7799 22.8301 19.0899 21.9801 19.3999 21.1401C20.7199 17.6101 22.3699 14.1101 25.0599 11.4701C26.1399 10.4101 27.4899 9.47009 28.9999 9.46009C31.5899 9.44009 33.2599 11.8001 34.2599 13.8601C34.6099 14.5901 34.9499 15.3201 35.2699 16.0601C35.9099 17.5401 36.4799 19.0601 36.9699 20.5901C37.3899 21.9101 37.7699 23.3301 37.3899 24.6701C37.3199 24.9201 37.2299 25.2101 37.3699 25.4301C37.4799 25.6001 37.7099 25.6801 37.7699 25.8701C37.8399 26.0801 37.6399 26.3001 37.4299 26.3401C37.2199 26.3801 36.9999 26.3101 36.7899 26.2401C32.8199 24.8901 28.5399 24.4601 24.3799 24.9901C22.8199 25.1901 21.2499 25.5301 19.9199 26.3601C19.7999 26.4301 19.6599 26.5101 19.5299 26.5201L19.5399 26.5101Z" fill="#1699F2"/>
<path d="M34.73 23.72C34.73 23.72 31.46 23 27.71 23.24C27.67 23.24 27.63 23.2 27.62 23.15C27.6 22.94 27.59 22.81 27.58 22.7C27.45 21.17 27.52 19.78 27.79 18.37C28.1 16.77 28.85 15.36 29.62 14.02C29.65 13.97 29.64 13.9 29.59 13.87C29.55 13.85 29.24 13.76 29.24 13.76C29.05 13.69 29.06 13.74 29 13.83C28.94 13.92 28.86 14.03 28.81 14.12C28.44 14.72 28.12 15.32 27.83 15.97C27.46 16.81 27.17 17.74 26.99 18.67C26.73 20.1 26.76 21.56 26.84 23.03V23.21C26.84 23.21 26.86 23.3 26.75 23.3C26.34 23.32 25.1 23.4 23.51 23.72C23.48 23.72 23.46 23.7 23.45 23.67C23.45 23.66 23.45 23.65 23.45 23.63C23.21 22.08 23.43 20.08 23.75 18.78C24.1 17.36 24.4 16.49 24.88 15.33C24.99 15.08 25.12 14.76 25.21 14.5C25.24 14.43 25.03 14.36 24.96 14.33C24.92 14.31 24.84 14.28 24.75 14.25C24.62 14.21 24.6 14.36 24.38 14.83C23.57 16.62 23.35 17.17 22.93 19.3C22.91 19.38 22.75 20.5 22.69 20.57C22.65 20.61 22.53 20.67 22.46 20.7C21.4 21.17 19.89 21.67 18.94 22.4C18.72 22.57 18.16 23.39 18.44 23.61C19.27 22.73 21.46 21.8 22.62 21.39C22.65 21.38 22.69 21.41 22.68 21.46C22.62 21.97 22.62 22.96 22.72 23.79C22.72 23.82 22.71 23.85 22.68 23.85C21.16 24.21 19.63 24.81 18.89 25.79L19.14 26.33C19.14 26.33 19.95 25.36 21.54 24.89C23.55 24.29 25.44 24.08 26.75 24.02C27.06 24 28.09 23.97 28.4 23.96C30.28 23.93 34.45 24.01 37.3 25.26L37.63 24.73C37.63 24.73 36.74 24.18 34.74 23.74L34.73 23.72Z" fill="#C0F1FC"/>
<path d="M76.4401 26.4501C76.4401 27.2501 75.9401 27.7901 75.1101 27.7901C74.2801 27.7901 73.7801 27.2501 73.7801 26.4501V18.1401H72.7101C71.9101 18.1401 71.3301 17.7901 71.3301 16.9901C71.3301 16.1901 71.9101 15.8401 72.7101 15.8401H74.9001C75.9701 15.8401 76.4401 16.3501 76.4401 17.4201V26.4501Z" fill="#1699F2"/>
<path d="M80.8201 26.4801C81.0001 25.7101 81.5601 25.3601 82.3201 25.5501C83.0901 25.7401 83.3801 26.2401 83.2001 27.0101L82.7801 28.7901C82.6001 29.5601 82.0401 29.8901 81.2601 29.7001C80.4901 29.5101 80.2501 29.0001 80.4301 28.2301L80.8101 26.4901L80.8201 26.4801Z" fill="#1699F2"/>
<path d="M85.9402 21.7801C85.9402 18.3501 87.0602 15.6001 90.4702 15.6001C93.8802 15.6001 95.0002 18.3501 95.0002 21.7801C95.0002 25.2101 93.8802 27.9401 90.4702 27.9401C87.0602 27.9401 85.9402 25.2001 85.9402 21.7801ZM92.3602 21.7801C92.3602 19.7601 92.0602 17.8701 90.4702 17.8701C88.8802 17.8701 88.5802 19.7601 88.5802 21.7801C88.5802 23.8001 88.8802 25.6701 90.4702 25.6701C92.0602 25.6701 92.3602 23.8001 92.3602 21.7801Z" fill="#1699F2"/>
<path d="M96.5 21.7801C96.5 18.3501 97.62 15.6001 101.03 15.6001C104.44 15.6001 105.56 18.3501 105.56 21.7801C105.56 25.2101 104.44 27.9401 101.03 27.9401C97.62 27.9401 96.5 25.2001 96.5 21.7801ZM102.92 21.7801C102.92 19.7601 102.62 17.8701 101.03 17.8701C99.44 17.8701 99.14 19.7601 99.14 21.7801C99.14 23.8001 99.44 25.6701 101.03 25.6701C102.62 25.6701 102.92 23.8001 102.92 21.7801Z" fill="#1699F2"/>
<path d="M107.06 21.7801C107.06 18.3501 108.18 15.6001 111.59 15.6001C115 15.6001 116.12 18.3501 116.12 21.7801C116.12 25.2101 115 27.9401 111.59 27.9401C108.18 27.9401 107.06 25.2001 107.06 21.7801ZM113.48 21.7801C113.48 19.7601 113.18 17.8701 111.59 17.8701C110 17.8701 109.7 19.7601 109.7 21.7801C109.7 23.8001 110 25.6701 111.59 25.6701C113.18 25.6701 113.48 23.8001 113.48 21.7801Z" fill="#1699F2"/>
<path d="M87.6801 35.68C88.2201 35.68 88.5601 35.87 88.5601 36.41C88.5601 36.95 88.2201 37.14 87.6801 37.14H86.3501V37.69C86.3501 38.71 87.2501 39.08 88.2801 39.62C88.7701 39.88 88.8901 40.34 88.6301 40.77C88.3801 41.18 87.8501 41.14 87.3701 40.96C86.6501 40.68 85.9801 40.23 85.4601 39.74C84.9801 40.3 84.3001 40.78 83.5501 41.14C83.0701 41.37 82.5401 41.36 82.2901 40.95C82.0301 40.52 82.1501 40.07 82.6401 39.8C83.7101 39.21 84.5701 38.71 84.5701 37.69V37.14H83.1801C82.6401 37.14 82.3001 36.95 82.3001 36.41C82.3001 35.87 82.6401 35.68 83.1801 35.68H84.5601V35.1C84.5601 34.56 84.9201 34.27 85.4601 34.27C86.0001 34.27 86.3601 34.56 86.3601 35.1V35.68H87.6801ZM85.8301 42.74V43.9C85.8301 44.07 85.8701 44.1 86.0301 44.1H91.1401C91.6401 44.1 91.9601 44.39 91.9601 44.89C91.9601 45.39 91.6501 45.68 91.1401 45.68H84.9701C84.1901 45.68 83.8801 45.38 83.8801 44.62V42.72C83.8801 42.14 84.2901 41.81 84.8501 41.81C85.4101 41.81 85.8201 42.15 85.8201 42.72L85.8301 42.74ZM89.7401 35.57C89.7401 35.01 90.1401 34.69 90.7001 34.69C91.2601 34.69 91.6601 35 91.6601 35.57V41.81C91.6601 42.37 91.2601 42.69 90.7001 42.69C90.1401 42.69 89.7401 42.38 89.7401 41.81V38.9H88.5501C88.0301 38.9 87.6901 38.73 87.6901 38.22C87.6901 37.71 88.0401 37.54 88.5501 37.54H89.7401V35.59V35.57Z" fill="#1699F2"/>
<path d="M97.4301 39.2299C98.4601 39.2299 99.2601 39.1699 100.18 39.0499C100.64 38.9899 100.96 39.0599 101.04 39.4799C101.12 39.8799 100.93 40.1599 100.52 40.2699C99.7201 40.4699 98.7801 40.5199 97.8201 40.5199V41.5199C97.8201 42.0799 97.4601 42.4099 96.9001 42.4099C96.3401 42.4099 95.9801 42.0899 95.9801 41.5199V40.5199H94.4301C93.9301 40.5199 93.5901 40.3899 93.5901 39.8799C93.5901 39.3699 93.9201 39.2199 94.4301 39.2199H97.4301V39.2299ZM94.2801 36.8399C94.2801 35.5099 95.5901 34.7699 97.3601 34.7699C99.1301 34.7699 100.44 35.5099 100.44 36.8399C100.44 38.1699 99.1301 38.8999 97.3601 38.8999C95.5901 38.8999 94.2801 38.1699 94.2801 36.8399ZM97.0401 43.4799V43.9599C97.0401 44.1299 97.0801 44.1599 97.2401 44.1599H102.72C103.22 44.1599 103.54 44.4699 103.54 44.9199C103.54 45.3699 103.23 45.6899 102.72 45.6899H96.2901C95.5101 45.6899 95.2101 45.3899 95.2101 44.6299V43.4799C95.2101 42.8999 95.5601 42.5699 96.1301 42.5699C96.7001 42.5699 97.0301 42.9099 97.0301 43.4799H97.0401ZM96.1401 36.8399C96.1401 37.3399 96.7001 37.5999 97.3601 37.5999C98.0201 37.5999 98.5801 37.3499 98.5801 36.8399C98.5801 36.3299 98.0201 36.0999 97.3601 36.0999C96.7001 36.0999 96.1401 36.3399 96.1401 36.8399ZM99.6701 42.1399C99.1701 42.1399 98.8101 41.9799 98.8101 41.4799C98.8101 40.9799 99.1701 40.8199 99.6701 40.8199H101.53V35.5699C101.53 35.0099 101.86 34.6899 102.44 34.6899C103.02 34.6899 103.35 34.9999 103.35 35.5699V42.2399C103.35 42.7999 103 43.1299 102.44 43.1299C101.88 43.1299 101.53 42.8099 101.53 42.2399V42.1399H99.6701Z" fill="#1699F2"/>
</svg>
