<svg width="138" height="60" viewBox="0 0 138 60" fill="none" xmlns="http://www.w3.org/2000/svg">
<path d="M130 0H8C3.58172 0 0 3.58172 0 8V52C0 56.4183 3.58172 60 8 60H130C134.418 60 138 56.4183 138 52V8C138 3.58172 134.418 0 130 0Z" fill="#FED752"/>
<path d="M46.9699 39.09C47.1499 39.07 47.3299 39.06 47.5099 39.05C47.6599 39.05 47.7499 39.02 47.8999 39C47.9999 38.99 48.2799 38.92 48.3799 38.88C48.8599 38.69 49.1999 38.42 49.5399 38.04C49.5599 38.01 49.5899 37.99 49.6099 37.96C49.7299 37.82 49.8399 37.66 49.8699 37.47C49.8999 37.28 49.8199 37.07 49.6399 37C49.4899 36.94 49.3199 37 49.1899 37.08C49.0599 37.16 48.9699 37.31 48.8599 37.42C48.6899 37.61 48.4799 37.78 48.2499 37.91C48.1299 37.98 47.9799 38.04 47.8499 38.02C47.7999 38.02 47.7699 37.97 47.7799 37.93C47.8199 37.64 47.8999 37.36 47.9499 37.08C47.9999 36.77 48.0199 36.44 47.9099 36.15C47.7799 35.79 47.4699 35.5 47.1199 35.34C46.7699 35.18 46.3599 35.12 45.9999 35.25C45.5299 35.42 45.2099 35.89 45.0899 36.38C44.9299 37.05 45.1199 37.8 45.5799 38.31C45.5999 38.34 45.5899 38.38 45.5599 38.39C45.1099 38.49 44.6399 38.51 44.1899 38.43C44.1399 38.55 44.0699 39.02 44.1599 39.32C44.1699 39.35 44.1799 39.39 44.2099 39.41C44.2299 39.43 44.5699 39.44 44.5999 39.45C45.0699 39.48 45.5499 39.42 45.9999 39.29C46.3199 39.19 46.6499 39.14 46.9799 39.1L46.9699 39.09ZM45.9599 36.75V36.73C45.9599 36.58 45.9999 36.42 46.0799 36.3C46.1599 36.18 46.2999 36.07 46.4499 36.06C46.5599 36.05 46.6799 36.08 46.7799 36.15C46.8799 36.22 46.9399 36.32 46.9899 36.42C47.0499 36.59 47.0499 36.77 47.0299 36.95C46.9999 37.2 46.9199 37.44 46.7999 37.67C46.7799 37.72 46.7399 37.78 46.6899 37.8C46.6399 37.82 46.5599 37.78 46.5199 37.76C46.3399 37.66 46.1899 37.51 46.0999 37.33C46.0099 37.15 45.9599 36.96 45.9699 36.76L45.9599 36.75Z" fill="#FFAF22"/>
<path d="M25.25 21.6901C26.44 21.3801 27.66 21.2101 28.9 21.2001C35.26 21.1201 41.47 25.2101 43.76 31.0101C45.56 35.5801 44.82 40.9701 42.05 45.0301C39.01 49.4801 33.57 49.8301 28.49 49.8801C24.85 49.9201 21.09 49.0701 18.22 46.8701C13.61 43.3401 12.17 36.6701 14.22 31.3101C16.01 26.6201 20.32 22.9801 25.25 21.7001V21.6901Z" fill="#FFF0B0"/>
<path d="M26.91 37.4101C26.94 37.5101 26.51 38.3001 26.7 38.3901C27.67 38.8601 28.61 39.2301 30.59 38.7201C31.8 38.4101 32.48 37.4501 32.73 36.6501C33.05 35.6201 32.72 33.9901 31.05 32.8801C29.68 34.1601 29.11 36.2901 27.74 37.5701C27.47 37.8201 26.82 37.1301 26.91 37.4101Z" fill="#FFAF22"/>
<path d="M27.0399 32.6C26.9199 32.64 26.7999 32.69 26.6899 32.75C24.8399 33.65 24.3799 36.31 25.8299 37.77C26.6699 38.61 27.9399 38.94 29.1099 38.75C30.4299 38.54 31.6599 37.66 32.1299 36.41C32.5999 35.16 32.1799 33.59 31.0599 32.87C30.4499 32.48 29.7099 32.35 28.9899 32.33C28.3299 32.31 27.6599 32.37 27.0399 32.59V32.6Z" fill="#FFC931"/>
<path d="M28.2599 34.8001C28.2299 34.6801 28.1999 34.5601 28.1499 34.4401C28.0799 34.2901 27.9899 34.1401 27.8499 34.0601C27.7099 33.9801 27.5199 33.9601 27.3799 34.0601C27.2599 34.1501 27.2099 34.3201 27.1899 34.4701C27.1099 34.9201 27.1299 35.3601 27.1599 35.8201C27.1799 36.1901 27.1699 36.5701 27.3599 36.9101C27.4099 36.9901 27.4699 37.0701 27.5499 37.1101C27.6499 37.1501 27.7699 37.1301 27.8699 37.0601C27.9699 36.9901 28.0299 36.9001 28.0799 36.8001C28.2299 36.5201 28.2699 36.1901 28.2999 35.8701C28.3299 35.5101 28.3499 35.1401 28.2699 34.7901L28.2599 34.8001Z" fill="#FFF0B0"/>
<path d="M30.2499 34.8001C30.2199 34.6801 30.1899 34.5601 30.1399 34.4401C30.0699 34.2901 29.9799 34.1401 29.8399 34.0601C29.6999 33.9801 29.5099 33.9601 29.3699 34.0601C29.2499 34.1501 29.1999 34.3201 29.1799 34.4701C29.0999 34.9201 29.1199 35.3601 29.1499 35.8201C29.1699 36.1901 29.1599 36.5701 29.3499 36.9101C29.3999 36.9901 29.4599 37.0701 29.5399 37.1101C29.6399 37.1501 29.7599 37.1301 29.8599 37.0601C29.9599 36.9901 30.0199 36.9001 30.0699 36.8001C30.2199 36.5201 30.2599 36.1901 30.2899 35.8701C30.3199 35.5101 30.3399 35.1401 30.2599 34.7901L30.2499 34.8001Z" fill="#FFF0B0"/>
<path d="M30.55 41.8902C29.88 41.8902 29.36 41.6202 29.35 41.6102C29.23 41.5502 29.19 41.4002 29.25 41.2902C29.31 41.1702 29.46 41.1302 29.57 41.1902C29.63 41.2202 31 41.9402 32.05 40.6502C32.13 40.5502 32.28 40.5302 32.38 40.6102C32.48 40.6902 32.5 40.8402 32.42 40.9402C31.82 41.6802 31.13 41.8802 30.55 41.8802V41.8902Z" fill="#FFAF22"/>
<path d="M23.1599 33.6001C23.8448 33.6001 24.3999 33.045 24.3999 32.3601C24.3999 31.6753 23.8448 31.1201 23.1599 31.1201C22.4751 31.1201 21.9199 31.6753 21.9199 32.3601C21.9199 33.045 22.4751 33.6001 23.1599 33.6001Z" fill="#2B110C"/>
<path d="M22.7598 32.1C22.8592 32.1 22.9398 32.0194 22.9398 31.92C22.9398 31.8206 22.8592 31.74 22.7598 31.74C22.6604 31.74 22.5798 31.8206 22.5798 31.92C22.5798 32.0194 22.6604 32.1 22.7598 32.1Z" fill="white"/>
<path d="M34.5598 33.6001C35.2447 33.6001 35.7998 33.045 35.7998 32.3601C35.7998 31.6753 35.2447 31.1201 34.5598 31.1201C33.875 31.1201 33.3198 31.6753 33.3198 32.3601C33.3198 33.045 33.875 33.6001 34.5598 33.6001Z" fill="#2B110C"/>
<path d="M34.17 32.1C34.2694 32.1 34.35 32.0194 34.35 31.92C34.35 31.8206 34.2694 31.74 34.17 31.74C34.0706 31.74 33.99 31.8206 33.99 31.92C33.99 32.0194 34.0706 32.1 34.17 32.1Z" fill="white"/>
<path d="M28.3999 23.8601C28.3999 23.8601 23.6899 23.5801 19.9199 27.0601C19.9199 27.0601 15.8399 29.9701 14.5599 32.8201C14.3599 33.2601 13.8099 33.3601 13.5099 33.0001L13.4799 32.9701C12.3399 31.6001 12.6999 29.4201 14.2299 28.5701L14.2599 28.5501C14.2599 28.5501 12.7499 26.2301 15.1299 25.0701C15.1299 25.0701 13.2899 21.2001 16.7399 19.7901C16.7399 19.7901 16.9499 15.5901 21.3399 16.4001C21.3399 16.4001 20.8299 14.7401 22.4799 14.4401C22.4799 14.4401 22.3699 11.7601 24.6299 10.7401C26.8899 9.72005 32.6799 9.69005 35.0099 12.7701C35.0099 12.7701 35.9099 14.1501 36.1299 14.8501C36.1299 14.8501 37.4799 13.9001 38.6999 14.7201C40.1499 15.7001 39.2899 17.4401 39.2899 17.4401C39.2899 17.4401 43.2599 18.0901 43.3499 23.2401C43.3499 23.2401 47.2399 24.5801 45.5199 29.3301C45.5199 29.3301 46.7099 32.01 44.4699 33.42C44.1699 33.6101 43.7699 33.4701 43.6199 33.1301C42.8499 31.3601 40.0399 26.1701 33.0999 24.1901C33.0999 24.1901 30.1399 23.7501 28.3899 23.8601H28.3999Z" fill="#5B4428"/>
<path d="M28.3999 23.8602L28.6999 20.5102C28.6999 20.4502 28.7499 20.4102 28.8099 20.4102H29.1599C29.2199 20.4102 29.2599 20.4602 29.2599 20.5202V23.8602H28.4099H28.3999Z" fill="#725836"/>
<path d="M22.98 22.17C22.39 21.7 21.77 21.26 21.14 20.86C20.48 20.45 19.8 20.06 19.05 19.87C18.71 19.78 18.34 19.73 18 19.86C17.38 20.09 17.12 20.83 17.03 21.49C16.85 22.9 17.14 24.33 17.48 25.71C17.72 26.68 18.38 26.57 19.08 26.07L23.06 23.24C23.27 23.09 23.5 22.87 23.42 22.63C23.39 22.53 23.3 22.45 23.21 22.38C23.13 22.32 23.05 22.25 22.97 22.19L22.98 22.17Z" fill="#FFF0B0"/>
<path d="M18.5099 20.82C18.6199 20.78 18.7499 20.75 18.8999 20.75C19.1999 20.75 19.4999 20.8 19.7699 20.92C20.0899 21.06 20.5499 21.29 20.8199 21.51L21.9699 22.45C22.0899 22.55 22.2199 22.67 22.2199 22.82C22.2199 22.99 22.0699 23.12 21.9299 23.22C21.0799 23.88 20.0399 24.53 19.1799 25.18C19.0499 25.28 18.8899 25.39 18.7299 25.33C18.6099 25.29 18.5499 25.16 18.4999 25.04C18.1699 24.2 17.1899 21.31 18.4999 20.82H18.5099Z" fill="#FFC931"/>
<path d="M40.6 19.88C40.34 19.62 39.97 19.5 39.61 19.54C37.94 19.74 35.61 22.02 35.61 22.02C35.61 22.02 34.4 23.18 36.03 24.25L39.17 26.08C39.17 26.08 41.03 27.54 41.35 25.85C41.95 21.96 41.15 20.44 40.59 19.87L40.6 19.88Z" fill="#FFF0B0"/>
<path d="M39.5798 20.6702C39.3898 20.6702 39.1898 20.7402 39.0098 20.8202C38.5398 21.0402 38.1098 21.3502 37.6798 21.6502C37.2898 21.9202 36.8998 22.2002 36.5698 22.5302C36.3398 22.7602 36.1198 23.0802 36.2198 23.3902C36.3098 23.6502 36.5898 23.8002 36.8498 23.9302C37.7298 24.3602 38.6298 24.9302 39.5198 25.3602C39.8498 25.5202 40.2698 25.7302 40.3798 25.2602C40.5998 24.3602 40.6198 23.2802 40.4898 22.3602C40.4298 21.9402 40.3498 21.5202 40.1598 21.1302C40.0798 20.9702 39.9798 20.8002 39.8098 20.7202C39.7398 20.6802 39.6598 20.6702 39.5798 20.6702Z" fill="#FFC931"/>
<path d="M67.97 18.12L67.94 20.01C68.47 19.91 68.71 19.9 69.28 19.9C71.52 19.9 73.17 21.32 73.17 23.55C73.17 25.98 71.54 27.79 68.7 27.79C67.42 27.79 66.19 27.58 65.31 26.91C64.81 26.53 64.67 25.85 65.07 25.33C65.45 24.8 66.13 24.85 66.54 25.04C67.16 25.33 67.71 25.6 68.56 25.6C69.86 25.6 70.66 24.85 70.66 23.66C70.66 22.3 69.52 21.84 68.13 21.84C67.55 21.84 66.69 22.02 66.18 22.1C65.68 22.2 65.38 21.88 65.4 21.36L65.54 17.09C65.56 16.13 65.97 15.7 66.96 15.7H71.49C72.26 15.7 72.88 16.15 72.88 16.92C72.88 17.69 72.26 18.14 71.49 18.14H67.97V18.12Z" fill="#FFAF22"/>
<path d="M75.1199 21.63C75.1199 18.2 76.2399 15.45 79.6499 15.45C83.0599 15.45 84.1799 18.2 84.1799 21.63C84.1799 25.06 83.0599 27.79 79.6499 27.79C76.2399 27.79 75.1199 25.05 75.1199 21.63ZM81.5399 21.63C81.5399 19.61 81.2399 17.72 79.6499 17.72C78.0599 17.72 77.7599 19.61 77.7599 21.63C77.7599 23.65 78.0599 25.52 79.6499 25.52C81.2399 25.52 81.5399 23.65 81.5399 21.63Z" fill="#FFAF22"/>
<path d="M86.0999 26.3299C86.2799 25.5599 86.8399 25.2099 87.5999 25.3999C88.3699 25.5899 88.6599 26.0899 88.4799 26.8599L88.0599 28.6399C87.8799 29.4099 87.3199 29.7399 86.5399 29.5499C85.7699 29.3599 85.5299 28.8499 85.7099 28.0799L86.0899 26.3399L86.0999 26.3299Z" fill="#FFAF22"/>
<path d="M91.22 21.63C91.22 18.2 92.34 15.45 95.75 15.45C99.16 15.45 100.28 18.2 100.28 21.63C100.28 25.06 99.16 27.79 95.75 27.79C92.34 27.79 91.22 25.05 91.22 21.63ZM97.64 21.63C97.64 19.61 97.34 17.72 95.75 17.72C94.16 17.72 93.86 19.61 93.86 21.63C93.86 23.65 94.16 25.52 95.75 25.52C97.34 25.52 97.64 23.65 97.64 21.63Z" fill="#FFAF22"/>
<path d="M101.78 21.63C101.78 18.2 102.9 15.45 106.31 15.45C109.72 15.45 110.84 18.2 110.84 21.63C110.84 25.06 109.72 27.79 106.31 27.79C102.9 27.79 101.78 25.05 101.78 21.63ZM108.2 21.63C108.2 19.61 107.9 17.72 106.31 17.72C104.72 17.72 104.42 19.61 104.42 21.63C104.42 23.65 104.72 25.52 106.31 25.52C107.9 25.52 108.2 23.65 108.2 21.63Z" fill="#FFAF22"/>
<path d="M112.34 21.63C112.34 18.2 113.46 15.45 116.87 15.45C120.28 15.45 121.4 18.2 121.4 21.63C121.4 25.06 120.28 27.79 116.87 27.79C113.46 27.79 112.34 25.05 112.34 21.63ZM118.76 21.63C118.76 19.61 118.46 17.72 116.87 17.72C115.28 17.72 114.98 19.61 114.98 21.63C114.98 23.65 115.28 25.52 116.87 25.52C118.46 25.52 118.76 23.65 118.76 21.63Z" fill="#FFAF22"/>
<path d="M76.9 44.3C76.36 44.3 76.04 44.02 76.04 43.48C76.04 42.94 76.36 42.66 76.9 42.66H80.44V40.95C78.58 40.72 77.3 39.79 77.3 38C77.3 35.92 79.04 34.99 81.4 34.99C83.76 34.99 85.5 35.93 85.5 38C85.5 39.79 84.22 40.72 82.36 40.95V42.66H85.9C86.44 42.66 86.76 42.94 86.76 43.48C86.76 44.02 86.44 44.3 85.9 44.3H76.9ZM79.19 38C79.19 38.98 80.2 39.42 81.4 39.42C82.6 39.42 83.61 38.99 83.61 38C83.61 37.01 82.6 36.58 81.4 36.58C80.2 36.58 79.19 37.01 79.19 38Z" fill="#FFAF22"/>
<path d="M93.81 39.3101C93.81 40.0901 93.4 40.4701 92.62 40.4701H89.24C88.46 40.4701 88.05 40.0901 88.05 39.3101V35.9601C88.05 35.1801 88.46 34.8001 89.24 34.8001H92.62C93.4 34.8001 93.81 35.1801 93.81 35.9601V39.3101ZM91.34 42.3001V43.7601C91.34 43.9301 91.38 43.9601 91.54 43.9601H96.53C97.03 43.9601 97.35 44.2501 97.35 44.7501C97.35 45.2501 97.04 45.5401 96.53 45.5401H90.49C89.71 45.5401 89.4 45.2401 89.4 44.4801V42.2901C89.4 41.7101 89.81 41.3801 90.37 41.3801C90.93 41.3801 91.34 41.7201 91.34 42.2901V42.3001ZM91.96 36.4601C91.96 36.3301 91.92 36.2901 91.79 36.2901H90.06C89.93 36.2901 89.89 36.3301 89.89 36.4601V38.8101C89.89 38.9401 89.93 38.9801 90.06 38.9801H91.79C91.92 38.9801 91.96 38.9401 91.96 38.8101V36.4601ZM95.13 35.4201C95.13 34.8601 95.53 34.5601 96.09 34.5601C96.65 34.5601 97.05 34.8601 97.05 35.4201V37.0801H97.88C98.38 37.0801 98.74 37.3301 98.74 37.8701C98.74 38.4101 98.38 38.6601 97.88 38.6601H97.05V41.3701C97.05 41.9301 96.65 42.2501 96.09 42.2501C95.53 42.2501 95.13 41.9401 95.13 41.3701V35.4201Z" fill="#FFAF22"/>
<path d="M103.3 39.08C104.33 39.08 105.13 39.02 106.05 38.9C106.51 38.84 106.83 38.91 106.91 39.33C106.99 39.73 106.8 40.01 106.39 40.12C105.59 40.32 104.65 40.37 103.69 40.37V41.37C103.69 41.93 103.33 42.26 102.77 42.26C102.21 42.26 101.85 41.94 101.85 41.37V40.37H100.3C99.8 40.37 99.46 40.24 99.46 39.73C99.46 39.22 99.8 39.07 100.3 39.07H103.3V39.08ZM100.15 36.69C100.15 35.36 101.46 34.62 103.23 34.62C105 34.62 106.31 35.36 106.31 36.69C106.31 38.02 105 38.75 103.23 38.75C101.46 38.75 100.15 38.02 100.15 36.69ZM102.91 43.33V43.81C102.91 43.98 102.95 44.01 103.11 44.01H108.59C109.09 44.01 109.41 44.32 109.41 44.77C109.41 45.22 109.1 45.54 108.59 45.54H102.16C101.38 45.54 101.08 45.24 101.08 44.48V43.33C101.08 42.75 101.43 42.42 102 42.42C102.57 42.42 102.9 42.76 102.9 43.33H102.91ZM102.01 36.69C102.01 37.19 102.57 37.45 103.23 37.45C103.89 37.45 104.45 37.2 104.45 36.69C104.45 36.18 103.89 35.95 103.23 35.95C102.57 35.95 102.01 36.19 102.01 36.69ZM105.54 41.99C105.04 41.99 104.68 41.83 104.68 41.33C104.68 40.83 105.04 40.67 105.54 40.67H107.4V35.42C107.4 34.86 107.74 34.54 108.31 34.54C108.88 34.54 109.22 34.85 109.22 35.42V42.09C109.22 42.65 108.87 42.98 108.31 42.98C107.75 42.98 107.4 42.66 107.4 42.09V41.99H105.54Z" fill="#FFAF22"/>
</svg>
