<svg width="138" height="60" viewBox="0 0 138 60" fill="none" xmlns="http://www.w3.org/2000/svg">
<path d="M130 0H8C3.58172 0 0 3.58172 0 8V52C0 56.4183 3.58172 60 8 60H130C134.418 60 138 56.4183 138 52V8C138 3.58172 134.418 0 130 0Z" fill="#AAAECD"/>
<path d="M24.76 16.7101C25.95 16.4001 27.17 16.2301 28.41 16.2201C34.77 16.1401 40.98 20.2301 43.27 26.0301C45.07 30.6001 44.33 35.9901 41.56 40.0501C38.52 44.5001 33.08 44.8502 28 44.9002C24.36 44.9402 20.6 44.0901 17.73 41.8901C13.12 38.3601 11.68 31.6901 13.73 26.3301C15.52 21.6401 19.83 18.0001 24.76 16.7201V16.7101Z" fill="#E8EDED"/>
<path d="M26.42 32.4402C26.45 32.5402 26.02 33.3302 26.21 33.4202C27.18 33.8902 28.12 34.2602 30.1 33.7502C31.31 33.4402 31.99 32.4802 32.24 31.6802C32.56 30.6502 32.23 29.0202 30.56 27.9102C29.19 29.1902 28.62 31.3202 27.25 32.6002C26.98 32.8502 26.33 32.1602 26.42 32.4402Z" fill="#C7C9D1"/>
<path d="M26.5499 27.62C26.4299 27.66 26.3099 27.71 26.1999 27.77C24.3499 28.67 23.8899 31.33 25.3399 32.79C26.1799 33.63 27.4499 33.96 28.6199 33.77C29.9399 33.56 31.1699 32.68 31.6399 31.43C32.1099 30.18 31.6899 28.61 30.5699 27.89C29.9599 27.5 29.2199 27.37 28.4999 27.35C27.8399 27.33 27.1699 27.39 26.5499 27.61V27.62Z" fill="#D5D8E0"/>
<path d="M27.7799 29.8202C27.7499 29.7002 27.7199 29.5802 27.6699 29.4602C27.5999 29.3102 27.5099 29.1602 27.3699 29.0802C27.2299 29.0002 27.0399 28.9802 26.8999 29.0802C26.7799 29.1702 26.7299 29.3402 26.7099 29.4902C26.6299 29.9402 26.6499 30.3802 26.6799 30.8402C26.6999 31.2102 26.6899 31.5902 26.8799 31.9302C26.9299 32.0102 26.9899 32.0902 27.0699 32.1302C27.1699 32.1702 27.2899 32.1502 27.3899 32.0802C27.4899 32.0102 27.5499 31.9202 27.5999 31.8202C27.7499 31.5402 27.7899 31.2102 27.8199 30.8902C27.8499 30.5302 27.8699 30.1602 27.7899 29.8102L27.7799 29.8202Z" fill="#E8EDED"/>
<path d="M29.7599 29.8202C29.7299 29.7002 29.6999 29.5802 29.6499 29.4602C29.5799 29.3102 29.4899 29.1602 29.3499 29.0802C29.2099 29.0002 29.0199 28.9802 28.8799 29.0802C28.7599 29.1702 28.7099 29.3402 28.6899 29.4902C28.6099 29.9402 28.6299 30.3802 28.6599 30.8402C28.6799 31.2102 28.6699 31.5902 28.8599 31.9302C28.9099 32.0102 28.9699 32.0902 29.0499 32.1302C29.1499 32.1702 29.2699 32.1502 29.3699 32.0802C29.4699 32.0102 29.5299 31.9202 29.5799 31.8202C29.7299 31.5402 29.7699 31.2102 29.7999 30.8902C29.8299 30.5302 29.8499 30.1602 29.7699 29.8102L29.7599 29.8202Z" fill="#E8EDED"/>
<path d="M16.8499 22.2001C16.8499 22.2001 15.3199 17.1201 16.8499 15.5001C18.3799 13.8801 22.9799 17.8601 22.9799 17.8601C22.9799 17.8601 19.0099 19.6801 16.8499 22.2001Z" fill="#E8EDED"/>
<path d="M34.5901 17.9502C34.5901 17.9502 37.0001 15.5902 38.7301 15.3802C39.1101 15.3302 39.4901 15.4602 39.7501 15.7302C40.3301 16.3202 41.1601 17.8902 40.5401 21.9202C40.5401 21.9202 38.4701 19.3102 34.5901 17.9502Z" fill="#E8EDED"/>
<path d="M38.8201 16.3601C38.6201 16.3601 38.4101 16.4301 38.2301 16.5101C37.7401 16.7401 37.3001 17.0501 36.8601 17.3601C36.4601 17.6401 36.0501 17.9301 35.7101 18.2701C35.4701 18.5101 35.2401 18.8401 35.3501 19.1601C35.4401 19.4301 35.7301 19.5901 36.0001 19.7201L38.7501 21.0601C39.0901 21.2201 39.5301 21.4401 39.6401 20.9601C39.8701 20.0301 39.9001 19.0601 39.7701 18.1101C39.7101 17.6701 39.6201 17.2401 39.4301 16.8401C39.3501 16.6701 39.2401 16.5001 39.0601 16.4201C38.9801 16.3801 38.9001 16.3701 38.8201 16.3601Z" fill="#C7C9D1"/>
<path d="M17.9301 16.29C18.0601 16.24 18.2101 16.21 18.3801 16.21C18.7201 16.21 19.0601 16.27 19.3701 16.4C19.7401 16.56 20.0501 16.81 20.3501 17.06L21.6501 18.13C21.7901 18.24 21.9301 18.37 21.9401 18.55C21.9401 18.74 21.7701 18.89 21.6101 19.01L18.7001 21.24C18.5501 21.35 18.3701 21.47 18.1901 21.41C18.0501 21.36 17.9801 21.22 17.9301 21.09C17.5501 20.14 16.4501 16.85 17.9301 16.29Z" fill="#C7C9D1"/>
<path d="M30.07 36.9102C29.4 36.9102 28.88 36.6402 28.87 36.6302C28.75 36.5702 28.71 36.4202 28.77 36.3102C28.83 36.1902 28.98 36.1502 29.09 36.2102C29.15 36.2402 30.52 36.9602 31.57 35.6702C31.65 35.5702 31.8 35.5502 31.9 35.6302C32 35.7102 32.02 35.8602 31.94 35.9602C31.34 36.7002 30.65 36.9002 30.07 36.9002V36.9102Z" fill="#C7C9D1"/>
<path d="M22.6699 28.6201C23.3548 28.6201 23.9099 28.065 23.9099 27.3801C23.9099 26.6953 23.3548 26.1401 22.6699 26.1401C21.9851 26.1401 21.4299 26.6953 21.4299 27.3801C21.4299 28.065 21.9851 28.6201 22.6699 28.6201Z" fill="#2B110C"/>
<path d="M22.2801 27.12C22.3795 27.12 22.4601 27.0394 22.4601 26.94C22.4601 26.8406 22.3795 26.76 22.2801 26.76C22.1807 26.76 22.1001 26.8406 22.1001 26.94C22.1001 27.0394 22.1807 27.12 22.2801 27.12Z" fill="white"/>
<path d="M34.0701 28.6201C34.7549 28.6201 35.3101 28.065 35.3101 27.3801C35.3101 26.6953 34.7549 26.1401 34.0701 26.1401C33.3852 26.1401 32.8301 26.6953 32.8301 27.3801C32.8301 28.065 33.3852 28.6201 34.0701 28.6201Z" fill="#2B110C"/>
<path d="M33.68 27.12C33.7794 27.12 33.86 27.0394 33.86 26.94C33.86 26.8406 33.7794 26.76 33.68 26.76C33.5806 26.76 33.5 26.8406 33.5 26.94C33.5 27.0394 33.5806 27.12 33.68 27.12Z" fill="white"/>
<path d="M81.3001 17.8399L81.2701 19.7299C81.8001 19.6299 82.0401 19.6199 82.6101 19.6199C84.8501 19.6199 86.5001 21.0399 86.5001 23.2699C86.5001 25.6999 84.8701 27.5099 82.0301 27.5099C80.7501 27.5099 79.5201 27.2999 78.6401 26.6299C78.1401 26.2499 78.0001 25.5699 78.4001 25.0499C78.7801 24.5199 79.4601 24.5699 79.8701 24.7599C80.4901 25.0499 81.0401 25.3199 81.8901 25.3199C83.1901 25.3199 83.9901 24.5699 83.9901 23.3799C83.9901 22.0199 82.8501 21.5499 81.4601 21.5499C80.8801 21.5499 80.0201 21.7299 79.5101 21.8099C79.0101 21.9099 78.7101 21.5899 78.7301 21.0699L78.8701 16.7999C78.8901 15.8399 79.3001 15.4099 80.2901 15.4099H84.8201C85.5901 15.4099 86.2101 15.8599 86.2101 16.6299C86.2101 17.3999 85.5901 17.8499 84.8201 17.8499H81.3001V17.8399Z" fill="#E8EDED"/>
<path d="M88.45 21.3399C88.45 17.9099 89.57 15.1599 92.98 15.1599C96.39 15.1599 97.51 17.9099 97.51 21.3399C97.51 24.7699 96.39 27.4999 92.98 27.4999C89.57 27.4999 88.45 24.7599 88.45 21.3399ZM94.87 21.3399C94.87 19.3199 94.57 17.4299 92.98 17.4299C91.39 17.4299 91.09 19.3199 91.09 21.3399C91.09 23.3599 91.39 25.2299 92.98 25.2299C94.57 25.2299 94.87 23.3599 94.87 21.3399Z" fill="#E8EDED"/>
<path d="M99.01 21.3399C99.01 17.9099 100.13 15.1599 103.54 15.1599C106.95 15.1599 108.07 17.9099 108.07 21.3399C108.07 24.7699 106.95 27.4999 103.54 27.4999C100.13 27.4999 99.01 24.7599 99.01 21.3399ZM105.43 21.3399C105.43 19.3199 105.13 17.4299 103.54 17.4299C101.95 17.4299 101.65 19.3199 101.65 21.3399C101.65 23.3599 101.95 25.2299 103.54 25.2299C105.13 25.2299 105.43 23.3599 105.43 21.3399Z" fill="#E8EDED"/>
<path d="M76.9 44.0099C76.36 44.0099 76.04 43.7299 76.04 43.1899C76.04 42.6499 76.36 42.3699 76.9 42.3699H80.44V40.66C78.58 40.43 77.3 39.4999 77.3 37.7099C77.3 35.6299 79.04 34.7 81.4 34.7C83.76 34.7 85.5 35.6399 85.5 37.7099C85.5 39.4999 84.22 40.43 82.36 40.66V42.3699H85.9C86.44 42.3699 86.76 42.6499 86.76 43.1899C86.76 43.7299 86.44 44.0099 85.9 44.0099H76.9ZM79.19 37.7099C79.19 38.6899 80.2 39.13 81.4 39.13C82.6 39.13 83.61 38.6999 83.61 37.7099C83.61 36.7199 82.6 36.29 81.4 36.29C80.2 36.29 79.19 36.7199 79.19 37.7099Z" fill="#E8EDED"/>
<path d="M88.1602 35.31C88.1602 34.75 88.4102 34.45 88.9802 34.45C89.5502 34.45 89.8002 34.75 89.8002 35.31V36.1H91.1702V35.31C91.1702 34.75 91.4202 34.45 91.9902 34.45C92.5602 34.45 92.8102 34.75 92.8102 35.31V38.99C92.8102 39.77 92.5102 40.06 91.7302 40.06H89.2701C88.4901 40.06 88.1802 39.77 88.1802 38.99V35.31H88.1602ZM95.7402 42.64C95.7402 42.53 95.7302 42.51 95.6102 42.51H90.3602C89.8902 42.51 89.5201 42.22 89.5201 41.72C89.5201 41.22 89.8902 40.93 90.3602 40.93H96.6002C97.3902 40.93 97.6702 41.18 97.6702 41.97V44.51C97.6702 45.07 97.2702 45.39 96.7102 45.39C96.1502 45.39 95.7502 45.08 95.7502 44.51V42.64H95.7402ZM89.7902 38.61C89.7902 38.69 89.8302 38.74 89.9102 38.74H91.0402C91.1202 38.74 91.1602 38.69 91.1602 38.61V37.42H89.7902V38.61ZM93.5901 35.18C93.5901 34.66 93.9002 34.38 94.4202 34.38C94.9402 34.38 95.2502 34.67 95.2502 35.18V36.4H95.9902V35.07C95.9902 34.55 96.3102 34.25 96.8302 34.25C97.3502 34.25 97.6602 34.55 97.6602 35.07V39.52C97.6602 40.04 97.3502 40.32 96.8302 40.32C96.3102 40.32 95.9902 40.03 95.9902 39.52V37.82H95.2502V39.5C95.2502 40.02 94.9402 40.3 94.4202 40.3C93.9002 40.3 93.5901 40.01 93.5901 39.5V35.18Z" fill="#E8EDED"/>
<path d="M103.3 38.79C104.33 38.79 105.13 38.73 106.05 38.61C106.51 38.55 106.83 38.62 106.91 39.04C106.99 39.44 106.8 39.72 106.39 39.83C105.59 40.03 104.65 40.08 103.69 40.08V41.08C103.69 41.64 103.33 41.97 102.77 41.97C102.21 41.97 101.85 41.65 101.85 41.08V40.08H100.3C99.8 40.08 99.46 39.95 99.46 39.44C99.46 38.93 99.8 38.78 100.3 38.78H103.3V38.79ZM100.15 36.4C100.15 35.07 101.46 34.32 103.23 34.32C105 34.32 106.31 35.06 106.31 36.4C106.31 37.74 105 38.46 103.23 38.46C101.46 38.46 100.15 37.73 100.15 36.4ZM102.91 43.04V43.52C102.91 43.69 102.95 43.72 103.11 43.72H108.59C109.09 43.72 109.41 44.03 109.41 44.47C109.41 44.91 109.1 45.24 108.59 45.24H102.16C101.38 45.24 101.08 44.94 101.08 44.19V43.04C101.08 42.46 101.43 42.13 102 42.13C102.57 42.13 102.9 42.47 102.9 43.04H102.91ZM102.01 36.4C102.01 36.9 102.57 37.16 103.23 37.16C103.89 37.16 104.45 36.91 104.45 36.4C104.45 35.89 103.89 35.66 103.23 35.66C102.57 35.66 102.01 35.9 102.01 36.4ZM105.54 41.7C105.04 41.7 104.68 41.54 104.68 41.04C104.68 40.54 105.04 40.38 105.54 40.38H107.4V35.13C107.4 34.57 107.74 34.25 108.31 34.25C108.88 34.25 109.22 34.56 109.22 35.13V41.8C109.22 42.36 108.87 42.69 108.31 42.69C107.75 42.69 107.4 42.37 107.4 41.8V41.7H105.54Z" fill="#E8EDED"/>
</svg>
