<svg width="100%" height="100%" viewBox="0 0 62 63" fill="none" xmlns="http://www.w3.org/2000/svg">
<g clip-path="url(#clip0_113_24386)">
<path d="M58.7993 7.05908L57.2093 22.1391V22.1591L1.7793 42.4891C7.0493 56.8391 19.1893 60.1191 19.1893 60.1191C41.4593 66.6291 54.2593 54.3291 54.2593 54.3291C66.5293 43.8491 59.6393 25.1291 59.5893 24.9891C64.4693 11.7491 58.7893 7.05908 58.7893 7.05908H58.7993Z" fill="#FFE266"/>
<path d="M6.21953 17.0989C6.21953 17.0989 3.85953 6.20887 9.79953 0.778874C9.79953 0.778874 17.3895 -0.371126 21.8795 6.34887C21.8795 6.34887 35.2095 1.15887 46.3895 9.56887C46.3895 9.56887 52.1795 6.03887 58.8095 7.04887C58.8095 7.04887 61.4595 12.5989 57.3295 22.1189C57.3295 22.1189 63.6795 39.9589 52.4695 50.5689C52.4695 50.5689 37.9695 64.1089 16.5895 56.4389C16.5895 56.4389 0.729531 50.7589 0.0195312 34.3789C0.0195312 34.3789 0.309531 24.2389 6.23953 17.0889L6.21953 17.0989Z" fill="#FFF3C0"/>
<path d="M12.879 6.66895C12.879 6.66895 10.239 9.84894 11.619 19.1789C11.619 19.1789 3.36904 27.0289 6.47904 38.6889C6.47904 38.6889 6.20904 25.8689 12.569 20.8089C12.569 20.8089 11.709 9.77895 13.689 8.46895C13.689 8.46895 17.909 8.33894 21.789 14.6589C21.789 14.6589 20.679 9.36895 12.869 6.67895L12.879 6.66895Z" fill="#FFDA40"/>
<path d="M54.2999 12.2988L53.9599 14.2888C53.9599 14.2888 49.5399 14.6788 45.9199 16.7888C45.9199 16.7888 35.1199 7.27875 21.7999 14.6488C21.7999 14.6488 21.7499 13.2388 23.7699 12.0388C25.7799 10.8288 36.7399 8.30875 44.9699 15.1088C44.9699 15.1088 49.4699 12.8088 54.2999 12.2888V12.2988Z" fill="#FFDA40"/>
<path d="M13.6998 8.46866C13.6998 8.46866 11.0898 9.68866 12.5798 20.8087C12.5798 20.8087 6.21981 24.8587 6.48981 38.6887C6.48981 38.6887 10.5498 51.1387 27.9398 52.3187C27.9398 52.3187 49.1998 52.0987 53.2398 38.3087C53.2398 38.3087 55.2298 29.6787 50.9898 22.3987C50.9898 22.3987 54.1298 17.1887 53.9598 14.2887C53.9598 14.2887 49.7498 14.2087 45.9198 16.7887C45.9198 16.7887 34.9298 6.95866 21.7998 14.6487C21.7998 14.6487 18.4498 8.23866 13.6998 8.45866V8.46866Z" fill="#FFE266"/>
<path d="M42.9098 32.9889C42.6698 31.5689 41.7898 29.7589 40.9098 28.6289C40.7498 28.4189 39.1098 26.8489 38.9298 26.6589C38.8198 26.5189 38.7098 26.4189 38.5998 26.3489C38.5198 26.2889 38.4398 26.2489 38.3698 26.2289C38.1898 26.1989 39.7998 28.1589 39.4998 28.3189C38.7298 28.7389 37.9698 29.1489 37.1998 29.5689C31.0598 32.8889 24.2198 35.4289 18.0898 38.7489C19.5598 41.2189 23.0698 43.3889 25.8698 44.0589C28.5498 44.6989 31.3698 44.7889 34.0398 44.1289C36.7098 43.4589 39.2098 42.0189 40.9598 39.8989C41.6898 39.0189 42.2898 38.0189 42.6398 36.9389C43.0598 35.6789 43.1398 34.3089 42.9098 32.9989V32.9889Z" fill="#FFDA40"/>
<path d="M20.0997 25.6689C19.6097 26.0489 19.1597 26.4689 18.7497 26.9289C17.4997 28.3589 16.7897 30.2089 16.5297 32.0789C16.2797 33.8589 16.4397 35.7289 17.2297 37.3389C18.1197 39.1689 19.7497 40.5489 21.5397 41.5189C24.1497 42.9389 27.1897 43.5789 30.1597 43.3089C33.1197 43.0289 35.9997 41.8289 38.2497 39.8789C39.8297 38.5089 41.1297 36.7289 41.5897 34.6889C42.1197 32.3189 41.4297 29.7589 39.9797 27.8089C38.5297 25.8589 36.3797 24.4989 34.0597 23.7789C29.8097 22.4589 23.8597 22.7789 20.1197 25.6589L20.0997 25.6689Z" fill="#FFF3C0"/>
<path d="M34.6593 30.659C34.4093 30.499 34.1293 30.369 33.8393 30.289C32.5893 29.969 31.5293 30.559 30.8793 31.489C30.3593 32.219 30.0993 33.179 30.1793 34.069C30.2293 34.549 30.3793 35.019 30.6193 35.439C30.4393 31.979 32.3893 30.699 34.6693 30.659H34.6593Z" fill="#FFDA40"/>
<path d="M30.6197 35.4488C30.8597 35.8588 31.1797 36.2188 31.5797 36.4788C32.3797 36.9988 33.4597 37.0988 34.3197 36.6588C34.7597 36.4288 35.1297 36.0788 35.4197 35.6688C36.0597 34.7788 36.3197 33.5988 36.0397 32.5388C35.8297 31.7688 35.3297 31.0888 34.6597 30.6588C31.5597 30.5488 30.5297 32.7188 30.6097 35.4388L30.6197 35.4488Z" fill="#FFE266"/>
<path d="M25.63 29.2991C25.38 29.1391 25.1 29.0091 24.81 28.9291C23.56 28.6091 22.5 29.1991 21.85 30.1291C21.33 30.8591 21.07 31.8191 21.15 32.7091C21.2 33.1891 21.35 33.6591 21.59 34.0791C21.41 30.6191 23.36 29.3391 25.64 29.2991H25.63Z" fill="#FFDA40"/>
<path d="M21.5797 34.0787C21.8197 34.4887 22.1397 34.8487 22.5397 35.1087C23.3397 35.6287 24.4197 35.7287 25.2797 35.2887C25.7197 35.0587 26.0897 34.7087 26.3797 34.2987C27.0197 33.4087 27.2797 32.2287 26.9997 31.1687C26.7897 30.3987 26.2897 29.7187 25.6197 29.2887C22.5197 29.1787 21.4897 31.3487 21.5697 34.0687L21.5797 34.0787Z" fill="#FFE266"/>
</g>
<defs>
<clipPath id="clip0_113_24386">
<rect width="61.57" height="61.3" fill="white" transform="translate(0 0.708984)"/>
</clipPath>
</defs>
</svg>
