<svg width="100%" height="100%" viewBox="0 0 62 62" fill="none" xmlns="http://www.w3.org/2000/svg">
<g clip-path="url(#clip0_113_24387)">
<path d="M58.3514 6.91674C51.3528 4.39528 44.4428 8.40803 44.4428 8.40803C34.9046 0.88289 24.3427 5.41564 24.3427 5.41564C19.9231 -1.18726 10.1191 0.755345 10.1191 0.755345C4.27218 6.08279 6.5952 16.7671 6.5952 16.7671C0.767956 23.7723 0.472656 33.7306 0.472656 33.7306C0.600619 36.7328 1.26012 39.372 2.23461 41.6776C7.42204 55.7566 19.3718 58.9746 19.3718 58.9746C41.2929 65.3617 53.8924 53.294 53.8924 53.294C65.9701 43.0119 59.1881 24.6455 59.1389 24.5081C63.5979 11.2729 58.3514 6.92655 58.3514 6.91674Z" fill="#FAFAFC"/>
<path d="M33.2019 61.3C32.9361 61.3 32.7195 61.0939 32.7097 60.829C32.7097 60.5543 32.9164 60.3287 33.1822 60.3188L33.6743 60.2992C33.9204 60.2796 34.1763 60.4954 34.1862 60.7701C34.196 61.0449 33.9893 61.2705 33.7137 61.2803L33.2215 61.3H33.2019ZM30.2489 61.2901H30.2292L29.7272 61.2705C29.4515 61.2607 29.2448 61.0252 29.2645 60.7505C29.2744 60.4758 29.4909 60.2698 29.7862 60.2894L30.2685 60.309C30.5442 60.3188 30.7509 60.5445 30.741 60.8192C30.7312 61.0841 30.5146 61.2901 30.2489 61.2901ZM36.6273 61.0351C36.3812 61.0351 36.1745 60.8585 36.1352 60.6034C36.1056 60.3385 36.2927 60.0932 36.5584 60.0539L37.0408 59.9951C37.3065 59.9558 37.5624 60.1422 37.592 60.417C37.6313 60.6819 37.4443 60.9369 37.1687 60.9664L36.6765 61.0351C36.6765 61.0351 36.6372 61.0351 36.6175 61.0351H36.6273ZM26.8135 61.0154C26.8135 61.0154 26.7742 61.0154 26.7545 61.0154L26.2623 60.9566C25.9965 60.9173 25.7997 60.672 25.839 60.4071C25.8784 60.1422 26.1245 59.9558 26.3903 59.9853L26.8726 60.0441C27.1384 60.0736 27.3352 60.3188 27.3057 60.5935C27.2762 60.8388 27.0596 61.0252 26.8135 61.0252V61.0154ZM23.4176 60.466C23.4176 60.466 23.3487 60.466 23.3192 60.4562L22.8368 60.3581C22.5711 60.2992 22.4037 60.0441 22.4529 59.7792C22.512 59.5143 22.7679 59.3475 23.0337 59.3966L23.516 59.4947C23.7818 59.5536 23.9491 59.8087 23.8999 60.0736C23.8507 60.309 23.644 60.466 23.4176 60.466ZM40.0233 60.466C39.7969 60.466 39.5902 60.309 39.541 60.0834C39.4819 59.8185 39.6492 59.5536 39.915 59.4947L40.3875 59.3868C40.6533 59.3279 40.919 59.4849 40.9781 59.7498C41.0371 60.0147 40.8796 60.2796 40.6139 60.3385L40.1316 60.4464C40.1316 60.4464 40.0627 60.4562 40.0233 60.4562V60.466ZM20.061 59.6713C20.061 59.6713 19.9724 59.6713 19.9331 59.6517L19.4507 59.5143C19.185 59.4358 19.0373 59.1709 19.1161 58.906C19.1948 58.6411 19.4606 58.494 19.7263 58.5725L20.1988 58.7C20.4646 58.7687 20.6122 59.0434 20.5433 59.2985C20.4843 59.5143 20.2874 59.6615 20.0709 59.6615L20.061 59.6713ZM43.3405 59.5536C43.1338 59.5536 42.9369 59.426 42.868 59.22C42.7794 58.9649 42.9271 58.6902 43.183 58.6019L43.6456 58.4449C43.9016 58.3566 44.187 58.494 44.2658 58.7491C44.3543 59.0041 44.2165 59.2887 43.9606 59.3672L43.4881 59.5241C43.4389 59.5438 43.3897 59.5438 43.3306 59.5438L43.3405 59.5536ZM16.8226 58.4842C16.7537 58.4842 16.6848 58.4645 16.6159 58.4351L16.1631 58.2193C15.917 58.1015 15.8185 57.8072 15.9367 57.5619C16.0548 57.3166 16.3501 57.2185 16.5962 57.3363L17.0293 57.5423C17.2754 57.66 17.3836 57.9445 17.2655 58.1898C17.1868 58.3664 16.9997 58.4743 16.8226 58.4743V58.4842ZM46.5592 58.3272C46.3722 58.3272 46.1852 58.2193 46.1065 58.0328C45.9982 57.7876 46.1065 57.4932 46.3624 57.3853L46.8053 57.1891C47.0514 57.0812 47.3467 57.1891 47.455 57.4344C47.5731 57.6796 47.455 57.974 47.2089 58.0819L46.7561 58.2879C46.6872 58.3174 46.6281 58.3272 46.5592 58.3272ZM13.8105 56.8163C13.7219 56.8163 13.6235 56.7868 13.5447 56.7378L13.1215 56.4631C12.8951 56.3159 12.836 56.0117 12.9837 55.7861C13.1313 55.5604 13.4365 55.5016 13.6629 55.6487L14.0664 55.9136C14.2928 56.0608 14.3617 56.365 14.2141 56.5906C14.1156 56.7378 13.9582 56.8163 13.8007 56.8163H13.8105ZM49.6402 56.777C49.4729 56.777 49.3055 56.6887 49.2169 56.5317C49.0791 56.2963 49.1677 55.9921 49.404 55.8646C49.5516 55.7861 49.6894 55.6978 49.8174 55.6193C50.0536 55.4819 50.3489 55.5506 50.4966 55.7861C50.6344 56.0216 50.5556 56.3159 50.3292 56.4631C50.1914 56.5514 50.0438 56.6299 49.8961 56.7182C49.8174 56.7574 49.7386 56.7868 49.65 56.7868L49.6402 56.777ZM52.5243 54.9031C52.3767 54.9031 52.229 54.8344 52.1306 54.7069C51.9632 54.491 52.0125 54.1869 52.229 54.0201L52.6129 53.7258C52.8294 53.559 53.1346 53.5982 53.3019 53.8141C53.4693 54.0299 53.4299 54.334 53.2133 54.5008L52.8098 54.805C52.7212 54.8737 52.6129 54.9031 52.5145 54.9031H52.5243ZM11.0248 54.7952C10.9166 54.7952 10.7984 54.7559 10.7099 54.6872C10.5819 54.5793 10.4539 54.4714 10.326 54.3635C10.1193 54.1869 10.0996 53.8729 10.2768 53.6669C10.4539 53.4609 10.7689 53.4412 10.9756 53.6178L11.3398 53.9318C11.5465 54.1084 11.5761 54.4125 11.4087 54.6186C11.3103 54.7363 11.1725 54.7952 11.0248 54.7952ZM55.1131 52.6465C54.9851 52.6465 54.867 52.5975 54.7686 52.5092C54.5717 52.3228 54.5717 52.0088 54.7686 51.8126C54.8867 51.6949 54.995 51.5869 55.1033 51.4692C55.2903 51.273 55.6053 51.2632 55.8021 51.4496C55.999 51.636 56.0088 51.9499 55.8218 52.1462C55.7037 52.2639 55.5954 52.3914 55.4773 52.5092C55.3789 52.6073 55.2509 52.6563 55.1229 52.6563L55.1131 52.6465ZM8.50495 52.4405C8.37699 52.4405 8.23918 52.3914 8.15059 52.2835L7.80608 51.9205C7.61905 51.7243 7.63874 51.4103 7.83561 51.2239C8.03247 51.0473 8.34746 51.0571 8.53448 51.2533L8.85931 51.6065C9.04634 51.8028 9.03649 52.1167 8.83963 52.3031C8.74119 52.3914 8.62307 52.4405 8.50495 52.4405ZM57.2983 49.9975C57.1999 49.9975 57.1014 49.9681 57.0227 49.9092C56.7963 49.7522 56.7372 49.4481 56.8947 49.2224C56.9833 49.0949 57.0719 48.9575 57.1605 48.83C57.3082 48.6043 57.6133 48.5357 57.8397 48.6828C58.0661 48.83 58.135 49.1341 57.9873 49.3598C57.8988 49.4972 57.8003 49.6443 57.7019 49.7817C57.6035 49.919 57.4558 49.9975 57.2983 49.9975ZM6.30005 49.8013C6.1524 49.8013 5.99491 49.7326 5.90632 49.6051L5.61102 49.2028C5.45352 48.9772 5.50274 48.673 5.72914 48.516C5.95553 48.3591 6.26068 48.4081 6.41817 48.6338L6.70363 49.0262C6.86112 49.2421 6.82174 49.556 6.59535 49.713C6.50676 49.7817 6.40833 49.8111 6.30005 49.8111V49.8013ZM58.9914 47.0051C58.9225 47.0051 58.8536 46.9953 58.7847 46.9659C58.5386 46.858 58.4303 46.5636 58.5386 46.3183C58.6075 46.1712 58.6665 46.024 58.7354 45.8768C58.8437 45.6316 59.1292 45.5138 59.3851 45.6218C59.6312 45.7297 59.7493 46.0142 59.641 46.2693C59.5721 46.4263 59.5032 46.5734 59.4343 46.7304C59.3556 46.907 59.1685 47.0149 58.9815 47.0149L58.9914 47.0051ZM4.41997 46.9168C4.25264 46.9168 4.0853 46.8285 3.98687 46.6715L3.74078 46.2399C3.61282 46.0044 3.70141 45.7002 3.93765 45.5727C4.17389 45.4452 4.47903 45.5335 4.607 45.7689L4.84324 46.1908C4.98104 46.4263 4.89245 46.7304 4.65621 46.858C4.57747 46.8972 4.49872 46.9168 4.41013 46.9168H4.41997ZM2.88441 43.8459C2.69739 43.8459 2.51037 43.738 2.43162 43.5516L2.23476 43.0905C2.12648 42.8354 2.25444 42.5509 2.50052 42.4528C2.74661 42.3448 3.04191 42.4724 3.14034 42.7177L3.32736 43.1592C3.43564 43.4044 3.32736 43.6988 3.07144 43.8067C3.01238 43.8361 2.94347 43.8459 2.87457 43.8459H2.88441ZM60.1529 43.7773C60.1529 43.7773 60.0643 43.7773 60.0249 43.7576C59.7591 43.689 59.6115 43.4142 59.6804 43.1592C59.7198 43.0022 59.7591 42.8452 59.7985 42.698C59.8674 42.4331 60.1332 42.2762 60.399 42.3448C60.6647 42.4135 60.8222 42.6784 60.7533 42.9433C60.7139 43.1101 60.6746 43.2671 60.6254 43.4241C60.5663 43.6399 60.3694 43.7871 60.1529 43.7871V43.7773ZM1.66384 40.6475C1.45713 40.6475 1.27011 40.52 1.20121 40.3139L1.04371 39.843C0.964966 39.5879 1.10277 39.3132 1.36854 39.2249C1.63431 39.1464 1.90008 39.2838 1.98867 39.5487L2.13632 40.0098C2.22491 40.2649 2.08711 40.5494 1.83118 40.6279C1.78196 40.6475 1.7229 40.6573 1.67369 40.6573L1.66384 40.6475ZM60.8518 40.412C60.8518 40.412 60.8124 40.412 60.7927 40.412C60.5269 40.3728 60.3301 40.1275 60.3694 39.8626L60.4285 39.3819C60.458 39.117 60.7041 38.9109 60.9699 38.9502C61.2356 38.9796 61.4325 39.2249 61.403 39.4898C61.3833 39.6566 61.3636 39.8234 61.3439 39.9902C61.3144 40.2354 61.0978 40.4218 60.8518 40.4218V40.412ZM0.817317 37.3215C0.581077 37.3215 0.374367 37.1547 0.334994 36.9193C0.305464 36.7525 0.275934 36.5955 0.256247 36.4287C0.216874 36.1638 0.403897 35.9087 0.669667 35.8695C0.935436 35.8302 1.19136 36.0166 1.23074 36.2815C1.25042 36.4385 1.27995 36.5955 1.30948 36.7525C1.3587 37.0174 1.18152 37.2725 0.905906 37.3215C0.876377 37.3215 0.846847 37.3215 0.817317 37.3215ZM61.088 36.9781C60.8124 36.9781 60.5958 36.7525 60.6057 36.4778V35.997C60.6057 35.7223 60.8222 35.5065 61.0978 35.5065C61.3636 35.5065 61.59 35.7223 61.59 35.997V36.4974C61.59 36.7623 61.3636 36.9781 61.0978 36.9781H61.088ZM0.492487 33.9073H0.462957C0.187344 33.8876 -0.0193661 33.662 0.000320597 33.3873C0.000320597 33.2597 0.0200072 33.0929 0.0396939 32.8869C0.0593805 32.622 0.29562 32.4258 0.571233 32.4356C0.837003 32.4552 1.04371 32.6907 1.02403 32.9654C1.00434 33.1616 0.994496 33.3186 0.984653 33.4461C0.964966 33.711 0.748413 33.9073 0.492487 33.9073ZM60.9403 33.5541C60.6844 33.5541 60.4777 33.3578 60.4482 33.1027L60.399 32.622C60.3694 32.3571 60.5663 32.1118 60.8419 32.0824C61.1077 32.0628 61.3538 32.2492 61.3833 32.5239L61.4325 33.0144C61.4522 33.2793 61.2553 33.5246 60.9896 33.5442C60.9699 33.5442 60.96 33.5442 60.9403 33.5442V33.5541ZM0.91575 30.493C0.91575 30.493 0.85669 30.493 0.82716 30.493C0.56139 30.4439 0.38421 30.1888 0.423584 29.9239L0.512173 29.4334C0.56139 29.1685 0.817317 28.9919 1.08309 29.0409C1.34886 29.09 1.52604 29.3451 1.47682 29.61L1.38823 30.0809C1.34886 30.3164 1.14215 30.4832 0.905906 30.4832L0.91575 30.493ZM60.4777 30.1496C60.2415 30.1496 60.0348 29.9828 59.9954 29.7473L59.9068 29.2764C59.8576 29.0115 60.0249 28.7564 60.2907 28.6975C60.5565 28.6485 60.8124 28.8153 60.8714 29.0802L60.96 29.5707C61.0092 29.8356 60.8321 30.0907 60.5663 30.1398C60.5368 30.1398 60.5072 30.1398 60.4777 30.1398V30.1496ZM1.66384 27.1474C1.66384 27.1474 1.57525 27.1474 1.53588 27.1278C1.27011 27.0591 1.12246 26.7844 1.19136 26.5293L1.32917 26.0485C1.40792 25.7934 1.68353 25.6365 1.93946 25.7149C2.20523 25.7934 2.35288 26.0682 2.27413 26.3232L2.14617 26.7844C2.08711 27.0002 1.89024 27.1474 1.67369 27.1474H1.66384ZM59.7001 26.804C59.4835 26.804 59.2867 26.6568 59.2276 26.441L59.0996 25.9799C59.0209 25.7149 59.1685 25.4501 59.4343 25.3716C59.7001 25.2931 59.9659 25.4402 60.0446 25.7051L60.1824 26.1859C60.2513 26.4508 60.1037 26.7157 59.8379 26.7942C59.7985 26.804 59.7493 26.8138 59.7099 26.8138L59.7001 26.804ZM2.75645 23.8901C2.69739 23.8901 2.63833 23.8803 2.57927 23.8508C2.32335 23.7527 2.20523 23.4682 2.30366 23.2131L2.49068 22.752C2.59896 22.4969 2.88441 22.3792 3.1305 22.4871C3.38642 22.595 3.50454 22.8795 3.39627 23.1248L3.21909 23.5761C3.14034 23.7723 2.95332 23.8901 2.76629 23.8901H2.75645ZM59.6017 23.5271C59.6017 23.5271 59.5131 23.5271 59.4638 23.5074C59.2079 23.429 59.0504 23.1542 59.1292 22.8992L59.267 22.4282C59.3457 22.1633 59.6115 22.0162 59.8773 22.0946C60.143 22.1731 60.2907 22.438 60.2119 22.7029L60.0741 23.1739C60.0151 23.3897 59.8182 23.5271 59.6017 23.5271ZM4.21326 20.7799C4.13452 20.7799 4.05577 20.7603 3.97702 20.7211C3.74078 20.5935 3.65219 20.2894 3.78016 20.0539L4.02624 19.6222C4.16405 19.3868 4.45935 19.3083 4.69559 19.4456C4.93183 19.583 5.01057 19.8773 4.87277 20.1128L4.63653 20.5347C4.54794 20.7015 4.3806 20.7898 4.20342 20.7898L4.21326 20.7799ZM60.4285 20.2011C60.4285 20.2011 60.3694 20.2011 60.3301 20.2011C60.0643 20.152 59.8871 19.8871 59.9363 19.6222L60.0249 19.1513C60.0741 18.8864 60.3202 18.7098 60.5958 18.7589C60.8616 18.8079 61.0388 19.063 60.9896 19.3279L60.901 19.8185C60.8518 20.0539 60.645 20.2109 60.4186 20.2109L60.4285 20.2011ZM6.0835 17.8955C5.97522 17.8955 5.87679 17.866 5.7882 17.7974C5.57164 17.6306 5.53227 17.3264 5.69961 17.1106L6.00475 16.7181C6.17209 16.5023 6.48707 16.4729 6.69378 16.6396C6.91034 16.8064 6.93987 17.1204 6.77253 17.3264L6.47723 17.7091C6.3788 17.8366 6.23115 17.8955 6.0835 17.8955ZM60.8813 16.7868H60.8518C60.5761 16.7672 60.3793 16.5317 60.3891 16.2668C60.399 16.1 60.4088 15.9431 60.4186 15.7861C60.4285 15.5114 60.6647 15.3053 60.9305 15.3151C61.2061 15.325 61.4128 15.5604 61.403 15.8253C61.403 15.9921 61.3833 16.1589 61.3734 16.3257C61.3538 16.5808 61.1372 16.7868 60.8813 16.7868ZM6.24099 14.6676C5.98506 14.6676 5.76851 14.4714 5.74882 14.2163L5.70945 13.7159C5.68976 13.4412 5.89647 13.2156 6.16224 13.1959C6.43786 13.1959 6.66425 13.3823 6.68394 13.6472L6.72331 14.128C6.743 14.4027 6.54613 14.6382 6.27052 14.6578C6.26068 14.6578 6.24099 14.6578 6.23115 14.6578L6.24099 14.6676ZM60.8222 13.3725C60.5761 13.3725 60.3596 13.1861 60.3301 12.9408C60.3104 12.7839 60.2907 12.6269 60.271 12.4699C60.2316 12.205 60.4186 11.9499 60.6844 11.9107C60.96 11.8812 61.2061 12.0578 61.2455 12.3227C61.2652 12.4895 61.2947 12.6563 61.3144 12.8231C61.3439 13.088 61.1471 13.3333 60.8813 13.3627C60.8616 13.3627 60.8419 13.3627 60.8222 13.3627V13.3725ZM6.17209 11.2337H6.1524C5.87679 11.2239 5.67008 10.9884 5.67992 10.7235C5.67992 10.5567 5.69961 10.39 5.70945 10.2232C5.72914 9.94845 5.96538 9.75223 6.23115 9.76204C6.50676 9.78166 6.70363 10.0171 6.69378 10.282C6.68394 10.439 6.6741 10.6058 6.66425 10.7628C6.65441 11.0277 6.43786 11.2337 6.17209 11.2337ZM60.0151 10.0367C59.8182 10.0367 59.6312 9.91902 59.5623 9.72279C59.5032 9.57563 59.4442 9.42846 59.3753 9.2911C59.267 9.04583 59.3753 8.75149 59.6213 8.64357C59.8674 8.52583 60.1627 8.64357 60.271 8.88885C60.3399 9.03601 60.4088 9.19299 60.4777 9.35978C60.5761 9.61487 60.458 9.89939 60.2021 9.9975C60.143 10.0171 60.084 10.0367 60.0249 10.0367H60.0151ZM44.5414 8.83979C44.3642 8.83979 44.1968 8.75149 44.1083 8.5847C43.9803 8.34923 44.0689 8.04509 44.3051 7.91754C44.3937 7.86849 44.5512 7.78019 44.7579 7.68208C45.004 7.56434 45.2993 7.66245 45.4174 7.90773C45.5355 8.15301 45.4371 8.44734 45.191 8.56508C44.9942 8.66319 44.8563 8.73187 44.7678 8.78092C44.689 8.82017 44.6103 8.83979 44.5315 8.83979H44.5414ZM6.59535 7.82924C6.59535 7.82924 6.52645 7.82924 6.49692 7.81943C6.23115 7.76057 6.06381 7.50548 6.11303 7.24057C6.1524 7.07379 6.18193 6.907 6.23115 6.75002C6.30005 6.48512 6.56582 6.32814 6.82174 6.38701C7.08751 6.45568 7.24501 6.72058 7.18595 6.97567C7.14657 7.13265 7.1072 7.27982 7.07767 7.4368C7.02845 7.66245 6.82174 7.82924 6.59535 7.82924ZM47.7109 7.51529C47.5042 7.51529 47.3073 7.38774 47.2384 7.1719C47.1597 6.91681 47.2975 6.6421 47.5534 6.55379C47.7109 6.50474 47.8684 6.45568 48.0357 6.40663C48.3015 6.32814 48.5673 6.47531 48.646 6.74021C48.7248 7.00511 48.5771 7.27001 48.3114 7.3485C48.1539 7.39755 48.0062 7.44661 47.8487 7.48585C47.7995 7.50548 47.7503 7.50548 47.7011 7.50548L47.7109 7.51529ZM58.3417 7.40736C58.2826 7.40736 58.2334 7.40736 58.1744 7.37793C58.0267 7.31906 57.8791 7.27001 57.7216 7.22095C57.4656 7.14246 57.318 6.85794 57.4066 6.60285C57.4853 6.34776 57.7708 6.20059 58.0267 6.28889C58.1842 6.33795 58.3515 6.39682 58.509 6.45568C58.765 6.54398 58.8929 6.82851 58.8043 7.0836C58.7354 7.27982 58.5386 7.40736 58.3417 7.40736ZM42.0904 7.29944C42.0018 7.29944 41.923 7.27982 41.8443 7.23076C41.7065 7.15227 41.5687 7.07379 41.4309 6.9953C41.1946 6.86775 41.106 6.56361 41.2439 6.32814C41.3718 6.09267 41.677 6.00437 41.9132 6.14173C42.0608 6.22022 42.2085 6.30852 42.3463 6.39682C42.5825 6.53417 42.6613 6.83832 42.5235 7.06397C42.4349 7.22095 42.2676 7.30925 42.1002 7.30925L42.0904 7.29944ZM51.0576 6.74021C50.8116 6.74021 50.6049 6.56361 50.5753 6.31833C50.5359 6.05343 50.723 5.79834 50.9986 5.7689C51.1659 5.74928 51.3333 5.71985 51.5006 5.71004C51.7664 5.6806 52.0124 5.87683 52.042 6.14173C52.0715 6.40663 51.8746 6.65191 51.6089 6.68134C51.4514 6.70096 51.2939 6.72058 51.1364 6.74021C51.1167 6.74021 51.0872 6.74021 51.0675 6.74021H51.0576ZM54.9851 6.65191C54.9851 6.65191 54.9556 6.65191 54.9359 6.65191C54.7784 6.63228 54.6209 6.62247 54.4634 6.61266C54.1878 6.59304 53.991 6.35757 54.0008 6.09267C54.0205 5.81796 54.2567 5.62174 54.5225 5.63155C54.6898 5.64136 54.8572 5.66098 55.0343 5.67079C55.3001 5.70023 55.497 5.93569 55.4773 6.21041C55.4478 6.46549 55.2411 6.65191 54.9851 6.65191ZM38.9897 5.81796C38.9307 5.81796 38.8716 5.80815 38.8125 5.78853C38.6649 5.72966 38.5074 5.6806 38.3598 5.62174C38.1038 5.53344 37.966 5.25873 38.0546 4.99382C38.1432 4.72892 38.4188 4.60138 38.6846 4.68968C38.8421 4.74855 38.9996 4.7976 39.1571 4.85647C39.413 4.95458 39.541 5.2391 39.4425 5.48438C39.3638 5.6806 39.1768 5.79834 38.9799 5.79834L38.9897 5.81796ZM24.9827 5.66098C24.776 5.66098 24.5889 5.53344 24.52 5.3274C24.4315 5.07231 24.5693 4.78779 24.8252 4.7093C24.963 4.66025 25.1303 4.61119 25.3075 4.55232C25.5733 4.47383 25.839 4.621 25.9276 4.87609C26.0064 5.13118 25.8587 5.40589 25.6028 5.49419C25.4355 5.54325 25.278 5.5923 25.15 5.64136C25.1008 5.66098 25.0417 5.67079 24.9925 5.67079L24.9827 5.66098ZM35.6725 4.89571C35.6725 4.89571 35.6135 4.89571 35.5839 4.89571C35.4264 4.86628 35.269 4.83685 35.1115 4.81722C34.8457 4.77798 34.6587 4.52289 34.698 4.25799C34.7374 3.99309 34.9933 3.80668 35.2591 3.84592C35.4264 3.87535 35.5938 3.90479 35.7611 3.93422C36.0269 3.98328 36.2041 4.23837 36.1549 4.50327C36.1155 4.73873 35.9088 4.90552 35.6725 4.90552V4.89571ZM28.3196 4.83685C28.0833 4.83685 27.8766 4.67006 27.8372 4.42478C27.7979 4.15988 27.9751 3.90479 28.2408 3.86554C28.4082 3.83611 28.5657 3.81649 28.7428 3.78705C29.0086 3.74781 29.2645 3.93422 29.2941 4.20893C29.3236 4.48364 29.1464 4.72892 28.8708 4.75836C28.7133 4.77798 28.546 4.80741 28.3983 4.82703C28.3688 4.82703 28.3491 4.82703 28.3196 4.82703V4.83685ZM7.66827 4.57194C7.59937 4.57194 7.52062 4.55232 7.46156 4.52289C7.21548 4.40516 7.11704 4.11082 7.22532 3.86554C7.29422 3.70857 7.37297 3.5614 7.45172 3.40442C7.57968 3.16895 7.87498 3.07084 8.12106 3.19839C8.3573 3.32593 8.45574 3.62026 8.32777 3.86554C8.24903 4.0029 8.18012 4.15007 8.11122 4.28742C8.02263 4.46402 7.85529 4.56213 7.66827 4.56213V4.57194ZM32.2471 4.55232H31.7647C31.5088 4.5327 31.2726 4.33648 31.2627 4.06177C31.2627 3.78705 31.4793 3.57121 31.745 3.5614H32.2471C32.5227 3.5614 32.7392 3.78705 32.7294 4.06177C32.7294 4.32667 32.503 4.54251 32.2372 4.54251L32.2471 4.55232ZM22.8762 4.18931C22.7581 4.18931 22.6301 4.14025 22.5415 4.05195C22.4234 3.94403 22.3151 3.83611 22.197 3.738C21.9903 3.5614 21.9608 3.25725 22.138 3.05122C22.3151 2.84518 22.6301 2.81575 22.827 2.99235C22.955 3.10027 23.0829 3.21801 23.2109 3.33574C23.4077 3.52215 23.4176 3.83611 23.2306 4.03233C23.1321 4.13044 23.0042 4.18931 22.8762 4.18931ZM20.0216 2.28595C19.9527 2.28595 19.8838 2.27614 19.8149 2.23689C19.6673 2.16822 19.5295 2.10935 19.3818 2.05048C19.1357 1.94256 19.0078 1.65804 19.1161 1.41276C19.2243 1.15767 19.5098 1.04975 19.7559 1.14786C19.9134 1.21654 20.0709 1.28521 20.2284 1.35389C20.4744 1.47163 20.5827 1.75615 20.4744 2.00143C20.3957 2.17803 20.2087 2.28595 20.0315 2.28595H20.0216ZM9.58772 1.74634C9.4696 1.74634 9.34164 1.69728 9.25305 1.60898C9.05618 1.42257 9.04634 1.10861 9.23336 0.91239C9.35148 0.784846 9.4696 0.667112 9.59756 0.549378C9.79443 0.362967 10.1094 0.372778 10.2964 0.569001C10.4835 0.765223 10.4736 1.07918 10.2768 1.26559C10.1685 1.37351 10.0504 1.48144 9.95192 1.59917C9.85349 1.69728 9.72553 1.75615 9.59756 1.75615L9.58772 1.74634ZM16.734 1.2754C16.734 1.2754 16.6749 1.2754 16.6454 1.2754C16.4879 1.24597 16.3304 1.21654 16.1729 1.19691C15.9071 1.15767 15.7201 0.902579 15.7595 0.637679C15.7989 0.372778 16.0449 0.186366 16.3206 0.225611C16.4879 0.255044 16.6552 0.274666 16.8226 0.313911C17.0883 0.362967 17.2655 0.618056 17.2163 0.882957C17.1769 1.11842 16.9702 1.28521 16.734 1.28521V1.2754ZM12.8065 0.99088C12.5407 0.99088 12.3242 0.784846 12.3143 0.510134C12.3143 0.235422 12.521 0.00976562 12.7966 0.00976562C12.964 0.00976562 13.1313 0.00976562 13.2987 0.00976562C13.5743 0.00976562 13.7908 0.225611 13.7908 0.500323C13.7908 0.775034 13.5743 0.99088 13.2987 0.99088C13.1313 0.99088 12.9738 0.99088 12.8163 0.99088H12.8065Z" fill="#CFCFCF"/>
</g>
<defs>
<clipPath id="clip0_113_24387">
<rect width="61.57" height="61.3" fill="white"/>
</clipPath>
</defs>
</svg>
