<svg width="100%" height="100%" viewBox="0 0 146 146" fill="none" xmlns="http://www.w3.org/2000/svg">
<path d="M137.962 31.7598L137.965 31.7672L137.968 31.7745C142.722 42.801 144.624 57.567 144.494 72.9873L144.494 73L144.494 73.0127C144.624 88.4378 142.722 103.199 137.968 114.225L137.965 114.233L137.962 114.24C135.565 119.967 132.456 124.737 128.523 128.67C120.945 136.248 110.161 140.865 95.13 143.014C87.862 143.911 80.3708 144.437 73 144.5C65.6293 144.437 58.1381 143.911 50.8702 143.014C35.8343 140.865 25.0546 136.248 17.4771 128.67C13.5439 124.737 10.4346 119.967 8.03776 114.24L8.03468 114.233L8.03152 114.225C3.27815 103.199 1.37567 88.433 1.50627 73.0127L1.50637 73L1.50627 72.9873C1.37567 57.5622 3.27815 42.8011 8.03152 31.7745L8.03468 31.7672L8.03776 31.7598C10.4346 26.0328 13.5439 21.2632 17.4771 17.3299C25.0546 9.75226 35.839 5.13516 50.8702 2.98587C58.1381 2.08874 65.6293 1.56326 73 1.50005C80.3708 1.56326 87.8619 2.08875 95.1299 2.98588C110.166 5.13515 120.945 9.7522 128.523 17.3299C132.456 21.2632 135.565 26.0328 137.962 31.7598Z" fill="current" stroke="current" stroke-width="3"/>
</svg>
