<svg width="48" height="48" viewBox="0 0 48 48" fill="none" xmlns="http://www.w3.org/2000/svg">
<path d="M44.8899 10.6373L44.8898 10.6373L44.8941 10.6471C46.4169 14.1797 47.0406 18.9538 46.998 23.9915L46.9979 24L46.998 24.0085C47.0406 29.0478 46.4169 33.8203 44.8941 37.3529L44.894 37.3529L44.8899 37.3627C44.1241 39.1926 43.1365 40.7033 41.8957 41.9441C39.5096 44.3303 36.084 45.8181 31.2086 46.5159C28.8398 46.8081 26.3995 46.9792 24 47C21.6005 46.9792 19.1602 46.8081 16.7914 46.5159C11.9145 45.8182 8.49046 44.3303 6.10428 41.9441C4.86347 40.7033 3.87595 39.1926 3.1101 37.3627L3.11016 37.3627L3.10594 37.3529C1.58309 33.8203 0.959377 29.0462 1.00204 24.0085L1.00211 24L1.00204 23.9915C0.959377 18.9522 1.58308 14.1797 3.10594 10.6471L3.10599 10.6471L3.1101 10.6373C3.87595 8.80738 4.86347 7.29674 6.10428 6.0559C8.49041 3.66973 11.916 2.18187 16.7914 1.48409C19.1602 1.19187 21.6005 1.02079 24 1.00004C26.3995 1.02079 28.8398 1.19187 31.2086 1.48409C36.0855 2.18186 39.5095 3.66968 41.8957 6.0559C43.1365 7.29674 44.1241 8.80738 44.8899 10.6373Z" fill="current" stroke="#FFF6D2" stroke-width="2"/>
</svg>
